<?xml version="1.0" encoding="utf-8" standalone="no"?>
<!DOCTYPE svg PUBLIC "-//W3C//DTD SVG 1.1//EN"
  "http://www.w3.org/Graphics/SVG/1.1/DTD/svg11.dtd">
<!-- Created with matplotlib (https://matplotlib.org/) -->
<svg height="432pt" version="1.1" viewBox="0 0 1152 432" width="1152pt" xmlns="http://www.w3.org/2000/svg" xmlns:xlink="http://www.w3.org/1999/xlink">
 <metadata>
  <rdf:RDF xmlns:cc="http://creativecommons.org/ns#" xmlns:dc="http://purl.org/dc/elements/1.1/" xmlns:rdf="http://www.w3.org/1999/02/22-rdf-syntax-ns#">
   <cc:Work>
    <dc:type rdf:resource="http://purl.org/dc/dcmitype/StillImage"/>
    <dc:date>2021-04-23T15:13:37.431063</dc:date>
    <dc:format>image/svg+xml</dc:format>
    <dc:creator>
     <cc:Agent>
      <dc:title>Matplotlib v3.3.3, https://matplotlib.org/</dc:title>
     </cc:Agent>
    </dc:creator>
   </cc:Work>
  </rdf:RDF>
 </metadata>
 <defs>
  <style type="text/css">*{stroke-linecap:butt;stroke-linejoin:round;}</style>
 </defs>
 <g id="figure_1">
  <g id="patch_1">
   <path d="M 0 432 
L 1152 432 
L 1152 0 
L 0 0 
z
" style="fill:#ffffff;"/>
  </g>
  <g id="axes_1">
   <g id="patch_2">
    <path d="M 55.705625 197.796562 
L 591.302813 197.796562 
L 591.302813 35.149375 
L 55.705625 35.149375 
z
" style="fill:#ffffff;"/>
   </g>
   <g id="matplotlib.axis_1">
    <g id="xtick_1">
     <g id="line2d_1">
      <defs>
       <path d="M 0 0 
L 0 3.5 
" id="m32b1da86a0" style="stroke:#000000;stroke-width:0.8;"/>
      </defs>
      <g>
       <use style="stroke:#000000;stroke-width:0.8;" x="80.050952" xlink:href="#m32b1da86a0" y="197.796562"/>
      </g>
     </g>
     <g id="text_1">
      <!-- 10 -->
      <g transform="translate(73.688452 212.395)scale(0.1 -0.1)">
       <defs>
        <path d="M 12.40625 8.296875 
L 28.515625 8.296875 
L 28.515625 63.921875 
L 10.984375 60.40625 
L 10.984375 69.390625 
L 28.421875 72.90625 
L 38.28125 72.90625 
L 38.28125 8.296875 
L 54.390625 8.296875 
L 54.390625 0 
L 12.40625 0 
z
" id="DejaVuSans-49"/>
        <path d="M 31.78125 66.40625 
Q 24.171875 66.40625 20.328125 58.90625 
Q 16.5 51.421875 16.5 36.375 
Q 16.5 21.390625 20.328125 13.890625 
Q 24.171875 6.390625 31.78125 6.390625 
Q 39.453125 6.390625 43.28125 13.890625 
Q 47.125 21.390625 47.125 36.375 
Q 47.125 51.421875 43.28125 58.90625 
Q 39.453125 66.40625 31.78125 66.40625 
z
M 31.78125 74.21875 
Q 44.046875 74.21875 50.515625 64.515625 
Q 56.984375 54.828125 56.984375 36.375 
Q 56.984375 17.96875 50.515625 8.265625 
Q 44.046875 -1.421875 31.78125 -1.421875 
Q 19.53125 -1.421875 13.0625 8.265625 
Q 6.59375 17.96875 6.59375 36.375 
Q 6.59375 54.828125 13.0625 64.515625 
Q 19.53125 74.21875 31.78125 74.21875 
z
" id="DejaVuSans-48"/>
       </defs>
       <use xlink:href="#DejaVuSans-49"/>
       <use x="63.623047" xlink:href="#DejaVuSans-48"/>
      </g>
     </g>
    </g>
    <g id="xtick_2">
     <g id="line2d_2">
      <g>
       <use style="stroke:#000000;stroke-width:0.8;" x="144.971823" xlink:href="#m32b1da86a0" y="197.796562"/>
      </g>
     </g>
     <g id="text_2">
      <!-- 12 -->
      <g transform="translate(138.609323 212.395)scale(0.1 -0.1)">
       <defs>
        <path d="M 19.1875 8.296875 
L 53.609375 8.296875 
L 53.609375 0 
L 7.328125 0 
L 7.328125 8.296875 
Q 12.9375 14.109375 22.625 23.890625 
Q 32.328125 33.6875 34.8125 36.53125 
Q 39.546875 41.84375 41.421875 45.53125 
Q 43.3125 49.21875 43.3125 52.78125 
Q 43.3125 58.59375 39.234375 62.25 
Q 35.15625 65.921875 28.609375 65.921875 
Q 23.96875 65.921875 18.8125 64.3125 
Q 13.671875 62.703125 7.8125 59.421875 
L 7.8125 69.390625 
Q 13.765625 71.78125 18.9375 73 
Q 24.125 74.21875 28.421875 74.21875 
Q 39.75 74.21875 46.484375 68.546875 
Q 53.21875 62.890625 53.21875 53.421875 
Q 53.21875 48.921875 51.53125 44.890625 
Q 49.859375 40.875 45.40625 35.40625 
Q 44.1875 33.984375 37.640625 27.21875 
Q 31.109375 20.453125 19.1875 8.296875 
z
" id="DejaVuSans-50"/>
       </defs>
       <use xlink:href="#DejaVuSans-49"/>
       <use x="63.623047" xlink:href="#DejaVuSans-50"/>
      </g>
     </g>
    </g>
    <g id="xtick_3">
     <g id="line2d_3">
      <g>
       <use style="stroke:#000000;stroke-width:0.8;" x="209.892694" xlink:href="#m32b1da86a0" y="197.796562"/>
      </g>
     </g>
     <g id="text_3">
      <!-- 14 -->
      <g transform="translate(203.530194 212.395)scale(0.1 -0.1)">
       <defs>
        <path d="M 37.796875 64.3125 
L 12.890625 25.390625 
L 37.796875 25.390625 
z
M 35.203125 72.90625 
L 47.609375 72.90625 
L 47.609375 25.390625 
L 58.015625 25.390625 
L 58.015625 17.1875 
L 47.609375 17.1875 
L 47.609375 0 
L 37.796875 0 
L 37.796875 17.1875 
L 4.890625 17.1875 
L 4.890625 26.703125 
z
" id="DejaVuSans-52"/>
       </defs>
       <use xlink:href="#DejaVuSans-49"/>
       <use x="63.623047" xlink:href="#DejaVuSans-52"/>
      </g>
     </g>
    </g>
    <g id="xtick_4">
     <g id="line2d_4">
      <g>
       <use style="stroke:#000000;stroke-width:0.8;" x="274.813565" xlink:href="#m32b1da86a0" y="197.796562"/>
      </g>
     </g>
     <g id="text_4">
      <!-- 16 -->
      <g transform="translate(268.451065 212.395)scale(0.1 -0.1)">
       <defs>
        <path d="M 33.015625 40.375 
Q 26.375 40.375 22.484375 35.828125 
Q 18.609375 31.296875 18.609375 23.390625 
Q 18.609375 15.53125 22.484375 10.953125 
Q 26.375 6.390625 33.015625 6.390625 
Q 39.65625 6.390625 43.53125 10.953125 
Q 47.40625 15.53125 47.40625 23.390625 
Q 47.40625 31.296875 43.53125 35.828125 
Q 39.65625 40.375 33.015625 40.375 
z
M 52.59375 71.296875 
L 52.59375 62.3125 
Q 48.875 64.0625 45.09375 64.984375 
Q 41.3125 65.921875 37.59375 65.921875 
Q 27.828125 65.921875 22.671875 59.328125 
Q 17.53125 52.734375 16.796875 39.40625 
Q 19.671875 43.65625 24.015625 45.921875 
Q 28.375 48.1875 33.59375 48.1875 
Q 44.578125 48.1875 50.953125 41.515625 
Q 57.328125 34.859375 57.328125 23.390625 
Q 57.328125 12.15625 50.6875 5.359375 
Q 44.046875 -1.421875 33.015625 -1.421875 
Q 20.359375 -1.421875 13.671875 8.265625 
Q 6.984375 17.96875 6.984375 36.375 
Q 6.984375 53.65625 15.1875 63.9375 
Q 23.390625 74.21875 37.203125 74.21875 
Q 40.921875 74.21875 44.703125 73.484375 
Q 48.484375 72.75 52.59375 71.296875 
z
" id="DejaVuSans-54"/>
       </defs>
       <use xlink:href="#DejaVuSans-49"/>
       <use x="63.623047" xlink:href="#DejaVuSans-54"/>
      </g>
     </g>
    </g>
    <g id="xtick_5">
     <g id="line2d_5">
      <g>
       <use style="stroke:#000000;stroke-width:0.8;" x="339.734437" xlink:href="#m32b1da86a0" y="197.796562"/>
      </g>
     </g>
     <g id="text_5">
      <!-- 18 -->
      <g transform="translate(333.371937 212.395)scale(0.1 -0.1)">
       <defs>
        <path d="M 31.78125 34.625 
Q 24.75 34.625 20.71875 30.859375 
Q 16.703125 27.09375 16.703125 20.515625 
Q 16.703125 13.921875 20.71875 10.15625 
Q 24.75 6.390625 31.78125 6.390625 
Q 38.8125 6.390625 42.859375 10.171875 
Q 46.921875 13.96875 46.921875 20.515625 
Q 46.921875 27.09375 42.890625 30.859375 
Q 38.875 34.625 31.78125 34.625 
z
M 21.921875 38.8125 
Q 15.578125 40.375 12.03125 44.71875 
Q 8.5 49.078125 8.5 55.328125 
Q 8.5 64.0625 14.71875 69.140625 
Q 20.953125 74.21875 31.78125 74.21875 
Q 42.671875 74.21875 48.875 69.140625 
Q 55.078125 64.0625 55.078125 55.328125 
Q 55.078125 49.078125 51.53125 44.71875 
Q 48 40.375 41.703125 38.8125 
Q 48.828125 37.15625 52.796875 32.3125 
Q 56.78125 27.484375 56.78125 20.515625 
Q 56.78125 9.90625 50.3125 4.234375 
Q 43.84375 -1.421875 31.78125 -1.421875 
Q 19.734375 -1.421875 13.25 4.234375 
Q 6.78125 9.90625 6.78125 20.515625 
Q 6.78125 27.484375 10.78125 32.3125 
Q 14.796875 37.15625 21.921875 38.8125 
z
M 18.3125 54.390625 
Q 18.3125 48.734375 21.84375 45.5625 
Q 25.390625 42.390625 31.78125 42.390625 
Q 38.140625 42.390625 41.71875 45.5625 
Q 45.3125 48.734375 45.3125 54.390625 
Q 45.3125 60.0625 41.71875 63.234375 
Q 38.140625 66.40625 31.78125 66.40625 
Q 25.390625 66.40625 21.84375 63.234375 
Q 18.3125 60.0625 18.3125 54.390625 
z
" id="DejaVuSans-56"/>
       </defs>
       <use xlink:href="#DejaVuSans-49"/>
       <use x="63.623047" xlink:href="#DejaVuSans-56"/>
      </g>
     </g>
    </g>
    <g id="xtick_6">
     <g id="line2d_6">
      <g>
       <use style="stroke:#000000;stroke-width:0.8;" x="404.655308" xlink:href="#m32b1da86a0" y="197.796562"/>
      </g>
     </g>
     <g id="text_6">
      <!-- 20 -->
      <g transform="translate(398.292808 212.395)scale(0.1 -0.1)">
       <use xlink:href="#DejaVuSans-50"/>
       <use x="63.623047" xlink:href="#DejaVuSans-48"/>
      </g>
     </g>
    </g>
    <g id="xtick_7">
     <g id="line2d_7">
      <g>
       <use style="stroke:#000000;stroke-width:0.8;" x="469.576179" xlink:href="#m32b1da86a0" y="197.796562"/>
      </g>
     </g>
     <g id="text_7">
      <!-- 22 -->
      <g transform="translate(463.213679 212.395)scale(0.1 -0.1)">
       <use xlink:href="#DejaVuSans-50"/>
       <use x="63.623047" xlink:href="#DejaVuSans-50"/>
      </g>
     </g>
    </g>
    <g id="xtick_8">
     <g id="line2d_8">
      <g>
       <use style="stroke:#000000;stroke-width:0.8;" x="534.49705" xlink:href="#m32b1da86a0" y="197.796562"/>
      </g>
     </g>
     <g id="text_8">
      <!-- 24 -->
      <g transform="translate(528.13455 212.395)scale(0.1 -0.1)">
       <use xlink:href="#DejaVuSans-50"/>
       <use x="63.623047" xlink:href="#DejaVuSans-52"/>
      </g>
     </g>
    </g>
   </g>
   <g id="matplotlib.axis_2">
    <g id="ytick_1">
     <g id="line2d_9">
      <defs>
       <path d="M 0 0 
L -3.5 0 
" id="m694d7b1aeb" style="stroke:#000000;stroke-width:0.8;"/>
      </defs>
      <g>
       <use style="stroke:#000000;stroke-width:0.8;" x="55.705625" xlink:href="#m694d7b1aeb" y="174.56125"/>
      </g>
     </g>
     <g id="text_9">
      <!-- 1.5 -->
      <g transform="translate(32.8025 178.360469)scale(0.1 -0.1)">
       <defs>
        <path d="M 10.6875 12.40625 
L 21 12.40625 
L 21 0 
L 10.6875 0 
z
" id="DejaVuSans-46"/>
        <path d="M 10.796875 72.90625 
L 49.515625 72.90625 
L 49.515625 64.59375 
L 19.828125 64.59375 
L 19.828125 46.734375 
Q 21.96875 47.46875 24.109375 47.828125 
Q 26.265625 48.1875 28.421875 48.1875 
Q 40.625 48.1875 47.75 41.5 
Q 54.890625 34.8125 54.890625 23.390625 
Q 54.890625 11.625 47.5625 5.09375 
Q 40.234375 -1.421875 26.90625 -1.421875 
Q 22.3125 -1.421875 17.546875 -0.640625 
Q 12.796875 0.140625 7.71875 1.703125 
L 7.71875 11.625 
Q 12.109375 9.234375 16.796875 8.0625 
Q 21.484375 6.890625 26.703125 6.890625 
Q 35.15625 6.890625 40.078125 11.328125 
Q 45.015625 15.765625 45.015625 23.390625 
Q 45.015625 31 40.078125 35.4375 
Q 35.15625 39.890625 26.703125 39.890625 
Q 22.75 39.890625 18.8125 39.015625 
Q 14.890625 38.140625 10.796875 36.28125 
z
" id="DejaVuSans-53"/>
       </defs>
       <use xlink:href="#DejaVuSans-49"/>
       <use x="63.623047" xlink:href="#DejaVuSans-46"/>
       <use x="95.410156" xlink:href="#DejaVuSans-53"/>
      </g>
     </g>
    </g>
    <g id="ytick_2">
     <g id="line2d_10">
      <g>
       <use style="stroke:#000000;stroke-width:0.8;" x="55.705625" xlink:href="#m694d7b1aeb" y="148.157486"/>
      </g>
     </g>
     <g id="text_10">
      <!-- 2.0 -->
      <g transform="translate(32.8025 151.956705)scale(0.1 -0.1)">
       <use xlink:href="#DejaVuSans-50"/>
       <use x="63.623047" xlink:href="#DejaVuSans-46"/>
       <use x="95.410156" xlink:href="#DejaVuSans-48"/>
      </g>
     </g>
    </g>
    <g id="ytick_3">
     <g id="line2d_11">
      <g>
       <use style="stroke:#000000;stroke-width:0.8;" x="55.705625" xlink:href="#m694d7b1aeb" y="121.753722"/>
      </g>
     </g>
     <g id="text_11">
      <!-- 2.5 -->
      <g transform="translate(32.8025 125.55294)scale(0.1 -0.1)">
       <use xlink:href="#DejaVuSans-50"/>
       <use x="63.623047" xlink:href="#DejaVuSans-46"/>
       <use x="95.410156" xlink:href="#DejaVuSans-53"/>
      </g>
     </g>
    </g>
    <g id="ytick_4">
     <g id="line2d_12">
      <g>
       <use style="stroke:#000000;stroke-width:0.8;" x="55.705625" xlink:href="#m694d7b1aeb" y="95.349957"/>
      </g>
     </g>
     <g id="text_12">
      <!-- 3.0 -->
      <g transform="translate(32.8025 99.149176)scale(0.1 -0.1)">
       <defs>
        <path d="M 40.578125 39.3125 
Q 47.65625 37.796875 51.625 33 
Q 55.609375 28.21875 55.609375 21.1875 
Q 55.609375 10.40625 48.1875 4.484375 
Q 40.765625 -1.421875 27.09375 -1.421875 
Q 22.515625 -1.421875 17.65625 -0.515625 
Q 12.796875 0.390625 7.625 2.203125 
L 7.625 11.71875 
Q 11.71875 9.328125 16.59375 8.109375 
Q 21.484375 6.890625 26.8125 6.890625 
Q 36.078125 6.890625 40.9375 10.546875 
Q 45.796875 14.203125 45.796875 21.1875 
Q 45.796875 27.640625 41.28125 31.265625 
Q 36.765625 34.90625 28.71875 34.90625 
L 20.21875 34.90625 
L 20.21875 43.015625 
L 29.109375 43.015625 
Q 36.375 43.015625 40.234375 45.921875 
Q 44.09375 48.828125 44.09375 54.296875 
Q 44.09375 59.90625 40.109375 62.90625 
Q 36.140625 65.921875 28.71875 65.921875 
Q 24.65625 65.921875 20.015625 65.03125 
Q 15.375 64.15625 9.8125 62.3125 
L 9.8125 71.09375 
Q 15.4375 72.65625 20.34375 73.4375 
Q 25.25 74.21875 29.59375 74.21875 
Q 40.828125 74.21875 47.359375 69.109375 
Q 53.90625 64.015625 53.90625 55.328125 
Q 53.90625 49.265625 50.4375 45.09375 
Q 46.96875 40.921875 40.578125 39.3125 
z
" id="DejaVuSans-51"/>
       </defs>
       <use xlink:href="#DejaVuSans-51"/>
       <use x="63.623047" xlink:href="#DejaVuSans-46"/>
       <use x="95.410156" xlink:href="#DejaVuSans-48"/>
      </g>
     </g>
    </g>
    <g id="ytick_5">
     <g id="line2d_13">
      <g>
       <use style="stroke:#000000;stroke-width:0.8;" x="55.705625" xlink:href="#m694d7b1aeb" y="68.946193"/>
      </g>
     </g>
     <g id="text_13">
      <!-- 3.5 -->
      <g transform="translate(32.8025 72.745412)scale(0.1 -0.1)">
       <use xlink:href="#DejaVuSans-51"/>
       <use x="63.623047" xlink:href="#DejaVuSans-46"/>
       <use x="95.410156" xlink:href="#DejaVuSans-53"/>
      </g>
     </g>
    </g>
    <g id="ytick_6">
     <g id="line2d_14">
      <g>
       <use style="stroke:#000000;stroke-width:0.8;" x="55.705625" xlink:href="#m694d7b1aeb" y="42.542429"/>
      </g>
     </g>
     <g id="text_14">
      <!-- 4.0 -->
      <g transform="translate(32.8025 46.341648)scale(0.1 -0.1)">
       <use xlink:href="#DejaVuSans-52"/>
       <use x="63.623047" xlink:href="#DejaVuSans-46"/>
       <use x="95.410156" xlink:href="#DejaVuSans-48"/>
      </g>
     </g>
    </g>
    <g id="text_15">
     <!-- Current $I$ -->
     <g transform="translate(26.306875 142.932969)rotate(-90)scale(0.12 -0.12)">
      <defs>
       <path d="M 64.40625 67.28125 
L 64.40625 56.890625 
Q 59.421875 61.53125 53.78125 63.8125 
Q 48.140625 66.109375 41.796875 66.109375 
Q 29.296875 66.109375 22.65625 58.46875 
Q 16.015625 50.828125 16.015625 36.375 
Q 16.015625 21.96875 22.65625 14.328125 
Q 29.296875 6.6875 41.796875 6.6875 
Q 48.140625 6.6875 53.78125 8.984375 
Q 59.421875 11.28125 64.40625 15.921875 
L 64.40625 5.609375 
Q 59.234375 2.09375 53.4375 0.328125 
Q 47.65625 -1.421875 41.21875 -1.421875 
Q 24.65625 -1.421875 15.125 8.703125 
Q 5.609375 18.84375 5.609375 36.375 
Q 5.609375 53.953125 15.125 64.078125 
Q 24.65625 74.21875 41.21875 74.21875 
Q 47.75 74.21875 53.53125 72.484375 
Q 59.328125 70.75 64.40625 67.28125 
z
" id="DejaVuSans-67"/>
       <path d="M 8.5 21.578125 
L 8.5 54.6875 
L 17.484375 54.6875 
L 17.484375 21.921875 
Q 17.484375 14.15625 20.5 10.265625 
Q 23.53125 6.390625 29.59375 6.390625 
Q 36.859375 6.390625 41.078125 11.03125 
Q 45.3125 15.671875 45.3125 23.6875 
L 45.3125 54.6875 
L 54.296875 54.6875 
L 54.296875 0 
L 45.3125 0 
L 45.3125 8.40625 
Q 42.046875 3.421875 37.71875 1 
Q 33.40625 -1.421875 27.6875 -1.421875 
Q 18.265625 -1.421875 13.375 4.4375 
Q 8.5 10.296875 8.5 21.578125 
z
M 31.109375 56 
z
" id="DejaVuSans-117"/>
       <path d="M 41.109375 46.296875 
Q 39.59375 47.171875 37.8125 47.578125 
Q 36.03125 48 33.890625 48 
Q 26.265625 48 22.1875 43.046875 
Q 18.109375 38.09375 18.109375 28.8125 
L 18.109375 0 
L 9.078125 0 
L 9.078125 54.6875 
L 18.109375 54.6875 
L 18.109375 46.1875 
Q 20.953125 51.171875 25.484375 53.578125 
Q 30.03125 56 36.53125 56 
Q 37.453125 56 38.578125 55.875 
Q 39.703125 55.765625 41.0625 55.515625 
z
" id="DejaVuSans-114"/>
       <path d="M 56.203125 29.59375 
L 56.203125 25.203125 
L 14.890625 25.203125 
Q 15.484375 15.921875 20.484375 11.0625 
Q 25.484375 6.203125 34.421875 6.203125 
Q 39.59375 6.203125 44.453125 7.46875 
Q 49.3125 8.734375 54.109375 11.28125 
L 54.109375 2.78125 
Q 49.265625 0.734375 44.1875 -0.34375 
Q 39.109375 -1.421875 33.890625 -1.421875 
Q 20.796875 -1.421875 13.15625 6.1875 
Q 5.515625 13.8125 5.515625 26.8125 
Q 5.515625 40.234375 12.765625 48.109375 
Q 20.015625 56 32.328125 56 
Q 43.359375 56 49.78125 48.890625 
Q 56.203125 41.796875 56.203125 29.59375 
z
M 47.21875 32.234375 
Q 47.125 39.59375 43.09375 43.984375 
Q 39.0625 48.390625 32.421875 48.390625 
Q 24.90625 48.390625 20.390625 44.140625 
Q 15.875 39.890625 15.1875 32.171875 
z
" id="DejaVuSans-101"/>
       <path d="M 54.890625 33.015625 
L 54.890625 0 
L 45.90625 0 
L 45.90625 32.71875 
Q 45.90625 40.484375 42.875 44.328125 
Q 39.84375 48.1875 33.796875 48.1875 
Q 26.515625 48.1875 22.3125 43.546875 
Q 18.109375 38.921875 18.109375 30.90625 
L 18.109375 0 
L 9.078125 0 
L 9.078125 54.6875 
L 18.109375 54.6875 
L 18.109375 46.1875 
Q 21.34375 51.125 25.703125 53.5625 
Q 30.078125 56 35.796875 56 
Q 45.21875 56 50.046875 50.171875 
Q 54.890625 44.34375 54.890625 33.015625 
z
" id="DejaVuSans-110"/>
       <path d="M 18.3125 70.21875 
L 18.3125 54.6875 
L 36.8125 54.6875 
L 36.8125 47.703125 
L 18.3125 47.703125 
L 18.3125 18.015625 
Q 18.3125 11.328125 20.140625 9.421875 
Q 21.96875 7.515625 27.59375 7.515625 
L 36.8125 7.515625 
L 36.8125 0 
L 27.59375 0 
Q 17.1875 0 13.234375 3.875 
Q 9.28125 7.765625 9.28125 18.015625 
L 9.28125 47.703125 
L 2.6875 47.703125 
L 2.6875 54.6875 
L 9.28125 54.6875 
L 9.28125 70.21875 
z
" id="DejaVuSans-116"/>
       <path id="DejaVuSans-32"/>
       <path d="M 16.890625 72.90625 
L 26.8125 72.90625 
L 12.59375 0 
L 2.6875 0 
z
" id="DejaVuSans-Oblique-73"/>
      </defs>
      <use transform="translate(0 0.78125)" xlink:href="#DejaVuSans-67"/>
      <use transform="translate(69.824219 0.78125)" xlink:href="#DejaVuSans-117"/>
      <use transform="translate(133.203125 0.78125)" xlink:href="#DejaVuSans-114"/>
      <use transform="translate(174.316406 0.78125)" xlink:href="#DejaVuSans-114"/>
      <use transform="translate(215.429688 0.78125)" xlink:href="#DejaVuSans-101"/>
      <use transform="translate(276.953125 0.78125)" xlink:href="#DejaVuSans-110"/>
      <use transform="translate(340.332031 0.78125)" xlink:href="#DejaVuSans-116"/>
      <use transform="translate(379.541016 0.78125)" xlink:href="#DejaVuSans-32"/>
      <use transform="translate(411.328125 0.78125)" xlink:href="#DejaVuSans-Oblique-73"/>
     </g>
    </g>
   </g>
   <g id="line2d_15">
    <path clip-path="url(#p445468cc29)" d="M 80.050952 190.403509 
L 309.091785 190.403509 
L 309.221627 42.542429 
L 312.337829 42.542429 
L 312.467671 190.403509 
L 566.957486 190.403509 
L 566.957486 190.403509 
" style="fill:none;stroke:#5443a3;stroke-linecap:square;stroke-opacity:0.75;stroke-width:1.5;"/>
   </g>
   <g id="patch_3">
    <path d="M 55.705625 197.796562 
L 55.705625 35.149375 
" style="fill:none;stroke:#000000;stroke-linecap:square;stroke-linejoin:miter;stroke-width:0.8;"/>
   </g>
   <g id="patch_4">
    <path d="M 591.302813 197.796562 
L 591.302813 35.149375 
" style="fill:none;stroke:#000000;stroke-linecap:square;stroke-linejoin:miter;stroke-width:0.8;"/>
   </g>
   <g id="patch_5">
    <path d="M 55.705625 197.796562 
L 591.302813 197.796562 
" style="fill:none;stroke:#000000;stroke-linecap:square;stroke-linejoin:miter;stroke-width:0.8;"/>
   </g>
   <g id="patch_6">
    <path d="M 55.705625 35.149375 
L 591.302813 35.149375 
" style="fill:none;stroke:#000000;stroke-linecap:square;stroke-linejoin:miter;stroke-width:0.8;"/>
   </g>
  </g>
  <g id="axes_2">
   <g id="patch_7">
    <path d="M 605.602812 197.796562 
L 1141.2 197.796562 
L 1141.2 35.149375 
L 605.602812 35.149375 
z
" style="fill:#ffffff;"/>
   </g>
   <g id="matplotlib.axis_3">
    <g id="xtick_9">
     <g id="line2d_16">
      <g>
       <use style="stroke:#000000;stroke-width:0.8;" x="629.948139" xlink:href="#m32b1da86a0" y="197.796562"/>
      </g>
     </g>
     <g id="text_16">
      <!-- 220 -->
      <g transform="translate(620.404389 212.395)scale(0.1 -0.1)">
       <use xlink:href="#DejaVuSans-50"/>
       <use x="63.623047" xlink:href="#DejaVuSans-50"/>
       <use x="127.246094" xlink:href="#DejaVuSans-48"/>
      </g>
     </g>
    </g>
    <g id="xtick_10">
     <g id="line2d_17">
      <g>
       <use style="stroke:#000000;stroke-width:0.8;" x="694.86901" xlink:href="#m32b1da86a0" y="197.796562"/>
      </g>
     </g>
     <g id="text_17">
      <!-- 222 -->
      <g transform="translate(685.32526 212.395)scale(0.1 -0.1)">
       <use xlink:href="#DejaVuSans-50"/>
       <use x="63.623047" xlink:href="#DejaVuSans-50"/>
       <use x="127.246094" xlink:href="#DejaVuSans-50"/>
      </g>
     </g>
    </g>
    <g id="xtick_11">
     <g id="line2d_18">
      <g>
       <use style="stroke:#000000;stroke-width:0.8;" x="759.789882" xlink:href="#m32b1da86a0" y="197.796562"/>
      </g>
     </g>
     <g id="text_18">
      <!-- 224 -->
      <g transform="translate(750.246132 212.395)scale(0.1 -0.1)">
       <use xlink:href="#DejaVuSans-50"/>
       <use x="63.623047" xlink:href="#DejaVuSans-50"/>
       <use x="127.246094" xlink:href="#DejaVuSans-52"/>
      </g>
     </g>
    </g>
    <g id="xtick_12">
     <g id="line2d_19">
      <g>
       <use style="stroke:#000000;stroke-width:0.8;" x="824.710753" xlink:href="#m32b1da86a0" y="197.796562"/>
      </g>
     </g>
     <g id="text_19">
      <!-- 226 -->
      <g transform="translate(815.167003 212.395)scale(0.1 -0.1)">
       <use xlink:href="#DejaVuSans-50"/>
       <use x="63.623047" xlink:href="#DejaVuSans-50"/>
       <use x="127.246094" xlink:href="#DejaVuSans-54"/>
      </g>
     </g>
    </g>
    <g id="xtick_13">
     <g id="line2d_20">
      <g>
       <use style="stroke:#000000;stroke-width:0.8;" x="889.631624" xlink:href="#m32b1da86a0" y="197.796562"/>
      </g>
     </g>
     <g id="text_20">
      <!-- 228 -->
      <g transform="translate(880.087874 212.395)scale(0.1 -0.1)">
       <use xlink:href="#DejaVuSans-50"/>
       <use x="63.623047" xlink:href="#DejaVuSans-50"/>
       <use x="127.246094" xlink:href="#DejaVuSans-56"/>
      </g>
     </g>
    </g>
    <g id="xtick_14">
     <g id="line2d_21">
      <g>
       <use style="stroke:#000000;stroke-width:0.8;" x="954.552495" xlink:href="#m32b1da86a0" y="197.796562"/>
      </g>
     </g>
     <g id="text_21">
      <!-- 230 -->
      <g transform="translate(945.008745 212.395)scale(0.1 -0.1)">
       <use xlink:href="#DejaVuSans-50"/>
       <use x="63.623047" xlink:href="#DejaVuSans-51"/>
       <use x="127.246094" xlink:href="#DejaVuSans-48"/>
      </g>
     </g>
    </g>
    <g id="xtick_15">
     <g id="line2d_22">
      <g>
       <use style="stroke:#000000;stroke-width:0.8;" x="1019.473366" xlink:href="#m32b1da86a0" y="197.796562"/>
      </g>
     </g>
     <g id="text_22">
      <!-- 232 -->
      <g transform="translate(1009.929616 212.395)scale(0.1 -0.1)">
       <use xlink:href="#DejaVuSans-50"/>
       <use x="63.623047" xlink:href="#DejaVuSans-51"/>
       <use x="127.246094" xlink:href="#DejaVuSans-50"/>
      </g>
     </g>
    </g>
    <g id="xtick_16">
     <g id="line2d_23">
      <g>
       <use style="stroke:#000000;stroke-width:0.8;" x="1084.394238" xlink:href="#m32b1da86a0" y="197.796562"/>
      </g>
     </g>
     <g id="text_23">
      <!-- 234 -->
      <g transform="translate(1074.850488 212.395)scale(0.1 -0.1)">
       <use xlink:href="#DejaVuSans-50"/>
       <use x="63.623047" xlink:href="#DejaVuSans-51"/>
       <use x="127.246094" xlink:href="#DejaVuSans-52"/>
      </g>
     </g>
    </g>
   </g>
   <g id="matplotlib.axis_4">
    <g id="ytick_7">
     <g id="line2d_24">
      <g>
       <use style="stroke:#000000;stroke-width:0.8;" x="605.602812" xlink:href="#m694d7b1aeb" y="174.56125"/>
      </g>
     </g>
    </g>
    <g id="ytick_8">
     <g id="line2d_25">
      <g>
       <use style="stroke:#000000;stroke-width:0.8;" x="605.602812" xlink:href="#m694d7b1aeb" y="148.157486"/>
      </g>
     </g>
    </g>
    <g id="ytick_9">
     <g id="line2d_26">
      <g>
       <use style="stroke:#000000;stroke-width:0.8;" x="605.602812" xlink:href="#m694d7b1aeb" y="121.753722"/>
      </g>
     </g>
    </g>
    <g id="ytick_10">
     <g id="line2d_27">
      <g>
       <use style="stroke:#000000;stroke-width:0.8;" x="605.602812" xlink:href="#m694d7b1aeb" y="95.349957"/>
      </g>
     </g>
    </g>
    <g id="ytick_11">
     <g id="line2d_28">
      <g>
       <use style="stroke:#000000;stroke-width:0.8;" x="605.602812" xlink:href="#m694d7b1aeb" y="68.946193"/>
      </g>
     </g>
    </g>
    <g id="ytick_12">
     <g id="line2d_29">
      <g>
       <use style="stroke:#000000;stroke-width:0.8;" x="605.602812" xlink:href="#m694d7b1aeb" y="42.542429"/>
      </g>
     </g>
    </g>
   </g>
   <g id="line2d_30">
    <path clip-path="url(#p32893649ef)" d="M 629.948139 190.403509 
L 1116.854673 190.403509 
L 1116.854673 190.403509 
" style="fill:none;stroke:#5443a3;stroke-linecap:square;stroke-opacity:0.75;stroke-width:1.5;"/>
   </g>
   <g id="patch_8">
    <path d="M 605.602812 197.796562 
L 605.602812 35.149375 
" style="fill:none;stroke:#000000;stroke-linecap:square;stroke-linejoin:miter;stroke-width:0.8;"/>
   </g>
   <g id="patch_9">
    <path d="M 1141.2 197.796562 
L 1141.2 35.149375 
" style="fill:none;stroke:#000000;stroke-linecap:square;stroke-linejoin:miter;stroke-width:0.8;"/>
   </g>
   <g id="patch_10">
    <path d="M 605.602812 197.796562 
L 1141.2 197.796562 
" style="fill:none;stroke:#000000;stroke-linecap:square;stroke-linejoin:miter;stroke-width:0.8;"/>
   </g>
   <g id="patch_11">
    <path d="M 605.602812 35.149375 
L 1141.2 35.149375 
" style="fill:none;stroke:#000000;stroke-linecap:square;stroke-linejoin:miter;stroke-width:0.8;"/>
   </g>
   <g id="legend_1">
    <g id="patch_12">
     <path d="M 1099.2 65.959859 
L 1134.2 65.959859 
Q 1136.2 65.959859 1136.2 63.959859 
L 1136.2 50.281734 
Q 1136.2 48.281734 1134.2 48.281734 
L 1099.2 48.281734 
Q 1097.2 48.281734 1097.2 50.281734 
L 1097.2 63.959859 
Q 1097.2 65.959859 1099.2 65.959859 
z
" style="fill:#ffffff;opacity:0.8;stroke:#cccccc;stroke-linejoin:miter;"/>
    </g>
    <g id="line2d_31">
     <path d="M 1101.2 56.380172 
L 1121.2 56.380172 
" style="fill:none;stroke:#5443a3;stroke-linecap:square;stroke-opacity:0.75;stroke-width:1.5;"/>
    </g>
    <g id="line2d_32"/>
    <g id="text_24">
     <!-- $I$ -->
     <g transform="translate(1129.2 59.880172)scale(0.1 -0.1)">
      <use transform="translate(0 0.09375)" xlink:href="#DejaVuSans-Oblique-73"/>
     </g>
    </g>
   </g>
  </g>
  <g id="axes_3">
   <g id="patch_13">
    <path d="M 55.705625 387.921875 
L 591.302813 387.921875 
L 591.302813 225.274688 
L 55.705625 225.274688 
z
" style="fill:#ffffff;"/>
   </g>
   <g id="matplotlib.axis_5">
    <g id="xtick_17">
     <g id="line2d_33">
      <g>
       <use style="stroke:#000000;stroke-width:0.8;" x="80.050952" xlink:href="#m32b1da86a0" y="387.921875"/>
      </g>
     </g>
     <g id="text_25">
      <!-- 10 -->
      <g transform="translate(73.688452 402.520312)scale(0.1 -0.1)">
       <use xlink:href="#DejaVuSans-49"/>
       <use x="63.623047" xlink:href="#DejaVuSans-48"/>
      </g>
     </g>
    </g>
    <g id="xtick_18">
     <g id="line2d_34">
      <g>
       <use style="stroke:#000000;stroke-width:0.8;" x="144.971823" xlink:href="#m32b1da86a0" y="387.921875"/>
      </g>
     </g>
     <g id="text_26">
      <!-- 12 -->
      <g transform="translate(138.609323 402.520312)scale(0.1 -0.1)">
       <use xlink:href="#DejaVuSans-49"/>
       <use x="63.623047" xlink:href="#DejaVuSans-50"/>
      </g>
     </g>
    </g>
    <g id="xtick_19">
     <g id="line2d_35">
      <g>
       <use style="stroke:#000000;stroke-width:0.8;" x="209.892694" xlink:href="#m32b1da86a0" y="387.921875"/>
      </g>
     </g>
     <g id="text_27">
      <!-- 14 -->
      <g transform="translate(203.530194 402.520312)scale(0.1 -0.1)">
       <use xlink:href="#DejaVuSans-49"/>
       <use x="63.623047" xlink:href="#DejaVuSans-52"/>
      </g>
     </g>
    </g>
    <g id="xtick_20">
     <g id="line2d_36">
      <g>
       <use style="stroke:#000000;stroke-width:0.8;" x="274.813565" xlink:href="#m32b1da86a0" y="387.921875"/>
      </g>
     </g>
     <g id="text_28">
      <!-- 16 -->
      <g transform="translate(268.451065 402.520312)scale(0.1 -0.1)">
       <use xlink:href="#DejaVuSans-49"/>
       <use x="63.623047" xlink:href="#DejaVuSans-54"/>
      </g>
     </g>
    </g>
    <g id="xtick_21">
     <g id="line2d_37">
      <g>
       <use style="stroke:#000000;stroke-width:0.8;" x="339.734437" xlink:href="#m32b1da86a0" y="387.921875"/>
      </g>
     </g>
     <g id="text_29">
      <!-- 18 -->
      <g transform="translate(333.371937 402.520312)scale(0.1 -0.1)">
       <use xlink:href="#DejaVuSans-49"/>
       <use x="63.623047" xlink:href="#DejaVuSans-56"/>
      </g>
     </g>
    </g>
    <g id="xtick_22">
     <g id="line2d_38">
      <g>
       <use style="stroke:#000000;stroke-width:0.8;" x="404.655308" xlink:href="#m32b1da86a0" y="387.921875"/>
      </g>
     </g>
     <g id="text_30">
      <!-- 20 -->
      <g transform="translate(398.292808 402.520312)scale(0.1 -0.1)">
       <use xlink:href="#DejaVuSans-50"/>
       <use x="63.623047" xlink:href="#DejaVuSans-48"/>
      </g>
     </g>
    </g>
    <g id="xtick_23">
     <g id="line2d_39">
      <g>
       <use style="stroke:#000000;stroke-width:0.8;" x="469.576179" xlink:href="#m32b1da86a0" y="387.921875"/>
      </g>
     </g>
     <g id="text_31">
      <!-- 22 -->
      <g transform="translate(463.213679 402.520312)scale(0.1 -0.1)">
       <use xlink:href="#DejaVuSans-50"/>
       <use x="63.623047" xlink:href="#DejaVuSans-50"/>
      </g>
     </g>
    </g>
    <g id="xtick_24">
     <g id="line2d_40">
      <g>
       <use style="stroke:#000000;stroke-width:0.8;" x="534.49705" xlink:href="#m32b1da86a0" y="387.921875"/>
      </g>
     </g>
     <g id="text_32">
      <!-- 24 -->
      <g transform="translate(528.13455 402.520312)scale(0.1 -0.1)">
       <use xlink:href="#DejaVuSans-50"/>
       <use x="63.623047" xlink:href="#DejaVuSans-52"/>
      </g>
     </g>
    </g>
    <g id="text_33">
     <!-- Time ($10^{-2}$ seconds) -->
     <g transform="translate(261.524219 418.704375)scale(0.12 -0.12)">
      <defs>
       <path d="M -0.296875 72.90625 
L 61.375 72.90625 
L 61.375 64.59375 
L 35.5 64.59375 
L 35.5 0 
L 25.59375 0 
L 25.59375 64.59375 
L -0.296875 64.59375 
z
" id="DejaVuSans-84"/>
       <path d="M 9.421875 54.6875 
L 18.40625 54.6875 
L 18.40625 0 
L 9.421875 0 
z
M 9.421875 75.984375 
L 18.40625 75.984375 
L 18.40625 64.59375 
L 9.421875 64.59375 
z
" id="DejaVuSans-105"/>
       <path d="M 52 44.1875 
Q 55.375 50.25 60.0625 53.125 
Q 64.75 56 71.09375 56 
Q 79.640625 56 84.28125 50.015625 
Q 88.921875 44.046875 88.921875 33.015625 
L 88.921875 0 
L 79.890625 0 
L 79.890625 32.71875 
Q 79.890625 40.578125 77.09375 44.375 
Q 74.3125 48.1875 68.609375 48.1875 
Q 61.625 48.1875 57.5625 43.546875 
Q 53.515625 38.921875 53.515625 30.90625 
L 53.515625 0 
L 44.484375 0 
L 44.484375 32.71875 
Q 44.484375 40.625 41.703125 44.40625 
Q 38.921875 48.1875 33.109375 48.1875 
Q 26.21875 48.1875 22.15625 43.53125 
Q 18.109375 38.875 18.109375 30.90625 
L 18.109375 0 
L 9.078125 0 
L 9.078125 54.6875 
L 18.109375 54.6875 
L 18.109375 46.1875 
Q 21.1875 51.21875 25.484375 53.609375 
Q 29.78125 56 35.6875 56 
Q 41.65625 56 45.828125 52.96875 
Q 50 49.953125 52 44.1875 
z
" id="DejaVuSans-109"/>
       <path d="M 31 75.875 
Q 24.46875 64.65625 21.28125 53.65625 
Q 18.109375 42.671875 18.109375 31.390625 
Q 18.109375 20.125 21.3125 9.0625 
Q 24.515625 -2 31 -13.1875 
L 23.1875 -13.1875 
Q 15.875 -1.703125 12.234375 9.375 
Q 8.59375 20.453125 8.59375 31.390625 
Q 8.59375 42.28125 12.203125 53.3125 
Q 15.828125 64.359375 23.1875 75.875 
z
" id="DejaVuSans-40"/>
       <path d="M 10.59375 35.5 
L 73.1875 35.5 
L 73.1875 27.203125 
L 10.59375 27.203125 
z
" id="DejaVuSans-8722"/>
       <path d="M 44.28125 53.078125 
L 44.28125 44.578125 
Q 40.484375 46.53125 36.375 47.5 
Q 32.28125 48.484375 27.875 48.484375 
Q 21.1875 48.484375 17.84375 46.4375 
Q 14.5 44.390625 14.5 40.28125 
Q 14.5 37.15625 16.890625 35.375 
Q 19.28125 33.59375 26.515625 31.984375 
L 29.59375 31.296875 
Q 39.15625 29.25 43.1875 25.515625 
Q 47.21875 21.78125 47.21875 15.09375 
Q 47.21875 7.46875 41.1875 3.015625 
Q 35.15625 -1.421875 24.609375 -1.421875 
Q 20.21875 -1.421875 15.453125 -0.5625 
Q 10.6875 0.296875 5.421875 2 
L 5.421875 11.28125 
Q 10.40625 8.6875 15.234375 7.390625 
Q 20.0625 6.109375 24.8125 6.109375 
Q 31.15625 6.109375 34.5625 8.28125 
Q 37.984375 10.453125 37.984375 14.40625 
Q 37.984375 18.0625 35.515625 20.015625 
Q 33.0625 21.96875 24.703125 23.78125 
L 21.578125 24.515625 
Q 13.234375 26.265625 9.515625 29.90625 
Q 5.8125 33.546875 5.8125 39.890625 
Q 5.8125 47.609375 11.28125 51.796875 
Q 16.75 56 26.8125 56 
Q 31.78125 56 36.171875 55.265625 
Q 40.578125 54.546875 44.28125 53.078125 
z
" id="DejaVuSans-115"/>
       <path d="M 48.78125 52.59375 
L 48.78125 44.1875 
Q 44.96875 46.296875 41.140625 47.34375 
Q 37.3125 48.390625 33.40625 48.390625 
Q 24.65625 48.390625 19.8125 42.84375 
Q 14.984375 37.3125 14.984375 27.296875 
Q 14.984375 17.28125 19.8125 11.734375 
Q 24.65625 6.203125 33.40625 6.203125 
Q 37.3125 6.203125 41.140625 7.25 
Q 44.96875 8.296875 48.78125 10.40625 
L 48.78125 2.09375 
Q 45.015625 0.34375 40.984375 -0.53125 
Q 36.96875 -1.421875 32.421875 -1.421875 
Q 20.0625 -1.421875 12.78125 6.34375 
Q 5.515625 14.109375 5.515625 27.296875 
Q 5.515625 40.671875 12.859375 48.328125 
Q 20.21875 56 33.015625 56 
Q 37.15625 56 41.109375 55.140625 
Q 45.0625 54.296875 48.78125 52.59375 
z
" id="DejaVuSans-99"/>
       <path d="M 30.609375 48.390625 
Q 23.390625 48.390625 19.1875 42.75 
Q 14.984375 37.109375 14.984375 27.296875 
Q 14.984375 17.484375 19.15625 11.84375 
Q 23.34375 6.203125 30.609375 6.203125 
Q 37.796875 6.203125 41.984375 11.859375 
Q 46.1875 17.53125 46.1875 27.296875 
Q 46.1875 37.015625 41.984375 42.703125 
Q 37.796875 48.390625 30.609375 48.390625 
z
M 30.609375 56 
Q 42.328125 56 49.015625 48.375 
Q 55.71875 40.765625 55.71875 27.296875 
Q 55.71875 13.875 49.015625 6.21875 
Q 42.328125 -1.421875 30.609375 -1.421875 
Q 18.84375 -1.421875 12.171875 6.21875 
Q 5.515625 13.875 5.515625 27.296875 
Q 5.515625 40.765625 12.171875 48.375 
Q 18.84375 56 30.609375 56 
z
" id="DejaVuSans-111"/>
       <path d="M 45.40625 46.390625 
L 45.40625 75.984375 
L 54.390625 75.984375 
L 54.390625 0 
L 45.40625 0 
L 45.40625 8.203125 
Q 42.578125 3.328125 38.25 0.953125 
Q 33.9375 -1.421875 27.875 -1.421875 
Q 17.96875 -1.421875 11.734375 6.484375 
Q 5.515625 14.40625 5.515625 27.296875 
Q 5.515625 40.1875 11.734375 48.09375 
Q 17.96875 56 27.875 56 
Q 33.9375 56 38.25 53.625 
Q 42.578125 51.265625 45.40625 46.390625 
z
M 14.796875 27.296875 
Q 14.796875 17.390625 18.875 11.75 
Q 22.953125 6.109375 30.078125 6.109375 
Q 37.203125 6.109375 41.296875 11.75 
Q 45.40625 17.390625 45.40625 27.296875 
Q 45.40625 37.203125 41.296875 42.84375 
Q 37.203125 48.484375 30.078125 48.484375 
Q 22.953125 48.484375 18.875 42.84375 
Q 14.796875 37.203125 14.796875 27.296875 
z
" id="DejaVuSans-100"/>
       <path d="M 8.015625 75.875 
L 15.828125 75.875 
Q 23.140625 64.359375 26.78125 53.3125 
Q 30.421875 42.28125 30.421875 31.390625 
Q 30.421875 20.453125 26.78125 9.375 
Q 23.140625 -1.703125 15.828125 -13.1875 
L 8.015625 -13.1875 
Q 14.5 -2 17.703125 9.0625 
Q 20.90625 20.125 20.90625 31.390625 
Q 20.90625 42.671875 17.703125 53.65625 
Q 14.5 64.65625 8.015625 75.875 
z
" id="DejaVuSans-41"/>
      </defs>
      <use transform="translate(0 0.765625)" xlink:href="#DejaVuSans-84"/>
      <use transform="translate(61.083984 0.765625)" xlink:href="#DejaVuSans-105"/>
      <use transform="translate(88.867188 0.765625)" xlink:href="#DejaVuSans-109"/>
      <use transform="translate(186.279297 0.765625)" xlink:href="#DejaVuSans-101"/>
      <use transform="translate(247.802734 0.765625)" xlink:href="#DejaVuSans-32"/>
      <use transform="translate(279.589844 0.765625)" xlink:href="#DejaVuSans-40"/>
      <use transform="translate(318.603516 0.765625)" xlink:href="#DejaVuSans-49"/>
      <use transform="translate(382.226562 0.765625)" xlink:href="#DejaVuSans-48"/>
      <use transform="translate(446.806641 39.046875)scale(0.7)" xlink:href="#DejaVuSans-8722"/>
      <use transform="translate(505.458984 39.046875)scale(0.7)" xlink:href="#DejaVuSans-50"/>
      <use transform="translate(552.729492 0.765625)" xlink:href="#DejaVuSans-32"/>
      <use transform="translate(584.516602 0.765625)" xlink:href="#DejaVuSans-115"/>
      <use transform="translate(636.616211 0.765625)" xlink:href="#DejaVuSans-101"/>
      <use transform="translate(698.139648 0.765625)" xlink:href="#DejaVuSans-99"/>
      <use transform="translate(753.120117 0.765625)" xlink:href="#DejaVuSans-111"/>
      <use transform="translate(814.301758 0.765625)" xlink:href="#DejaVuSans-110"/>
      <use transform="translate(877.680664 0.765625)" xlink:href="#DejaVuSans-100"/>
      <use transform="translate(941.157227 0.765625)" xlink:href="#DejaVuSans-115"/>
      <use transform="translate(993.256836 0.765625)" xlink:href="#DejaVuSans-41"/>
     </g>
    </g>
   </g>
   <g id="matplotlib.axis_6">
    <g id="ytick_13">
     <g id="line2d_41">
      <g>
       <use style="stroke:#000000;stroke-width:0.8;" x="55.705625" xlink:href="#m694d7b1aeb" y="380.533821"/>
      </g>
     </g>
     <g id="text_34">
      <!-- 0.00 -->
      <g transform="translate(26.44 384.333039)scale(0.1 -0.1)">
       <use xlink:href="#DejaVuSans-48"/>
       <use x="63.623047" xlink:href="#DejaVuSans-46"/>
       <use x="95.410156" xlink:href="#DejaVuSans-48"/>
       <use x="159.033203" xlink:href="#DejaVuSans-48"/>
      </g>
     </g>
    </g>
    <g id="ytick_14">
     <g id="line2d_42">
      <g>
       <use style="stroke:#000000;stroke-width:0.8;" x="55.705625" xlink:href="#m694d7b1aeb" y="355.889474"/>
      </g>
     </g>
     <g id="text_35">
      <!-- 0.25 -->
      <g transform="translate(26.44 359.688693)scale(0.1 -0.1)">
       <use xlink:href="#DejaVuSans-48"/>
       <use x="63.623047" xlink:href="#DejaVuSans-46"/>
       <use x="95.410156" xlink:href="#DejaVuSans-50"/>
       <use x="159.033203" xlink:href="#DejaVuSans-53"/>
      </g>
     </g>
    </g>
    <g id="ytick_15">
     <g id="line2d_43">
      <g>
       <use style="stroke:#000000;stroke-width:0.8;" x="55.705625" xlink:href="#m694d7b1aeb" y="331.245128"/>
      </g>
     </g>
     <g id="text_36">
      <!-- 0.50 -->
      <g transform="translate(26.44 335.044346)scale(0.1 -0.1)">
       <use xlink:href="#DejaVuSans-48"/>
       <use x="63.623047" xlink:href="#DejaVuSans-46"/>
       <use x="95.410156" xlink:href="#DejaVuSans-53"/>
       <use x="159.033203" xlink:href="#DejaVuSans-48"/>
      </g>
     </g>
    </g>
    <g id="ytick_16">
     <g id="line2d_44">
      <g>
       <use style="stroke:#000000;stroke-width:0.8;" x="55.705625" xlink:href="#m694d7b1aeb" y="306.600781"/>
      </g>
     </g>
     <g id="text_37">
      <!-- 0.75 -->
      <g transform="translate(26.44 310.4)scale(0.1 -0.1)">
       <defs>
        <path d="M 8.203125 72.90625 
L 55.078125 72.90625 
L 55.078125 68.703125 
L 28.609375 0 
L 18.3125 0 
L 43.21875 64.59375 
L 8.203125 64.59375 
z
" id="DejaVuSans-55"/>
       </defs>
       <use xlink:href="#DejaVuSans-48"/>
       <use x="63.623047" xlink:href="#DejaVuSans-46"/>
       <use x="95.410156" xlink:href="#DejaVuSans-55"/>
       <use x="159.033203" xlink:href="#DejaVuSans-53"/>
      </g>
     </g>
    </g>
    <g id="ytick_17">
     <g id="line2d_45">
      <g>
       <use style="stroke:#000000;stroke-width:0.8;" x="55.705625" xlink:href="#m694d7b1aeb" y="281.956435"/>
      </g>
     </g>
     <g id="text_38">
      <!-- 1.00 -->
      <g transform="translate(26.44 285.755653)scale(0.1 -0.1)">
       <use xlink:href="#DejaVuSans-49"/>
       <use x="63.623047" xlink:href="#DejaVuSans-46"/>
       <use x="95.410156" xlink:href="#DejaVuSans-48"/>
       <use x="159.033203" xlink:href="#DejaVuSans-48"/>
      </g>
     </g>
    </g>
    <g id="ytick_18">
     <g id="line2d_46">
      <g>
       <use style="stroke:#000000;stroke-width:0.8;" x="55.705625" xlink:href="#m694d7b1aeb" y="257.312088"/>
      </g>
     </g>
     <g id="text_39">
      <!-- 1.25 -->
      <g transform="translate(26.44 261.111307)scale(0.1 -0.1)">
       <use xlink:href="#DejaVuSans-49"/>
       <use x="63.623047" xlink:href="#DejaVuSans-46"/>
       <use x="95.410156" xlink:href="#DejaVuSans-50"/>
       <use x="159.033203" xlink:href="#DejaVuSans-53"/>
      </g>
     </g>
    </g>
    <g id="ytick_19">
     <g id="line2d_47">
      <g>
       <use style="stroke:#000000;stroke-width:0.8;" x="55.705625" xlink:href="#m694d7b1aeb" y="232.667741"/>
      </g>
     </g>
     <g id="text_40">
      <!-- 1.50 -->
      <g transform="translate(26.44 236.46696)scale(0.1 -0.1)">
       <use xlink:href="#DejaVuSans-49"/>
       <use x="63.623047" xlink:href="#DejaVuSans-46"/>
       <use x="95.410156" xlink:href="#DejaVuSans-53"/>
       <use x="159.033203" xlink:href="#DejaVuSans-48"/>
      </g>
     </g>
    </g>
    <g id="text_41">
     <!-- Voltage $V_k, k \in \{1,2\}$ -->
     <g transform="translate(19.92 370.678281)rotate(-90)scale(0.12 -0.12)">
      <defs>
       <path d="M 28.609375 0 
L 0.78125 72.90625 
L 11.078125 72.90625 
L 34.1875 11.53125 
L 57.328125 72.90625 
L 67.578125 72.90625 
L 39.796875 0 
z
" id="DejaVuSans-86"/>
       <path d="M 9.421875 75.984375 
L 18.40625 75.984375 
L 18.40625 0 
L 9.421875 0 
z
" id="DejaVuSans-108"/>
       <path d="M 34.28125 27.484375 
Q 23.390625 27.484375 19.1875 25 
Q 14.984375 22.515625 14.984375 16.5 
Q 14.984375 11.71875 18.140625 8.90625 
Q 21.296875 6.109375 26.703125 6.109375 
Q 34.1875 6.109375 38.703125 11.40625 
Q 43.21875 16.703125 43.21875 25.484375 
L 43.21875 27.484375 
z
M 52.203125 31.203125 
L 52.203125 0 
L 43.21875 0 
L 43.21875 8.296875 
Q 40.140625 3.328125 35.546875 0.953125 
Q 30.953125 -1.421875 24.3125 -1.421875 
Q 15.921875 -1.421875 10.953125 3.296875 
Q 6 8.015625 6 15.921875 
Q 6 25.140625 12.171875 29.828125 
Q 18.359375 34.515625 30.609375 34.515625 
L 43.21875 34.515625 
L 43.21875 35.40625 
Q 43.21875 41.609375 39.140625 45 
Q 35.0625 48.390625 27.6875 48.390625 
Q 23 48.390625 18.546875 47.265625 
Q 14.109375 46.140625 10.015625 43.890625 
L 10.015625 52.203125 
Q 14.9375 54.109375 19.578125 55.046875 
Q 24.21875 56 28.609375 56 
Q 40.484375 56 46.34375 49.84375 
Q 52.203125 43.703125 52.203125 31.203125 
z
" id="DejaVuSans-97"/>
       <path d="M 45.40625 27.984375 
Q 45.40625 37.75 41.375 43.109375 
Q 37.359375 48.484375 30.078125 48.484375 
Q 22.859375 48.484375 18.828125 43.109375 
Q 14.796875 37.75 14.796875 27.984375 
Q 14.796875 18.265625 18.828125 12.890625 
Q 22.859375 7.515625 30.078125 7.515625 
Q 37.359375 7.515625 41.375 12.890625 
Q 45.40625 18.265625 45.40625 27.984375 
z
M 54.390625 6.78125 
Q 54.390625 -7.171875 48.1875 -13.984375 
Q 42 -20.796875 29.203125 -20.796875 
Q 24.46875 -20.796875 20.265625 -20.09375 
Q 16.0625 -19.390625 12.109375 -17.921875 
L 12.109375 -9.1875 
Q 16.0625 -11.328125 19.921875 -12.34375 
Q 23.78125 -13.375 27.78125 -13.375 
Q 36.625 -13.375 41.015625 -8.765625 
Q 45.40625 -4.15625 45.40625 5.171875 
L 45.40625 9.625 
Q 42.625 4.78125 38.28125 2.390625 
Q 33.9375 0 27.875 0 
Q 17.828125 0 11.671875 7.65625 
Q 5.515625 15.328125 5.515625 27.984375 
Q 5.515625 40.671875 11.671875 48.328125 
Q 17.828125 56 27.875 56 
Q 33.9375 56 38.28125 53.609375 
Q 42.625 51.21875 45.40625 46.390625 
L 45.40625 54.6875 
L 54.390625 54.6875 
z
" id="DejaVuSans-103"/>
       <path d="M 20.609375 0 
L 7.8125 72.90625 
L 17.484375 72.90625 
L 28.078125 10.203125 
L 63.484375 72.90625 
L 74.21875 72.90625 
L 32.078125 0 
z
" id="DejaVuSans-Oblique-86"/>
       <path d="M 18.3125 75.984375 
L 27.296875 75.984375 
L 18.703125 31.6875 
L 49.515625 54.6875 
L 61.1875 54.6875 
L 26.8125 28.515625 
L 51.90625 0 
L 41.015625 0 
L 17.671875 26.703125 
L 12.5 0 
L 3.515625 0 
z
" id="DejaVuSans-Oblique-107"/>
       <path d="M 11.71875 12.40625 
L 22.015625 12.40625 
L 22.015625 4 
L 14.015625 -11.625 
L 7.71875 -11.625 
L 11.71875 4 
z
" id="DejaVuSans-44"/>
       <path d="M 16.75 30.609375 
Q 17.09375 27 20.171875 21.140625 
Q 23.78125 14.359375 30.609375 10.546875 
Q 37.3125 6.84375 44.53125 6.78125 
L 78.5625 6.78125 
L 78.5625 -0.984375 
L 44.53125 -0.984375 
Q 35.15625 -0.984375 26.484375 3.84375 
Q 17.828125 8.6875 13.1875 17.28125 
Q 8.546875 25.875 8.546875 35.015625 
Q 8.546875 44.046875 13.1875 52.640625 
Q 17.828125 61.234375 26.484375 66.109375 
Q 35.15625 71 44.53125 71 
L 78.5625 71 
L 78.5625 63.234375 
L 44.53125 63.234375 
Q 37.3125 63.1875 30.609375 59.421875 
Q 23.828125 55.5625 20.171875 48.828125 
Q 17.046875 42.96875 16.609375 38.421875 
L 78.5625 38.421875 
L 78.5625 30.609375 
z
" id="DejaVuSans-8712"/>
       <path d="M 51.125 -9.28125 
L 51.125 -16.3125 
L 48.09375 -16.3125 
Q 35.9375 -16.3125 31.8125 -12.6875 
Q 27.6875 -9.078125 27.6875 1.703125 
L 27.6875 13.375 
Q 27.6875 20.75 25.046875 23.578125 
Q 22.40625 26.421875 15.484375 26.421875 
L 12.5 26.421875 
L 12.5 33.40625 
L 15.484375 33.40625 
Q 22.46875 33.40625 25.078125 36.203125 
Q 27.6875 39.015625 27.6875 46.296875 
L 27.6875 58.015625 
Q 27.6875 68.796875 31.8125 72.390625 
Q 35.9375 75.984375 48.09375 75.984375 
L 51.125 75.984375 
L 51.125 69 
L 47.796875 69 
Q 40.921875 69 38.8125 66.84375 
Q 36.71875 64.703125 36.71875 57.8125 
L 36.71875 45.703125 
Q 36.71875 38.03125 34.5 34.5625 
Q 32.28125 31.109375 26.90625 29.890625 
Q 32.328125 28.5625 34.515625 25.09375 
Q 36.71875 21.625 36.71875 14.015625 
L 36.71875 1.90625 
Q 36.71875 -4.984375 38.8125 -7.125 
Q 40.921875 -9.28125 47.796875 -9.28125 
z
" id="DejaVuSans-123"/>
       <path d="M 12.5 -9.28125 
L 15.921875 -9.28125 
Q 22.75 -9.28125 24.828125 -7.171875 
Q 26.90625 -5.078125 26.90625 1.90625 
L 26.90625 14.015625 
Q 26.90625 21.625 29.09375 25.09375 
Q 31.296875 28.5625 36.71875 29.890625 
Q 31.296875 31.109375 29.09375 34.5625 
Q 26.90625 38.03125 26.90625 45.703125 
L 26.90625 57.8125 
Q 26.90625 64.75 24.828125 66.875 
Q 22.75 69 15.921875 69 
L 12.5 69 
L 12.5 75.984375 
L 15.578125 75.984375 
Q 27.734375 75.984375 31.8125 72.390625 
Q 35.890625 68.796875 35.890625 58.015625 
L 35.890625 46.296875 
Q 35.890625 39.015625 38.515625 36.203125 
Q 41.15625 33.40625 48.09375 33.40625 
L 51.125 33.40625 
L 51.125 26.421875 
L 48.09375 26.421875 
Q 41.15625 26.421875 38.515625 23.578125 
Q 35.890625 20.75 35.890625 13.375 
L 35.890625 1.703125 
Q 35.890625 -9.078125 31.8125 -12.6875 
Q 27.734375 -16.3125 15.578125 -16.3125 
L 12.5 -16.3125 
z
" id="DejaVuSans-125"/>
      </defs>
      <use transform="translate(0 0.015625)" xlink:href="#DejaVuSans-86"/>
      <use transform="translate(68.408203 0.015625)" xlink:href="#DejaVuSans-111"/>
      <use transform="translate(129.589844 0.015625)" xlink:href="#DejaVuSans-108"/>
      <use transform="translate(157.373047 0.015625)" xlink:href="#DejaVuSans-116"/>
      <use transform="translate(196.582031 0.015625)" xlink:href="#DejaVuSans-97"/>
      <use transform="translate(257.861328 0.015625)" xlink:href="#DejaVuSans-103"/>
      <use transform="translate(321.337891 0.015625)" xlink:href="#DejaVuSans-101"/>
      <use transform="translate(382.861328 0.015625)" xlink:href="#DejaVuSans-32"/>
      <use transform="translate(414.648438 0.015625)" xlink:href="#DejaVuSans-Oblique-86"/>
      <use transform="translate(483.056641 -16.390625)scale(0.7)" xlink:href="#DejaVuSans-Oblique-107"/>
      <use transform="translate(526.328125 0.015625)" xlink:href="#DejaVuSans-44"/>
      <use transform="translate(577.597656 0.015625)" xlink:href="#DejaVuSans-Oblique-107"/>
      <use transform="translate(654.990234 0.015625)" xlink:href="#DejaVuSans-8712"/>
      <use transform="translate(761.582031 0.015625)" xlink:href="#DejaVuSans-123"/>
      <use transform="translate(825.205078 0.015625)" xlink:href="#DejaVuSans-49"/>
      <use transform="translate(888.828125 0.015625)" xlink:href="#DejaVuSans-44"/>
      <use transform="translate(940.097656 0.015625)" xlink:href="#DejaVuSans-50"/>
      <use transform="translate(1003.720703 0.015625)" xlink:href="#DejaVuSans-125"/>
     </g>
    </g>
   </g>
   <g id="line2d_48">
    <path clip-path="url(#p05ce1819d0)" d="M 80.050952 366.508329 
L 82.842549 357.867134 
L 85.634147 349.942202 
L 88.425744 342.673993 
L 91.249802 335.93406 
L 94.10632 329.691055 
L 96.962839 323.977017 
L 99.819357 318.747092 
L 102.708336 313.908126 
L 106.571128 307.93335 
L 109.589948 303.932587 
L 112.641229 300.244511 
L 115.789891 296.780305 
L 119.035935 293.538982 
L 122.314439 290.573774 
L 125.722785 287.788568 
L 129.163591 285.254242 
L 132.79916 282.848954 
L 134.227419 281.974277 
L 134.259879 380.524188 
L 134.35726 380.16776 
L 137.116397 370.503276 
L 139.907995 361.531058 
L 142.699592 353.302409 
L 145.49119 345.755719 
L 148.282787 338.834502 
L 151.106845 332.416325 
L 153.995824 326.406851 
L 156.852342 320.970998 
L 159.741321 315.941678 
L 162.66276 311.293656 
L 166.33079 305.924836 
L 169.446991 301.982233 
L 172.595654 298.359712 
L 175.776776 295.034795 
L 179.120201 291.869574 
L 182.496086 288.983326 
L 185.871972 286.378025 
L 189.47508 283.876722 
L 192.526361 281.962152 
L 192.558822 380.450001 
L 192.656203 380.093797 
L 195.41534 370.435455 
L 198.174477 361.568616 
L 200.966074 353.336813 
L 203.757672 345.787362 
L 206.58173 338.786495 
L 209.405788 332.37236 
L 212.262306 326.431101 
L 215.118824 320.993277 
L 217.975343 316.016006 
L 220.929242 311.312287 
L 224.532351 306.027258 
L 227.648552 302.075389 
L 230.764754 298.480075 
L 233.978337 295.111685 
L 237.289302 291.968348 
L 240.665187 289.07244 
L 244.138454 286.386995 
L 247.774022 283.863414 
L 250.792843 281.969447 
L 250.825303 380.49476 
L 250.922685 380.138421 
L 253.681822 370.476364 
L 256.440959 361.606272 
L 259.200096 353.46309 
L 261.991693 345.903092 
L 264.815751 338.892564 
L 267.639809 332.469557 
L 270.463867 326.584783 
L 273.287925 321.193093 
L 276.209364 316.09053 
L 279.163264 311.380207 
L 282.831293 306.000346 
L 285.915034 302.090176 
L 289.063697 298.457796 
L 292.244819 295.123909 
L 295.458402 292.067418 
L 298.834288 289.16185 
L 302.307554 286.467533 
L 305.74836 284.064118 
L 309.091785 281.957322 
L 309.124246 380.157956 
L 309.221627 378.975815 
L 311.948304 347.278049 
L 312.500131 342.372839 
L 315.324189 335.723005 
L 318.213168 329.491042 
L 321.102147 323.787453 
L 324.023586 318.511492 
L 326.977485 313.636643 
L 329.931385 309.184001 
L 332.950206 305.031725 
L 336.033947 301.169167 
L 339.150149 297.619987 
L 342.363732 294.298422 
L 345.609775 291.259774 
L 348.9532 288.430702 
L 352.458927 285.760043 
L 356.126957 283.256867 
L 358.204424 281.959096 
L 358.236885 380.431072 
L 358.334266 380.074323 
L 361.093403 370.40184 
L 363.85254 361.523467 
L 366.644138 353.282102 
L 369.435735 345.724963 
L 372.649318 337.707072 
L 375.505837 331.375545 
L 378.394815 325.512064 
L 381.283794 320.145905 
L 384.205233 315.182041 
L 387.126673 310.643637 
L 390.113033 306.406189 
L 393.164314 302.459545 
L 396.280515 298.792663 
L 399.461638 295.394011 
L 402.675221 292.281331 
L 406.051106 289.325686 
L 409.524373 286.587994 
L 413.0301 284.105224 
L 416.373525 281.973587 
L 416.405985 380.51875 
L 416.503367 380.161735 
L 419.262504 370.482082 
L 422.021641 361.597105 
L 424.813238 353.349628 
L 427.604836 345.786771 
L 430.818419 337.76336 
L 433.707398 331.358097 
L 436.563916 325.559085 
L 439.485355 320.131119 
L 442.439255 315.115797 
L 445.393154 310.534906 
L 448.379515 306.306922 
L 451.430795 302.369051 
L 454.546997 298.71045 
L 457.663199 295.385238 
L 460.974164 292.183838 
L 464.220207 289.3455 
L 467.596092 286.678686 
L 471.101819 284.186551 
L 474.575086 281.968264 
L 474.607546 380.486403 
L 474.704928 380.129485 
L 477.464065 370.452508 
L 480.223202 361.569897 
L 483.014799 353.324589 
L 486.488066 343.842233 
L 489.312124 337.070262 
L 492.201103 330.723752 
L 495.057621 324.977775 
L 497.97906 319.599589 
L 500.93296 314.630205 
L 503.886859 310.091308 
L 506.90568 305.85869 
L 509.989421 301.921313 
L 513.073163 298.339306 
L 516.286746 294.950117 
L 519.467869 291.90861 
L 522.746373 289.069582 
L 526.187179 286.381672 
L 529.855208 283.812154 
L 532.776647 281.962743 
L 532.809108 380.453178 
L 532.906489 380.096359 
L 535.665626 370.422048 
L 538.457223 361.441944 
L 541.21636 353.298959 
L 544.689627 343.820743 
L 547.513685 337.050448 
L 550.370203 330.773632 
L 553.259182 324.961016 
L 556.180621 319.584211 
L 559.10206 314.668256 
L 562.08842 310.078295 
L 565.107241 305.846763 
L 566.957486 303.44039 
L 566.957486 303.44039 
" style="fill:none;stroke:#aa3863;stroke-linecap:square;stroke-opacity:0.75;stroke-width:1.5;"/>
   </g>
   <g id="line2d_49">
    <path clip-path="url(#p05ce1819d0)" d="M 80.050952 304.432867 
L 83.102233 300.70053 
L 86.283355 297.160419 
L 89.496938 293.91466 
L 92.840363 290.85748 
L 96.216249 288.06981 
L 99.721976 285.461846 
L 103.357544 283.034871 
L 105.110408 281.957026 
L 105.142868 380.418672 
L 105.24025 380.062564 
L 107.999387 370.406769 
L 110.790984 361.442437 
L 113.615042 353.129702 
L 116.40664 345.597404 
L 119.230697 338.612506 
L 122.054755 332.21296 
L 124.878813 326.349676 
L 127.735332 320.918653 
L 130.656771 315.839848 
L 133.643131 311.102317 
L 137.2787 305.800431 
L 140.362441 301.908202 
L 143.446182 298.363458 
L 146.627305 295.038344 
L 149.873349 291.960462 
L 153.216774 289.09186 
L 156.592659 286.476011 
L 160.195767 283.964554 
L 163.37689 281.964419 
L 163.40935 380.463476 
L 163.506732 380.107232 
L 166.265869 370.447777 
L 169.025006 361.579952 
L 171.816603 353.347262 
L 174.608201 345.796924 
L 177.432259 338.795268 
L 180.256316 332.380443 
L 183.080374 326.503062 
L 185.969353 320.99998 
L 188.890792 315.914175 
L 191.779771 311.317906 
L 195.41534 305.988714 
L 198.499081 302.079628 
L 201.647743 298.448234 
L 204.828866 295.115234 
L 208.139831 291.971503 
L 211.515716 289.075398 
L 214.859141 286.48508 
L 218.462249 283.972638 
L 221.643372 281.971714 
L 221.675832 380.508297 
L 221.773214 380.151917 
L 224.532351 370.488785 
L 227.323948 361.51775 
L 230.083085 353.381863 
L 232.874683 345.828567 
L 235.69874 338.824348 
L 238.490338 332.477641 
L 241.314396 326.592176 
L 244.203375 321.081405 
L 247.124814 315.988503 
L 250.078713 311.28715 
L 253.746743 305.918823 
L 256.765563 302.094414 
L 259.914225 298.461641 
L 263.095348 295.127458 
L 266.341392 292.041197 
L 269.782198 289.085354 
L 273.158083 286.470194 
L 276.761191 283.95933 
L 279.942314 281.959589 
L 279.974775 380.434177 
L 280.072156 380.07802 
L 282.831293 370.420964 
L 285.59043 361.555308 
L 288.382027 353.324688 
L 291.173625 345.776223 
L 293.997683 338.776341 
L 296.821741 332.362995 
L 299.678259 326.422623 
L 302.534777 320.98539 
L 305.456217 315.900867 
L 308.410116 311.207105 
L 309.091785 310.183675 
L 309.41639 306.785022 
L 312.013225 282.190654 
L 312.045685 380.452355 
L 312.143066 379.270413 
L 312.467671 376.453417 
L 315.226808 367.120001 
L 317.985945 358.549289 
L 320.777542 350.590447 
L 323.56914 343.289214 
L 326.393198 336.516948 
L 329.249716 330.2423 
L 332.138695 324.435402 
L 334.995213 319.181424 
L 337.916652 314.266849 
L 340.870552 309.728839 
L 343.856912 305.543243 
L 346.940653 301.607935 
L 350.056855 297.994384 
L 353.270438 294.615052 
L 356.548942 291.49636 
L 358.204424 290.037611 
L 358.334266 289.733697 
L 361.904914 286.958843 
L 365.572943 284.399182 
L 369.208512 282.123326 
L 369.468196 281.970038 
L 369.500656 380.499662 
L 369.598037 380.144367 
L 372.357174 370.509388 
L 375.148772 361.56211 
L 377.940369 353.354261 
L 380.731967 345.824723 
L 383.556025 338.840614 
L 386.380083 332.440083 
L 389.236601 326.509963 
L 392.093119 321.080813 
L 394.949638 316.110246 
L 397.871077 311.460843 
L 400.824976 307.167601 
L 403.843797 303.166739 
L 406.862617 299.522136 
L 410.01128 296.066112 
L 413.224863 292.86905 
L 417.899165 288.605578 
L 421.502274 285.921611 
L 425.072922 283.530913 
L 427.637296 281.964124 
L 427.669757 380.463186 
L 427.767138 380.108003 
L 430.526275 370.476068 
L 433.285412 361.631213 
L 436.077009 353.417745 
L 438.901067 345.799191 
L 441.692665 338.894043 
L 444.549183 332.418691 
L 447.438162 326.425975 
L 450.359601 320.886222 
L 453.28104 315.824568 
L 456.20248 311.19981 
L 459.18884 306.884585 
L 462.20766 302.908959 
L 465.258941 299.250161 
L 468.440064 295.785757 
L 471.653647 292.615213 
L 476.230568 288.469738 
L 479.801216 285.822442 
L 483.501706 283.360078 
L 485.806397 281.957913 
L 485.838857 380.424504 
L 485.936239 380.069439 
L 488.695376 370.440679 
L 491.486973 361.499217 
L 494.27857 353.296692 
L 497.070168 345.772083 
L 499.861765 338.8693 
L 502.653363 332.536886 
L 505.509881 326.598682 
L 508.3664 321.162041 
L 511.287839 316.076631 
L 514.241738 311.380897 
L 517.195638 307.094654 
L 520.214459 303.100298 
L 523.33066 299.349921 
L 526.414402 295.97749 
L 529.627985 292.788906 
L 534.237367 288.587735 
L 537.808015 285.928709 
L 541.508504 283.455304 
L 543.943037 281.970433 
L 543.975497 380.502137 
L 544.072879 380.146842 
L 546.832016 370.511852 
L 549.623613 361.564574 
L 552.415211 353.356725 
L 555.206808 345.827187 
L 558.030866 338.84298 
L 560.854924 332.442448 
L 563.711442 326.512132 
L 566.632881 320.964985 
L 566.957486 320.379041 
L 566.957486 320.379041 
" style="fill:none;stroke:#3b7d86;stroke-linecap:square;stroke-opacity:0.75;stroke-width:1.5;"/>
   </g>
   <g id="line2d_50">
    <path clip-path="url(#p05ce1819d0)" d="M 134.259879 281.956435 
L 134.259879 232.667741 
" style="fill:none;stroke:#aa3863;stroke-linecap:square;stroke-opacity:0.75;stroke-width:1.5;"/>
   </g>
   <g id="line2d_51">
    <path clip-path="url(#p05ce1819d0)" d="M 192.558822 281.956435 
L 192.558822 232.667741 
" style="fill:none;stroke:#aa3863;stroke-linecap:square;stroke-opacity:0.75;stroke-width:1.5;"/>
   </g>
   <g id="line2d_52">
    <path clip-path="url(#p05ce1819d0)" d="M 250.825303 281.956435 
L 250.825303 232.667741 
" style="fill:none;stroke:#aa3863;stroke-linecap:square;stroke-opacity:0.75;stroke-width:1.5;"/>
   </g>
   <g id="line2d_53">
    <path clip-path="url(#p05ce1819d0)" d="M 309.124246 281.956435 
L 309.124246 232.667741 
" style="fill:none;stroke:#aa3863;stroke-linecap:square;stroke-opacity:0.75;stroke-width:1.5;"/>
   </g>
   <g id="line2d_54">
    <path clip-path="url(#p05ce1819d0)" d="M 358.236885 281.956435 
L 358.236885 232.667741 
" style="fill:none;stroke:#aa3863;stroke-linecap:square;stroke-opacity:0.75;stroke-width:1.5;"/>
   </g>
   <g id="line2d_55">
    <path clip-path="url(#p05ce1819d0)" d="M 416.405985 281.956435 
L 416.405985 232.667741 
" style="fill:none;stroke:#aa3863;stroke-linecap:square;stroke-opacity:0.75;stroke-width:1.5;"/>
   </g>
   <g id="line2d_56">
    <path clip-path="url(#p05ce1819d0)" d="M 474.607546 281.956435 
L 474.607546 232.667741 
" style="fill:none;stroke:#aa3863;stroke-linecap:square;stroke-opacity:0.75;stroke-width:1.5;"/>
   </g>
   <g id="line2d_57">
    <path clip-path="url(#p05ce1819d0)" d="M 532.809108 281.956435 
L 532.809108 232.667741 
" style="fill:none;stroke:#aa3863;stroke-linecap:square;stroke-opacity:0.75;stroke-width:1.5;"/>
   </g>
   <g id="line2d_58">
    <path clip-path="url(#p05ce1819d0)" d="M 105.142868 281.956435 
L 105.142868 232.667741 
" style="fill:none;stroke:#3b7d86;stroke-linecap:square;stroke-opacity:0.75;stroke-width:1.5;"/>
   </g>
   <g id="line2d_59">
    <path clip-path="url(#p05ce1819d0)" d="M 163.40935 281.956435 
L 163.40935 232.667741 
" style="fill:none;stroke:#3b7d86;stroke-linecap:square;stroke-opacity:0.75;stroke-width:1.5;"/>
   </g>
   <g id="line2d_60">
    <path clip-path="url(#p05ce1819d0)" d="M 221.675832 281.956435 
L 221.675832 232.667741 
" style="fill:none;stroke:#3b7d86;stroke-linecap:square;stroke-opacity:0.75;stroke-width:1.5;"/>
   </g>
   <g id="line2d_61">
    <path clip-path="url(#p05ce1819d0)" d="M 279.974775 281.956435 
L 279.974775 232.667741 
" style="fill:none;stroke:#3b7d86;stroke-linecap:square;stroke-opacity:0.75;stroke-width:1.5;"/>
   </g>
   <g id="line2d_62">
    <path clip-path="url(#p05ce1819d0)" d="M 312.045685 281.956435 
L 312.045685 232.667741 
" style="fill:none;stroke:#3b7d86;stroke-linecap:square;stroke-opacity:0.75;stroke-width:1.5;"/>
   </g>
   <g id="line2d_63">
    <path clip-path="url(#p05ce1819d0)" d="M 369.500656 281.956435 
L 369.500656 232.667741 
" style="fill:none;stroke:#3b7d86;stroke-linecap:square;stroke-opacity:0.75;stroke-width:1.5;"/>
   </g>
   <g id="line2d_64">
    <path clip-path="url(#p05ce1819d0)" d="M 427.669757 281.956435 
L 427.669757 232.667741 
" style="fill:none;stroke:#3b7d86;stroke-linecap:square;stroke-opacity:0.75;stroke-width:1.5;"/>
   </g>
   <g id="line2d_65">
    <path clip-path="url(#p05ce1819d0)" d="M 485.838857 281.956435 
L 485.838857 232.667741 
" style="fill:none;stroke:#3b7d86;stroke-linecap:square;stroke-opacity:0.75;stroke-width:1.5;"/>
   </g>
   <g id="line2d_66">
    <path clip-path="url(#p05ce1819d0)" d="M 543.975497 281.956435 
L 543.975497 232.667741 
" style="fill:none;stroke:#3b7d86;stroke-linecap:square;stroke-opacity:0.75;stroke-width:1.5;"/>
   </g>
   <g id="patch_14">
    <path d="M 55.705625 387.921875 
L 55.705625 225.274688 
" style="fill:none;stroke:#000000;stroke-linecap:square;stroke-linejoin:miter;stroke-width:0.8;"/>
   </g>
   <g id="patch_15">
    <path d="M 591.302813 387.921875 
L 591.302813 225.274688 
" style="fill:none;stroke:#000000;stroke-linecap:square;stroke-linejoin:miter;stroke-width:0.8;"/>
   </g>
   <g id="patch_16">
    <path d="M 55.705625 387.921875 
L 591.302813 387.921875 
" style="fill:none;stroke:#000000;stroke-linecap:square;stroke-linejoin:miter;stroke-width:0.8;"/>
   </g>
   <g id="patch_17">
    <path d="M 55.705625 225.274688 
L 591.302813 225.274688 
" style="fill:none;stroke:#000000;stroke-linecap:square;stroke-linejoin:miter;stroke-width:0.8;"/>
   </g>
  </g>
  <g id="axes_4">
   <g id="patch_18">
    <path d="M 605.602812 387.921875 
L 1141.2 387.921875 
L 1141.2 225.274688 
L 605.602812 225.274688 
z
" style="fill:#ffffff;"/>
   </g>
   <g id="matplotlib.axis_7">
    <g id="xtick_25">
     <g id="line2d_67">
      <g>
       <use style="stroke:#000000;stroke-width:0.8;" x="629.948139" xlink:href="#m32b1da86a0" y="387.921875"/>
      </g>
     </g>
     <g id="text_42">
      <!-- 220 -->
      <g transform="translate(620.404389 402.520312)scale(0.1 -0.1)">
       <use xlink:href="#DejaVuSans-50"/>
       <use x="63.623047" xlink:href="#DejaVuSans-50"/>
       <use x="127.246094" xlink:href="#DejaVuSans-48"/>
      </g>
     </g>
    </g>
    <g id="xtick_26">
     <g id="line2d_68">
      <g>
       <use style="stroke:#000000;stroke-width:0.8;" x="694.86901" xlink:href="#m32b1da86a0" y="387.921875"/>
      </g>
     </g>
     <g id="text_43">
      <!-- 222 -->
      <g transform="translate(685.32526 402.520312)scale(0.1 -0.1)">
       <use xlink:href="#DejaVuSans-50"/>
       <use x="63.623047" xlink:href="#DejaVuSans-50"/>
       <use x="127.246094" xlink:href="#DejaVuSans-50"/>
      </g>
     </g>
    </g>
    <g id="xtick_27">
     <g id="line2d_69">
      <g>
       <use style="stroke:#000000;stroke-width:0.8;" x="759.789882" xlink:href="#m32b1da86a0" y="387.921875"/>
      </g>
     </g>
     <g id="text_44">
      <!-- 224 -->
      <g transform="translate(750.246132 402.520312)scale(0.1 -0.1)">
       <use xlink:href="#DejaVuSans-50"/>
       <use x="63.623047" xlink:href="#DejaVuSans-50"/>
       <use x="127.246094" xlink:href="#DejaVuSans-52"/>
      </g>
     </g>
    </g>
    <g id="xtick_28">
     <g id="line2d_70">
      <g>
       <use style="stroke:#000000;stroke-width:0.8;" x="824.710753" xlink:href="#m32b1da86a0" y="387.921875"/>
      </g>
     </g>
     <g id="text_45">
      <!-- 226 -->
      <g transform="translate(815.167003 402.520312)scale(0.1 -0.1)">
       <use xlink:href="#DejaVuSans-50"/>
       <use x="63.623047" xlink:href="#DejaVuSans-50"/>
       <use x="127.246094" xlink:href="#DejaVuSans-54"/>
      </g>
     </g>
    </g>
    <g id="xtick_29">
     <g id="line2d_71">
      <g>
       <use style="stroke:#000000;stroke-width:0.8;" x="889.631624" xlink:href="#m32b1da86a0" y="387.921875"/>
      </g>
     </g>
     <g id="text_46">
      <!-- 228 -->
      <g transform="translate(880.087874 402.520312)scale(0.1 -0.1)">
       <use xlink:href="#DejaVuSans-50"/>
       <use x="63.623047" xlink:href="#DejaVuSans-50"/>
       <use x="127.246094" xlink:href="#DejaVuSans-56"/>
      </g>
     </g>
    </g>
    <g id="xtick_30">
     <g id="line2d_72">
      <g>
       <use style="stroke:#000000;stroke-width:0.8;" x="954.552495" xlink:href="#m32b1da86a0" y="387.921875"/>
      </g>
     </g>
     <g id="text_47">
      <!-- 230 -->
      <g transform="translate(945.008745 402.520312)scale(0.1 -0.1)">
       <use xlink:href="#DejaVuSans-50"/>
       <use x="63.623047" xlink:href="#DejaVuSans-51"/>
       <use x="127.246094" xlink:href="#DejaVuSans-48"/>
      </g>
     </g>
    </g>
    <g id="xtick_31">
     <g id="line2d_73">
      <g>
       <use style="stroke:#000000;stroke-width:0.8;" x="1019.473366" xlink:href="#m32b1da86a0" y="387.921875"/>
      </g>
     </g>
     <g id="text_48">
      <!-- 232 -->
      <g transform="translate(1009.929616 402.520312)scale(0.1 -0.1)">
       <use xlink:href="#DejaVuSans-50"/>
       <use x="63.623047" xlink:href="#DejaVuSans-51"/>
       <use x="127.246094" xlink:href="#DejaVuSans-50"/>
      </g>
     </g>
    </g>
    <g id="xtick_32">
     <g id="line2d_74">
      <g>
       <use style="stroke:#000000;stroke-width:0.8;" x="1084.394238" xlink:href="#m32b1da86a0" y="387.921875"/>
      </g>
     </g>
     <g id="text_49">
      <!-- 234 -->
      <g transform="translate(1074.850488 402.520312)scale(0.1 -0.1)">
       <use xlink:href="#DejaVuSans-50"/>
       <use x="63.623047" xlink:href="#DejaVuSans-51"/>
       <use x="127.246094" xlink:href="#DejaVuSans-52"/>
      </g>
     </g>
    </g>
    <g id="text_50">
     <!-- Time ($10^{-2}$ seconds) -->
     <g transform="translate(811.421406 418.704375)scale(0.12 -0.12)">
      <use transform="translate(0 0.765625)" xlink:href="#DejaVuSans-84"/>
      <use transform="translate(61.083984 0.765625)" xlink:href="#DejaVuSans-105"/>
      <use transform="translate(88.867188 0.765625)" xlink:href="#DejaVuSans-109"/>
      <use transform="translate(186.279297 0.765625)" xlink:href="#DejaVuSans-101"/>
      <use transform="translate(247.802734 0.765625)" xlink:href="#DejaVuSans-32"/>
      <use transform="translate(279.589844 0.765625)" xlink:href="#DejaVuSans-40"/>
      <use transform="translate(318.603516 0.765625)" xlink:href="#DejaVuSans-49"/>
      <use transform="translate(382.226562 0.765625)" xlink:href="#DejaVuSans-48"/>
      <use transform="translate(446.806641 39.046875)scale(0.7)" xlink:href="#DejaVuSans-8722"/>
      <use transform="translate(505.458984 39.046875)scale(0.7)" xlink:href="#DejaVuSans-50"/>
      <use transform="translate(552.729492 0.765625)" xlink:href="#DejaVuSans-32"/>
      <use transform="translate(584.516602 0.765625)" xlink:href="#DejaVuSans-115"/>
      <use transform="translate(636.616211 0.765625)" xlink:href="#DejaVuSans-101"/>
      <use transform="translate(698.139648 0.765625)" xlink:href="#DejaVuSans-99"/>
      <use transform="translate(753.120117 0.765625)" xlink:href="#DejaVuSans-111"/>
      <use transform="translate(814.301758 0.765625)" xlink:href="#DejaVuSans-110"/>
      <use transform="translate(877.680664 0.765625)" xlink:href="#DejaVuSans-100"/>
      <use transform="translate(941.157227 0.765625)" xlink:href="#DejaVuSans-115"/>
      <use transform="translate(993.256836 0.765625)" xlink:href="#DejaVuSans-41"/>
     </g>
    </g>
   </g>
   <g id="matplotlib.axis_8">
    <g id="ytick_20">
     <g id="line2d_75">
      <g>
       <use style="stroke:#000000;stroke-width:0.8;" x="605.602812" xlink:href="#m694d7b1aeb" y="380.533821"/>
      </g>
     </g>
    </g>
    <g id="ytick_21">
     <g id="line2d_76">
      <g>
       <use style="stroke:#000000;stroke-width:0.8;" x="605.602812" xlink:href="#m694d7b1aeb" y="355.889474"/>
      </g>
     </g>
    </g>
    <g id="ytick_22">
     <g id="line2d_77">
      <g>
       <use style="stroke:#000000;stroke-width:0.8;" x="605.602812" xlink:href="#m694d7b1aeb" y="331.245128"/>
      </g>
     </g>
    </g>
    <g id="ytick_23">
     <g id="line2d_78">
      <g>
       <use style="stroke:#000000;stroke-width:0.8;" x="605.602812" xlink:href="#m694d7b1aeb" y="306.600781"/>
      </g>
     </g>
    </g>
    <g id="ytick_24">
     <g id="line2d_79">
      <g>
       <use style="stroke:#000000;stroke-width:0.8;" x="605.602812" xlink:href="#m694d7b1aeb" y="281.956435"/>
      </g>
     </g>
    </g>
    <g id="ytick_25">
     <g id="line2d_80">
      <g>
       <use style="stroke:#000000;stroke-width:0.8;" x="605.602812" xlink:href="#m694d7b1aeb" y="257.312088"/>
      </g>
     </g>
    </g>
    <g id="ytick_26">
     <g id="line2d_81">
      <g>
       <use style="stroke:#000000;stroke-width:0.8;" x="605.602812" xlink:href="#m694d7b1aeb" y="232.667741"/>
      </g>
     </g>
    </g>
   </g>
   <g id="line2d_82">
    <path clip-path="url(#p4149682c9d)" d="M 629.948139 319.286705 
L 632.869578 314.379424 
L 635.855938 309.799124 
L 638.842299 305.621218 
L 641.861119 301.770785 
L 644.94486 298.190158 
L 648.158444 294.803434 
L 651.404487 291.706329 
L 654.682991 288.87706 
L 658.221179 286.127835 
L 661.791827 283.640925 
L 664.453582 281.957026 
L 664.486043 380.417911 
L 664.583424 380.060992 
L 667.764547 368.842838 
L 670.556144 360.062353 
L 673.347742 352.004934 
L 676.1718 344.529022 
L 678.995857 337.675626 
L 681.852376 331.323989 
L 684.708894 325.507135 
L 687.597873 320.122247 
L 690.486852 315.195645 
L 693.408291 310.639989 
L 696.36219 306.432017 
L 699.381011 302.509327 
L 702.497213 298.824997 
L 705.645875 295.444483 
L 708.924379 292.256194 
L 712.267804 289.319771 
L 715.741071 286.573208 
L 719.214337 284.105224 
L 722.557762 281.966194 
L 722.590222 380.47387 
L 722.687604 380.116777 
L 725.836266 369.007167 
L 728.627863 360.212388 
L 731.419461 352.142153 
L 734.243519 344.654215 
L 737.067577 337.789976 
L 739.891635 331.497387 
L 742.748153 325.665549 
L 745.637132 320.266761 
L 748.49365 315.380576 
L 751.415089 310.808655 
L 754.368989 306.585699 
L 757.45273 302.568374 
L 760.536472 298.914998 
L 763.652673 295.559325 
L 766.866257 292.419931 
L 770.274602 289.413025 
L 773.618027 286.75459 
L 777.058833 284.290057 
L 780.629481 281.994091 
L 780.661942 281.974376 
L 780.694402 380.523117 
L 780.791783 380.165872 
L 783.940446 369.059019 
L 786.732043 360.259311 
L 789.556101 352.094738 
L 792.347699 344.692562 
L 795.171756 337.824577 
L 798.028275 331.459435 
L 800.884793 325.630357 
L 803.741311 320.292096 
L 806.695211 315.244243 
L 809.649111 310.635356 
L 812.60301 306.427186 
L 815.621831 302.504299 
L 818.738033 298.819871 
L 821.951616 295.373112 
L 825.165199 292.251068 
L 828.508624 289.314842 
L 831.852049 286.665772 
L 835.455157 284.100493 
L 838.798582 281.961659 
L 838.831042 380.446172 
L 838.928424 380.089154 
L 842.044625 369.104857 
L 844.803762 360.398798 
L 847.59536 352.311904 
L 850.419418 344.808686 
L 853.243476 337.930449 
L 856.099994 331.555942 
L 858.956512 325.718288 
L 861.813031 320.372239 
L 864.73447 315.370127 
L 867.655909 310.798403 
L 870.67473 306.48722 
L 873.69355 302.558714 
L 876.777292 298.905633 
L 879.990875 295.450594 
L 883.171997 292.351124 
L 886.515422 289.404843 
L 889.858847 286.746803 
L 893.429495 284.194733 
L 896.902762 281.967475 
L 896.935222 380.481243 
L 897.032603 380.124114 
L 900.116345 369.251244 
L 902.907942 360.434384 
L 905.69954 352.343941 
L 908.491137 344.920078 
L 911.315195 338.032082 
L 914.139253 331.717905 
L 917.028232 325.802571 
L 919.88475 320.448932 
L 922.806189 315.439821 
L 925.792549 310.76469 
L 928.778909 306.500331 
L 931.79773 302.570445 
L 934.881471 298.915984 
L 938.095054 295.459663 
L 941.308638 292.329043 
L 944.619602 289.411842 
L 947.963027 286.752914 
L 951.403833 284.287987 
L 954.974481 281.991725 
L 955.006941 281.97201 
L 955.039402 380.508869 
L 955.136783 380.151653 
L 958.188064 369.391421 
L 960.947201 360.66062 
L 963.738799 352.550855 
L 966.530396 345.109347 
L 969.354454 338.204987 
L 972.210972 331.806329 
L 975.099951 325.882912 
L 977.98893 320.463916 
L 980.910369 315.453129 
L 983.831808 310.873519 
L 986.818168 306.599302 
L 989.836989 302.660249 
L 992.92073 298.997507 
L 996.036932 295.63316 
L 999.218055 292.516143 
L 1002.529019 289.580607 
L 1005.969825 286.831086 
L 1009.540473 284.269849 
L 1013.078661 281.995077 
L 1013.111121 281.975361 
L 1013.143582 380.528821 
L 1013.240963 380.174489 
L 1016.0001 370.564394 
L 1018.759237 361.737282 
L 1021.583295 353.447022 
L 1024.374892 345.931088 
L 1027.231411 338.881129 
L 1030.087929 332.425 
L 1032.976908 326.448549 
L 1035.865886 320.980954 
L 1038.819786 315.87159 
L 1041.806146 311.157816 
L 1044.792506 306.858265 
L 1047.778866 302.936561 
L 1050.927529 299.174552 
L 1054.04373 295.793742 
L 1057.289774 292.600821 
L 1060.568278 289.684212 
L 1064.009084 286.924143 
L 1067.41743 284.463849 
L 1070.955617 282.168869 
L 1071.280222 281.970531 
L 1071.312682 380.500373 
L 1071.410063 380.146126 
L 1074.1692 370.538271 
L 1076.960798 361.613961 
L 1079.784856 353.333954 
L 1082.576453 345.827385 
L 1085.368051 338.939388 
L 1088.192109 332.548616 
L 1091.048627 326.625988 
L 1093.937606 321.143311 
L 1096.859045 316.073674 
L 1099.780484 311.440339 
L 1102.766844 307.115946 
L 1105.785665 303.130758 
L 1108.836946 299.462201 
L 1112.018068 295.987545 
L 1115.264112 292.77619 
L 1116.854673 291.316062 
L 1116.854673 291.316062 
" style="fill:none;stroke:#aa3863;stroke-linecap:square;stroke-opacity:0.75;stroke-width:1.5;"/>
   </g>
   <g id="line2d_83">
    <path clip-path="url(#p4149682c9d)" d="M 629.948139 322.423437 
L 632.837118 317.296033 
L 635.791018 312.504876 
L 638.744917 308.130603 
L 641.796198 304.011547 
L 644.847479 300.262157 
L 647.963681 296.780108 
L 651.209725 293.491665 
L 654.488229 290.488012 
L 657.929035 287.64573 
L 661.369841 285.089322 
L 665.914302 281.956927 
L 665.946762 380.418782 
L 666.044144 380.064617 
L 668.803281 370.459212 
L 671.594878 361.537465 
L 674.386476 353.351304 
L 677.210533 345.756409 
L 680.034591 338.794578 
L 682.89111 332.342984 
L 685.747628 326.435044 
L 688.636607 320.966266 
L 691.525586 315.963365 
L 694.479485 311.288431 
L 697.498306 306.930818 
L 700.549587 302.919704 
L 703.600868 299.268496 
L 706.814451 295.776885 
L 710.060494 292.584161 
L 713.338998 289.667946 
L 716.779804 286.908272 
L 720.317992 284.35985 
L 722.557762 282.884442 
L 722.687604 282.609017 
L 723.791259 281.96018 
L 723.823719 380.439074 
L 723.9211 380.084874 
L 726.680237 370.478434 
L 729.471835 361.555702 
L 732.263432 353.368555 
L 735.08749 345.772773 
L 737.911548 338.810055 
L 740.768066 332.357573 
L 743.624585 326.448845 
L 746.513563 320.979279 
L 749.402542 315.975589 
L 752.356442 311.299866 
L 755.375262 306.941563 
L 758.426543 302.929661 
L 761.575206 299.166863 
L 764.756328 295.718528 
L 768.034832 292.501356 
L 771.345797 289.565919 
L 774.754142 286.841338 
L 778.194949 284.366257 
L 781.668215 281.957815 
L 781.700676 380.424112 
L 781.798057 380.069982 
L 784.557194 370.465422 
L 787.348791 361.544464 
L 790.140389 353.358795 
L 792.964447 345.764295 
L 795.788505 338.80276 
L 798.645023 332.351363 
L 801.501541 326.443522 
L 804.39052 320.974843 
L 807.279499 315.971843 
L 810.233399 311.296811 
L 813.252219 306.939099 
L 816.238579 303.009213 
L 819.28986 299.350513 
L 822.373601 295.986362 
L 825.619645 292.77412 
L 828.898149 289.840062 
L 832.274034 287.113116 
L 835.812222 284.543894 
L 839.512711 281.968264 
L 839.545172 380.490318 
L 839.642553 380.136016 
L 842.40169 370.526836 
L 845.193288 361.601344 
L 848.017346 353.320547 
L 850.808943 345.813288 
L 853.665461 338.77161 
L 856.52198 332.323268 
L 859.410959 326.354112 
L 862.299937 320.893418 
L 865.188916 315.897713 
L 868.142816 311.229482 
L 871.129176 306.922735 
L 874.115536 302.994525 
L 877.231738 299.263272 
L 880.347939 295.87359 
L 883.561523 292.702848 
L 886.840027 289.77579 
L 890.280833 287.005864 
L 893.81902 284.447781 
L 897.357208 281.972601 
L 897.389668 380.517489 
L 897.487049 380.163135 
L 900.246186 370.552466 
L 903.037784 361.625594 
L 905.829381 353.434503 
L 908.620979 345.91847 
L 911.412576 339.021898 
L 914.236634 332.623338 
L 917.093153 326.693514 
L 919.949671 321.26328 
L 922.83865 316.236523 
L 925.760089 311.588402 
L 928.778909 307.205455 
L 931.79773 303.211691 
L 934.849011 299.535345 
L 937.997673 296.087207 
L 941.243717 292.865797 
L 944.587142 289.868058 
L 947.995487 287.113905 
L 951.533675 284.54488 
L 955.201704 281.970334 
L 955.234164 380.503489 
L 955.331546 380.149206 
L 958.090683 370.54044 
L 960.88228 361.615243 
L 963.706338 353.334545 
L 966.497936 345.827286 
L 969.354454 338.785608 
L 972.210972 332.337069 
L 975.067491 326.431791 
L 977.956469 320.965281 
L 980.845448 315.964253 
L 983.766887 311.340086 
L 986.753247 307.024171 
L 989.804528 303.006058 
L 992.92073 299.274313 
L 996.101853 295.817006 
L 999.282976 292.682344 
L 1002.658861 289.67534 
L 1006.067207 286.940606 
L 1009.637854 284.367539 
L 1013.111121 282.122143 
L 1013.143582 380.528821 
L 1013.240963 380.174489 
L 1016.0001 370.564394 
L 1018.759237 361.737282 
L 1021.583295 353.447022 
L 1024.374892 345.931088 
L 1027.231411 338.881129 
L 1030.087929 332.425 
L 1032.976908 326.448549 
L 1035.865886 320.980954 
L 1038.819786 315.87159 
L 1041.806146 311.157816 
L 1044.792506 306.858265 
L 1047.778866 302.936561 
L 1050.927529 299.174552 
L 1054.04373 295.793742 
L 1057.289774 292.600821 
L 1060.568278 289.684212 
L 1064.009084 286.924143 
L 1067.41743 284.463849 
L 1070.955617 282.168869 
L 1071.280222 281.970531 
L 1071.312682 380.500373 
L 1071.410063 380.146126 
L 1074.1692 370.538271 
L 1076.960798 361.613961 
L 1079.784856 353.333954 
L 1082.576453 345.827385 
L 1085.368051 338.939388 
L 1088.192109 332.548616 
L 1091.048627 326.625988 
L 1093.937606 321.143311 
L 1096.859045 316.073674 
L 1099.780484 311.440339 
L 1102.766844 307.115946 
L 1105.785665 303.130758 
L 1108.836946 299.462201 
L 1112.018068 295.987545 
L 1115.264112 292.77619 
L 1116.854673 291.316062 
L 1116.854673 291.316062 
" style="fill:none;stroke:#3b7d86;stroke-linecap:square;stroke-opacity:0.75;stroke-width:1.5;"/>
   </g>
   <g id="line2d_84">
    <path clip-path="url(#p4149682c9d)" d="M 664.486043 281.956435 
L 664.486043 232.667741 
" style="fill:none;stroke:#aa3863;stroke-linecap:square;stroke-opacity:0.75;stroke-width:1.5;"/>
   </g>
   <g id="line2d_85">
    <path clip-path="url(#p4149682c9d)" d="M 722.590222 281.956435 
L 722.590222 232.667741 
" style="fill:none;stroke:#aa3863;stroke-linecap:square;stroke-opacity:0.75;stroke-width:1.5;"/>
   </g>
   <g id="line2d_86">
    <path clip-path="url(#p4149682c9d)" d="M 780.694402 281.956435 
L 780.694402 232.667741 
" style="fill:none;stroke:#aa3863;stroke-linecap:square;stroke-opacity:0.75;stroke-width:1.5;"/>
   </g>
   <g id="line2d_87">
    <path clip-path="url(#p4149682c9d)" d="M 838.831042 281.956435 
L 838.831042 232.667741 
" style="fill:none;stroke:#aa3863;stroke-linecap:square;stroke-opacity:0.75;stroke-width:1.5;"/>
   </g>
   <g id="line2d_88">
    <path clip-path="url(#p4149682c9d)" d="M 896.935222 281.956435 
L 896.935222 232.667741 
" style="fill:none;stroke:#aa3863;stroke-linecap:square;stroke-opacity:0.75;stroke-width:1.5;"/>
   </g>
   <g id="line2d_89">
    <path clip-path="url(#p4149682c9d)" d="M 955.039402 281.956435 
L 955.039402 232.667741 
" style="fill:none;stroke:#aa3863;stroke-linecap:square;stroke-opacity:0.75;stroke-width:1.5;"/>
   </g>
   <g id="line2d_90">
    <path clip-path="url(#p4149682c9d)" d="M 1013.143582 281.956435 
L 1013.143582 232.667741 
" style="fill:none;stroke:#aa3863;stroke-linecap:square;stroke-opacity:0.75;stroke-width:1.5;"/>
   </g>
   <g id="line2d_91">
    <path clip-path="url(#p4149682c9d)" d="M 1071.312682 281.956435 
L 1071.312682 232.667741 
" style="fill:none;stroke:#aa3863;stroke-linecap:square;stroke-opacity:0.75;stroke-width:1.5;"/>
   </g>
   <g id="line2d_92">
    <path clip-path="url(#p4149682c9d)" d="M 665.946762 281.956435 
L 665.946762 232.667741 
" style="fill:none;stroke:#3b7d86;stroke-linecap:square;stroke-opacity:0.75;stroke-width:1.5;"/>
   </g>
   <g id="line2d_93">
    <path clip-path="url(#p4149682c9d)" d="M 723.823719 281.956435 
L 723.823719 232.667741 
" style="fill:none;stroke:#3b7d86;stroke-linecap:square;stroke-opacity:0.75;stroke-width:1.5;"/>
   </g>
   <g id="line2d_94">
    <path clip-path="url(#p4149682c9d)" d="M 781.700676 281.956435 
L 781.700676 232.667741 
" style="fill:none;stroke:#3b7d86;stroke-linecap:square;stroke-opacity:0.75;stroke-width:1.5;"/>
   </g>
   <g id="line2d_95">
    <path clip-path="url(#p4149682c9d)" d="M 839.545172 281.956435 
L 839.545172 232.667741 
" style="fill:none;stroke:#3b7d86;stroke-linecap:square;stroke-opacity:0.75;stroke-width:1.5;"/>
   </g>
   <g id="line2d_96">
    <path clip-path="url(#p4149682c9d)" d="M 897.389668 281.956435 
L 897.389668 232.667741 
" style="fill:none;stroke:#3b7d86;stroke-linecap:square;stroke-opacity:0.75;stroke-width:1.5;"/>
   </g>
   <g id="line2d_97">
    <path clip-path="url(#p4149682c9d)" d="M 955.234164 281.956435 
L 955.234164 232.667741 
" style="fill:none;stroke:#3b7d86;stroke-linecap:square;stroke-opacity:0.75;stroke-width:1.5;"/>
   </g>
   <g id="line2d_98">
    <path clip-path="url(#p4149682c9d)" d="M 1013.143582 281.956435 
L 1013.143582 232.667741 
" style="fill:none;stroke:#3b7d86;stroke-linecap:square;stroke-opacity:0.75;stroke-width:1.5;"/>
   </g>
   <g id="line2d_99">
    <path clip-path="url(#p4149682c9d)" d="M 1071.312682 281.956435 
L 1071.312682 232.667741 
" style="fill:none;stroke:#3b7d86;stroke-linecap:square;stroke-opacity:0.75;stroke-width:1.5;"/>
   </g>
   <g id="patch_19">
    <path d="M 605.602812 387.921875 
L 605.602812 225.274688 
" style="fill:none;stroke:#000000;stroke-linecap:square;stroke-linejoin:miter;stroke-width:0.8;"/>
   </g>
   <g id="patch_20">
    <path d="M 1141.2 387.921875 
L 1141.2 225.274688 
" style="fill:none;stroke:#000000;stroke-linecap:square;stroke-linejoin:miter;stroke-width:0.8;"/>
   </g>
   <g id="patch_21">
    <path d="M 605.602812 387.921875 
L 1141.2 387.921875 
" style="fill:none;stroke:#000000;stroke-linecap:square;stroke-linejoin:miter;stroke-width:0.8;"/>
   </g>
   <g id="patch_22">
    <path d="M 605.602812 225.274688 
L 1141.2 225.274688 
" style="fill:none;stroke:#000000;stroke-linecap:square;stroke-linejoin:miter;stroke-width:0.8;"/>
   </g>
   <g id="legend_2">
    <g id="patch_23">
     <path d="M 1090.6 270.763297 
L 1134.2 270.763297 
Q 1136.2 270.763297 1136.2 268.763297 
L 1136.2 240.407047 
Q 1136.2 238.407047 1134.2 238.407047 
L 1090.6 238.407047 
Q 1088.6 238.407047 1088.6 240.407047 
L 1088.6 268.763297 
Q 1088.6 270.763297 1090.6 270.763297 
z
" style="fill:#ffffff;opacity:0.8;stroke:#cccccc;stroke-linejoin:miter;"/>
    </g>
    <g id="line2d_100">
     <path d="M 1092.6 246.505484 
L 1112.6 246.505484 
" style="fill:none;stroke:#aa3863;stroke-linecap:square;stroke-opacity:0.75;stroke-width:1.5;"/>
    </g>
    <g id="line2d_101"/>
    <g id="text_51">
     <!-- $V_1$ -->
     <g transform="translate(1120.6 250.005484)scale(0.1 -0.1)">
      <use transform="translate(0 0.09375)" xlink:href="#DejaVuSans-Oblique-86"/>
      <use transform="translate(68.408203 -16.3125)scale(0.7)" xlink:href="#DejaVuSans-49"/>
     </g>
    </g>
    <g id="line2d_102">
     <path d="M 1092.6 261.183609 
L 1112.6 261.183609 
" style="fill:none;stroke:#3b7d86;stroke-linecap:square;stroke-opacity:0.75;stroke-width:1.5;"/>
    </g>
    <g id="line2d_103"/>
    <g id="text_52">
     <!-- $V_2$ -->
     <g transform="translate(1120.6 264.683609)scale(0.1 -0.1)">
      <use transform="translate(0 0.09375)" xlink:href="#DejaVuSans-Oblique-86"/>
      <use transform="translate(68.408203 -16.3125)scale(0.7)" xlink:href="#DejaVuSans-50"/>
     </g>
    </g>
   </g>
  </g>
  <g id="text_53">
   <!-- From A/S regime to A/S regime -->
   <g transform="translate(468.244844 19.277812)scale(0.14 -0.14)">
    <defs>
     <path d="M 9.8125 72.90625 
L 51.703125 72.90625 
L 51.703125 64.59375 
L 19.671875 64.59375 
L 19.671875 43.109375 
L 48.578125 43.109375 
L 48.578125 34.8125 
L 19.671875 34.8125 
L 19.671875 0 
L 9.8125 0 
z
" id="DejaVuSans-70"/>
     <path d="M 34.1875 63.1875 
L 20.796875 26.90625 
L 47.609375 26.90625 
z
M 28.609375 72.90625 
L 39.796875 72.90625 
L 67.578125 0 
L 57.328125 0 
L 50.6875 18.703125 
L 17.828125 18.703125 
L 11.1875 0 
L 0.78125 0 
z
" id="DejaVuSans-65"/>
     <path d="M 25.390625 72.90625 
L 33.6875 72.90625 
L 8.296875 -9.28125 
L 0 -9.28125 
z
" id="DejaVuSans-47"/>
     <path d="M 53.515625 70.515625 
L 53.515625 60.890625 
Q 47.90625 63.578125 42.921875 64.890625 
Q 37.9375 66.21875 33.296875 66.21875 
Q 25.25 66.21875 20.875 63.09375 
Q 16.5 59.96875 16.5 54.203125 
Q 16.5 49.359375 19.40625 46.890625 
Q 22.3125 44.4375 30.421875 42.921875 
L 36.375 41.703125 
Q 47.40625 39.59375 52.65625 34.296875 
Q 57.90625 29 57.90625 20.125 
Q 57.90625 9.515625 50.796875 4.046875 
Q 43.703125 -1.421875 29.984375 -1.421875 
Q 24.8125 -1.421875 18.96875 -0.25 
Q 13.140625 0.921875 6.890625 3.21875 
L 6.890625 13.375 
Q 12.890625 10.015625 18.65625 8.296875 
Q 24.421875 6.59375 29.984375 6.59375 
Q 38.421875 6.59375 43.015625 9.90625 
Q 47.609375 13.234375 47.609375 19.390625 
Q 47.609375 24.75 44.3125 27.78125 
Q 41.015625 30.8125 33.5 32.328125 
L 27.484375 33.5 
Q 16.453125 35.6875 11.515625 40.375 
Q 6.59375 45.0625 6.59375 53.421875 
Q 6.59375 63.09375 13.40625 68.65625 
Q 20.21875 74.21875 32.171875 74.21875 
Q 37.3125 74.21875 42.625 73.28125 
Q 47.953125 72.359375 53.515625 70.515625 
z
" id="DejaVuSans-83"/>
    </defs>
    <use xlink:href="#DejaVuSans-70"/>
    <use x="50.269531" xlink:href="#DejaVuSans-114"/>
    <use x="89.132812" xlink:href="#DejaVuSans-111"/>
    <use x="150.314453" xlink:href="#DejaVuSans-109"/>
    <use x="247.726562" xlink:href="#DejaVuSans-32"/>
    <use x="279.513672" xlink:href="#DejaVuSans-65"/>
    <use x="347.921875" xlink:href="#DejaVuSans-47"/>
    <use x="381.613281" xlink:href="#DejaVuSans-83"/>
    <use x="445.089844" xlink:href="#DejaVuSans-32"/>
    <use x="476.876953" xlink:href="#DejaVuSans-114"/>
    <use x="515.740234" xlink:href="#DejaVuSans-101"/>
    <use x="577.263672" xlink:href="#DejaVuSans-103"/>
    <use x="640.740234" xlink:href="#DejaVuSans-105"/>
    <use x="668.523438" xlink:href="#DejaVuSans-109"/>
    <use x="765.935547" xlink:href="#DejaVuSans-101"/>
    <use x="827.458984" xlink:href="#DejaVuSans-32"/>
    <use x="859.246094" xlink:href="#DejaVuSans-116"/>
    <use x="898.455078" xlink:href="#DejaVuSans-111"/>
    <use x="959.636719" xlink:href="#DejaVuSans-32"/>
    <use x="991.423828" xlink:href="#DejaVuSans-65"/>
    <use x="1059.832031" xlink:href="#DejaVuSans-47"/>
    <use x="1093.523438" xlink:href="#DejaVuSans-83"/>
    <use x="1157" xlink:href="#DejaVuSans-32"/>
    <use x="1188.787109" xlink:href="#DejaVuSans-114"/>
    <use x="1227.650391" xlink:href="#DejaVuSans-101"/>
    <use x="1289.173828" xlink:href="#DejaVuSans-103"/>
    <use x="1352.650391" xlink:href="#DejaVuSans-105"/>
    <use x="1380.433594" xlink:href="#DejaVuSans-109"/>
    <use x="1477.845703" xlink:href="#DejaVuSans-101"/>
   </g>
  </g>
 </g>
 <defs>
  <clipPath id="p445468cc29">
   <rect height="162.647187" width="535.597188" x="55.705625" y="35.149375"/>
  </clipPath>
  <clipPath id="p32893649ef">
   <rect height="162.647187" width="535.597188" x="605.602812" y="35.149375"/>
  </clipPath>
  <clipPath id="p05ce1819d0">
   <rect height="162.647187" width="535.597188" x="55.705625" y="225.274688"/>
  </clipPath>
  <clipPath id="p4149682c9d">
   <rect height="162.647187" width="535.597188" x="605.602812" y="225.274688"/>
  </clipPath>
 </defs>
</svg>
