<?xml version="1.0" encoding="utf-8" standalone="no"?>
<!DOCTYPE svg PUBLIC "-//W3C//DTD SVG 1.1//EN"
  "http://www.w3.org/Graphics/SVG/1.1/DTD/svg11.dtd">
<!-- Created with matplotlib (https://matplotlib.org/) -->
<svg height="432pt" version="1.1" viewBox="0 0 1152 432" width="1152pt" xmlns="http://www.w3.org/2000/svg" xmlns:xlink="http://www.w3.org/1999/xlink">
 <metadata>
  <rdf:RDF xmlns:cc="http://creativecommons.org/ns#" xmlns:dc="http://purl.org/dc/elements/1.1/" xmlns:rdf="http://www.w3.org/1999/02/22-rdf-syntax-ns#">
   <cc:Work>
    <dc:type rdf:resource="http://purl.org/dc/dcmitype/StillImage"/>
    <dc:date>2021-04-24T11:16:44.157707</dc:date>
    <dc:format>image/svg+xml</dc:format>
    <dc:creator>
     <cc:Agent>
      <dc:title>Matplotlib v3.3.3, https://matplotlib.org/</dc:title>
     </cc:Agent>
    </dc:creator>
   </cc:Work>
  </rdf:RDF>
 </metadata>
 <defs>
  <style type="text/css">*{stroke-linecap:butt;stroke-linejoin:round;}</style>
 </defs>
 <g id="figure_1">
  <g id="patch_1">
   <path d="M 0 432 
L 1152 432 
L 1152 0 
L 0 0 
z
" style="fill:#ffffff;"/>
  </g>
  <g id="axes_1">
   <g id="patch_2">
    <path d="M 55.705625 197.881875 
L 591.302812 197.881875 
L 591.302812 35.32 
L 55.705625 35.32 
z
" style="fill:#ffffff;"/>
   </g>
   <g id="matplotlib.axis_1">
    <g id="xtick_1">
     <g id="line2d_1">
      <defs>
       <path d="M 0 0 
L 0 3.5 
" id="mf3d45a719c" style="stroke:#000000;stroke-width:0.8;"/>
      </defs>
      <g>
       <use style="stroke:#000000;stroke-width:0.8;" x="112.511387" xlink:href="#mf3d45a719c" y="197.881875"/>
      </g>
     </g>
     <g id="text_1">
      <!-- 16 -->
      <g transform="translate(106.148887 212.480313)scale(0.1 -0.1)">
       <defs>
        <path d="M 12.40625 8.296875 
L 28.515625 8.296875 
L 28.515625 63.921875 
L 10.984375 60.40625 
L 10.984375 69.390625 
L 28.421875 72.90625 
L 38.28125 72.90625 
L 38.28125 8.296875 
L 54.390625 8.296875 
L 54.390625 0 
L 12.40625 0 
z
" id="DejaVuSans-49"/>
        <path d="M 33.015625 40.375 
Q 26.375 40.375 22.484375 35.828125 
Q 18.609375 31.296875 18.609375 23.390625 
Q 18.609375 15.53125 22.484375 10.953125 
Q 26.375 6.390625 33.015625 6.390625 
Q 39.65625 6.390625 43.53125 10.953125 
Q 47.40625 15.53125 47.40625 23.390625 
Q 47.40625 31.296875 43.53125 35.828125 
Q 39.65625 40.375 33.015625 40.375 
z
M 52.59375 71.296875 
L 52.59375 62.3125 
Q 48.875 64.0625 45.09375 64.984375 
Q 41.3125 65.921875 37.59375 65.921875 
Q 27.828125 65.921875 22.671875 59.328125 
Q 17.53125 52.734375 16.796875 39.40625 
Q 19.671875 43.65625 24.015625 45.921875 
Q 28.375 48.1875 33.59375 48.1875 
Q 44.578125 48.1875 50.953125 41.515625 
Q 57.328125 34.859375 57.328125 23.390625 
Q 57.328125 12.15625 50.6875 5.359375 
Q 44.046875 -1.421875 33.015625 -1.421875 
Q 20.359375 -1.421875 13.671875 8.265625 
Q 6.984375 17.96875 6.984375 36.375 
Q 6.984375 53.65625 15.1875 63.9375 
Q 23.390625 74.21875 37.203125 74.21875 
Q 40.921875 74.21875 44.703125 73.484375 
Q 48.484375 72.75 52.59375 71.296875 
z
" id="DejaVuSans-54"/>
       </defs>
       <use xlink:href="#DejaVuSans-49"/>
       <use x="63.623047" xlink:href="#DejaVuSans-54"/>
      </g>
     </g>
    </g>
    <g id="xtick_2">
     <g id="line2d_2">
      <g>
       <use style="stroke:#000000;stroke-width:0.8;" x="177.432259" xlink:href="#mf3d45a719c" y="197.881875"/>
      </g>
     </g>
     <g id="text_2">
      <!-- 18 -->
      <g transform="translate(171.069759 212.480313)scale(0.1 -0.1)">
       <defs>
        <path d="M 31.78125 34.625 
Q 24.75 34.625 20.71875 30.859375 
Q 16.703125 27.09375 16.703125 20.515625 
Q 16.703125 13.921875 20.71875 10.15625 
Q 24.75 6.390625 31.78125 6.390625 
Q 38.8125 6.390625 42.859375 10.171875 
Q 46.921875 13.96875 46.921875 20.515625 
Q 46.921875 27.09375 42.890625 30.859375 
Q 38.875 34.625 31.78125 34.625 
z
M 21.921875 38.8125 
Q 15.578125 40.375 12.03125 44.71875 
Q 8.5 49.078125 8.5 55.328125 
Q 8.5 64.0625 14.71875 69.140625 
Q 20.953125 74.21875 31.78125 74.21875 
Q 42.671875 74.21875 48.875 69.140625 
Q 55.078125 64.0625 55.078125 55.328125 
Q 55.078125 49.078125 51.53125 44.71875 
Q 48 40.375 41.703125 38.8125 
Q 48.828125 37.15625 52.796875 32.3125 
Q 56.78125 27.484375 56.78125 20.515625 
Q 56.78125 9.90625 50.3125 4.234375 
Q 43.84375 -1.421875 31.78125 -1.421875 
Q 19.734375 -1.421875 13.25 4.234375 
Q 6.78125 9.90625 6.78125 20.515625 
Q 6.78125 27.484375 10.78125 32.3125 
Q 14.796875 37.15625 21.921875 38.8125 
z
M 18.3125 54.390625 
Q 18.3125 48.734375 21.84375 45.5625 
Q 25.390625 42.390625 31.78125 42.390625 
Q 38.140625 42.390625 41.71875 45.5625 
Q 45.3125 48.734375 45.3125 54.390625 
Q 45.3125 60.0625 41.71875 63.234375 
Q 38.140625 66.40625 31.78125 66.40625 
Q 25.390625 66.40625 21.84375 63.234375 
Q 18.3125 60.0625 18.3125 54.390625 
z
" id="DejaVuSans-56"/>
       </defs>
       <use xlink:href="#DejaVuSans-49"/>
       <use x="63.623047" xlink:href="#DejaVuSans-56"/>
      </g>
     </g>
    </g>
    <g id="xtick_3">
     <g id="line2d_3">
      <g>
       <use style="stroke:#000000;stroke-width:0.8;" x="242.35313" xlink:href="#mf3d45a719c" y="197.881875"/>
      </g>
     </g>
     <g id="text_3">
      <!-- 20 -->
      <g transform="translate(235.99063 212.480313)scale(0.1 -0.1)">
       <defs>
        <path d="M 19.1875 8.296875 
L 53.609375 8.296875 
L 53.609375 0 
L 7.328125 0 
L 7.328125 8.296875 
Q 12.9375 14.109375 22.625 23.890625 
Q 32.328125 33.6875 34.8125 36.53125 
Q 39.546875 41.84375 41.421875 45.53125 
Q 43.3125 49.21875 43.3125 52.78125 
Q 43.3125 58.59375 39.234375 62.25 
Q 35.15625 65.921875 28.609375 65.921875 
Q 23.96875 65.921875 18.8125 64.3125 
Q 13.671875 62.703125 7.8125 59.421875 
L 7.8125 69.390625 
Q 13.765625 71.78125 18.9375 73 
Q 24.125 74.21875 28.421875 74.21875 
Q 39.75 74.21875 46.484375 68.546875 
Q 53.21875 62.890625 53.21875 53.421875 
Q 53.21875 48.921875 51.53125 44.890625 
Q 49.859375 40.875 45.40625 35.40625 
Q 44.1875 33.984375 37.640625 27.21875 
Q 31.109375 20.453125 19.1875 8.296875 
z
" id="DejaVuSans-50"/>
        <path d="M 31.78125 66.40625 
Q 24.171875 66.40625 20.328125 58.90625 
Q 16.5 51.421875 16.5 36.375 
Q 16.5 21.390625 20.328125 13.890625 
Q 24.171875 6.390625 31.78125 6.390625 
Q 39.453125 6.390625 43.28125 13.890625 
Q 47.125 21.390625 47.125 36.375 
Q 47.125 51.421875 43.28125 58.90625 
Q 39.453125 66.40625 31.78125 66.40625 
z
M 31.78125 74.21875 
Q 44.046875 74.21875 50.515625 64.515625 
Q 56.984375 54.828125 56.984375 36.375 
Q 56.984375 17.96875 50.515625 8.265625 
Q 44.046875 -1.421875 31.78125 -1.421875 
Q 19.53125 -1.421875 13.0625 8.265625 
Q 6.59375 17.96875 6.59375 36.375 
Q 6.59375 54.828125 13.0625 64.515625 
Q 19.53125 74.21875 31.78125 74.21875 
z
" id="DejaVuSans-48"/>
       </defs>
       <use xlink:href="#DejaVuSans-50"/>
       <use x="63.623047" xlink:href="#DejaVuSans-48"/>
      </g>
     </g>
    </g>
    <g id="xtick_4">
     <g id="line2d_4">
      <g>
       <use style="stroke:#000000;stroke-width:0.8;" x="307.274001" xlink:href="#mf3d45a719c" y="197.881875"/>
      </g>
     </g>
     <g id="text_4">
      <!-- 22 -->
      <g transform="translate(300.911501 212.480313)scale(0.1 -0.1)">
       <use xlink:href="#DejaVuSans-50"/>
       <use x="63.623047" xlink:href="#DejaVuSans-50"/>
      </g>
     </g>
    </g>
    <g id="xtick_5">
     <g id="line2d_5">
      <g>
       <use style="stroke:#000000;stroke-width:0.8;" x="372.194872" xlink:href="#mf3d45a719c" y="197.881875"/>
      </g>
     </g>
     <g id="text_5">
      <!-- 24 -->
      <g transform="translate(365.832372 212.480313)scale(0.1 -0.1)">
       <defs>
        <path d="M 37.796875 64.3125 
L 12.890625 25.390625 
L 37.796875 25.390625 
z
M 35.203125 72.90625 
L 47.609375 72.90625 
L 47.609375 25.390625 
L 58.015625 25.390625 
L 58.015625 17.1875 
L 47.609375 17.1875 
L 47.609375 0 
L 37.796875 0 
L 37.796875 17.1875 
L 4.890625 17.1875 
L 4.890625 26.703125 
z
" id="DejaVuSans-52"/>
       </defs>
       <use xlink:href="#DejaVuSans-50"/>
       <use x="63.623047" xlink:href="#DejaVuSans-52"/>
      </g>
     </g>
    </g>
    <g id="xtick_6">
     <g id="line2d_6">
      <g>
       <use style="stroke:#000000;stroke-width:0.8;" x="437.115743" xlink:href="#mf3d45a719c" y="197.881875"/>
      </g>
     </g>
     <g id="text_6">
      <!-- 26 -->
      <g transform="translate(430.753243 212.480313)scale(0.1 -0.1)">
       <use xlink:href="#DejaVuSans-50"/>
       <use x="63.623047" xlink:href="#DejaVuSans-54"/>
      </g>
     </g>
    </g>
    <g id="xtick_7">
     <g id="line2d_7">
      <g>
       <use style="stroke:#000000;stroke-width:0.8;" x="502.036615" xlink:href="#mf3d45a719c" y="197.881875"/>
      </g>
     </g>
     <g id="text_7">
      <!-- 28 -->
      <g transform="translate(495.674115 212.480313)scale(0.1 -0.1)">
       <use xlink:href="#DejaVuSans-50"/>
       <use x="63.623047" xlink:href="#DejaVuSans-56"/>
      </g>
     </g>
    </g>
    <g id="xtick_8">
     <g id="line2d_8">
      <g>
       <use style="stroke:#000000;stroke-width:0.8;" x="566.957486" xlink:href="#mf3d45a719c" y="197.881875"/>
      </g>
     </g>
     <g id="text_8">
      <!-- 30 -->
      <g transform="translate(560.594986 212.480313)scale(0.1 -0.1)">
       <defs>
        <path d="M 40.578125 39.3125 
Q 47.65625 37.796875 51.625 33 
Q 55.609375 28.21875 55.609375 21.1875 
Q 55.609375 10.40625 48.1875 4.484375 
Q 40.765625 -1.421875 27.09375 -1.421875 
Q 22.515625 -1.421875 17.65625 -0.515625 
Q 12.796875 0.390625 7.625 2.203125 
L 7.625 11.71875 
Q 11.71875 9.328125 16.59375 8.109375 
Q 21.484375 6.890625 26.8125 6.890625 
Q 36.078125 6.890625 40.9375 10.546875 
Q 45.796875 14.203125 45.796875 21.1875 
Q 45.796875 27.640625 41.28125 31.265625 
Q 36.765625 34.90625 28.71875 34.90625 
L 20.21875 34.90625 
L 20.21875 43.015625 
L 29.109375 43.015625 
Q 36.375 43.015625 40.234375 45.921875 
Q 44.09375 48.828125 44.09375 54.296875 
Q 44.09375 59.90625 40.109375 62.90625 
Q 36.140625 65.921875 28.71875 65.921875 
Q 24.65625 65.921875 20.015625 65.03125 
Q 15.375 64.15625 9.8125 62.3125 
L 9.8125 71.09375 
Q 15.4375 72.65625 20.34375 73.4375 
Q 25.25 74.21875 29.59375 74.21875 
Q 40.828125 74.21875 47.359375 69.109375 
Q 53.90625 64.015625 53.90625 55.328125 
Q 53.90625 49.265625 50.4375 45.09375 
Q 46.96875 40.921875 40.578125 39.3125 
z
" id="DejaVuSans-51"/>
       </defs>
       <use xlink:href="#DejaVuSans-51"/>
       <use x="63.623047" xlink:href="#DejaVuSans-48"/>
      </g>
     </g>
    </g>
   </g>
   <g id="matplotlib.axis_2">
    <g id="ytick_1">
     <g id="line2d_9">
      <defs>
       <path d="M 0 0 
L -3.5 0 
" id="m59093c9aa9" style="stroke:#000000;stroke-width:0.8;"/>
      </defs>
      <g>
       <use style="stroke:#000000;stroke-width:0.8;" x="55.705625" xlink:href="#m59093c9aa9" y="159.380378"/>
      </g>
     </g>
     <g id="text_9">
      <!-- 1.5 -->
      <g transform="translate(32.8025 163.179597)scale(0.1 -0.1)">
       <defs>
        <path d="M 10.6875 12.40625 
L 21 12.40625 
L 21 0 
L 10.6875 0 
z
" id="DejaVuSans-46"/>
        <path d="M 10.796875 72.90625 
L 49.515625 72.90625 
L 49.515625 64.59375 
L 19.828125 64.59375 
L 19.828125 46.734375 
Q 21.96875 47.46875 24.109375 47.828125 
Q 26.265625 48.1875 28.421875 48.1875 
Q 40.625 48.1875 47.75 41.5 
Q 54.890625 34.8125 54.890625 23.390625 
Q 54.890625 11.625 47.5625 5.09375 
Q 40.234375 -1.421875 26.90625 -1.421875 
Q 22.3125 -1.421875 17.546875 -0.640625 
Q 12.796875 0.140625 7.71875 1.703125 
L 7.71875 11.625 
Q 12.109375 9.234375 16.796875 8.0625 
Q 21.484375 6.890625 26.703125 6.890625 
Q 35.15625 6.890625 40.078125 11.328125 
Q 45.015625 15.765625 45.015625 23.390625 
Q 45.015625 31 40.078125 35.4375 
Q 35.15625 39.890625 26.703125 39.890625 
Q 22.75 39.890625 18.8125 39.015625 
Q 14.890625 38.140625 10.796875 36.28125 
z
" id="DejaVuSans-53"/>
       </defs>
       <use xlink:href="#DejaVuSans-49"/>
       <use x="63.623047" xlink:href="#DejaVuSans-46"/>
       <use x="95.410156" xlink:href="#DejaVuSans-53"/>
      </g>
     </g>
    </g>
    <g id="ytick_2">
     <g id="line2d_10">
      <g>
       <use style="stroke:#000000;stroke-width:0.8;" x="55.705625" xlink:href="#m59093c9aa9" y="120.489978"/>
      </g>
     </g>
     <g id="text_10">
      <!-- 2.0 -->
      <g transform="translate(32.8025 124.289196)scale(0.1 -0.1)">
       <use xlink:href="#DejaVuSans-50"/>
       <use x="63.623047" xlink:href="#DejaVuSans-46"/>
       <use x="95.410156" xlink:href="#DejaVuSans-48"/>
      </g>
     </g>
    </g>
    <g id="ytick_3">
     <g id="line2d_11">
      <g>
       <use style="stroke:#000000;stroke-width:0.8;" x="55.705625" xlink:href="#m59093c9aa9" y="81.599577"/>
      </g>
     </g>
     <g id="text_11">
      <!-- 2.5 -->
      <g transform="translate(32.8025 85.398796)scale(0.1 -0.1)">
       <use xlink:href="#DejaVuSans-50"/>
       <use x="63.623047" xlink:href="#DejaVuSans-46"/>
       <use x="95.410156" xlink:href="#DejaVuSans-53"/>
      </g>
     </g>
    </g>
    <g id="ytick_4">
     <g id="line2d_12">
      <g>
       <use style="stroke:#000000;stroke-width:0.8;" x="55.705625" xlink:href="#m59093c9aa9" y="42.709176"/>
      </g>
     </g>
     <g id="text_12">
      <!-- 3.0 -->
      <g transform="translate(32.8025 46.508395)scale(0.1 -0.1)">
       <use xlink:href="#DejaVuSans-51"/>
       <use x="63.623047" xlink:href="#DejaVuSans-46"/>
       <use x="95.410156" xlink:href="#DejaVuSans-48"/>
      </g>
     </g>
    </g>
    <g id="text_13">
     <!-- Current $I$ -->
     <g transform="translate(26.306875 143.060938)rotate(-90)scale(0.12 -0.12)">
      <defs>
       <path d="M 64.40625 67.28125 
L 64.40625 56.890625 
Q 59.421875 61.53125 53.78125 63.8125 
Q 48.140625 66.109375 41.796875 66.109375 
Q 29.296875 66.109375 22.65625 58.46875 
Q 16.015625 50.828125 16.015625 36.375 
Q 16.015625 21.96875 22.65625 14.328125 
Q 29.296875 6.6875 41.796875 6.6875 
Q 48.140625 6.6875 53.78125 8.984375 
Q 59.421875 11.28125 64.40625 15.921875 
L 64.40625 5.609375 
Q 59.234375 2.09375 53.4375 0.328125 
Q 47.65625 -1.421875 41.21875 -1.421875 
Q 24.65625 -1.421875 15.125 8.703125 
Q 5.609375 18.84375 5.609375 36.375 
Q 5.609375 53.953125 15.125 64.078125 
Q 24.65625 74.21875 41.21875 74.21875 
Q 47.75 74.21875 53.53125 72.484375 
Q 59.328125 70.75 64.40625 67.28125 
z
" id="DejaVuSans-67"/>
       <path d="M 8.5 21.578125 
L 8.5 54.6875 
L 17.484375 54.6875 
L 17.484375 21.921875 
Q 17.484375 14.15625 20.5 10.265625 
Q 23.53125 6.390625 29.59375 6.390625 
Q 36.859375 6.390625 41.078125 11.03125 
Q 45.3125 15.671875 45.3125 23.6875 
L 45.3125 54.6875 
L 54.296875 54.6875 
L 54.296875 0 
L 45.3125 0 
L 45.3125 8.40625 
Q 42.046875 3.421875 37.71875 1 
Q 33.40625 -1.421875 27.6875 -1.421875 
Q 18.265625 -1.421875 13.375 4.4375 
Q 8.5 10.296875 8.5 21.578125 
z
M 31.109375 56 
z
" id="DejaVuSans-117"/>
       <path d="M 41.109375 46.296875 
Q 39.59375 47.171875 37.8125 47.578125 
Q 36.03125 48 33.890625 48 
Q 26.265625 48 22.1875 43.046875 
Q 18.109375 38.09375 18.109375 28.8125 
L 18.109375 0 
L 9.078125 0 
L 9.078125 54.6875 
L 18.109375 54.6875 
L 18.109375 46.1875 
Q 20.953125 51.171875 25.484375 53.578125 
Q 30.03125 56 36.53125 56 
Q 37.453125 56 38.578125 55.875 
Q 39.703125 55.765625 41.0625 55.515625 
z
" id="DejaVuSans-114"/>
       <path d="M 56.203125 29.59375 
L 56.203125 25.203125 
L 14.890625 25.203125 
Q 15.484375 15.921875 20.484375 11.0625 
Q 25.484375 6.203125 34.421875 6.203125 
Q 39.59375 6.203125 44.453125 7.46875 
Q 49.3125 8.734375 54.109375 11.28125 
L 54.109375 2.78125 
Q 49.265625 0.734375 44.1875 -0.34375 
Q 39.109375 -1.421875 33.890625 -1.421875 
Q 20.796875 -1.421875 13.15625 6.1875 
Q 5.515625 13.8125 5.515625 26.8125 
Q 5.515625 40.234375 12.765625 48.109375 
Q 20.015625 56 32.328125 56 
Q 43.359375 56 49.78125 48.890625 
Q 56.203125 41.796875 56.203125 29.59375 
z
M 47.21875 32.234375 
Q 47.125 39.59375 43.09375 43.984375 
Q 39.0625 48.390625 32.421875 48.390625 
Q 24.90625 48.390625 20.390625 44.140625 
Q 15.875 39.890625 15.1875 32.171875 
z
" id="DejaVuSans-101"/>
       <path d="M 54.890625 33.015625 
L 54.890625 0 
L 45.90625 0 
L 45.90625 32.71875 
Q 45.90625 40.484375 42.875 44.328125 
Q 39.84375 48.1875 33.796875 48.1875 
Q 26.515625 48.1875 22.3125 43.546875 
Q 18.109375 38.921875 18.109375 30.90625 
L 18.109375 0 
L 9.078125 0 
L 9.078125 54.6875 
L 18.109375 54.6875 
L 18.109375 46.1875 
Q 21.34375 51.125 25.703125 53.5625 
Q 30.078125 56 35.796875 56 
Q 45.21875 56 50.046875 50.171875 
Q 54.890625 44.34375 54.890625 33.015625 
z
" id="DejaVuSans-110"/>
       <path d="M 18.3125 70.21875 
L 18.3125 54.6875 
L 36.8125 54.6875 
L 36.8125 47.703125 
L 18.3125 47.703125 
L 18.3125 18.015625 
Q 18.3125 11.328125 20.140625 9.421875 
Q 21.96875 7.515625 27.59375 7.515625 
L 36.8125 7.515625 
L 36.8125 0 
L 27.59375 0 
Q 17.1875 0 13.234375 3.875 
Q 9.28125 7.765625 9.28125 18.015625 
L 9.28125 47.703125 
L 2.6875 47.703125 
L 2.6875 54.6875 
L 9.28125 54.6875 
L 9.28125 70.21875 
z
" id="DejaVuSans-116"/>
       <path id="DejaVuSans-32"/>
       <path d="M 16.890625 72.90625 
L 26.8125 72.90625 
L 12.59375 0 
L 2.6875 0 
z
" id="DejaVuSans-Oblique-73"/>
      </defs>
      <use transform="translate(0 0.78125)" xlink:href="#DejaVuSans-67"/>
      <use transform="translate(69.824219 0.78125)" xlink:href="#DejaVuSans-117"/>
      <use transform="translate(133.203125 0.78125)" xlink:href="#DejaVuSans-114"/>
      <use transform="translate(174.316406 0.78125)" xlink:href="#DejaVuSans-114"/>
      <use transform="translate(215.429688 0.78125)" xlink:href="#DejaVuSans-101"/>
      <use transform="translate(276.953125 0.78125)" xlink:href="#DejaVuSans-110"/>
      <use transform="translate(340.332031 0.78125)" xlink:href="#DejaVuSans-116"/>
      <use transform="translate(379.541016 0.78125)" xlink:href="#DejaVuSans-32"/>
      <use transform="translate(411.328125 0.78125)" xlink:href="#DejaVuSans-Oblique-73"/>
     </g>
    </g>
   </g>
   <g id="line2d_13">
    <path clip-path="url(#p71b9d2b3aa)" d="M 80.050952 190.492699 
L 378.560364 190.492699 
L 378.673975 42.709176 
L 381.806407 42.709176 
L 381.920019 190.492699 
L 566.957486 190.492699 
L 566.957486 190.492699 
" style="fill:none;stroke:#5443a3;stroke-linecap:square;stroke-opacity:0.75;stroke-width:1.5;"/>
   </g>
   <g id="patch_3">
    <path d="M 55.705625 197.881875 
L 55.705625 35.32 
" style="fill:none;stroke:#000000;stroke-linecap:square;stroke-linejoin:miter;stroke-width:0.8;"/>
   </g>
   <g id="patch_4">
    <path d="M 591.302812 197.881875 
L 591.302812 35.32 
" style="fill:none;stroke:#000000;stroke-linecap:square;stroke-linejoin:miter;stroke-width:0.8;"/>
   </g>
   <g id="patch_5">
    <path d="M 55.705625 197.881875 
L 591.302812 197.881875 
" style="fill:none;stroke:#000000;stroke-linecap:square;stroke-linejoin:miter;stroke-width:0.8;"/>
   </g>
   <g id="patch_6">
    <path d="M 55.705625 35.32 
L 591.302812 35.32 
" style="fill:none;stroke:#000000;stroke-linecap:square;stroke-linejoin:miter;stroke-width:0.8;"/>
   </g>
  </g>
  <g id="axes_2">
   <g id="patch_7">
    <path d="M 605.602812 197.881875 
L 1141.2 197.881875 
L 1141.2 35.32 
L 605.602812 35.32 
z
" style="fill:#ffffff;"/>
   </g>
   <g id="matplotlib.axis_3">
    <g id="xtick_9">
     <g id="line2d_14">
      <g>
       <use style="stroke:#000000;stroke-width:0.8;" x="662.408575" xlink:href="#mf3d45a719c" y="197.881875"/>
      </g>
     </g>
     <g id="text_14">
      <!-- 86 -->
      <g transform="translate(656.046075 212.480313)scale(0.1 -0.1)">
       <use xlink:href="#DejaVuSans-56"/>
       <use x="63.623047" xlink:href="#DejaVuSans-54"/>
      </g>
     </g>
    </g>
    <g id="xtick_10">
     <g id="line2d_15">
      <g>
       <use style="stroke:#000000;stroke-width:0.8;" x="727.329446" xlink:href="#mf3d45a719c" y="197.881875"/>
      </g>
     </g>
     <g id="text_15">
      <!-- 88 -->
      <g transform="translate(720.966946 212.480313)scale(0.1 -0.1)">
       <use xlink:href="#DejaVuSans-56"/>
       <use x="63.623047" xlink:href="#DejaVuSans-56"/>
      </g>
     </g>
    </g>
    <g id="xtick_11">
     <g id="line2d_16">
      <g>
       <use style="stroke:#000000;stroke-width:0.8;" x="792.250317" xlink:href="#mf3d45a719c" y="197.881875"/>
      </g>
     </g>
     <g id="text_16">
      <!-- 90 -->
      <g transform="translate(785.887817 212.480313)scale(0.1 -0.1)">
       <defs>
        <path d="M 10.984375 1.515625 
L 10.984375 10.5 
Q 14.703125 8.734375 18.5 7.8125 
Q 22.3125 6.890625 25.984375 6.890625 
Q 35.75 6.890625 40.890625 13.453125 
Q 46.046875 20.015625 46.78125 33.40625 
Q 43.953125 29.203125 39.59375 26.953125 
Q 35.25 24.703125 29.984375 24.703125 
Q 19.046875 24.703125 12.671875 31.3125 
Q 6.296875 37.9375 6.296875 49.421875 
Q 6.296875 60.640625 12.9375 67.421875 
Q 19.578125 74.21875 30.609375 74.21875 
Q 43.265625 74.21875 49.921875 64.515625 
Q 56.59375 54.828125 56.59375 36.375 
Q 56.59375 19.140625 48.40625 8.859375 
Q 40.234375 -1.421875 26.421875 -1.421875 
Q 22.703125 -1.421875 18.890625 -0.6875 
Q 15.09375 0.046875 10.984375 1.515625 
z
M 30.609375 32.421875 
Q 37.25 32.421875 41.125 36.953125 
Q 45.015625 41.5 45.015625 49.421875 
Q 45.015625 57.28125 41.125 61.84375 
Q 37.25 66.40625 30.609375 66.40625 
Q 23.96875 66.40625 20.09375 61.84375 
Q 16.21875 57.28125 16.21875 49.421875 
Q 16.21875 41.5 20.09375 36.953125 
Q 23.96875 32.421875 30.609375 32.421875 
z
" id="DejaVuSans-57"/>
       </defs>
       <use xlink:href="#DejaVuSans-57"/>
       <use x="63.623047" xlink:href="#DejaVuSans-48"/>
      </g>
     </g>
    </g>
    <g id="xtick_12">
     <g id="line2d_17">
      <g>
       <use style="stroke:#000000;stroke-width:0.8;" x="857.171188" xlink:href="#mf3d45a719c" y="197.881875"/>
      </g>
     </g>
     <g id="text_17">
      <!-- 92 -->
      <g transform="translate(850.808688 212.480313)scale(0.1 -0.1)">
       <use xlink:href="#DejaVuSans-57"/>
       <use x="63.623047" xlink:href="#DejaVuSans-50"/>
      </g>
     </g>
    </g>
    <g id="xtick_13">
     <g id="line2d_18">
      <g>
       <use style="stroke:#000000;stroke-width:0.8;" x="922.09206" xlink:href="#mf3d45a719c" y="197.881875"/>
      </g>
     </g>
     <g id="text_18">
      <!-- 94 -->
      <g transform="translate(915.72956 212.480313)scale(0.1 -0.1)">
       <use xlink:href="#DejaVuSans-57"/>
       <use x="63.623047" xlink:href="#DejaVuSans-52"/>
      </g>
     </g>
    </g>
    <g id="xtick_14">
     <g id="line2d_19">
      <g>
       <use style="stroke:#000000;stroke-width:0.8;" x="987.012931" xlink:href="#mf3d45a719c" y="197.881875"/>
      </g>
     </g>
     <g id="text_19">
      <!-- 96 -->
      <g transform="translate(980.650431 212.480313)scale(0.1 -0.1)">
       <use xlink:href="#DejaVuSans-57"/>
       <use x="63.623047" xlink:href="#DejaVuSans-54"/>
      </g>
     </g>
    </g>
    <g id="xtick_15">
     <g id="line2d_20">
      <g>
       <use style="stroke:#000000;stroke-width:0.8;" x="1051.933802" xlink:href="#mf3d45a719c" y="197.881875"/>
      </g>
     </g>
     <g id="text_20">
      <!-- 98 -->
      <g transform="translate(1045.571302 212.480313)scale(0.1 -0.1)">
       <use xlink:href="#DejaVuSans-57"/>
       <use x="63.623047" xlink:href="#DejaVuSans-56"/>
      </g>
     </g>
    </g>
    <g id="xtick_16">
     <g id="line2d_21">
      <g>
       <use style="stroke:#000000;stroke-width:0.8;" x="1116.854673" xlink:href="#mf3d45a719c" y="197.881875"/>
      </g>
     </g>
     <g id="text_21">
      <!-- 100 -->
      <g transform="translate(1107.310923 212.480313)scale(0.1 -0.1)">
       <use xlink:href="#DejaVuSans-49"/>
       <use x="63.623047" xlink:href="#DejaVuSans-48"/>
       <use x="127.246094" xlink:href="#DejaVuSans-48"/>
      </g>
     </g>
    </g>
   </g>
   <g id="matplotlib.axis_4">
    <g id="ytick_5">
     <g id="line2d_22">
      <g>
       <use style="stroke:#000000;stroke-width:0.8;" x="605.602812" xlink:href="#m59093c9aa9" y="159.380378"/>
      </g>
     </g>
    </g>
    <g id="ytick_6">
     <g id="line2d_23">
      <g>
       <use style="stroke:#000000;stroke-width:0.8;" x="605.602812" xlink:href="#m59093c9aa9" y="120.489978"/>
      </g>
     </g>
    </g>
    <g id="ytick_7">
     <g id="line2d_24">
      <g>
       <use style="stroke:#000000;stroke-width:0.8;" x="605.602812" xlink:href="#m59093c9aa9" y="81.599577"/>
      </g>
     </g>
    </g>
    <g id="ytick_8">
     <g id="line2d_25">
      <g>
       <use style="stroke:#000000;stroke-width:0.8;" x="605.602812" xlink:href="#m59093c9aa9" y="42.709176"/>
      </g>
     </g>
    </g>
   </g>
   <g id="line2d_26">
    <path clip-path="url(#pe3170294c3)" d="M 629.948139 190.492699 
L 1116.854673 190.492699 
L 1116.854673 190.492699 
" style="fill:none;stroke:#5443a3;stroke-linecap:square;stroke-opacity:0.75;stroke-width:1.5;"/>
   </g>
   <g id="patch_8">
    <path d="M 605.602812 197.881875 
L 605.602812 35.32 
" style="fill:none;stroke:#000000;stroke-linecap:square;stroke-linejoin:miter;stroke-width:0.8;"/>
   </g>
   <g id="patch_9">
    <path d="M 1141.2 197.881875 
L 1141.2 35.32 
" style="fill:none;stroke:#000000;stroke-linecap:square;stroke-linejoin:miter;stroke-width:0.8;"/>
   </g>
   <g id="patch_10">
    <path d="M 605.602812 197.881875 
L 1141.2 197.881875 
" style="fill:none;stroke:#000000;stroke-linecap:square;stroke-linejoin:miter;stroke-width:0.8;"/>
   </g>
   <g id="patch_11">
    <path d="M 605.602812 35.32 
L 1141.2 35.32 
" style="fill:none;stroke:#000000;stroke-linecap:square;stroke-linejoin:miter;stroke-width:0.8;"/>
   </g>
   <g id="legend_1">
    <g id="patch_12">
     <path d="M 1099.2 66.126219 
L 1134.2 66.126219 
Q 1136.2 66.126219 1136.2 64.126219 
L 1136.2 50.448094 
Q 1136.2 48.448094 1134.2 48.448094 
L 1099.2 48.448094 
Q 1097.2 48.448094 1097.2 50.448094 
L 1097.2 64.126219 
Q 1097.2 66.126219 1099.2 66.126219 
z
" style="fill:#ffffff;opacity:0.8;stroke:#cccccc;stroke-linejoin:miter;"/>
    </g>
    <g id="line2d_27">
     <path d="M 1101.2 56.546531 
L 1121.2 56.546531 
" style="fill:none;stroke:#5443a3;stroke-linecap:square;stroke-opacity:0.75;stroke-width:1.5;"/>
    </g>
    <g id="line2d_28"/>
    <g id="text_22">
     <!-- $I$ -->
     <g transform="translate(1129.2 60.046531)scale(0.1 -0.1)">
      <use transform="translate(0 0.09375)" xlink:href="#DejaVuSans-Oblique-73"/>
     </g>
    </g>
   </g>
  </g>
  <g id="axes_3">
   <g id="patch_13">
    <path d="M 55.705625 387.921875 
L 591.302812 387.921875 
L 591.302812 225.36 
L 55.705625 225.36 
z
" style="fill:#ffffff;"/>
   </g>
   <g id="matplotlib.axis_5">
    <g id="xtick_17">
     <g id="line2d_29">
      <g>
       <use style="stroke:#000000;stroke-width:0.8;" x="112.511387" xlink:href="#mf3d45a719c" y="387.921875"/>
      </g>
     </g>
     <g id="text_23">
      <!-- 16 -->
      <g transform="translate(106.148887 402.520312)scale(0.1 -0.1)">
       <use xlink:href="#DejaVuSans-49"/>
       <use x="63.623047" xlink:href="#DejaVuSans-54"/>
      </g>
     </g>
    </g>
    <g id="xtick_18">
     <g id="line2d_30">
      <g>
       <use style="stroke:#000000;stroke-width:0.8;" x="177.432259" xlink:href="#mf3d45a719c" y="387.921875"/>
      </g>
     </g>
     <g id="text_24">
      <!-- 18 -->
      <g transform="translate(171.069759 402.520312)scale(0.1 -0.1)">
       <use xlink:href="#DejaVuSans-49"/>
       <use x="63.623047" xlink:href="#DejaVuSans-56"/>
      </g>
     </g>
    </g>
    <g id="xtick_19">
     <g id="line2d_31">
      <g>
       <use style="stroke:#000000;stroke-width:0.8;" x="242.35313" xlink:href="#mf3d45a719c" y="387.921875"/>
      </g>
     </g>
     <g id="text_25">
      <!-- 20 -->
      <g transform="translate(235.99063 402.520312)scale(0.1 -0.1)">
       <use xlink:href="#DejaVuSans-50"/>
       <use x="63.623047" xlink:href="#DejaVuSans-48"/>
      </g>
     </g>
    </g>
    <g id="xtick_20">
     <g id="line2d_32">
      <g>
       <use style="stroke:#000000;stroke-width:0.8;" x="307.274001" xlink:href="#mf3d45a719c" y="387.921875"/>
      </g>
     </g>
     <g id="text_26">
      <!-- 22 -->
      <g transform="translate(300.911501 402.520312)scale(0.1 -0.1)">
       <use xlink:href="#DejaVuSans-50"/>
       <use x="63.623047" xlink:href="#DejaVuSans-50"/>
      </g>
     </g>
    </g>
    <g id="xtick_21">
     <g id="line2d_33">
      <g>
       <use style="stroke:#000000;stroke-width:0.8;" x="372.194872" xlink:href="#mf3d45a719c" y="387.921875"/>
      </g>
     </g>
     <g id="text_27">
      <!-- 24 -->
      <g transform="translate(365.832372 402.520312)scale(0.1 -0.1)">
       <use xlink:href="#DejaVuSans-50"/>
       <use x="63.623047" xlink:href="#DejaVuSans-52"/>
      </g>
     </g>
    </g>
    <g id="xtick_22">
     <g id="line2d_34">
      <g>
       <use style="stroke:#000000;stroke-width:0.8;" x="437.115743" xlink:href="#mf3d45a719c" y="387.921875"/>
      </g>
     </g>
     <g id="text_28">
      <!-- 26 -->
      <g transform="translate(430.753243 402.520312)scale(0.1 -0.1)">
       <use xlink:href="#DejaVuSans-50"/>
       <use x="63.623047" xlink:href="#DejaVuSans-54"/>
      </g>
     </g>
    </g>
    <g id="xtick_23">
     <g id="line2d_35">
      <g>
       <use style="stroke:#000000;stroke-width:0.8;" x="502.036615" xlink:href="#mf3d45a719c" y="387.921875"/>
      </g>
     </g>
     <g id="text_29">
      <!-- 28 -->
      <g transform="translate(495.674115 402.520312)scale(0.1 -0.1)">
       <use xlink:href="#DejaVuSans-50"/>
       <use x="63.623047" xlink:href="#DejaVuSans-56"/>
      </g>
     </g>
    </g>
    <g id="xtick_24">
     <g id="line2d_36">
      <g>
       <use style="stroke:#000000;stroke-width:0.8;" x="566.957486" xlink:href="#mf3d45a719c" y="387.921875"/>
      </g>
     </g>
     <g id="text_30">
      <!-- 30 -->
      <g transform="translate(560.594986 402.520312)scale(0.1 -0.1)">
       <use xlink:href="#DejaVuSans-51"/>
       <use x="63.623047" xlink:href="#DejaVuSans-48"/>
      </g>
     </g>
    </g>
    <g id="text_31">
     <!-- Time ($10^{-2}$ seconds) -->
     <g transform="translate(261.524219 418.704375)scale(0.12 -0.12)">
      <defs>
       <path d="M -0.296875 72.90625 
L 61.375 72.90625 
L 61.375 64.59375 
L 35.5 64.59375 
L 35.5 0 
L 25.59375 0 
L 25.59375 64.59375 
L -0.296875 64.59375 
z
" id="DejaVuSans-84"/>
       <path d="M 9.421875 54.6875 
L 18.40625 54.6875 
L 18.40625 0 
L 9.421875 0 
z
M 9.421875 75.984375 
L 18.40625 75.984375 
L 18.40625 64.59375 
L 9.421875 64.59375 
z
" id="DejaVuSans-105"/>
       <path d="M 52 44.1875 
Q 55.375 50.25 60.0625 53.125 
Q 64.75 56 71.09375 56 
Q 79.640625 56 84.28125 50.015625 
Q 88.921875 44.046875 88.921875 33.015625 
L 88.921875 0 
L 79.890625 0 
L 79.890625 32.71875 
Q 79.890625 40.578125 77.09375 44.375 
Q 74.3125 48.1875 68.609375 48.1875 
Q 61.625 48.1875 57.5625 43.546875 
Q 53.515625 38.921875 53.515625 30.90625 
L 53.515625 0 
L 44.484375 0 
L 44.484375 32.71875 
Q 44.484375 40.625 41.703125 44.40625 
Q 38.921875 48.1875 33.109375 48.1875 
Q 26.21875 48.1875 22.15625 43.53125 
Q 18.109375 38.875 18.109375 30.90625 
L 18.109375 0 
L 9.078125 0 
L 9.078125 54.6875 
L 18.109375 54.6875 
L 18.109375 46.1875 
Q 21.1875 51.21875 25.484375 53.609375 
Q 29.78125 56 35.6875 56 
Q 41.65625 56 45.828125 52.96875 
Q 50 49.953125 52 44.1875 
z
" id="DejaVuSans-109"/>
       <path d="M 31 75.875 
Q 24.46875 64.65625 21.28125 53.65625 
Q 18.109375 42.671875 18.109375 31.390625 
Q 18.109375 20.125 21.3125 9.0625 
Q 24.515625 -2 31 -13.1875 
L 23.1875 -13.1875 
Q 15.875 -1.703125 12.234375 9.375 
Q 8.59375 20.453125 8.59375 31.390625 
Q 8.59375 42.28125 12.203125 53.3125 
Q 15.828125 64.359375 23.1875 75.875 
z
" id="DejaVuSans-40"/>
       <path d="M 10.59375 35.5 
L 73.1875 35.5 
L 73.1875 27.203125 
L 10.59375 27.203125 
z
" id="DejaVuSans-8722"/>
       <path d="M 44.28125 53.078125 
L 44.28125 44.578125 
Q 40.484375 46.53125 36.375 47.5 
Q 32.28125 48.484375 27.875 48.484375 
Q 21.1875 48.484375 17.84375 46.4375 
Q 14.5 44.390625 14.5 40.28125 
Q 14.5 37.15625 16.890625 35.375 
Q 19.28125 33.59375 26.515625 31.984375 
L 29.59375 31.296875 
Q 39.15625 29.25 43.1875 25.515625 
Q 47.21875 21.78125 47.21875 15.09375 
Q 47.21875 7.46875 41.1875 3.015625 
Q 35.15625 -1.421875 24.609375 -1.421875 
Q 20.21875 -1.421875 15.453125 -0.5625 
Q 10.6875 0.296875 5.421875 2 
L 5.421875 11.28125 
Q 10.40625 8.6875 15.234375 7.390625 
Q 20.0625 6.109375 24.8125 6.109375 
Q 31.15625 6.109375 34.5625 8.28125 
Q 37.984375 10.453125 37.984375 14.40625 
Q 37.984375 18.0625 35.515625 20.015625 
Q 33.0625 21.96875 24.703125 23.78125 
L 21.578125 24.515625 
Q 13.234375 26.265625 9.515625 29.90625 
Q 5.8125 33.546875 5.8125 39.890625 
Q 5.8125 47.609375 11.28125 51.796875 
Q 16.75 56 26.8125 56 
Q 31.78125 56 36.171875 55.265625 
Q 40.578125 54.546875 44.28125 53.078125 
z
" id="DejaVuSans-115"/>
       <path d="M 48.78125 52.59375 
L 48.78125 44.1875 
Q 44.96875 46.296875 41.140625 47.34375 
Q 37.3125 48.390625 33.40625 48.390625 
Q 24.65625 48.390625 19.8125 42.84375 
Q 14.984375 37.3125 14.984375 27.296875 
Q 14.984375 17.28125 19.8125 11.734375 
Q 24.65625 6.203125 33.40625 6.203125 
Q 37.3125 6.203125 41.140625 7.25 
Q 44.96875 8.296875 48.78125 10.40625 
L 48.78125 2.09375 
Q 45.015625 0.34375 40.984375 -0.53125 
Q 36.96875 -1.421875 32.421875 -1.421875 
Q 20.0625 -1.421875 12.78125 6.34375 
Q 5.515625 14.109375 5.515625 27.296875 
Q 5.515625 40.671875 12.859375 48.328125 
Q 20.21875 56 33.015625 56 
Q 37.15625 56 41.109375 55.140625 
Q 45.0625 54.296875 48.78125 52.59375 
z
" id="DejaVuSans-99"/>
       <path d="M 30.609375 48.390625 
Q 23.390625 48.390625 19.1875 42.75 
Q 14.984375 37.109375 14.984375 27.296875 
Q 14.984375 17.484375 19.15625 11.84375 
Q 23.34375 6.203125 30.609375 6.203125 
Q 37.796875 6.203125 41.984375 11.859375 
Q 46.1875 17.53125 46.1875 27.296875 
Q 46.1875 37.015625 41.984375 42.703125 
Q 37.796875 48.390625 30.609375 48.390625 
z
M 30.609375 56 
Q 42.328125 56 49.015625 48.375 
Q 55.71875 40.765625 55.71875 27.296875 
Q 55.71875 13.875 49.015625 6.21875 
Q 42.328125 -1.421875 30.609375 -1.421875 
Q 18.84375 -1.421875 12.171875 6.21875 
Q 5.515625 13.875 5.515625 27.296875 
Q 5.515625 40.765625 12.171875 48.375 
Q 18.84375 56 30.609375 56 
z
" id="DejaVuSans-111"/>
       <path d="M 45.40625 46.390625 
L 45.40625 75.984375 
L 54.390625 75.984375 
L 54.390625 0 
L 45.40625 0 
L 45.40625 8.203125 
Q 42.578125 3.328125 38.25 0.953125 
Q 33.9375 -1.421875 27.875 -1.421875 
Q 17.96875 -1.421875 11.734375 6.484375 
Q 5.515625 14.40625 5.515625 27.296875 
Q 5.515625 40.1875 11.734375 48.09375 
Q 17.96875 56 27.875 56 
Q 33.9375 56 38.25 53.625 
Q 42.578125 51.265625 45.40625 46.390625 
z
M 14.796875 27.296875 
Q 14.796875 17.390625 18.875 11.75 
Q 22.953125 6.109375 30.078125 6.109375 
Q 37.203125 6.109375 41.296875 11.75 
Q 45.40625 17.390625 45.40625 27.296875 
Q 45.40625 37.203125 41.296875 42.84375 
Q 37.203125 48.484375 30.078125 48.484375 
Q 22.953125 48.484375 18.875 42.84375 
Q 14.796875 37.203125 14.796875 27.296875 
z
" id="DejaVuSans-100"/>
       <path d="M 8.015625 75.875 
L 15.828125 75.875 
Q 23.140625 64.359375 26.78125 53.3125 
Q 30.421875 42.28125 30.421875 31.390625 
Q 30.421875 20.453125 26.78125 9.375 
Q 23.140625 -1.703125 15.828125 -13.1875 
L 8.015625 -13.1875 
Q 14.5 -2 17.703125 9.0625 
Q 20.90625 20.125 20.90625 31.390625 
Q 20.90625 42.671875 17.703125 53.65625 
Q 14.5 64.65625 8.015625 75.875 
z
" id="DejaVuSans-41"/>
      </defs>
      <use transform="translate(0 0.765625)" xlink:href="#DejaVuSans-84"/>
      <use transform="translate(61.083984 0.765625)" xlink:href="#DejaVuSans-105"/>
      <use transform="translate(88.867188 0.765625)" xlink:href="#DejaVuSans-109"/>
      <use transform="translate(186.279297 0.765625)" xlink:href="#DejaVuSans-101"/>
      <use transform="translate(247.802734 0.765625)" xlink:href="#DejaVuSans-32"/>
      <use transform="translate(279.589844 0.765625)" xlink:href="#DejaVuSans-40"/>
      <use transform="translate(318.603516 0.765625)" xlink:href="#DejaVuSans-49"/>
      <use transform="translate(382.226562 0.765625)" xlink:href="#DejaVuSans-48"/>
      <use transform="translate(446.806641 39.046875)scale(0.7)" xlink:href="#DejaVuSans-8722"/>
      <use transform="translate(505.458984 39.046875)scale(0.7)" xlink:href="#DejaVuSans-50"/>
      <use transform="translate(552.729492 0.765625)" xlink:href="#DejaVuSans-32"/>
      <use transform="translate(584.516602 0.765625)" xlink:href="#DejaVuSans-115"/>
      <use transform="translate(636.616211 0.765625)" xlink:href="#DejaVuSans-101"/>
      <use transform="translate(698.139648 0.765625)" xlink:href="#DejaVuSans-99"/>
      <use transform="translate(753.120117 0.765625)" xlink:href="#DejaVuSans-111"/>
      <use transform="translate(814.301758 0.765625)" xlink:href="#DejaVuSans-110"/>
      <use transform="translate(877.680664 0.765625)" xlink:href="#DejaVuSans-100"/>
      <use transform="translate(941.157227 0.765625)" xlink:href="#DejaVuSans-115"/>
      <use transform="translate(993.256836 0.765625)" xlink:href="#DejaVuSans-41"/>
     </g>
    </g>
   </g>
   <g id="matplotlib.axis_6">
    <g id="ytick_9">
     <g id="line2d_37">
      <g>
       <use style="stroke:#000000;stroke-width:0.8;" x="55.705625" xlink:href="#m59093c9aa9" y="380.532944"/>
      </g>
     </g>
     <g id="text_32">
      <!-- 0.00 -->
      <g transform="translate(26.44 384.332163)scale(0.1 -0.1)">
       <use xlink:href="#DejaVuSans-48"/>
       <use x="63.623047" xlink:href="#DejaVuSans-46"/>
       <use x="95.410156" xlink:href="#DejaVuSans-48"/>
       <use x="159.033203" xlink:href="#DejaVuSans-48"/>
      </g>
     </g>
    </g>
    <g id="ytick_10">
     <g id="line2d_38">
      <g>
       <use style="stroke:#000000;stroke-width:0.8;" x="55.705625" xlink:href="#m59093c9aa9" y="355.902316"/>
      </g>
     </g>
     <g id="text_33">
      <!-- 0.25 -->
      <g transform="translate(26.44 359.701535)scale(0.1 -0.1)">
       <use xlink:href="#DejaVuSans-48"/>
       <use x="63.623047" xlink:href="#DejaVuSans-46"/>
       <use x="95.410156" xlink:href="#DejaVuSans-50"/>
       <use x="159.033203" xlink:href="#DejaVuSans-53"/>
      </g>
     </g>
    </g>
    <g id="ytick_11">
     <g id="line2d_39">
      <g>
       <use style="stroke:#000000;stroke-width:0.8;" x="55.705625" xlink:href="#m59093c9aa9" y="331.271688"/>
      </g>
     </g>
     <g id="text_34">
      <!-- 0.50 -->
      <g transform="translate(26.44 335.070907)scale(0.1 -0.1)">
       <use xlink:href="#DejaVuSans-48"/>
       <use x="63.623047" xlink:href="#DejaVuSans-46"/>
       <use x="95.410156" xlink:href="#DejaVuSans-53"/>
       <use x="159.033203" xlink:href="#DejaVuSans-48"/>
      </g>
     </g>
    </g>
    <g id="ytick_12">
     <g id="line2d_40">
      <g>
       <use style="stroke:#000000;stroke-width:0.8;" x="55.705625" xlink:href="#m59093c9aa9" y="306.64106"/>
      </g>
     </g>
     <g id="text_35">
      <!-- 0.75 -->
      <g transform="translate(26.44 310.440279)scale(0.1 -0.1)">
       <defs>
        <path d="M 8.203125 72.90625 
L 55.078125 72.90625 
L 55.078125 68.703125 
L 28.609375 0 
L 18.3125 0 
L 43.21875 64.59375 
L 8.203125 64.59375 
z
" id="DejaVuSans-55"/>
       </defs>
       <use xlink:href="#DejaVuSans-48"/>
       <use x="63.623047" xlink:href="#DejaVuSans-46"/>
       <use x="95.410156" xlink:href="#DejaVuSans-55"/>
       <use x="159.033203" xlink:href="#DejaVuSans-53"/>
      </g>
     </g>
    </g>
    <g id="ytick_13">
     <g id="line2d_41">
      <g>
       <use style="stroke:#000000;stroke-width:0.8;" x="55.705625" xlink:href="#m59093c9aa9" y="282.010432"/>
      </g>
     </g>
     <g id="text_36">
      <!-- 1.00 -->
      <g transform="translate(26.44 285.809651)scale(0.1 -0.1)">
       <use xlink:href="#DejaVuSans-49"/>
       <use x="63.623047" xlink:href="#DejaVuSans-46"/>
       <use x="95.410156" xlink:href="#DejaVuSans-48"/>
       <use x="159.033203" xlink:href="#DejaVuSans-48"/>
      </g>
     </g>
    </g>
    <g id="ytick_14">
     <g id="line2d_42">
      <g>
       <use style="stroke:#000000;stroke-width:0.8;" x="55.705625" xlink:href="#m59093c9aa9" y="257.379804"/>
      </g>
     </g>
     <g id="text_37">
      <!-- 1.25 -->
      <g transform="translate(26.44 261.179023)scale(0.1 -0.1)">
       <use xlink:href="#DejaVuSans-49"/>
       <use x="63.623047" xlink:href="#DejaVuSans-46"/>
       <use x="95.410156" xlink:href="#DejaVuSans-50"/>
       <use x="159.033203" xlink:href="#DejaVuSans-53"/>
      </g>
     </g>
    </g>
    <g id="ytick_15">
     <g id="line2d_43">
      <g>
       <use style="stroke:#000000;stroke-width:0.8;" x="55.705625" xlink:href="#m59093c9aa9" y="232.749176"/>
      </g>
     </g>
     <g id="text_38">
      <!-- 1.50 -->
      <g transform="translate(26.44 236.548395)scale(0.1 -0.1)">
       <use xlink:href="#DejaVuSans-49"/>
       <use x="63.623047" xlink:href="#DejaVuSans-46"/>
       <use x="95.410156" xlink:href="#DejaVuSans-53"/>
       <use x="159.033203" xlink:href="#DejaVuSans-48"/>
      </g>
     </g>
    </g>
    <g id="text_39">
     <!-- Voltage $V_k, k \in \{1,2\}$ -->
     <g transform="translate(19.92 370.720937)rotate(-90)scale(0.12 -0.12)">
      <defs>
       <path d="M 28.609375 0 
L 0.78125 72.90625 
L 11.078125 72.90625 
L 34.1875 11.53125 
L 57.328125 72.90625 
L 67.578125 72.90625 
L 39.796875 0 
z
" id="DejaVuSans-86"/>
       <path d="M 9.421875 75.984375 
L 18.40625 75.984375 
L 18.40625 0 
L 9.421875 0 
z
" id="DejaVuSans-108"/>
       <path d="M 34.28125 27.484375 
Q 23.390625 27.484375 19.1875 25 
Q 14.984375 22.515625 14.984375 16.5 
Q 14.984375 11.71875 18.140625 8.90625 
Q 21.296875 6.109375 26.703125 6.109375 
Q 34.1875 6.109375 38.703125 11.40625 
Q 43.21875 16.703125 43.21875 25.484375 
L 43.21875 27.484375 
z
M 52.203125 31.203125 
L 52.203125 0 
L 43.21875 0 
L 43.21875 8.296875 
Q 40.140625 3.328125 35.546875 0.953125 
Q 30.953125 -1.421875 24.3125 -1.421875 
Q 15.921875 -1.421875 10.953125 3.296875 
Q 6 8.015625 6 15.921875 
Q 6 25.140625 12.171875 29.828125 
Q 18.359375 34.515625 30.609375 34.515625 
L 43.21875 34.515625 
L 43.21875 35.40625 
Q 43.21875 41.609375 39.140625 45 
Q 35.0625 48.390625 27.6875 48.390625 
Q 23 48.390625 18.546875 47.265625 
Q 14.109375 46.140625 10.015625 43.890625 
L 10.015625 52.203125 
Q 14.9375 54.109375 19.578125 55.046875 
Q 24.21875 56 28.609375 56 
Q 40.484375 56 46.34375 49.84375 
Q 52.203125 43.703125 52.203125 31.203125 
z
" id="DejaVuSans-97"/>
       <path d="M 45.40625 27.984375 
Q 45.40625 37.75 41.375 43.109375 
Q 37.359375 48.484375 30.078125 48.484375 
Q 22.859375 48.484375 18.828125 43.109375 
Q 14.796875 37.75 14.796875 27.984375 
Q 14.796875 18.265625 18.828125 12.890625 
Q 22.859375 7.515625 30.078125 7.515625 
Q 37.359375 7.515625 41.375 12.890625 
Q 45.40625 18.265625 45.40625 27.984375 
z
M 54.390625 6.78125 
Q 54.390625 -7.171875 48.1875 -13.984375 
Q 42 -20.796875 29.203125 -20.796875 
Q 24.46875 -20.796875 20.265625 -20.09375 
Q 16.0625 -19.390625 12.109375 -17.921875 
L 12.109375 -9.1875 
Q 16.0625 -11.328125 19.921875 -12.34375 
Q 23.78125 -13.375 27.78125 -13.375 
Q 36.625 -13.375 41.015625 -8.765625 
Q 45.40625 -4.15625 45.40625 5.171875 
L 45.40625 9.625 
Q 42.625 4.78125 38.28125 2.390625 
Q 33.9375 0 27.875 0 
Q 17.828125 0 11.671875 7.65625 
Q 5.515625 15.328125 5.515625 27.984375 
Q 5.515625 40.671875 11.671875 48.328125 
Q 17.828125 56 27.875 56 
Q 33.9375 56 38.28125 53.609375 
Q 42.625 51.21875 45.40625 46.390625 
L 45.40625 54.6875 
L 54.390625 54.6875 
z
" id="DejaVuSans-103"/>
       <path d="M 20.609375 0 
L 7.8125 72.90625 
L 17.484375 72.90625 
L 28.078125 10.203125 
L 63.484375 72.90625 
L 74.21875 72.90625 
L 32.078125 0 
z
" id="DejaVuSans-Oblique-86"/>
       <path d="M 18.3125 75.984375 
L 27.296875 75.984375 
L 18.703125 31.6875 
L 49.515625 54.6875 
L 61.1875 54.6875 
L 26.8125 28.515625 
L 51.90625 0 
L 41.015625 0 
L 17.671875 26.703125 
L 12.5 0 
L 3.515625 0 
z
" id="DejaVuSans-Oblique-107"/>
       <path d="M 11.71875 12.40625 
L 22.015625 12.40625 
L 22.015625 4 
L 14.015625 -11.625 
L 7.71875 -11.625 
L 11.71875 4 
z
" id="DejaVuSans-44"/>
       <path d="M 16.75 30.609375 
Q 17.09375 27 20.171875 21.140625 
Q 23.78125 14.359375 30.609375 10.546875 
Q 37.3125 6.84375 44.53125 6.78125 
L 78.5625 6.78125 
L 78.5625 -0.984375 
L 44.53125 -0.984375 
Q 35.15625 -0.984375 26.484375 3.84375 
Q 17.828125 8.6875 13.1875 17.28125 
Q 8.546875 25.875 8.546875 35.015625 
Q 8.546875 44.046875 13.1875 52.640625 
Q 17.828125 61.234375 26.484375 66.109375 
Q 35.15625 71 44.53125 71 
L 78.5625 71 
L 78.5625 63.234375 
L 44.53125 63.234375 
Q 37.3125 63.1875 30.609375 59.421875 
Q 23.828125 55.5625 20.171875 48.828125 
Q 17.046875 42.96875 16.609375 38.421875 
L 78.5625 38.421875 
L 78.5625 30.609375 
z
" id="DejaVuSans-8712"/>
       <path d="M 51.125 -9.28125 
L 51.125 -16.3125 
L 48.09375 -16.3125 
Q 35.9375 -16.3125 31.8125 -12.6875 
Q 27.6875 -9.078125 27.6875 1.703125 
L 27.6875 13.375 
Q 27.6875 20.75 25.046875 23.578125 
Q 22.40625 26.421875 15.484375 26.421875 
L 12.5 26.421875 
L 12.5 33.40625 
L 15.484375 33.40625 
Q 22.46875 33.40625 25.078125 36.203125 
Q 27.6875 39.015625 27.6875 46.296875 
L 27.6875 58.015625 
Q 27.6875 68.796875 31.8125 72.390625 
Q 35.9375 75.984375 48.09375 75.984375 
L 51.125 75.984375 
L 51.125 69 
L 47.796875 69 
Q 40.921875 69 38.8125 66.84375 
Q 36.71875 64.703125 36.71875 57.8125 
L 36.71875 45.703125 
Q 36.71875 38.03125 34.5 34.5625 
Q 32.28125 31.109375 26.90625 29.890625 
Q 32.328125 28.5625 34.515625 25.09375 
Q 36.71875 21.625 36.71875 14.015625 
L 36.71875 1.90625 
Q 36.71875 -4.984375 38.8125 -7.125 
Q 40.921875 -9.28125 47.796875 -9.28125 
z
" id="DejaVuSans-123"/>
       <path d="M 12.5 -9.28125 
L 15.921875 -9.28125 
Q 22.75 -9.28125 24.828125 -7.171875 
Q 26.90625 -5.078125 26.90625 1.90625 
L 26.90625 14.015625 
Q 26.90625 21.625 29.09375 25.09375 
Q 31.296875 28.5625 36.71875 29.890625 
Q 31.296875 31.109375 29.09375 34.5625 
Q 26.90625 38.03125 26.90625 45.703125 
L 26.90625 57.8125 
Q 26.90625 64.75 24.828125 66.875 
Q 22.75 69 15.921875 69 
L 12.5 69 
L 12.5 75.984375 
L 15.578125 75.984375 
Q 27.734375 75.984375 31.8125 72.390625 
Q 35.890625 68.796875 35.890625 58.015625 
L 35.890625 46.296875 
Q 35.890625 39.015625 38.515625 36.203125 
Q 41.15625 33.40625 48.09375 33.40625 
L 51.125 33.40625 
L 51.125 26.421875 
L 48.09375 26.421875 
Q 41.15625 26.421875 38.515625 23.578125 
Q 35.890625 20.75 35.890625 13.375 
L 35.890625 1.703125 
Q 35.890625 -9.078125 31.8125 -12.6875 
Q 27.734375 -16.3125 15.578125 -16.3125 
L 12.5 -16.3125 
z
" id="DejaVuSans-125"/>
      </defs>
      <use transform="translate(0 0.015625)" xlink:href="#DejaVuSans-86"/>
      <use transform="translate(68.408203 0.015625)" xlink:href="#DejaVuSans-111"/>
      <use transform="translate(129.589844 0.015625)" xlink:href="#DejaVuSans-108"/>
      <use transform="translate(157.373047 0.015625)" xlink:href="#DejaVuSans-116"/>
      <use transform="translate(196.582031 0.015625)" xlink:href="#DejaVuSans-97"/>
      <use transform="translate(257.861328 0.015625)" xlink:href="#DejaVuSans-103"/>
      <use transform="translate(321.337891 0.015625)" xlink:href="#DejaVuSans-101"/>
      <use transform="translate(382.861328 0.015625)" xlink:href="#DejaVuSans-32"/>
      <use transform="translate(414.648438 0.015625)" xlink:href="#DejaVuSans-Oblique-86"/>
      <use transform="translate(483.056641 -16.390625)scale(0.7)" xlink:href="#DejaVuSans-Oblique-107"/>
      <use transform="translate(526.328125 0.015625)" xlink:href="#DejaVuSans-44"/>
      <use transform="translate(577.597656 0.015625)" xlink:href="#DejaVuSans-Oblique-107"/>
      <use transform="translate(654.990234 0.015625)" xlink:href="#DejaVuSans-8712"/>
      <use transform="translate(761.582031 0.015625)" xlink:href="#DejaVuSans-123"/>
      <use transform="translate(825.205078 0.015625)" xlink:href="#DejaVuSans-49"/>
      <use transform="translate(888.828125 0.015625)" xlink:href="#DejaVuSans-44"/>
      <use transform="translate(940.097656 0.015625)" xlink:href="#DejaVuSans-50"/>
      <use transform="translate(1003.720703 0.015625)" xlink:href="#DejaVuSans-125"/>
     </g>
    </g>
   </g>
   <g id="line2d_44">
    <path clip-path="url(#p5804daf9c6)" d="M 80.050952 310.515556 
L 82.712707 307.302442 
L 85.776973 303.937701 
L 89.237255 300.526457 
L 89.834527 299.976111 
L 89.948139 297.943296 
L 99.894016 292.93648 
L 106.840549 289.895878 
L 115.06927 286.768478 
L 119.207975 285.379311 
L 128.615009 282.640188 
L 131.082003 282.010728 
L 131.085249 380.52505 
L 131.195614 380.129275 
L 133.863862 370.991856 
L 136.53211 362.633472 
L 139.125698 355.191969 
L 142.001693 347.658937 
L 144.806275 340.976549 
L 147.503737 335.111997 
L 150.480359 329.223109 
L 153.278448 324.194225 
L 156.391404 319.122286 
L 159.231692 314.930252 
L 161.76036 311.516348 
L 164.474053 308.157321 
L 167.466905 304.786472 
L 170.823314 301.382914 
L 172.326232 299.977096 
L 172.439844 297.943887 
L 177.607545 295.247227 
L 185.729146 291.426623 
L 193.402793 288.286612 
L 201.774339 285.355665 
L 211.074254 282.649055 
L 213.573708 282.010925 
L 213.576954 380.528685 
L 213.687319 380.132897 
L 216.355567 370.995167 
L 219.023815 362.636527 
L 221.617403 355.194826 
L 224.159056 348.500615 
L 226.931177 341.817735 
L 229.596179 335.94934 
L 232.098878 330.892573 
L 234.806078 325.876201 
L 237.302286 321.634019 
L 240.577544 316.575479 
L 243.580134 312.397041 
L 246.985234 308.135449 
L 249.961856 304.784108 
L 253.315019 301.3838 
L 254.821183 299.975027 
L 254.934795 297.942704 
L 260.09925 295.24772 
L 268.220851 291.427017 
L 275.894498 288.287006 
L 284.26929 285.354976 
L 288.583282 284.03172 
L 293.218632 282.740779 
L 296.065413 282.01122 
L 296.068659 380.53232 
L 296.179024 380.136518 
L 298.847272 370.998477 
L 301.544734 362.552093 
L 304.112355 355.188619 
L 306.985103 347.66406 
L 309.439112 341.782759 
L 312.09113 335.944611 
L 315.019061 330.070107 
L 317.778198 325.033932 
L 320.832725 319.971451 
L 323.624322 315.772816 
L 326.724294 311.544131 
L 330.210545 307.279781 
L 333.255334 303.937504 
L 336.715616 300.52626 
L 337.312888 299.975914 
L 337.4265 297.943197 
L 347.372377 292.936382 
L 354.31891 289.89578 
L 362.547631 286.76838 
L 366.68309 285.380296 
L 376.09337 282.640188 
L 378.560364 282.010629 
L 378.56361 380.510406 
L 378.673975 379.479305 
L 381.192905 356.903699 
L 381.306516 353.997974 
L 381.955725 349.576678 
L 384.88041 343.109562 
L 388.191375 336.433282 
L 391.268624 330.788829 
L 394.702938 325.068908 
L 397.806156 320.378743 
L 400.552309 316.573903 
L 403.509454 312.809751 
L 406.768482 309.027472 
L 410.404051 305.219577 
L 413.387165 302.388927 
L 416.649439 299.568523 
L 420.285008 296.732651 
L 424.388007 293.881212 
L 427.455518 291.966526 
L 432.642695 289.103265 
L 436.391876 287.2938 
L 440.767542 285.423744 
L 445.834616 283.543738 
L 450.625777 282.010925 
L 450.629023 380.527132 
L 450.739388 380.159303 
L 453.524494 371.279207 
L 456.319337 363.101947 
L 459.234284 355.291181 
L 462.20766 348.014505 
L 465.044702 341.666207 
L 467.706458 336.193971 
L 470.588945 330.75277 
L 473.227978 326.177483 
L 476.071512 321.646728 
L 479.20719 317.089766 
L 482.709671 312.494085 
L 485.751214 308.88629 
L 488.331819 306.079383 
L 491.986864 302.467055 
L 496.235935 298.748323 
L 499.654019 296.090777 
L 503.630422 293.331457 
L 508.191113 290.556176 
L 511.544276 288.750554 
L 515.299949 286.937641 
L 519.56525 285.117832 
L 524.499236 283.290338 
L 528.462655 282.010826 
L 528.465901 380.52662 
L 528.576267 380.158793 
L 531.361372 371.278744 
L 534.156216 363.101553 
L 537.071163 355.290787 
L 540.044539 348.014209 
L 542.881581 341.665813 
L 546.010767 335.278106 
L 548.932206 329.845476 
L 551.613438 325.271963 
L 554.508909 320.739434 
L 557.076529 317.044643 
L 560.540058 312.501967 
L 563.588093 308.886092 
L 566.957486 305.264898 
L 566.957486 305.264898 
" style="fill:none;stroke:#aa3863;stroke-linecap:square;stroke-opacity:0.75;stroke-width:1.5;"/>
   </g>
   <g id="line2d_45">
    <path clip-path="url(#p5804daf9c6)" d="M 80.050952 284.722264 
L 86.786492 282.793883 
L 89.834527 282.010925 
L 89.837773 380.529064 
L 89.948139 380.133274 
L 92.616386 370.995511 
L 95.284634 362.636822 
L 97.878223 355.195023 
L 100.754218 347.661794 
L 103.208226 341.78069 
L 105.856998 335.949537 
L 108.788175 330.068432 
L 111.544066 325.037972 
L 114.598593 319.975097 
L 117.393437 315.771535 
L 120.490162 311.547185 
L 123.223331 308.162445 
L 126.222675 304.784206 
L 129.575838 301.383899 
L 131.082003 299.975125 
L 131.195614 297.942704 
L 141.138245 292.937465 
L 148.088025 289.895484 
L 152.174794 288.279617 
L 160.523618 285.357045 
L 169.830025 282.648464 
L 172.326232 282.01122 
L 172.329478 380.532699 
L 172.439844 380.136896 
L 175.108091 370.998822 
L 177.805554 362.552388 
L 180.373174 355.188914 
L 183.245923 347.664258 
L 186.05375 340.973988 
L 188.751212 335.109731 
L 191.286372 330.057891 
L 194.039017 325.034129 
L 196.570931 320.801799 
L 199.307346 316.610356 
L 202.335905 312.394282 
L 205.013891 309.00294 
L 207.93533 305.63081 
L 211.191112 302.237596 
L 213.573708 299.976012 
L 213.687319 297.943296 
L 218.851774 295.248311 
L 226.976621 291.42613 
L 234.647022 288.287498 
L 238.730545 286.79567 
L 247.517585 283.978912 
L 254.821183 282.010629 
L 254.824429 380.524671 
L 254.934795 380.128898 
L 257.599796 371.002142 
L 260.27129 362.633177 
L 262.864879 355.191673 
L 265.737628 347.666819 
L 268.545455 340.976254 
L 271.242917 335.1118 
L 273.778077 330.059861 
L 276.530722 325.035903 
L 279.062636 320.803375 
L 281.799051 316.611834 
L 284.82761 312.395563 
L 288.232709 308.134169 
L 291.206085 304.786374 
L 294.562494 301.382815 
L 296.065413 299.976997 
L 296.179024 297.943788 
L 306.124902 292.936874 
L 313.074681 289.894893 
L 321.300155 286.768774 
L 325.438861 285.379606 
L 334.845895 282.640483 
L 337.312888 282.010925 
L 337.316134 380.528306 
L 337.4265 380.132519 
L 340.094747 370.994822 
L 342.762995 362.636133 
L 345.668204 354.342902 
L 348.570167 346.823368 
L 351.410455 340.135266 
L 354.140378 334.276427 
L 356.711244 329.224784 
L 359.509334 324.195801 
L 362.0802 319.969678 
L 364.871798 315.77124 
L 367.968523 311.54689 
L 370.701692 308.162248 
L 373.701036 304.784009 
L 377.054199 301.383702 
L 378.560364 299.974928 
L 378.673975 297.293441 
L 381.192905 282.025407 
L 381.196151 380.526703 
L 381.306516 379.514822 
L 381.971955 374.436036 
L 384.731092 365.908952 
L 387.314943 358.571685 
L 390.012405 351.526044 
L 392.59301 345.325826 
L 395.387853 339.158021 
L 398.017149 333.832682 
L 400.867175 328.53887 
L 404.028821 323.198064 
L 406.904816 318.781891 
L 410.095677 314.329461 
L 412.897012 310.773587 
L 415.964524 307.223919 
L 419.389099 303.64637 
L 423.261629 300.039953 
L 426.423276 297.404969 
L 429.99717 294.725944 
L 434.064462 292.022093 
L 438.751749 289.306517 
L 444.295992 286.570842 
L 450.625777 283.978321 
L 450.629023 380.527132 
L 450.739388 380.159303 
L 453.524494 371.279207 
L 456.319337 363.101947 
L 459.234284 355.291181 
L 462.20766 348.014505 
L 465.044702 341.666207 
L 467.706458 336.193971 
L 470.588945 330.75277 
L 473.227978 326.177483 
L 476.071512 321.646728 
L 479.20719 317.089766 
L 482.709671 312.494085 
L 485.751214 308.88629 
L 488.331819 306.079383 
L 491.986864 302.467055 
L 496.235935 298.748323 
L 499.654019 296.090777 
L 503.630422 293.331457 
L 508.191113 290.556176 
L 511.544276 288.750554 
L 515.299949 286.937641 
L 519.56525 285.117832 
L 524.499236 283.290338 
L 528.462655 282.010826 
L 528.465901 380.52662 
L 528.576267 380.158793 
L 531.361372 371.278744 
L 534.156216 363.101553 
L 537.071163 355.290787 
L 540.044539 348.014209 
L 542.881581 341.665813 
L 546.010767 335.278106 
L 548.932206 329.845476 
L 551.613438 325.271963 
L 554.508909 320.739434 
L 557.076529 317.044643 
L 560.540058 312.501967 
L 563.588093 308.886092 
L 566.957486 305.264898 
L 566.957486 305.264898 
" style="fill:none;stroke:#3b7d86;stroke-linecap:square;stroke-opacity:0.75;stroke-width:1.5;"/>
   </g>
   <g id="line2d_46">
    <path clip-path="url(#p5804daf9c6)" d="M 131.085249 282.010432 
L 131.085249 232.749176 
" style="fill:none;stroke:#aa3863;stroke-linecap:square;stroke-opacity:0.75;stroke-width:1.5;"/>
   </g>
   <g id="line2d_47">
    <path clip-path="url(#p5804daf9c6)" d="M 213.576954 282.010432 
L 213.576954 232.749176 
" style="fill:none;stroke:#aa3863;stroke-linecap:square;stroke-opacity:0.75;stroke-width:1.5;"/>
   </g>
   <g id="line2d_48">
    <path clip-path="url(#p5804daf9c6)" d="M 296.068659 282.010432 
L 296.068659 232.749176 
" style="fill:none;stroke:#aa3863;stroke-linecap:square;stroke-opacity:0.75;stroke-width:1.5;"/>
   </g>
   <g id="line2d_49">
    <path clip-path="url(#p5804daf9c6)" d="M 378.56361 282.010432 
L 378.56361 232.749176 
" style="fill:none;stroke:#aa3863;stroke-linecap:square;stroke-opacity:0.75;stroke-width:1.5;"/>
   </g>
   <g id="line2d_50">
    <path clip-path="url(#p5804daf9c6)" d="M 450.629023 282.010432 
L 450.629023 232.749176 
" style="fill:none;stroke:#aa3863;stroke-linecap:square;stroke-opacity:0.75;stroke-width:1.5;"/>
   </g>
   <g id="line2d_51">
    <path clip-path="url(#p5804daf9c6)" d="M 528.465901 282.010432 
L 528.465901 232.749176 
" style="fill:none;stroke:#aa3863;stroke-linecap:square;stroke-opacity:0.75;stroke-width:1.5;"/>
   </g>
   <g id="line2d_52">
    <path clip-path="url(#p5804daf9c6)" d="M 89.837773 282.010432 
L 89.837773 232.749176 
" style="fill:none;stroke:#3b7d86;stroke-linecap:square;stroke-opacity:0.75;stroke-width:1.5;"/>
   </g>
   <g id="line2d_53">
    <path clip-path="url(#p5804daf9c6)" d="M 172.329478 282.010432 
L 172.329478 232.749176 
" style="fill:none;stroke:#3b7d86;stroke-linecap:square;stroke-opacity:0.75;stroke-width:1.5;"/>
   </g>
   <g id="line2d_54">
    <path clip-path="url(#p5804daf9c6)" d="M 254.824429 282.010432 
L 254.824429 232.749176 
" style="fill:none;stroke:#3b7d86;stroke-linecap:square;stroke-opacity:0.75;stroke-width:1.5;"/>
   </g>
   <g id="line2d_55">
    <path clip-path="url(#p5804daf9c6)" d="M 337.316134 282.010432 
L 337.316134 232.749176 
" style="fill:none;stroke:#3b7d86;stroke-linecap:square;stroke-opacity:0.75;stroke-width:1.5;"/>
   </g>
   <g id="line2d_56">
    <path clip-path="url(#p5804daf9c6)" d="M 381.196151 282.010432 
L 381.196151 232.749176 
" style="fill:none;stroke:#3b7d86;stroke-linecap:square;stroke-opacity:0.75;stroke-width:1.5;"/>
   </g>
   <g id="line2d_57">
    <path clip-path="url(#p5804daf9c6)" d="M 450.629023 282.010432 
L 450.629023 232.749176 
" style="fill:none;stroke:#3b7d86;stroke-linecap:square;stroke-opacity:0.75;stroke-width:1.5;"/>
   </g>
   <g id="line2d_58">
    <path clip-path="url(#p5804daf9c6)" d="M 528.465901 282.010432 
L 528.465901 232.749176 
" style="fill:none;stroke:#3b7d86;stroke-linecap:square;stroke-opacity:0.75;stroke-width:1.5;"/>
   </g>
   <g id="patch_14">
    <path d="M 55.705625 387.921875 
L 55.705625 225.36 
" style="fill:none;stroke:#000000;stroke-linecap:square;stroke-linejoin:miter;stroke-width:0.8;"/>
   </g>
   <g id="patch_15">
    <path d="M 591.302812 387.921875 
L 591.302812 225.36 
" style="fill:none;stroke:#000000;stroke-linecap:square;stroke-linejoin:miter;stroke-width:0.8;"/>
   </g>
   <g id="patch_16">
    <path d="M 55.705625 387.921875 
L 591.302812 387.921875 
" style="fill:none;stroke:#000000;stroke-linecap:square;stroke-linejoin:miter;stroke-width:0.8;"/>
   </g>
   <g id="patch_17">
    <path d="M 55.705625 225.36 
L 591.302812 225.36 
" style="fill:none;stroke:#000000;stroke-linecap:square;stroke-linejoin:miter;stroke-width:0.8;"/>
   </g>
  </g>
  <g id="axes_4">
   <g id="patch_18">
    <path d="M 605.602812 387.921875 
L 1141.2 387.921875 
L 1141.2 225.36 
L 605.602812 225.36 
z
" style="fill:#ffffff;"/>
   </g>
   <g id="matplotlib.axis_7">
    <g id="xtick_25">
     <g id="line2d_59">
      <g>
       <use style="stroke:#000000;stroke-width:0.8;" x="662.408575" xlink:href="#mf3d45a719c" y="387.921875"/>
      </g>
     </g>
     <g id="text_40">
      <!-- 86 -->
      <g transform="translate(656.046075 402.520312)scale(0.1 -0.1)">
       <use xlink:href="#DejaVuSans-56"/>
       <use x="63.623047" xlink:href="#DejaVuSans-54"/>
      </g>
     </g>
    </g>
    <g id="xtick_26">
     <g id="line2d_60">
      <g>
       <use style="stroke:#000000;stroke-width:0.8;" x="727.329446" xlink:href="#mf3d45a719c" y="387.921875"/>
      </g>
     </g>
     <g id="text_41">
      <!-- 88 -->
      <g transform="translate(720.966946 402.520312)scale(0.1 -0.1)">
       <use xlink:href="#DejaVuSans-56"/>
       <use x="63.623047" xlink:href="#DejaVuSans-56"/>
      </g>
     </g>
    </g>
    <g id="xtick_27">
     <g id="line2d_61">
      <g>
       <use style="stroke:#000000;stroke-width:0.8;" x="792.250317" xlink:href="#mf3d45a719c" y="387.921875"/>
      </g>
     </g>
     <g id="text_42">
      <!-- 90 -->
      <g transform="translate(785.887817 402.520312)scale(0.1 -0.1)">
       <use xlink:href="#DejaVuSans-57"/>
       <use x="63.623047" xlink:href="#DejaVuSans-48"/>
      </g>
     </g>
    </g>
    <g id="xtick_28">
     <g id="line2d_62">
      <g>
       <use style="stroke:#000000;stroke-width:0.8;" x="857.171188" xlink:href="#mf3d45a719c" y="387.921875"/>
      </g>
     </g>
     <g id="text_43">
      <!-- 92 -->
      <g transform="translate(850.808688 402.520312)scale(0.1 -0.1)">
       <use xlink:href="#DejaVuSans-57"/>
       <use x="63.623047" xlink:href="#DejaVuSans-50"/>
      </g>
     </g>
    </g>
    <g id="xtick_29">
     <g id="line2d_63">
      <g>
       <use style="stroke:#000000;stroke-width:0.8;" x="922.09206" xlink:href="#mf3d45a719c" y="387.921875"/>
      </g>
     </g>
     <g id="text_44">
      <!-- 94 -->
      <g transform="translate(915.72956 402.520312)scale(0.1 -0.1)">
       <use xlink:href="#DejaVuSans-57"/>
       <use x="63.623047" xlink:href="#DejaVuSans-52"/>
      </g>
     </g>
    </g>
    <g id="xtick_30">
     <g id="line2d_64">
      <g>
       <use style="stroke:#000000;stroke-width:0.8;" x="987.012931" xlink:href="#mf3d45a719c" y="387.921875"/>
      </g>
     </g>
     <g id="text_45">
      <!-- 96 -->
      <g transform="translate(980.650431 402.520312)scale(0.1 -0.1)">
       <use xlink:href="#DejaVuSans-57"/>
       <use x="63.623047" xlink:href="#DejaVuSans-54"/>
      </g>
     </g>
    </g>
    <g id="xtick_31">
     <g id="line2d_65">
      <g>
       <use style="stroke:#000000;stroke-width:0.8;" x="1051.933802" xlink:href="#mf3d45a719c" y="387.921875"/>
      </g>
     </g>
     <g id="text_46">
      <!-- 98 -->
      <g transform="translate(1045.571302 402.520312)scale(0.1 -0.1)">
       <use xlink:href="#DejaVuSans-57"/>
       <use x="63.623047" xlink:href="#DejaVuSans-56"/>
      </g>
     </g>
    </g>
    <g id="xtick_32">
     <g id="line2d_66">
      <g>
       <use style="stroke:#000000;stroke-width:0.8;" x="1116.854673" xlink:href="#mf3d45a719c" y="387.921875"/>
      </g>
     </g>
     <g id="text_47">
      <!-- 100 -->
      <g transform="translate(1107.310923 402.520312)scale(0.1 -0.1)">
       <use xlink:href="#DejaVuSans-49"/>
       <use x="63.623047" xlink:href="#DejaVuSans-48"/>
       <use x="127.246094" xlink:href="#DejaVuSans-48"/>
      </g>
     </g>
    </g>
    <g id="text_48">
     <!-- Time ($10^{-2}$ seconds) -->
     <g transform="translate(811.421406 418.704375)scale(0.12 -0.12)">
      <use transform="translate(0 0.765625)" xlink:href="#DejaVuSans-84"/>
      <use transform="translate(61.083984 0.765625)" xlink:href="#DejaVuSans-105"/>
      <use transform="translate(88.867188 0.765625)" xlink:href="#DejaVuSans-109"/>
      <use transform="translate(186.279297 0.765625)" xlink:href="#DejaVuSans-101"/>
      <use transform="translate(247.802734 0.765625)" xlink:href="#DejaVuSans-32"/>
      <use transform="translate(279.589844 0.765625)" xlink:href="#DejaVuSans-40"/>
      <use transform="translate(318.603516 0.765625)" xlink:href="#DejaVuSans-49"/>
      <use transform="translate(382.226562 0.765625)" xlink:href="#DejaVuSans-48"/>
      <use transform="translate(446.806641 39.046875)scale(0.7)" xlink:href="#DejaVuSans-8722"/>
      <use transform="translate(505.458984 39.046875)scale(0.7)" xlink:href="#DejaVuSans-50"/>
      <use transform="translate(552.729492 0.765625)" xlink:href="#DejaVuSans-32"/>
      <use transform="translate(584.516602 0.765625)" xlink:href="#DejaVuSans-115"/>
      <use transform="translate(636.616211 0.765625)" xlink:href="#DejaVuSans-101"/>
      <use transform="translate(698.139648 0.765625)" xlink:href="#DejaVuSans-99"/>
      <use transform="translate(753.120117 0.765625)" xlink:href="#DejaVuSans-111"/>
      <use transform="translate(814.301758 0.765625)" xlink:href="#DejaVuSans-110"/>
      <use transform="translate(877.680664 0.765625)" xlink:href="#DejaVuSans-100"/>
      <use transform="translate(941.157227 0.765625)" xlink:href="#DejaVuSans-115"/>
      <use transform="translate(993.256836 0.765625)" xlink:href="#DejaVuSans-41"/>
     </g>
    </g>
   </g>
   <g id="matplotlib.axis_8">
    <g id="ytick_16">
     <g id="line2d_67">
      <g>
       <use style="stroke:#000000;stroke-width:0.8;" x="605.602812" xlink:href="#m59093c9aa9" y="380.532944"/>
      </g>
     </g>
    </g>
    <g id="ytick_17">
     <g id="line2d_68">
      <g>
       <use style="stroke:#000000;stroke-width:0.8;" x="605.602812" xlink:href="#m59093c9aa9" y="355.902316"/>
      </g>
     </g>
    </g>
    <g id="ytick_18">
     <g id="line2d_69">
      <g>
       <use style="stroke:#000000;stroke-width:0.8;" x="605.602812" xlink:href="#m59093c9aa9" y="331.271688"/>
      </g>
     </g>
    </g>
    <g id="ytick_19">
     <g id="line2d_70">
      <g>
       <use style="stroke:#000000;stroke-width:0.8;" x="605.602812" xlink:href="#m59093c9aa9" y="306.64106"/>
      </g>
     </g>
    </g>
    <g id="ytick_20">
     <g id="line2d_71">
      <g>
       <use style="stroke:#000000;stroke-width:0.8;" x="605.602812" xlink:href="#m59093c9aa9" y="282.010432"/>
      </g>
     </g>
    </g>
    <g id="ytick_21">
     <g id="line2d_72">
      <g>
       <use style="stroke:#000000;stroke-width:0.8;" x="605.602812" xlink:href="#m59093c9aa9" y="257.379804"/>
      </g>
     </g>
    </g>
    <g id="ytick_22">
     <g id="line2d_73">
      <g>
       <use style="stroke:#000000;stroke-width:0.8;" x="605.602812" xlink:href="#m59093c9aa9" y="232.749176"/>
      </g>
     </g>
    </g>
   </g>
   <g id="line2d_74">
    <path clip-path="url(#p8f23f7e710)" d="M 629.948139 310.68403 
L 632.405394 307.875251 
L 635.816986 304.311889 
L 638.722195 301.55917 
L 641.883841 298.830589 
L 645.402553 296.090481 
L 649.378956 293.331161 
L 653.939647 290.555979 
L 657.29281 288.750357 
L 661.048483 286.937444 
L 665.313784 285.117635 
L 670.24777 283.290239 
L 674.211189 282.010728 
L 674.214435 380.525164 
L 674.324801 380.157343 
L 677.10666 371.287325 
L 679.90475 363.100272 
L 682.819697 355.289703 
L 685.413286 348.905838 
L 688.656083 341.60936 
L 691.29187 336.192789 
L 694.174357 330.751686 
L 696.813391 326.176498 
L 699.656925 321.645841 
L 702.792603 317.088978 
L 705.548494 313.431823 
L 708.541346 309.796539 
L 711.855556 306.143324 
L 715.582014 302.4574 
L 719.818101 298.750491 
L 723.239431 296.090383 
L 725.949878 294.173135 
L 730.163242 291.493322 
L 733.399547 289.658538 
L 739.135306 286.824045 
L 743.157154 285.114975 
L 748.084649 283.290141 
L 752.048068 282.010629 
L 752.051314 380.524652 
L 752.161679 380.156832 
L 754.943539 371.286852 
L 757.741628 363.099878 
L 760.656575 355.289309 
L 763.250164 348.905543 
L 766.045008 342.574092 
L 768.674303 337.095255 
L 771.511345 331.660753 
L 774.111426 327.080442 
L 776.903023 322.554515 
L 779.97378 318.005632 
L 782.680981 314.337047 
L 785.60242 310.706788 
L 788.075905 307.878503 
L 790.643526 305.161843 
L 794.412182 301.544195 
L 797.557598 298.830294 
L 801.07631 296.090284 
L 803.786756 294.173036 
L 808.000121 291.493224 
L 811.236426 289.658538 
L 814.787598 287.844935 
L 818.780231 286.029461 
L 823.357153 284.205218 
L 828.709879 282.373783 
L 829.884946 282.010629 
L 829.888192 380.52414 
L 829.998558 380.156322 
L 832.780417 371.286389 
L 835.578507 363.099484 
L 838.149373 356.174731 
L 841.077304 348.928203 
L 843.881886 342.573698 
L 846.965627 336.192198 
L 849.848114 330.751095 
L 853.035729 325.27078 
L 855.9312 320.738252 
L 859.135045 316.172423 
L 862.718677 311.571915 
L 865.825141 307.974858 
L 869.334114 304.304993 
L 873.300779 300.607246 
L 876.5241 297.917975 
L 880.182391 295.172448 
L 884.337327 292.407316 
L 889.131733 289.626912 
L 894.786341 286.834193 
L 898.830912 285.114876 
L 903.758406 283.290042 
L 907.721825 282.010531 
L 907.725071 380.523628 
L 907.835436 380.15581 
L 910.620542 371.276005 
L 913.415385 363.098991 
L 916.330332 355.288521 
L 918.923921 348.904754 
L 922.166719 341.608374 
L 924.802506 336.191902 
L 927.684993 330.750799 
L 930.872607 325.270485 
L 933.768078 320.738055 
L 936.971923 316.172226 
L 940.555555 311.571718 
L 943.662019 307.974661 
L 947.170992 304.304894 
L 950.069709 301.558579 
L 953.231356 298.829998 
L 956.750067 296.089989 
L 960.72647 293.330767 
L 965.287161 290.555585 
L 968.640324 288.749963 
L 972.392751 286.938725 
L 976.661298 285.117438 
L 981.595284 283.290042 
L 984.753685 282.257921 
L 985.558703 282.010531 
L 985.561949 380.523116 
L 985.672315 380.1553 
L 988.45742 371.275532 
L 991.252264 363.098597 
L 994.167211 355.288127 
L 996.757554 348.912144 
L 999.555643 342.573107 
L 1002.181692 337.100871 
L 1005.021981 331.659867 
L 1008.154413 326.186251 
L 1011.647155 320.674705 
L 1014.805556 316.176463 
L 1017.61663 312.524824 
L 1020.684141 308.88491 
L 1024.092486 305.224109 
L 1027.932556 301.534934 
L 1031.068234 298.8299 
L 1034.586945 296.08989 
L 1038.563349 293.330669 
L 1043.12404 290.555487 
L 1046.477203 288.749963 
L 1050.232875 286.937149 
L 1054.498176 285.117339 
L 1059.432163 283.289944 
L 1063.395582 282.010432 
L 1063.398828 380.522603 
L 1063.509193 380.15479 
L 1066.294299 371.275069 
L 1069.089142 363.098203 
L 1071.660009 356.173548 
L 1074.58794 348.927119 
L 1077.392522 342.572713 
L 1080.476263 336.191213 
L 1083.355504 330.75612 
L 1086.546365 325.269992 
L 1089.441835 320.737562 
L 1092.64568 316.171832 
L 1095.453508 312.524627 
L 1098.521019 308.884713 
L 1101.929365 305.224011 
L 1104.756669 302.465774 
L 1109.002494 298.749899 
L 1112.423824 296.089792 
L 1116.400227 293.33057 
L 1116.854673 293.027909 
L 1116.854673 293.027909 
" style="fill:none;stroke:#aa3863;stroke-linecap:square;stroke-opacity:0.75;stroke-width:1.5;"/>
   </g>
   <g id="line2d_75">
    <path clip-path="url(#p8f23f7e710)" d="M 629.948139 310.68403 
L 632.405394 307.875251 
L 635.816986 304.311889 
L 638.722195 301.55917 
L 641.883841 298.830589 
L 645.402553 296.090481 
L 649.378956 293.331161 
L 653.939647 290.555979 
L 657.29281 288.750357 
L 661.048483 286.937444 
L 665.313784 285.117635 
L 670.24777 283.290239 
L 674.211189 282.010728 
L 674.214435 380.525164 
L 674.324801 380.157343 
L 677.10666 371.287325 
L 679.90475 363.100272 
L 682.819697 355.289703 
L 685.413286 348.905838 
L 688.656083 341.60936 
L 691.29187 336.192789 
L 694.174357 330.751686 
L 696.813391 326.176498 
L 699.656925 321.645841 
L 702.792603 317.088978 
L 705.548494 313.431823 
L 708.541346 309.796539 
L 711.855556 306.143324 
L 715.582014 302.4574 
L 719.818101 298.750491 
L 723.239431 296.090383 
L 725.949878 294.173135 
L 730.163242 291.493322 
L 733.399547 289.658538 
L 739.135306 286.824045 
L 743.157154 285.114975 
L 748.084649 283.290141 
L 752.048068 282.010629 
L 752.051314 380.524652 
L 752.161679 380.156832 
L 754.943539 371.286852 
L 757.741628 363.099878 
L 760.656575 355.289309 
L 763.250164 348.905543 
L 766.045008 342.574092 
L 768.674303 337.095255 
L 771.511345 331.660753 
L 774.111426 327.080442 
L 776.903023 322.554515 
L 779.97378 318.005632 
L 782.680981 314.337047 
L 785.60242 310.706788 
L 788.075905 307.878503 
L 790.643526 305.161843 
L 794.412182 301.544195 
L 797.557598 298.830294 
L 801.07631 296.090284 
L 803.786756 294.173036 
L 808.000121 291.493224 
L 811.236426 289.658538 
L 814.787598 287.844935 
L 818.780231 286.029461 
L 823.357153 284.205218 
L 828.709879 282.373783 
L 829.884946 282.010629 
L 829.888192 380.52414 
L 829.998558 380.156322 
L 832.780417 371.286389 
L 835.578507 363.099484 
L 838.149373 356.174731 
L 841.077304 348.928203 
L 843.881886 342.573698 
L 846.965627 336.192198 
L 849.848114 330.751095 
L 853.035729 325.27078 
L 855.9312 320.738252 
L 859.135045 316.172423 
L 862.718677 311.571915 
L 865.825141 307.974858 
L 869.334114 304.304993 
L 873.300779 300.607246 
L 876.5241 297.917975 
L 880.182391 295.172448 
L 884.337327 292.407316 
L 889.131733 289.626912 
L 894.786341 286.834193 
L 898.830912 285.114876 
L 903.758406 283.290042 
L 907.721825 282.010531 
L 907.725071 380.523628 
L 907.835436 380.15581 
L 910.620542 371.276005 
L 913.415385 363.098991 
L 916.330332 355.288521 
L 918.923921 348.904754 
L 922.166719 341.608374 
L 924.802506 336.191902 
L 927.684993 330.750799 
L 930.872607 325.270485 
L 933.768078 320.738055 
L 936.971923 316.172226 
L 940.555555 311.571718 
L 943.662019 307.974661 
L 947.170992 304.304894 
L 950.069709 301.558579 
L 953.231356 298.829998 
L 956.750067 296.089989 
L 960.72647 293.330767 
L 965.287161 290.555585 
L 968.640324 288.749963 
L 972.392751 286.938725 
L 976.661298 285.117438 
L 981.595284 283.290042 
L 984.753685 282.257921 
L 985.558703 282.010531 
L 985.561949 380.523116 
L 985.672315 380.1553 
L 988.45742 371.275532 
L 991.252264 363.098597 
L 994.167211 355.288127 
L 996.757554 348.912144 
L 999.555643 342.573107 
L 1002.181692 337.100871 
L 1005.021981 331.659867 
L 1008.154413 326.186251 
L 1011.647155 320.674705 
L 1014.805556 316.176463 
L 1017.61663 312.524824 
L 1020.684141 308.88491 
L 1024.092486 305.224109 
L 1027.932556 301.534934 
L 1031.068234 298.8299 
L 1034.586945 296.08989 
L 1038.563349 293.330669 
L 1043.12404 290.555487 
L 1046.477203 288.749963 
L 1050.232875 286.937149 
L 1054.498176 285.117339 
L 1059.432163 283.289944 
L 1063.395582 282.010432 
L 1063.398828 380.522603 
L 1063.509193 380.15479 
L 1066.294299 371.275069 
L 1069.089142 363.098203 
L 1071.660009 356.173548 
L 1074.58794 348.927119 
L 1077.392522 342.572713 
L 1080.476263 336.191213 
L 1083.355504 330.75612 
L 1086.546365 325.269992 
L 1089.441835 320.737562 
L 1092.64568 316.171832 
L 1095.453508 312.524627 
L 1098.521019 308.884713 
L 1101.929365 305.224011 
L 1104.756669 302.465774 
L 1109.002494 298.749899 
L 1112.423824 296.089792 
L 1116.400227 293.33057 
L 1116.854673 293.027909 
L 1116.854673 293.027909 
" style="fill:none;stroke:#3b7d86;stroke-linecap:square;stroke-opacity:0.75;stroke-width:1.5;"/>
   </g>
   <g id="line2d_76">
    <path clip-path="url(#p8f23f7e710)" d="M 674.214435 282.010432 
L 674.214435 232.749176 
" style="fill:none;stroke:#aa3863;stroke-linecap:square;stroke-opacity:0.75;stroke-width:1.5;"/>
   </g>
   <g id="line2d_77">
    <path clip-path="url(#p8f23f7e710)" d="M 752.051314 282.010432 
L 752.051314 232.749176 
" style="fill:none;stroke:#aa3863;stroke-linecap:square;stroke-opacity:0.75;stroke-width:1.5;"/>
   </g>
   <g id="line2d_78">
    <path clip-path="url(#p8f23f7e710)" d="M 829.888192 282.010432 
L 829.888192 232.749176 
" style="fill:none;stroke:#aa3863;stroke-linecap:square;stroke-opacity:0.75;stroke-width:1.5;"/>
   </g>
   <g id="line2d_79">
    <path clip-path="url(#p8f23f7e710)" d="M 907.725071 282.010432 
L 907.725071 232.749176 
" style="fill:none;stroke:#aa3863;stroke-linecap:square;stroke-opacity:0.75;stroke-width:1.5;"/>
   </g>
   <g id="line2d_80">
    <path clip-path="url(#p8f23f7e710)" d="M 985.561949 282.010432 
L 985.561949 232.749176 
" style="fill:none;stroke:#aa3863;stroke-linecap:square;stroke-opacity:0.75;stroke-width:1.5;"/>
   </g>
   <g id="line2d_81">
    <path clip-path="url(#p8f23f7e710)" d="M 1063.398828 282.010432 
L 1063.398828 232.749176 
" style="fill:none;stroke:#aa3863;stroke-linecap:square;stroke-opacity:0.75;stroke-width:1.5;"/>
   </g>
   <g id="line2d_82">
    <path clip-path="url(#p8f23f7e710)" d="M 674.214435 282.010432 
L 674.214435 232.749176 
" style="fill:none;stroke:#3b7d86;stroke-linecap:square;stroke-opacity:0.75;stroke-width:1.5;"/>
   </g>
   <g id="line2d_83">
    <path clip-path="url(#p8f23f7e710)" d="M 752.051314 282.010432 
L 752.051314 232.749176 
" style="fill:none;stroke:#3b7d86;stroke-linecap:square;stroke-opacity:0.75;stroke-width:1.5;"/>
   </g>
   <g id="line2d_84">
    <path clip-path="url(#p8f23f7e710)" d="M 829.888192 282.010432 
L 829.888192 232.749176 
" style="fill:none;stroke:#3b7d86;stroke-linecap:square;stroke-opacity:0.75;stroke-width:1.5;"/>
   </g>
   <g id="line2d_85">
    <path clip-path="url(#p8f23f7e710)" d="M 907.725071 282.010432 
L 907.725071 232.749176 
" style="fill:none;stroke:#3b7d86;stroke-linecap:square;stroke-opacity:0.75;stroke-width:1.5;"/>
   </g>
   <g id="line2d_86">
    <path clip-path="url(#p8f23f7e710)" d="M 985.561949 282.010432 
L 985.561949 232.749176 
" style="fill:none;stroke:#3b7d86;stroke-linecap:square;stroke-opacity:0.75;stroke-width:1.5;"/>
   </g>
   <g id="line2d_87">
    <path clip-path="url(#p8f23f7e710)" d="M 1063.398828 282.010432 
L 1063.398828 232.749176 
" style="fill:none;stroke:#3b7d86;stroke-linecap:square;stroke-opacity:0.75;stroke-width:1.5;"/>
   </g>
   <g id="patch_19">
    <path d="M 605.602812 387.921875 
L 605.602812 225.36 
" style="fill:none;stroke:#000000;stroke-linecap:square;stroke-linejoin:miter;stroke-width:0.8;"/>
   </g>
   <g id="patch_20">
    <path d="M 1141.2 387.921875 
L 1141.2 225.36 
" style="fill:none;stroke:#000000;stroke-linecap:square;stroke-linejoin:miter;stroke-width:0.8;"/>
   </g>
   <g id="patch_21">
    <path d="M 605.602812 387.921875 
L 1141.2 387.921875 
" style="fill:none;stroke:#000000;stroke-linecap:square;stroke-linejoin:miter;stroke-width:0.8;"/>
   </g>
   <g id="patch_22">
    <path d="M 605.602812 225.36 
L 1141.2 225.36 
" style="fill:none;stroke:#000000;stroke-linecap:square;stroke-linejoin:miter;stroke-width:0.8;"/>
   </g>
   <g id="legend_2">
    <g id="patch_23">
     <path d="M 1090.6 270.844344 
L 1134.2 270.844344 
Q 1136.2 270.844344 1136.2 268.844344 
L 1136.2 240.488094 
Q 1136.2 238.488094 1134.2 238.488094 
L 1090.6 238.488094 
Q 1088.6 238.488094 1088.6 240.488094 
L 1088.6 268.844344 
Q 1088.6 270.844344 1090.6 270.844344 
z
" style="fill:#ffffff;opacity:0.8;stroke:#cccccc;stroke-linejoin:miter;"/>
    </g>
    <g id="line2d_88">
     <path d="M 1092.6 246.586531 
L 1112.6 246.586531 
" style="fill:none;stroke:#aa3863;stroke-linecap:square;stroke-opacity:0.75;stroke-width:1.5;"/>
    </g>
    <g id="line2d_89"/>
    <g id="text_49">
     <!-- $V_1$ -->
     <g transform="translate(1120.6 250.086531)scale(0.1 -0.1)">
      <use transform="translate(0 0.09375)" xlink:href="#DejaVuSans-Oblique-86"/>
      <use transform="translate(68.408203 -16.3125)scale(0.7)" xlink:href="#DejaVuSans-49"/>
     </g>
    </g>
    <g id="line2d_90">
     <path d="M 1092.6 261.264656 
L 1112.6 261.264656 
" style="fill:none;stroke:#3b7d86;stroke-linecap:square;stroke-opacity:0.75;stroke-width:1.5;"/>
    </g>
    <g id="line2d_91"/>
    <g id="text_50">
     <!-- $V_2$ -->
     <g transform="translate(1120.6 264.764656)scale(0.1 -0.1)">
      <use transform="translate(0 0.09375)" xlink:href="#DejaVuSans-Oblique-86"/>
      <use transform="translate(68.408203 -16.3125)scale(0.7)" xlink:href="#DejaVuSans-50"/>
     </g>
    </g>
   </g>
  </g>
  <g id="text_51">
   <!-- From A/S regime to A/S regime, $\gamma=0.1, \beta=0.2$ -->
   <g transform="translate(411.5 19.42)scale(0.14 -0.14)">
    <defs>
     <path d="M 9.8125 72.90625 
L 51.703125 72.90625 
L 51.703125 64.59375 
L 19.671875 64.59375 
L 19.671875 43.109375 
L 48.578125 43.109375 
L 48.578125 34.8125 
L 19.671875 34.8125 
L 19.671875 0 
L 9.8125 0 
z
" id="DejaVuSans-70"/>
     <path d="M 34.1875 63.1875 
L 20.796875 26.90625 
L 47.609375 26.90625 
z
M 28.609375 72.90625 
L 39.796875 72.90625 
L 67.578125 0 
L 57.328125 0 
L 50.6875 18.703125 
L 17.828125 18.703125 
L 11.1875 0 
L 0.78125 0 
z
" id="DejaVuSans-65"/>
     <path d="M 25.390625 72.90625 
L 33.6875 72.90625 
L 8.296875 -9.28125 
L 0 -9.28125 
z
" id="DejaVuSans-47"/>
     <path d="M 53.515625 70.515625 
L 53.515625 60.890625 
Q 47.90625 63.578125 42.921875 64.890625 
Q 37.9375 66.21875 33.296875 66.21875 
Q 25.25 66.21875 20.875 63.09375 
Q 16.5 59.96875 16.5 54.203125 
Q 16.5 49.359375 19.40625 46.890625 
Q 22.3125 44.4375 30.421875 42.921875 
L 36.375 41.703125 
Q 47.40625 39.59375 52.65625 34.296875 
Q 57.90625 29 57.90625 20.125 
Q 57.90625 9.515625 50.796875 4.046875 
Q 43.703125 -1.421875 29.984375 -1.421875 
Q 24.8125 -1.421875 18.96875 -0.25 
Q 13.140625 0.921875 6.890625 3.21875 
L 6.890625 13.375 
Q 12.890625 10.015625 18.65625 8.296875 
Q 24.421875 6.59375 29.984375 6.59375 
Q 38.421875 6.59375 43.015625 9.90625 
Q 47.609375 13.234375 47.609375 19.390625 
Q 47.609375 24.75 44.3125 27.78125 
Q 41.015625 30.8125 33.5 32.328125 
L 27.484375 33.5 
Q 16.453125 35.6875 11.515625 40.375 
Q 6.59375 45.0625 6.59375 53.421875 
Q 6.59375 63.09375 13.40625 68.65625 
Q 20.21875 74.21875 32.171875 74.21875 
Q 37.3125 74.21875 42.625 73.28125 
Q 47.953125 72.359375 53.515625 70.515625 
z
" id="DejaVuSans-83"/>
     <path d="M 23.296875 46.09375 
L 28.71875 12.3125 
L 54 54.6875 
L 63.53125 54.6875 
L 30.8125 0 
L 26.765625 -20.796875 
L 17.78125 -20.796875 
L 21.828125 0 
L 15.4375 40.828125 
Q 14.453125 46.96875 9.8125 46.96875 
L 7.421875 46.96875 
L 8.890625 54.6875 
L 12.3125 54.6875 
Q 21.921875 54.6875 23.296875 46.09375 
z
" id="DejaVuSans-Oblique-947"/>
     <path d="M 10.59375 45.40625 
L 73.1875 45.40625 
L 73.1875 37.203125 
L 10.59375 37.203125 
z
M 10.59375 25.484375 
L 73.1875 25.484375 
L 73.1875 17.1875 
L 10.59375 17.1875 
z
" id="DejaVuSans-61"/>
     <path d="M 13.625 3.375 
L 8.9375 -20.796875 
L -0.09375 -20.796875 
L 14.5 54.34375 
Q 18.84375 76.609375 39.65625 76.609375 
Q 60.75 76.609375 57.171875 57.8125 
Q 54.734375 44.4375 45.21875 39.546875 
Q 58.015625 35.15625 55.515625 22.125 
Q 51.125 -1.078125 27.484375 -1.03125 
Q 17.140625 -0.984375 13.625 3.375 
z
M 15.921875 15.09375 
Q 19.671875 6.59375 29.296875 6.640625 
Q 43.359375 6.640625 46.34375 21.96875 
Q 49.03125 35.75 26.171875 34.671875 
L 27.78125 42.96875 
Q 45.453125 42.671875 48.53125 58.59375 
Q 50.640625 69.34375 39.203125 69.28125 
Q 26.421875 69.28125 23.484375 54.046875 
z
" id="DejaVuSans-Oblique-946"/>
    </defs>
    <use transform="translate(0 0.390625)" xlink:href="#DejaVuSans-70"/>
    <use transform="translate(57.519531 0.390625)" xlink:href="#DejaVuSans-114"/>
    <use transform="translate(98.632812 0.390625)" xlink:href="#DejaVuSans-111"/>
    <use transform="translate(159.814453 0.390625)" xlink:href="#DejaVuSans-109"/>
    <use transform="translate(257.226562 0.390625)" xlink:href="#DejaVuSans-32"/>
    <use transform="translate(289.013672 0.390625)" xlink:href="#DejaVuSans-65"/>
    <use transform="translate(357.421875 0.390625)" xlink:href="#DejaVuSans-47"/>
    <use transform="translate(391.113281 0.390625)" xlink:href="#DejaVuSans-83"/>
    <use transform="translate(454.589844 0.390625)" xlink:href="#DejaVuSans-32"/>
    <use transform="translate(486.376953 0.390625)" xlink:href="#DejaVuSans-114"/>
    <use transform="translate(527.490234 0.390625)" xlink:href="#DejaVuSans-101"/>
    <use transform="translate(589.013672 0.390625)" xlink:href="#DejaVuSans-103"/>
    <use transform="translate(652.490234 0.390625)" xlink:href="#DejaVuSans-105"/>
    <use transform="translate(680.273438 0.390625)" xlink:href="#DejaVuSans-109"/>
    <use transform="translate(777.685547 0.390625)" xlink:href="#DejaVuSans-101"/>
    <use transform="translate(839.208984 0.390625)" xlink:href="#DejaVuSans-32"/>
    <use transform="translate(870.996094 0.390625)" xlink:href="#DejaVuSans-116"/>
    <use transform="translate(910.205078 0.390625)" xlink:href="#DejaVuSans-111"/>
    <use transform="translate(971.386719 0.390625)" xlink:href="#DejaVuSans-32"/>
    <use transform="translate(1003.173828 0.390625)" xlink:href="#DejaVuSans-65"/>
    <use transform="translate(1071.582031 0.390625)" xlink:href="#DejaVuSans-47"/>
    <use transform="translate(1105.273438 0.390625)" xlink:href="#DejaVuSans-83"/>
    <use transform="translate(1168.75 0.390625)" xlink:href="#DejaVuSans-32"/>
    <use transform="translate(1200.537109 0.390625)" xlink:href="#DejaVuSans-114"/>
    <use transform="translate(1241.650391 0.390625)" xlink:href="#DejaVuSans-101"/>
    <use transform="translate(1303.173828 0.390625)" xlink:href="#DejaVuSans-103"/>
    <use transform="translate(1366.650391 0.390625)" xlink:href="#DejaVuSans-105"/>
    <use transform="translate(1394.433594 0.390625)" xlink:href="#DejaVuSans-109"/>
    <use transform="translate(1491.845703 0.390625)" xlink:href="#DejaVuSans-101"/>
    <use transform="translate(1553.369141 0.390625)" xlink:href="#DejaVuSans-44"/>
    <use transform="translate(1585.15625 0.390625)" xlink:href="#DejaVuSans-32"/>
    <use transform="translate(1616.943359 0.390625)" xlink:href="#DejaVuSans-Oblique-947"/>
    <use transform="translate(1695.605469 0.390625)" xlink:href="#DejaVuSans-61"/>
    <use transform="translate(1798.876953 0.390625)" xlink:href="#DejaVuSans-48"/>
    <use transform="translate(1862.5 0.390625)" xlink:href="#DejaVuSans-46"/>
    <use transform="translate(1894.287109 0.390625)" xlink:href="#DejaVuSans-49"/>
    <use transform="translate(1957.910156 0.390625)" xlink:href="#DejaVuSans-44"/>
    <use transform="translate(2009.179688 0.390625)" xlink:href="#DejaVuSans-Oblique-946"/>
    <use transform="translate(2092.480469 0.390625)" xlink:href="#DejaVuSans-61"/>
    <use transform="translate(2195.751953 0.390625)" xlink:href="#DejaVuSans-48"/>
    <use transform="translate(2259.375 0.390625)" xlink:href="#DejaVuSans-46"/>
    <use transform="translate(2285.662109 0.390625)" xlink:href="#DejaVuSans-50"/>
   </g>
  </g>
 </g>
 <defs>
  <clipPath id="p71b9d2b3aa">
   <rect height="162.561875" width="535.597187" x="55.705625" y="35.32"/>
  </clipPath>
  <clipPath id="pe3170294c3">
   <rect height="162.561875" width="535.597188" x="605.602812" y="35.32"/>
  </clipPath>
  <clipPath id="p5804daf9c6">
   <rect height="162.561875" width="535.597187" x="55.705625" y="225.36"/>
  </clipPath>
  <clipPath id="p8f23f7e710">
   <rect height="162.561875" width="535.597188" x="605.602812" y="225.36"/>
  </clipPath>
 </defs>
</svg>
