<?xml version="1.0" encoding="utf-8" standalone="no"?>
<!DOCTYPE svg PUBLIC "-//W3C//DTD SVG 1.1//EN"
  "http://www.w3.org/Graphics/SVG/1.1/DTD/svg11.dtd">
<!-- Created with matplotlib (https://matplotlib.org/) -->
<svg height="432pt" version="1.1" viewBox="0 0 576 432" width="576pt" xmlns="http://www.w3.org/2000/svg" xmlns:xlink="http://www.w3.org/1999/xlink">
 <metadata>
  <rdf:RDF xmlns:cc="http://creativecommons.org/ns#" xmlns:dc="http://purl.org/dc/elements/1.1/" xmlns:rdf="http://www.w3.org/1999/02/22-rdf-syntax-ns#">
   <cc:Work>
    <dc:type rdf:resource="http://purl.org/dc/dcmitype/StillImage"/>
    <dc:date>2021-04-27T22:51:44.808339</dc:date>
    <dc:format>image/svg+xml</dc:format>
    <dc:creator>
     <cc:Agent>
      <dc:title>Matplotlib v3.3.3, https://matplotlib.org/</dc:title>
     </cc:Agent>
    </dc:creator>
   </cc:Work>
  </rdf:RDF>
 </metadata>
 <defs>
  <style type="text/css">*{stroke-linecap:butt;stroke-linejoin:round;}</style>
 </defs>
 <g id="figure_1">
  <g id="patch_1">
   <path d="M 0 432 
L 576 432 
L 576 0 
L 0 0 
z
" style="fill:#ffffff;"/>
  </g>
  <g id="axes_1">
   <g id="patch_2">
    <path d="M 72 384.48 
L 518.4 384.48 
L 518.4 51.84 
L 72 51.84 
z
" style="fill:#ffffff;"/>
   </g>
   <g id="matplotlib.axis_1">
    <g id="xtick_1">
     <g id="line2d_1">
      <defs>
       <path d="M 0 0 
L 0 3.5 
" id="md19d6bcafc" style="stroke:#000000;stroke-width:0.8;"/>
      </defs>
      <g>
       <use style="stroke:#000000;stroke-width:0.8;" x="72" xlink:href="#md19d6bcafc" y="384.48"/>
      </g>
     </g>
     <g id="text_1">
      <!-- 1.0 -->
      <g transform="translate(64.048438 399.078438)scale(0.1 -0.1)">
       <defs>
        <path d="M 12.40625 8.296875 
L 28.515625 8.296875 
L 28.515625 63.921875 
L 10.984375 60.40625 
L 10.984375 69.390625 
L 28.421875 72.90625 
L 38.28125 72.90625 
L 38.28125 8.296875 
L 54.390625 8.296875 
L 54.390625 0 
L 12.40625 0 
z
" id="DejaVuSans-49"/>
        <path d="M 10.6875 12.40625 
L 21 12.40625 
L 21 0 
L 10.6875 0 
z
" id="DejaVuSans-46"/>
        <path d="M 31.78125 66.40625 
Q 24.171875 66.40625 20.328125 58.90625 
Q 16.5 51.421875 16.5 36.375 
Q 16.5 21.390625 20.328125 13.890625 
Q 24.171875 6.390625 31.78125 6.390625 
Q 39.453125 6.390625 43.28125 13.890625 
Q 47.125 21.390625 47.125 36.375 
Q 47.125 51.421875 43.28125 58.90625 
Q 39.453125 66.40625 31.78125 66.40625 
z
M 31.78125 74.21875 
Q 44.046875 74.21875 50.515625 64.515625 
Q 56.984375 54.828125 56.984375 36.375 
Q 56.984375 17.96875 50.515625 8.265625 
Q 44.046875 -1.421875 31.78125 -1.421875 
Q 19.53125 -1.421875 13.0625 8.265625 
Q 6.59375 17.96875 6.59375 36.375 
Q 6.59375 54.828125 13.0625 64.515625 
Q 19.53125 74.21875 31.78125 74.21875 
z
" id="DejaVuSans-48"/>
       </defs>
       <use xlink:href="#DejaVuSans-49"/>
       <use x="63.623047" xlink:href="#DejaVuSans-46"/>
       <use x="95.410156" xlink:href="#DejaVuSans-48"/>
      </g>
     </g>
    </g>
    <g id="xtick_2">
     <g id="line2d_2">
      <g>
       <use style="stroke:#000000;stroke-width:0.8;" x="161.28" xlink:href="#md19d6bcafc" y="384.48"/>
      </g>
     </g>
     <g id="text_2">
      <!-- 1.2 -->
      <g transform="translate(153.328438 399.078438)scale(0.1 -0.1)">
       <defs>
        <path d="M 19.1875 8.296875 
L 53.609375 8.296875 
L 53.609375 0 
L 7.328125 0 
L 7.328125 8.296875 
Q 12.9375 14.109375 22.625 23.890625 
Q 32.328125 33.6875 34.8125 36.53125 
Q 39.546875 41.84375 41.421875 45.53125 
Q 43.3125 49.21875 43.3125 52.78125 
Q 43.3125 58.59375 39.234375 62.25 
Q 35.15625 65.921875 28.609375 65.921875 
Q 23.96875 65.921875 18.8125 64.3125 
Q 13.671875 62.703125 7.8125 59.421875 
L 7.8125 69.390625 
Q 13.765625 71.78125 18.9375 73 
Q 24.125 74.21875 28.421875 74.21875 
Q 39.75 74.21875 46.484375 68.546875 
Q 53.21875 62.890625 53.21875 53.421875 
Q 53.21875 48.921875 51.53125 44.890625 
Q 49.859375 40.875 45.40625 35.40625 
Q 44.1875 33.984375 37.640625 27.21875 
Q 31.109375 20.453125 19.1875 8.296875 
z
" id="DejaVuSans-50"/>
       </defs>
       <use xlink:href="#DejaVuSans-49"/>
       <use x="63.623047" xlink:href="#DejaVuSans-46"/>
       <use x="95.410156" xlink:href="#DejaVuSans-50"/>
      </g>
     </g>
    </g>
    <g id="xtick_3">
     <g id="line2d_3">
      <g>
       <use style="stroke:#000000;stroke-width:0.8;" x="250.56" xlink:href="#md19d6bcafc" y="384.48"/>
      </g>
     </g>
     <g id="text_3">
      <!-- 1.4 -->
      <g transform="translate(242.608438 399.078438)scale(0.1 -0.1)">
       <defs>
        <path d="M 37.796875 64.3125 
L 12.890625 25.390625 
L 37.796875 25.390625 
z
M 35.203125 72.90625 
L 47.609375 72.90625 
L 47.609375 25.390625 
L 58.015625 25.390625 
L 58.015625 17.1875 
L 47.609375 17.1875 
L 47.609375 0 
L 37.796875 0 
L 37.796875 17.1875 
L 4.890625 17.1875 
L 4.890625 26.703125 
z
" id="DejaVuSans-52"/>
       </defs>
       <use xlink:href="#DejaVuSans-49"/>
       <use x="63.623047" xlink:href="#DejaVuSans-46"/>
       <use x="95.410156" xlink:href="#DejaVuSans-52"/>
      </g>
     </g>
    </g>
    <g id="xtick_4">
     <g id="line2d_4">
      <g>
       <use style="stroke:#000000;stroke-width:0.8;" x="339.84" xlink:href="#md19d6bcafc" y="384.48"/>
      </g>
     </g>
     <g id="text_4">
      <!-- 1.6 -->
      <g transform="translate(331.888438 399.078438)scale(0.1 -0.1)">
       <defs>
        <path d="M 33.015625 40.375 
Q 26.375 40.375 22.484375 35.828125 
Q 18.609375 31.296875 18.609375 23.390625 
Q 18.609375 15.53125 22.484375 10.953125 
Q 26.375 6.390625 33.015625 6.390625 
Q 39.65625 6.390625 43.53125 10.953125 
Q 47.40625 15.53125 47.40625 23.390625 
Q 47.40625 31.296875 43.53125 35.828125 
Q 39.65625 40.375 33.015625 40.375 
z
M 52.59375 71.296875 
L 52.59375 62.3125 
Q 48.875 64.0625 45.09375 64.984375 
Q 41.3125 65.921875 37.59375 65.921875 
Q 27.828125 65.921875 22.671875 59.328125 
Q 17.53125 52.734375 16.796875 39.40625 
Q 19.671875 43.65625 24.015625 45.921875 
Q 28.375 48.1875 33.59375 48.1875 
Q 44.578125 48.1875 50.953125 41.515625 
Q 57.328125 34.859375 57.328125 23.390625 
Q 57.328125 12.15625 50.6875 5.359375 
Q 44.046875 -1.421875 33.015625 -1.421875 
Q 20.359375 -1.421875 13.671875 8.265625 
Q 6.984375 17.96875 6.984375 36.375 
Q 6.984375 53.65625 15.1875 63.9375 
Q 23.390625 74.21875 37.203125 74.21875 
Q 40.921875 74.21875 44.703125 73.484375 
Q 48.484375 72.75 52.59375 71.296875 
z
" id="DejaVuSans-54"/>
       </defs>
       <use xlink:href="#DejaVuSans-49"/>
       <use x="63.623047" xlink:href="#DejaVuSans-46"/>
       <use x="95.410156" xlink:href="#DejaVuSans-54"/>
      </g>
     </g>
    </g>
    <g id="xtick_5">
     <g id="line2d_5">
      <g>
       <use style="stroke:#000000;stroke-width:0.8;" x="429.12" xlink:href="#md19d6bcafc" y="384.48"/>
      </g>
     </g>
     <g id="text_5">
      <!-- 1.8 -->
      <g transform="translate(421.168437 399.078438)scale(0.1 -0.1)">
       <defs>
        <path d="M 31.78125 34.625 
Q 24.75 34.625 20.71875 30.859375 
Q 16.703125 27.09375 16.703125 20.515625 
Q 16.703125 13.921875 20.71875 10.15625 
Q 24.75 6.390625 31.78125 6.390625 
Q 38.8125 6.390625 42.859375 10.171875 
Q 46.921875 13.96875 46.921875 20.515625 
Q 46.921875 27.09375 42.890625 30.859375 
Q 38.875 34.625 31.78125 34.625 
z
M 21.921875 38.8125 
Q 15.578125 40.375 12.03125 44.71875 
Q 8.5 49.078125 8.5 55.328125 
Q 8.5 64.0625 14.71875 69.140625 
Q 20.953125 74.21875 31.78125 74.21875 
Q 42.671875 74.21875 48.875 69.140625 
Q 55.078125 64.0625 55.078125 55.328125 
Q 55.078125 49.078125 51.53125 44.71875 
Q 48 40.375 41.703125 38.8125 
Q 48.828125 37.15625 52.796875 32.3125 
Q 56.78125 27.484375 56.78125 20.515625 
Q 56.78125 9.90625 50.3125 4.234375 
Q 43.84375 -1.421875 31.78125 -1.421875 
Q 19.734375 -1.421875 13.25 4.234375 
Q 6.78125 9.90625 6.78125 20.515625 
Q 6.78125 27.484375 10.78125 32.3125 
Q 14.796875 37.15625 21.921875 38.8125 
z
M 18.3125 54.390625 
Q 18.3125 48.734375 21.84375 45.5625 
Q 25.390625 42.390625 31.78125 42.390625 
Q 38.140625 42.390625 41.71875 45.5625 
Q 45.3125 48.734375 45.3125 54.390625 
Q 45.3125 60.0625 41.71875 63.234375 
Q 38.140625 66.40625 31.78125 66.40625 
Q 25.390625 66.40625 21.84375 63.234375 
Q 18.3125 60.0625 18.3125 54.390625 
z
" id="DejaVuSans-56"/>
       </defs>
       <use xlink:href="#DejaVuSans-49"/>
       <use x="63.623047" xlink:href="#DejaVuSans-46"/>
       <use x="95.410156" xlink:href="#DejaVuSans-56"/>
      </g>
     </g>
    </g>
    <g id="xtick_6">
     <g id="line2d_6">
      <g>
       <use style="stroke:#000000;stroke-width:0.8;" x="518.4" xlink:href="#md19d6bcafc" y="384.48"/>
      </g>
     </g>
     <g id="text_6">
      <!-- 2.0 -->
      <g transform="translate(510.448437 399.078438)scale(0.1 -0.1)">
       <use xlink:href="#DejaVuSans-50"/>
       <use x="63.623047" xlink:href="#DejaVuSans-46"/>
       <use x="95.410156" xlink:href="#DejaVuSans-48"/>
      </g>
     </g>
    </g>
    <g id="text_7">
     <!-- Current $I$ -->
     <g transform="translate(272.0475 413.136484)scale(0.105 -0.105)">
      <defs>
       <path d="M 64.40625 67.28125 
L 64.40625 56.890625 
Q 59.421875 61.53125 53.78125 63.8125 
Q 48.140625 66.109375 41.796875 66.109375 
Q 29.296875 66.109375 22.65625 58.46875 
Q 16.015625 50.828125 16.015625 36.375 
Q 16.015625 21.96875 22.65625 14.328125 
Q 29.296875 6.6875 41.796875 6.6875 
Q 48.140625 6.6875 53.78125 8.984375 
Q 59.421875 11.28125 64.40625 15.921875 
L 64.40625 5.609375 
Q 59.234375 2.09375 53.4375 0.328125 
Q 47.65625 -1.421875 41.21875 -1.421875 
Q 24.65625 -1.421875 15.125 8.703125 
Q 5.609375 18.84375 5.609375 36.375 
Q 5.609375 53.953125 15.125 64.078125 
Q 24.65625 74.21875 41.21875 74.21875 
Q 47.75 74.21875 53.53125 72.484375 
Q 59.328125 70.75 64.40625 67.28125 
z
" id="DejaVuSans-67"/>
       <path d="M 8.5 21.578125 
L 8.5 54.6875 
L 17.484375 54.6875 
L 17.484375 21.921875 
Q 17.484375 14.15625 20.5 10.265625 
Q 23.53125 6.390625 29.59375 6.390625 
Q 36.859375 6.390625 41.078125 11.03125 
Q 45.3125 15.671875 45.3125 23.6875 
L 45.3125 54.6875 
L 54.296875 54.6875 
L 54.296875 0 
L 45.3125 0 
L 45.3125 8.40625 
Q 42.046875 3.421875 37.71875 1 
Q 33.40625 -1.421875 27.6875 -1.421875 
Q 18.265625 -1.421875 13.375 4.4375 
Q 8.5 10.296875 8.5 21.578125 
z
M 31.109375 56 
z
" id="DejaVuSans-117"/>
       <path d="M 41.109375 46.296875 
Q 39.59375 47.171875 37.8125 47.578125 
Q 36.03125 48 33.890625 48 
Q 26.265625 48 22.1875 43.046875 
Q 18.109375 38.09375 18.109375 28.8125 
L 18.109375 0 
L 9.078125 0 
L 9.078125 54.6875 
L 18.109375 54.6875 
L 18.109375 46.1875 
Q 20.953125 51.171875 25.484375 53.578125 
Q 30.03125 56 36.53125 56 
Q 37.453125 56 38.578125 55.875 
Q 39.703125 55.765625 41.0625 55.515625 
z
" id="DejaVuSans-114"/>
       <path d="M 56.203125 29.59375 
L 56.203125 25.203125 
L 14.890625 25.203125 
Q 15.484375 15.921875 20.484375 11.0625 
Q 25.484375 6.203125 34.421875 6.203125 
Q 39.59375 6.203125 44.453125 7.46875 
Q 49.3125 8.734375 54.109375 11.28125 
L 54.109375 2.78125 
Q 49.265625 0.734375 44.1875 -0.34375 
Q 39.109375 -1.421875 33.890625 -1.421875 
Q 20.796875 -1.421875 13.15625 6.1875 
Q 5.515625 13.8125 5.515625 26.8125 
Q 5.515625 40.234375 12.765625 48.109375 
Q 20.015625 56 32.328125 56 
Q 43.359375 56 49.78125 48.890625 
Q 56.203125 41.796875 56.203125 29.59375 
z
M 47.21875 32.234375 
Q 47.125 39.59375 43.09375 43.984375 
Q 39.0625 48.390625 32.421875 48.390625 
Q 24.90625 48.390625 20.390625 44.140625 
Q 15.875 39.890625 15.1875 32.171875 
z
" id="DejaVuSans-101"/>
       <path d="M 54.890625 33.015625 
L 54.890625 0 
L 45.90625 0 
L 45.90625 32.71875 
Q 45.90625 40.484375 42.875 44.328125 
Q 39.84375 48.1875 33.796875 48.1875 
Q 26.515625 48.1875 22.3125 43.546875 
Q 18.109375 38.921875 18.109375 30.90625 
L 18.109375 0 
L 9.078125 0 
L 9.078125 54.6875 
L 18.109375 54.6875 
L 18.109375 46.1875 
Q 21.34375 51.125 25.703125 53.5625 
Q 30.078125 56 35.796875 56 
Q 45.21875 56 50.046875 50.171875 
Q 54.890625 44.34375 54.890625 33.015625 
z
" id="DejaVuSans-110"/>
       <path d="M 18.3125 70.21875 
L 18.3125 54.6875 
L 36.8125 54.6875 
L 36.8125 47.703125 
L 18.3125 47.703125 
L 18.3125 18.015625 
Q 18.3125 11.328125 20.140625 9.421875 
Q 21.96875 7.515625 27.59375 7.515625 
L 36.8125 7.515625 
L 36.8125 0 
L 27.59375 0 
Q 17.1875 0 13.234375 3.875 
Q 9.28125 7.765625 9.28125 18.015625 
L 9.28125 47.703125 
L 2.6875 47.703125 
L 2.6875 54.6875 
L 9.28125 54.6875 
L 9.28125 70.21875 
z
" id="DejaVuSans-116"/>
       <path id="DejaVuSans-32"/>
       <path d="M 16.890625 72.90625 
L 26.8125 72.90625 
L 12.59375 0 
L 2.6875 0 
z
" id="DejaVuSans-Oblique-73"/>
      </defs>
      <use transform="translate(0 0.78125)" xlink:href="#DejaVuSans-67"/>
      <use transform="translate(69.824219 0.78125)" xlink:href="#DejaVuSans-117"/>
      <use transform="translate(133.203125 0.78125)" xlink:href="#DejaVuSans-114"/>
      <use transform="translate(174.316406 0.78125)" xlink:href="#DejaVuSans-114"/>
      <use transform="translate(215.429688 0.78125)" xlink:href="#DejaVuSans-101"/>
      <use transform="translate(276.953125 0.78125)" xlink:href="#DejaVuSans-110"/>
      <use transform="translate(340.332031 0.78125)" xlink:href="#DejaVuSans-116"/>
      <use transform="translate(379.541016 0.78125)" xlink:href="#DejaVuSans-32"/>
      <use transform="translate(411.328125 0.78125)" xlink:href="#DejaVuSans-Oblique-73"/>
     </g>
    </g>
   </g>
   <g id="matplotlib.axis_2">
    <g id="ytick_1">
     <g id="line2d_7">
      <defs>
       <path d="M 0 0 
L -3.5 0 
" id="m973544b919" style="stroke:#000000;stroke-width:0.8;"/>
      </defs>
      <g>
       <use style="stroke:#000000;stroke-width:0.8;" x="72" xlink:href="#m973544b919" y="369.36"/>
      </g>
     </g>
     <g id="text_8">
      <!-- 0.0 -->
      <g transform="translate(49.096875 373.159219)scale(0.1 -0.1)">
       <use xlink:href="#DejaVuSans-48"/>
       <use x="63.623047" xlink:href="#DejaVuSans-46"/>
       <use x="95.410156" xlink:href="#DejaVuSans-48"/>
      </g>
     </g>
    </g>
    <g id="ytick_2">
     <g id="line2d_8">
      <g>
       <use style="stroke:#000000;stroke-width:0.8;" x="72" xlink:href="#m973544b919" y="308.88"/>
      </g>
     </g>
     <g id="text_9">
      <!-- 0.2 -->
      <g transform="translate(49.096875 312.679219)scale(0.1 -0.1)">
       <use xlink:href="#DejaVuSans-48"/>
       <use x="63.623047" xlink:href="#DejaVuSans-46"/>
       <use x="95.410156" xlink:href="#DejaVuSans-50"/>
      </g>
     </g>
    </g>
    <g id="ytick_3">
     <g id="line2d_9">
      <g>
       <use style="stroke:#000000;stroke-width:0.8;" x="72" xlink:href="#m973544b919" y="248.4"/>
      </g>
     </g>
     <g id="text_10">
      <!-- 0.4 -->
      <g transform="translate(49.096875 252.199219)scale(0.1 -0.1)">
       <use xlink:href="#DejaVuSans-48"/>
       <use x="63.623047" xlink:href="#DejaVuSans-46"/>
       <use x="95.410156" xlink:href="#DejaVuSans-52"/>
      </g>
     </g>
    </g>
    <g id="ytick_4">
     <g id="line2d_10">
      <g>
       <use style="stroke:#000000;stroke-width:0.8;" x="72" xlink:href="#m973544b919" y="187.92"/>
      </g>
     </g>
     <g id="text_11">
      <!-- 0.6 -->
      <g transform="translate(49.096875 191.719219)scale(0.1 -0.1)">
       <use xlink:href="#DejaVuSans-48"/>
       <use x="63.623047" xlink:href="#DejaVuSans-46"/>
       <use x="95.410156" xlink:href="#DejaVuSans-54"/>
      </g>
     </g>
    </g>
    <g id="ytick_5">
     <g id="line2d_11">
      <g>
       <use style="stroke:#000000;stroke-width:0.8;" x="72" xlink:href="#m973544b919" y="127.44"/>
      </g>
     </g>
     <g id="text_12">
      <!-- 0.8 -->
      <g transform="translate(49.096875 131.239219)scale(0.1 -0.1)">
       <use xlink:href="#DejaVuSans-48"/>
       <use x="63.623047" xlink:href="#DejaVuSans-46"/>
       <use x="95.410156" xlink:href="#DejaVuSans-56"/>
      </g>
     </g>
    </g>
    <g id="ytick_6">
     <g id="line2d_12">
      <g>
       <use style="stroke:#000000;stroke-width:0.8;" x="72" xlink:href="#m973544b919" y="66.96"/>
      </g>
     </g>
     <g id="text_13">
      <!-- 1.0 -->
      <g transform="translate(49.096875 70.759219)scale(0.1 -0.1)">
       <use xlink:href="#DejaVuSans-49"/>
       <use x="63.623047" xlink:href="#DejaVuSans-46"/>
       <use x="95.410156" xlink:href="#DejaVuSans-48"/>
      </g>
     </g>
    </g>
    <g id="text_14">
     <!-- Phase Difference $\phi$ -->
     <g transform="translate(42.891875 267.93)rotate(-90)scale(0.105 -0.105)">
      <defs>
       <path d="M 19.671875 64.796875 
L 19.671875 37.40625 
L 32.078125 37.40625 
Q 38.96875 37.40625 42.71875 40.96875 
Q 46.484375 44.53125 46.484375 51.125 
Q 46.484375 57.671875 42.71875 61.234375 
Q 38.96875 64.796875 32.078125 64.796875 
z
M 9.8125 72.90625 
L 32.078125 72.90625 
Q 44.34375 72.90625 50.609375 67.359375 
Q 56.890625 61.8125 56.890625 51.125 
Q 56.890625 40.328125 50.609375 34.8125 
Q 44.34375 29.296875 32.078125 29.296875 
L 19.671875 29.296875 
L 19.671875 0 
L 9.8125 0 
z
" id="DejaVuSans-80"/>
       <path d="M 54.890625 33.015625 
L 54.890625 0 
L 45.90625 0 
L 45.90625 32.71875 
Q 45.90625 40.484375 42.875 44.328125 
Q 39.84375 48.1875 33.796875 48.1875 
Q 26.515625 48.1875 22.3125 43.546875 
Q 18.109375 38.921875 18.109375 30.90625 
L 18.109375 0 
L 9.078125 0 
L 9.078125 75.984375 
L 18.109375 75.984375 
L 18.109375 46.1875 
Q 21.34375 51.125 25.703125 53.5625 
Q 30.078125 56 35.796875 56 
Q 45.21875 56 50.046875 50.171875 
Q 54.890625 44.34375 54.890625 33.015625 
z
" id="DejaVuSans-104"/>
       <path d="M 34.28125 27.484375 
Q 23.390625 27.484375 19.1875 25 
Q 14.984375 22.515625 14.984375 16.5 
Q 14.984375 11.71875 18.140625 8.90625 
Q 21.296875 6.109375 26.703125 6.109375 
Q 34.1875 6.109375 38.703125 11.40625 
Q 43.21875 16.703125 43.21875 25.484375 
L 43.21875 27.484375 
z
M 52.203125 31.203125 
L 52.203125 0 
L 43.21875 0 
L 43.21875 8.296875 
Q 40.140625 3.328125 35.546875 0.953125 
Q 30.953125 -1.421875 24.3125 -1.421875 
Q 15.921875 -1.421875 10.953125 3.296875 
Q 6 8.015625 6 15.921875 
Q 6 25.140625 12.171875 29.828125 
Q 18.359375 34.515625 30.609375 34.515625 
L 43.21875 34.515625 
L 43.21875 35.40625 
Q 43.21875 41.609375 39.140625 45 
Q 35.0625 48.390625 27.6875 48.390625 
Q 23 48.390625 18.546875 47.265625 
Q 14.109375 46.140625 10.015625 43.890625 
L 10.015625 52.203125 
Q 14.9375 54.109375 19.578125 55.046875 
Q 24.21875 56 28.609375 56 
Q 40.484375 56 46.34375 49.84375 
Q 52.203125 43.703125 52.203125 31.203125 
z
" id="DejaVuSans-97"/>
       <path d="M 44.28125 53.078125 
L 44.28125 44.578125 
Q 40.484375 46.53125 36.375 47.5 
Q 32.28125 48.484375 27.875 48.484375 
Q 21.1875 48.484375 17.84375 46.4375 
Q 14.5 44.390625 14.5 40.28125 
Q 14.5 37.15625 16.890625 35.375 
Q 19.28125 33.59375 26.515625 31.984375 
L 29.59375 31.296875 
Q 39.15625 29.25 43.1875 25.515625 
Q 47.21875 21.78125 47.21875 15.09375 
Q 47.21875 7.46875 41.1875 3.015625 
Q 35.15625 -1.421875 24.609375 -1.421875 
Q 20.21875 -1.421875 15.453125 -0.5625 
Q 10.6875 0.296875 5.421875 2 
L 5.421875 11.28125 
Q 10.40625 8.6875 15.234375 7.390625 
Q 20.0625 6.109375 24.8125 6.109375 
Q 31.15625 6.109375 34.5625 8.28125 
Q 37.984375 10.453125 37.984375 14.40625 
Q 37.984375 18.0625 35.515625 20.015625 
Q 33.0625 21.96875 24.703125 23.78125 
L 21.578125 24.515625 
Q 13.234375 26.265625 9.515625 29.90625 
Q 5.8125 33.546875 5.8125 39.890625 
Q 5.8125 47.609375 11.28125 51.796875 
Q 16.75 56 26.8125 56 
Q 31.78125 56 36.171875 55.265625 
Q 40.578125 54.546875 44.28125 53.078125 
z
" id="DejaVuSans-115"/>
       <path d="M 19.671875 64.796875 
L 19.671875 8.109375 
L 31.59375 8.109375 
Q 46.6875 8.109375 53.6875 14.9375 
Q 60.6875 21.78125 60.6875 36.53125 
Q 60.6875 51.171875 53.6875 57.984375 
Q 46.6875 64.796875 31.59375 64.796875 
z
M 9.8125 72.90625 
L 30.078125 72.90625 
Q 51.265625 72.90625 61.171875 64.09375 
Q 71.09375 55.28125 71.09375 36.53125 
Q 71.09375 17.671875 61.125 8.828125 
Q 51.171875 0 30.078125 0 
L 9.8125 0 
z
" id="DejaVuSans-68"/>
       <path d="M 9.421875 54.6875 
L 18.40625 54.6875 
L 18.40625 0 
L 9.421875 0 
z
M 9.421875 75.984375 
L 18.40625 75.984375 
L 18.40625 64.59375 
L 9.421875 64.59375 
z
" id="DejaVuSans-105"/>
       <path d="M 37.109375 75.984375 
L 37.109375 68.5 
L 28.515625 68.5 
Q 23.6875 68.5 21.796875 66.546875 
Q 19.921875 64.59375 19.921875 59.515625 
L 19.921875 54.6875 
L 34.71875 54.6875 
L 34.71875 47.703125 
L 19.921875 47.703125 
L 19.921875 0 
L 10.890625 0 
L 10.890625 47.703125 
L 2.296875 47.703125 
L 2.296875 54.6875 
L 10.890625 54.6875 
L 10.890625 58.5 
Q 10.890625 67.625 15.140625 71.796875 
Q 19.390625 75.984375 28.609375 75.984375 
z
" id="DejaVuSans-102"/>
       <path d="M 48.78125 52.59375 
L 48.78125 44.1875 
Q 44.96875 46.296875 41.140625 47.34375 
Q 37.3125 48.390625 33.40625 48.390625 
Q 24.65625 48.390625 19.8125 42.84375 
Q 14.984375 37.3125 14.984375 27.296875 
Q 14.984375 17.28125 19.8125 11.734375 
Q 24.65625 6.203125 33.40625 6.203125 
Q 37.3125 6.203125 41.140625 7.25 
Q 44.96875 8.296875 48.78125 10.40625 
L 48.78125 2.09375 
Q 45.015625 0.34375 40.984375 -0.53125 
Q 36.96875 -1.421875 32.421875 -1.421875 
Q 20.0625 -1.421875 12.78125 6.34375 
Q 5.515625 14.109375 5.515625 27.296875 
Q 5.515625 40.671875 12.859375 48.328125 
Q 20.21875 56 33.015625 56 
Q 37.15625 56 41.109375 55.140625 
Q 45.0625 54.296875 48.78125 52.59375 
z
" id="DejaVuSans-99"/>
       <path d="M 46.734375 75.984375 
L 42.78125 55.8125 
Q 52.546875 55.8125 57.5625 48.34375 
Q 62.75 40.71875 60.15625 27.296875 
Q 57.515625 13.875 49.359375 6.25 
Q 41.453125 -1.21875 31.6875 -1.21875 
L 27.875 -20.796875 
L 18.953125 -20.796875 
L 22.75 -1.21875 
Q 13.03125 -1.21875 7.953125 6.25 
Q 2.78125 13.875 5.421875 27.296875 
Q 8.015625 40.71875 16.15625 48.34375 
Q 24.125 55.8125 33.84375 55.8125 
L 37.796875 75.984375 
z
M 33.25 6.78125 
Q 38.765625 6.78125 43.5 11.8125 
Q 48.6875 17.4375 50.6875 27.296875 
Q 52.640625 37.0625 49.515625 42.78125 
Q 46.734375 47.796875 41.21875 47.796875 
z
M 24.3125 6.78125 
L 32.28125 47.796875 
Q 26.8125 47.796875 22.078125 42.78125 
Q 16.75 37.0625 14.890625 27.296875 
Q 13.03125 17.4375 16.0625 11.8125 
Q 18.796875 6.78125 24.3125 6.78125 
z
" id="DejaVuSans-Oblique-981"/>
      </defs>
      <use transform="translate(0 0.015625)" xlink:href="#DejaVuSans-80"/>
      <use transform="translate(60.302734 0.015625)" xlink:href="#DejaVuSans-104"/>
      <use transform="translate(123.681641 0.015625)" xlink:href="#DejaVuSans-97"/>
      <use transform="translate(184.960938 0.015625)" xlink:href="#DejaVuSans-115"/>
      <use transform="translate(237.060547 0.015625)" xlink:href="#DejaVuSans-101"/>
      <use transform="translate(298.583984 0.015625)" xlink:href="#DejaVuSans-32"/>
      <use transform="translate(330.371094 0.015625)" xlink:href="#DejaVuSans-68"/>
      <use transform="translate(407.373047 0.015625)" xlink:href="#DejaVuSans-105"/>
      <use transform="translate(435.15625 0.015625)" xlink:href="#DejaVuSans-102"/>
      <use transform="translate(470.361328 0.015625)" xlink:href="#DejaVuSans-102"/>
      <use transform="translate(505.566406 0.015625)" xlink:href="#DejaVuSans-101"/>
      <use transform="translate(567.089844 0.015625)" xlink:href="#DejaVuSans-114"/>
      <use transform="translate(608.203125 0.015625)" xlink:href="#DejaVuSans-101"/>
      <use transform="translate(669.726562 0.015625)" xlink:href="#DejaVuSans-110"/>
      <use transform="translate(733.105469 0.015625)" xlink:href="#DejaVuSans-99"/>
      <use transform="translate(788.085938 0.015625)" xlink:href="#DejaVuSans-101"/>
      <use transform="translate(849.609375 0.015625)" xlink:href="#DejaVuSans-32"/>
      <use transform="translate(881.396484 0.015625)" xlink:href="#DejaVuSans-Oblique-981"/>
     </g>
    </g>
   </g>
   <g id="line2d_13">
    <path clip-path="url(#pfd02de5b47)" d="M 450.895392 218.16 
L 450.806112 220.880693 
L 450.493632 223.897133 
L 449.89992 227.198736 
L 449.136576 230.177678 
L 448.051824 233.422128 
L 446.989392 236.046355 
L 445.328784 239.496437 
L 443.748528 242.323877 
L 441.623664 245.655115 
L 439.2756 248.915592 
L 436.713264 252.101678 
L 433.71792 255.468298 
L 430.253856 258.993677 
L 426.847824 262.17432 
L 422.415072 265.968835 
L 417.750192 269.633016 
L 413.80848 272.51761 
L 408.469536 276.168485 
L 402.60384 279.891331 
L 396.55512 283.473562 
L 390.341232 286.923038 
L 383.618448 290.42725 
L 376.02072 294.146165 
L 367.891776 297.879293 
L 359.990496 301.295808 
L 350.812512 305.036496 
L 339.531984 309.337834 
L 328.867488 313.142328 
L 318.064608 316.767197 
L 306.73944 320.348218 
L 294.481296 323.997278 
L 281.691936 327.576485 
L 267.956208 331.186838 
L 255.38112 334.300954 
L 238.0608 338.314709 
L 221.90112 341.801139 
L 204.353136 345.328332 
L 187.57296 348.47296 
L 171.154368 351.353532 
L 152.06184 354.481527 
L 132.469344 357.47695 
L 105.828192 361.294024 
L 83.566224 364.526076 
L 77.093424 365.679611 
L 74.151648 366.397977 
L 72.977616 366.832254 
L 72.325872 367.245408 
L 72.049104 367.482652 
L 72.049104 367.482652 
" style="fill:none;stroke:#aa3863;stroke-dasharray:5.55,2.4;stroke-dashoffset:0;stroke-width:1.5;"/>
   </g>
   <g id="line2d_14">
    <path clip-path="url(#pfd02de5b47)" d="M 450.895392 218.16 
L 450.806112 215.439307 
L 450.493632 212.422867 
L 449.89992 209.121264 
L 449.136576 206.142322 
L 448.051824 202.897872 
L 446.989392 200.273645 
L 445.328784 196.823563 
L 443.748528 193.996123 
L 441.623664 190.664885 
L 439.2756 187.404408 
L 436.713264 184.218322 
L 433.71792 180.851702 
L 430.253856 177.326323 
L 426.847824 174.14568 
L 422.415072 170.351165 
L 417.750192 166.686984 
L 413.80848 163.80239 
L 408.469536 160.151515 
L 402.60384 156.428669 
L 396.55512 152.846438 
L 390.341232 149.396962 
L 383.618448 145.89275 
L 376.02072 142.173835 
L 367.891776 138.440707 
L 359.990496 135.024192 
L 350.812512 131.283504 
L 339.531984 126.982166 
L 328.867488 123.177672 
L 318.064608 119.552803 
L 306.73944 115.971782 
L 294.481296 112.322722 
L 281.691936 108.743515 
L 267.956208 105.133162 
L 255.38112 102.019046 
L 238.0608 98.005291 
L 221.90112 94.518922 
L 204.353136 90.991728 
L 187.57296 87.84707 
L 171.154368 84.966408 
L 152.06184 81.838382 
L 132.469344 78.84311 
L 107.573616 75.271464 
L 83.566224 71.793864 
L 77.093424 70.64051 
L 74.151648 69.922008 
L 72.977616 69.487762 
L 72.008928 68.856955 
L 72.008928 68.856955 
" style="fill:none;stroke:#aa3863;stroke-dasharray:5.55,2.4;stroke-dashoffset:0;stroke-width:1.5;"/>
   </g>
   <g id="line2d_15">
    <path clip-path="url(#pfd02de5b47)" d="M 292.593024 218.16 
L 292.593024 218.4624 
L 292.58856 218.7648 
L 292.579632 219.3696 
L 292.539456 220.578898 
L 292.396608 222.996586 
L 292.079664 226.013026 
L 291.610944 229.020394 
L 290.994912 232.015363 
L 290.231568 234.99491 
L 289.325376 237.956011 
L 288.2808 240.895642 
L 287.093376 243.811382 
L 285.776496 246.700814 
L 284.33016 249.561518 
L 282.758832 252.39168 
L 281.062512 255.189182 
L 279.250128 257.953118 
L 277.326144 260.681674 
L 275.295024 263.374848 
L 273.156768 266.030525 
L 270.91584 268.648402 
L 268.585632 271.227571 
L 266.157216 273.767429 
L 263.648448 276.267974 
L 261.0504 278.728603 
L 258.376464 281.150222 
L 255.62664 283.531925 
L 252.800928 285.874013 
L 249.908256 288.177091 
L 246.948624 290.441462 
L 243.926496 292.667126 
L 240.846336 294.85499 
L 237.708144 297.005054 
L 234.51192 299.117923 
L 231.266592 301.193899 
L 227.97216 303.23389 
L 224.628624 305.237894 
L 221.235984 307.206821 
L 217.807632 309.140971 
L 214.330176 311.04095 
L 210.821472 312.907666 
L 207.268128 314.741117 
L 203.683536 316.542211 
L 200.063232 318.311251 
L 196.407216 320.049144 
L 192.724416 321.756494 
L 189.010368 323.433605 
L 185.265072 325.08108 
L 181.492992 326.699827 
L 177.694128 328.289846 
L 173.872944 329.852347 
L 170.02944 331.387632 
L 166.159152 332.896306 
L 162.266544 334.37867 
L 158.35608 335.835936 
L 154.423296 337.268707 
L 150.472656 338.677286 
L 146.50416 340.062369 
L 142.522272 341.425014 
L 138.518064 342.765916 
L 134.504928 344.085952 
L 130.473936 345.386091 
L 126.429552 346.66742 
L 122.371776 347.93124 
L 118.305072 349.178973 
L 114.22944 350.412402 
L 110.149344 351.633645 
L 106.055856 352.845452 
L 101.962368 354.051302 
L 97.86888 355.256004 
L 93.779856 356.466329 
L 89.69976 357.692471 
L 85.63752 358.950878 
L 81.624384 360.271489 
L 77.700528 361.718322 
L 74.071296 363.475508 
L 72.651744 364.644253 
L 72.406224 364.98397 
L 72.062496 365.500801 
" style="fill:none;stroke:#d97020;stroke-dasharray:5.55,2.4;stroke-dashoffset:0;stroke-width:1.5;"/>
   </g>
   <g id="line2d_16">
    <path clip-path="url(#pfd02de5b47)" d="M 292.593024 218.16 
L 292.593024 217.8576 
L 292.58856 217.5552 
L 292.579632 216.9504 
L 292.539456 215.741102 
L 292.396608 213.323414 
L 292.079664 210.306974 
L 291.610944 207.299606 
L 290.994912 204.304637 
L 290.231568 201.32509 
L 289.325376 198.363989 
L 288.2808 195.424358 
L 287.093376 192.508618 
L 285.776496 189.619186 
L 284.33016 186.758482 
L 282.758832 183.92832 
L 281.062512 181.130818 
L 279.250128 178.366882 
L 277.326144 175.638326 
L 275.295024 172.945152 
L 273.156768 170.289475 
L 270.91584 167.671598 
L 268.585632 165.092429 
L 266.157216 162.552571 
L 263.648448 160.052026 
L 261.0504 157.590792 
L 258.376464 155.169173 
L 255.622176 152.787168 
L 252.800928 150.444475 
L 249.908256 148.140792 
L 246.948624 145.876118 
L 243.926496 143.64985 
L 240.841872 141.461986 
L 237.70368 139.311619 
L 234.507456 137.19875 
L 231.262128 135.122774 
L 227.963232 133.082784 
L 224.619696 131.078779 
L 221.23152 129.110155 
L 217.798704 127.176005 
L 214.325712 125.276026 
L 210.812544 123.40931 
L 207.263664 121.576162 
L 203.674608 119.775067 
L 200.054304 118.005725 
L 196.402752 116.267832 
L 192.715488 114.560784 
L 189.00144 112.883674 
L 185.260608 111.236198 
L 181.488528 109.617754 
L 177.689664 108.027432 
L 173.86848 106.465234 
L 170.020512 104.929949 
L 166.154688 103.421275 
L 162.26208 101.93891 
L 158.351616 100.481645 
L 154.418832 99.049176 
L 150.468192 97.640597 
L 146.499696 96.255302 
L 142.513344 94.892688 
L 138.5136 93.551846 
L 134.496 92.23187 
L 130.465008 90.931853 
L 126.420624 89.650584 
L 122.367312 88.386854 
L 118.300608 87.139152 
L 114.224976 85.905662 
L 110.140416 84.684269 
L 106.051392 83.472552 
L 101.957904 82.266883 
L 97.864416 81.062122 
L 93.770928 79.851614 
L 89.690832 78.625685 
L 85.633056 77.367096 
L 81.615456 76.046213 
L 77.696064 74.598926 
L 74.062368 72.841075 
L 72.629424 71.679557 
L 72.321408 71.312443 
L 72.02232 70.948958 
" style="fill:none;stroke:#d97020;stroke-dasharray:5.55,2.4;stroke-dashoffset:0;stroke-width:1.5;"/>
   </g>
   <g id="line2d_17">
    <path clip-path="url(#pfd02de5b47)" d="M 225.726768 218.16 
L 225.62856 222.090293 
L 225.262512 226.619338 
L 224.628624 231.134774 
L 223.726896 235.629346 
L 222.825168 239.20583 
L 221.360976 243.941414 
L 219.615552 248.632546 
L 217.588896 253.272269 
L 215.745264 256.999954 
L 213.571296 260.968046 
L 210.669696 265.717843 
L 207.10296 270.930614 
L 203.848704 275.237395 
L 200.598912 279.203674 
L 196.697376 283.612061 
L 192.57264 287.926402 
L 187.97472 292.39043 
L 182.881296 296.984794 
L 176.984352 301.921171 
L 172.020384 305.808523 
L 165.668112 310.477882 
L 159.40512 314.789501 
L 153.284976 318.766061 
L 146.334528 323.028994 
L 138.87072 327.351499 
L 130.531968 331.908062 
L 120.943296 336.851698 
L 109.34136 342.497264 
L 93.891456 349.693235 
L 85.115232 353.857252 
L 80.151264 356.425929 
L 77.120208 358.212387 
L 74.959632 359.742077 
L 73.633824 360.956788 
L 72.80352 362.026679 
L 72.370512 362.886039 
L 72.071424 364.078554 
L 72.035712 364.379956 
L 72.035712 364.379956 
" style="fill:none;stroke:#ef9f07;stroke-dasharray:5.55,2.4;stroke-dashoffset:0;stroke-width:1.5;"/>
   </g>
   <g id="line2d_18">
    <path clip-path="url(#pfd02de5b47)" d="M 225.726768 218.16 
L 225.62856 214.229707 
L 225.262512 209.700662 
L 224.628624 205.185226 
L 223.726896 200.690654 
L 222.825168 197.11417 
L 221.360976 192.378586 
L 219.615552 187.687454 
L 217.588896 183.047731 
L 215.745264 179.320046 
L 213.571296 175.351954 
L 210.669696 170.602157 
L 207.10296 165.389386 
L 203.848704 161.082605 
L 200.598912 157.116326 
L 196.697376 152.707939 
L 192.57264 148.393598 
L 187.97472 143.92957 
L 182.881296 139.335206 
L 176.984352 134.398829 
L 172.020384 130.511477 
L 165.668112 125.842118 
L 159.40512 121.530499 
L 153.284976 117.553939 
L 146.334528 113.291006 
L 138.87072 108.968501 
L 130.531968 104.411938 
L 120.943296 99.468302 
L 109.34136 93.822797 
L 93.520944 86.455728 
L 83.320704 81.565013 
L 79.12008 79.314854 
L 76.477392 77.68643 
L 74.6784 76.344682 
L 73.401696 75.104539 
L 72.638352 74.011666 
L 72.26784 73.139242 
L 72.035712 71.939923 
L 72.035712 71.939923 
" style="fill:none;stroke:#ef9f07;stroke-dasharray:5.55,2.4;stroke-dashoffset:0;stroke-width:1.5;"/>
   </g>
   <g id="line2d_19">
    <path clip-path="url(#pfd02de5b47)" d="M 187.715808 218.16 
L 187.6176 222.392995 
L 187.32744 226.621757 
L 186.662304 232.045906 
L 185.98824 235.950192 
L 184.702608 241.628962 
L 183.068784 247.266907 
L 181.095696 252.854352 
L 178.787808 258.383434 
L 176.743296 262.701706 
L 173.703312 268.38864 
L 171.03384 272.875349 
L 168.150096 277.302485 
L 164.668176 282.207413 
L 161.155008 286.763371 
L 157.204368 291.503491 
L 152.55288 296.665157 
L 147.638016 301.714632 
L 143.531136 305.671838 
L 137.91096 310.754578 
L 132.902352 315.011462 
L 127.73304 319.177325 
L 120.30048 324.818597 
L 114.796368 328.781851 
L 105.372864 335.22781 
L 96.065424 341.322016 
L 85.780368 348.03959 
L 80.807472 351.512533 
L 77.593392 354.025538 
L 75.468528 355.969244 
L 74.084688 357.522794 
L 73.151712 358.89566 
L 72.60264 360.045717 
L 72.24552 361.231034 
L 72.04464 362.736654 
L 72.004464 363.643461 
L 72.004464 363.643461 
" style="fill:none;stroke:#449775;stroke-dasharray:5.55,2.4;stroke-dashoffset:0;stroke-width:1.5;"/>
   </g>
   <g id="line2d_20">
    <path clip-path="url(#pfd02de5b47)" d="M 187.715808 218.16 
L 187.6176 213.927005 
L 187.32744 209.698243 
L 186.662304 204.274094 
L 185.98824 200.369808 
L 184.702608 194.691038 
L 183.068784 189.053093 
L 181.095696 183.465648 
L 178.787808 177.936566 
L 176.743296 173.618294 
L 173.703312 167.93136 
L 171.03384 163.444651 
L 168.150096 159.017515 
L 164.668176 154.112587 
L 161.155008 149.556629 
L 157.204368 144.816509 
L 152.55288 139.654843 
L 147.638016 134.605368 
L 143.531136 130.648162 
L 137.91096 125.565422 
L 132.902352 121.308538 
L 127.73304 117.142675 
L 120.30048 111.501403 
L 114.796368 107.538149 
L 105.372864 101.09219 
L 96.065424 94.997923 
L 85.780368 88.28041 
L 80.807472 84.807346 
L 77.593392 82.294402 
L 75.468528 80.350877 
L 74.084688 78.797146 
L 73.151712 77.42425 
L 72.60264 76.274222 
L 72.24552 75.089117 
L 72.04464 73.583467 
L 72.004464 72.67657 
L 72.004464 72.67657 
" style="fill:none;stroke:#449775;stroke-dasharray:5.55,2.4;stroke-dashoffset:0;stroke-width:1.5;"/>
   </g>
   <g id="line2d_21">
    <path clip-path="url(#pfd02de5b47)" d="M 518.4 218.16 
L 450.895392 218.16 
L 450.895392 218.16 
" style="fill:none;stroke:#000000;stroke-dasharray:5.55,2.4;stroke-dashoffset:0;stroke-width:1.5;"/>
   </g>
   <g id="line2d_22">
    <path clip-path="url(#pfd02de5b47)" d="M 450.448992 218.16 
L 72 218.16 
L 72 218.16 
" style="fill:none;stroke:#000000;stroke-linecap:square;stroke-width:1.5;"/>
   </g>
   <g id="line2d_23">
    <path clip-path="url(#pfd02de5b47)" d="M 518.4 369.36 
L 509.472 369.36 
L 505.008 369.36 
L 500.544 369.36 
L 496.08 369.36 
L 491.616 369.36 
L 487.152 369.36 
L 482.688 369.36 
L 478.224 369.36 
L 473.76 369.36 
L 469.296 369.36 
L 464.832 369.36 
L 460.368 369.36 
L 455.904 369.36 
L 451.44 369.36 
L 446.976 369.36 
L 442.512 369.36 
L 438.048 369.36 
L 433.584 369.36 
L 429.12 369.36 
L 424.656 369.36 
L 420.192 369.36 
L 415.728 369.36 
L 411.264 369.36 
L 406.8 369.36 
L 402.336 369.36 
L 397.872 369.36 
L 393.408 369.36 
L 388.944 369.36 
L 384.48 369.36 
L 380.016 369.36 
L 375.552 369.36 
L 371.088 369.36 
L 366.624 369.36 
L 362.16 369.36 
L 357.696 369.36 
L 353.232 369.36 
L 348.768 369.36 
L 344.304 369.36 
L 339.84 369.36 
L 335.376 369.36 
L 330.912 369.36 
L 326.448 369.36 
L 321.984 369.36 
L 317.52 369.36 
L 313.056 369.36 
L 308.592 369.36 
L 304.128 369.36 
L 299.664 369.36 
L 295.2 369.36 
L 290.736 369.36 
L 286.272 369.36 
L 281.808 369.36 
L 277.344 369.36 
L 272.88 369.36 
L 268.416 369.36 
L 263.952 369.36 
L 259.488 369.36 
L 255.024 369.36 
L 250.56 369.36 
L 246.096 369.36 
L 241.632 369.36 
L 237.168 369.36 
L 232.704 369.36 
L 228.24 369.36 
L 223.776 369.36 
L 219.312 369.36 
L 214.848 369.36 
L 210.384 369.36 
L 205.92 369.36 
L 201.456 369.36 
L 196.992 369.36 
L 192.528 369.36 
L 188.064 369.36 
L 183.6 369.36 
L 179.136 369.36 
L 174.672 369.36 
L 170.208 369.36 
L 165.744 369.36 
L 161.28 369.36 
L 156.816 369.36 
L 152.352 369.36 
L 147.888 369.36 
L 143.424 369.36 
L 138.96 369.36 
L 134.496 369.36 
L 130.032 369.36 
L 125.568 369.36 
L 121.104 369.36 
L 116.64 369.36 
L 112.176 369.36 
L 107.712 369.36 
L 103.248 369.36 
L 98.784 369.36 
L 94.32 369.36 
L 89.856 369.36 
L 85.392 369.36 
L 80.928 369.36 
L 76.464 369.36 
L 72 369.36 
" style="fill:none;stroke:#000000;stroke-linecap:square;stroke-width:1.5;"/>
   </g>
   <g id="line2d_24">
    <path clip-path="url(#pfd02de5b47)" d="M 518.4 66.96 
L 509.472 66.96 
L 505.008 66.96 
L 500.544 66.96 
L 496.08 66.96 
L 491.616 66.96 
L 487.152 66.96 
L 482.688 66.96 
L 478.224 66.96 
L 473.76 66.96 
L 469.296 66.96 
L 464.832 66.96 
L 460.368 66.96 
L 455.904 66.96 
L 451.44 66.96 
L 446.976 66.96 
L 442.512 66.96 
L 438.048 66.96 
L 433.584 66.96 
L 429.12 66.96 
L 424.656 66.96 
L 420.192 66.96 
L 415.728 66.96 
L 411.264 66.96 
L 406.8 66.96 
L 402.336 66.96 
L 397.872 66.96 
L 393.408 66.96 
L 388.944 66.96 
L 384.48 66.96 
L 380.016 66.96 
L 375.552 66.96 
L 371.088 66.96 
L 366.624 66.96 
L 362.16 66.96 
L 357.696 66.96 
L 353.232 66.96 
L 348.768 66.96 
L 344.304 66.96 
L 339.84 66.96 
L 335.376 66.96 
L 330.912 66.96 
L 326.448 66.96 
L 321.984 66.96 
L 317.52 66.96 
L 313.056 66.96 
L 308.592 66.96 
L 304.128 66.96 
L 299.664 66.96 
L 295.2 66.96 
L 290.736 66.96 
L 286.272 66.96 
L 281.808 66.96 
L 277.344 66.96 
L 272.88 66.96 
L 268.416 66.96 
L 263.952 66.96 
L 259.488 66.96 
L 255.024 66.96 
L 250.56 66.96 
L 246.096 66.96 
L 241.632 66.96 
L 237.168 66.96 
L 232.704 66.96 
L 228.24 66.96 
L 223.776 66.96 
L 219.312 66.96 
L 214.848 66.96 
L 210.384 66.96 
L 205.92 66.96 
L 201.456 66.96 
L 196.992 66.96 
L 192.528 66.96 
L 188.064 66.96 
L 183.6 66.96 
L 179.136 66.96 
L 174.672 66.96 
L 170.208 66.96 
L 165.744 66.96 
L 161.28 66.96 
L 156.816 66.96 
L 152.352 66.96 
L 147.888 66.96 
L 143.424 66.96 
L 138.96 66.96 
L 134.496 66.96 
L 130.032 66.96 
L 125.568 66.96 
L 121.104 66.96 
L 116.64 66.96 
L 112.176 66.96 
L 107.712 66.96 
L 103.248 66.96 
L 98.784 66.96 
L 94.32 66.96 
L 89.856 66.96 
L 85.392 66.96 
L 80.928 66.96 
L 76.464 66.96 
L 72 66.96 
" style="fill:none;stroke:#000000;stroke-linecap:square;stroke-width:1.5;"/>
   </g>
   <g id="patch_3">
    <path d="M 72 384.48 
L 72 51.84 
" style="fill:none;stroke:#000000;stroke-linecap:square;stroke-linejoin:miter;stroke-width:0.8;"/>
   </g>
   <g id="patch_4">
    <path d="M 518.4 384.48 
L 518.4 51.84 
" style="fill:none;stroke:#000000;stroke-linecap:square;stroke-linejoin:miter;stroke-width:0.8;"/>
   </g>
   <g id="patch_5">
    <path d="M 72 384.48 
L 518.4 384.48 
" style="fill:none;stroke:#000000;stroke-linecap:square;stroke-linejoin:miter;stroke-width:0.8;"/>
   </g>
   <g id="patch_6">
    <path d="M 72 51.84 
L 518.4 51.84 
" style="fill:none;stroke:#000000;stroke-linecap:square;stroke-linejoin:miter;stroke-width:0.8;"/>
   </g>
   <g id="text_15">
    <!-- Bifurcation diagram for two weakly coupled neurons -->
    <g transform="translate(151.269297 45.84)scale(0.11 -0.11)">
     <defs>
      <path d="M 19.671875 34.8125 
L 19.671875 8.109375 
L 35.5 8.109375 
Q 43.453125 8.109375 47.28125 11.40625 
Q 51.125 14.703125 51.125 21.484375 
Q 51.125 28.328125 47.28125 31.5625 
Q 43.453125 34.8125 35.5 34.8125 
z
M 19.671875 64.796875 
L 19.671875 42.828125 
L 34.28125 42.828125 
Q 41.5 42.828125 45.03125 45.53125 
Q 48.578125 48.25 48.578125 53.8125 
Q 48.578125 59.328125 45.03125 62.0625 
Q 41.5 64.796875 34.28125 64.796875 
z
M 9.8125 72.90625 
L 35.015625 72.90625 
Q 46.296875 72.90625 52.390625 68.21875 
Q 58.5 63.53125 58.5 54.890625 
Q 58.5 48.1875 55.375 44.234375 
Q 52.25 40.28125 46.1875 39.3125 
Q 53.46875 37.75 57.5 32.78125 
Q 61.53125 27.828125 61.53125 20.40625 
Q 61.53125 10.640625 54.890625 5.3125 
Q 48.25 0 35.984375 0 
L 9.8125 0 
z
" id="DejaVuSans-66"/>
      <path d="M 30.609375 48.390625 
Q 23.390625 48.390625 19.1875 42.75 
Q 14.984375 37.109375 14.984375 27.296875 
Q 14.984375 17.484375 19.15625 11.84375 
Q 23.34375 6.203125 30.609375 6.203125 
Q 37.796875 6.203125 41.984375 11.859375 
Q 46.1875 17.53125 46.1875 27.296875 
Q 46.1875 37.015625 41.984375 42.703125 
Q 37.796875 48.390625 30.609375 48.390625 
z
M 30.609375 56 
Q 42.328125 56 49.015625 48.375 
Q 55.71875 40.765625 55.71875 27.296875 
Q 55.71875 13.875 49.015625 6.21875 
Q 42.328125 -1.421875 30.609375 -1.421875 
Q 18.84375 -1.421875 12.171875 6.21875 
Q 5.515625 13.875 5.515625 27.296875 
Q 5.515625 40.765625 12.171875 48.375 
Q 18.84375 56 30.609375 56 
z
" id="DejaVuSans-111"/>
      <path d="M 45.40625 46.390625 
L 45.40625 75.984375 
L 54.390625 75.984375 
L 54.390625 0 
L 45.40625 0 
L 45.40625 8.203125 
Q 42.578125 3.328125 38.25 0.953125 
Q 33.9375 -1.421875 27.875 -1.421875 
Q 17.96875 -1.421875 11.734375 6.484375 
Q 5.515625 14.40625 5.515625 27.296875 
Q 5.515625 40.1875 11.734375 48.09375 
Q 17.96875 56 27.875 56 
Q 33.9375 56 38.25 53.625 
Q 42.578125 51.265625 45.40625 46.390625 
z
M 14.796875 27.296875 
Q 14.796875 17.390625 18.875 11.75 
Q 22.953125 6.109375 30.078125 6.109375 
Q 37.203125 6.109375 41.296875 11.75 
Q 45.40625 17.390625 45.40625 27.296875 
Q 45.40625 37.203125 41.296875 42.84375 
Q 37.203125 48.484375 30.078125 48.484375 
Q 22.953125 48.484375 18.875 42.84375 
Q 14.796875 37.203125 14.796875 27.296875 
z
" id="DejaVuSans-100"/>
      <path d="M 45.40625 27.984375 
Q 45.40625 37.75 41.375 43.109375 
Q 37.359375 48.484375 30.078125 48.484375 
Q 22.859375 48.484375 18.828125 43.109375 
Q 14.796875 37.75 14.796875 27.984375 
Q 14.796875 18.265625 18.828125 12.890625 
Q 22.859375 7.515625 30.078125 7.515625 
Q 37.359375 7.515625 41.375 12.890625 
Q 45.40625 18.265625 45.40625 27.984375 
z
M 54.390625 6.78125 
Q 54.390625 -7.171875 48.1875 -13.984375 
Q 42 -20.796875 29.203125 -20.796875 
Q 24.46875 -20.796875 20.265625 -20.09375 
Q 16.0625 -19.390625 12.109375 -17.921875 
L 12.109375 -9.1875 
Q 16.0625 -11.328125 19.921875 -12.34375 
Q 23.78125 -13.375 27.78125 -13.375 
Q 36.625 -13.375 41.015625 -8.765625 
Q 45.40625 -4.15625 45.40625 5.171875 
L 45.40625 9.625 
Q 42.625 4.78125 38.28125 2.390625 
Q 33.9375 0 27.875 0 
Q 17.828125 0 11.671875 7.65625 
Q 5.515625 15.328125 5.515625 27.984375 
Q 5.515625 40.671875 11.671875 48.328125 
Q 17.828125 56 27.875 56 
Q 33.9375 56 38.28125 53.609375 
Q 42.625 51.21875 45.40625 46.390625 
L 45.40625 54.6875 
L 54.390625 54.6875 
z
" id="DejaVuSans-103"/>
      <path d="M 52 44.1875 
Q 55.375 50.25 60.0625 53.125 
Q 64.75 56 71.09375 56 
Q 79.640625 56 84.28125 50.015625 
Q 88.921875 44.046875 88.921875 33.015625 
L 88.921875 0 
L 79.890625 0 
L 79.890625 32.71875 
Q 79.890625 40.578125 77.09375 44.375 
Q 74.3125 48.1875 68.609375 48.1875 
Q 61.625 48.1875 57.5625 43.546875 
Q 53.515625 38.921875 53.515625 30.90625 
L 53.515625 0 
L 44.484375 0 
L 44.484375 32.71875 
Q 44.484375 40.625 41.703125 44.40625 
Q 38.921875 48.1875 33.109375 48.1875 
Q 26.21875 48.1875 22.15625 43.53125 
Q 18.109375 38.875 18.109375 30.90625 
L 18.109375 0 
L 9.078125 0 
L 9.078125 54.6875 
L 18.109375 54.6875 
L 18.109375 46.1875 
Q 21.1875 51.21875 25.484375 53.609375 
Q 29.78125 56 35.6875 56 
Q 41.65625 56 45.828125 52.96875 
Q 50 49.953125 52 44.1875 
z
" id="DejaVuSans-109"/>
      <path d="M 4.203125 54.6875 
L 13.1875 54.6875 
L 24.421875 12.015625 
L 35.59375 54.6875 
L 46.1875 54.6875 
L 57.421875 12.015625 
L 68.609375 54.6875 
L 77.59375 54.6875 
L 63.28125 0 
L 52.6875 0 
L 40.921875 44.828125 
L 29.109375 0 
L 18.5 0 
z
" id="DejaVuSans-119"/>
      <path d="M 9.078125 75.984375 
L 18.109375 75.984375 
L 18.109375 31.109375 
L 44.921875 54.6875 
L 56.390625 54.6875 
L 27.390625 29.109375 
L 57.625 0 
L 45.90625 0 
L 18.109375 26.703125 
L 18.109375 0 
L 9.078125 0 
z
" id="DejaVuSans-107"/>
      <path d="M 9.421875 75.984375 
L 18.40625 75.984375 
L 18.40625 0 
L 9.421875 0 
z
" id="DejaVuSans-108"/>
      <path d="M 32.171875 -5.078125 
Q 28.375 -14.84375 24.75 -17.8125 
Q 21.140625 -20.796875 15.09375 -20.796875 
L 7.90625 -20.796875 
L 7.90625 -13.28125 
L 13.1875 -13.28125 
Q 16.890625 -13.28125 18.9375 -11.515625 
Q 21 -9.765625 23.484375 -3.21875 
L 25.09375 0.875 
L 2.984375 54.6875 
L 12.5 54.6875 
L 29.59375 11.921875 
L 46.6875 54.6875 
L 56.203125 54.6875 
z
" id="DejaVuSans-121"/>
      <path d="M 18.109375 8.203125 
L 18.109375 -20.796875 
L 9.078125 -20.796875 
L 9.078125 54.6875 
L 18.109375 54.6875 
L 18.109375 46.390625 
Q 20.953125 51.265625 25.265625 53.625 
Q 29.59375 56 35.59375 56 
Q 45.5625 56 51.78125 48.09375 
Q 58.015625 40.1875 58.015625 27.296875 
Q 58.015625 14.40625 51.78125 6.484375 
Q 45.5625 -1.421875 35.59375 -1.421875 
Q 29.59375 -1.421875 25.265625 0.953125 
Q 20.953125 3.328125 18.109375 8.203125 
z
M 48.6875 27.296875 
Q 48.6875 37.203125 44.609375 42.84375 
Q 40.53125 48.484375 33.40625 48.484375 
Q 26.265625 48.484375 22.1875 42.84375 
Q 18.109375 37.203125 18.109375 27.296875 
Q 18.109375 17.390625 22.1875 11.75 
Q 26.265625 6.109375 33.40625 6.109375 
Q 40.53125 6.109375 44.609375 11.75 
Q 48.6875 17.390625 48.6875 27.296875 
z
" id="DejaVuSans-112"/>
     </defs>
     <use xlink:href="#DejaVuSans-66"/>
     <use x="68.603516" xlink:href="#DejaVuSans-105"/>
     <use x="96.386719" xlink:href="#DejaVuSans-102"/>
     <use x="131.591797" xlink:href="#DejaVuSans-117"/>
     <use x="194.970703" xlink:href="#DejaVuSans-114"/>
     <use x="233.833984" xlink:href="#DejaVuSans-99"/>
     <use x="288.814453" xlink:href="#DejaVuSans-97"/>
     <use x="350.09375" xlink:href="#DejaVuSans-116"/>
     <use x="389.302734" xlink:href="#DejaVuSans-105"/>
     <use x="417.085938" xlink:href="#DejaVuSans-111"/>
     <use x="478.267578" xlink:href="#DejaVuSans-110"/>
     <use x="541.646484" xlink:href="#DejaVuSans-32"/>
     <use x="573.433594" xlink:href="#DejaVuSans-100"/>
     <use x="636.910156" xlink:href="#DejaVuSans-105"/>
     <use x="664.693359" xlink:href="#DejaVuSans-97"/>
     <use x="725.972656" xlink:href="#DejaVuSans-103"/>
     <use x="789.449219" xlink:href="#DejaVuSans-114"/>
     <use x="830.5625" xlink:href="#DejaVuSans-97"/>
     <use x="891.841797" xlink:href="#DejaVuSans-109"/>
     <use x="989.253906" xlink:href="#DejaVuSans-32"/>
     <use x="1021.041016" xlink:href="#DejaVuSans-102"/>
     <use x="1056.246094" xlink:href="#DejaVuSans-111"/>
     <use x="1117.427734" xlink:href="#DejaVuSans-114"/>
     <use x="1158.541016" xlink:href="#DejaVuSans-32"/>
     <use x="1190.328125" xlink:href="#DejaVuSans-116"/>
     <use x="1229.537109" xlink:href="#DejaVuSans-119"/>
     <use x="1311.324219" xlink:href="#DejaVuSans-111"/>
     <use x="1372.505859" xlink:href="#DejaVuSans-32"/>
     <use x="1404.292969" xlink:href="#DejaVuSans-119"/>
     <use x="1486.080078" xlink:href="#DejaVuSans-101"/>
     <use x="1547.603516" xlink:href="#DejaVuSans-97"/>
     <use x="1608.882812" xlink:href="#DejaVuSans-107"/>
     <use x="1666.792969" xlink:href="#DejaVuSans-108"/>
     <use x="1694.576172" xlink:href="#DejaVuSans-121"/>
     <use x="1753.755859" xlink:href="#DejaVuSans-32"/>
     <use x="1785.542969" xlink:href="#DejaVuSans-99"/>
     <use x="1840.523438" xlink:href="#DejaVuSans-111"/>
     <use x="1901.705078" xlink:href="#DejaVuSans-117"/>
     <use x="1965.083984" xlink:href="#DejaVuSans-112"/>
     <use x="2028.560547" xlink:href="#DejaVuSans-108"/>
     <use x="2056.34375" xlink:href="#DejaVuSans-101"/>
     <use x="2117.867188" xlink:href="#DejaVuSans-100"/>
     <use x="2181.34375" xlink:href="#DejaVuSans-32"/>
     <use x="2213.130859" xlink:href="#DejaVuSans-110"/>
     <use x="2276.509766" xlink:href="#DejaVuSans-101"/>
     <use x="2338.033203" xlink:href="#DejaVuSans-117"/>
     <use x="2401.412109" xlink:href="#DejaVuSans-114"/>
     <use x="2440.275391" xlink:href="#DejaVuSans-111"/>
     <use x="2501.457031" xlink:href="#DejaVuSans-110"/>
     <use x="2564.835938" xlink:href="#DejaVuSans-115"/>
    </g>
   </g>
   <g id="legend_1">
    <g id="patch_7">
     <path d="M 438.4 135.672 
L 511.4 135.672 
Q 513.4 135.672 513.4 133.672 
L 513.4 75.472 
Q 513.4 73.472 511.4 73.472 
L 438.4 73.472 
Q 436.4 73.472 436.4 75.472 
L 436.4 133.672 
Q 436.4 135.672 438.4 135.672 
z
" style="fill:#ffffff;opacity:0.8;stroke:#cccccc;stroke-linejoin:miter;"/>
    </g>
    <g id="line2d_25">
     <path d="M 440.4 81.672 
L 460.4 81.672 
" style="fill:none;stroke:#aa3863;stroke-dasharray:5.55,2.4;stroke-dashoffset:0;stroke-width:1.5;"/>
    </g>
    <g id="line2d_26"/>
    <g id="text_16">
     <!-- $\beta=0.2$ -->
     <g transform="translate(468.4 85.172)scale(0.1 -0.1)">
      <defs>
       <path d="M 13.625 3.375 
L 8.9375 -20.796875 
L -0.09375 -20.796875 
L 14.5 54.34375 
Q 18.84375 76.609375 39.65625 76.609375 
Q 60.75 76.609375 57.171875 57.8125 
Q 54.734375 44.4375 45.21875 39.546875 
Q 58.015625 35.15625 55.515625 22.125 
Q 51.125 -1.078125 27.484375 -1.03125 
Q 17.140625 -0.984375 13.625 3.375 
z
M 15.921875 15.09375 
Q 19.671875 6.59375 29.296875 6.640625 
Q 43.359375 6.640625 46.34375 21.96875 
Q 49.03125 35.75 26.171875 34.671875 
L 27.78125 42.96875 
Q 45.453125 42.671875 48.53125 58.59375 
Q 50.640625 69.34375 39.203125 69.28125 
Q 26.421875 69.28125 23.484375 54.046875 
z
" id="DejaVuSans-Oblique-946"/>
       <path d="M 10.59375 45.40625 
L 73.1875 45.40625 
L 73.1875 37.203125 
L 10.59375 37.203125 
z
M 10.59375 25.484375 
L 73.1875 25.484375 
L 73.1875 17.1875 
L 10.59375 17.1875 
z
" id="DejaVuSans-61"/>
      </defs>
      <use transform="translate(0 0.390625)" xlink:href="#DejaVuSans-Oblique-946"/>
      <use transform="translate(83.300781 0.390625)" xlink:href="#DejaVuSans-61"/>
      <use transform="translate(186.572266 0.390625)" xlink:href="#DejaVuSans-48"/>
      <use transform="translate(250.195312 0.390625)" xlink:href="#DejaVuSans-46"/>
      <use transform="translate(276.482422 0.390625)" xlink:href="#DejaVuSans-50"/>
     </g>
    </g>
    <g id="line2d_27">
     <path d="M 440.4 96.472 
L 460.4 96.472 
" style="fill:none;stroke:#d97020;stroke-dasharray:5.55,2.4;stroke-dashoffset:0;stroke-width:1.5;"/>
    </g>
    <g id="line2d_28"/>
    <g id="text_17">
     <!-- $\beta=0.15$ -->
     <g transform="translate(468.4 99.972)scale(0.1 -0.1)">
      <defs>
       <path d="M 10.796875 72.90625 
L 49.515625 72.90625 
L 49.515625 64.59375 
L 19.828125 64.59375 
L 19.828125 46.734375 
Q 21.96875 47.46875 24.109375 47.828125 
Q 26.265625 48.1875 28.421875 48.1875 
Q 40.625 48.1875 47.75 41.5 
Q 54.890625 34.8125 54.890625 23.390625 
Q 54.890625 11.625 47.5625 5.09375 
Q 40.234375 -1.421875 26.90625 -1.421875 
Q 22.3125 -1.421875 17.546875 -0.640625 
Q 12.796875 0.140625 7.71875 1.703125 
L 7.71875 11.625 
Q 12.109375 9.234375 16.796875 8.0625 
Q 21.484375 6.890625 26.703125 6.890625 
Q 35.15625 6.890625 40.078125 11.328125 
Q 45.015625 15.765625 45.015625 23.390625 
Q 45.015625 31 40.078125 35.4375 
Q 35.15625 39.890625 26.703125 39.890625 
Q 22.75 39.890625 18.8125 39.015625 
Q 14.890625 38.140625 10.796875 36.28125 
z
" id="DejaVuSans-53"/>
      </defs>
      <use transform="translate(0 0.390625)" xlink:href="#DejaVuSans-Oblique-946"/>
      <use transform="translate(83.300781 0.390625)" xlink:href="#DejaVuSans-61"/>
      <use transform="translate(186.572266 0.390625)" xlink:href="#DejaVuSans-48"/>
      <use transform="translate(250.195312 0.390625)" xlink:href="#DejaVuSans-46"/>
      <use transform="translate(281.982422 0.390625)" xlink:href="#DejaVuSans-49"/>
      <use transform="translate(345.605469 0.390625)" xlink:href="#DejaVuSans-53"/>
     </g>
    </g>
    <g id="line2d_29">
     <path d="M 440.4 111.272 
L 460.4 111.272 
" style="fill:none;stroke:#ef9f07;stroke-dasharray:5.55,2.4;stroke-dashoffset:0;stroke-width:1.5;"/>
    </g>
    <g id="line2d_30"/>
    <g id="text_18">
     <!-- $\beta=0.1$ -->
     <g transform="translate(468.4 114.772)scale(0.1 -0.1)">
      <use transform="translate(0 0.390625)" xlink:href="#DejaVuSans-Oblique-946"/>
      <use transform="translate(83.300781 0.390625)" xlink:href="#DejaVuSans-61"/>
      <use transform="translate(186.572266 0.390625)" xlink:href="#DejaVuSans-48"/>
      <use transform="translate(250.195312 0.390625)" xlink:href="#DejaVuSans-46"/>
      <use transform="translate(281.982422 0.390625)" xlink:href="#DejaVuSans-49"/>
     </g>
    </g>
    <g id="line2d_31">
     <path d="M 440.4 126.072 
L 460.4 126.072 
" style="fill:none;stroke:#449775;stroke-dasharray:5.55,2.4;stroke-dashoffset:0;stroke-width:1.5;"/>
    </g>
    <g id="line2d_32"/>
    <g id="text_19">
     <!-- $\beta=0.05$ -->
     <g transform="translate(468.4 129.572)scale(0.1 -0.1)">
      <use transform="translate(0 0.390625)" xlink:href="#DejaVuSans-Oblique-946"/>
      <use transform="translate(83.300781 0.390625)" xlink:href="#DejaVuSans-61"/>
      <use transform="translate(186.572266 0.390625)" xlink:href="#DejaVuSans-48"/>
      <use transform="translate(250.195312 0.390625)" xlink:href="#DejaVuSans-46"/>
      <use transform="translate(281.982422 0.390625)" xlink:href="#DejaVuSans-48"/>
      <use transform="translate(345.605469 0.390625)" xlink:href="#DejaVuSans-53"/>
     </g>
    </g>
   </g>
  </g>
 </g>
 <defs>
  <clipPath id="pfd02de5b47">
   <rect height="332.64" width="446.4" x="72" y="51.84"/>
  </clipPath>
 </defs>
</svg>
