<?xml version="1.0" encoding="utf-8" standalone="no"?>
<!DOCTYPE svg PUBLIC "-//W3C//DTD SVG 1.1//EN"
  "http://www.w3.org/Graphics/SVG/1.1/DTD/svg11.dtd">
<!-- Created with matplotlib (https://matplotlib.org/) -->
<svg height="432pt" version="1.1" viewBox="0 0 1152 432" width="1152pt" xmlns="http://www.w3.org/2000/svg" xmlns:xlink="http://www.w3.org/1999/xlink">
 <metadata>
  <rdf:RDF xmlns:cc="http://creativecommons.org/ns#" xmlns:dc="http://purl.org/dc/elements/1.1/" xmlns:rdf="http://www.w3.org/1999/02/22-rdf-syntax-ns#">
   <cc:Work>
    <dc:type rdf:resource="http://purl.org/dc/dcmitype/StillImage"/>
    <dc:date>2021-04-23T15:09:29.027873</dc:date>
    <dc:format>image/svg+xml</dc:format>
    <dc:creator>
     <cc:Agent>
      <dc:title>Matplotlib v3.3.3, https://matplotlib.org/</dc:title>
     </cc:Agent>
    </dc:creator>
   </cc:Work>
  </rdf:RDF>
 </metadata>
 <defs>
  <style type="text/css">*{stroke-linecap:butt;stroke-linejoin:round;}</style>
 </defs>
 <g id="figure_1">
  <g id="patch_1">
   <path d="M 0 432 
L 1152 432 
L 1152 0 
L 0 0 
z
" style="fill:#ffffff;"/>
  </g>
  <g id="axes_1">
   <g id="patch_2">
    <path d="M 53.765625 197.951875 
L 1088.6 197.951875 
L 1088.6 33.36 
L 53.765625 33.36 
z
" style="fill:#ffffff;"/>
   </g>
   <g id="matplotlib.axis_1">
    <g id="xtick_1">
     <g id="line2d_1">
      <defs>
       <path d="M 0 0 
L 0 3.5 
" id="mf4d41c39bf" style="stroke:#000000;stroke-width:0.8;"/>
      </defs>
      <g>
       <use style="stroke:#000000;stroke-width:0.8;" x="100.803551" xlink:href="#mf4d41c39bf" y="197.951875"/>
      </g>
     </g>
     <g id="text_1">
      <!-- 0 -->
      <g transform="translate(97.622301 212.550312)scale(0.1 -0.1)">
       <defs>
        <path d="M 31.78125 66.40625 
Q 24.171875 66.40625 20.328125 58.90625 
Q 16.5 51.421875 16.5 36.375 
Q 16.5 21.390625 20.328125 13.890625 
Q 24.171875 6.390625 31.78125 6.390625 
Q 39.453125 6.390625 43.28125 13.890625 
Q 47.125 21.390625 47.125 36.375 
Q 47.125 51.421875 43.28125 58.90625 
Q 39.453125 66.40625 31.78125 66.40625 
z
M 31.78125 74.21875 
Q 44.046875 74.21875 50.515625 64.515625 
Q 56.984375 54.828125 56.984375 36.375 
Q 56.984375 17.96875 50.515625 8.265625 
Q 44.046875 -1.421875 31.78125 -1.421875 
Q 19.53125 -1.421875 13.0625 8.265625 
Q 6.59375 17.96875 6.59375 36.375 
Q 6.59375 54.828125 13.0625 64.515625 
Q 19.53125 74.21875 31.78125 74.21875 
z
" id="DejaVuSans-48"/>
       </defs>
       <use xlink:href="#DejaVuSans-48"/>
      </g>
     </g>
    </g>
    <g id="xtick_2">
     <g id="line2d_2">
      <g>
       <use style="stroke:#000000;stroke-width:0.8;" x="218.398366" xlink:href="#mf4d41c39bf" y="197.951875"/>
      </g>
     </g>
     <g id="text_2">
      <!-- 5 -->
      <g transform="translate(215.217116 212.550312)scale(0.1 -0.1)">
       <defs>
        <path d="M 10.796875 72.90625 
L 49.515625 72.90625 
L 49.515625 64.59375 
L 19.828125 64.59375 
L 19.828125 46.734375 
Q 21.96875 47.46875 24.109375 47.828125 
Q 26.265625 48.1875 28.421875 48.1875 
Q 40.625 48.1875 47.75 41.5 
Q 54.890625 34.8125 54.890625 23.390625 
Q 54.890625 11.625 47.5625 5.09375 
Q 40.234375 -1.421875 26.90625 -1.421875 
Q 22.3125 -1.421875 17.546875 -0.640625 
Q 12.796875 0.140625 7.71875 1.703125 
L 7.71875 11.625 
Q 12.109375 9.234375 16.796875 8.0625 
Q 21.484375 6.890625 26.703125 6.890625 
Q 35.15625 6.890625 40.078125 11.328125 
Q 45.015625 15.765625 45.015625 23.390625 
Q 45.015625 31 40.078125 35.4375 
Q 35.15625 39.890625 26.703125 39.890625 
Q 22.75 39.890625 18.8125 39.015625 
Q 14.890625 38.140625 10.796875 36.28125 
z
" id="DejaVuSans-53"/>
       </defs>
       <use xlink:href="#DejaVuSans-53"/>
      </g>
     </g>
    </g>
    <g id="xtick_3">
     <g id="line2d_3">
      <g>
       <use style="stroke:#000000;stroke-width:0.8;" x="335.993182" xlink:href="#mf4d41c39bf" y="197.951875"/>
      </g>
     </g>
     <g id="text_3">
      <!-- 10 -->
      <g transform="translate(329.630682 212.550312)scale(0.1 -0.1)">
       <defs>
        <path d="M 12.40625 8.296875 
L 28.515625 8.296875 
L 28.515625 63.921875 
L 10.984375 60.40625 
L 10.984375 69.390625 
L 28.421875 72.90625 
L 38.28125 72.90625 
L 38.28125 8.296875 
L 54.390625 8.296875 
L 54.390625 0 
L 12.40625 0 
z
" id="DejaVuSans-49"/>
       </defs>
       <use xlink:href="#DejaVuSans-49"/>
       <use x="63.623047" xlink:href="#DejaVuSans-48"/>
      </g>
     </g>
    </g>
    <g id="xtick_4">
     <g id="line2d_4">
      <g>
       <use style="stroke:#000000;stroke-width:0.8;" x="453.587997" xlink:href="#mf4d41c39bf" y="197.951875"/>
      </g>
     </g>
     <g id="text_4">
      <!-- 15 -->
      <g transform="translate(447.225497 212.550312)scale(0.1 -0.1)">
       <use xlink:href="#DejaVuSans-49"/>
       <use x="63.623047" xlink:href="#DejaVuSans-53"/>
      </g>
     </g>
    </g>
    <g id="xtick_5">
     <g id="line2d_5">
      <g>
       <use style="stroke:#000000;stroke-width:0.8;" x="571.182813" xlink:href="#mf4d41c39bf" y="197.951875"/>
      </g>
     </g>
     <g id="text_5">
      <!-- 20 -->
      <g transform="translate(564.820313 212.550312)scale(0.1 -0.1)">
       <defs>
        <path d="M 19.1875 8.296875 
L 53.609375 8.296875 
L 53.609375 0 
L 7.328125 0 
L 7.328125 8.296875 
Q 12.9375 14.109375 22.625 23.890625 
Q 32.328125 33.6875 34.8125 36.53125 
Q 39.546875 41.84375 41.421875 45.53125 
Q 43.3125 49.21875 43.3125 52.78125 
Q 43.3125 58.59375 39.234375 62.25 
Q 35.15625 65.921875 28.609375 65.921875 
Q 23.96875 65.921875 18.8125 64.3125 
Q 13.671875 62.703125 7.8125 59.421875 
L 7.8125 69.390625 
Q 13.765625 71.78125 18.9375 73 
Q 24.125 74.21875 28.421875 74.21875 
Q 39.75 74.21875 46.484375 68.546875 
Q 53.21875 62.890625 53.21875 53.421875 
Q 53.21875 48.921875 51.53125 44.890625 
Q 49.859375 40.875 45.40625 35.40625 
Q 44.1875 33.984375 37.640625 27.21875 
Q 31.109375 20.453125 19.1875 8.296875 
z
" id="DejaVuSans-50"/>
       </defs>
       <use xlink:href="#DejaVuSans-50"/>
       <use x="63.623047" xlink:href="#DejaVuSans-48"/>
      </g>
     </g>
    </g>
    <g id="xtick_6">
     <g id="line2d_6">
      <g>
       <use style="stroke:#000000;stroke-width:0.8;" x="688.777628" xlink:href="#mf4d41c39bf" y="197.951875"/>
      </g>
     </g>
     <g id="text_6">
      <!-- 25 -->
      <g transform="translate(682.415128 212.550312)scale(0.1 -0.1)">
       <use xlink:href="#DejaVuSans-50"/>
       <use x="63.623047" xlink:href="#DejaVuSans-53"/>
      </g>
     </g>
    </g>
    <g id="xtick_7">
     <g id="line2d_7">
      <g>
       <use style="stroke:#000000;stroke-width:0.8;" x="806.372443" xlink:href="#mf4d41c39bf" y="197.951875"/>
      </g>
     </g>
     <g id="text_7">
      <!-- 30 -->
      <g transform="translate(800.009943 212.550312)scale(0.1 -0.1)">
       <defs>
        <path d="M 40.578125 39.3125 
Q 47.65625 37.796875 51.625 33 
Q 55.609375 28.21875 55.609375 21.1875 
Q 55.609375 10.40625 48.1875 4.484375 
Q 40.765625 -1.421875 27.09375 -1.421875 
Q 22.515625 -1.421875 17.65625 -0.515625 
Q 12.796875 0.390625 7.625 2.203125 
L 7.625 11.71875 
Q 11.71875 9.328125 16.59375 8.109375 
Q 21.484375 6.890625 26.8125 6.890625 
Q 36.078125 6.890625 40.9375 10.546875 
Q 45.796875 14.203125 45.796875 21.1875 
Q 45.796875 27.640625 41.28125 31.265625 
Q 36.765625 34.90625 28.71875 34.90625 
L 20.21875 34.90625 
L 20.21875 43.015625 
L 29.109375 43.015625 
Q 36.375 43.015625 40.234375 45.921875 
Q 44.09375 48.828125 44.09375 54.296875 
Q 44.09375 59.90625 40.109375 62.90625 
Q 36.140625 65.921875 28.71875 65.921875 
Q 24.65625 65.921875 20.015625 65.03125 
Q 15.375 64.15625 9.8125 62.3125 
L 9.8125 71.09375 
Q 15.4375 72.65625 20.34375 73.4375 
Q 25.25 74.21875 29.59375 74.21875 
Q 40.828125 74.21875 47.359375 69.109375 
Q 53.90625 64.015625 53.90625 55.328125 
Q 53.90625 49.265625 50.4375 45.09375 
Q 46.96875 40.921875 40.578125 39.3125 
z
" id="DejaVuSans-51"/>
       </defs>
       <use xlink:href="#DejaVuSans-51"/>
       <use x="63.623047" xlink:href="#DejaVuSans-48"/>
      </g>
     </g>
    </g>
    <g id="xtick_8">
     <g id="line2d_8">
      <g>
       <use style="stroke:#000000;stroke-width:0.8;" x="923.967259" xlink:href="#mf4d41c39bf" y="197.951875"/>
      </g>
     </g>
     <g id="text_8">
      <!-- 35 -->
      <g transform="translate(917.604759 212.550312)scale(0.1 -0.1)">
       <use xlink:href="#DejaVuSans-51"/>
       <use x="63.623047" xlink:href="#DejaVuSans-53"/>
      </g>
     </g>
    </g>
    <g id="xtick_9">
     <g id="line2d_9">
      <g>
       <use style="stroke:#000000;stroke-width:0.8;" x="1041.562074" xlink:href="#mf4d41c39bf" y="197.951875"/>
      </g>
     </g>
     <g id="text_9">
      <!-- 40 -->
      <g transform="translate(1035.199574 212.550312)scale(0.1 -0.1)">
       <defs>
        <path d="M 37.796875 64.3125 
L 12.890625 25.390625 
L 37.796875 25.390625 
z
M 35.203125 72.90625 
L 47.609375 72.90625 
L 47.609375 25.390625 
L 58.015625 25.390625 
L 58.015625 17.1875 
L 47.609375 17.1875 
L 47.609375 0 
L 37.796875 0 
L 37.796875 17.1875 
L 4.890625 17.1875 
L 4.890625 26.703125 
z
" id="DejaVuSans-52"/>
       </defs>
       <use xlink:href="#DejaVuSans-52"/>
       <use x="63.623047" xlink:href="#DejaVuSans-48"/>
      </g>
     </g>
    </g>
   </g>
   <g id="matplotlib.axis_2">
    <g id="ytick_1">
     <g id="line2d_10">
      <defs>
       <path d="M 0 0 
L -3.5 0 
" id="m65605a1c68" style="stroke:#000000;stroke-width:0.8;"/>
      </defs>
      <g>
       <use style="stroke:#000000;stroke-width:0.8;" x="53.765625" xlink:href="#m65605a1c68" y="187.468316"/>
      </g>
     </g>
     <g id="text_10">
      <!-- 0.90 -->
      <g transform="translate(24.5 191.267535)scale(0.1 -0.1)">
       <defs>
        <path d="M 10.6875 12.40625 
L 21 12.40625 
L 21 0 
L 10.6875 0 
z
" id="DejaVuSans-46"/>
        <path d="M 10.984375 1.515625 
L 10.984375 10.5 
Q 14.703125 8.734375 18.5 7.8125 
Q 22.3125 6.890625 25.984375 6.890625 
Q 35.75 6.890625 40.890625 13.453125 
Q 46.046875 20.015625 46.78125 33.40625 
Q 43.953125 29.203125 39.59375 26.953125 
Q 35.25 24.703125 29.984375 24.703125 
Q 19.046875 24.703125 12.671875 31.3125 
Q 6.296875 37.9375 6.296875 49.421875 
Q 6.296875 60.640625 12.9375 67.421875 
Q 19.578125 74.21875 30.609375 74.21875 
Q 43.265625 74.21875 49.921875 64.515625 
Q 56.59375 54.828125 56.59375 36.375 
Q 56.59375 19.140625 48.40625 8.859375 
Q 40.234375 -1.421875 26.421875 -1.421875 
Q 22.703125 -1.421875 18.890625 -0.6875 
Q 15.09375 0.046875 10.984375 1.515625 
z
M 30.609375 32.421875 
Q 37.25 32.421875 41.125 36.953125 
Q 45.015625 41.5 45.015625 49.421875 
Q 45.015625 57.28125 41.125 61.84375 
Q 37.25 66.40625 30.609375 66.40625 
Q 23.96875 66.40625 20.09375 61.84375 
Q 16.21875 57.28125 16.21875 49.421875 
Q 16.21875 41.5 20.09375 36.953125 
Q 23.96875 32.421875 30.609375 32.421875 
z
" id="DejaVuSans-57"/>
       </defs>
       <use xlink:href="#DejaVuSans-48"/>
       <use x="63.623047" xlink:href="#DejaVuSans-46"/>
       <use x="95.410156" xlink:href="#DejaVuSans-57"/>
       <use x="159.033203" xlink:href="#DejaVuSans-48"/>
      </g>
     </g>
    </g>
    <g id="ytick_2">
     <g id="line2d_11">
      <g>
       <use style="stroke:#000000;stroke-width:0.8;" x="53.765625" xlink:href="#m65605a1c68" y="161.259419"/>
      </g>
     </g>
     <g id="text_11">
      <!-- 0.95 -->
      <g transform="translate(24.5 165.058638)scale(0.1 -0.1)">
       <use xlink:href="#DejaVuSans-48"/>
       <use x="63.623047" xlink:href="#DejaVuSans-46"/>
       <use x="95.410156" xlink:href="#DejaVuSans-57"/>
       <use x="159.033203" xlink:href="#DejaVuSans-53"/>
      </g>
     </g>
    </g>
    <g id="ytick_3">
     <g id="line2d_12">
      <g>
       <use style="stroke:#000000;stroke-width:0.8;" x="53.765625" xlink:href="#m65605a1c68" y="135.050521"/>
      </g>
     </g>
     <g id="text_12">
      <!-- 1.00 -->
      <g transform="translate(24.5 138.84974)scale(0.1 -0.1)">
       <use xlink:href="#DejaVuSans-49"/>
       <use x="63.623047" xlink:href="#DejaVuSans-46"/>
       <use x="95.410156" xlink:href="#DejaVuSans-48"/>
       <use x="159.033203" xlink:href="#DejaVuSans-48"/>
      </g>
     </g>
    </g>
    <g id="ytick_4">
     <g id="line2d_13">
      <g>
       <use style="stroke:#000000;stroke-width:0.8;" x="53.765625" xlink:href="#m65605a1c68" y="108.841624"/>
      </g>
     </g>
     <g id="text_13">
      <!-- 1.05 -->
      <g transform="translate(24.5 112.640843)scale(0.1 -0.1)">
       <use xlink:href="#DejaVuSans-49"/>
       <use x="63.623047" xlink:href="#DejaVuSans-46"/>
       <use x="95.410156" xlink:href="#DejaVuSans-48"/>
       <use x="159.033203" xlink:href="#DejaVuSans-53"/>
      </g>
     </g>
    </g>
    <g id="ytick_5">
     <g id="line2d_14">
      <g>
       <use style="stroke:#000000;stroke-width:0.8;" x="53.765625" xlink:href="#m65605a1c68" y="82.632727"/>
      </g>
     </g>
     <g id="text_14">
      <!-- 1.10 -->
      <g transform="translate(24.5 86.431946)scale(0.1 -0.1)">
       <use xlink:href="#DejaVuSans-49"/>
       <use x="63.623047" xlink:href="#DejaVuSans-46"/>
       <use x="95.410156" xlink:href="#DejaVuSans-49"/>
       <use x="159.033203" xlink:href="#DejaVuSans-48"/>
      </g>
     </g>
    </g>
    <g id="ytick_6">
     <g id="line2d_15">
      <g>
       <use style="stroke:#000000;stroke-width:0.8;" x="53.765625" xlink:href="#m65605a1c68" y="56.42383"/>
      </g>
     </g>
     <g id="text_15">
      <!-- 1.15 -->
      <g transform="translate(24.5 60.223048)scale(0.1 -0.1)">
       <use xlink:href="#DejaVuSans-49"/>
       <use x="63.623047" xlink:href="#DejaVuSans-46"/>
       <use x="95.410156" xlink:href="#DejaVuSans-49"/>
       <use x="159.033203" xlink:href="#DejaVuSans-53"/>
      </g>
     </g>
    </g>
    <g id="text_16">
     <!-- Current $I_k, k \in \{1,..,5\}$ -->
     <g transform="translate(18.420313 174.555938)rotate(-90)scale(0.1 -0.1)">
      <defs>
       <path d="M 64.40625 67.28125 
L 64.40625 56.890625 
Q 59.421875 61.53125 53.78125 63.8125 
Q 48.140625 66.109375 41.796875 66.109375 
Q 29.296875 66.109375 22.65625 58.46875 
Q 16.015625 50.828125 16.015625 36.375 
Q 16.015625 21.96875 22.65625 14.328125 
Q 29.296875 6.6875 41.796875 6.6875 
Q 48.140625 6.6875 53.78125 8.984375 
Q 59.421875 11.28125 64.40625 15.921875 
L 64.40625 5.609375 
Q 59.234375 2.09375 53.4375 0.328125 
Q 47.65625 -1.421875 41.21875 -1.421875 
Q 24.65625 -1.421875 15.125 8.703125 
Q 5.609375 18.84375 5.609375 36.375 
Q 5.609375 53.953125 15.125 64.078125 
Q 24.65625 74.21875 41.21875 74.21875 
Q 47.75 74.21875 53.53125 72.484375 
Q 59.328125 70.75 64.40625 67.28125 
z
" id="DejaVuSans-67"/>
       <path d="M 8.5 21.578125 
L 8.5 54.6875 
L 17.484375 54.6875 
L 17.484375 21.921875 
Q 17.484375 14.15625 20.5 10.265625 
Q 23.53125 6.390625 29.59375 6.390625 
Q 36.859375 6.390625 41.078125 11.03125 
Q 45.3125 15.671875 45.3125 23.6875 
L 45.3125 54.6875 
L 54.296875 54.6875 
L 54.296875 0 
L 45.3125 0 
L 45.3125 8.40625 
Q 42.046875 3.421875 37.71875 1 
Q 33.40625 -1.421875 27.6875 -1.421875 
Q 18.265625 -1.421875 13.375 4.4375 
Q 8.5 10.296875 8.5 21.578125 
z
M 31.109375 56 
z
" id="DejaVuSans-117"/>
       <path d="M 41.109375 46.296875 
Q 39.59375 47.171875 37.8125 47.578125 
Q 36.03125 48 33.890625 48 
Q 26.265625 48 22.1875 43.046875 
Q 18.109375 38.09375 18.109375 28.8125 
L 18.109375 0 
L 9.078125 0 
L 9.078125 54.6875 
L 18.109375 54.6875 
L 18.109375 46.1875 
Q 20.953125 51.171875 25.484375 53.578125 
Q 30.03125 56 36.53125 56 
Q 37.453125 56 38.578125 55.875 
Q 39.703125 55.765625 41.0625 55.515625 
z
" id="DejaVuSans-114"/>
       <path d="M 56.203125 29.59375 
L 56.203125 25.203125 
L 14.890625 25.203125 
Q 15.484375 15.921875 20.484375 11.0625 
Q 25.484375 6.203125 34.421875 6.203125 
Q 39.59375 6.203125 44.453125 7.46875 
Q 49.3125 8.734375 54.109375 11.28125 
L 54.109375 2.78125 
Q 49.265625 0.734375 44.1875 -0.34375 
Q 39.109375 -1.421875 33.890625 -1.421875 
Q 20.796875 -1.421875 13.15625 6.1875 
Q 5.515625 13.8125 5.515625 26.8125 
Q 5.515625 40.234375 12.765625 48.109375 
Q 20.015625 56 32.328125 56 
Q 43.359375 56 49.78125 48.890625 
Q 56.203125 41.796875 56.203125 29.59375 
z
M 47.21875 32.234375 
Q 47.125 39.59375 43.09375 43.984375 
Q 39.0625 48.390625 32.421875 48.390625 
Q 24.90625 48.390625 20.390625 44.140625 
Q 15.875 39.890625 15.1875 32.171875 
z
" id="DejaVuSans-101"/>
       <path d="M 54.890625 33.015625 
L 54.890625 0 
L 45.90625 0 
L 45.90625 32.71875 
Q 45.90625 40.484375 42.875 44.328125 
Q 39.84375 48.1875 33.796875 48.1875 
Q 26.515625 48.1875 22.3125 43.546875 
Q 18.109375 38.921875 18.109375 30.90625 
L 18.109375 0 
L 9.078125 0 
L 9.078125 54.6875 
L 18.109375 54.6875 
L 18.109375 46.1875 
Q 21.34375 51.125 25.703125 53.5625 
Q 30.078125 56 35.796875 56 
Q 45.21875 56 50.046875 50.171875 
Q 54.890625 44.34375 54.890625 33.015625 
z
" id="DejaVuSans-110"/>
       <path d="M 18.3125 70.21875 
L 18.3125 54.6875 
L 36.8125 54.6875 
L 36.8125 47.703125 
L 18.3125 47.703125 
L 18.3125 18.015625 
Q 18.3125 11.328125 20.140625 9.421875 
Q 21.96875 7.515625 27.59375 7.515625 
L 36.8125 7.515625 
L 36.8125 0 
L 27.59375 0 
Q 17.1875 0 13.234375 3.875 
Q 9.28125 7.765625 9.28125 18.015625 
L 9.28125 47.703125 
L 2.6875 47.703125 
L 2.6875 54.6875 
L 9.28125 54.6875 
L 9.28125 70.21875 
z
" id="DejaVuSans-116"/>
       <path id="DejaVuSans-32"/>
       <path d="M 16.890625 72.90625 
L 26.8125 72.90625 
L 12.59375 0 
L 2.6875 0 
z
" id="DejaVuSans-Oblique-73"/>
       <path d="M 18.3125 75.984375 
L 27.296875 75.984375 
L 18.703125 31.6875 
L 49.515625 54.6875 
L 61.1875 54.6875 
L 26.8125 28.515625 
L 51.90625 0 
L 41.015625 0 
L 17.671875 26.703125 
L 12.5 0 
L 3.515625 0 
z
" id="DejaVuSans-Oblique-107"/>
       <path d="M 11.71875 12.40625 
L 22.015625 12.40625 
L 22.015625 4 
L 14.015625 -11.625 
L 7.71875 -11.625 
L 11.71875 4 
z
" id="DejaVuSans-44"/>
       <path d="M 16.75 30.609375 
Q 17.09375 27 20.171875 21.140625 
Q 23.78125 14.359375 30.609375 10.546875 
Q 37.3125 6.84375 44.53125 6.78125 
L 78.5625 6.78125 
L 78.5625 -0.984375 
L 44.53125 -0.984375 
Q 35.15625 -0.984375 26.484375 3.84375 
Q 17.828125 8.6875 13.1875 17.28125 
Q 8.546875 25.875 8.546875 35.015625 
Q 8.546875 44.046875 13.1875 52.640625 
Q 17.828125 61.234375 26.484375 66.109375 
Q 35.15625 71 44.53125 71 
L 78.5625 71 
L 78.5625 63.234375 
L 44.53125 63.234375 
Q 37.3125 63.1875 30.609375 59.421875 
Q 23.828125 55.5625 20.171875 48.828125 
Q 17.046875 42.96875 16.609375 38.421875 
L 78.5625 38.421875 
L 78.5625 30.609375 
z
" id="DejaVuSans-8712"/>
       <path d="M 51.125 -9.28125 
L 51.125 -16.3125 
L 48.09375 -16.3125 
Q 35.9375 -16.3125 31.8125 -12.6875 
Q 27.6875 -9.078125 27.6875 1.703125 
L 27.6875 13.375 
Q 27.6875 20.75 25.046875 23.578125 
Q 22.40625 26.421875 15.484375 26.421875 
L 12.5 26.421875 
L 12.5 33.40625 
L 15.484375 33.40625 
Q 22.46875 33.40625 25.078125 36.203125 
Q 27.6875 39.015625 27.6875 46.296875 
L 27.6875 58.015625 
Q 27.6875 68.796875 31.8125 72.390625 
Q 35.9375 75.984375 48.09375 75.984375 
L 51.125 75.984375 
L 51.125 69 
L 47.796875 69 
Q 40.921875 69 38.8125 66.84375 
Q 36.71875 64.703125 36.71875 57.8125 
L 36.71875 45.703125 
Q 36.71875 38.03125 34.5 34.5625 
Q 32.28125 31.109375 26.90625 29.890625 
Q 32.328125 28.5625 34.515625 25.09375 
Q 36.71875 21.625 36.71875 14.015625 
L 36.71875 1.90625 
Q 36.71875 -4.984375 38.8125 -7.125 
Q 40.921875 -9.28125 47.796875 -9.28125 
z
" id="DejaVuSans-123"/>
       <path d="M 12.5 -9.28125 
L 15.921875 -9.28125 
Q 22.75 -9.28125 24.828125 -7.171875 
Q 26.90625 -5.078125 26.90625 1.90625 
L 26.90625 14.015625 
Q 26.90625 21.625 29.09375 25.09375 
Q 31.296875 28.5625 36.71875 29.890625 
Q 31.296875 31.109375 29.09375 34.5625 
Q 26.90625 38.03125 26.90625 45.703125 
L 26.90625 57.8125 
Q 26.90625 64.75 24.828125 66.875 
Q 22.75 69 15.921875 69 
L 12.5 69 
L 12.5 75.984375 
L 15.578125 75.984375 
Q 27.734375 75.984375 31.8125 72.390625 
Q 35.890625 68.796875 35.890625 58.015625 
L 35.890625 46.296875 
Q 35.890625 39.015625 38.515625 36.203125 
Q 41.15625 33.40625 48.09375 33.40625 
L 51.125 33.40625 
L 51.125 26.421875 
L 48.09375 26.421875 
Q 41.15625 26.421875 38.515625 23.578125 
Q 35.890625 20.75 35.890625 13.375 
L 35.890625 1.703125 
Q 35.890625 -9.078125 31.8125 -12.6875 
Q 27.734375 -16.3125 15.578125 -16.3125 
L 12.5 -16.3125 
z
" id="DejaVuSans-125"/>
      </defs>
      <use transform="translate(0 0.015625)" xlink:href="#DejaVuSans-67"/>
      <use transform="translate(69.824219 0.015625)" xlink:href="#DejaVuSans-117"/>
      <use transform="translate(133.203125 0.015625)" xlink:href="#DejaVuSans-114"/>
      <use transform="translate(174.316406 0.015625)" xlink:href="#DejaVuSans-114"/>
      <use transform="translate(215.429688 0.015625)" xlink:href="#DejaVuSans-101"/>
      <use transform="translate(276.953125 0.015625)" xlink:href="#DejaVuSans-110"/>
      <use transform="translate(340.332031 0.015625)" xlink:href="#DejaVuSans-116"/>
      <use transform="translate(379.541016 0.015625)" xlink:href="#DejaVuSans-32"/>
      <use transform="translate(411.328125 0.015625)" xlink:href="#DejaVuSans-Oblique-73"/>
      <use transform="translate(440.820312 -16.390625)scale(0.7)" xlink:href="#DejaVuSans-Oblique-107"/>
      <use transform="translate(484.091797 0.015625)" xlink:href="#DejaVuSans-44"/>
      <use transform="translate(535.361328 0.015625)" xlink:href="#DejaVuSans-Oblique-107"/>
      <use transform="translate(612.753906 0.015625)" xlink:href="#DejaVuSans-8712"/>
      <use transform="translate(719.345703 0.015625)" xlink:href="#DejaVuSans-123"/>
      <use transform="translate(782.96875 0.015625)" xlink:href="#DejaVuSans-49"/>
      <use transform="translate(846.591797 0.015625)" xlink:href="#DejaVuSans-44"/>
      <use transform="translate(897.861328 0.015625)" xlink:href="#DejaVuSans-46"/>
      <use transform="translate(949.130859 0.015625)" xlink:href="#DejaVuSans-46"/>
      <use transform="translate(1000.400391 0.015625)" xlink:href="#DejaVuSans-44"/>
      <use transform="translate(1051.669922 0.015625)" xlink:href="#DejaVuSans-53"/>
      <use transform="translate(1113.542969 0.015625)" xlink:href="#DejaVuSans-125"/>
     </g>
    </g>
   </g>
   <g id="line2d_16">
    <path clip-path="url(#pc448f918c7)" d="M 100.803551 187.468316 
L 453.587997 187.468316 
L 453.700888 82.632727 
L 688.777628 82.632727 
L 688.890519 187.468316 
L 1041.562074 187.468316 
L 1041.562074 187.468316 
" style="fill:none;stroke:#aa3863;stroke-linecap:square;stroke-opacity:0.75;stroke-width:1.5;"/>
   </g>
   <g id="line2d_17">
    <path clip-path="url(#pc448f918c7)" d="M 100.803551 176.984757 
L 453.587997 176.984757 
L 453.700888 72.149168 
L 688.777628 72.149168 
L 688.890519 176.984757 
L 1041.562074 176.984757 
L 1041.562074 176.984757 
" style="fill:none;stroke:#d97020;stroke-linecap:square;stroke-opacity:0.75;stroke-width:1.5;"/>
   </g>
   <g id="line2d_18">
    <path clip-path="url(#pc448f918c7)" d="M 100.803551 166.501198 
L 453.587997 166.501198 
L 453.700888 61.665609 
L 688.777628 61.665609 
L 688.890519 166.501198 
L 1041.562074 166.501198 
L 1041.562074 166.501198 
" style="fill:none;stroke:#ef9f07;stroke-linecap:square;stroke-opacity:0.75;stroke-width:1.5;"/>
   </g>
   <g id="line2d_19">
    <path clip-path="url(#pc448f918c7)" d="M 100.803551 156.017639 
L 453.587997 156.017639 
L 453.700888 51.18205 
L 688.777628 51.18205 
L 688.890519 156.017639 
L 1041.562074 156.017639 
L 1041.562074 156.017639 
" style="fill:none;stroke:#449775;stroke-linecap:square;stroke-opacity:0.75;stroke-width:1.5;"/>
   </g>
   <g id="line2d_20">
    <path clip-path="url(#pc448f918c7)" d="M 100.803551 145.53408 
L 453.587997 145.53408 
L 453.700888 40.698491 
L 688.777628 40.698491 
L 688.890519 145.53408 
L 1041.562074 145.53408 
L 1041.562074 145.53408 
" style="fill:none;stroke:#3b7d86;stroke-linecap:square;stroke-opacity:0.75;stroke-width:1.5;"/>
   </g>
   <g id="patch_3">
    <path d="M 53.765625 197.951875 
L 53.765625 33.36 
" style="fill:none;stroke:#000000;stroke-linecap:square;stroke-linejoin:miter;stroke-width:0.8;"/>
   </g>
   <g id="patch_4">
    <path d="M 1088.6 197.951875 
L 1088.6 33.36 
" style="fill:none;stroke:#000000;stroke-linecap:square;stroke-linejoin:miter;stroke-width:0.8;"/>
   </g>
   <g id="patch_5">
    <path d="M 53.765625 197.951875 
L 1088.6 197.951875 
" style="fill:none;stroke:#000000;stroke-linecap:square;stroke-linejoin:miter;stroke-width:0.8;"/>
   </g>
   <g id="patch_6">
    <path d="M 53.765625 33.36 
L 1088.6 33.36 
" style="fill:none;stroke:#000000;stroke-linecap:square;stroke-linejoin:miter;stroke-width:0.8;"/>
   </g>
   <g id="legend_1">
    <g id="patch_7">
     <path d="M 1096.228805 114.750625 
L 1135.928805 114.750625 
Q 1137.928805 114.750625 1137.928805 112.750625 
L 1137.928805 40.36 
Q 1137.928805 38.36 1135.928805 38.36 
L 1096.228805 38.36 
Q 1094.228805 38.36 1094.228805 40.36 
L 1094.228805 112.750625 
Q 1094.228805 114.750625 1096.228805 114.750625 
z
" style="fill:#ffffff;opacity:0.8;stroke:#cccccc;stroke-linejoin:miter;"/>
    </g>
    <g id="line2d_21">
     <path d="M 1098.228805 46.458438 
L 1118.228805 46.458438 
" style="fill:none;stroke:#aa3863;stroke-linecap:square;stroke-opacity:0.75;stroke-width:1.5;"/>
    </g>
    <g id="line2d_22"/>
    <g id="text_17">
     <!-- $I_1$ -->
     <g transform="translate(1126.228805 49.958438)scale(0.1 -0.1)">
      <use transform="translate(0 0.09375)" xlink:href="#DejaVuSans-Oblique-73"/>
      <use transform="translate(29.492188 -16.3125)scale(0.7)" xlink:href="#DejaVuSans-49"/>
     </g>
    </g>
    <g id="line2d_23">
     <path d="M 1098.228805 61.136563 
L 1118.228805 61.136563 
" style="fill:none;stroke:#d97020;stroke-linecap:square;stroke-opacity:0.75;stroke-width:1.5;"/>
    </g>
    <g id="line2d_24"/>
    <g id="text_18">
     <!-- $I_2$ -->
     <g transform="translate(1126.228805 64.636563)scale(0.1 -0.1)">
      <use transform="translate(0 0.09375)" xlink:href="#DejaVuSans-Oblique-73"/>
      <use transform="translate(29.492188 -16.3125)scale(0.7)" xlink:href="#DejaVuSans-50"/>
     </g>
    </g>
    <g id="line2d_25">
     <path d="M 1098.228805 75.814687 
L 1118.228805 75.814687 
" style="fill:none;stroke:#ef9f07;stroke-linecap:square;stroke-opacity:0.75;stroke-width:1.5;"/>
    </g>
    <g id="line2d_26"/>
    <g id="text_19">
     <!-- $I_3$ -->
     <g transform="translate(1126.228805 79.314687)scale(0.1 -0.1)">
      <use transform="translate(0 0.09375)" xlink:href="#DejaVuSans-Oblique-73"/>
      <use transform="translate(29.492188 -16.3125)scale(0.7)" xlink:href="#DejaVuSans-51"/>
     </g>
    </g>
    <g id="line2d_27">
     <path d="M 1098.228805 90.492813 
L 1118.228805 90.492813 
" style="fill:none;stroke:#449775;stroke-linecap:square;stroke-opacity:0.75;stroke-width:1.5;"/>
    </g>
    <g id="line2d_28"/>
    <g id="text_20">
     <!-- $I_4$ -->
     <g transform="translate(1126.228805 93.992813)scale(0.1 -0.1)">
      <use transform="translate(0 0.09375)" xlink:href="#DejaVuSans-Oblique-73"/>
      <use transform="translate(29.492188 -16.3125)scale(0.7)" xlink:href="#DejaVuSans-52"/>
     </g>
    </g>
    <g id="line2d_29">
     <path d="M 1098.228805 105.170938 
L 1118.228805 105.170938 
" style="fill:none;stroke:#3b7d86;stroke-linecap:square;stroke-opacity:0.75;stroke-width:1.5;"/>
    </g>
    <g id="line2d_30"/>
    <g id="text_21">
     <!-- $I_5$ -->
     <g transform="translate(1126.228805 108.670938)scale(0.1 -0.1)">
      <use transform="translate(0 0.09375)" xlink:href="#DejaVuSans-Oblique-73"/>
      <use transform="translate(29.492188 -16.3125)scale(0.7)" xlink:href="#DejaVuSans-53"/>
     </g>
    </g>
   </g>
  </g>
  <g id="axes_2">
   <g id="patch_8">
    <path d="M 53.765625 390.021875 
L 1088.6 390.021875 
L 1088.6 225.43 
L 53.765625 225.43 
z
" style="fill:#ffffff;"/>
   </g>
   <g id="matplotlib.axis_3">
    <g id="xtick_10">
     <g id="line2d_31">
      <g>
       <use style="stroke:#000000;stroke-width:0.8;" x="100.803551" xlink:href="#mf4d41c39bf" y="390.021875"/>
      </g>
     </g>
     <g id="text_22">
      <!-- 0 -->
      <g transform="translate(97.622301 404.620312)scale(0.1 -0.1)">
       <use xlink:href="#DejaVuSans-48"/>
      </g>
     </g>
    </g>
    <g id="xtick_11">
     <g id="line2d_32">
      <g>
       <use style="stroke:#000000;stroke-width:0.8;" x="218.398366" xlink:href="#mf4d41c39bf" y="390.021875"/>
      </g>
     </g>
     <g id="text_23">
      <!-- 5 -->
      <g transform="translate(215.217116 404.620312)scale(0.1 -0.1)">
       <use xlink:href="#DejaVuSans-53"/>
      </g>
     </g>
    </g>
    <g id="xtick_12">
     <g id="line2d_33">
      <g>
       <use style="stroke:#000000;stroke-width:0.8;" x="335.993182" xlink:href="#mf4d41c39bf" y="390.021875"/>
      </g>
     </g>
     <g id="text_24">
      <!-- 10 -->
      <g transform="translate(329.630682 404.620312)scale(0.1 -0.1)">
       <use xlink:href="#DejaVuSans-49"/>
       <use x="63.623047" xlink:href="#DejaVuSans-48"/>
      </g>
     </g>
    </g>
    <g id="xtick_13">
     <g id="line2d_34">
      <g>
       <use style="stroke:#000000;stroke-width:0.8;" x="453.587997" xlink:href="#mf4d41c39bf" y="390.021875"/>
      </g>
     </g>
     <g id="text_25">
      <!-- 15 -->
      <g transform="translate(447.225497 404.620312)scale(0.1 -0.1)">
       <use xlink:href="#DejaVuSans-49"/>
       <use x="63.623047" xlink:href="#DejaVuSans-53"/>
      </g>
     </g>
    </g>
    <g id="xtick_14">
     <g id="line2d_35">
      <g>
       <use style="stroke:#000000;stroke-width:0.8;" x="571.182813" xlink:href="#mf4d41c39bf" y="390.021875"/>
      </g>
     </g>
     <g id="text_26">
      <!-- 20 -->
      <g transform="translate(564.820313 404.620312)scale(0.1 -0.1)">
       <use xlink:href="#DejaVuSans-50"/>
       <use x="63.623047" xlink:href="#DejaVuSans-48"/>
      </g>
     </g>
    </g>
    <g id="xtick_15">
     <g id="line2d_36">
      <g>
       <use style="stroke:#000000;stroke-width:0.8;" x="688.777628" xlink:href="#mf4d41c39bf" y="390.021875"/>
      </g>
     </g>
     <g id="text_27">
      <!-- 25 -->
      <g transform="translate(682.415128 404.620312)scale(0.1 -0.1)">
       <use xlink:href="#DejaVuSans-50"/>
       <use x="63.623047" xlink:href="#DejaVuSans-53"/>
      </g>
     </g>
    </g>
    <g id="xtick_16">
     <g id="line2d_37">
      <g>
       <use style="stroke:#000000;stroke-width:0.8;" x="806.372443" xlink:href="#mf4d41c39bf" y="390.021875"/>
      </g>
     </g>
     <g id="text_28">
      <!-- 30 -->
      <g transform="translate(800.009943 404.620312)scale(0.1 -0.1)">
       <use xlink:href="#DejaVuSans-51"/>
       <use x="63.623047" xlink:href="#DejaVuSans-48"/>
      </g>
     </g>
    </g>
    <g id="xtick_17">
     <g id="line2d_38">
      <g>
       <use style="stroke:#000000;stroke-width:0.8;" x="923.967259" xlink:href="#mf4d41c39bf" y="390.021875"/>
      </g>
     </g>
     <g id="text_29">
      <!-- 35 -->
      <g transform="translate(917.604759 404.620312)scale(0.1 -0.1)">
       <use xlink:href="#DejaVuSans-51"/>
       <use x="63.623047" xlink:href="#DejaVuSans-53"/>
      </g>
     </g>
    </g>
    <g id="xtick_18">
     <g id="line2d_39">
      <g>
       <use style="stroke:#000000;stroke-width:0.8;" x="1041.562074" xlink:href="#mf4d41c39bf" y="390.021875"/>
      </g>
     </g>
     <g id="text_30">
      <!-- 40 -->
      <g transform="translate(1035.199574 404.620312)scale(0.1 -0.1)">
       <use xlink:href="#DejaVuSans-52"/>
       <use x="63.623047" xlink:href="#DejaVuSans-48"/>
      </g>
     </g>
    </g>
    <g id="text_31">
     <!-- Time ($10^{-2}$ seconds) -->
     <g transform="translate(519.532813 419.120312)scale(0.1 -0.1)">
      <defs>
       <path d="M -0.296875 72.90625 
L 61.375 72.90625 
L 61.375 64.59375 
L 35.5 64.59375 
L 35.5 0 
L 25.59375 0 
L 25.59375 64.59375 
L -0.296875 64.59375 
z
" id="DejaVuSans-84"/>
       <path d="M 9.421875 54.6875 
L 18.40625 54.6875 
L 18.40625 0 
L 9.421875 0 
z
M 9.421875 75.984375 
L 18.40625 75.984375 
L 18.40625 64.59375 
L 9.421875 64.59375 
z
" id="DejaVuSans-105"/>
       <path d="M 52 44.1875 
Q 55.375 50.25 60.0625 53.125 
Q 64.75 56 71.09375 56 
Q 79.640625 56 84.28125 50.015625 
Q 88.921875 44.046875 88.921875 33.015625 
L 88.921875 0 
L 79.890625 0 
L 79.890625 32.71875 
Q 79.890625 40.578125 77.09375 44.375 
Q 74.3125 48.1875 68.609375 48.1875 
Q 61.625 48.1875 57.5625 43.546875 
Q 53.515625 38.921875 53.515625 30.90625 
L 53.515625 0 
L 44.484375 0 
L 44.484375 32.71875 
Q 44.484375 40.625 41.703125 44.40625 
Q 38.921875 48.1875 33.109375 48.1875 
Q 26.21875 48.1875 22.15625 43.53125 
Q 18.109375 38.875 18.109375 30.90625 
L 18.109375 0 
L 9.078125 0 
L 9.078125 54.6875 
L 18.109375 54.6875 
L 18.109375 46.1875 
Q 21.1875 51.21875 25.484375 53.609375 
Q 29.78125 56 35.6875 56 
Q 41.65625 56 45.828125 52.96875 
Q 50 49.953125 52 44.1875 
z
" id="DejaVuSans-109"/>
       <path d="M 31 75.875 
Q 24.46875 64.65625 21.28125 53.65625 
Q 18.109375 42.671875 18.109375 31.390625 
Q 18.109375 20.125 21.3125 9.0625 
Q 24.515625 -2 31 -13.1875 
L 23.1875 -13.1875 
Q 15.875 -1.703125 12.234375 9.375 
Q 8.59375 20.453125 8.59375 31.390625 
Q 8.59375 42.28125 12.203125 53.3125 
Q 15.828125 64.359375 23.1875 75.875 
z
" id="DejaVuSans-40"/>
       <path d="M 10.59375 35.5 
L 73.1875 35.5 
L 73.1875 27.203125 
L 10.59375 27.203125 
z
" id="DejaVuSans-8722"/>
       <path d="M 44.28125 53.078125 
L 44.28125 44.578125 
Q 40.484375 46.53125 36.375 47.5 
Q 32.28125 48.484375 27.875 48.484375 
Q 21.1875 48.484375 17.84375 46.4375 
Q 14.5 44.390625 14.5 40.28125 
Q 14.5 37.15625 16.890625 35.375 
Q 19.28125 33.59375 26.515625 31.984375 
L 29.59375 31.296875 
Q 39.15625 29.25 43.1875 25.515625 
Q 47.21875 21.78125 47.21875 15.09375 
Q 47.21875 7.46875 41.1875 3.015625 
Q 35.15625 -1.421875 24.609375 -1.421875 
Q 20.21875 -1.421875 15.453125 -0.5625 
Q 10.6875 0.296875 5.421875 2 
L 5.421875 11.28125 
Q 10.40625 8.6875 15.234375 7.390625 
Q 20.0625 6.109375 24.8125 6.109375 
Q 31.15625 6.109375 34.5625 8.28125 
Q 37.984375 10.453125 37.984375 14.40625 
Q 37.984375 18.0625 35.515625 20.015625 
Q 33.0625 21.96875 24.703125 23.78125 
L 21.578125 24.515625 
Q 13.234375 26.265625 9.515625 29.90625 
Q 5.8125 33.546875 5.8125 39.890625 
Q 5.8125 47.609375 11.28125 51.796875 
Q 16.75 56 26.8125 56 
Q 31.78125 56 36.171875 55.265625 
Q 40.578125 54.546875 44.28125 53.078125 
z
" id="DejaVuSans-115"/>
       <path d="M 48.78125 52.59375 
L 48.78125 44.1875 
Q 44.96875 46.296875 41.140625 47.34375 
Q 37.3125 48.390625 33.40625 48.390625 
Q 24.65625 48.390625 19.8125 42.84375 
Q 14.984375 37.3125 14.984375 27.296875 
Q 14.984375 17.28125 19.8125 11.734375 
Q 24.65625 6.203125 33.40625 6.203125 
Q 37.3125 6.203125 41.140625 7.25 
Q 44.96875 8.296875 48.78125 10.40625 
L 48.78125 2.09375 
Q 45.015625 0.34375 40.984375 -0.53125 
Q 36.96875 -1.421875 32.421875 -1.421875 
Q 20.0625 -1.421875 12.78125 6.34375 
Q 5.515625 14.109375 5.515625 27.296875 
Q 5.515625 40.671875 12.859375 48.328125 
Q 20.21875 56 33.015625 56 
Q 37.15625 56 41.109375 55.140625 
Q 45.0625 54.296875 48.78125 52.59375 
z
" id="DejaVuSans-99"/>
       <path d="M 30.609375 48.390625 
Q 23.390625 48.390625 19.1875 42.75 
Q 14.984375 37.109375 14.984375 27.296875 
Q 14.984375 17.484375 19.15625 11.84375 
Q 23.34375 6.203125 30.609375 6.203125 
Q 37.796875 6.203125 41.984375 11.859375 
Q 46.1875 17.53125 46.1875 27.296875 
Q 46.1875 37.015625 41.984375 42.703125 
Q 37.796875 48.390625 30.609375 48.390625 
z
M 30.609375 56 
Q 42.328125 56 49.015625 48.375 
Q 55.71875 40.765625 55.71875 27.296875 
Q 55.71875 13.875 49.015625 6.21875 
Q 42.328125 -1.421875 30.609375 -1.421875 
Q 18.84375 -1.421875 12.171875 6.21875 
Q 5.515625 13.875 5.515625 27.296875 
Q 5.515625 40.765625 12.171875 48.375 
Q 18.84375 56 30.609375 56 
z
" id="DejaVuSans-111"/>
       <path d="M 45.40625 46.390625 
L 45.40625 75.984375 
L 54.390625 75.984375 
L 54.390625 0 
L 45.40625 0 
L 45.40625 8.203125 
Q 42.578125 3.328125 38.25 0.953125 
Q 33.9375 -1.421875 27.875 -1.421875 
Q 17.96875 -1.421875 11.734375 6.484375 
Q 5.515625 14.40625 5.515625 27.296875 
Q 5.515625 40.1875 11.734375 48.09375 
Q 17.96875 56 27.875 56 
Q 33.9375 56 38.25 53.625 
Q 42.578125 51.265625 45.40625 46.390625 
z
M 14.796875 27.296875 
Q 14.796875 17.390625 18.875 11.75 
Q 22.953125 6.109375 30.078125 6.109375 
Q 37.203125 6.109375 41.296875 11.75 
Q 45.40625 17.390625 45.40625 27.296875 
Q 45.40625 37.203125 41.296875 42.84375 
Q 37.203125 48.484375 30.078125 48.484375 
Q 22.953125 48.484375 18.875 42.84375 
Q 14.796875 37.203125 14.796875 27.296875 
z
" id="DejaVuSans-100"/>
       <path d="M 8.015625 75.875 
L 15.828125 75.875 
Q 23.140625 64.359375 26.78125 53.3125 
Q 30.421875 42.28125 30.421875 31.390625 
Q 30.421875 20.453125 26.78125 9.375 
Q 23.140625 -1.703125 15.828125 -13.1875 
L 8.015625 -13.1875 
Q 14.5 -2 17.703125 9.0625 
Q 20.90625 20.125 20.90625 31.390625 
Q 20.90625 42.671875 17.703125 53.65625 
Q 14.5 64.65625 8.015625 75.875 
z
" id="DejaVuSans-41"/>
      </defs>
      <use transform="translate(0 0.765625)" xlink:href="#DejaVuSans-84"/>
      <use transform="translate(61.083984 0.765625)" xlink:href="#DejaVuSans-105"/>
      <use transform="translate(88.867188 0.765625)" xlink:href="#DejaVuSans-109"/>
      <use transform="translate(186.279297 0.765625)" xlink:href="#DejaVuSans-101"/>
      <use transform="translate(247.802734 0.765625)" xlink:href="#DejaVuSans-32"/>
      <use transform="translate(279.589844 0.765625)" xlink:href="#DejaVuSans-40"/>
      <use transform="translate(318.603516 0.765625)" xlink:href="#DejaVuSans-49"/>
      <use transform="translate(382.226562 0.765625)" xlink:href="#DejaVuSans-48"/>
      <use transform="translate(446.806641 39.046875)scale(0.7)" xlink:href="#DejaVuSans-8722"/>
      <use transform="translate(505.458984 39.046875)scale(0.7)" xlink:href="#DejaVuSans-50"/>
      <use transform="translate(552.729492 0.765625)" xlink:href="#DejaVuSans-32"/>
      <use transform="translate(584.516602 0.765625)" xlink:href="#DejaVuSans-115"/>
      <use transform="translate(636.616211 0.765625)" xlink:href="#DejaVuSans-101"/>
      <use transform="translate(698.139648 0.765625)" xlink:href="#DejaVuSans-99"/>
      <use transform="translate(753.120117 0.765625)" xlink:href="#DejaVuSans-111"/>
      <use transform="translate(814.301758 0.765625)" xlink:href="#DejaVuSans-110"/>
      <use transform="translate(877.680664 0.765625)" xlink:href="#DejaVuSans-100"/>
      <use transform="translate(941.157227 0.765625)" xlink:href="#DejaVuSans-115"/>
      <use transform="translate(993.256836 0.765625)" xlink:href="#DejaVuSans-41"/>
     </g>
    </g>
   </g>
   <g id="matplotlib.axis_4">
    <g id="ytick_7">
     <g id="line2d_40">
      <g>
       <use style="stroke:#000000;stroke-width:0.8;" x="53.765625" xlink:href="#m65605a1c68" y="382.540426"/>
      </g>
     </g>
     <g id="text_32">
      <!-- 0.00 -->
      <g transform="translate(24.5 386.339645)scale(0.1 -0.1)">
       <use xlink:href="#DejaVuSans-48"/>
       <use x="63.623047" xlink:href="#DejaVuSans-46"/>
       <use x="95.410156" xlink:href="#DejaVuSans-48"/>
       <use x="159.033203" xlink:href="#DejaVuSans-48"/>
      </g>
     </g>
    </g>
    <g id="ytick_8">
     <g id="line2d_41">
      <g>
       <use style="stroke:#000000;stroke-width:0.8;" x="53.765625" xlink:href="#m65605a1c68" y="357.602263"/>
      </g>
     </g>
     <g id="text_33">
      <!-- 0.25 -->
      <g transform="translate(24.5 361.401482)scale(0.1 -0.1)">
       <use xlink:href="#DejaVuSans-48"/>
       <use x="63.623047" xlink:href="#DejaVuSans-46"/>
       <use x="95.410156" xlink:href="#DejaVuSans-50"/>
       <use x="159.033203" xlink:href="#DejaVuSans-53"/>
      </g>
     </g>
    </g>
    <g id="ytick_9">
     <g id="line2d_42">
      <g>
       <use style="stroke:#000000;stroke-width:0.8;" x="53.765625" xlink:href="#m65605a1c68" y="332.6641"/>
      </g>
     </g>
     <g id="text_34">
      <!-- 0.50 -->
      <g transform="translate(24.5 336.463319)scale(0.1 -0.1)">
       <use xlink:href="#DejaVuSans-48"/>
       <use x="63.623047" xlink:href="#DejaVuSans-46"/>
       <use x="95.410156" xlink:href="#DejaVuSans-53"/>
       <use x="159.033203" xlink:href="#DejaVuSans-48"/>
      </g>
     </g>
    </g>
    <g id="ytick_10">
     <g id="line2d_43">
      <g>
       <use style="stroke:#000000;stroke-width:0.8;" x="53.765625" xlink:href="#m65605a1c68" y="307.725937"/>
      </g>
     </g>
     <g id="text_35">
      <!-- 0.75 -->
      <g transform="translate(24.5 311.525156)scale(0.1 -0.1)">
       <defs>
        <path d="M 8.203125 72.90625 
L 55.078125 72.90625 
L 55.078125 68.703125 
L 28.609375 0 
L 18.3125 0 
L 43.21875 64.59375 
L 8.203125 64.59375 
z
" id="DejaVuSans-55"/>
       </defs>
       <use xlink:href="#DejaVuSans-48"/>
       <use x="63.623047" xlink:href="#DejaVuSans-46"/>
       <use x="95.410156" xlink:href="#DejaVuSans-55"/>
       <use x="159.033203" xlink:href="#DejaVuSans-53"/>
      </g>
     </g>
    </g>
    <g id="ytick_11">
     <g id="line2d_44">
      <g>
       <use style="stroke:#000000;stroke-width:0.8;" x="53.765625" xlink:href="#m65605a1c68" y="282.787775"/>
      </g>
     </g>
     <g id="text_36">
      <!-- 1.00 -->
      <g transform="translate(24.5 286.586993)scale(0.1 -0.1)">
       <use xlink:href="#DejaVuSans-49"/>
       <use x="63.623047" xlink:href="#DejaVuSans-46"/>
       <use x="95.410156" xlink:href="#DejaVuSans-48"/>
       <use x="159.033203" xlink:href="#DejaVuSans-48"/>
      </g>
     </g>
    </g>
    <g id="ytick_12">
     <g id="line2d_45">
      <g>
       <use style="stroke:#000000;stroke-width:0.8;" x="53.765625" xlink:href="#m65605a1c68" y="257.849612"/>
      </g>
     </g>
     <g id="text_37">
      <!-- 1.25 -->
      <g transform="translate(24.5 261.64883)scale(0.1 -0.1)">
       <use xlink:href="#DejaVuSans-49"/>
       <use x="63.623047" xlink:href="#DejaVuSans-46"/>
       <use x="95.410156" xlink:href="#DejaVuSans-50"/>
       <use x="159.033203" xlink:href="#DejaVuSans-53"/>
      </g>
     </g>
    </g>
    <g id="ytick_13">
     <g id="line2d_46">
      <g>
       <use style="stroke:#000000;stroke-width:0.8;" x="53.765625" xlink:href="#m65605a1c68" y="232.911449"/>
      </g>
     </g>
     <g id="text_38">
      <!-- 1.50 -->
      <g transform="translate(24.5 236.710668)scale(0.1 -0.1)">
       <use xlink:href="#DejaVuSans-49"/>
       <use x="63.623047" xlink:href="#DejaVuSans-46"/>
       <use x="95.410156" xlink:href="#DejaVuSans-53"/>
       <use x="159.033203" xlink:href="#DejaVuSans-48"/>
      </g>
     </g>
    </g>
    <g id="text_39">
     <!-- Voltage $V_k, k \in \{1,..,5\}$ -->
     <g transform="translate(18.4 368.725937)rotate(-90)scale(0.1 -0.1)">
      <defs>
       <path d="M 28.609375 0 
L 0.78125 72.90625 
L 11.078125 72.90625 
L 34.1875 11.53125 
L 57.328125 72.90625 
L 67.578125 72.90625 
L 39.796875 0 
z
" id="DejaVuSans-86"/>
       <path d="M 9.421875 75.984375 
L 18.40625 75.984375 
L 18.40625 0 
L 9.421875 0 
z
" id="DejaVuSans-108"/>
       <path d="M 34.28125 27.484375 
Q 23.390625 27.484375 19.1875 25 
Q 14.984375 22.515625 14.984375 16.5 
Q 14.984375 11.71875 18.140625 8.90625 
Q 21.296875 6.109375 26.703125 6.109375 
Q 34.1875 6.109375 38.703125 11.40625 
Q 43.21875 16.703125 43.21875 25.484375 
L 43.21875 27.484375 
z
M 52.203125 31.203125 
L 52.203125 0 
L 43.21875 0 
L 43.21875 8.296875 
Q 40.140625 3.328125 35.546875 0.953125 
Q 30.953125 -1.421875 24.3125 -1.421875 
Q 15.921875 -1.421875 10.953125 3.296875 
Q 6 8.015625 6 15.921875 
Q 6 25.140625 12.171875 29.828125 
Q 18.359375 34.515625 30.609375 34.515625 
L 43.21875 34.515625 
L 43.21875 35.40625 
Q 43.21875 41.609375 39.140625 45 
Q 35.0625 48.390625 27.6875 48.390625 
Q 23 48.390625 18.546875 47.265625 
Q 14.109375 46.140625 10.015625 43.890625 
L 10.015625 52.203125 
Q 14.9375 54.109375 19.578125 55.046875 
Q 24.21875 56 28.609375 56 
Q 40.484375 56 46.34375 49.84375 
Q 52.203125 43.703125 52.203125 31.203125 
z
" id="DejaVuSans-97"/>
       <path d="M 45.40625 27.984375 
Q 45.40625 37.75 41.375 43.109375 
Q 37.359375 48.484375 30.078125 48.484375 
Q 22.859375 48.484375 18.828125 43.109375 
Q 14.796875 37.75 14.796875 27.984375 
Q 14.796875 18.265625 18.828125 12.890625 
Q 22.859375 7.515625 30.078125 7.515625 
Q 37.359375 7.515625 41.375 12.890625 
Q 45.40625 18.265625 45.40625 27.984375 
z
M 54.390625 6.78125 
Q 54.390625 -7.171875 48.1875 -13.984375 
Q 42 -20.796875 29.203125 -20.796875 
Q 24.46875 -20.796875 20.265625 -20.09375 
Q 16.0625 -19.390625 12.109375 -17.921875 
L 12.109375 -9.1875 
Q 16.0625 -11.328125 19.921875 -12.34375 
Q 23.78125 -13.375 27.78125 -13.375 
Q 36.625 -13.375 41.015625 -8.765625 
Q 45.40625 -4.15625 45.40625 5.171875 
L 45.40625 9.625 
Q 42.625 4.78125 38.28125 2.390625 
Q 33.9375 0 27.875 0 
Q 17.828125 0 11.671875 7.65625 
Q 5.515625 15.328125 5.515625 27.984375 
Q 5.515625 40.671875 11.671875 48.328125 
Q 17.828125 56 27.875 56 
Q 33.9375 56 38.28125 53.609375 
Q 42.625 51.21875 45.40625 46.390625 
L 45.40625 54.6875 
L 54.390625 54.6875 
z
" id="DejaVuSans-103"/>
       <path d="M 20.609375 0 
L 7.8125 72.90625 
L 17.484375 72.90625 
L 28.078125 10.203125 
L 63.484375 72.90625 
L 74.21875 72.90625 
L 32.078125 0 
z
" id="DejaVuSans-Oblique-86"/>
      </defs>
      <use transform="translate(0 0.015625)" xlink:href="#DejaVuSans-86"/>
      <use transform="translate(68.408203 0.015625)" xlink:href="#DejaVuSans-111"/>
      <use transform="translate(129.589844 0.015625)" xlink:href="#DejaVuSans-108"/>
      <use transform="translate(157.373047 0.015625)" xlink:href="#DejaVuSans-116"/>
      <use transform="translate(196.582031 0.015625)" xlink:href="#DejaVuSans-97"/>
      <use transform="translate(257.861328 0.015625)" xlink:href="#DejaVuSans-103"/>
      <use transform="translate(321.337891 0.015625)" xlink:href="#DejaVuSans-101"/>
      <use transform="translate(382.861328 0.015625)" xlink:href="#DejaVuSans-32"/>
      <use transform="translate(414.648438 0.015625)" xlink:href="#DejaVuSans-Oblique-86"/>
      <use transform="translate(483.056641 -16.390625)scale(0.7)" xlink:href="#DejaVuSans-Oblique-107"/>
      <use transform="translate(526.328125 0.015625)" xlink:href="#DejaVuSans-44"/>
      <use transform="translate(577.597656 0.015625)" xlink:href="#DejaVuSans-Oblique-107"/>
      <use transform="translate(654.990234 0.015625)" xlink:href="#DejaVuSans-8712"/>
      <use transform="translate(761.582031 0.015625)" xlink:href="#DejaVuSans-123"/>
      <use transform="translate(825.205078 0.015625)" xlink:href="#DejaVuSans-49"/>
      <use transform="translate(888.828125 0.015625)" xlink:href="#DejaVuSans-44"/>
      <use transform="translate(940.097656 0.015625)" xlink:href="#DejaVuSans-46"/>
      <use transform="translate(991.367188 0.015625)" xlink:href="#DejaVuSans-46"/>
      <use transform="translate(1042.636719 0.015625)" xlink:href="#DejaVuSans-44"/>
      <use transform="translate(1093.90625 0.015625)" xlink:href="#DejaVuSans-53"/>
      <use transform="translate(1155.779297 0.015625)" xlink:href="#DejaVuSans-125"/>
     </g>
    </g>
   </g>
   <g id="line2d_47">
    <path clip-path="url(#p852bd2e442)" d="M 100.803551 382.540426 
L 103.167207 373.956371 
L 105.535567 366.178398 
L 107.791035 359.464945 
L 110.138228 353.129454 
L 112.75824 346.765734 
L 114.839668 342.191875 
L 117.081025 337.698716 
L 119.576387 333.175333 
L 121.810689 329.512814 
L 124.957526 324.910526 
L 127.043658 322.181792 
L 130.112883 318.582617 
L 132.716432 315.876926 
L 135.686877 313.134427 
L 139.120646 310.367188 
L 141.691268 308.544408 
L 146.390357 305.686395 
L 149.678308 304.000276 
L 153.890555 302.157645 
L 156.505863 301.168896 
L 162.075154 299.396491 
L 169.911672 297.516752 
L 181.412445 295.678211 
L 187.567358 295.006976 
L 199.209245 294.130848 
L 221.667502 293.289435 
L 227.241497 293.17841 
L 231.477262 293.10988 
L 240.557933 292.998855 
L 243.918793 292.967433 
L 262.355308 292.856408 
L 265.229326 292.845635 
L 453.620924 292.735508 
L 456.487885 290.449078 
L 459.093786 288.599264 
L 463.804635 285.73377 
L 467.087882 284.050244 
L 469.399796 282.998053 
L 469.88899 282.788373 
L 469.891342 382.536611 
L 470.001881 382.022117 
L 472.353778 371.629481 
L 474.724489 362.154276 
L 476.975254 354.000594 
L 479.461208 345.856987 
L 481.916588 338.615743 
L 484.299059 332.276362 
L 486.96611 325.901469 
L 489.49675 320.485698 
L 491.850998 315.944658 
L 494.468659 311.401623 
L 496.799388 307.760751 
L 499.377066 304.132847 
L 502.302825 300.469231 
L 504.744094 297.742393 
L 507.46759 295.016452 
L 510.579148 292.264875 
L 514.203421 289.486863 
L 516.886934 287.688822 
L 519.9444 285.875319 
L 523.486355 284.049047 
L 526.285112 282.788373 
L 526.287464 382.536093 
L 526.398003 382.021602 
L 528.749899 371.628982 
L 531.120611 362.153877 
L 533.371376 354.000295 
L 535.572751 346.745883 
L 537.9905 339.523093 
L 540.716348 332.222595 
L 543.359879 325.906557 
L 545.892872 320.485499 
L 548.24712 315.944459 
L 550.86478 311.401424 
L 553.19551 307.760651 
L 555.773188 304.132747 
L 558.698947 300.469132 
L 561.140215 297.742293 
L 563.863711 295.016352 
L 566.97527 292.264775 
L 570.599542 289.486764 
L 573.283056 287.688722 
L 576.340521 285.875219 
L 579.882477 284.048947 
L 582.681234 282.788373 
L 582.683585 382.535574 
L 582.794125 382.021086 
L 585.146021 371.628484 
L 587.516732 362.153378 
L 590.033261 353.087658 
L 592.255803 345.849007 
L 594.708831 338.615144 
L 597.091302 332.275863 
L 599.351475 326.827373 
L 601.844485 321.394844 
L 604.154047 316.850811 
L 606.710558 312.314859 
L 608.991898 308.663114 
L 611.496667 305.041294 
L 614.325998 301.388253 
L 617.581023 297.694911 
L 620.259833 295.016253 
L 622.388299 293.095017 
L 625.704473 290.427631 
L 629.789717 287.618895 
L 632.743698 285.871229 
L 636.278598 284.048947 
L 638.588161 282.997953 
L 639.077355 282.788273 
L 639.079707 382.535056 
L 639.190246 382.02057 
L 641.542142 371.628085 
L 643.912854 362.152979 
L 646.429383 353.087259 
L 648.651925 345.848708 
L 651.104953 338.614845 
L 653.487424 332.275564 
L 655.747596 326.827174 
L 657.833728 322.242342 
L 660.561928 316.828566 
L 663.10668 312.314659 
L 665.388019 308.662914 
L 667.892789 305.041095 
L 670.72212 301.388153 
L 673.092831 298.648147 
L 675.710492 295.926895 
L 678.680937 293.184395 
L 680.962276 291.301165 
L 683.38473 289.491552 
L 687.719275 286.684313 
L 688.90463 286.109538 
L 692.340751 287.013995 
L 702.028212 288.954883 
L 706.86371 289.662628 
L 714.495614 290.521797 
L 726.097518 291.394533 
L 748.576943 292.236845 
L 754.153289 292.347869 
L 758.386703 292.4163 
L 767.467374 292.527324 
L 770.828234 292.558746 
L 789.281213 292.669771 
L 792.15523 292.680544 
L 1041.562074 292.76304 
L 1041.562074 292.76304 
" style="fill:none;stroke:#aa3863;stroke-linecap:square;stroke-opacity:0.75;stroke-width:1.5;"/>
   </g>
   <g id="line2d_48">
    <path clip-path="url(#p852bd2e442)" d="M 100.803551 352.614631 
L 103.207189 346.606129 
L 105.617883 341.166318 
L 107.847481 336.608021 
L 110.288749 332.088428 
L 113.040468 327.526041 
L 115.479384 323.905219 
L 118.219343 320.261155 
L 120.524202 317.507882 
L 124.049694 313.785512 
L 126.916656 311.143962 
L 130.35748 308.370739 
L 134.421557 305.577365 
L 137.380243 303.826706 
L 140.915143 302.004425 
L 143.224705 300.953431 
L 147.505156 299.258533 
L 153.389601 297.379094 
L 161.106172 295.529979 
L 165.34429 294.744726 
L 171.085268 293.883362 
L 178.846526 293.007733 
L 190.427264 292.136793 
L 212.916096 291.294082 
L 218.492442 291.183058 
L 222.725856 291.114627 
L 231.813583 291.003603 
L 235.174443 290.97218 
L 253.641533 290.861156 
L 256.51555 290.850382 
L 453.620924 290.740455 
L 456.487885 288.454024 
L 459.093786 286.604211 
L 461.965452 284.789711 
L 465.248699 282.969225 
L 465.601483 282.788273 
L 465.603835 382.534085 
L 465.714375 382.010249 
L 468.063919 371.438954 
L 470.387592 361.972826 
L 472.850028 352.911495 
L 475.30776 344.765693 
L 477.730213 337.528139 
L 480.079757 331.185866 
L 482.307003 325.731291 
L 484.752975 320.307241 
L 487.022555 315.754629 
L 489.517917 311.231046 
L 491.752219 307.568428 
L 494.186431 303.954988 
L 496.267859 301.148347 
L 498.462179 298.446447 
L 500.88228 295.744846 
L 503.603424 293.021299 
L 506.714983 290.269722 
L 510.339255 287.491711 
L 513.022769 285.693669 
L 516.077882 283.881562 
L 518.133439 282.788174 
L 518.135791 382.533217 
L 518.24633 382.009385 
L 520.595875 371.438156 
L 522.919548 361.972128 
L 525.381984 352.910896 
L 527.55984 345.650399 
L 529.944663 338.434392 
L 532.261281 332.09162 
L 534.4556 326.633255 
L 537.320209 320.232626 
L 540.039002 314.838102 
L 542.094559 311.154037 
L 544.288878 307.560847 
L 546.718387 303.954689 
L 549.458346 300.310625 
L 551.763205 297.557352 
L 555.288697 293.834982 
L 558.155659 291.193432 
L 561.596483 288.420208 
L 565.66056 285.626835 
L 568.619246 283.876176 
L 570.665395 282.788074 
L 570.667747 382.532348 
L 570.778286 382.00852 
L 573.127831 371.437358 
L 575.451504 361.971429 
L 577.91394 352.910198 
L 580.369319 344.771977 
L 582.794125 337.527142 
L 585.143669 331.184868 
L 587.763681 324.821048 
L 590.251988 319.399292 
L 592.56155 314.855359 
L 595.118061 310.319407 
L 597.399401 306.667662 
L 599.90417 303.045942 
L 602.034988 300.254364 
L 605.120676 296.634939 
L 607.721874 293.931742 
L 610.692319 291.189242 
L 612.973658 289.306012 
L 615.396111 287.496399 
L 619.730656 284.68916 
L 622.849271 282.966531 
L 623.197351 282.787974 
L 623.199703 382.53148 
L 623.310242 382.007656 
L 625.659787 371.436559 
L 627.98346 361.970731 
L 630.189539 353.809268 
L 632.614344 345.679128 
L 635.008574 338.433295 
L 637.325192 332.090622 
L 639.900519 325.735481 
L 642.348843 320.306044 
L 644.616071 315.758121 
L 647.113785 311.230049 
L 649.938412 306.656689 
L 652.436126 303.045643 
L 655.265457 299.392701 
L 658.520482 295.699359 
L 661.199292 293.020801 
L 664.310851 290.269323 
L 666.67921 288.405944 
L 669.231018 286.597428 
L 672.093275 284.789312 
L 675.376523 282.968826 
L 675.729307 282.787874 
L 675.731659 382.530611 
L 675.842198 382.006791 
L 678.191743 371.435761 
L 680.515416 361.970033 
L 682.721495 353.80867 
L 685.1463 345.67853 
L 687.54053 338.432796 
L 689.010466 334.532368 
L 691.421159 330.26874 
L 694.321047 325.686602 
L 696.879911 322.086828 
L 699.80567 318.423412 
L 702.246938 315.696673 
L 704.968082 312.973027 
L 708.079641 310.22135 
L 711.706265 307.441443 
L 716.02905 304.642084 
L 719.152369 302.916663 
L 722.995367 301.085304 
L 725.448395 300.063438 
L 727.913182 299.138531 
L 733.353119 297.410017 
L 736.761016 296.514039 
L 746.429662 294.577141 
L 761.415945 292.782192 
L 769.969792 292.168015 
L 793.42055 291.284506 
L 799.114491 291.173481 
L 803.291459 291.107445 
L 812.614376 290.99642 
L 815.947013 290.966195 
L 835.277249 290.855171 
L 838.132451 290.845195 
L 1041.562074 290.767987 
L 1041.562074 290.767987 
" style="fill:none;stroke:#d97020;stroke-linecap:square;stroke-opacity:0.75;stroke-width:1.5;"/>
   </g>
   <g id="line2d_49">
    <path clip-path="url(#p852bd2e442)" d="M 100.803551 332.6641 
L 103.280098 328.277378 
L 105.561437 324.625433 
L 108.066207 321.003414 
L 110.89789 317.34738 
L 113.268602 314.607474 
L 115.88391 311.888616 
L 118.854355 309.146016 
L 121.135695 307.262586 
L 124.905784 304.524077 
L 127.72806 302.742993 
L 131.008955 300.924004 
L 133.193867 299.845977 
L 137.020402 298.1833 
L 142.229853 296.313636 
L 145.273207 295.398305 
L 153.067391 293.529439 
L 157.284341 292.748675 
L 163.018264 291.888508 
L 170.781874 291.01258 
L 182.360259 290.141839 
L 204.853796 289.298929 
L 210.432494 289.187905 
L 214.663555 289.119574 
L 223.746579 289.008549 
L 227.107439 288.977127 
L 245.574528 288.866103 
L 248.448546 288.855329 
L 453.620924 288.745402 
L 456.487885 286.458971 
L 459.093786 284.609158 
L 461.965452 282.794658 
L 461.974859 282.789071 
L 461.977211 382.539549 
L 462.08775 382.006332 
L 464.437295 371.245733 
L 466.718634 361.777311 
L 469.124624 352.738224 
L 471.528262 344.585739 
L 473.891918 337.341602 
L 476.175609 331.001224 
L 478.708602 324.652566 
L 481.116943 319.21854 
L 483.346541 314.660443 
L 485.787809 310.141049 
L 488.537176 305.582552 
L 490.976093 301.961531 
L 493.718404 298.314275 
L 496.023262 295.561201 
L 498.542143 292.845435 
L 501.383234 290.111914 
L 504.650018 287.35096 
L 508.481257 284.565666 
L 511.294125 282.791066 
L 511.298829 282.788273 
L 511.301181 382.532854 
L 511.41172 381.999669 
L 513.758912 371.249922 
L 516.040252 361.781101 
L 518.448594 352.733237 
L 520.84988 344.588832 
L 523.213535 337.344395 
L 525.854715 330.065743 
L 528.418282 323.741226 
L 530.866606 318.311689 
L 533.136186 313.759078 
L 535.631548 309.235594 
L 537.865849 305.573076 
L 540.300062 301.959536 
L 543.040021 298.315472 
L 545.34488 295.562299 
L 547.863761 292.846433 
L 550.704851 290.112811 
L 552.908578 288.208433 
L 556.436423 285.508129 
L 560.620446 282.788772 
L 560.622798 382.53753 
L 560.733337 382.004323 
L 563.08053 371.254112 
L 565.361869 361.784892 
L 567.770211 352.736728 
L 570.171497 344.591924 
L 572.535153 337.347288 
L 574.821196 331.000126 
L 576.984941 325.534978 
L 579.343893 320.122698 
L 581.987424 314.668822 
L 584.431044 310.144441 
L 587.182763 305.581854 
L 590.336656 300.968693 
L 593.100134 297.40493 
L 596.362214 293.703209 
L 599.038672 291.026945 
L 602.150231 288.275268 
L 605.774503 285.497156 
L 608.458017 283.699115 
L 609.944416 282.787974 
L 609.946767 382.530835 
L 610.057307 381.997659 
L 612.406851 371.237852 
L 614.685838 361.779406 
L 617.09418 352.73184 
L 619.229702 345.4485 
L 621.551024 338.246758 
L 623.806492 331.8982 
L 626.294799 325.565702 
L 628.66551 320.124793 
L 631.311393 314.666128 
L 633.755014 310.142046 
L 635.942277 306.472545 
L 638.987983 301.899385 
L 641.683256 298.317866 
L 644.823038 294.631806 
L 647.417179 291.93639 
L 650.387624 289.19389 
L 653.821393 286.426652 
L 656.392016 284.603871 
L 659.256625 282.794159 
L 659.266033 282.788573 
L 659.268385 382.535511 
L 659.378924 382.002313 
L 661.728468 371.242042 
L 664.242646 360.85829 
L 666.672154 351.825587 
L 669.101663 343.679287 
L 671.493542 336.440736 
L 673.812512 330.091679 
L 676.385486 323.742423 
L 678.83381 318.312786 
L 681.592585 312.835169 
L 683.64579 309.155792 
L 685.837757 305.566492 
L 688.808202 301.232439 
L 693.363826 299.038379 
L 697.858299 297.252707 
L 703.702762 295.386934 
L 707.040103 294.511903 
L 716.659359 292.58548 
L 721.516024 291.874144 
L 729.154984 291.014077 
L 740.756888 290.141341 
L 763.233961 289.299129 
L 768.810307 289.188104 
L 773.043721 289.119674 
L 782.126744 289.008649 
L 785.487604 288.977227 
L 803.938231 288.866202 
L 806.812248 288.855429 
L 1041.562074 288.772934 
L 1041.562074 288.772934 
" style="fill:none;stroke:#ef9f07;stroke-linecap:square;stroke-opacity:0.75;stroke-width:1.5;"/>
   </g>
   <g id="line2d_50">
    <path clip-path="url(#p852bd2e442)" d="M 100.803551 302.738305 
L 103.922166 300.75622 
L 107.217172 298.928851 
L 111.064875 297.095098 
L 113.517903 296.073232 
L 115.98269 295.148325 
L 121.420274 293.420509 
L 129.308534 291.527703 
L 133.499614 290.752425 
L 139.226481 289.893455 
L 146.990091 289.017527 
L 158.568476 288.146786 
L 181.062013 287.303876 
L 186.640711 287.192852 
L 190.871772 287.124521 
L 199.954796 287.013496 
L 203.315655 286.982074 
L 221.782745 286.87105 
L 224.656763 286.860276 
L 453.620924 286.750349 
L 456.487885 284.463918 
L 458.835078 282.788772 
L 458.83743 382.535851 
L 458.947969 381.993298 
L 461.295161 371.054607 
L 463.759949 360.68452 
L 466.14242 351.642541 
L 468.515483 343.502226 
L 470.850916 336.254198 
L 473.452113 328.985023 
L 475.975698 322.660805 
L 478.849715 316.23843 
L 481.084017 311.760433 
L 483.577027 307.241239 
L 486.401654 302.66768 
L 488.899368 299.056634 
L 491.032538 296.262064 
L 493.299766 293.556971 
L 496.813499 289.847569 
L 499.682813 287.203725 
L 501.968856 285.316305 
L 505.426144 282.788772 
L 505.428496 382.536022 
L 505.539035 381.993467 
L 507.886227 371.054806 
L 510.351015 360.68462 
L 512.733485 351.642641 
L 515.106549 343.502326 
L 517.441982 336.254298 
L 520.043179 328.985123 
L 522.569116 322.655318 
L 524.975106 317.22658 
L 527.204703 312.668183 
L 529.645972 308.148589 
L 531.833235 304.478989 
L 534.203947 300.868641 
L 536.859238 297.234452 
L 539.102947 294.467713 
L 541.532456 291.754939 
L 544.2536 289.031393 
L 547.365159 286.279816 
L 550.989431 283.501804 
L 552.017209 282.788772 
L 552.019561 382.536192 
L 552.130101 381.993637 
L 554.477293 371.055006 
L 556.716298 361.590175 
L 559.072898 352.555178 
L 561.422443 344.404788 
L 564.044807 336.219684 
L 566.631893 328.991407 
L 569.160182 322.655418 
L 571.566172 317.226679 
L 573.795769 312.668282 
L 576.237038 308.148589 
L 578.988756 303.586103 
L 581.427673 299.965281 
L 583.509101 297.158541 
L 586.470138 293.570438 
L 588.991371 290.851879 
L 591.832462 288.118157 
L 595.099246 285.357104 
L 597.564033 283.513475 
L 598.608275 282.788772 
L 598.610627 382.536363 
L 598.721166 381.993807 
L 601.068359 371.055105 
L 603.533146 360.684919 
L 605.915617 351.64284 
L 608.288681 343.502525 
L 610.948675 335.303057 
L 613.220607 328.997692 
L 615.751248 322.655518 
L 618.157237 317.226679 
L 620.859566 311.756144 
L 623.350224 307.241439 
L 626.174852 302.66788 
L 628.672566 299.056734 
L 631.501897 295.403692 
L 633.872609 292.663586 
L 636.490269 289.942234 
L 639.460714 287.199735 
L 641.742054 285.316405 
L 644.164507 283.506792 
L 645.199341 282.788872 
L 645.201693 382.536533 
L 645.312232 381.993976 
L 647.661777 371.044831 
L 650.124212 360.685119 
L 652.26679 352.512584 
L 654.604575 344.405087 
L 656.911785 337.156062 
L 659.139031 330.801519 
L 661.587355 324.476802 
L 663.920436 319.032402 
L 666.512226 313.585109 
L 668.908808 309.055241 
L 671.053737 305.374368 
L 674.003015 300.831433 
L 676.632435 297.234552 
L 679.661678 293.559864 
L 682.175855 290.849584 
L 685.014594 288.118257 
L 688.281378 285.357104 
L 688.951668 284.983231 
L 695.20536 285.402292 
L 717.903512 286.25388 
L 723.505729 286.364905 
L 727.725031 286.432737 
L 736.857444 286.543761 
L 740.211248 286.574884 
L 758.840619 286.685909 
L 761.709932 286.696483 
L 1041.562074 286.777881 
L 1041.562074 286.777881 
" style="fill:none;stroke:#449775;stroke-linecap:square;stroke-opacity:0.75;stroke-width:1.5;"/>
   </g>
   <g id="line2d_51">
    <path clip-path="url(#p852bd2e442)" d="M 100.803551 292.76304 
L 104.954648 291.471841 
L 108.484844 290.539553 
L 112.421919 289.652154 
L 124.908136 287.646427 
L 130.703209 287.020978 
L 142.260427 286.152033 
L 164.761019 285.308823 
L 170.339717 285.197799 
L 174.573131 285.129368 
L 183.66321 285.018344 
L 187.02407 284.986922 
L 205.505271 284.875897 
L 208.379288 284.865124 
L 453.620924 284.755296 
L 456.064544 282.789171 
L 456.066896 382.537755 
L 456.177435 381.985837 
L 458.524628 370.858393 
L 460.940025 360.510053 
L 463.27781 351.457001 
L 465.599132 343.315589 
L 467.878119 336.067362 
L 470.404056 328.813249 
L 472.854732 322.482048 
L 475.187813 317.037648 
L 477.779603 311.590255 
L 480.728881 306.07962 
L 482.880866 302.472963 
L 485.244521 298.873987 
L 487.899812 295.239699 
L 490.143521 292.472859 
L 493.509085 288.787498 
L 496.281971 286.123304 
L 499.548755 283.36215 
L 500.28725 282.789371 
L 500.289602 382.53927 
L 500.400141 381.987346 
L 502.747334 370.85979 
L 505.165083 360.501674 
L 507.500516 351.458098 
L 510.106417 342.372627 
L 512.401868 335.162306 
L 514.629114 328.807663 
L 517.077438 322.482746 
L 519.410519 317.038346 
L 522.002309 311.590854 
L 524.951587 306.080119 
L 527.658619 301.595539 
L 530.099888 297.970926 
L 532.181316 295.164186 
L 534.377987 292.459393 
L 537.729439 288.790191 
L 540.504677 286.123603 
L 543.773813 283.360554 
L 544.512308 282.787874 
L 544.51466 382.529015 
L 544.625199 381.977138 
L 546.972392 370.850513 
L 549.387789 360.502871 
L 551.723222 351.459295 
L 554.046896 343.309703 
L 556.63163 335.142056 
L 559.185789 327.906497 
L 561.318959 322.437359 
L 564.063622 316.092292 
L 566.688339 310.679314 
L 569.708174 305.154813 
L 572.474004 300.681106 
L 574.976421 297.062778 
L 577.109591 294.268108 
L 579.376819 291.562916 
L 582.890552 287.853414 
L 585.759866 285.20937 
L 588.735015 282.788074 
L 588.737367 382.53053 
L 588.847906 381.978646 
L 591.195098 370.851909 
L 593.610496 360.504168 
L 595.945929 351.460393 
L 598.269602 343.310701 
L 600.854336 335.142954 
L 603.408496 327.907295 
L 605.541666 322.438157 
L 607.855932 317.039643 
L 610.447721 311.592151 
L 612.846656 307.057794 
L 615.527817 302.508275 
L 618.592338 297.905488 
L 621.28526 294.327361 
L 624.425041 290.641301 
L 627.019183 287.945984 
L 629.989628 285.203485 
L 632.957721 282.788273 
L 632.960073 382.532044 
L 633.070612 381.980153 
L 635.417804 370.853306 
L 637.616827 361.389572 
L 640.178043 351.426876 
L 642.492309 343.311798 
L 644.771296 336.06397 
L 646.970319 329.705636 
L 649.378661 323.391393 
L 652.095101 317.003832 
L 654.670428 311.592749 
L 657.069362 307.058293 
L 659.750524 302.508774 
L 662.817396 297.902596 
L 665.507966 294.32776 
L 668.647747 290.6417 
L 671.241889 287.946283 
L 674.212334 285.203784 
L 677.180427 282.788573 
L 677.182779 382.533559 
L 677.293318 381.981662 
L 679.640511 370.854603 
L 682.055908 360.506562 
L 684.391341 351.462587 
L 686.715015 343.312796 
L 688.834073 336.598345 
L 691.244767 331.550362 
L 693.646053 327.011118 
L 695.790983 323.330245 
L 698.740261 318.78721 
L 701.369681 315.190329 
L 704.398923 311.51564 
L 706.9131 308.805261 
L 709.751839 306.073934 
L 713.018623 303.31278 
L 716.852214 300.525691 
L 721.471338 297.718552 
L 724.780457 296.020662 
L 728.992703 294.177931 
L 734.152763 292.327121 
L 737.203173 291.409396 
L 745.004413 289.538735 
L 749.219011 288.75847 
L 754.952934 287.898302 
L 762.716544 287.022374 
L 774.292578 286.151833 
L 796.788466 285.308823 
L 802.367164 285.197799 
L 806.598225 285.129468 
L 815.681249 285.018443 
L 819.042109 284.987021 
L 837.509198 284.875997 
L 840.383216 284.865223 
L 1041.562074 284.782828 
L 1041.562074 284.782828 
" style="fill:none;stroke:#3b7d86;stroke-linecap:square;stroke-opacity:0.75;stroke-width:1.5;"/>
   </g>
   <g id="line2d_52">
    <path clip-path="url(#p852bd2e442)" d="M 469.891342 282.787775 
L 469.891342 232.911449 
" style="fill:none;stroke:#aa3863;stroke-linecap:square;stroke-opacity:0.75;stroke-width:1.5;"/>
   </g>
   <g id="line2d_53">
    <path clip-path="url(#p852bd2e442)" d="M 526.287464 282.787775 
L 526.287464 232.911449 
" style="fill:none;stroke:#aa3863;stroke-linecap:square;stroke-opacity:0.75;stroke-width:1.5;"/>
   </g>
   <g id="line2d_54">
    <path clip-path="url(#p852bd2e442)" d="M 582.683585 282.787775 
L 582.683585 232.911449 
" style="fill:none;stroke:#aa3863;stroke-linecap:square;stroke-opacity:0.75;stroke-width:1.5;"/>
   </g>
   <g id="line2d_55">
    <path clip-path="url(#p852bd2e442)" d="M 639.079707 282.787775 
L 639.079707 232.911449 
" style="fill:none;stroke:#aa3863;stroke-linecap:square;stroke-opacity:0.75;stroke-width:1.5;"/>
   </g>
   <g id="line2d_56">
    <path clip-path="url(#p852bd2e442)" d="M 465.603835 282.787775 
L 465.603835 232.911449 
" style="fill:none;stroke:#d97020;stroke-linecap:square;stroke-opacity:0.75;stroke-width:1.5;"/>
   </g>
   <g id="line2d_57">
    <path clip-path="url(#p852bd2e442)" d="M 518.135791 282.787775 
L 518.135791 232.911449 
" style="fill:none;stroke:#d97020;stroke-linecap:square;stroke-opacity:0.75;stroke-width:1.5;"/>
   </g>
   <g id="line2d_58">
    <path clip-path="url(#p852bd2e442)" d="M 570.667747 282.787775 
L 570.667747 232.911449 
" style="fill:none;stroke:#d97020;stroke-linecap:square;stroke-opacity:0.75;stroke-width:1.5;"/>
   </g>
   <g id="line2d_59">
    <path clip-path="url(#p852bd2e442)" d="M 623.199703 282.787775 
L 623.199703 232.911449 
" style="fill:none;stroke:#d97020;stroke-linecap:square;stroke-opacity:0.75;stroke-width:1.5;"/>
   </g>
   <g id="line2d_60">
    <path clip-path="url(#p852bd2e442)" d="M 675.731659 282.787775 
L 675.731659 232.911449 
" style="fill:none;stroke:#d97020;stroke-linecap:square;stroke-opacity:0.75;stroke-width:1.5;"/>
   </g>
   <g id="line2d_61">
    <path clip-path="url(#p852bd2e442)" d="M 461.977211 282.787775 
L 461.977211 232.911449 
" style="fill:none;stroke:#ef9f07;stroke-linecap:square;stroke-opacity:0.75;stroke-width:1.5;"/>
   </g>
   <g id="line2d_62">
    <path clip-path="url(#p852bd2e442)" d="M 511.301181 282.787775 
L 511.301181 232.911449 
" style="fill:none;stroke:#ef9f07;stroke-linecap:square;stroke-opacity:0.75;stroke-width:1.5;"/>
   </g>
   <g id="line2d_63">
    <path clip-path="url(#p852bd2e442)" d="M 560.622798 282.787775 
L 560.622798 232.911449 
" style="fill:none;stroke:#ef9f07;stroke-linecap:square;stroke-opacity:0.75;stroke-width:1.5;"/>
   </g>
   <g id="line2d_64">
    <path clip-path="url(#p852bd2e442)" d="M 609.946767 282.787775 
L 609.946767 232.911449 
" style="fill:none;stroke:#ef9f07;stroke-linecap:square;stroke-opacity:0.75;stroke-width:1.5;"/>
   </g>
   <g id="line2d_65">
    <path clip-path="url(#p852bd2e442)" d="M 659.268385 282.787775 
L 659.268385 232.911449 
" style="fill:none;stroke:#ef9f07;stroke-linecap:square;stroke-opacity:0.75;stroke-width:1.5;"/>
   </g>
   <g id="line2d_66">
    <path clip-path="url(#p852bd2e442)" d="M 458.83743 282.787775 
L 458.83743 232.911449 
" style="fill:none;stroke:#449775;stroke-linecap:square;stroke-opacity:0.75;stroke-width:1.5;"/>
   </g>
   <g id="line2d_67">
    <path clip-path="url(#p852bd2e442)" d="M 505.428496 282.787775 
L 505.428496 232.911449 
" style="fill:none;stroke:#449775;stroke-linecap:square;stroke-opacity:0.75;stroke-width:1.5;"/>
   </g>
   <g id="line2d_68">
    <path clip-path="url(#p852bd2e442)" d="M 552.019561 282.787775 
L 552.019561 232.911449 
" style="fill:none;stroke:#449775;stroke-linecap:square;stroke-opacity:0.75;stroke-width:1.5;"/>
   </g>
   <g id="line2d_69">
    <path clip-path="url(#p852bd2e442)" d="M 598.610627 282.787775 
L 598.610627 232.911449 
" style="fill:none;stroke:#449775;stroke-linecap:square;stroke-opacity:0.75;stroke-width:1.5;"/>
   </g>
   <g id="line2d_70">
    <path clip-path="url(#p852bd2e442)" d="M 645.201693 282.787775 
L 645.201693 232.911449 
" style="fill:none;stroke:#449775;stroke-linecap:square;stroke-opacity:0.75;stroke-width:1.5;"/>
   </g>
   <g id="line2d_71">
    <path clip-path="url(#p852bd2e442)" d="M 456.066896 282.787775 
L 456.066896 232.911449 
" style="fill:none;stroke:#3b7d86;stroke-linecap:square;stroke-opacity:0.75;stroke-width:1.5;"/>
   </g>
   <g id="line2d_72">
    <path clip-path="url(#p852bd2e442)" d="M 500.289602 282.787775 
L 500.289602 232.911449 
" style="fill:none;stroke:#3b7d86;stroke-linecap:square;stroke-opacity:0.75;stroke-width:1.5;"/>
   </g>
   <g id="line2d_73">
    <path clip-path="url(#p852bd2e442)" d="M 544.51466 282.787775 
L 544.51466 232.911449 
" style="fill:none;stroke:#3b7d86;stroke-linecap:square;stroke-opacity:0.75;stroke-width:1.5;"/>
   </g>
   <g id="line2d_74">
    <path clip-path="url(#p852bd2e442)" d="M 588.737367 282.787775 
L 588.737367 232.911449 
" style="fill:none;stroke:#3b7d86;stroke-linecap:square;stroke-opacity:0.75;stroke-width:1.5;"/>
   </g>
   <g id="line2d_75">
    <path clip-path="url(#p852bd2e442)" d="M 632.960073 282.787775 
L 632.960073 232.911449 
" style="fill:none;stroke:#3b7d86;stroke-linecap:square;stroke-opacity:0.75;stroke-width:1.5;"/>
   </g>
   <g id="line2d_76">
    <path clip-path="url(#p852bd2e442)" d="M 677.182779 282.787775 
L 677.182779 232.911449 
" style="fill:none;stroke:#3b7d86;stroke-linecap:square;stroke-opacity:0.75;stroke-width:1.5;"/>
   </g>
   <g id="patch_9">
    <path d="M 53.765625 390.021875 
L 53.765625 225.43 
" style="fill:none;stroke:#000000;stroke-linecap:square;stroke-linejoin:miter;stroke-width:0.8;"/>
   </g>
   <g id="patch_10">
    <path d="M 1088.6 390.021875 
L 1088.6 225.43 
" style="fill:none;stroke:#000000;stroke-linecap:square;stroke-linejoin:miter;stroke-width:0.8;"/>
   </g>
   <g id="patch_11">
    <path d="M 53.765625 390.021875 
L 1088.6 390.021875 
" style="fill:none;stroke:#000000;stroke-linecap:square;stroke-linejoin:miter;stroke-width:0.8;"/>
   </g>
   <g id="patch_12">
    <path d="M 53.765625 225.43 
L 1088.6 225.43 
" style="fill:none;stroke:#000000;stroke-linecap:square;stroke-linejoin:miter;stroke-width:0.8;"/>
   </g>
   <g id="legend_2">
    <g id="patch_13">
     <path d="M 1095.6 306.820625 
L 1139.2 306.820625 
Q 1141.2 306.820625 1141.2 304.820625 
L 1141.2 232.43 
Q 1141.2 230.43 1139.2 230.43 
L 1095.6 230.43 
Q 1093.6 230.43 1093.6 232.43 
L 1093.6 304.820625 
Q 1093.6 306.820625 1095.6 306.820625 
z
" style="fill:#ffffff;opacity:0.8;stroke:#cccccc;stroke-linejoin:miter;"/>
    </g>
    <g id="line2d_77">
     <path d="M 1097.6 238.528437 
L 1117.6 238.528437 
" style="fill:none;stroke:#aa3863;stroke-linecap:square;stroke-opacity:0.75;stroke-width:1.5;"/>
    </g>
    <g id="line2d_78"/>
    <g id="text_40">
     <!-- $V_1$ -->
     <g transform="translate(1125.6 242.028437)scale(0.1 -0.1)">
      <use transform="translate(0 0.09375)" xlink:href="#DejaVuSans-Oblique-86"/>
      <use transform="translate(68.408203 -16.3125)scale(0.7)" xlink:href="#DejaVuSans-49"/>
     </g>
    </g>
    <g id="line2d_79">
     <path d="M 1097.6 253.206563 
L 1117.6 253.206563 
" style="fill:none;stroke:#d97020;stroke-linecap:square;stroke-opacity:0.75;stroke-width:1.5;"/>
    </g>
    <g id="line2d_80"/>
    <g id="text_41">
     <!-- $V_2$ -->
     <g transform="translate(1125.6 256.706563)scale(0.1 -0.1)">
      <use transform="translate(0 0.09375)" xlink:href="#DejaVuSans-Oblique-86"/>
      <use transform="translate(68.408203 -16.3125)scale(0.7)" xlink:href="#DejaVuSans-50"/>
     </g>
    </g>
    <g id="line2d_81">
     <path d="M 1097.6 267.884687 
L 1117.6 267.884687 
" style="fill:none;stroke:#ef9f07;stroke-linecap:square;stroke-opacity:0.75;stroke-width:1.5;"/>
    </g>
    <g id="line2d_82"/>
    <g id="text_42">
     <!-- $V_3$ -->
     <g transform="translate(1125.6 271.384687)scale(0.1 -0.1)">
      <use transform="translate(0 0.09375)" xlink:href="#DejaVuSans-Oblique-86"/>
      <use transform="translate(68.408203 -16.3125)scale(0.7)" xlink:href="#DejaVuSans-51"/>
     </g>
    </g>
    <g id="line2d_83">
     <path d="M 1097.6 282.562813 
L 1117.6 282.562813 
" style="fill:none;stroke:#449775;stroke-linecap:square;stroke-opacity:0.75;stroke-width:1.5;"/>
    </g>
    <g id="line2d_84"/>
    <g id="text_43">
     <!-- $V_4$ -->
     <g transform="translate(1125.6 286.062813)scale(0.1 -0.1)">
      <use transform="translate(0 0.09375)" xlink:href="#DejaVuSans-Oblique-86"/>
      <use transform="translate(68.408203 -16.3125)scale(0.7)" xlink:href="#DejaVuSans-52"/>
     </g>
    </g>
    <g id="line2d_85">
     <path d="M 1097.6 297.240937 
L 1117.6 297.240937 
" style="fill:none;stroke:#3b7d86;stroke-linecap:square;stroke-opacity:0.75;stroke-width:1.5;"/>
    </g>
    <g id="line2d_86"/>
    <g id="text_44">
     <!-- $V_5$ -->
     <g transform="translate(1125.6 300.740937)scale(0.1 -0.1)">
      <use transform="translate(0 0.09375)" xlink:href="#DejaVuSans-Oblique-86"/>
      <use transform="translate(68.408203 -16.3125)scale(0.7)" xlink:href="#DejaVuSans-53"/>
     </g>
    </g>
   </g>
  </g>
  <g id="text_45">
   <!-- Network of 5 electrically coupled neurons, $\beta=0.1$ and $\gamma=0$ -->
   <g transform="translate(396.6 17.88)scale(0.12 -0.12)">
    <defs>
     <path d="M 9.8125 72.90625 
L 23.09375 72.90625 
L 55.421875 11.921875 
L 55.421875 72.90625 
L 64.984375 72.90625 
L 64.984375 0 
L 51.703125 0 
L 19.390625 60.984375 
L 19.390625 0 
L 9.8125 0 
z
" id="DejaVuSans-78"/>
     <path d="M 4.203125 54.6875 
L 13.1875 54.6875 
L 24.421875 12.015625 
L 35.59375 54.6875 
L 46.1875 54.6875 
L 57.421875 12.015625 
L 68.609375 54.6875 
L 77.59375 54.6875 
L 63.28125 0 
L 52.6875 0 
L 40.921875 44.828125 
L 29.109375 0 
L 18.5 0 
z
" id="DejaVuSans-119"/>
     <path d="M 9.078125 75.984375 
L 18.109375 75.984375 
L 18.109375 31.109375 
L 44.921875 54.6875 
L 56.390625 54.6875 
L 27.390625 29.109375 
L 57.625 0 
L 45.90625 0 
L 18.109375 26.703125 
L 18.109375 0 
L 9.078125 0 
z
" id="DejaVuSans-107"/>
     <path d="M 37.109375 75.984375 
L 37.109375 68.5 
L 28.515625 68.5 
Q 23.6875 68.5 21.796875 66.546875 
Q 19.921875 64.59375 19.921875 59.515625 
L 19.921875 54.6875 
L 34.71875 54.6875 
L 34.71875 47.703125 
L 19.921875 47.703125 
L 19.921875 0 
L 10.890625 0 
L 10.890625 47.703125 
L 2.296875 47.703125 
L 2.296875 54.6875 
L 10.890625 54.6875 
L 10.890625 58.5 
Q 10.890625 67.625 15.140625 71.796875 
Q 19.390625 75.984375 28.609375 75.984375 
z
" id="DejaVuSans-102"/>
     <path d="M 32.171875 -5.078125 
Q 28.375 -14.84375 24.75 -17.8125 
Q 21.140625 -20.796875 15.09375 -20.796875 
L 7.90625 -20.796875 
L 7.90625 -13.28125 
L 13.1875 -13.28125 
Q 16.890625 -13.28125 18.9375 -11.515625 
Q 21 -9.765625 23.484375 -3.21875 
L 25.09375 0.875 
L 2.984375 54.6875 
L 12.5 54.6875 
L 29.59375 11.921875 
L 46.6875 54.6875 
L 56.203125 54.6875 
z
" id="DejaVuSans-121"/>
     <path d="M 18.109375 8.203125 
L 18.109375 -20.796875 
L 9.078125 -20.796875 
L 9.078125 54.6875 
L 18.109375 54.6875 
L 18.109375 46.390625 
Q 20.953125 51.265625 25.265625 53.625 
Q 29.59375 56 35.59375 56 
Q 45.5625 56 51.78125 48.09375 
Q 58.015625 40.1875 58.015625 27.296875 
Q 58.015625 14.40625 51.78125 6.484375 
Q 45.5625 -1.421875 35.59375 -1.421875 
Q 29.59375 -1.421875 25.265625 0.953125 
Q 20.953125 3.328125 18.109375 8.203125 
z
M 48.6875 27.296875 
Q 48.6875 37.203125 44.609375 42.84375 
Q 40.53125 48.484375 33.40625 48.484375 
Q 26.265625 48.484375 22.1875 42.84375 
Q 18.109375 37.203125 18.109375 27.296875 
Q 18.109375 17.390625 22.1875 11.75 
Q 26.265625 6.109375 33.40625 6.109375 
Q 40.53125 6.109375 44.609375 11.75 
Q 48.6875 17.390625 48.6875 27.296875 
z
" id="DejaVuSans-112"/>
     <path d="M 13.625 3.375 
L 8.9375 -20.796875 
L -0.09375 -20.796875 
L 14.5 54.34375 
Q 18.84375 76.609375 39.65625 76.609375 
Q 60.75 76.609375 57.171875 57.8125 
Q 54.734375 44.4375 45.21875 39.546875 
Q 58.015625 35.15625 55.515625 22.125 
Q 51.125 -1.078125 27.484375 -1.03125 
Q 17.140625 -0.984375 13.625 3.375 
z
M 15.921875 15.09375 
Q 19.671875 6.59375 29.296875 6.640625 
Q 43.359375 6.640625 46.34375 21.96875 
Q 49.03125 35.75 26.171875 34.671875 
L 27.78125 42.96875 
Q 45.453125 42.671875 48.53125 58.59375 
Q 50.640625 69.34375 39.203125 69.28125 
Q 26.421875 69.28125 23.484375 54.046875 
z
" id="DejaVuSans-Oblique-946"/>
     <path d="M 10.59375 45.40625 
L 73.1875 45.40625 
L 73.1875 37.203125 
L 10.59375 37.203125 
z
M 10.59375 25.484375 
L 73.1875 25.484375 
L 73.1875 17.1875 
L 10.59375 17.1875 
z
" id="DejaVuSans-61"/>
     <path d="M 23.296875 46.09375 
L 28.71875 12.3125 
L 54 54.6875 
L 63.53125 54.6875 
L 30.8125 0 
L 26.765625 -20.796875 
L 17.78125 -20.796875 
L 21.828125 0 
L 15.4375 40.828125 
Q 14.453125 46.96875 9.8125 46.96875 
L 7.421875 46.96875 
L 8.890625 54.6875 
L 12.3125 54.6875 
Q 21.921875 54.6875 23.296875 46.09375 
z
" id="DejaVuSans-Oblique-947"/>
    </defs>
    <use transform="translate(0 0.390625)" xlink:href="#DejaVuSans-78"/>
    <use transform="translate(74.804688 0.390625)" xlink:href="#DejaVuSans-101"/>
    <use transform="translate(136.328125 0.390625)" xlink:href="#DejaVuSans-116"/>
    <use transform="translate(175.537109 0.390625)" xlink:href="#DejaVuSans-119"/>
    <use transform="translate(257.324219 0.390625)" xlink:href="#DejaVuSans-111"/>
    <use transform="translate(318.505859 0.390625)" xlink:href="#DejaVuSans-114"/>
    <use transform="translate(359.619141 0.390625)" xlink:href="#DejaVuSans-107"/>
    <use transform="translate(417.529297 0.390625)" xlink:href="#DejaVuSans-32"/>
    <use transform="translate(449.316406 0.390625)" xlink:href="#DejaVuSans-111"/>
    <use transform="translate(510.498047 0.390625)" xlink:href="#DejaVuSans-102"/>
    <use transform="translate(545.703125 0.390625)" xlink:href="#DejaVuSans-32"/>
    <use transform="translate(577.490234 0.390625)" xlink:href="#DejaVuSans-53"/>
    <use transform="translate(641.113281 0.390625)" xlink:href="#DejaVuSans-32"/>
    <use transform="translate(672.900391 0.390625)" xlink:href="#DejaVuSans-101"/>
    <use transform="translate(734.423828 0.390625)" xlink:href="#DejaVuSans-108"/>
    <use transform="translate(762.207031 0.390625)" xlink:href="#DejaVuSans-101"/>
    <use transform="translate(823.730469 0.390625)" xlink:href="#DejaVuSans-99"/>
    <use transform="translate(878.710938 0.390625)" xlink:href="#DejaVuSans-116"/>
    <use transform="translate(917.919922 0.390625)" xlink:href="#DejaVuSans-114"/>
    <use transform="translate(959.033203 0.390625)" xlink:href="#DejaVuSans-105"/>
    <use transform="translate(986.816406 0.390625)" xlink:href="#DejaVuSans-99"/>
    <use transform="translate(1041.796875 0.390625)" xlink:href="#DejaVuSans-97"/>
    <use transform="translate(1103.076172 0.390625)" xlink:href="#DejaVuSans-108"/>
    <use transform="translate(1130.859375 0.390625)" xlink:href="#DejaVuSans-108"/>
    <use transform="translate(1158.642578 0.390625)" xlink:href="#DejaVuSans-121"/>
    <use transform="translate(1217.822266 0.390625)" xlink:href="#DejaVuSans-32"/>
    <use transform="translate(1249.609375 0.390625)" xlink:href="#DejaVuSans-99"/>
    <use transform="translate(1304.589844 0.390625)" xlink:href="#DejaVuSans-111"/>
    <use transform="translate(1365.771484 0.390625)" xlink:href="#DejaVuSans-117"/>
    <use transform="translate(1429.150391 0.390625)" xlink:href="#DejaVuSans-112"/>
    <use transform="translate(1492.626953 0.390625)" xlink:href="#DejaVuSans-108"/>
    <use transform="translate(1520.410156 0.390625)" xlink:href="#DejaVuSans-101"/>
    <use transform="translate(1581.933594 0.390625)" xlink:href="#DejaVuSans-100"/>
    <use transform="translate(1645.410156 0.390625)" xlink:href="#DejaVuSans-32"/>
    <use transform="translate(1677.197266 0.390625)" xlink:href="#DejaVuSans-110"/>
    <use transform="translate(1740.576172 0.390625)" xlink:href="#DejaVuSans-101"/>
    <use transform="translate(1802.099609 0.390625)" xlink:href="#DejaVuSans-117"/>
    <use transform="translate(1865.478516 0.390625)" xlink:href="#DejaVuSans-114"/>
    <use transform="translate(1906.591797 0.390625)" xlink:href="#DejaVuSans-111"/>
    <use transform="translate(1967.773438 0.390625)" xlink:href="#DejaVuSans-110"/>
    <use transform="translate(2031.152344 0.390625)" xlink:href="#DejaVuSans-115"/>
    <use transform="translate(2083.251953 0.390625)" xlink:href="#DejaVuSans-44"/>
    <use transform="translate(2115.039062 0.390625)" xlink:href="#DejaVuSans-32"/>
    <use transform="translate(2146.826172 0.390625)" xlink:href="#DejaVuSans-Oblique-946"/>
    <use transform="translate(2230.126953 0.390625)" xlink:href="#DejaVuSans-61"/>
    <use transform="translate(2333.398438 0.390625)" xlink:href="#DejaVuSans-48"/>
    <use transform="translate(2397.021484 0.390625)" xlink:href="#DejaVuSans-46"/>
    <use transform="translate(2428.808594 0.390625)" xlink:href="#DejaVuSans-49"/>
    <use transform="translate(2492.431641 0.390625)" xlink:href="#DejaVuSans-32"/>
    <use transform="translate(2524.21875 0.390625)" xlink:href="#DejaVuSans-97"/>
    <use transform="translate(2585.498047 0.390625)" xlink:href="#DejaVuSans-110"/>
    <use transform="translate(2648.876953 0.390625)" xlink:href="#DejaVuSans-100"/>
    <use transform="translate(2712.353516 0.390625)" xlink:href="#DejaVuSans-32"/>
    <use transform="translate(2744.140625 0.390625)" xlink:href="#DejaVuSans-Oblique-947"/>
    <use transform="translate(2822.802734 0.390625)" xlink:href="#DejaVuSans-61"/>
    <use transform="translate(2926.074219 0.390625)" xlink:href="#DejaVuSans-48"/>
   </g>
  </g>
 </g>
 <defs>
  <clipPath id="pc448f918c7">
   <rect height="164.591875" width="1034.834375" x="53.765625" y="33.36"/>
  </clipPath>
  <clipPath id="p852bd2e442">
   <rect height="164.591875" width="1034.834375" x="53.765625" y="225.43"/>
  </clipPath>
 </defs>
</svg>
