<?xml version="1.0" encoding="utf-8" standalone="no"?>
<!DOCTYPE svg PUBLIC "-//W3C//DTD SVG 1.1//EN"
  "http://www.w3.org/Graphics/SVG/1.1/DTD/svg11.dtd">
<!-- Created with matplotlib (https://matplotlib.org/) -->
<svg height="432pt" version="1.1" viewBox="0 0 576 432" width="576pt" xmlns="http://www.w3.org/2000/svg" xmlns:xlink="http://www.w3.org/1999/xlink">
 <metadata>
  <rdf:RDF xmlns:cc="http://creativecommons.org/ns#" xmlns:dc="http://purl.org/dc/elements/1.1/" xmlns:rdf="http://www.w3.org/1999/02/22-rdf-syntax-ns#">
   <cc:Work>
    <dc:type rdf:resource="http://purl.org/dc/dcmitype/StillImage"/>
    <dc:date>2021-04-27T23:35:18.957200</dc:date>
    <dc:format>image/svg+xml</dc:format>
    <dc:creator>
     <cc:Agent>
      <dc:title>Matplotlib v3.3.3, https://matplotlib.org/</dc:title>
     </cc:Agent>
    </dc:creator>
   </cc:Work>
  </rdf:RDF>
 </metadata>
 <defs>
  <style type="text/css">*{stroke-linecap:butt;stroke-linejoin:round;}</style>
 </defs>
 <g id="figure_1">
  <g id="patch_1">
   <path d="M 0 432 
L 576 432 
L 576 0 
L 0 0 
z
" style="fill:#ffffff;"/>
  </g>
  <g id="axes_1">
   <g id="patch_2">
    <path d="M 72 384.48 
L 518.4 384.48 
L 518.4 51.84 
L 72 51.84 
z
" style="fill:#ffffff;"/>
   </g>
   <g id="matplotlib.axis_1">
    <g id="xtick_1">
     <g id="line2d_1">
      <defs>
       <path d="M 0 0 
L 0 3.5 
" id="mf00d0eaa77" style="stroke:#000000;stroke-width:0.8;"/>
      </defs>
      <g>
       <use style="stroke:#000000;stroke-width:0.8;" x="72" xlink:href="#mf00d0eaa77" y="384.48"/>
      </g>
     </g>
     <g id="text_1">
      <!-- 1.0 -->
      <g transform="translate(64.048438 399.078438)scale(0.1 -0.1)">
       <defs>
        <path d="M 12.40625 8.296875 
L 28.515625 8.296875 
L 28.515625 63.921875 
L 10.984375 60.40625 
L 10.984375 69.390625 
L 28.421875 72.90625 
L 38.28125 72.90625 
L 38.28125 8.296875 
L 54.390625 8.296875 
L 54.390625 0 
L 12.40625 0 
z
" id="DejaVuSans-49"/>
        <path d="M 10.6875 12.40625 
L 21 12.40625 
L 21 0 
L 10.6875 0 
z
" id="DejaVuSans-46"/>
        <path d="M 31.78125 66.40625 
Q 24.171875 66.40625 20.328125 58.90625 
Q 16.5 51.421875 16.5 36.375 
Q 16.5 21.390625 20.328125 13.890625 
Q 24.171875 6.390625 31.78125 6.390625 
Q 39.453125 6.390625 43.28125 13.890625 
Q 47.125 21.390625 47.125 36.375 
Q 47.125 51.421875 43.28125 58.90625 
Q 39.453125 66.40625 31.78125 66.40625 
z
M 31.78125 74.21875 
Q 44.046875 74.21875 50.515625 64.515625 
Q 56.984375 54.828125 56.984375 36.375 
Q 56.984375 17.96875 50.515625 8.265625 
Q 44.046875 -1.421875 31.78125 -1.421875 
Q 19.53125 -1.421875 13.0625 8.265625 
Q 6.59375 17.96875 6.59375 36.375 
Q 6.59375 54.828125 13.0625 64.515625 
Q 19.53125 74.21875 31.78125 74.21875 
z
" id="DejaVuSans-48"/>
       </defs>
       <use xlink:href="#DejaVuSans-49"/>
       <use x="63.623047" xlink:href="#DejaVuSans-46"/>
       <use x="95.410156" xlink:href="#DejaVuSans-48"/>
      </g>
     </g>
    </g>
    <g id="xtick_2">
     <g id="line2d_2">
      <g>
       <use style="stroke:#000000;stroke-width:0.8;" x="161.28" xlink:href="#mf00d0eaa77" y="384.48"/>
      </g>
     </g>
     <g id="text_2">
      <!-- 1.2 -->
      <g transform="translate(153.328438 399.078438)scale(0.1 -0.1)">
       <defs>
        <path d="M 19.1875 8.296875 
L 53.609375 8.296875 
L 53.609375 0 
L 7.328125 0 
L 7.328125 8.296875 
Q 12.9375 14.109375 22.625 23.890625 
Q 32.328125 33.6875 34.8125 36.53125 
Q 39.546875 41.84375 41.421875 45.53125 
Q 43.3125 49.21875 43.3125 52.78125 
Q 43.3125 58.59375 39.234375 62.25 
Q 35.15625 65.921875 28.609375 65.921875 
Q 23.96875 65.921875 18.8125 64.3125 
Q 13.671875 62.703125 7.8125 59.421875 
L 7.8125 69.390625 
Q 13.765625 71.78125 18.9375 73 
Q 24.125 74.21875 28.421875 74.21875 
Q 39.75 74.21875 46.484375 68.546875 
Q 53.21875 62.890625 53.21875 53.421875 
Q 53.21875 48.921875 51.53125 44.890625 
Q 49.859375 40.875 45.40625 35.40625 
Q 44.1875 33.984375 37.640625 27.21875 
Q 31.109375 20.453125 19.1875 8.296875 
z
" id="DejaVuSans-50"/>
       </defs>
       <use xlink:href="#DejaVuSans-49"/>
       <use x="63.623047" xlink:href="#DejaVuSans-46"/>
       <use x="95.410156" xlink:href="#DejaVuSans-50"/>
      </g>
     </g>
    </g>
    <g id="xtick_3">
     <g id="line2d_3">
      <g>
       <use style="stroke:#000000;stroke-width:0.8;" x="250.56" xlink:href="#mf00d0eaa77" y="384.48"/>
      </g>
     </g>
     <g id="text_3">
      <!-- 1.4 -->
      <g transform="translate(242.608438 399.078438)scale(0.1 -0.1)">
       <defs>
        <path d="M 37.796875 64.3125 
L 12.890625 25.390625 
L 37.796875 25.390625 
z
M 35.203125 72.90625 
L 47.609375 72.90625 
L 47.609375 25.390625 
L 58.015625 25.390625 
L 58.015625 17.1875 
L 47.609375 17.1875 
L 47.609375 0 
L 37.796875 0 
L 37.796875 17.1875 
L 4.890625 17.1875 
L 4.890625 26.703125 
z
" id="DejaVuSans-52"/>
       </defs>
       <use xlink:href="#DejaVuSans-49"/>
       <use x="63.623047" xlink:href="#DejaVuSans-46"/>
       <use x="95.410156" xlink:href="#DejaVuSans-52"/>
      </g>
     </g>
    </g>
    <g id="xtick_4">
     <g id="line2d_4">
      <g>
       <use style="stroke:#000000;stroke-width:0.8;" x="339.84" xlink:href="#mf00d0eaa77" y="384.48"/>
      </g>
     </g>
     <g id="text_4">
      <!-- 1.6 -->
      <g transform="translate(331.888438 399.078438)scale(0.1 -0.1)">
       <defs>
        <path d="M 33.015625 40.375 
Q 26.375 40.375 22.484375 35.828125 
Q 18.609375 31.296875 18.609375 23.390625 
Q 18.609375 15.53125 22.484375 10.953125 
Q 26.375 6.390625 33.015625 6.390625 
Q 39.65625 6.390625 43.53125 10.953125 
Q 47.40625 15.53125 47.40625 23.390625 
Q 47.40625 31.296875 43.53125 35.828125 
Q 39.65625 40.375 33.015625 40.375 
z
M 52.59375 71.296875 
L 52.59375 62.3125 
Q 48.875 64.0625 45.09375 64.984375 
Q 41.3125 65.921875 37.59375 65.921875 
Q 27.828125 65.921875 22.671875 59.328125 
Q 17.53125 52.734375 16.796875 39.40625 
Q 19.671875 43.65625 24.015625 45.921875 
Q 28.375 48.1875 33.59375 48.1875 
Q 44.578125 48.1875 50.953125 41.515625 
Q 57.328125 34.859375 57.328125 23.390625 
Q 57.328125 12.15625 50.6875 5.359375 
Q 44.046875 -1.421875 33.015625 -1.421875 
Q 20.359375 -1.421875 13.671875 8.265625 
Q 6.984375 17.96875 6.984375 36.375 
Q 6.984375 53.65625 15.1875 63.9375 
Q 23.390625 74.21875 37.203125 74.21875 
Q 40.921875 74.21875 44.703125 73.484375 
Q 48.484375 72.75 52.59375 71.296875 
z
" id="DejaVuSans-54"/>
       </defs>
       <use xlink:href="#DejaVuSans-49"/>
       <use x="63.623047" xlink:href="#DejaVuSans-46"/>
       <use x="95.410156" xlink:href="#DejaVuSans-54"/>
      </g>
     </g>
    </g>
    <g id="xtick_5">
     <g id="line2d_5">
      <g>
       <use style="stroke:#000000;stroke-width:0.8;" x="429.12" xlink:href="#mf00d0eaa77" y="384.48"/>
      </g>
     </g>
     <g id="text_5">
      <!-- 1.8 -->
      <g transform="translate(421.168437 399.078438)scale(0.1 -0.1)">
       <defs>
        <path d="M 31.78125 34.625 
Q 24.75 34.625 20.71875 30.859375 
Q 16.703125 27.09375 16.703125 20.515625 
Q 16.703125 13.921875 20.71875 10.15625 
Q 24.75 6.390625 31.78125 6.390625 
Q 38.8125 6.390625 42.859375 10.171875 
Q 46.921875 13.96875 46.921875 20.515625 
Q 46.921875 27.09375 42.890625 30.859375 
Q 38.875 34.625 31.78125 34.625 
z
M 21.921875 38.8125 
Q 15.578125 40.375 12.03125 44.71875 
Q 8.5 49.078125 8.5 55.328125 
Q 8.5 64.0625 14.71875 69.140625 
Q 20.953125 74.21875 31.78125 74.21875 
Q 42.671875 74.21875 48.875 69.140625 
Q 55.078125 64.0625 55.078125 55.328125 
Q 55.078125 49.078125 51.53125 44.71875 
Q 48 40.375 41.703125 38.8125 
Q 48.828125 37.15625 52.796875 32.3125 
Q 56.78125 27.484375 56.78125 20.515625 
Q 56.78125 9.90625 50.3125 4.234375 
Q 43.84375 -1.421875 31.78125 -1.421875 
Q 19.734375 -1.421875 13.25 4.234375 
Q 6.78125 9.90625 6.78125 20.515625 
Q 6.78125 27.484375 10.78125 32.3125 
Q 14.796875 37.15625 21.921875 38.8125 
z
M 18.3125 54.390625 
Q 18.3125 48.734375 21.84375 45.5625 
Q 25.390625 42.390625 31.78125 42.390625 
Q 38.140625 42.390625 41.71875 45.5625 
Q 45.3125 48.734375 45.3125 54.390625 
Q 45.3125 60.0625 41.71875 63.234375 
Q 38.140625 66.40625 31.78125 66.40625 
Q 25.390625 66.40625 21.84375 63.234375 
Q 18.3125 60.0625 18.3125 54.390625 
z
" id="DejaVuSans-56"/>
       </defs>
       <use xlink:href="#DejaVuSans-49"/>
       <use x="63.623047" xlink:href="#DejaVuSans-46"/>
       <use x="95.410156" xlink:href="#DejaVuSans-56"/>
      </g>
     </g>
    </g>
    <g id="xtick_6">
     <g id="line2d_6">
      <g>
       <use style="stroke:#000000;stroke-width:0.8;" x="518.4" xlink:href="#mf00d0eaa77" y="384.48"/>
      </g>
     </g>
     <g id="text_6">
      <!-- 2.0 -->
      <g transform="translate(510.448437 399.078438)scale(0.1 -0.1)">
       <use xlink:href="#DejaVuSans-50"/>
       <use x="63.623047" xlink:href="#DejaVuSans-46"/>
       <use x="95.410156" xlink:href="#DejaVuSans-48"/>
      </g>
     </g>
    </g>
    <g id="text_7">
     <!-- Current $I$ -->
     <g transform="translate(268.74 414.27625)scale(0.12 -0.12)">
      <defs>
       <path d="M 64.40625 67.28125 
L 64.40625 56.890625 
Q 59.421875 61.53125 53.78125 63.8125 
Q 48.140625 66.109375 41.796875 66.109375 
Q 29.296875 66.109375 22.65625 58.46875 
Q 16.015625 50.828125 16.015625 36.375 
Q 16.015625 21.96875 22.65625 14.328125 
Q 29.296875 6.6875 41.796875 6.6875 
Q 48.140625 6.6875 53.78125 8.984375 
Q 59.421875 11.28125 64.40625 15.921875 
L 64.40625 5.609375 
Q 59.234375 2.09375 53.4375 0.328125 
Q 47.65625 -1.421875 41.21875 -1.421875 
Q 24.65625 -1.421875 15.125 8.703125 
Q 5.609375 18.84375 5.609375 36.375 
Q 5.609375 53.953125 15.125 64.078125 
Q 24.65625 74.21875 41.21875 74.21875 
Q 47.75 74.21875 53.53125 72.484375 
Q 59.328125 70.75 64.40625 67.28125 
z
" id="DejaVuSans-67"/>
       <path d="M 8.5 21.578125 
L 8.5 54.6875 
L 17.484375 54.6875 
L 17.484375 21.921875 
Q 17.484375 14.15625 20.5 10.265625 
Q 23.53125 6.390625 29.59375 6.390625 
Q 36.859375 6.390625 41.078125 11.03125 
Q 45.3125 15.671875 45.3125 23.6875 
L 45.3125 54.6875 
L 54.296875 54.6875 
L 54.296875 0 
L 45.3125 0 
L 45.3125 8.40625 
Q 42.046875 3.421875 37.71875 1 
Q 33.40625 -1.421875 27.6875 -1.421875 
Q 18.265625 -1.421875 13.375 4.4375 
Q 8.5 10.296875 8.5 21.578125 
z
M 31.109375 56 
z
" id="DejaVuSans-117"/>
       <path d="M 41.109375 46.296875 
Q 39.59375 47.171875 37.8125 47.578125 
Q 36.03125 48 33.890625 48 
Q 26.265625 48 22.1875 43.046875 
Q 18.109375 38.09375 18.109375 28.8125 
L 18.109375 0 
L 9.078125 0 
L 9.078125 54.6875 
L 18.109375 54.6875 
L 18.109375 46.1875 
Q 20.953125 51.171875 25.484375 53.578125 
Q 30.03125 56 36.53125 56 
Q 37.453125 56 38.578125 55.875 
Q 39.703125 55.765625 41.0625 55.515625 
z
" id="DejaVuSans-114"/>
       <path d="M 56.203125 29.59375 
L 56.203125 25.203125 
L 14.890625 25.203125 
Q 15.484375 15.921875 20.484375 11.0625 
Q 25.484375 6.203125 34.421875 6.203125 
Q 39.59375 6.203125 44.453125 7.46875 
Q 49.3125 8.734375 54.109375 11.28125 
L 54.109375 2.78125 
Q 49.265625 0.734375 44.1875 -0.34375 
Q 39.109375 -1.421875 33.890625 -1.421875 
Q 20.796875 -1.421875 13.15625 6.1875 
Q 5.515625 13.8125 5.515625 26.8125 
Q 5.515625 40.234375 12.765625 48.109375 
Q 20.015625 56 32.328125 56 
Q 43.359375 56 49.78125 48.890625 
Q 56.203125 41.796875 56.203125 29.59375 
z
M 47.21875 32.234375 
Q 47.125 39.59375 43.09375 43.984375 
Q 39.0625 48.390625 32.421875 48.390625 
Q 24.90625 48.390625 20.390625 44.140625 
Q 15.875 39.890625 15.1875 32.171875 
z
" id="DejaVuSans-101"/>
       <path d="M 54.890625 33.015625 
L 54.890625 0 
L 45.90625 0 
L 45.90625 32.71875 
Q 45.90625 40.484375 42.875 44.328125 
Q 39.84375 48.1875 33.796875 48.1875 
Q 26.515625 48.1875 22.3125 43.546875 
Q 18.109375 38.921875 18.109375 30.90625 
L 18.109375 0 
L 9.078125 0 
L 9.078125 54.6875 
L 18.109375 54.6875 
L 18.109375 46.1875 
Q 21.34375 51.125 25.703125 53.5625 
Q 30.078125 56 35.796875 56 
Q 45.21875 56 50.046875 50.171875 
Q 54.890625 44.34375 54.890625 33.015625 
z
" id="DejaVuSans-110"/>
       <path d="M 18.3125 70.21875 
L 18.3125 54.6875 
L 36.8125 54.6875 
L 36.8125 47.703125 
L 18.3125 47.703125 
L 18.3125 18.015625 
Q 18.3125 11.328125 20.140625 9.421875 
Q 21.96875 7.515625 27.59375 7.515625 
L 36.8125 7.515625 
L 36.8125 0 
L 27.59375 0 
Q 17.1875 0 13.234375 3.875 
Q 9.28125 7.765625 9.28125 18.015625 
L 9.28125 47.703125 
L 2.6875 47.703125 
L 2.6875 54.6875 
L 9.28125 54.6875 
L 9.28125 70.21875 
z
" id="DejaVuSans-116"/>
       <path id="DejaVuSans-32"/>
       <path d="M 16.890625 72.90625 
L 26.8125 72.90625 
L 12.59375 0 
L 2.6875 0 
z
" id="DejaVuSans-Oblique-73"/>
      </defs>
      <use transform="translate(0 0.78125)" xlink:href="#DejaVuSans-67"/>
      <use transform="translate(69.824219 0.78125)" xlink:href="#DejaVuSans-117"/>
      <use transform="translate(133.203125 0.78125)" xlink:href="#DejaVuSans-114"/>
      <use transform="translate(174.316406 0.78125)" xlink:href="#DejaVuSans-114"/>
      <use transform="translate(215.429688 0.78125)" xlink:href="#DejaVuSans-101"/>
      <use transform="translate(276.953125 0.78125)" xlink:href="#DejaVuSans-110"/>
      <use transform="translate(340.332031 0.78125)" xlink:href="#DejaVuSans-116"/>
      <use transform="translate(379.541016 0.78125)" xlink:href="#DejaVuSans-32"/>
      <use transform="translate(411.328125 0.78125)" xlink:href="#DejaVuSans-Oblique-73"/>
     </g>
    </g>
   </g>
   <g id="matplotlib.axis_2">
    <g id="ytick_1">
     <g id="line2d_7">
      <defs>
       <path d="M 0 0 
L -3.5 0 
" id="m4f0284cb2b" style="stroke:#000000;stroke-width:0.8;"/>
      </defs>
      <g>
       <use style="stroke:#000000;stroke-width:0.8;" x="72" xlink:href="#m4f0284cb2b" y="369.36"/>
      </g>
     </g>
     <g id="text_8">
      <!-- 0.0 -->
      <g transform="translate(49.096875 373.159219)scale(0.1 -0.1)">
       <use xlink:href="#DejaVuSans-48"/>
       <use x="63.623047" xlink:href="#DejaVuSans-46"/>
       <use x="95.410156" xlink:href="#DejaVuSans-48"/>
      </g>
     </g>
    </g>
    <g id="ytick_2">
     <g id="line2d_8">
      <g>
       <use style="stroke:#000000;stroke-width:0.8;" x="72" xlink:href="#m4f0284cb2b" y="308.88"/>
      </g>
     </g>
     <g id="text_9">
      <!-- 0.2 -->
      <g transform="translate(49.096875 312.679219)scale(0.1 -0.1)">
       <use xlink:href="#DejaVuSans-48"/>
       <use x="63.623047" xlink:href="#DejaVuSans-46"/>
       <use x="95.410156" xlink:href="#DejaVuSans-50"/>
      </g>
     </g>
    </g>
    <g id="ytick_3">
     <g id="line2d_9">
      <g>
       <use style="stroke:#000000;stroke-width:0.8;" x="72" xlink:href="#m4f0284cb2b" y="248.4"/>
      </g>
     </g>
     <g id="text_10">
      <!-- 0.4 -->
      <g transform="translate(49.096875 252.199219)scale(0.1 -0.1)">
       <use xlink:href="#DejaVuSans-48"/>
       <use x="63.623047" xlink:href="#DejaVuSans-46"/>
       <use x="95.410156" xlink:href="#DejaVuSans-52"/>
      </g>
     </g>
    </g>
    <g id="ytick_4">
     <g id="line2d_10">
      <g>
       <use style="stroke:#000000;stroke-width:0.8;" x="72" xlink:href="#m4f0284cb2b" y="187.92"/>
      </g>
     </g>
     <g id="text_11">
      <!-- 0.6 -->
      <g transform="translate(49.096875 191.719219)scale(0.1 -0.1)">
       <use xlink:href="#DejaVuSans-48"/>
       <use x="63.623047" xlink:href="#DejaVuSans-46"/>
       <use x="95.410156" xlink:href="#DejaVuSans-54"/>
      </g>
     </g>
    </g>
    <g id="ytick_5">
     <g id="line2d_11">
      <g>
       <use style="stroke:#000000;stroke-width:0.8;" x="72" xlink:href="#m4f0284cb2b" y="127.44"/>
      </g>
     </g>
     <g id="text_12">
      <!-- 0.8 -->
      <g transform="translate(49.096875 131.239219)scale(0.1 -0.1)">
       <use xlink:href="#DejaVuSans-48"/>
       <use x="63.623047" xlink:href="#DejaVuSans-46"/>
       <use x="95.410156" xlink:href="#DejaVuSans-56"/>
      </g>
     </g>
    </g>
    <g id="ytick_6">
     <g id="line2d_12">
      <g>
       <use style="stroke:#000000;stroke-width:0.8;" x="72" xlink:href="#m4f0284cb2b" y="66.96"/>
      </g>
     </g>
     <g id="text_13">
      <!-- 1.0 -->
      <g transform="translate(49.096875 70.759219)scale(0.1 -0.1)">
       <use xlink:href="#DejaVuSans-49"/>
       <use x="63.623047" xlink:href="#DejaVuSans-46"/>
       <use x="95.410156" xlink:href="#DejaVuSans-48"/>
      </g>
     </g>
    </g>
    <g id="text_14">
     <!-- Phase Difference $\phi$ -->
     <g transform="translate(42.576875 275.04)rotate(-90)scale(0.12 -0.12)">
      <defs>
       <path d="M 19.671875 64.796875 
L 19.671875 37.40625 
L 32.078125 37.40625 
Q 38.96875 37.40625 42.71875 40.96875 
Q 46.484375 44.53125 46.484375 51.125 
Q 46.484375 57.671875 42.71875 61.234375 
Q 38.96875 64.796875 32.078125 64.796875 
z
M 9.8125 72.90625 
L 32.078125 72.90625 
Q 44.34375 72.90625 50.609375 67.359375 
Q 56.890625 61.8125 56.890625 51.125 
Q 56.890625 40.328125 50.609375 34.8125 
Q 44.34375 29.296875 32.078125 29.296875 
L 19.671875 29.296875 
L 19.671875 0 
L 9.8125 0 
z
" id="DejaVuSans-80"/>
       <path d="M 54.890625 33.015625 
L 54.890625 0 
L 45.90625 0 
L 45.90625 32.71875 
Q 45.90625 40.484375 42.875 44.328125 
Q 39.84375 48.1875 33.796875 48.1875 
Q 26.515625 48.1875 22.3125 43.546875 
Q 18.109375 38.921875 18.109375 30.90625 
L 18.109375 0 
L 9.078125 0 
L 9.078125 75.984375 
L 18.109375 75.984375 
L 18.109375 46.1875 
Q 21.34375 51.125 25.703125 53.5625 
Q 30.078125 56 35.796875 56 
Q 45.21875 56 50.046875 50.171875 
Q 54.890625 44.34375 54.890625 33.015625 
z
" id="DejaVuSans-104"/>
       <path d="M 34.28125 27.484375 
Q 23.390625 27.484375 19.1875 25 
Q 14.984375 22.515625 14.984375 16.5 
Q 14.984375 11.71875 18.140625 8.90625 
Q 21.296875 6.109375 26.703125 6.109375 
Q 34.1875 6.109375 38.703125 11.40625 
Q 43.21875 16.703125 43.21875 25.484375 
L 43.21875 27.484375 
z
M 52.203125 31.203125 
L 52.203125 0 
L 43.21875 0 
L 43.21875 8.296875 
Q 40.140625 3.328125 35.546875 0.953125 
Q 30.953125 -1.421875 24.3125 -1.421875 
Q 15.921875 -1.421875 10.953125 3.296875 
Q 6 8.015625 6 15.921875 
Q 6 25.140625 12.171875 29.828125 
Q 18.359375 34.515625 30.609375 34.515625 
L 43.21875 34.515625 
L 43.21875 35.40625 
Q 43.21875 41.609375 39.140625 45 
Q 35.0625 48.390625 27.6875 48.390625 
Q 23 48.390625 18.546875 47.265625 
Q 14.109375 46.140625 10.015625 43.890625 
L 10.015625 52.203125 
Q 14.9375 54.109375 19.578125 55.046875 
Q 24.21875 56 28.609375 56 
Q 40.484375 56 46.34375 49.84375 
Q 52.203125 43.703125 52.203125 31.203125 
z
" id="DejaVuSans-97"/>
       <path d="M 44.28125 53.078125 
L 44.28125 44.578125 
Q 40.484375 46.53125 36.375 47.5 
Q 32.28125 48.484375 27.875 48.484375 
Q 21.1875 48.484375 17.84375 46.4375 
Q 14.5 44.390625 14.5 40.28125 
Q 14.5 37.15625 16.890625 35.375 
Q 19.28125 33.59375 26.515625 31.984375 
L 29.59375 31.296875 
Q 39.15625 29.25 43.1875 25.515625 
Q 47.21875 21.78125 47.21875 15.09375 
Q 47.21875 7.46875 41.1875 3.015625 
Q 35.15625 -1.421875 24.609375 -1.421875 
Q 20.21875 -1.421875 15.453125 -0.5625 
Q 10.6875 0.296875 5.421875 2 
L 5.421875 11.28125 
Q 10.40625 8.6875 15.234375 7.390625 
Q 20.0625 6.109375 24.8125 6.109375 
Q 31.15625 6.109375 34.5625 8.28125 
Q 37.984375 10.453125 37.984375 14.40625 
Q 37.984375 18.0625 35.515625 20.015625 
Q 33.0625 21.96875 24.703125 23.78125 
L 21.578125 24.515625 
Q 13.234375 26.265625 9.515625 29.90625 
Q 5.8125 33.546875 5.8125 39.890625 
Q 5.8125 47.609375 11.28125 51.796875 
Q 16.75 56 26.8125 56 
Q 31.78125 56 36.171875 55.265625 
Q 40.578125 54.546875 44.28125 53.078125 
z
" id="DejaVuSans-115"/>
       <path d="M 19.671875 64.796875 
L 19.671875 8.109375 
L 31.59375 8.109375 
Q 46.6875 8.109375 53.6875 14.9375 
Q 60.6875 21.78125 60.6875 36.53125 
Q 60.6875 51.171875 53.6875 57.984375 
Q 46.6875 64.796875 31.59375 64.796875 
z
M 9.8125 72.90625 
L 30.078125 72.90625 
Q 51.265625 72.90625 61.171875 64.09375 
Q 71.09375 55.28125 71.09375 36.53125 
Q 71.09375 17.671875 61.125 8.828125 
Q 51.171875 0 30.078125 0 
L 9.8125 0 
z
" id="DejaVuSans-68"/>
       <path d="M 9.421875 54.6875 
L 18.40625 54.6875 
L 18.40625 0 
L 9.421875 0 
z
M 9.421875 75.984375 
L 18.40625 75.984375 
L 18.40625 64.59375 
L 9.421875 64.59375 
z
" id="DejaVuSans-105"/>
       <path d="M 37.109375 75.984375 
L 37.109375 68.5 
L 28.515625 68.5 
Q 23.6875 68.5 21.796875 66.546875 
Q 19.921875 64.59375 19.921875 59.515625 
L 19.921875 54.6875 
L 34.71875 54.6875 
L 34.71875 47.703125 
L 19.921875 47.703125 
L 19.921875 0 
L 10.890625 0 
L 10.890625 47.703125 
L 2.296875 47.703125 
L 2.296875 54.6875 
L 10.890625 54.6875 
L 10.890625 58.5 
Q 10.890625 67.625 15.140625 71.796875 
Q 19.390625 75.984375 28.609375 75.984375 
z
" id="DejaVuSans-102"/>
       <path d="M 48.78125 52.59375 
L 48.78125 44.1875 
Q 44.96875 46.296875 41.140625 47.34375 
Q 37.3125 48.390625 33.40625 48.390625 
Q 24.65625 48.390625 19.8125 42.84375 
Q 14.984375 37.3125 14.984375 27.296875 
Q 14.984375 17.28125 19.8125 11.734375 
Q 24.65625 6.203125 33.40625 6.203125 
Q 37.3125 6.203125 41.140625 7.25 
Q 44.96875 8.296875 48.78125 10.40625 
L 48.78125 2.09375 
Q 45.015625 0.34375 40.984375 -0.53125 
Q 36.96875 -1.421875 32.421875 -1.421875 
Q 20.0625 -1.421875 12.78125 6.34375 
Q 5.515625 14.109375 5.515625 27.296875 
Q 5.515625 40.671875 12.859375 48.328125 
Q 20.21875 56 33.015625 56 
Q 37.15625 56 41.109375 55.140625 
Q 45.0625 54.296875 48.78125 52.59375 
z
" id="DejaVuSans-99"/>
       <path d="M 46.734375 75.984375 
L 42.78125 55.8125 
Q 52.546875 55.8125 57.5625 48.34375 
Q 62.75 40.71875 60.15625 27.296875 
Q 57.515625 13.875 49.359375 6.25 
Q 41.453125 -1.21875 31.6875 -1.21875 
L 27.875 -20.796875 
L 18.953125 -20.796875 
L 22.75 -1.21875 
Q 13.03125 -1.21875 7.953125 6.25 
Q 2.78125 13.875 5.421875 27.296875 
Q 8.015625 40.71875 16.15625 48.34375 
Q 24.125 55.8125 33.84375 55.8125 
L 37.796875 75.984375 
z
M 33.25 6.78125 
Q 38.765625 6.78125 43.5 11.8125 
Q 48.6875 17.4375 50.6875 27.296875 
Q 52.640625 37.0625 49.515625 42.78125 
Q 46.734375 47.796875 41.21875 47.796875 
z
M 24.3125 6.78125 
L 32.28125 47.796875 
Q 26.8125 47.796875 22.078125 42.78125 
Q 16.75 37.0625 14.890625 27.296875 
Q 13.03125 17.4375 16.0625 11.8125 
Q 18.796875 6.78125 24.3125 6.78125 
z
" id="DejaVuSans-Oblique-981"/>
      </defs>
      <use transform="translate(0 0.015625)" xlink:href="#DejaVuSans-80"/>
      <use transform="translate(60.302734 0.015625)" xlink:href="#DejaVuSans-104"/>
      <use transform="translate(123.681641 0.015625)" xlink:href="#DejaVuSans-97"/>
      <use transform="translate(184.960938 0.015625)" xlink:href="#DejaVuSans-115"/>
      <use transform="translate(237.060547 0.015625)" xlink:href="#DejaVuSans-101"/>
      <use transform="translate(298.583984 0.015625)" xlink:href="#DejaVuSans-32"/>
      <use transform="translate(330.371094 0.015625)" xlink:href="#DejaVuSans-68"/>
      <use transform="translate(407.373047 0.015625)" xlink:href="#DejaVuSans-105"/>
      <use transform="translate(435.15625 0.015625)" xlink:href="#DejaVuSans-102"/>
      <use transform="translate(470.361328 0.015625)" xlink:href="#DejaVuSans-102"/>
      <use transform="translate(505.566406 0.015625)" xlink:href="#DejaVuSans-101"/>
      <use transform="translate(567.089844 0.015625)" xlink:href="#DejaVuSans-114"/>
      <use transform="translate(608.203125 0.015625)" xlink:href="#DejaVuSans-101"/>
      <use transform="translate(669.726562 0.015625)" xlink:href="#DejaVuSans-110"/>
      <use transform="translate(733.105469 0.015625)" xlink:href="#DejaVuSans-99"/>
      <use transform="translate(788.085938 0.015625)" xlink:href="#DejaVuSans-101"/>
      <use transform="translate(849.609375 0.015625)" xlink:href="#DejaVuSans-32"/>
      <use transform="translate(881.396484 0.015625)" xlink:href="#DejaVuSans-Oblique-981"/>
     </g>
    </g>
   </g>
   <g id="line2d_13">
    <path clip-path="url(#peaa55a6cb2)" d="M 359.345537 218.16 
L 359.345537 216.801559 
L 358.932394 211.02336 
L 358.106152 206.05638 
L 357.279911 202.718186 
L 356.040526 198.932501 
L 354.801141 195.955887 
L 353.561756 193.494714 
L 351.909228 190.777982 
L 349.430458 187.003849 
L 347.777929 184.231899 
L 346.125401 181.863412 
L 344.472918 179.825508 
L 342.407246 177.665465 
L 341.167861 176.427772 
L 339.102235 173.828069 
L 337.036608 171.608 
L 334.970937 169.717455 
L 332.079068 167.190722 
L 330.013397 165.155026 
L 327.94777 163.395572 
L 325.882143 161.887019 
L 324.642758 161.004344 
L 322.163988 158.827245 
L 319.685219 156.985811 
L 315.55392 154.11047 
L 313.075151 152.333447 
L 310.596381 150.83814 
L 309.356996 150.087069 
L 306.878226 148.338259 
L 304.399456 146.853929 
L 301.507543 145.169712 
L 299.028773 143.632189 
L 296.550003 142.333865 
L 295.310618 141.667043 
L 292.831848 140.177118 
L 290.353078 138.913903 
L 288.70055 138.090014 
L 285.808681 136.485359 
L 277.546085 132.487389 
L 276.3067 131.912829 
L 273.414832 130.478092 
L 256.889684 123.281577 
L 240.77768 117.019175 
L 238.712008 116.23608 
L 233.341325 114.287475 
L 220.534377 109.90074 
L 199.877931 103.442534 
L 192.441622 101.278257 
L 165.175152 93.988845 
L 158.978228 92.451594 
L 147.41062 89.691499 
L 138.734925 87.699318 
L 124.688547 84.60755 
L 105.68463 80.592222 
L 105.68463 80.592222 
" style="fill:none;stroke:#aa3863;stroke-dasharray:5.55,2.4;stroke-dashoffset:0;stroke-width:1.5;"/>
   </g>
   <g id="line2d_14">
    <path clip-path="url(#peaa55a6cb2)" d="M 359.345537 218.16 
L 359.345537 219.518441 
L 358.932394 225.29664 
L 358.106152 230.26362 
L 357.279911 233.601814 
L 356.040526 237.387499 
L 354.801141 240.364113 
L 353.561756 242.825286 
L 351.909228 245.542018 
L 349.430458 249.316151 
L 347.777929 252.088101 
L 346.125401 254.456588 
L 344.472918 256.494492 
L 342.407246 258.654535 
L 341.167861 259.892228 
L 339.102235 262.491931 
L 337.036608 264.712 
L 334.970937 266.602545 
L 332.079068 269.129278 
L 330.013397 271.164974 
L 327.94777 272.924428 
L 325.882143 274.432981 
L 324.642758 275.315656 
L 322.163988 277.492755 
L 319.685219 279.334189 
L 315.55392 282.20953 
L 313.075151 283.986553 
L 310.596381 285.48186 
L 309.356996 286.232931 
L 306.878226 287.981741 
L 304.399456 289.466071 
L 301.507543 291.150288 
L 299.028773 292.687811 
L 296.550003 293.986135 
L 295.310618 294.652957 
L 292.831848 296.142882 
L 290.353078 297.406097 
L 288.70055 298.229986 
L 285.808681 299.834641 
L 277.546085 303.832611 
L 276.3067 304.407171 
L 273.414832 305.841908 
L 256.889684 313.038423 
L 240.77768 319.300825 
L 238.712008 320.08392 
L 233.341325 322.032525 
L 220.534377 326.41926 
L 199.877931 332.877466 
L 192.441622 335.041743 
L 165.175152 342.331155 
L 158.978228 343.868406 
L 147.41062 346.628501 
L 138.734925 348.620682 
L 124.688547 351.71245 
L 105.68463 355.727778 
L 105.68463 355.727778 
" style="fill:none;stroke:#aa3863;stroke-dasharray:5.55,2.4;stroke-dashoffset:0;stroke-width:1.5;"/>
   </g>
   <g id="line2d_15">
    <path clip-path="url(#peaa55a6cb2)" d="M 345.258448 218.16 
L 345.258448 215.173044 
L 344.832002 211.269514 
L 343.97911 207.18415 
L 343.126174 204.45121 
L 341.846791 200.870401 
L 340.993899 197.98738 
L 339.714517 194.523448 
L 338.435135 191.739977 
L 337.155797 189.436476 
L 335.876414 187.508434 
L 334.597032 185.886058 
L 333.74414 184.952579 
L 332.038312 181.954253 
L 330.332484 179.445784 
L 328.626655 177.360343 
L 326.920827 175.636149 
L 325.641444 174.553648 
L 323.50917 171.757536 
L 321.803342 169.884441 
L 320.097514 168.302163 
L 318.391685 166.985302 
L 317.965239 166.694998 
L 314.553583 163.170374 
L 312.421264 161.44361 
L 309.862544 159.564436 
L 307.730269 157.618401 
L 305.597951 156.01045 
L 302.186294 153.631953 
L 300.05402 151.965215 
L 297.921745 150.595705 
L 296.215917 149.617562 
L 294.083643 147.980127 
L 291.951324 146.621988 
L 288.966158 144.866768 
L 286.833884 143.437323 
L 284.701565 142.262983 
L 282.995736 141.338032 
L 280.863462 139.96562 
L 278.731188 138.834825 
L 277.02536 137.981694 
L 274.893085 136.680588 
L 272.760767 135.609366 
L 271.054938 134.777585 
L 268.922664 133.560667 
L 266.79039 132.563714 
L 265.511007 131.965597 
L 263.378733 130.801509 
L 261.246459 129.849372 
L 259.967076 129.257394 
L 257.408312 127.964422 
L 237.364862 119.290471 
L 234.806098 118.26473 
L 232.247377 117.284138 
L 230.967995 116.77659 
L 228.409275 115.774497 
L 226.276956 114.957351 
L 223.718236 114.031644 
L 222.438853 113.532291 
L 219.880133 112.609971 
L 218.600751 112.135566 
L 216.041986 111.228094 
L 214.762648 110.764364 
L 212.203884 109.882323 
L 210.498055 109.261405 
L 204.954124 107.416493 
L 190.028115 102.596358 
L 161.455524 94.407306 
L 149.941172 91.394132 
L 142.691413 89.58327 
L 134.162271 87.505842 
L 92.3695 77.980121 
L 92.3695 77.980121 
" style="fill:none;stroke:#d97020;stroke-dasharray:5.55,2.4;stroke-dashoffset:0;stroke-width:1.5;"/>
   </g>
   <g id="line2d_16">
    <path clip-path="url(#peaa55a6cb2)" d="M 345.258448 218.16 
L 345.258448 221.146956 
L 344.832002 225.050486 
L 343.97911 229.13585 
L 343.126174 231.86879 
L 341.846791 235.449599 
L 340.993899 238.33262 
L 339.714517 241.796552 
L 338.435135 244.580023 
L 337.155797 246.883524 
L 335.876414 248.811566 
L 334.597032 250.433942 
L 333.74414 251.367421 
L 332.038312 254.365747 
L 330.332484 256.874216 
L 328.626655 258.959657 
L 326.920827 260.683851 
L 325.641444 261.766352 
L 323.50917 264.562464 
L 321.803342 266.435559 
L 320.097514 268.017837 
L 318.391685 269.334698 
L 317.965239 269.625002 
L 314.553583 273.149626 
L 312.421264 274.87639 
L 309.862544 276.755564 
L 307.730269 278.701599 
L 305.597951 280.30955 
L 302.186294 282.688047 
L 300.05402 284.354785 
L 297.921745 285.724295 
L 296.215917 286.702438 
L 294.083643 288.339873 
L 291.951324 289.698012 
L 288.966158 291.453232 
L 286.833884 292.882677 
L 284.701565 294.057017 
L 282.995736 294.981968 
L 280.863462 296.35438 
L 278.731188 297.485175 
L 277.02536 298.338306 
L 274.893085 299.639412 
L 272.760767 300.710634 
L 271.054938 301.542415 
L 268.922664 302.759333 
L 266.79039 303.756286 
L 265.511007 304.354403 
L 263.378733 305.518491 
L 261.246459 306.470628 
L 259.967076 307.062606 
L 257.408312 308.355578 
L 237.364862 317.029529 
L 234.806098 318.05527 
L 232.247377 319.035862 
L 230.967995 319.54341 
L 228.409275 320.545503 
L 226.276956 321.362649 
L 223.718236 322.288356 
L 222.438853 322.787709 
L 219.880133 323.710029 
L 218.600751 324.184434 
L 216.041986 325.091906 
L 214.762648 325.555636 
L 212.203884 326.437677 
L 210.498055 327.058595 
L 204.954124 328.903507 
L 190.028115 333.723642 
L 161.455524 341.912694 
L 149.941172 344.925868 
L 142.691413 346.73673 
L 134.162271 348.814158 
L 92.3695 358.339879 
L 92.3695 358.339879 
" style="fill:none;stroke:#d97020;stroke-dasharray:5.55,2.4;stroke-dashoffset:0;stroke-width:1.5;"/>
   </g>
   <g id="line2d_17">
    <path clip-path="url(#peaa55a6cb2)" d="M 328.736693 218.16 
L 328.736693 208.155338 
L 324.325948 195.084672 
L 319.915159 186.400259 
L 315.50437 179.717975 
L 311.093626 174.820062 
L 306.682836 169.296575 
L 302.272047 165.25518 
L 297.861303 161.199603 
L 293.450514 157.269492 
L 289.039725 154.066501 
L 284.62898 150.795259 
L 280.218191 147.51933 
L 275.807402 144.666186 
L 271.396657 142.100987 
L 266.985868 139.324562 
L 262.575079 136.667857 
L 258.164335 134.21125 
L 253.753546 131.897255 
L 249.342756 129.685471 
L 244.932012 127.547927 
L 240.521223 125.467021 
L 236.110434 123.432474 
L 231.699689 121.440384 
L 227.2889 119.491628 
L 222.878111 117.590439 
L 218.467367 115.744075 
L 214.056577 113.962516 
L 209.645788 112.257131 
L 205.235044 110.64165 
L 200.824255 108.998166 
L 196.413466 107.388552 
L 192.002721 105.912114 
L 187.591932 104.345924 
L 183.181143 102.929149 
L 178.770398 101.452802 
L 174.359609 100.051602 
L 169.94882 98.697545 
L 165.538076 97.369011 
L 161.127287 96.056928 
L 156.716497 94.764501 
L 152.305753 93.503523 
L 147.894964 92.292078 
L 143.484175 91.071289 
L 139.07343 89.89329 
L 134.662641 88.733314 
L 130.251852 87.590424 
L 125.841108 86.479285 
L 121.430318 85.369114 
L 117.019529 84.279234 
L 112.608785 83.199606 
L 108.197996 82.130682 
L 103.787207 81.066234 
L 99.376462 80.00224 
L 94.965673 78.930232 
L 90.554884 77.839505 
L 86.144139 76.707773 
L 81.73335 75.493335 
" style="fill:none;stroke:#ef9f07;stroke-dasharray:5.55,2.4;stroke-dashoffset:0;stroke-width:1.5;"/>
   </g>
   <g id="line2d_18">
    <path clip-path="url(#peaa55a6cb2)" d="M 328.736693 218.16 
L 328.736693 228.164662 
L 324.325948 241.235328 
L 319.915159 249.919741 
L 315.50437 256.602025 
L 311.093626 261.499938 
L 306.682836 267.023425 
L 302.272047 271.06482 
L 297.861303 275.120397 
L 293.450514 279.050508 
L 289.039725 282.253499 
L 284.62898 285.524741 
L 280.218191 288.80067 
L 275.807402 291.653814 
L 271.396657 294.219013 
L 266.985868 296.995438 
L 262.575079 299.652143 
L 258.164335 302.10875 
L 253.753546 304.422745 
L 249.342756 306.634529 
L 244.932012 308.772073 
L 240.521223 310.852979 
L 236.110434 312.887526 
L 231.699689 314.879616 
L 227.2889 316.828372 
L 222.878111 318.729561 
L 218.467367 320.575925 
L 214.056577 322.357484 
L 209.645788 324.062869 
L 205.235044 325.67835 
L 200.824255 327.321834 
L 196.413466 328.931448 
L 192.002721 330.407886 
L 187.591932 331.974076 
L 183.181143 333.390851 
L 178.770398 334.867198 
L 174.359609 336.268398 
L 169.94882 337.622455 
L 165.538076 338.950989 
L 161.127287 340.263072 
L 156.716497 341.555499 
L 152.305753 342.816477 
L 147.894964 344.027922 
L 143.484175 345.248711 
L 139.07343 346.42671 
L 134.662641 347.586686 
L 130.251852 348.729576 
L 125.841108 349.840715 
L 121.430318 350.950886 
L 117.019529 352.040766 
L 112.608785 353.120394 
L 108.197996 354.189318 
L 103.787207 355.253766 
L 99.376462 356.31776 
L 94.965673 357.389768 
L 90.554884 358.480495 
L 86.144139 359.612227 
L 81.73335 360.826665 
" style="fill:none;stroke:#ef9f07;stroke-dasharray:5.55,2.4;stroke-dashoffset:0;stroke-width:1.5;"/>
   </g>
   <g id="line2d_19">
    <path clip-path="url(#peaa55a6cb2)" d="M 312.192171 218.16 
L 312.192171 209.381298 
L 307.709423 194.030083 
L 303.226629 187.311995 
L 298.743836 178.456543 
L 294.261087 173.06333 
L 289.778293 168.980718 
L 285.2955 163.360675 
L 280.812751 159.174672 
L 276.329958 155.848756 
L 271.847164 152.318448 
L 267.364416 148.512079 
L 262.881622 145.240353 
L 258.398829 142.311034 
L 253.91608 139.59524 
L 249.433286 137.008299 
L 244.950493 134.496504 
L 240.467744 131.940831 
L 235.984951 129.469225 
L 231.502157 127.143225 
L 227.019408 124.837636 
L 222.536615 122.543479 
L 218.053822 120.337199 
L 213.571073 118.247977 
L 209.088279 116.309624 
L 204.605486 114.560088 
L 200.122692 112.537849 
L 195.639944 110.73237 
L 191.15715 109.024717 
L 186.674357 107.260515 
L 182.191608 105.60288 
L 177.708815 104.06073 
L 173.226021 102.398679 
L 168.743272 100.837479 
L 164.260479 99.33071 
L 159.777685 97.865734 
L 155.294937 96.456701 
L 150.812143 95.042648 
L 146.32935 93.654541 
L 141.846601 92.302783 
L 137.363808 90.990216 
L 132.881014 89.690924 
L 128.398265 88.431549 
L 123.915472 87.173444 
L 119.432678 85.946426 
L 114.94993 84.745535 
L 110.467136 83.544009 
L 105.984343 82.360718 
L 101.501594 81.17032 
L 97.0188 79.98718 
L 92.536007 78.792519 
L 88.053258 77.56544 
L 83.570465 76.27773 
L 79.087671 74.855241 
L 74.604923 73.027777 
" style="fill:none;stroke:#449775;stroke-dasharray:5.55,2.4;stroke-dashoffset:0;stroke-width:1.5;"/>
   </g>
   <g id="line2d_20">
    <path clip-path="url(#peaa55a6cb2)" d="M 312.192171 218.16 
L 312.192171 226.938702 
L 307.709423 242.289917 
L 303.226629 249.008005 
L 298.743836 257.863457 
L 294.261087 263.25667 
L 289.778293 267.339282 
L 285.2955 272.959325 
L 280.812751 277.145328 
L 276.329958 280.471244 
L 271.847164 284.001552 
L 267.364416 287.807921 
L 262.881622 291.079647 
L 258.398829 294.008966 
L 253.91608 296.72476 
L 249.433286 299.311701 
L 244.950493 301.823496 
L 240.467744 304.379169 
L 235.984951 306.850775 
L 231.502157 309.176775 
L 227.019408 311.482364 
L 222.536615 313.776521 
L 218.053822 315.982801 
L 213.571073 318.072023 
L 209.088279 320.010376 
L 204.605486 321.759912 
L 200.122692 323.782151 
L 195.639944 325.58763 
L 191.15715 327.295283 
L 186.674357 329.059485 
L 182.191608 330.71712 
L 177.708815 332.25927 
L 173.226021 333.921321 
L 168.743272 335.482521 
L 164.260479 336.98929 
L 159.777685 338.454266 
L 155.294937 339.863299 
L 150.812143 341.277352 
L 146.32935 342.665459 
L 141.846601 344.017217 
L 137.363808 345.329784 
L 132.881014 346.629076 
L 128.398265 347.888451 
L 123.915472 349.146556 
L 119.432678 350.373574 
L 114.94993 351.574465 
L 110.467136 352.775991 
L 105.984343 353.959282 
L 101.501594 355.14968 
L 97.0188 356.33282 
L 92.536007 357.527481 
L 88.053258 358.75456 
L 83.570465 360.04227 
L 79.087671 361.464759 
L 74.604923 363.292223 
" style="fill:none;stroke:#449775;stroke-dasharray:5.55,2.4;stroke-dashoffset:0;stroke-width:1.5;"/>
   </g>
   <g id="line2d_21">
    <path clip-path="url(#peaa55a6cb2)" d="M 292.593024 218.16 
L 292.593024 218.4624 
L 292.58856 218.7648 
L 292.579632 219.3696 
L 292.539456 220.578898 
L 292.396608 222.996586 
L 292.079664 226.013026 
L 291.610944 229.020394 
L 290.994912 232.015363 
L 290.231568 234.99491 
L 289.325376 237.956011 
L 288.2808 240.895642 
L 287.093376 243.811382 
L 285.776496 246.700814 
L 284.33016 249.561518 
L 282.758832 252.39168 
L 281.062512 255.189182 
L 279.250128 257.953118 
L 277.326144 260.681674 
L 275.295024 263.374848 
L 273.156768 266.030525 
L 270.91584 268.648402 
L 268.585632 271.227571 
L 266.157216 273.767429 
L 263.648448 276.267974 
L 261.0504 278.728603 
L 258.376464 281.150222 
L 255.62664 283.531925 
L 252.800928 285.874013 
L 249.908256 288.177091 
L 246.948624 290.441462 
L 243.926496 292.667126 
L 240.846336 294.85499 
L 237.708144 297.005054 
L 234.51192 299.117923 
L 231.266592 301.193899 
L 227.97216 303.23389 
L 224.628624 305.237894 
L 221.235984 307.206821 
L 217.807632 309.140971 
L 214.330176 311.04095 
L 210.821472 312.907666 
L 207.268128 314.741117 
L 203.683536 316.542211 
L 200.063232 318.311251 
L 196.407216 320.049144 
L 192.724416 321.756494 
L 189.010368 323.433605 
L 185.265072 325.08108 
L 181.492992 326.699827 
L 177.694128 328.289846 
L 173.872944 329.852347 
L 170.02944 331.387632 
L 166.159152 332.896306 
L 162.266544 334.37867 
L 158.35608 335.835936 
L 154.423296 337.268707 
L 150.472656 338.677286 
L 146.50416 340.062369 
L 142.522272 341.425014 
L 138.518064 342.765916 
L 134.504928 344.085952 
L 130.473936 345.386091 
L 126.429552 346.66742 
L 122.371776 347.93124 
L 118.305072 349.178973 
L 114.22944 350.412402 
L 110.149344 351.633645 
L 106.055856 352.845452 
L 101.962368 354.051302 
L 97.86888 355.256004 
L 93.779856 356.466329 
L 89.69976 357.692471 
L 85.63752 358.950878 
L 81.624384 360.271489 
L 77.700528 361.718322 
L 74.071296 363.475508 
L 72.651744 364.644253 
L 72.406224 364.98397 
L 72.062496 365.500801 
" style="fill:none;stroke:#3b7d86;stroke-dasharray:5.55,2.4;stroke-dashoffset:0;stroke-width:1.5;"/>
   </g>
   <g id="line2d_22">
    <path clip-path="url(#peaa55a6cb2)" d="M 292.593024 218.16 
L 292.593024 217.8576 
L 292.58856 217.5552 
L 292.579632 216.9504 
L 292.539456 215.741102 
L 292.396608 213.323414 
L 292.079664 210.306974 
L 291.610944 207.299606 
L 290.994912 204.304637 
L 290.231568 201.32509 
L 289.325376 198.363989 
L 288.2808 195.424358 
L 287.093376 192.508618 
L 285.776496 189.619186 
L 284.33016 186.758482 
L 282.758832 183.92832 
L 281.062512 181.130818 
L 279.250128 178.366882 
L 277.326144 175.638326 
L 275.295024 172.945152 
L 273.156768 170.289475 
L 270.91584 167.671598 
L 268.585632 165.092429 
L 266.157216 162.552571 
L 263.648448 160.052026 
L 261.0504 157.590792 
L 258.376464 155.169173 
L 255.622176 152.787168 
L 252.800928 150.444475 
L 249.908256 148.140792 
L 246.948624 145.876118 
L 243.926496 143.64985 
L 240.841872 141.461986 
L 237.70368 139.311619 
L 234.507456 137.19875 
L 231.262128 135.122774 
L 227.963232 133.082784 
L 224.619696 131.078779 
L 221.23152 129.110155 
L 217.798704 127.176005 
L 214.325712 125.276026 
L 210.812544 123.40931 
L 207.263664 121.576162 
L 203.674608 119.775067 
L 200.054304 118.005725 
L 196.402752 116.267832 
L 192.715488 114.560784 
L 189.00144 112.883674 
L 185.260608 111.236198 
L 181.488528 109.617754 
L 177.689664 108.027432 
L 173.86848 106.465234 
L 170.020512 104.929949 
L 166.154688 103.421275 
L 162.26208 101.93891 
L 158.351616 100.481645 
L 154.418832 99.049176 
L 150.468192 97.640597 
L 146.499696 96.255302 
L 142.513344 94.892688 
L 138.5136 93.551846 
L 134.496 92.23187 
L 130.465008 90.931853 
L 126.420624 89.650584 
L 122.367312 88.386854 
L 118.300608 87.139152 
L 114.224976 85.905662 
L 110.140416 84.684269 
L 106.051392 83.472552 
L 101.957904 82.266883 
L 97.864416 81.062122 
L 93.770928 79.851614 
L 89.690832 78.625685 
L 85.633056 77.367096 
L 81.615456 76.046213 
L 77.696064 74.598926 
L 74.062368 72.841075 
L 72.629424 71.679557 
L 72.321408 71.312443 
L 72.02232 70.948958 
" style="fill:none;stroke:#3b7d86;stroke-dasharray:5.55,2.4;stroke-dashoffset:0;stroke-width:1.5;"/>
   </g>
   <g id="line2d_23">
    <path clip-path="url(#peaa55a6cb2)" d="M 518.4 218.16 
L 360.04085 218.16 
L 360.04085 218.16 
" style="fill:none;stroke:#000000;stroke-dasharray:5.55,2.4;stroke-dashoffset:0;stroke-width:1.5;"/>
   </g>
   <g id="line2d_24">
    <path clip-path="url(#peaa55a6cb2)" d="M 359.241035 218.16 
L 106.958789 218.16 
L 106.958789 218.16 
" style="fill:none;stroke:#000000;stroke-linecap:square;stroke-width:1.5;"/>
   </g>
   <g id="line2d_25">
    <path clip-path="url(#peaa55a6cb2)" d="M 105.68463 218.16 
L 72 218.16 
L 72 218.16 
" style="fill:none;stroke:#000000;stroke-linecap:square;stroke-width:1.5;"/>
   </g>
   <g id="line2d_26">
    <path clip-path="url(#peaa55a6cb2)" d="M 518.4 369.36 
L 509.472 369.36 
L 505.008 369.36 
L 500.544 369.36 
L 496.08 369.36 
L 491.616 369.36 
L 487.152 369.36 
L 482.688 369.36 
L 478.224 369.36 
L 473.76 369.36 
L 469.296 369.36 
L 464.832 369.36 
L 460.368 369.36 
L 455.904 369.36 
L 451.44 369.36 
L 446.976 369.36 
L 442.512 369.36 
L 438.048 369.36 
L 433.584 369.36 
L 429.12 369.36 
L 424.656 369.36 
L 420.192 369.36 
L 415.728 369.36 
L 411.264 369.36 
L 406.8 369.36 
L 402.336 369.36 
L 397.872 369.36 
L 393.408 369.36 
L 388.944 369.36 
L 384.48 369.36 
L 380.016 369.36 
L 375.552 369.36 
L 371.088 369.36 
L 366.624 369.36 
L 362.16 369.36 
L 357.696 369.36 
L 353.232 369.36 
L 348.768 369.36 
L 344.304 369.36 
L 339.84 369.36 
L 335.376 369.36 
L 330.912 369.36 
L 326.448 369.36 
L 321.984 369.36 
L 317.52 369.36 
L 313.056 369.36 
L 308.592 369.36 
L 304.128 369.36 
L 299.664 369.36 
L 295.2 369.36 
L 290.736 369.36 
L 286.272 369.36 
L 281.808 369.36 
L 277.344 369.36 
L 272.88 369.36 
L 268.416 369.36 
L 263.952 369.36 
L 259.488 369.36 
L 255.024 369.36 
L 250.56 369.36 
L 246.096 369.36 
L 241.632 369.36 
L 237.168 369.36 
L 232.704 369.36 
L 228.24 369.36 
L 223.776 369.36 
L 219.312 369.36 
L 214.848 369.36 
L 210.384 369.36 
L 205.92 369.36 
L 201.456 369.36 
L 196.992 369.36 
L 192.528 369.36 
L 188.064 369.36 
L 183.6 369.36 
L 179.136 369.36 
L 174.672 369.36 
L 170.208 369.36 
L 165.744 369.36 
L 161.28 369.36 
L 156.816 369.36 
L 152.352 369.36 
L 147.888 369.36 
L 143.424 369.36 
L 138.96 369.36 
L 134.496 369.36 
L 130.032 369.36 
L 125.568 369.36 
L 121.104 369.36 
L 116.64 369.36 
L 112.176 369.36 
L 107.712 369.36 
L 103.248 369.36 
L 98.784 369.36 
L 94.32 369.36 
L 89.856 369.36 
L 85.392 369.36 
L 80.928 369.36 
L 76.464 369.36 
L 72 369.36 
" style="fill:none;stroke:#000000;stroke-linecap:square;stroke-width:1.5;"/>
   </g>
   <g id="line2d_27">
    <path clip-path="url(#peaa55a6cb2)" d="M 518.4 66.96 
L 509.472 66.96 
L 505.008 66.96 
L 500.544 66.96 
L 496.08 66.96 
L 491.616 66.96 
L 487.152 66.96 
L 482.688 66.96 
L 478.224 66.96 
L 473.76 66.96 
L 469.296 66.96 
L 464.832 66.96 
L 460.368 66.96 
L 455.904 66.96 
L 451.44 66.96 
L 446.976 66.96 
L 442.512 66.96 
L 438.048 66.96 
L 433.584 66.96 
L 429.12 66.96 
L 424.656 66.96 
L 420.192 66.96 
L 415.728 66.96 
L 411.264 66.96 
L 406.8 66.96 
L 402.336 66.96 
L 397.872 66.96 
L 393.408 66.96 
L 388.944 66.96 
L 384.48 66.96 
L 380.016 66.96 
L 375.552 66.96 
L 371.088 66.96 
L 366.624 66.96 
L 362.16 66.96 
L 357.696 66.96 
L 353.232 66.96 
L 348.768 66.96 
L 344.304 66.96 
L 339.84 66.96 
L 335.376 66.96 
L 330.912 66.96 
L 326.448 66.96 
L 321.984 66.96 
L 317.52 66.96 
L 313.056 66.96 
L 308.592 66.96 
L 304.128 66.96 
L 299.664 66.96 
L 295.2 66.96 
L 290.736 66.96 
L 286.272 66.96 
L 281.808 66.96 
L 277.344 66.96 
L 272.88 66.96 
L 268.416 66.96 
L 263.952 66.96 
L 259.488 66.96 
L 255.024 66.96 
L 250.56 66.96 
L 246.096 66.96 
L 241.632 66.96 
L 237.168 66.96 
L 232.704 66.96 
L 228.24 66.96 
L 223.776 66.96 
L 219.312 66.96 
L 214.848 66.96 
L 210.384 66.96 
L 205.92 66.96 
L 201.456 66.96 
L 196.992 66.96 
L 192.528 66.96 
L 188.064 66.96 
L 183.6 66.96 
L 179.136 66.96 
L 174.672 66.96 
L 170.208 66.96 
L 165.744 66.96 
L 161.28 66.96 
L 156.816 66.96 
L 152.352 66.96 
L 147.888 66.96 
L 143.424 66.96 
L 138.96 66.96 
L 134.496 66.96 
L 130.032 66.96 
L 125.568 66.96 
L 121.104 66.96 
L 116.64 66.96 
L 112.176 66.96 
L 107.712 66.96 
L 103.248 66.96 
L 98.784 66.96 
L 94.32 66.96 
L 89.856 66.96 
L 85.392 66.96 
L 80.928 66.96 
L 76.464 66.96 
L 72 66.96 
" style="fill:none;stroke:#000000;stroke-linecap:square;stroke-width:1.5;"/>
   </g>
   <g id="patch_3">
    <path d="M 72 384.48 
L 72 51.84 
" style="fill:none;stroke:#000000;stroke-linecap:square;stroke-linejoin:miter;stroke-width:0.8;"/>
   </g>
   <g id="patch_4">
    <path d="M 518.4 384.48 
L 518.4 51.84 
" style="fill:none;stroke:#000000;stroke-linecap:square;stroke-linejoin:miter;stroke-width:0.8;"/>
   </g>
   <g id="patch_5">
    <path d="M 72 384.48 
L 518.4 384.48 
" style="fill:none;stroke:#000000;stroke-linecap:square;stroke-linejoin:miter;stroke-width:0.8;"/>
   </g>
   <g id="patch_6">
    <path d="M 72 51.84 
L 518.4 51.84 
" style="fill:none;stroke:#000000;stroke-linecap:square;stroke-linejoin:miter;stroke-width:0.8;"/>
   </g>
   <g id="text_15">
    <!-- Bifurcation diagram for two coupled neurons, $\beta=0.1$ -->
    <g transform="translate(122.95 45.84)scale(0.13 -0.13)">
     <defs>
      <path d="M 19.671875 34.8125 
L 19.671875 8.109375 
L 35.5 8.109375 
Q 43.453125 8.109375 47.28125 11.40625 
Q 51.125 14.703125 51.125 21.484375 
Q 51.125 28.328125 47.28125 31.5625 
Q 43.453125 34.8125 35.5 34.8125 
z
M 19.671875 64.796875 
L 19.671875 42.828125 
L 34.28125 42.828125 
Q 41.5 42.828125 45.03125 45.53125 
Q 48.578125 48.25 48.578125 53.8125 
Q 48.578125 59.328125 45.03125 62.0625 
Q 41.5 64.796875 34.28125 64.796875 
z
M 9.8125 72.90625 
L 35.015625 72.90625 
Q 46.296875 72.90625 52.390625 68.21875 
Q 58.5 63.53125 58.5 54.890625 
Q 58.5 48.1875 55.375 44.234375 
Q 52.25 40.28125 46.1875 39.3125 
Q 53.46875 37.75 57.5 32.78125 
Q 61.53125 27.828125 61.53125 20.40625 
Q 61.53125 10.640625 54.890625 5.3125 
Q 48.25 0 35.984375 0 
L 9.8125 0 
z
" id="DejaVuSans-66"/>
      <path d="M 30.609375 48.390625 
Q 23.390625 48.390625 19.1875 42.75 
Q 14.984375 37.109375 14.984375 27.296875 
Q 14.984375 17.484375 19.15625 11.84375 
Q 23.34375 6.203125 30.609375 6.203125 
Q 37.796875 6.203125 41.984375 11.859375 
Q 46.1875 17.53125 46.1875 27.296875 
Q 46.1875 37.015625 41.984375 42.703125 
Q 37.796875 48.390625 30.609375 48.390625 
z
M 30.609375 56 
Q 42.328125 56 49.015625 48.375 
Q 55.71875 40.765625 55.71875 27.296875 
Q 55.71875 13.875 49.015625 6.21875 
Q 42.328125 -1.421875 30.609375 -1.421875 
Q 18.84375 -1.421875 12.171875 6.21875 
Q 5.515625 13.875 5.515625 27.296875 
Q 5.515625 40.765625 12.171875 48.375 
Q 18.84375 56 30.609375 56 
z
" id="DejaVuSans-111"/>
      <path d="M 45.40625 46.390625 
L 45.40625 75.984375 
L 54.390625 75.984375 
L 54.390625 0 
L 45.40625 0 
L 45.40625 8.203125 
Q 42.578125 3.328125 38.25 0.953125 
Q 33.9375 -1.421875 27.875 -1.421875 
Q 17.96875 -1.421875 11.734375 6.484375 
Q 5.515625 14.40625 5.515625 27.296875 
Q 5.515625 40.1875 11.734375 48.09375 
Q 17.96875 56 27.875 56 
Q 33.9375 56 38.25 53.625 
Q 42.578125 51.265625 45.40625 46.390625 
z
M 14.796875 27.296875 
Q 14.796875 17.390625 18.875 11.75 
Q 22.953125 6.109375 30.078125 6.109375 
Q 37.203125 6.109375 41.296875 11.75 
Q 45.40625 17.390625 45.40625 27.296875 
Q 45.40625 37.203125 41.296875 42.84375 
Q 37.203125 48.484375 30.078125 48.484375 
Q 22.953125 48.484375 18.875 42.84375 
Q 14.796875 37.203125 14.796875 27.296875 
z
" id="DejaVuSans-100"/>
      <path d="M 45.40625 27.984375 
Q 45.40625 37.75 41.375 43.109375 
Q 37.359375 48.484375 30.078125 48.484375 
Q 22.859375 48.484375 18.828125 43.109375 
Q 14.796875 37.75 14.796875 27.984375 
Q 14.796875 18.265625 18.828125 12.890625 
Q 22.859375 7.515625 30.078125 7.515625 
Q 37.359375 7.515625 41.375 12.890625 
Q 45.40625 18.265625 45.40625 27.984375 
z
M 54.390625 6.78125 
Q 54.390625 -7.171875 48.1875 -13.984375 
Q 42 -20.796875 29.203125 -20.796875 
Q 24.46875 -20.796875 20.265625 -20.09375 
Q 16.0625 -19.390625 12.109375 -17.921875 
L 12.109375 -9.1875 
Q 16.0625 -11.328125 19.921875 -12.34375 
Q 23.78125 -13.375 27.78125 -13.375 
Q 36.625 -13.375 41.015625 -8.765625 
Q 45.40625 -4.15625 45.40625 5.171875 
L 45.40625 9.625 
Q 42.625 4.78125 38.28125 2.390625 
Q 33.9375 0 27.875 0 
Q 17.828125 0 11.671875 7.65625 
Q 5.515625 15.328125 5.515625 27.984375 
Q 5.515625 40.671875 11.671875 48.328125 
Q 17.828125 56 27.875 56 
Q 33.9375 56 38.28125 53.609375 
Q 42.625 51.21875 45.40625 46.390625 
L 45.40625 54.6875 
L 54.390625 54.6875 
z
" id="DejaVuSans-103"/>
      <path d="M 52 44.1875 
Q 55.375 50.25 60.0625 53.125 
Q 64.75 56 71.09375 56 
Q 79.640625 56 84.28125 50.015625 
Q 88.921875 44.046875 88.921875 33.015625 
L 88.921875 0 
L 79.890625 0 
L 79.890625 32.71875 
Q 79.890625 40.578125 77.09375 44.375 
Q 74.3125 48.1875 68.609375 48.1875 
Q 61.625 48.1875 57.5625 43.546875 
Q 53.515625 38.921875 53.515625 30.90625 
L 53.515625 0 
L 44.484375 0 
L 44.484375 32.71875 
Q 44.484375 40.625 41.703125 44.40625 
Q 38.921875 48.1875 33.109375 48.1875 
Q 26.21875 48.1875 22.15625 43.53125 
Q 18.109375 38.875 18.109375 30.90625 
L 18.109375 0 
L 9.078125 0 
L 9.078125 54.6875 
L 18.109375 54.6875 
L 18.109375 46.1875 
Q 21.1875 51.21875 25.484375 53.609375 
Q 29.78125 56 35.6875 56 
Q 41.65625 56 45.828125 52.96875 
Q 50 49.953125 52 44.1875 
z
" id="DejaVuSans-109"/>
      <path d="M 4.203125 54.6875 
L 13.1875 54.6875 
L 24.421875 12.015625 
L 35.59375 54.6875 
L 46.1875 54.6875 
L 57.421875 12.015625 
L 68.609375 54.6875 
L 77.59375 54.6875 
L 63.28125 0 
L 52.6875 0 
L 40.921875 44.828125 
L 29.109375 0 
L 18.5 0 
z
" id="DejaVuSans-119"/>
      <path d="M 18.109375 8.203125 
L 18.109375 -20.796875 
L 9.078125 -20.796875 
L 9.078125 54.6875 
L 18.109375 54.6875 
L 18.109375 46.390625 
Q 20.953125 51.265625 25.265625 53.625 
Q 29.59375 56 35.59375 56 
Q 45.5625 56 51.78125 48.09375 
Q 58.015625 40.1875 58.015625 27.296875 
Q 58.015625 14.40625 51.78125 6.484375 
Q 45.5625 -1.421875 35.59375 -1.421875 
Q 29.59375 -1.421875 25.265625 0.953125 
Q 20.953125 3.328125 18.109375 8.203125 
z
M 48.6875 27.296875 
Q 48.6875 37.203125 44.609375 42.84375 
Q 40.53125 48.484375 33.40625 48.484375 
Q 26.265625 48.484375 22.1875 42.84375 
Q 18.109375 37.203125 18.109375 27.296875 
Q 18.109375 17.390625 22.1875 11.75 
Q 26.265625 6.109375 33.40625 6.109375 
Q 40.53125 6.109375 44.609375 11.75 
Q 48.6875 17.390625 48.6875 27.296875 
z
" id="DejaVuSans-112"/>
      <path d="M 9.421875 75.984375 
L 18.40625 75.984375 
L 18.40625 0 
L 9.421875 0 
z
" id="DejaVuSans-108"/>
      <path d="M 11.71875 12.40625 
L 22.015625 12.40625 
L 22.015625 4 
L 14.015625 -11.625 
L 7.71875 -11.625 
L 11.71875 4 
z
" id="DejaVuSans-44"/>
      <path d="M 13.625 3.375 
L 8.9375 -20.796875 
L -0.09375 -20.796875 
L 14.5 54.34375 
Q 18.84375 76.609375 39.65625 76.609375 
Q 60.75 76.609375 57.171875 57.8125 
Q 54.734375 44.4375 45.21875 39.546875 
Q 58.015625 35.15625 55.515625 22.125 
Q 51.125 -1.078125 27.484375 -1.03125 
Q 17.140625 -0.984375 13.625 3.375 
z
M 15.921875 15.09375 
Q 19.671875 6.59375 29.296875 6.640625 
Q 43.359375 6.640625 46.34375 21.96875 
Q 49.03125 35.75 26.171875 34.671875 
L 27.78125 42.96875 
Q 45.453125 42.671875 48.53125 58.59375 
Q 50.640625 69.34375 39.203125 69.28125 
Q 26.421875 69.28125 23.484375 54.046875 
z
" id="DejaVuSans-Oblique-946"/>
      <path d="M 10.59375 45.40625 
L 73.1875 45.40625 
L 73.1875 37.203125 
L 10.59375 37.203125 
z
M 10.59375 25.484375 
L 73.1875 25.484375 
L 73.1875 17.1875 
L 10.59375 17.1875 
z
" id="DejaVuSans-61"/>
     </defs>
     <use transform="translate(0 0.390625)" xlink:href="#DejaVuSans-66"/>
     <use transform="translate(68.603516 0.390625)" xlink:href="#DejaVuSans-105"/>
     <use transform="translate(96.386719 0.390625)" xlink:href="#DejaVuSans-102"/>
     <use transform="translate(131.591797 0.390625)" xlink:href="#DejaVuSans-117"/>
     <use transform="translate(194.970703 0.390625)" xlink:href="#DejaVuSans-114"/>
     <use transform="translate(236.083984 0.390625)" xlink:href="#DejaVuSans-99"/>
     <use transform="translate(291.064453 0.390625)" xlink:href="#DejaVuSans-97"/>
     <use transform="translate(352.34375 0.390625)" xlink:href="#DejaVuSans-116"/>
     <use transform="translate(391.552734 0.390625)" xlink:href="#DejaVuSans-105"/>
     <use transform="translate(419.335938 0.390625)" xlink:href="#DejaVuSans-111"/>
     <use transform="translate(480.517578 0.390625)" xlink:href="#DejaVuSans-110"/>
     <use transform="translate(543.896484 0.390625)" xlink:href="#DejaVuSans-32"/>
     <use transform="translate(575.683594 0.390625)" xlink:href="#DejaVuSans-100"/>
     <use transform="translate(639.160156 0.390625)" xlink:href="#DejaVuSans-105"/>
     <use transform="translate(666.943359 0.390625)" xlink:href="#DejaVuSans-97"/>
     <use transform="translate(728.222656 0.390625)" xlink:href="#DejaVuSans-103"/>
     <use transform="translate(791.699219 0.390625)" xlink:href="#DejaVuSans-114"/>
     <use transform="translate(832.8125 0.390625)" xlink:href="#DejaVuSans-97"/>
     <use transform="translate(894.091797 0.390625)" xlink:href="#DejaVuSans-109"/>
     <use transform="translate(991.503906 0.390625)" xlink:href="#DejaVuSans-32"/>
     <use transform="translate(1023.291016 0.390625)" xlink:href="#DejaVuSans-102"/>
     <use transform="translate(1058.496094 0.390625)" xlink:href="#DejaVuSans-111"/>
     <use transform="translate(1119.677734 0.390625)" xlink:href="#DejaVuSans-114"/>
     <use transform="translate(1160.791016 0.390625)" xlink:href="#DejaVuSans-32"/>
     <use transform="translate(1192.578125 0.390625)" xlink:href="#DejaVuSans-116"/>
     <use transform="translate(1231.787109 0.390625)" xlink:href="#DejaVuSans-119"/>
     <use transform="translate(1313.574219 0.390625)" xlink:href="#DejaVuSans-111"/>
     <use transform="translate(1374.755859 0.390625)" xlink:href="#DejaVuSans-32"/>
     <use transform="translate(1406.542969 0.390625)" xlink:href="#DejaVuSans-99"/>
     <use transform="translate(1461.523438 0.390625)" xlink:href="#DejaVuSans-111"/>
     <use transform="translate(1522.705078 0.390625)" xlink:href="#DejaVuSans-117"/>
     <use transform="translate(1586.083984 0.390625)" xlink:href="#DejaVuSans-112"/>
     <use transform="translate(1649.560547 0.390625)" xlink:href="#DejaVuSans-108"/>
     <use transform="translate(1677.34375 0.390625)" xlink:href="#DejaVuSans-101"/>
     <use transform="translate(1738.867188 0.390625)" xlink:href="#DejaVuSans-100"/>
     <use transform="translate(1802.34375 0.390625)" xlink:href="#DejaVuSans-32"/>
     <use transform="translate(1834.130859 0.390625)" xlink:href="#DejaVuSans-110"/>
     <use transform="translate(1897.509766 0.390625)" xlink:href="#DejaVuSans-101"/>
     <use transform="translate(1959.033203 0.390625)" xlink:href="#DejaVuSans-117"/>
     <use transform="translate(2022.412109 0.390625)" xlink:href="#DejaVuSans-114"/>
     <use transform="translate(2063.525391 0.390625)" xlink:href="#DejaVuSans-111"/>
     <use transform="translate(2124.707031 0.390625)" xlink:href="#DejaVuSans-110"/>
     <use transform="translate(2188.085938 0.390625)" xlink:href="#DejaVuSans-115"/>
     <use transform="translate(2240.185547 0.390625)" xlink:href="#DejaVuSans-44"/>
     <use transform="translate(2271.972656 0.390625)" xlink:href="#DejaVuSans-32"/>
     <use transform="translate(2303.759766 0.390625)" xlink:href="#DejaVuSans-Oblique-946"/>
     <use transform="translate(2387.060547 0.390625)" xlink:href="#DejaVuSans-61"/>
     <use transform="translate(2490.332031 0.390625)" xlink:href="#DejaVuSans-48"/>
     <use transform="translate(2553.955078 0.390625)" xlink:href="#DejaVuSans-46"/>
     <use transform="translate(2585.742188 0.390625)" xlink:href="#DejaVuSans-49"/>
    </g>
   </g>
   <g id="legend_1">
    <g id="patch_7">
     <path d="M 444 149.96575 
L 511.4 149.96575 
Q 513.4 149.96575 513.4 147.96575 
L 513.4 75.472 
Q 513.4 73.472 511.4 73.472 
L 444 73.472 
Q 442 73.472 442 75.472 
L 442 147.96575 
Q 442 149.96575 444 149.96575 
z
" style="fill:#ffffff;opacity:0.8;stroke:#cccccc;stroke-linejoin:miter;"/>
    </g>
    <g id="line2d_28">
     <path d="M 446 81.570437 
L 466 81.570437 
" style="fill:none;stroke:#aa3863;stroke-dasharray:5.55,2.4;stroke-dashoffset:0;stroke-width:1.5;"/>
    </g>
    <g id="line2d_29"/>
    <g id="text_16">
     <!-- $\gamma = 0.4$ -->
     <g transform="translate(474 85.070437)scale(0.1 -0.1)">
      <defs>
       <path d="M 23.296875 46.09375 
L 28.71875 12.3125 
L 54 54.6875 
L 63.53125 54.6875 
L 30.8125 0 
L 26.765625 -20.796875 
L 17.78125 -20.796875 
L 21.828125 0 
L 15.4375 40.828125 
Q 14.453125 46.96875 9.8125 46.96875 
L 7.421875 46.96875 
L 8.890625 54.6875 
L 12.3125 54.6875 
Q 21.921875 54.6875 23.296875 46.09375 
z
" id="DejaVuSans-Oblique-947"/>
      </defs>
      <use transform="translate(0 0.78125)" xlink:href="#DejaVuSans-Oblique-947"/>
      <use transform="translate(78.662109 0.78125)" xlink:href="#DejaVuSans-61"/>
      <use transform="translate(181.933594 0.78125)" xlink:href="#DejaVuSans-48"/>
      <use transform="translate(245.556641 0.78125)" xlink:href="#DejaVuSans-46"/>
      <use transform="translate(277.34375 0.78125)" xlink:href="#DejaVuSans-52"/>
     </g>
    </g>
    <g id="line2d_30">
     <path d="M 446 96.268875 
L 466 96.268875 
" style="fill:none;stroke:#d97020;stroke-dasharray:5.55,2.4;stroke-dashoffset:0;stroke-width:1.5;"/>
    </g>
    <g id="line2d_31"/>
    <g id="text_17">
     <!-- $\gamma = 0.3$ -->
     <g transform="translate(474 99.768875)scale(0.1 -0.1)">
      <defs>
       <path d="M 40.578125 39.3125 
Q 47.65625 37.796875 51.625 33 
Q 55.609375 28.21875 55.609375 21.1875 
Q 55.609375 10.40625 48.1875 4.484375 
Q 40.765625 -1.421875 27.09375 -1.421875 
Q 22.515625 -1.421875 17.65625 -0.515625 
Q 12.796875 0.390625 7.625 2.203125 
L 7.625 11.71875 
Q 11.71875 9.328125 16.59375 8.109375 
Q 21.484375 6.890625 26.8125 6.890625 
Q 36.078125 6.890625 40.9375 10.546875 
Q 45.796875 14.203125 45.796875 21.1875 
Q 45.796875 27.640625 41.28125 31.265625 
Q 36.765625 34.90625 28.71875 34.90625 
L 20.21875 34.90625 
L 20.21875 43.015625 
L 29.109375 43.015625 
Q 36.375 43.015625 40.234375 45.921875 
Q 44.09375 48.828125 44.09375 54.296875 
Q 44.09375 59.90625 40.109375 62.90625 
Q 36.140625 65.921875 28.71875 65.921875 
Q 24.65625 65.921875 20.015625 65.03125 
Q 15.375 64.15625 9.8125 62.3125 
L 9.8125 71.09375 
Q 15.4375 72.65625 20.34375 73.4375 
Q 25.25 74.21875 29.59375 74.21875 
Q 40.828125 74.21875 47.359375 69.109375 
Q 53.90625 64.015625 53.90625 55.328125 
Q 53.90625 49.265625 50.4375 45.09375 
Q 46.96875 40.921875 40.578125 39.3125 
z
" id="DejaVuSans-51"/>
      </defs>
      <use transform="translate(0 0.78125)" xlink:href="#DejaVuSans-Oblique-947"/>
      <use transform="translate(78.662109 0.78125)" xlink:href="#DejaVuSans-61"/>
      <use transform="translate(181.933594 0.78125)" xlink:href="#DejaVuSans-48"/>
      <use transform="translate(245.556641 0.78125)" xlink:href="#DejaVuSans-46"/>
      <use transform="translate(277.34375 0.78125)" xlink:href="#DejaVuSans-51"/>
     </g>
    </g>
    <g id="line2d_32">
     <path d="M 446 110.967312 
L 466 110.967312 
" style="fill:none;stroke:#ef9f07;stroke-dasharray:5.55,2.4;stroke-dashoffset:0;stroke-width:1.5;"/>
    </g>
    <g id="line2d_33"/>
    <g id="text_18">
     <!-- $\gamma = 0.2$ -->
     <g transform="translate(474 114.467312)scale(0.1 -0.1)">
      <use transform="translate(0 0.78125)" xlink:href="#DejaVuSans-Oblique-947"/>
      <use transform="translate(78.662109 0.78125)" xlink:href="#DejaVuSans-61"/>
      <use transform="translate(181.933594 0.78125)" xlink:href="#DejaVuSans-48"/>
      <use transform="translate(245.556641 0.78125)" xlink:href="#DejaVuSans-46"/>
      <use transform="translate(271.84375 0.78125)" xlink:href="#DejaVuSans-50"/>
     </g>
    </g>
    <g id="line2d_34">
     <path d="M 446 125.66575 
L 466 125.66575 
" style="fill:none;stroke:#449775;stroke-dasharray:5.55,2.4;stroke-dashoffset:0;stroke-width:1.5;"/>
    </g>
    <g id="line2d_35"/>
    <g id="text_19">
     <!-- $\gamma = 0.1$ -->
     <g transform="translate(474 129.16575)scale(0.1 -0.1)">
      <use transform="translate(0 0.78125)" xlink:href="#DejaVuSans-Oblique-947"/>
      <use transform="translate(78.662109 0.78125)" xlink:href="#DejaVuSans-61"/>
      <use transform="translate(181.933594 0.78125)" xlink:href="#DejaVuSans-48"/>
      <use transform="translate(245.556641 0.78125)" xlink:href="#DejaVuSans-46"/>
      <use transform="translate(277.34375 0.78125)" xlink:href="#DejaVuSans-49"/>
     </g>
    </g>
    <g id="line2d_36">
     <path d="M 446 140.36575 
L 466 140.36575 
" style="fill:none;stroke:#3b7d86;stroke-dasharray:5.55,2.4;stroke-dashoffset:0;stroke-width:1.5;"/>
    </g>
    <g id="line2d_37"/>
    <g id="text_20">
     <!-- $\gamma$ weak -->
     <g transform="translate(474 143.86575)scale(0.1 -0.1)">
      <defs>
       <path d="M 9.078125 75.984375 
L 18.109375 75.984375 
L 18.109375 31.109375 
L 44.921875 54.6875 
L 56.390625 54.6875 
L 27.390625 29.109375 
L 57.625 0 
L 45.90625 0 
L 18.109375 26.703125 
L 18.109375 0 
L 9.078125 0 
z
" id="DejaVuSans-107"/>
      </defs>
      <use transform="translate(0 0.015625)" xlink:href="#DejaVuSans-Oblique-947"/>
      <use transform="translate(59.179688 0.015625)" xlink:href="#DejaVuSans-32"/>
      <use transform="translate(90.966797 0.015625)" xlink:href="#DejaVuSans-119"/>
      <use transform="translate(172.753906 0.015625)" xlink:href="#DejaVuSans-101"/>
      <use transform="translate(234.277344 0.015625)" xlink:href="#DejaVuSans-97"/>
      <use transform="translate(295.556641 0.015625)" xlink:href="#DejaVuSans-107"/>
     </g>
    </g>
   </g>
  </g>
 </g>
 <defs>
  <clipPath id="peaa55a6cb2">
   <rect height="332.64" width="446.4" x="72" y="51.84"/>
  </clipPath>
 </defs>
</svg>
