<?xml version="1.0" encoding="utf-8" standalone="no"?>
<!DOCTYPE svg PUBLIC "-//W3C//DTD SVG 1.1//EN"
  "http://www.w3.org/Graphics/SVG/1.1/DTD/svg11.dtd">
<!-- Created with matplotlib (https://matplotlib.org/) -->
<svg height="432pt" version="1.1" viewBox="0 0 576 432" width="576pt" xmlns="http://www.w3.org/2000/svg" xmlns:xlink="http://www.w3.org/1999/xlink">
 <metadata>
  <rdf:RDF xmlns:cc="http://creativecommons.org/ns#" xmlns:dc="http://purl.org/dc/elements/1.1/" xmlns:rdf="http://www.w3.org/1999/02/22-rdf-syntax-ns#">
   <cc:Work>
    <dc:type rdf:resource="http://purl.org/dc/dcmitype/StillImage"/>
    <dc:date>2021-04-24T12:06:11.509580</dc:date>
    <dc:format>image/svg+xml</dc:format>
    <dc:creator>
     <cc:Agent>
      <dc:title>Matplotlib v3.3.3, https://matplotlib.org/</dc:title>
     </cc:Agent>
    </dc:creator>
   </cc:Work>
  </rdf:RDF>
 </metadata>
 <defs>
  <style type="text/css">*{stroke-linecap:butt;stroke-linejoin:round;}</style>
 </defs>
 <g id="figure_1">
  <g id="patch_1">
   <path d="M 0 432 
L 576 432 
L 576 0 
L 0 0 
z
" style="fill:#ffffff;"/>
  </g>
  <g id="axes_1">
   <g id="patch_2">
    <path d="M 72 384.48 
L 518.4 384.48 
L 518.4 51.84 
L 72 51.84 
z
" style="fill:#ffffff;"/>
   </g>
   <g id="matplotlib.axis_1">
    <g id="xtick_1">
     <g id="line2d_1">
      <defs>
       <path d="M 0 0 
L 0 3.5 
" id="m9c02d78b1e" style="stroke:#000000;stroke-width:0.8;"/>
      </defs>
      <g>
       <use style="stroke:#000000;stroke-width:0.8;" x="92.136964" xlink:href="#m9c02d78b1e" y="384.48"/>
      </g>
     </g>
     <g id="text_1">
      <!-- 1.0 -->
      <g transform="translate(84.185402 399.078438)scale(0.1 -0.1)">
       <defs>
        <path d="M 12.40625 8.296875 
L 28.515625 8.296875 
L 28.515625 63.921875 
L 10.984375 60.40625 
L 10.984375 69.390625 
L 28.421875 72.90625 
L 38.28125 72.90625 
L 38.28125 8.296875 
L 54.390625 8.296875 
L 54.390625 0 
L 12.40625 0 
z
" id="DejaVuSans-49"/>
        <path d="M 10.6875 12.40625 
L 21 12.40625 
L 21 0 
L 10.6875 0 
z
" id="DejaVuSans-46"/>
        <path d="M 31.78125 66.40625 
Q 24.171875 66.40625 20.328125 58.90625 
Q 16.5 51.421875 16.5 36.375 
Q 16.5 21.390625 20.328125 13.890625 
Q 24.171875 6.390625 31.78125 6.390625 
Q 39.453125 6.390625 43.28125 13.890625 
Q 47.125 21.390625 47.125 36.375 
Q 47.125 51.421875 43.28125 58.90625 
Q 39.453125 66.40625 31.78125 66.40625 
z
M 31.78125 74.21875 
Q 44.046875 74.21875 50.515625 64.515625 
Q 56.984375 54.828125 56.984375 36.375 
Q 56.984375 17.96875 50.515625 8.265625 
Q 44.046875 -1.421875 31.78125 -1.421875 
Q 19.53125 -1.421875 13.0625 8.265625 
Q 6.59375 17.96875 6.59375 36.375 
Q 6.59375 54.828125 13.0625 64.515625 
Q 19.53125 74.21875 31.78125 74.21875 
z
" id="DejaVuSans-48"/>
       </defs>
       <use xlink:href="#DejaVuSans-49"/>
       <use x="63.623047" xlink:href="#DejaVuSans-46"/>
       <use x="95.410156" xlink:href="#DejaVuSans-48"/>
      </g>
     </g>
    </g>
    <g id="xtick_2">
     <g id="line2d_2">
      <g>
       <use style="stroke:#000000;stroke-width:0.8;" x="173.33139" xlink:href="#m9c02d78b1e" y="384.48"/>
      </g>
     </g>
     <g id="text_2">
      <!-- 1.2 -->
      <g transform="translate(165.379827 399.078438)scale(0.1 -0.1)">
       <defs>
        <path d="M 19.1875 8.296875 
L 53.609375 8.296875 
L 53.609375 0 
L 7.328125 0 
L 7.328125 8.296875 
Q 12.9375 14.109375 22.625 23.890625 
Q 32.328125 33.6875 34.8125 36.53125 
Q 39.546875 41.84375 41.421875 45.53125 
Q 43.3125 49.21875 43.3125 52.78125 
Q 43.3125 58.59375 39.234375 62.25 
Q 35.15625 65.921875 28.609375 65.921875 
Q 23.96875 65.921875 18.8125 64.3125 
Q 13.671875 62.703125 7.8125 59.421875 
L 7.8125 69.390625 
Q 13.765625 71.78125 18.9375 73 
Q 24.125 74.21875 28.421875 74.21875 
Q 39.75 74.21875 46.484375 68.546875 
Q 53.21875 62.890625 53.21875 53.421875 
Q 53.21875 48.921875 51.53125 44.890625 
Q 49.859375 40.875 45.40625 35.40625 
Q 44.1875 33.984375 37.640625 27.21875 
Q 31.109375 20.453125 19.1875 8.296875 
z
" id="DejaVuSans-50"/>
       </defs>
       <use xlink:href="#DejaVuSans-49"/>
       <use x="63.623047" xlink:href="#DejaVuSans-46"/>
       <use x="95.410156" xlink:href="#DejaVuSans-50"/>
      </g>
     </g>
    </g>
    <g id="xtick_3">
     <g id="line2d_3">
      <g>
       <use style="stroke:#000000;stroke-width:0.8;" x="254.525815" xlink:href="#m9c02d78b1e" y="384.48"/>
      </g>
     </g>
     <g id="text_3">
      <!-- 1.4 -->
      <g transform="translate(246.574253 399.078438)scale(0.1 -0.1)">
       <defs>
        <path d="M 37.796875 64.3125 
L 12.890625 25.390625 
L 37.796875 25.390625 
z
M 35.203125 72.90625 
L 47.609375 72.90625 
L 47.609375 25.390625 
L 58.015625 25.390625 
L 58.015625 17.1875 
L 47.609375 17.1875 
L 47.609375 0 
L 37.796875 0 
L 37.796875 17.1875 
L 4.890625 17.1875 
L 4.890625 26.703125 
z
" id="DejaVuSans-52"/>
       </defs>
       <use xlink:href="#DejaVuSans-49"/>
       <use x="63.623047" xlink:href="#DejaVuSans-46"/>
       <use x="95.410156" xlink:href="#DejaVuSans-52"/>
      </g>
     </g>
    </g>
    <g id="xtick_4">
     <g id="line2d_4">
      <g>
       <use style="stroke:#000000;stroke-width:0.8;" x="335.72024" xlink:href="#m9c02d78b1e" y="384.48"/>
      </g>
     </g>
     <g id="text_4">
      <!-- 1.6 -->
      <g transform="translate(327.768678 399.078438)scale(0.1 -0.1)">
       <defs>
        <path d="M 33.015625 40.375 
Q 26.375 40.375 22.484375 35.828125 
Q 18.609375 31.296875 18.609375 23.390625 
Q 18.609375 15.53125 22.484375 10.953125 
Q 26.375 6.390625 33.015625 6.390625 
Q 39.65625 6.390625 43.53125 10.953125 
Q 47.40625 15.53125 47.40625 23.390625 
Q 47.40625 31.296875 43.53125 35.828125 
Q 39.65625 40.375 33.015625 40.375 
z
M 52.59375 71.296875 
L 52.59375 62.3125 
Q 48.875 64.0625 45.09375 64.984375 
Q 41.3125 65.921875 37.59375 65.921875 
Q 27.828125 65.921875 22.671875 59.328125 
Q 17.53125 52.734375 16.796875 39.40625 
Q 19.671875 43.65625 24.015625 45.921875 
Q 28.375 48.1875 33.59375 48.1875 
Q 44.578125 48.1875 50.953125 41.515625 
Q 57.328125 34.859375 57.328125 23.390625 
Q 57.328125 12.15625 50.6875 5.359375 
Q 44.046875 -1.421875 33.015625 -1.421875 
Q 20.359375 -1.421875 13.671875 8.265625 
Q 6.984375 17.96875 6.984375 36.375 
Q 6.984375 53.65625 15.1875 63.9375 
Q 23.390625 74.21875 37.203125 74.21875 
Q 40.921875 74.21875 44.703125 73.484375 
Q 48.484375 72.75 52.59375 71.296875 
z
" id="DejaVuSans-54"/>
       </defs>
       <use xlink:href="#DejaVuSans-49"/>
       <use x="63.623047" xlink:href="#DejaVuSans-46"/>
       <use x="95.410156" xlink:href="#DejaVuSans-54"/>
      </g>
     </g>
    </g>
    <g id="xtick_5">
     <g id="line2d_5">
      <g>
       <use style="stroke:#000000;stroke-width:0.8;" x="416.914666" xlink:href="#m9c02d78b1e" y="384.48"/>
      </g>
     </g>
     <g id="text_5">
      <!-- 1.8 -->
      <g transform="translate(408.963103 399.078438)scale(0.1 -0.1)">
       <defs>
        <path d="M 31.78125 34.625 
Q 24.75 34.625 20.71875 30.859375 
Q 16.703125 27.09375 16.703125 20.515625 
Q 16.703125 13.921875 20.71875 10.15625 
Q 24.75 6.390625 31.78125 6.390625 
Q 38.8125 6.390625 42.859375 10.171875 
Q 46.921875 13.96875 46.921875 20.515625 
Q 46.921875 27.09375 42.890625 30.859375 
Q 38.875 34.625 31.78125 34.625 
z
M 21.921875 38.8125 
Q 15.578125 40.375 12.03125 44.71875 
Q 8.5 49.078125 8.5 55.328125 
Q 8.5 64.0625 14.71875 69.140625 
Q 20.953125 74.21875 31.78125 74.21875 
Q 42.671875 74.21875 48.875 69.140625 
Q 55.078125 64.0625 55.078125 55.328125 
Q 55.078125 49.078125 51.53125 44.71875 
Q 48 40.375 41.703125 38.8125 
Q 48.828125 37.15625 52.796875 32.3125 
Q 56.78125 27.484375 56.78125 20.515625 
Q 56.78125 9.90625 50.3125 4.234375 
Q 43.84375 -1.421875 31.78125 -1.421875 
Q 19.734375 -1.421875 13.25 4.234375 
Q 6.78125 9.90625 6.78125 20.515625 
Q 6.78125 27.484375 10.78125 32.3125 
Q 14.796875 37.15625 21.921875 38.8125 
z
M 18.3125 54.390625 
Q 18.3125 48.734375 21.84375 45.5625 
Q 25.390625 42.390625 31.78125 42.390625 
Q 38.140625 42.390625 41.71875 45.5625 
Q 45.3125 48.734375 45.3125 54.390625 
Q 45.3125 60.0625 41.71875 63.234375 
Q 38.140625 66.40625 31.78125 66.40625 
Q 25.390625 66.40625 21.84375 63.234375 
Q 18.3125 60.0625 18.3125 54.390625 
z
" id="DejaVuSans-56"/>
       </defs>
       <use xlink:href="#DejaVuSans-49"/>
       <use x="63.623047" xlink:href="#DejaVuSans-46"/>
       <use x="95.410156" xlink:href="#DejaVuSans-56"/>
      </g>
     </g>
    </g>
    <g id="xtick_6">
     <g id="line2d_6">
      <g>
       <use style="stroke:#000000;stroke-width:0.8;" x="498.109091" xlink:href="#m9c02d78b1e" y="384.48"/>
      </g>
     </g>
     <g id="text_6">
      <!-- 2.0 -->
      <g transform="translate(490.157528 399.078438)scale(0.1 -0.1)">
       <use xlink:href="#DejaVuSans-50"/>
       <use x="63.623047" xlink:href="#DejaVuSans-46"/>
       <use x="95.410156" xlink:href="#DejaVuSans-48"/>
      </g>
     </g>
    </g>
    <g id="text_7">
     <!-- Current $I$ -->
     <g transform="translate(268.74 414.27625)scale(0.12 -0.12)">
      <defs>
       <path d="M 64.40625 67.28125 
L 64.40625 56.890625 
Q 59.421875 61.53125 53.78125 63.8125 
Q 48.140625 66.109375 41.796875 66.109375 
Q 29.296875 66.109375 22.65625 58.46875 
Q 16.015625 50.828125 16.015625 36.375 
Q 16.015625 21.96875 22.65625 14.328125 
Q 29.296875 6.6875 41.796875 6.6875 
Q 48.140625 6.6875 53.78125 8.984375 
Q 59.421875 11.28125 64.40625 15.921875 
L 64.40625 5.609375 
Q 59.234375 2.09375 53.4375 0.328125 
Q 47.65625 -1.421875 41.21875 -1.421875 
Q 24.65625 -1.421875 15.125 8.703125 
Q 5.609375 18.84375 5.609375 36.375 
Q 5.609375 53.953125 15.125 64.078125 
Q 24.65625 74.21875 41.21875 74.21875 
Q 47.75 74.21875 53.53125 72.484375 
Q 59.328125 70.75 64.40625 67.28125 
z
" id="DejaVuSans-67"/>
       <path d="M 8.5 21.578125 
L 8.5 54.6875 
L 17.484375 54.6875 
L 17.484375 21.921875 
Q 17.484375 14.15625 20.5 10.265625 
Q 23.53125 6.390625 29.59375 6.390625 
Q 36.859375 6.390625 41.078125 11.03125 
Q 45.3125 15.671875 45.3125 23.6875 
L 45.3125 54.6875 
L 54.296875 54.6875 
L 54.296875 0 
L 45.3125 0 
L 45.3125 8.40625 
Q 42.046875 3.421875 37.71875 1 
Q 33.40625 -1.421875 27.6875 -1.421875 
Q 18.265625 -1.421875 13.375 4.4375 
Q 8.5 10.296875 8.5 21.578125 
z
M 31.109375 56 
z
" id="DejaVuSans-117"/>
       <path d="M 41.109375 46.296875 
Q 39.59375 47.171875 37.8125 47.578125 
Q 36.03125 48 33.890625 48 
Q 26.265625 48 22.1875 43.046875 
Q 18.109375 38.09375 18.109375 28.8125 
L 18.109375 0 
L 9.078125 0 
L 9.078125 54.6875 
L 18.109375 54.6875 
L 18.109375 46.1875 
Q 20.953125 51.171875 25.484375 53.578125 
Q 30.03125 56 36.53125 56 
Q 37.453125 56 38.578125 55.875 
Q 39.703125 55.765625 41.0625 55.515625 
z
" id="DejaVuSans-114"/>
       <path d="M 56.203125 29.59375 
L 56.203125 25.203125 
L 14.890625 25.203125 
Q 15.484375 15.921875 20.484375 11.0625 
Q 25.484375 6.203125 34.421875 6.203125 
Q 39.59375 6.203125 44.453125 7.46875 
Q 49.3125 8.734375 54.109375 11.28125 
L 54.109375 2.78125 
Q 49.265625 0.734375 44.1875 -0.34375 
Q 39.109375 -1.421875 33.890625 -1.421875 
Q 20.796875 -1.421875 13.15625 6.1875 
Q 5.515625 13.8125 5.515625 26.8125 
Q 5.515625 40.234375 12.765625 48.109375 
Q 20.015625 56 32.328125 56 
Q 43.359375 56 49.78125 48.890625 
Q 56.203125 41.796875 56.203125 29.59375 
z
M 47.21875 32.234375 
Q 47.125 39.59375 43.09375 43.984375 
Q 39.0625 48.390625 32.421875 48.390625 
Q 24.90625 48.390625 20.390625 44.140625 
Q 15.875 39.890625 15.1875 32.171875 
z
" id="DejaVuSans-101"/>
       <path d="M 54.890625 33.015625 
L 54.890625 0 
L 45.90625 0 
L 45.90625 32.71875 
Q 45.90625 40.484375 42.875 44.328125 
Q 39.84375 48.1875 33.796875 48.1875 
Q 26.515625 48.1875 22.3125 43.546875 
Q 18.109375 38.921875 18.109375 30.90625 
L 18.109375 0 
L 9.078125 0 
L 9.078125 54.6875 
L 18.109375 54.6875 
L 18.109375 46.1875 
Q 21.34375 51.125 25.703125 53.5625 
Q 30.078125 56 35.796875 56 
Q 45.21875 56 50.046875 50.171875 
Q 54.890625 44.34375 54.890625 33.015625 
z
" id="DejaVuSans-110"/>
       <path d="M 18.3125 70.21875 
L 18.3125 54.6875 
L 36.8125 54.6875 
L 36.8125 47.703125 
L 18.3125 47.703125 
L 18.3125 18.015625 
Q 18.3125 11.328125 20.140625 9.421875 
Q 21.96875 7.515625 27.59375 7.515625 
L 36.8125 7.515625 
L 36.8125 0 
L 27.59375 0 
Q 17.1875 0 13.234375 3.875 
Q 9.28125 7.765625 9.28125 18.015625 
L 9.28125 47.703125 
L 2.6875 47.703125 
L 2.6875 54.6875 
L 9.28125 54.6875 
L 9.28125 70.21875 
z
" id="DejaVuSans-116"/>
       <path id="DejaVuSans-32"/>
       <path d="M 16.890625 72.90625 
L 26.8125 72.90625 
L 12.59375 0 
L 2.6875 0 
z
" id="DejaVuSans-Oblique-73"/>
      </defs>
      <use transform="translate(0 0.78125)" xlink:href="#DejaVuSans-67"/>
      <use transform="translate(69.824219 0.78125)" xlink:href="#DejaVuSans-117"/>
      <use transform="translate(133.203125 0.78125)" xlink:href="#DejaVuSans-114"/>
      <use transform="translate(174.316406 0.78125)" xlink:href="#DejaVuSans-114"/>
      <use transform="translate(215.429688 0.78125)" xlink:href="#DejaVuSans-101"/>
      <use transform="translate(276.953125 0.78125)" xlink:href="#DejaVuSans-110"/>
      <use transform="translate(340.332031 0.78125)" xlink:href="#DejaVuSans-116"/>
      <use transform="translate(379.541016 0.78125)" xlink:href="#DejaVuSans-32"/>
      <use transform="translate(411.328125 0.78125)" xlink:href="#DejaVuSans-Oblique-73"/>
     </g>
    </g>
   </g>
   <g id="matplotlib.axis_2">
    <g id="ytick_1">
     <g id="line2d_7">
      <defs>
       <path d="M 0 0 
L -3.5 0 
" id="m2820fb35b1" style="stroke:#000000;stroke-width:0.8;"/>
      </defs>
      <g>
       <use style="stroke:#000000;stroke-width:0.8;" x="72" xlink:href="#m2820fb35b1" y="369.36"/>
      </g>
     </g>
     <g id="text_8">
      <!-- 0.0 -->
      <g transform="translate(49.096875 373.159219)scale(0.1 -0.1)">
       <use xlink:href="#DejaVuSans-48"/>
       <use x="63.623047" xlink:href="#DejaVuSans-46"/>
       <use x="95.410156" xlink:href="#DejaVuSans-48"/>
      </g>
     </g>
    </g>
    <g id="ytick_2">
     <g id="line2d_8">
      <g>
       <use style="stroke:#000000;stroke-width:0.8;" x="72" xlink:href="#m2820fb35b1" y="308.88"/>
      </g>
     </g>
     <g id="text_9">
      <!-- 0.2 -->
      <g transform="translate(49.096875 312.679219)scale(0.1 -0.1)">
       <use xlink:href="#DejaVuSans-48"/>
       <use x="63.623047" xlink:href="#DejaVuSans-46"/>
       <use x="95.410156" xlink:href="#DejaVuSans-50"/>
      </g>
     </g>
    </g>
    <g id="ytick_3">
     <g id="line2d_9">
      <g>
       <use style="stroke:#000000;stroke-width:0.8;" x="72" xlink:href="#m2820fb35b1" y="248.4"/>
      </g>
     </g>
     <g id="text_10">
      <!-- 0.4 -->
      <g transform="translate(49.096875 252.199219)scale(0.1 -0.1)">
       <use xlink:href="#DejaVuSans-48"/>
       <use x="63.623047" xlink:href="#DejaVuSans-46"/>
       <use x="95.410156" xlink:href="#DejaVuSans-52"/>
      </g>
     </g>
    </g>
    <g id="ytick_4">
     <g id="line2d_10">
      <g>
       <use style="stroke:#000000;stroke-width:0.8;" x="72" xlink:href="#m2820fb35b1" y="187.92"/>
      </g>
     </g>
     <g id="text_11">
      <!-- 0.6 -->
      <g transform="translate(49.096875 191.719219)scale(0.1 -0.1)">
       <use xlink:href="#DejaVuSans-48"/>
       <use x="63.623047" xlink:href="#DejaVuSans-46"/>
       <use x="95.410156" xlink:href="#DejaVuSans-54"/>
      </g>
     </g>
    </g>
    <g id="ytick_5">
     <g id="line2d_11">
      <g>
       <use style="stroke:#000000;stroke-width:0.8;" x="72" xlink:href="#m2820fb35b1" y="127.44"/>
      </g>
     </g>
     <g id="text_12">
      <!-- 0.8 -->
      <g transform="translate(49.096875 131.239219)scale(0.1 -0.1)">
       <use xlink:href="#DejaVuSans-48"/>
       <use x="63.623047" xlink:href="#DejaVuSans-46"/>
       <use x="95.410156" xlink:href="#DejaVuSans-56"/>
      </g>
     </g>
    </g>
    <g id="ytick_6">
     <g id="line2d_12">
      <g>
       <use style="stroke:#000000;stroke-width:0.8;" x="72" xlink:href="#m2820fb35b1" y="66.96"/>
      </g>
     </g>
     <g id="text_13">
      <!-- 1.0 -->
      <g transform="translate(49.096875 70.759219)scale(0.1 -0.1)">
       <use xlink:href="#DejaVuSans-49"/>
       <use x="63.623047" xlink:href="#DejaVuSans-46"/>
       <use x="95.410156" xlink:href="#DejaVuSans-48"/>
      </g>
     </g>
    </g>
    <g id="text_14">
     <!-- Phase Difference $\phi$ -->
     <g transform="translate(42.576875 275.04)rotate(-90)scale(0.12 -0.12)">
      <defs>
       <path d="M 19.671875 64.796875 
L 19.671875 37.40625 
L 32.078125 37.40625 
Q 38.96875 37.40625 42.71875 40.96875 
Q 46.484375 44.53125 46.484375 51.125 
Q 46.484375 57.671875 42.71875 61.234375 
Q 38.96875 64.796875 32.078125 64.796875 
z
M 9.8125 72.90625 
L 32.078125 72.90625 
Q 44.34375 72.90625 50.609375 67.359375 
Q 56.890625 61.8125 56.890625 51.125 
Q 56.890625 40.328125 50.609375 34.8125 
Q 44.34375 29.296875 32.078125 29.296875 
L 19.671875 29.296875 
L 19.671875 0 
L 9.8125 0 
z
" id="DejaVuSans-80"/>
       <path d="M 54.890625 33.015625 
L 54.890625 0 
L 45.90625 0 
L 45.90625 32.71875 
Q 45.90625 40.484375 42.875 44.328125 
Q 39.84375 48.1875 33.796875 48.1875 
Q 26.515625 48.1875 22.3125 43.546875 
Q 18.109375 38.921875 18.109375 30.90625 
L 18.109375 0 
L 9.078125 0 
L 9.078125 75.984375 
L 18.109375 75.984375 
L 18.109375 46.1875 
Q 21.34375 51.125 25.703125 53.5625 
Q 30.078125 56 35.796875 56 
Q 45.21875 56 50.046875 50.171875 
Q 54.890625 44.34375 54.890625 33.015625 
z
" id="DejaVuSans-104"/>
       <path d="M 34.28125 27.484375 
Q 23.390625 27.484375 19.1875 25 
Q 14.984375 22.515625 14.984375 16.5 
Q 14.984375 11.71875 18.140625 8.90625 
Q 21.296875 6.109375 26.703125 6.109375 
Q 34.1875 6.109375 38.703125 11.40625 
Q 43.21875 16.703125 43.21875 25.484375 
L 43.21875 27.484375 
z
M 52.203125 31.203125 
L 52.203125 0 
L 43.21875 0 
L 43.21875 8.296875 
Q 40.140625 3.328125 35.546875 0.953125 
Q 30.953125 -1.421875 24.3125 -1.421875 
Q 15.921875 -1.421875 10.953125 3.296875 
Q 6 8.015625 6 15.921875 
Q 6 25.140625 12.171875 29.828125 
Q 18.359375 34.515625 30.609375 34.515625 
L 43.21875 34.515625 
L 43.21875 35.40625 
Q 43.21875 41.609375 39.140625 45 
Q 35.0625 48.390625 27.6875 48.390625 
Q 23 48.390625 18.546875 47.265625 
Q 14.109375 46.140625 10.015625 43.890625 
L 10.015625 52.203125 
Q 14.9375 54.109375 19.578125 55.046875 
Q 24.21875 56 28.609375 56 
Q 40.484375 56 46.34375 49.84375 
Q 52.203125 43.703125 52.203125 31.203125 
z
" id="DejaVuSans-97"/>
       <path d="M 44.28125 53.078125 
L 44.28125 44.578125 
Q 40.484375 46.53125 36.375 47.5 
Q 32.28125 48.484375 27.875 48.484375 
Q 21.1875 48.484375 17.84375 46.4375 
Q 14.5 44.390625 14.5 40.28125 
Q 14.5 37.15625 16.890625 35.375 
Q 19.28125 33.59375 26.515625 31.984375 
L 29.59375 31.296875 
Q 39.15625 29.25 43.1875 25.515625 
Q 47.21875 21.78125 47.21875 15.09375 
Q 47.21875 7.46875 41.1875 3.015625 
Q 35.15625 -1.421875 24.609375 -1.421875 
Q 20.21875 -1.421875 15.453125 -0.5625 
Q 10.6875 0.296875 5.421875 2 
L 5.421875 11.28125 
Q 10.40625 8.6875 15.234375 7.390625 
Q 20.0625 6.109375 24.8125 6.109375 
Q 31.15625 6.109375 34.5625 8.28125 
Q 37.984375 10.453125 37.984375 14.40625 
Q 37.984375 18.0625 35.515625 20.015625 
Q 33.0625 21.96875 24.703125 23.78125 
L 21.578125 24.515625 
Q 13.234375 26.265625 9.515625 29.90625 
Q 5.8125 33.546875 5.8125 39.890625 
Q 5.8125 47.609375 11.28125 51.796875 
Q 16.75 56 26.8125 56 
Q 31.78125 56 36.171875 55.265625 
Q 40.578125 54.546875 44.28125 53.078125 
z
" id="DejaVuSans-115"/>
       <path d="M 19.671875 64.796875 
L 19.671875 8.109375 
L 31.59375 8.109375 
Q 46.6875 8.109375 53.6875 14.9375 
Q 60.6875 21.78125 60.6875 36.53125 
Q 60.6875 51.171875 53.6875 57.984375 
Q 46.6875 64.796875 31.59375 64.796875 
z
M 9.8125 72.90625 
L 30.078125 72.90625 
Q 51.265625 72.90625 61.171875 64.09375 
Q 71.09375 55.28125 71.09375 36.53125 
Q 71.09375 17.671875 61.125 8.828125 
Q 51.171875 0 30.078125 0 
L 9.8125 0 
z
" id="DejaVuSans-68"/>
       <path d="M 9.421875 54.6875 
L 18.40625 54.6875 
L 18.40625 0 
L 9.421875 0 
z
M 9.421875 75.984375 
L 18.40625 75.984375 
L 18.40625 64.59375 
L 9.421875 64.59375 
z
" id="DejaVuSans-105"/>
       <path d="M 37.109375 75.984375 
L 37.109375 68.5 
L 28.515625 68.5 
Q 23.6875 68.5 21.796875 66.546875 
Q 19.921875 64.59375 19.921875 59.515625 
L 19.921875 54.6875 
L 34.71875 54.6875 
L 34.71875 47.703125 
L 19.921875 47.703125 
L 19.921875 0 
L 10.890625 0 
L 10.890625 47.703125 
L 2.296875 47.703125 
L 2.296875 54.6875 
L 10.890625 54.6875 
L 10.890625 58.5 
Q 10.890625 67.625 15.140625 71.796875 
Q 19.390625 75.984375 28.609375 75.984375 
z
" id="DejaVuSans-102"/>
       <path d="M 48.78125 52.59375 
L 48.78125 44.1875 
Q 44.96875 46.296875 41.140625 47.34375 
Q 37.3125 48.390625 33.40625 48.390625 
Q 24.65625 48.390625 19.8125 42.84375 
Q 14.984375 37.3125 14.984375 27.296875 
Q 14.984375 17.28125 19.8125 11.734375 
Q 24.65625 6.203125 33.40625 6.203125 
Q 37.3125 6.203125 41.140625 7.25 
Q 44.96875 8.296875 48.78125 10.40625 
L 48.78125 2.09375 
Q 45.015625 0.34375 40.984375 -0.53125 
Q 36.96875 -1.421875 32.421875 -1.421875 
Q 20.0625 -1.421875 12.78125 6.34375 
Q 5.515625 14.109375 5.515625 27.296875 
Q 5.515625 40.671875 12.859375 48.328125 
Q 20.21875 56 33.015625 56 
Q 37.15625 56 41.109375 55.140625 
Q 45.0625 54.296875 48.78125 52.59375 
z
" id="DejaVuSans-99"/>
       <path d="M 46.734375 75.984375 
L 42.78125 55.8125 
Q 52.546875 55.8125 57.5625 48.34375 
Q 62.75 40.71875 60.15625 27.296875 
Q 57.515625 13.875 49.359375 6.25 
Q 41.453125 -1.21875 31.6875 -1.21875 
L 27.875 -20.796875 
L 18.953125 -20.796875 
L 22.75 -1.21875 
Q 13.03125 -1.21875 7.953125 6.25 
Q 2.78125 13.875 5.421875 27.296875 
Q 8.015625 40.71875 16.15625 48.34375 
Q 24.125 55.8125 33.84375 55.8125 
L 37.796875 75.984375 
z
M 33.25 6.78125 
Q 38.765625 6.78125 43.5 11.8125 
Q 48.6875 17.4375 50.6875 27.296875 
Q 52.640625 37.0625 49.515625 42.78125 
Q 46.734375 47.796875 41.21875 47.796875 
z
M 24.3125 6.78125 
L 32.28125 47.796875 
Q 26.8125 47.796875 22.078125 42.78125 
Q 16.75 37.0625 14.890625 27.296875 
Q 13.03125 17.4375 16.0625 11.8125 
Q 18.796875 6.78125 24.3125 6.78125 
z
" id="DejaVuSans-Oblique-981"/>
      </defs>
      <use transform="translate(0 0.015625)" xlink:href="#DejaVuSans-80"/>
      <use transform="translate(60.302734 0.015625)" xlink:href="#DejaVuSans-104"/>
      <use transform="translate(123.681641 0.015625)" xlink:href="#DejaVuSans-97"/>
      <use transform="translate(184.960938 0.015625)" xlink:href="#DejaVuSans-115"/>
      <use transform="translate(237.060547 0.015625)" xlink:href="#DejaVuSans-101"/>
      <use transform="translate(298.583984 0.015625)" xlink:href="#DejaVuSans-32"/>
      <use transform="translate(330.371094 0.015625)" xlink:href="#DejaVuSans-68"/>
      <use transform="translate(407.373047 0.015625)" xlink:href="#DejaVuSans-105"/>
      <use transform="translate(435.15625 0.015625)" xlink:href="#DejaVuSans-102"/>
      <use transform="translate(470.361328 0.015625)" xlink:href="#DejaVuSans-102"/>
      <use transform="translate(505.566406 0.015625)" xlink:href="#DejaVuSans-101"/>
      <use transform="translate(567.089844 0.015625)" xlink:href="#DejaVuSans-114"/>
      <use transform="translate(608.203125 0.015625)" xlink:href="#DejaVuSans-101"/>
      <use transform="translate(669.726562 0.015625)" xlink:href="#DejaVuSans-110"/>
      <use transform="translate(733.105469 0.015625)" xlink:href="#DejaVuSans-99"/>
      <use transform="translate(788.085938 0.015625)" xlink:href="#DejaVuSans-101"/>
      <use transform="translate(849.609375 0.015625)" xlink:href="#DejaVuSans-32"/>
      <use transform="translate(881.396484 0.015625)" xlink:href="#DejaVuSans-Oblique-981"/>
     </g>
    </g>
   </g>
   <g id="line2d_13">
    <path clip-path="url(#p6c139fa3ee)" d="M 353.364236 218.16 
L 353.289171 214.287405 
L 352.76364 209.083404 
L 352.313174 206.817369 
L 351.937812 205.151145 
L 350.473836 200.019054 
L 349.310198 197.151607 
L 347.733605 193.339099 
L 345.518905 189.187872 
L 343.341717 185.306478 
L 342.553441 184.120163 
L 337.373237 177.091691 
L 336.584961 176.016568 
L 335.759132 175.008578 
L 331.930288 170.687131 
L 330.391247 169.0754 
L 328.664526 167.32151 
L 327.350719 166.010969 
L 319.317667 158.843242 
L 309.783128 151.372964 
L 296.006829 142.197574 
L 294.092427 141.026197 
L 287.110437 136.933001 
L 278.927257 132.486391 
L 275.548879 130.722098 
L 273.709541 129.7911 
L 269.918248 127.905212 
L 267.328146 126.657752 
L 253.439231 120.348841 
L 243.266584 116.098518 
L 233.356642 112.219029 
L 228.514288 110.435141 
L 224.46025 108.948905 
L 218.266536 106.772835 
L 213.837137 105.265099 
L 195.293548 99.333946 
L 185.834113 96.529095 
L 185.834113 96.529095 
" style="fill:none;stroke:#aa3863;stroke-dasharray:5.55,2.4;stroke-dashoffset:0;stroke-width:1.5;"/>
   </g>
   <g id="line2d_14">
    <path clip-path="url(#p6c139fa3ee)" d="M 353.364236 218.16 
L 353.289171 222.032595 
L 352.76364 227.236596 
L 352.313174 229.502631 
L 351.937812 231.168855 
L 350.473836 236.300946 
L 349.310198 239.168393 
L 347.733605 242.980901 
L 345.518905 247.132128 
L 343.341717 251.013522 
L 342.553441 252.199837 
L 337.373237 259.228309 
L 336.584961 260.303432 
L 335.759132 261.311422 
L 331.930288 265.632869 
L 330.391247 267.2446 
L 328.664526 268.99849 
L 327.350719 270.309031 
L 319.317667 277.476758 
L 309.783128 284.947036 
L 296.006829 294.122426 
L 294.092427 295.293803 
L 287.110437 299.386999 
L 278.927257 303.833609 
L 275.548879 305.597902 
L 273.709541 306.5289 
L 269.918248 308.414788 
L 267.328146 309.662248 
L 253.439231 315.971159 
L 243.266584 320.221482 
L 233.356642 324.100971 
L 228.514288 325.884859 
L 224.46025 327.371095 
L 218.266536 329.547165 
L 213.837137 331.054901 
L 195.293548 336.986054 
L 185.871625 339.78029 
L 185.871625 339.78029 
" style="fill:none;stroke:#aa3863;stroke-dasharray:5.55,2.4;stroke-dashoffset:0;stroke-width:1.5;"/>
   </g>
   <g id="line2d_15">
    <path clip-path="url(#p6c139fa3ee)" d="M 340.208506 218.16 
L 340.131006 214.520374 
L 339.433505 208.570926 
L 337.961085 202.606116 
L 337.612314 201.462379 
L 336.759854 198.58208 
L 335.674893 195.649042 
L 334.396203 192.886527 
L 333.698702 191.407186 
L 333.078742 190.068612 
L 331.296321 186.754823 
L 326.840209 179.881603 
L 325.522748 177.990968 
L 323.430327 175.282523 
L 322.267867 173.889456 
L 320.834176 172.095862 
L 313.859413 164.673333 
L 310.720802 161.680994 
L 309.093341 160.267576 
L 308.39588 159.622739 
L 306.070959 157.570229 
L 304.985999 156.668502 
L 302.583577 154.694133 
L 301.033657 153.430645 
L 296.655045 150.123599 
L 295.415084 149.163085 
L 293.865164 148.051796 
L 292.160203 146.843587 
L 289.099051 144.726182 
L 283.131788 140.829849 
L 277.435715 137.322704 
L 271.662183 133.972052 
L 261.045078 128.268848 
L 256.627736 126.032268 
L 253.140354 124.281523 
L 238.493367 117.599239 
L 227.914992 113.169139 
L 226.403801 112.549824 
L 211.601854 106.901415 
L 199.628518 102.685899 
L 188.197683 98.928972 
L 177.425578 95.591807 
L 177.425578 95.591807 
" style="fill:none;stroke:#d97020;stroke-dasharray:5.55,2.4;stroke-dashoffset:0;stroke-width:1.5;"/>
   </g>
   <g id="line2d_16">
    <path clip-path="url(#p6c139fa3ee)" d="M 340.208506 218.16 
L 340.131006 221.799626 
L 339.433505 227.749074 
L 337.961085 233.713884 
L 337.612314 234.857621 
L 336.759854 237.73792 
L 335.674893 240.670958 
L 334.396203 243.433473 
L 333.698702 244.912814 
L 333.078742 246.251388 
L 331.296321 249.565177 
L 326.840209 256.438397 
L 325.522748 258.329032 
L 323.430327 261.037477 
L 322.267867 262.430544 
L 320.834176 264.224138 
L 313.859413 271.646667 
L 310.720802 274.639006 
L 309.093341 276.052424 
L 308.39588 276.697261 
L 306.070959 278.749771 
L 304.985999 279.651498 
L 302.583577 281.625867 
L 301.033657 282.889355 
L 296.655045 286.196401 
L 295.415084 287.156915 
L 293.865164 288.268204 
L 292.160203 289.476413 
L 289.099051 291.593818 
L 283.131788 295.490151 
L 277.435715 298.997296 
L 271.662183 302.347948 
L 261.045078 308.051152 
L 256.627736 310.287732 
L 253.140354 312.038477 
L 238.493367 318.720761 
L 227.914992 323.150861 
L 226.403801 323.770176 
L 211.601854 329.418585 
L 199.628518 333.634101 
L 188.197683 337.391028 
L 177.464308 340.716007 
L 177.464308 340.716007 
" style="fill:none;stroke:#d97020;stroke-dasharray:5.55,2.4;stroke-dashoffset:0;stroke-width:1.5;"/>
   </g>
   <g id="line2d_17">
    <path clip-path="url(#p6c139fa3ee)" d="M 325.741648 218.16 
L 325.66224 214.33969 
L 325.145925 208.951315 
L 324.669314 206.269692 
L 324.391304 205.171829 
L 323.279265 201.353939 
L 322.405532 198.453167 
L 321.531758 195.780858 
L 320.34027 192.947823 
L 318.711916 189.53914 
L 317.480725 187.003305 
L 313.667997 180.676613 
L 310.848155 176.57997 
L 309.815524 175.268945 
L 308.74323 173.963544 
L 307.472294 172.217608 
L 301.276591 165.251612 
L 299.648237 163.650948 
L 299.131921 163.129883 
L 297.265302 161.223312 
L 290.712141 155.329777 
L 289.95756 154.629207 
L 288.130604 153.13012 
L 286.899413 152.099631 
L 285.707925 151.113082 
L 283.444103 149.342227 
L 282.01435 148.311225 
L 281.378882 147.815833 
L 279.591671 146.489355 
L 278.479632 145.628967 
L 277.447001 144.895435 
L 274.587455 142.881028 
L 266.485389 137.586851 
L 265.452758 136.893145 
L 264.102413 136.075153 
L 262.871222 135.316945 
L 259.336504 133.196668 
L 257.986159 132.406829 
L 252.783383 129.460395 
L 249.645786 127.748781 
L 248.255738 126.991964 
L 245.753651 125.702319 
L 241.782025 123.652803 
L 240.113967 122.808956 
L 231.257279 118.517779 
L 229.470068 117.708012 
L 218.071589 112.663617 
L 201.470292 105.992703 
L 198.571042 104.90485 
L 196.664678 104.199018 
L 190.746985 102.042513 
L 186.854808 100.663055 
L 183.637804 99.550676 
L 174.06628 96.358058 
L 169.975502 95.043646 
L 169.975502 95.043646 
" style="fill:none;stroke:#ef9f07;stroke-dasharray:5.55,2.4;stroke-dashoffset:0;stroke-width:1.5;"/>
   </g>
   <g id="line2d_18">
    <path clip-path="url(#p6c139fa3ee)" d="M 325.741648 218.16 
L 325.66224 221.98031 
L 325.145925 227.368685 
L 324.669314 230.050308 
L 324.391304 231.148171 
L 323.279265 234.966061 
L 322.405532 237.866833 
L 321.531758 240.539142 
L 320.34027 243.372177 
L 318.711916 246.78086 
L 317.480725 249.316695 
L 313.667997 255.643387 
L 310.848155 259.74003 
L 309.815524 261.051055 
L 308.74323 262.356456 
L 307.472294 264.102392 
L 301.276591 271.068388 
L 299.648237 272.669052 
L 299.131921 273.190117 
L 297.265302 275.096688 
L 290.712141 280.990223 
L 289.95756 281.690793 
L 288.130604 283.18988 
L 286.899413 284.220369 
L 285.707925 285.206918 
L 283.444103 286.977773 
L 282.01435 288.008775 
L 281.378882 288.504167 
L 279.591671 289.830645 
L 278.479632 290.691033 
L 277.447001 291.424565 
L 274.587455 293.438972 
L 266.485389 298.733149 
L 265.452758 299.426855 
L 264.102413 300.244847 
L 262.871222 301.003055 
L 259.336504 303.123332 
L 257.986159 303.913171 
L 252.783383 306.859605 
L 249.645786 308.571219 
L 248.255738 309.328036 
L 245.753651 310.617681 
L 241.782025 312.667197 
L 240.113967 313.511044 
L 231.257279 317.802221 
L 229.470068 318.611988 
L 218.071589 323.656383 
L 201.470292 330.327297 
L 198.571042 331.41515 
L 196.664678 332.120982 
L 190.746985 334.277487 
L 186.854808 335.656945 
L 183.637804 336.769324 
L 174.06628 339.961942 
L 170.015247 341.263109 
L 170.015247 341.263109 
" style="fill:none;stroke:#ef9f07;stroke-dasharray:5.55,2.4;stroke-dashoffset:0;stroke-width:1.5;"/>
   </g>
   <g id="line2d_19">
    <path clip-path="url(#p6c139fa3ee)" d="M 310.213052 218.16 
L 310.132304 214.227469 
L 309.688293 210.100707 
L 309.365382 208.32317 
L 308.437005 204.371618 
L 307.912286 201.565074 
L 307.226072 198.83921 
L 306.338048 196.307971 
L 305.127155 193.594929 
L 303.835474 190.052555 
L 302.664894 187.866445 
L 302.019073 186.919661 
L 300.888887 184.278832 
L 299.718307 182.39612 
L 298.547768 180.603462 
L 297.417542 178.534774 
L 296.368063 177.280993 
L 295.80299 176.579395 
L 294.995674 175.120708 
L 293.825135 173.533925 
L 292.210543 171.496716 
L 291.039963 169.894148 
L 290.394143 169.298813 
L 289.788676 168.698065 
L 288.537388 166.903896 
L 287.851214 166.219322 
L 286.720988 165.109 
L 285.590802 163.63477 
L 284.50097 162.725514 
L 284.056958 162.311105 
L 282.805671 160.733726 
L 282.038749 160.089432 
L 281.150726 159.323484 
L 279.939792 157.935074 
L 279.132516 157.293261 
L 278.446302 156.729708 
L 277.235368 155.434952 
L 276.185889 154.624762 
L 275.822626 154.320003 
L 274.611692 153.105202 
L 273.52186 152.318539 
L 273.19895 152.024727 
L 272.310926 151.116227 
L 271.18074 150.283477 
L 270.534879 149.78606 
L 269.36434 148.654176 
L 268.597418 148.159178 
L 267.991951 147.718611 
L 266.781017 146.649688 
L 256.568829 139.225647 
L 255.882614 138.772712 
L 254.671721 137.908151 
L 253.339686 137.009811 
L 252.290208 136.30664 
L 251.200376 135.627178 
L 250.029796 134.877044 
L 249.061065 134.255642 
L 247.890485 133.476116 
L 246.841006 132.848787 
L 245.670467 132.148701 
L 244.822797 131.629419 
L 243.652217 130.892168 
L 242.562385 130.221717 
L 241.391845 129.585679 
L 240.745984 129.19894 
L 239.575445 128.500577 
L 238.56632 127.896715 
L 237.476488 127.281149 
L 236.669212 126.828668 
L 235.458279 126.181169 
L 234.772064 125.783029 
L 233.601524 125.134109 
L 232.834603 124.687313 
L 231.785124 124.121523 
L 230.816353 123.599822 
L 229.484358 122.94307 
L 227.183592 121.663011 
L 226.134114 121.151592 
L 225.488293 120.803257 
L 224.156258 120.160506 
L 223.550791 119.816768 
L 220.967469 118.526216 
L 219.91799 117.980988 
L 205.548282 111.305448 
L 203.530073 110.431814 
L 201.79442 109.64128 
L 199.695463 108.773271 
L 198.80744 108.378579 
L 193.963705 106.344818 
L 192.3088 105.682592 
L 187.909077 103.933873 
L 185.931222 103.154619 
L 184.720288 102.690374 
L 182.338775 101.784082 
L 178.948177 100.483278 
L 176.728159 99.665679 
L 165.789402 95.769708 
L 163.084978 94.840373 
L 163.084978 94.840373 
" style="fill:none;stroke:#449775;stroke-dasharray:5.55,2.4;stroke-dashoffset:0;stroke-width:1.5;"/>
   </g>
   <g id="line2d_20">
    <path clip-path="url(#p6c139fa3ee)" d="M 310.213052 218.16 
L 310.132304 222.092531 
L 309.688293 226.219293 
L 309.365382 227.99683 
L 308.437005 231.948382 
L 307.912286 234.754926 
L 307.226072 237.48079 
L 306.338048 240.012029 
L 305.127155 242.725071 
L 303.835474 246.267445 
L 302.664894 248.453555 
L 302.019073 249.400339 
L 300.888887 252.041168 
L 299.718307 253.92388 
L 298.547768 255.716538 
L 297.417542 257.785226 
L 296.368063 259.039007 
L 295.80299 259.740605 
L 294.995674 261.199292 
L 293.825135 262.786075 
L 292.210543 264.823284 
L 291.039963 266.425852 
L 290.394143 267.021187 
L 289.788676 267.621935 
L 288.537388 269.416104 
L 287.851214 270.100678 
L 286.720988 271.211 
L 285.590802 272.68523 
L 284.50097 273.594486 
L 284.056958 274.008895 
L 282.805671 275.586274 
L 282.038749 276.230568 
L 281.150726 276.996516 
L 279.939792 278.384926 
L 279.132516 279.026739 
L 278.446302 279.590292 
L 277.235368 280.885048 
L 276.185889 281.695238 
L 275.822626 281.999997 
L 274.611692 283.214798 
L 273.52186 284.001461 
L 273.19895 284.295273 
L 272.310926 285.203773 
L 271.18074 286.036523 
L 270.534879 286.53394 
L 269.36434 287.665824 
L 268.597418 288.160822 
L 267.991951 288.601389 
L 266.781017 289.670312 
L 256.568829 297.094353 
L 255.882614 297.547288 
L 254.671721 298.411849 
L 253.339686 299.310189 
L 252.290208 300.01336 
L 251.200376 300.692822 
L 250.029796 301.442956 
L 249.061065 302.064358 
L 247.890485 302.843884 
L 246.841006 303.471213 
L 245.670467 304.171299 
L 244.822797 304.690581 
L 243.652217 305.427832 
L 242.562385 306.098283 
L 241.391845 306.734321 
L 240.745984 307.12106 
L 239.575445 307.819423 
L 238.56632 308.423285 
L 237.476488 309.038851 
L 236.669212 309.491332 
L 235.458279 310.138831 
L 234.772064 310.536971 
L 233.601524 311.185891 
L 232.834603 311.632687 
L 231.785124 312.198477 
L 230.816353 312.720178 
L 229.484358 313.37693 
L 227.183592 314.656989 
L 226.134114 315.168408 
L 225.488293 315.516743 
L 224.156258 316.159494 
L 223.550791 316.503232 
L 220.967469 317.793784 
L 219.91799 318.339012 
L 205.548282 325.014552 
L 203.530073 325.888186 
L 201.79442 326.67872 
L 199.695463 327.546729 
L 198.80744 327.941421 
L 193.963705 329.975182 
L 192.3088 330.637408 
L 187.909077 332.386127 
L 185.931222 333.165381 
L 184.720288 333.629626 
L 182.338775 334.535918 
L 178.948177 335.836722 
L 176.728159 336.654321 
L 165.789402 340.550292 
L 163.125372 341.463993 
L 163.125372 341.463993 
" style="fill:none;stroke:#449775;stroke-dasharray:5.55,2.4;stroke-dashoffset:0;stroke-width:1.5;"/>
   </g>
   <g id="line2d_21">
    <path clip-path="url(#p6c139fa3ee)" d="M 292.768389 218.16 
L 292.768389 221.184 
L 292.47203 224.204069 
L 292.131013 227.217182 
L 291.651966 230.220014 
L 291.034888 233.209238 
L 290.291959 236.18183 
L 289.41506 239.134766 
L 288.412308 242.065022 
L 287.287766 244.970482 
L 286.041431 247.848725 
L 284.677365 250.697333 
L 283.203686 253.514491 
L 281.620395 256.29899 
L 279.931551 259.048714 
L 278.141214 261.762754 
L 276.253443 264.44111 
L 274.272299 267.08197 
L 272.201841 269.684122 
L 270.046129 272.247869 
L 267.809223 274.772002 
L 265.491122 277.256822 
L 263.104006 279.701726 
L 260.643815 282.107621 
L 258.114609 284.473296 
L 255.520447 286.799962 
L 252.865389 289.087315 
L 250.149436 291.336264 
L 247.380706 293.546808 
L 244.55514 295.719552 
L 241.680857 297.854496 
L 238.757858 299.95285 
L 235.786142 302.01431 
L 232.769769 304.039786 
L 229.712799 306.02988 
L 226.615231 307.984896 
L 223.477067 309.905136 
L 220.306425 311.79181 
L 217.095185 313.644917 
L 213.855527 315.465365 
L 210.579332 317.253758 
L 207.274719 319.0104 
L 203.941688 320.735894 
L 200.580239 322.431149 
L 197.190372 324.096163 
L 193.776146 325.732147 
L 190.337562 327.339403 
L 186.87462 328.918234 
L 183.387319 330.469848 
L 179.87972 331.994246 
L 176.355882 333.492336 
L 172.807686 334.964722 
L 169.24325 336.412008 
L 165.662576 337.8348 
L 162.061604 339.234065 
L 158.448452 340.610167 
L 154.815001 341.964012 
L 151.173431 343.296446 
L 147.515622 344.608379 
L 143.845634 345.900866 
L 140.163467 347.175059 
L 136.469121 348.432227 
L 132.766655 349.674002 
L 129.060129 350.90229 
L 125.341425 352.11939 
L 121.62272 353.328324 
L 117.895896 354.533056 
L 114.173131 355.739057 
L 110.458487 356.954221 
L 106.751961 358.190796 
L 103.073854 359.469312 
L 99.448522 360.829356 
" style="fill:none;stroke:#3b7d86;stroke-dasharray:5.55,2.4;stroke-dashoffset:0;stroke-width:1.5;"/>
   </g>
   <g id="line2d_22">
    <path clip-path="url(#p6c139fa3ee)" d="M 292.768389 218.16 
L 292.768389 215.136 
L 292.47203 212.115931 
L 292.131013 209.102818 
L 291.651966 206.099986 
L 291.034888 203.110762 
L 290.291959 200.13817 
L 289.41506 197.185234 
L 288.412308 194.254978 
L 287.287766 191.349518 
L 286.041431 188.471275 
L 284.677365 185.622667 
L 283.203686 182.805509 
L 281.620395 180.02101 
L 279.931551 177.271286 
L 278.141214 174.557246 
L 276.253443 171.87889 
L 274.272299 169.23803 
L 272.201841 166.635878 
L 270.046129 164.072131 
L 267.809223 161.547998 
L 265.491122 159.063178 
L 263.104006 156.617669 
L 260.639755 154.211774 
L 258.110549 151.845494 
L 255.516387 149.518526 
L 252.861329 147.230568 
L 250.149436 144.981317 
L 247.376646 142.77047 
L 244.55108 140.597726 
L 241.676797 138.46248 
L 238.753798 136.364429 
L 235.782082 134.302666 
L 232.765709 132.27719 
L 229.708739 130.287398 
L 226.611172 128.332382 
L 223.473007 126.412142 
L 220.302365 124.525469 
L 217.091125 122.672362 
L 213.851468 120.851914 
L 210.575273 119.063822 
L 207.27066 117.307181 
L 203.937628 115.581686 
L 200.572119 113.886734 
L 197.186312 112.221418 
L 193.768027 110.585736 
L 190.329443 108.97848 
L 186.8665 107.399347 
L 183.38326 105.848035 
L 179.87566 104.323637 
L 176.351822 102.825547 
L 172.803626 101.353162 
L 169.239191 99.905875 
L 165.658517 98.483083 
L 162.057544 97.083878 
L 158.440332 95.707958 
L 154.810941 94.354114 
L 151.165312 93.021739 
L 147.507503 91.709626 
L 143.837515 90.417168 
L 140.155348 89.143157 
L 136.465061 87.88608 
L 132.762595 86.644123 
L 129.05201 85.416077 
L 125.337365 84.198917 
L 121.614601 82.989922 
L 117.891836 81.78516 
L 114.169072 80.579189 
L 110.450367 79.364146 
L 106.747901 78.12733 
L 103.065734 76.848782 
L 103.065734 76.848782 
" style="fill:none;stroke:#3b7d86;stroke-dasharray:5.55,2.4;stroke-dashoffset:0;stroke-width:1.5;"/>
   </g>
   <g id="line2d_23">
    <path clip-path="url(#p6c139fa3ee)" d="M 498.109091 218.16 
L 354.091616 218.16 
L 354.091616 218.16 
" style="fill:none;stroke:#000000;stroke-dasharray:5.55,2.4;stroke-dashoffset:0;stroke-width:1.5;"/>
   </g>
   <g id="line2d_24">
    <path clip-path="url(#p6c139fa3ee)" d="M 353.364236 218.16 
L 123.929738 218.16 
L 123.929738 218.16 
" style="fill:none;stroke:#000000;stroke-linecap:square;stroke-width:1.5;"/>
   </g>
   <g id="line2d_25">
    <path clip-path="url(#p6c139fa3ee)" d="M 122.770972 218.16 
L 92.290909 218.16 
L 92.290909 218.16 
" style="fill:none;stroke:#000000;stroke-linecap:square;stroke-width:1.5;"/>
   </g>
   <g id="line2d_26">
    <path clip-path="url(#p6c139fa3ee)" d="M 498.109091 369.36 
L 489.989648 369.36 
L 485.929927 369.36 
L 481.870206 369.36 
L 477.810485 369.36 
L 473.750763 369.36 
L 469.691042 369.36 
L 465.631321 369.36 
L 461.5716 369.36 
L 457.511878 369.36 
L 453.452157 369.36 
L 449.392436 369.36 
L 445.332714 369.36 
L 441.272993 369.36 
L 437.213272 369.36 
L 433.153551 369.36 
L 429.093829 369.36 
L 425.034108 369.36 
L 420.974387 369.36 
L 416.914666 369.36 
L 412.854944 369.36 
L 408.795223 369.36 
L 404.735502 369.36 
L 400.675781 369.36 
L 396.616059 369.36 
L 392.556338 369.36 
L 388.496617 369.36 
L 384.436896 369.36 
L 380.377174 369.36 
L 376.317453 369.36 
L 372.257732 369.36 
L 368.19801 369.36 
L 364.138289 369.36 
L 360.078568 369.36 
L 356.018847 369.36 
L 351.959125 369.36 
L 347.899404 369.36 
L 343.839683 369.36 
L 339.779962 369.36 
L 335.72024 369.36 
L 331.660519 369.36 
L 327.600798 369.36 
L 323.541077 369.36 
L 319.481355 369.36 
L 315.421634 369.36 
L 311.361913 369.36 
L 307.302191 369.36 
L 303.24247 369.36 
L 299.182749 369.36 
L 295.123028 369.36 
L 291.063306 369.36 
L 287.003585 369.36 
L 282.943864 369.36 
L 278.884143 369.36 
L 274.824421 369.36 
L 270.7647 369.36 
L 266.704979 369.36 
L 262.645258 369.36 
L 258.585536 369.36 
L 254.525815 369.36 
L 250.466094 369.36 
L 246.406373 369.36 
L 242.346651 369.36 
L 238.28693 369.36 
L 234.227209 369.36 
L 230.167487 369.36 
L 226.107766 369.36 
L 222.048045 369.36 
L 217.988324 369.36 
L 213.928602 369.36 
L 209.868881 369.36 
L 205.80916 369.36 
L 201.749439 369.36 
L 197.689717 369.36 
L 193.629996 369.36 
L 189.570275 369.36 
L 185.510554 369.36 
L 181.450832 369.36 
L 177.391111 369.36 
L 173.33139 369.36 
L 169.271668 369.36 
L 165.211947 369.36 
L 161.152226 369.36 
L 157.092505 369.36 
L 153.032783 369.36 
L 148.973062 369.36 
L 144.913341 369.36 
L 140.85362 369.36 
L 136.793898 369.36 
L 132.734177 369.36 
L 128.674456 369.36 
L 124.614735 369.36 
L 120.555013 369.36 
L 116.495292 369.36 
L 112.435571 369.36 
L 108.37585 369.36 
L 104.316128 369.36 
L 100.256407 369.36 
L 96.196686 369.36 
L 96.196686 369.36 
" style="fill:none;stroke:#000000;stroke-linecap:square;stroke-width:1.5;"/>
   </g>
   <g id="line2d_27">
    <path clip-path="url(#p6c139fa3ee)" d="M 498.109091 66.96 
L 489.989648 66.96 
L 485.929927 66.96 
L 481.870206 66.96 
L 477.810485 66.96 
L 473.750763 66.96 
L 469.691042 66.96 
L 465.631321 66.96 
L 461.5716 66.96 
L 457.511878 66.96 
L 453.452157 66.96 
L 449.392436 66.96 
L 445.332714 66.96 
L 441.272993 66.96 
L 437.213272 66.96 
L 433.153551 66.96 
L 429.093829 66.96 
L 425.034108 66.96 
L 420.974387 66.96 
L 416.914666 66.96 
L 412.854944 66.96 
L 408.795223 66.96 
L 404.735502 66.96 
L 400.675781 66.96 
L 396.616059 66.96 
L 392.556338 66.96 
L 388.496617 66.96 
L 384.436896 66.96 
L 380.377174 66.96 
L 376.317453 66.96 
L 372.257732 66.96 
L 368.19801 66.96 
L 364.138289 66.96 
L 360.078568 66.96 
L 356.018847 66.96 
L 351.959125 66.96 
L 347.899404 66.96 
L 343.839683 66.96 
L 339.779962 66.96 
L 335.72024 66.96 
L 331.660519 66.96 
L 327.600798 66.96 
L 323.541077 66.96 
L 319.481355 66.96 
L 315.421634 66.96 
L 311.361913 66.96 
L 307.302191 66.96 
L 303.24247 66.96 
L 299.182749 66.96 
L 295.123028 66.96 
L 291.063306 66.96 
L 287.003585 66.96 
L 282.943864 66.96 
L 278.884143 66.96 
L 274.824421 66.96 
L 270.7647 66.96 
L 266.704979 66.96 
L 262.645258 66.96 
L 258.585536 66.96 
L 254.525815 66.96 
L 250.466094 66.96 
L 246.406373 66.96 
L 242.346651 66.96 
L 238.28693 66.96 
L 234.227209 66.96 
L 230.167487 66.96 
L 226.107766 66.96 
L 222.048045 66.96 
L 217.988324 66.96 
L 213.928602 66.96 
L 209.868881 66.96 
L 205.80916 66.96 
L 201.749439 66.96 
L 197.689717 66.96 
L 193.629996 66.96 
L 189.570275 66.96 
L 185.510554 66.96 
L 181.450832 66.96 
L 177.391111 66.96 
L 173.33139 66.96 
L 169.271668 66.96 
L 165.211947 66.96 
L 161.152226 66.96 
L 157.092505 66.96 
L 153.032783 66.96 
L 148.973062 66.96 
L 144.913341 66.96 
L 140.85362 66.96 
L 136.793898 66.96 
L 132.734177 66.96 
L 128.674456 66.96 
L 124.614735 66.96 
L 120.555013 66.96 
L 116.495292 66.96 
L 112.435571 66.96 
L 108.37585 66.96 
L 104.316128 66.96 
L 100.256407 66.96 
L 100.256407 66.96 
" style="fill:none;stroke:#000000;stroke-linecap:square;stroke-width:1.5;"/>
   </g>
   <g id="patch_3">
    <path d="M 72 384.48 
L 72 51.84 
" style="fill:none;stroke:#000000;stroke-linecap:square;stroke-linejoin:miter;stroke-width:0.8;"/>
   </g>
   <g id="patch_4">
    <path d="M 518.4 384.48 
L 518.4 51.84 
" style="fill:none;stroke:#000000;stroke-linecap:square;stroke-linejoin:miter;stroke-width:0.8;"/>
   </g>
   <g id="patch_5">
    <path d="M 72 384.48 
L 518.4 384.48 
" style="fill:none;stroke:#000000;stroke-linecap:square;stroke-linejoin:miter;stroke-width:0.8;"/>
   </g>
   <g id="patch_6">
    <path d="M 72 51.84 
L 518.4 51.84 
" style="fill:none;stroke:#000000;stroke-linecap:square;stroke-linejoin:miter;stroke-width:0.8;"/>
   </g>
   <g id="text_15">
    <!-- Bifurcation diagram for two coupled neurons, $\beta=0.1$ -->
    <g transform="translate(122.95 45.84)scale(0.13 -0.13)">
     <defs>
      <path d="M 19.671875 34.8125 
L 19.671875 8.109375 
L 35.5 8.109375 
Q 43.453125 8.109375 47.28125 11.40625 
Q 51.125 14.703125 51.125 21.484375 
Q 51.125 28.328125 47.28125 31.5625 
Q 43.453125 34.8125 35.5 34.8125 
z
M 19.671875 64.796875 
L 19.671875 42.828125 
L 34.28125 42.828125 
Q 41.5 42.828125 45.03125 45.53125 
Q 48.578125 48.25 48.578125 53.8125 
Q 48.578125 59.328125 45.03125 62.0625 
Q 41.5 64.796875 34.28125 64.796875 
z
M 9.8125 72.90625 
L 35.015625 72.90625 
Q 46.296875 72.90625 52.390625 68.21875 
Q 58.5 63.53125 58.5 54.890625 
Q 58.5 48.1875 55.375 44.234375 
Q 52.25 40.28125 46.1875 39.3125 
Q 53.46875 37.75 57.5 32.78125 
Q 61.53125 27.828125 61.53125 20.40625 
Q 61.53125 10.640625 54.890625 5.3125 
Q 48.25 0 35.984375 0 
L 9.8125 0 
z
" id="DejaVuSans-66"/>
      <path d="M 30.609375 48.390625 
Q 23.390625 48.390625 19.1875 42.75 
Q 14.984375 37.109375 14.984375 27.296875 
Q 14.984375 17.484375 19.15625 11.84375 
Q 23.34375 6.203125 30.609375 6.203125 
Q 37.796875 6.203125 41.984375 11.859375 
Q 46.1875 17.53125 46.1875 27.296875 
Q 46.1875 37.015625 41.984375 42.703125 
Q 37.796875 48.390625 30.609375 48.390625 
z
M 30.609375 56 
Q 42.328125 56 49.015625 48.375 
Q 55.71875 40.765625 55.71875 27.296875 
Q 55.71875 13.875 49.015625 6.21875 
Q 42.328125 -1.421875 30.609375 -1.421875 
Q 18.84375 -1.421875 12.171875 6.21875 
Q 5.515625 13.875 5.515625 27.296875 
Q 5.515625 40.765625 12.171875 48.375 
Q 18.84375 56 30.609375 56 
z
" id="DejaVuSans-111"/>
      <path d="M 45.40625 46.390625 
L 45.40625 75.984375 
L 54.390625 75.984375 
L 54.390625 0 
L 45.40625 0 
L 45.40625 8.203125 
Q 42.578125 3.328125 38.25 0.953125 
Q 33.9375 -1.421875 27.875 -1.421875 
Q 17.96875 -1.421875 11.734375 6.484375 
Q 5.515625 14.40625 5.515625 27.296875 
Q 5.515625 40.1875 11.734375 48.09375 
Q 17.96875 56 27.875 56 
Q 33.9375 56 38.25 53.625 
Q 42.578125 51.265625 45.40625 46.390625 
z
M 14.796875 27.296875 
Q 14.796875 17.390625 18.875 11.75 
Q 22.953125 6.109375 30.078125 6.109375 
Q 37.203125 6.109375 41.296875 11.75 
Q 45.40625 17.390625 45.40625 27.296875 
Q 45.40625 37.203125 41.296875 42.84375 
Q 37.203125 48.484375 30.078125 48.484375 
Q 22.953125 48.484375 18.875 42.84375 
Q 14.796875 37.203125 14.796875 27.296875 
z
" id="DejaVuSans-100"/>
      <path d="M 45.40625 27.984375 
Q 45.40625 37.75 41.375 43.109375 
Q 37.359375 48.484375 30.078125 48.484375 
Q 22.859375 48.484375 18.828125 43.109375 
Q 14.796875 37.75 14.796875 27.984375 
Q 14.796875 18.265625 18.828125 12.890625 
Q 22.859375 7.515625 30.078125 7.515625 
Q 37.359375 7.515625 41.375 12.890625 
Q 45.40625 18.265625 45.40625 27.984375 
z
M 54.390625 6.78125 
Q 54.390625 -7.171875 48.1875 -13.984375 
Q 42 -20.796875 29.203125 -20.796875 
Q 24.46875 -20.796875 20.265625 -20.09375 
Q 16.0625 -19.390625 12.109375 -17.921875 
L 12.109375 -9.1875 
Q 16.0625 -11.328125 19.921875 -12.34375 
Q 23.78125 -13.375 27.78125 -13.375 
Q 36.625 -13.375 41.015625 -8.765625 
Q 45.40625 -4.15625 45.40625 5.171875 
L 45.40625 9.625 
Q 42.625 4.78125 38.28125 2.390625 
Q 33.9375 0 27.875 0 
Q 17.828125 0 11.671875 7.65625 
Q 5.515625 15.328125 5.515625 27.984375 
Q 5.515625 40.671875 11.671875 48.328125 
Q 17.828125 56 27.875 56 
Q 33.9375 56 38.28125 53.609375 
Q 42.625 51.21875 45.40625 46.390625 
L 45.40625 54.6875 
L 54.390625 54.6875 
z
" id="DejaVuSans-103"/>
      <path d="M 52 44.1875 
Q 55.375 50.25 60.0625 53.125 
Q 64.75 56 71.09375 56 
Q 79.640625 56 84.28125 50.015625 
Q 88.921875 44.046875 88.921875 33.015625 
L 88.921875 0 
L 79.890625 0 
L 79.890625 32.71875 
Q 79.890625 40.578125 77.09375 44.375 
Q 74.3125 48.1875 68.609375 48.1875 
Q 61.625 48.1875 57.5625 43.546875 
Q 53.515625 38.921875 53.515625 30.90625 
L 53.515625 0 
L 44.484375 0 
L 44.484375 32.71875 
Q 44.484375 40.625 41.703125 44.40625 
Q 38.921875 48.1875 33.109375 48.1875 
Q 26.21875 48.1875 22.15625 43.53125 
Q 18.109375 38.875 18.109375 30.90625 
L 18.109375 0 
L 9.078125 0 
L 9.078125 54.6875 
L 18.109375 54.6875 
L 18.109375 46.1875 
Q 21.1875 51.21875 25.484375 53.609375 
Q 29.78125 56 35.6875 56 
Q 41.65625 56 45.828125 52.96875 
Q 50 49.953125 52 44.1875 
z
" id="DejaVuSans-109"/>
      <path d="M 4.203125 54.6875 
L 13.1875 54.6875 
L 24.421875 12.015625 
L 35.59375 54.6875 
L 46.1875 54.6875 
L 57.421875 12.015625 
L 68.609375 54.6875 
L 77.59375 54.6875 
L 63.28125 0 
L 52.6875 0 
L 40.921875 44.828125 
L 29.109375 0 
L 18.5 0 
z
" id="DejaVuSans-119"/>
      <path d="M 18.109375 8.203125 
L 18.109375 -20.796875 
L 9.078125 -20.796875 
L 9.078125 54.6875 
L 18.109375 54.6875 
L 18.109375 46.390625 
Q 20.953125 51.265625 25.265625 53.625 
Q 29.59375 56 35.59375 56 
Q 45.5625 56 51.78125 48.09375 
Q 58.015625 40.1875 58.015625 27.296875 
Q 58.015625 14.40625 51.78125 6.484375 
Q 45.5625 -1.421875 35.59375 -1.421875 
Q 29.59375 -1.421875 25.265625 0.953125 
Q 20.953125 3.328125 18.109375 8.203125 
z
M 48.6875 27.296875 
Q 48.6875 37.203125 44.609375 42.84375 
Q 40.53125 48.484375 33.40625 48.484375 
Q 26.265625 48.484375 22.1875 42.84375 
Q 18.109375 37.203125 18.109375 27.296875 
Q 18.109375 17.390625 22.1875 11.75 
Q 26.265625 6.109375 33.40625 6.109375 
Q 40.53125 6.109375 44.609375 11.75 
Q 48.6875 17.390625 48.6875 27.296875 
z
" id="DejaVuSans-112"/>
      <path d="M 9.421875 75.984375 
L 18.40625 75.984375 
L 18.40625 0 
L 9.421875 0 
z
" id="DejaVuSans-108"/>
      <path d="M 11.71875 12.40625 
L 22.015625 12.40625 
L 22.015625 4 
L 14.015625 -11.625 
L 7.71875 -11.625 
L 11.71875 4 
z
" id="DejaVuSans-44"/>
      <path d="M 13.625 3.375 
L 8.9375 -20.796875 
L -0.09375 -20.796875 
L 14.5 54.34375 
Q 18.84375 76.609375 39.65625 76.609375 
Q 60.75 76.609375 57.171875 57.8125 
Q 54.734375 44.4375 45.21875 39.546875 
Q 58.015625 35.15625 55.515625 22.125 
Q 51.125 -1.078125 27.484375 -1.03125 
Q 17.140625 -0.984375 13.625 3.375 
z
M 15.921875 15.09375 
Q 19.671875 6.59375 29.296875 6.640625 
Q 43.359375 6.640625 46.34375 21.96875 
Q 49.03125 35.75 26.171875 34.671875 
L 27.78125 42.96875 
Q 45.453125 42.671875 48.53125 58.59375 
Q 50.640625 69.34375 39.203125 69.28125 
Q 26.421875 69.28125 23.484375 54.046875 
z
" id="DejaVuSans-Oblique-946"/>
      <path d="M 10.59375 45.40625 
L 73.1875 45.40625 
L 73.1875 37.203125 
L 10.59375 37.203125 
z
M 10.59375 25.484375 
L 73.1875 25.484375 
L 73.1875 17.1875 
L 10.59375 17.1875 
z
" id="DejaVuSans-61"/>
     </defs>
     <use transform="translate(0 0.390625)" xlink:href="#DejaVuSans-66"/>
     <use transform="translate(68.603516 0.390625)" xlink:href="#DejaVuSans-105"/>
     <use transform="translate(96.386719 0.390625)" xlink:href="#DejaVuSans-102"/>
     <use transform="translate(131.591797 0.390625)" xlink:href="#DejaVuSans-117"/>
     <use transform="translate(194.970703 0.390625)" xlink:href="#DejaVuSans-114"/>
     <use transform="translate(236.083984 0.390625)" xlink:href="#DejaVuSans-99"/>
     <use transform="translate(291.064453 0.390625)" xlink:href="#DejaVuSans-97"/>
     <use transform="translate(352.34375 0.390625)" xlink:href="#DejaVuSans-116"/>
     <use transform="translate(391.552734 0.390625)" xlink:href="#DejaVuSans-105"/>
     <use transform="translate(419.335938 0.390625)" xlink:href="#DejaVuSans-111"/>
     <use transform="translate(480.517578 0.390625)" xlink:href="#DejaVuSans-110"/>
     <use transform="translate(543.896484 0.390625)" xlink:href="#DejaVuSans-32"/>
     <use transform="translate(575.683594 0.390625)" xlink:href="#DejaVuSans-100"/>
     <use transform="translate(639.160156 0.390625)" xlink:href="#DejaVuSans-105"/>
     <use transform="translate(666.943359 0.390625)" xlink:href="#DejaVuSans-97"/>
     <use transform="translate(728.222656 0.390625)" xlink:href="#DejaVuSans-103"/>
     <use transform="translate(791.699219 0.390625)" xlink:href="#DejaVuSans-114"/>
     <use transform="translate(832.8125 0.390625)" xlink:href="#DejaVuSans-97"/>
     <use transform="translate(894.091797 0.390625)" xlink:href="#DejaVuSans-109"/>
     <use transform="translate(991.503906 0.390625)" xlink:href="#DejaVuSans-32"/>
     <use transform="translate(1023.291016 0.390625)" xlink:href="#DejaVuSans-102"/>
     <use transform="translate(1058.496094 0.390625)" xlink:href="#DejaVuSans-111"/>
     <use transform="translate(1119.677734 0.390625)" xlink:href="#DejaVuSans-114"/>
     <use transform="translate(1160.791016 0.390625)" xlink:href="#DejaVuSans-32"/>
     <use transform="translate(1192.578125 0.390625)" xlink:href="#DejaVuSans-116"/>
     <use transform="translate(1231.787109 0.390625)" xlink:href="#DejaVuSans-119"/>
     <use transform="translate(1313.574219 0.390625)" xlink:href="#DejaVuSans-111"/>
     <use transform="translate(1374.755859 0.390625)" xlink:href="#DejaVuSans-32"/>
     <use transform="translate(1406.542969 0.390625)" xlink:href="#DejaVuSans-99"/>
     <use transform="translate(1461.523438 0.390625)" xlink:href="#DejaVuSans-111"/>
     <use transform="translate(1522.705078 0.390625)" xlink:href="#DejaVuSans-117"/>
     <use transform="translate(1586.083984 0.390625)" xlink:href="#DejaVuSans-112"/>
     <use transform="translate(1649.560547 0.390625)" xlink:href="#DejaVuSans-108"/>
     <use transform="translate(1677.34375 0.390625)" xlink:href="#DejaVuSans-101"/>
     <use transform="translate(1738.867188 0.390625)" xlink:href="#DejaVuSans-100"/>
     <use transform="translate(1802.34375 0.390625)" xlink:href="#DejaVuSans-32"/>
     <use transform="translate(1834.130859 0.390625)" xlink:href="#DejaVuSans-110"/>
     <use transform="translate(1897.509766 0.390625)" xlink:href="#DejaVuSans-101"/>
     <use transform="translate(1959.033203 0.390625)" xlink:href="#DejaVuSans-117"/>
     <use transform="translate(2022.412109 0.390625)" xlink:href="#DejaVuSans-114"/>
     <use transform="translate(2063.525391 0.390625)" xlink:href="#DejaVuSans-111"/>
     <use transform="translate(2124.707031 0.390625)" xlink:href="#DejaVuSans-110"/>
     <use transform="translate(2188.085938 0.390625)" xlink:href="#DejaVuSans-115"/>
     <use transform="translate(2240.185547 0.390625)" xlink:href="#DejaVuSans-44"/>
     <use transform="translate(2271.972656 0.390625)" xlink:href="#DejaVuSans-32"/>
     <use transform="translate(2303.759766 0.390625)" xlink:href="#DejaVuSans-Oblique-946"/>
     <use transform="translate(2387.060547 0.390625)" xlink:href="#DejaVuSans-61"/>
     <use transform="translate(2490.332031 0.390625)" xlink:href="#DejaVuSans-48"/>
     <use transform="translate(2553.955078 0.390625)" xlink:href="#DejaVuSans-46"/>
     <use transform="translate(2585.742188 0.390625)" xlink:href="#DejaVuSans-49"/>
    </g>
   </g>
   <g id="legend_1">
    <g id="patch_7">
     <path d="M 444 149.96575 
L 511.4 149.96575 
Q 513.4 149.96575 513.4 147.96575 
L 513.4 75.472 
Q 513.4 73.472 511.4 73.472 
L 444 73.472 
Q 442 73.472 442 75.472 
L 442 147.96575 
Q 442 149.96575 444 149.96575 
z
" style="fill:#ffffff;opacity:0.8;stroke:#cccccc;stroke-linejoin:miter;"/>
    </g>
    <g id="line2d_28">
     <path d="M 446 81.570437 
L 466 81.570437 
" style="fill:none;stroke:#aa3863;stroke-dasharray:5.55,2.4;stroke-dashoffset:0;stroke-width:1.5;"/>
    </g>
    <g id="line2d_29"/>
    <g id="text_16">
     <!-- $\gamma = 0.4$ -->
     <g transform="translate(474 85.070437)scale(0.1 -0.1)">
      <defs>
       <path d="M 23.296875 46.09375 
L 28.71875 12.3125 
L 54 54.6875 
L 63.53125 54.6875 
L 30.8125 0 
L 26.765625 -20.796875 
L 17.78125 -20.796875 
L 21.828125 0 
L 15.4375 40.828125 
Q 14.453125 46.96875 9.8125 46.96875 
L 7.421875 46.96875 
L 8.890625 54.6875 
L 12.3125 54.6875 
Q 21.921875 54.6875 23.296875 46.09375 
z
" id="DejaVuSans-Oblique-947"/>
      </defs>
      <use transform="translate(0 0.78125)" xlink:href="#DejaVuSans-Oblique-947"/>
      <use transform="translate(78.662109 0.78125)" xlink:href="#DejaVuSans-61"/>
      <use transform="translate(181.933594 0.78125)" xlink:href="#DejaVuSans-48"/>
      <use transform="translate(245.556641 0.78125)" xlink:href="#DejaVuSans-46"/>
      <use transform="translate(277.34375 0.78125)" xlink:href="#DejaVuSans-52"/>
     </g>
    </g>
    <g id="line2d_30">
     <path d="M 446 96.268875 
L 466 96.268875 
" style="fill:none;stroke:#d97020;stroke-dasharray:5.55,2.4;stroke-dashoffset:0;stroke-width:1.5;"/>
    </g>
    <g id="line2d_31"/>
    <g id="text_17">
     <!-- $\gamma = 0.3$ -->
     <g transform="translate(474 99.768875)scale(0.1 -0.1)">
      <defs>
       <path d="M 40.578125 39.3125 
Q 47.65625 37.796875 51.625 33 
Q 55.609375 28.21875 55.609375 21.1875 
Q 55.609375 10.40625 48.1875 4.484375 
Q 40.765625 -1.421875 27.09375 -1.421875 
Q 22.515625 -1.421875 17.65625 -0.515625 
Q 12.796875 0.390625 7.625 2.203125 
L 7.625 11.71875 
Q 11.71875 9.328125 16.59375 8.109375 
Q 21.484375 6.890625 26.8125 6.890625 
Q 36.078125 6.890625 40.9375 10.546875 
Q 45.796875 14.203125 45.796875 21.1875 
Q 45.796875 27.640625 41.28125 31.265625 
Q 36.765625 34.90625 28.71875 34.90625 
L 20.21875 34.90625 
L 20.21875 43.015625 
L 29.109375 43.015625 
Q 36.375 43.015625 40.234375 45.921875 
Q 44.09375 48.828125 44.09375 54.296875 
Q 44.09375 59.90625 40.109375 62.90625 
Q 36.140625 65.921875 28.71875 65.921875 
Q 24.65625 65.921875 20.015625 65.03125 
Q 15.375 64.15625 9.8125 62.3125 
L 9.8125 71.09375 
Q 15.4375 72.65625 20.34375 73.4375 
Q 25.25 74.21875 29.59375 74.21875 
Q 40.828125 74.21875 47.359375 69.109375 
Q 53.90625 64.015625 53.90625 55.328125 
Q 53.90625 49.265625 50.4375 45.09375 
Q 46.96875 40.921875 40.578125 39.3125 
z
" id="DejaVuSans-51"/>
      </defs>
      <use transform="translate(0 0.78125)" xlink:href="#DejaVuSans-Oblique-947"/>
      <use transform="translate(78.662109 0.78125)" xlink:href="#DejaVuSans-61"/>
      <use transform="translate(181.933594 0.78125)" xlink:href="#DejaVuSans-48"/>
      <use transform="translate(245.556641 0.78125)" xlink:href="#DejaVuSans-46"/>
      <use transform="translate(277.34375 0.78125)" xlink:href="#DejaVuSans-51"/>
     </g>
    </g>
    <g id="line2d_32">
     <path d="M 446 110.967312 
L 466 110.967312 
" style="fill:none;stroke:#ef9f07;stroke-dasharray:5.55,2.4;stroke-dashoffset:0;stroke-width:1.5;"/>
    </g>
    <g id="line2d_33"/>
    <g id="text_18">
     <!-- $\gamma = 0.2$ -->
     <g transform="translate(474 114.467312)scale(0.1 -0.1)">
      <use transform="translate(0 0.78125)" xlink:href="#DejaVuSans-Oblique-947"/>
      <use transform="translate(78.662109 0.78125)" xlink:href="#DejaVuSans-61"/>
      <use transform="translate(181.933594 0.78125)" xlink:href="#DejaVuSans-48"/>
      <use transform="translate(245.556641 0.78125)" xlink:href="#DejaVuSans-46"/>
      <use transform="translate(271.84375 0.78125)" xlink:href="#DejaVuSans-50"/>
     </g>
    </g>
    <g id="line2d_34">
     <path d="M 446 125.66575 
L 466 125.66575 
" style="fill:none;stroke:#449775;stroke-dasharray:5.55,2.4;stroke-dashoffset:0;stroke-width:1.5;"/>
    </g>
    <g id="line2d_35"/>
    <g id="text_19">
     <!-- $\gamma = 0.1$ -->
     <g transform="translate(474 129.16575)scale(0.1 -0.1)">
      <use transform="translate(0 0.78125)" xlink:href="#DejaVuSans-Oblique-947"/>
      <use transform="translate(78.662109 0.78125)" xlink:href="#DejaVuSans-61"/>
      <use transform="translate(181.933594 0.78125)" xlink:href="#DejaVuSans-48"/>
      <use transform="translate(245.556641 0.78125)" xlink:href="#DejaVuSans-46"/>
      <use transform="translate(277.34375 0.78125)" xlink:href="#DejaVuSans-49"/>
     </g>
    </g>
    <g id="line2d_36">
     <path d="M 446 140.36575 
L 466 140.36575 
" style="fill:none;stroke:#3b7d86;stroke-dasharray:5.55,2.4;stroke-dashoffset:0;stroke-width:1.5;"/>
    </g>
    <g id="line2d_37"/>
    <g id="text_20">
     <!-- $\gamma$ weak -->
     <g transform="translate(474 143.86575)scale(0.1 -0.1)">
      <defs>
       <path d="M 9.078125 75.984375 
L 18.109375 75.984375 
L 18.109375 31.109375 
L 44.921875 54.6875 
L 56.390625 54.6875 
L 27.390625 29.109375 
L 57.625 0 
L 45.90625 0 
L 18.109375 26.703125 
L 18.109375 0 
L 9.078125 0 
z
" id="DejaVuSans-107"/>
      </defs>
      <use transform="translate(0 0.015625)" xlink:href="#DejaVuSans-Oblique-947"/>
      <use transform="translate(59.179688 0.015625)" xlink:href="#DejaVuSans-32"/>
      <use transform="translate(90.966797 0.015625)" xlink:href="#DejaVuSans-119"/>
      <use transform="translate(172.753906 0.015625)" xlink:href="#DejaVuSans-101"/>
      <use transform="translate(234.277344 0.015625)" xlink:href="#DejaVuSans-97"/>
      <use transform="translate(295.556641 0.015625)" xlink:href="#DejaVuSans-107"/>
     </g>
    </g>
   </g>
  </g>
 </g>
 <defs>
  <clipPath id="p6c139fa3ee">
   <rect height="332.64" width="446.4" x="72" y="51.84"/>
  </clipPath>
 </defs>
</svg>
