<?xml version="1.0" encoding="utf-8" standalone="no"?>
<!DOCTYPE svg PUBLIC "-//W3C//DTD SVG 1.1//EN"
  "http://www.w3.org/Graphics/SVG/1.1/DTD/svg11.dtd">
<!-- Created with matplotlib (https://matplotlib.org/) -->
<svg height="432pt" version="1.1" viewBox="0 0 576 432" width="576pt" xmlns="http://www.w3.org/2000/svg" xmlns:xlink="http://www.w3.org/1999/xlink">
 <metadata>
  <rdf:RDF xmlns:cc="http://creativecommons.org/ns#" xmlns:dc="http://purl.org/dc/elements/1.1/" xmlns:rdf="http://www.w3.org/1999/02/22-rdf-syntax-ns#">
   <cc:Work>
    <dc:type rdf:resource="http://purl.org/dc/dcmitype/StillImage"/>
    <dc:date>2021-04-25T16:56:37.546419</dc:date>
    <dc:format>image/svg+xml</dc:format>
    <dc:creator>
     <cc:Agent>
      <dc:title>Matplotlib v3.3.3, https://matplotlib.org/</dc:title>
     </cc:Agent>
    </dc:creator>
   </cc:Work>
  </rdf:RDF>
 </metadata>
 <defs>
  <style type="text/css">*{stroke-linecap:butt;stroke-linejoin:round;}</style>
 </defs>
 <g id="figure_1">
  <g id="patch_1">
   <path d="M 0 432 
L 576 432 
L 576 0 
L 0 0 
z
" style="fill:#ffffff;"/>
  </g>
  <g id="axes_1">
   <g id="patch_2">
    <path d="M 72 384.48 
L 518.4 384.48 
L 518.4 51.84 
L 72 51.84 
z
" style="fill:#ffffff;"/>
   </g>
   <g id="matplotlib.axis_1">
    <g id="xtick_1">
     <g id="line2d_1">
      <defs>
       <path d="M 0 0 
L 0 3.5 
" id="m7cb18d0319" style="stroke:#000000;stroke-width:0.8;"/>
      </defs>
      <g>
       <use style="stroke:#000000;stroke-width:0.8;" x="92.290909" xlink:href="#m7cb18d0319" y="384.48"/>
      </g>
     </g>
     <g id="text_1">
      <!-- 1.0 -->
      <g transform="translate(84.339347 399.078438)scale(0.1 -0.1)">
       <defs>
        <path d="M 12.40625 8.296875 
L 28.515625 8.296875 
L 28.515625 63.921875 
L 10.984375 60.40625 
L 10.984375 69.390625 
L 28.421875 72.90625 
L 38.28125 72.90625 
L 38.28125 8.296875 
L 54.390625 8.296875 
L 54.390625 0 
L 12.40625 0 
z
" id="DejaVuSans-49"/>
        <path d="M 10.6875 12.40625 
L 21 12.40625 
L 21 0 
L 10.6875 0 
z
" id="DejaVuSans-46"/>
        <path d="M 31.78125 66.40625 
Q 24.171875 66.40625 20.328125 58.90625 
Q 16.5 51.421875 16.5 36.375 
Q 16.5 21.390625 20.328125 13.890625 
Q 24.171875 6.390625 31.78125 6.390625 
Q 39.453125 6.390625 43.28125 13.890625 
Q 47.125 21.390625 47.125 36.375 
Q 47.125 51.421875 43.28125 58.90625 
Q 39.453125 66.40625 31.78125 66.40625 
z
M 31.78125 74.21875 
Q 44.046875 74.21875 50.515625 64.515625 
Q 56.984375 54.828125 56.984375 36.375 
Q 56.984375 17.96875 50.515625 8.265625 
Q 44.046875 -1.421875 31.78125 -1.421875 
Q 19.53125 -1.421875 13.0625 8.265625 
Q 6.59375 17.96875 6.59375 36.375 
Q 6.59375 54.828125 13.0625 64.515625 
Q 19.53125 74.21875 31.78125 74.21875 
z
" id="DejaVuSans-48"/>
       </defs>
       <use xlink:href="#DejaVuSans-49"/>
       <use x="63.623047" xlink:href="#DejaVuSans-46"/>
       <use x="95.410156" xlink:href="#DejaVuSans-48"/>
      </g>
     </g>
    </g>
    <g id="xtick_2">
     <g id="line2d_2">
      <g>
       <use style="stroke:#000000;stroke-width:0.8;" x="173.454545" xlink:href="#m7cb18d0319" y="384.48"/>
      </g>
     </g>
     <g id="text_2">
      <!-- 1.2 -->
      <g transform="translate(165.502983 399.078438)scale(0.1 -0.1)">
       <defs>
        <path d="M 19.1875 8.296875 
L 53.609375 8.296875 
L 53.609375 0 
L 7.328125 0 
L 7.328125 8.296875 
Q 12.9375 14.109375 22.625 23.890625 
Q 32.328125 33.6875 34.8125 36.53125 
Q 39.546875 41.84375 41.421875 45.53125 
Q 43.3125 49.21875 43.3125 52.78125 
Q 43.3125 58.59375 39.234375 62.25 
Q 35.15625 65.921875 28.609375 65.921875 
Q 23.96875 65.921875 18.8125 64.3125 
Q 13.671875 62.703125 7.8125 59.421875 
L 7.8125 69.390625 
Q 13.765625 71.78125 18.9375 73 
Q 24.125 74.21875 28.421875 74.21875 
Q 39.75 74.21875 46.484375 68.546875 
Q 53.21875 62.890625 53.21875 53.421875 
Q 53.21875 48.921875 51.53125 44.890625 
Q 49.859375 40.875 45.40625 35.40625 
Q 44.1875 33.984375 37.640625 27.21875 
Q 31.109375 20.453125 19.1875 8.296875 
z
" id="DejaVuSans-50"/>
       </defs>
       <use xlink:href="#DejaVuSans-49"/>
       <use x="63.623047" xlink:href="#DejaVuSans-46"/>
       <use x="95.410156" xlink:href="#DejaVuSans-50"/>
      </g>
     </g>
    </g>
    <g id="xtick_3">
     <g id="line2d_3">
      <g>
       <use style="stroke:#000000;stroke-width:0.8;" x="254.618182" xlink:href="#m7cb18d0319" y="384.48"/>
      </g>
     </g>
     <g id="text_3">
      <!-- 1.4 -->
      <g transform="translate(246.666619 399.078438)scale(0.1 -0.1)">
       <defs>
        <path d="M 37.796875 64.3125 
L 12.890625 25.390625 
L 37.796875 25.390625 
z
M 35.203125 72.90625 
L 47.609375 72.90625 
L 47.609375 25.390625 
L 58.015625 25.390625 
L 58.015625 17.1875 
L 47.609375 17.1875 
L 47.609375 0 
L 37.796875 0 
L 37.796875 17.1875 
L 4.890625 17.1875 
L 4.890625 26.703125 
z
" id="DejaVuSans-52"/>
       </defs>
       <use xlink:href="#DejaVuSans-49"/>
       <use x="63.623047" xlink:href="#DejaVuSans-46"/>
       <use x="95.410156" xlink:href="#DejaVuSans-52"/>
      </g>
     </g>
    </g>
    <g id="xtick_4">
     <g id="line2d_4">
      <g>
       <use style="stroke:#000000;stroke-width:0.8;" x="335.781818" xlink:href="#m7cb18d0319" y="384.48"/>
      </g>
     </g>
     <g id="text_4">
      <!-- 1.6 -->
      <g transform="translate(327.830256 399.078438)scale(0.1 -0.1)">
       <defs>
        <path d="M 33.015625 40.375 
Q 26.375 40.375 22.484375 35.828125 
Q 18.609375 31.296875 18.609375 23.390625 
Q 18.609375 15.53125 22.484375 10.953125 
Q 26.375 6.390625 33.015625 6.390625 
Q 39.65625 6.390625 43.53125 10.953125 
Q 47.40625 15.53125 47.40625 23.390625 
Q 47.40625 31.296875 43.53125 35.828125 
Q 39.65625 40.375 33.015625 40.375 
z
M 52.59375 71.296875 
L 52.59375 62.3125 
Q 48.875 64.0625 45.09375 64.984375 
Q 41.3125 65.921875 37.59375 65.921875 
Q 27.828125 65.921875 22.671875 59.328125 
Q 17.53125 52.734375 16.796875 39.40625 
Q 19.671875 43.65625 24.015625 45.921875 
Q 28.375 48.1875 33.59375 48.1875 
Q 44.578125 48.1875 50.953125 41.515625 
Q 57.328125 34.859375 57.328125 23.390625 
Q 57.328125 12.15625 50.6875 5.359375 
Q 44.046875 -1.421875 33.015625 -1.421875 
Q 20.359375 -1.421875 13.671875 8.265625 
Q 6.984375 17.96875 6.984375 36.375 
Q 6.984375 53.65625 15.1875 63.9375 
Q 23.390625 74.21875 37.203125 74.21875 
Q 40.921875 74.21875 44.703125 73.484375 
Q 48.484375 72.75 52.59375 71.296875 
z
" id="DejaVuSans-54"/>
       </defs>
       <use xlink:href="#DejaVuSans-49"/>
       <use x="63.623047" xlink:href="#DejaVuSans-46"/>
       <use x="95.410156" xlink:href="#DejaVuSans-54"/>
      </g>
     </g>
    </g>
    <g id="xtick_5">
     <g id="line2d_5">
      <g>
       <use style="stroke:#000000;stroke-width:0.8;" x="416.945455" xlink:href="#m7cb18d0319" y="384.48"/>
      </g>
     </g>
     <g id="text_5">
      <!-- 1.8 -->
      <g transform="translate(408.993892 399.078438)scale(0.1 -0.1)">
       <defs>
        <path d="M 31.78125 34.625 
Q 24.75 34.625 20.71875 30.859375 
Q 16.703125 27.09375 16.703125 20.515625 
Q 16.703125 13.921875 20.71875 10.15625 
Q 24.75 6.390625 31.78125 6.390625 
Q 38.8125 6.390625 42.859375 10.171875 
Q 46.921875 13.96875 46.921875 20.515625 
Q 46.921875 27.09375 42.890625 30.859375 
Q 38.875 34.625 31.78125 34.625 
z
M 21.921875 38.8125 
Q 15.578125 40.375 12.03125 44.71875 
Q 8.5 49.078125 8.5 55.328125 
Q 8.5 64.0625 14.71875 69.140625 
Q 20.953125 74.21875 31.78125 74.21875 
Q 42.671875 74.21875 48.875 69.140625 
Q 55.078125 64.0625 55.078125 55.328125 
Q 55.078125 49.078125 51.53125 44.71875 
Q 48 40.375 41.703125 38.8125 
Q 48.828125 37.15625 52.796875 32.3125 
Q 56.78125 27.484375 56.78125 20.515625 
Q 56.78125 9.90625 50.3125 4.234375 
Q 43.84375 -1.421875 31.78125 -1.421875 
Q 19.734375 -1.421875 13.25 4.234375 
Q 6.78125 9.90625 6.78125 20.515625 
Q 6.78125 27.484375 10.78125 32.3125 
Q 14.796875 37.15625 21.921875 38.8125 
z
M 18.3125 54.390625 
Q 18.3125 48.734375 21.84375 45.5625 
Q 25.390625 42.390625 31.78125 42.390625 
Q 38.140625 42.390625 41.71875 45.5625 
Q 45.3125 48.734375 45.3125 54.390625 
Q 45.3125 60.0625 41.71875 63.234375 
Q 38.140625 66.40625 31.78125 66.40625 
Q 25.390625 66.40625 21.84375 63.234375 
Q 18.3125 60.0625 18.3125 54.390625 
z
" id="DejaVuSans-56"/>
       </defs>
       <use xlink:href="#DejaVuSans-49"/>
       <use x="63.623047" xlink:href="#DejaVuSans-46"/>
       <use x="95.410156" xlink:href="#DejaVuSans-56"/>
      </g>
     </g>
    </g>
    <g id="xtick_6">
     <g id="line2d_6">
      <g>
       <use style="stroke:#000000;stroke-width:0.8;" x="498.109091" xlink:href="#m7cb18d0319" y="384.48"/>
      </g>
     </g>
     <g id="text_6">
      <!-- 2.0 -->
      <g transform="translate(490.157528 399.078438)scale(0.1 -0.1)">
       <use xlink:href="#DejaVuSans-50"/>
       <use x="63.623047" xlink:href="#DejaVuSans-46"/>
       <use x="95.410156" xlink:href="#DejaVuSans-48"/>
      </g>
     </g>
    </g>
    <g id="text_7">
     <!-- Current $I$ -->
     <g transform="translate(268.74 414.27625)scale(0.12 -0.12)">
      <defs>
       <path d="M 64.40625 67.28125 
L 64.40625 56.890625 
Q 59.421875 61.53125 53.78125 63.8125 
Q 48.140625 66.109375 41.796875 66.109375 
Q 29.296875 66.109375 22.65625 58.46875 
Q 16.015625 50.828125 16.015625 36.375 
Q 16.015625 21.96875 22.65625 14.328125 
Q 29.296875 6.6875 41.796875 6.6875 
Q 48.140625 6.6875 53.78125 8.984375 
Q 59.421875 11.28125 64.40625 15.921875 
L 64.40625 5.609375 
Q 59.234375 2.09375 53.4375 0.328125 
Q 47.65625 -1.421875 41.21875 -1.421875 
Q 24.65625 -1.421875 15.125 8.703125 
Q 5.609375 18.84375 5.609375 36.375 
Q 5.609375 53.953125 15.125 64.078125 
Q 24.65625 74.21875 41.21875 74.21875 
Q 47.75 74.21875 53.53125 72.484375 
Q 59.328125 70.75 64.40625 67.28125 
z
" id="DejaVuSans-67"/>
       <path d="M 8.5 21.578125 
L 8.5 54.6875 
L 17.484375 54.6875 
L 17.484375 21.921875 
Q 17.484375 14.15625 20.5 10.265625 
Q 23.53125 6.390625 29.59375 6.390625 
Q 36.859375 6.390625 41.078125 11.03125 
Q 45.3125 15.671875 45.3125 23.6875 
L 45.3125 54.6875 
L 54.296875 54.6875 
L 54.296875 0 
L 45.3125 0 
L 45.3125 8.40625 
Q 42.046875 3.421875 37.71875 1 
Q 33.40625 -1.421875 27.6875 -1.421875 
Q 18.265625 -1.421875 13.375 4.4375 
Q 8.5 10.296875 8.5 21.578125 
z
M 31.109375 56 
z
" id="DejaVuSans-117"/>
       <path d="M 41.109375 46.296875 
Q 39.59375 47.171875 37.8125 47.578125 
Q 36.03125 48 33.890625 48 
Q 26.265625 48 22.1875 43.046875 
Q 18.109375 38.09375 18.109375 28.8125 
L 18.109375 0 
L 9.078125 0 
L 9.078125 54.6875 
L 18.109375 54.6875 
L 18.109375 46.1875 
Q 20.953125 51.171875 25.484375 53.578125 
Q 30.03125 56 36.53125 56 
Q 37.453125 56 38.578125 55.875 
Q 39.703125 55.765625 41.0625 55.515625 
z
" id="DejaVuSans-114"/>
       <path d="M 56.203125 29.59375 
L 56.203125 25.203125 
L 14.890625 25.203125 
Q 15.484375 15.921875 20.484375 11.0625 
Q 25.484375 6.203125 34.421875 6.203125 
Q 39.59375 6.203125 44.453125 7.46875 
Q 49.3125 8.734375 54.109375 11.28125 
L 54.109375 2.78125 
Q 49.265625 0.734375 44.1875 -0.34375 
Q 39.109375 -1.421875 33.890625 -1.421875 
Q 20.796875 -1.421875 13.15625 6.1875 
Q 5.515625 13.8125 5.515625 26.8125 
Q 5.515625 40.234375 12.765625 48.109375 
Q 20.015625 56 32.328125 56 
Q 43.359375 56 49.78125 48.890625 
Q 56.203125 41.796875 56.203125 29.59375 
z
M 47.21875 32.234375 
Q 47.125 39.59375 43.09375 43.984375 
Q 39.0625 48.390625 32.421875 48.390625 
Q 24.90625 48.390625 20.390625 44.140625 
Q 15.875 39.890625 15.1875 32.171875 
z
" id="DejaVuSans-101"/>
       <path d="M 54.890625 33.015625 
L 54.890625 0 
L 45.90625 0 
L 45.90625 32.71875 
Q 45.90625 40.484375 42.875 44.328125 
Q 39.84375 48.1875 33.796875 48.1875 
Q 26.515625 48.1875 22.3125 43.546875 
Q 18.109375 38.921875 18.109375 30.90625 
L 18.109375 0 
L 9.078125 0 
L 9.078125 54.6875 
L 18.109375 54.6875 
L 18.109375 46.1875 
Q 21.34375 51.125 25.703125 53.5625 
Q 30.078125 56 35.796875 56 
Q 45.21875 56 50.046875 50.171875 
Q 54.890625 44.34375 54.890625 33.015625 
z
" id="DejaVuSans-110"/>
       <path d="M 18.3125 70.21875 
L 18.3125 54.6875 
L 36.8125 54.6875 
L 36.8125 47.703125 
L 18.3125 47.703125 
L 18.3125 18.015625 
Q 18.3125 11.328125 20.140625 9.421875 
Q 21.96875 7.515625 27.59375 7.515625 
L 36.8125 7.515625 
L 36.8125 0 
L 27.59375 0 
Q 17.1875 0 13.234375 3.875 
Q 9.28125 7.765625 9.28125 18.015625 
L 9.28125 47.703125 
L 2.6875 47.703125 
L 2.6875 54.6875 
L 9.28125 54.6875 
L 9.28125 70.21875 
z
" id="DejaVuSans-116"/>
       <path id="DejaVuSans-32"/>
       <path d="M 16.890625 72.90625 
L 26.8125 72.90625 
L 12.59375 0 
L 2.6875 0 
z
" id="DejaVuSans-Oblique-73"/>
      </defs>
      <use transform="translate(0 0.78125)" xlink:href="#DejaVuSans-67"/>
      <use transform="translate(69.824219 0.78125)" xlink:href="#DejaVuSans-117"/>
      <use transform="translate(133.203125 0.78125)" xlink:href="#DejaVuSans-114"/>
      <use transform="translate(174.316406 0.78125)" xlink:href="#DejaVuSans-114"/>
      <use transform="translate(215.429688 0.78125)" xlink:href="#DejaVuSans-101"/>
      <use transform="translate(276.953125 0.78125)" xlink:href="#DejaVuSans-110"/>
      <use transform="translate(340.332031 0.78125)" xlink:href="#DejaVuSans-116"/>
      <use transform="translate(379.541016 0.78125)" xlink:href="#DejaVuSans-32"/>
      <use transform="translate(411.328125 0.78125)" xlink:href="#DejaVuSans-Oblique-73"/>
     </g>
    </g>
   </g>
   <g id="matplotlib.axis_2">
    <g id="ytick_1">
     <g id="line2d_7">
      <defs>
       <path d="M 0 0 
L -3.5 0 
" id="m6862c6cb81" style="stroke:#000000;stroke-width:0.8;"/>
      </defs>
      <g>
       <use style="stroke:#000000;stroke-width:0.8;" x="72" xlink:href="#m6862c6cb81" y="369.36"/>
      </g>
     </g>
     <g id="text_8">
      <!-- 0.0 -->
      <g transform="translate(49.096875 373.159219)scale(0.1 -0.1)">
       <use xlink:href="#DejaVuSans-48"/>
       <use x="63.623047" xlink:href="#DejaVuSans-46"/>
       <use x="95.410156" xlink:href="#DejaVuSans-48"/>
      </g>
     </g>
    </g>
    <g id="ytick_2">
     <g id="line2d_8">
      <g>
       <use style="stroke:#000000;stroke-width:0.8;" x="72" xlink:href="#m6862c6cb81" y="308.88"/>
      </g>
     </g>
     <g id="text_9">
      <!-- 0.2 -->
      <g transform="translate(49.096875 312.679219)scale(0.1 -0.1)">
       <use xlink:href="#DejaVuSans-48"/>
       <use x="63.623047" xlink:href="#DejaVuSans-46"/>
       <use x="95.410156" xlink:href="#DejaVuSans-50"/>
      </g>
     </g>
    </g>
    <g id="ytick_3">
     <g id="line2d_9">
      <g>
       <use style="stroke:#000000;stroke-width:0.8;" x="72" xlink:href="#m6862c6cb81" y="248.4"/>
      </g>
     </g>
     <g id="text_10">
      <!-- 0.4 -->
      <g transform="translate(49.096875 252.199219)scale(0.1 -0.1)">
       <use xlink:href="#DejaVuSans-48"/>
       <use x="63.623047" xlink:href="#DejaVuSans-46"/>
       <use x="95.410156" xlink:href="#DejaVuSans-52"/>
      </g>
     </g>
    </g>
    <g id="ytick_4">
     <g id="line2d_10">
      <g>
       <use style="stroke:#000000;stroke-width:0.8;" x="72" xlink:href="#m6862c6cb81" y="187.92"/>
      </g>
     </g>
     <g id="text_11">
      <!-- 0.6 -->
      <g transform="translate(49.096875 191.719219)scale(0.1 -0.1)">
       <use xlink:href="#DejaVuSans-48"/>
       <use x="63.623047" xlink:href="#DejaVuSans-46"/>
       <use x="95.410156" xlink:href="#DejaVuSans-54"/>
      </g>
     </g>
    </g>
    <g id="ytick_5">
     <g id="line2d_11">
      <g>
       <use style="stroke:#000000;stroke-width:0.8;" x="72" xlink:href="#m6862c6cb81" y="127.44"/>
      </g>
     </g>
     <g id="text_12">
      <!-- 0.8 -->
      <g transform="translate(49.096875 131.239219)scale(0.1 -0.1)">
       <use xlink:href="#DejaVuSans-48"/>
       <use x="63.623047" xlink:href="#DejaVuSans-46"/>
       <use x="95.410156" xlink:href="#DejaVuSans-56"/>
      </g>
     </g>
    </g>
    <g id="ytick_6">
     <g id="line2d_12">
      <g>
       <use style="stroke:#000000;stroke-width:0.8;" x="72" xlink:href="#m6862c6cb81" y="66.96"/>
      </g>
     </g>
     <g id="text_13">
      <!-- 1.0 -->
      <g transform="translate(49.096875 70.759219)scale(0.1 -0.1)">
       <use xlink:href="#DejaVuSans-49"/>
       <use x="63.623047" xlink:href="#DejaVuSans-46"/>
       <use x="95.410156" xlink:href="#DejaVuSans-48"/>
      </g>
     </g>
    </g>
    <g id="text_14">
     <!-- Phase Difference $\phi$ -->
     <g transform="translate(42.576875 275.04)rotate(-90)scale(0.12 -0.12)">
      <defs>
       <path d="M 19.671875 64.796875 
L 19.671875 37.40625 
L 32.078125 37.40625 
Q 38.96875 37.40625 42.71875 40.96875 
Q 46.484375 44.53125 46.484375 51.125 
Q 46.484375 57.671875 42.71875 61.234375 
Q 38.96875 64.796875 32.078125 64.796875 
z
M 9.8125 72.90625 
L 32.078125 72.90625 
Q 44.34375 72.90625 50.609375 67.359375 
Q 56.890625 61.8125 56.890625 51.125 
Q 56.890625 40.328125 50.609375 34.8125 
Q 44.34375 29.296875 32.078125 29.296875 
L 19.671875 29.296875 
L 19.671875 0 
L 9.8125 0 
z
" id="DejaVuSans-80"/>
       <path d="M 54.890625 33.015625 
L 54.890625 0 
L 45.90625 0 
L 45.90625 32.71875 
Q 45.90625 40.484375 42.875 44.328125 
Q 39.84375 48.1875 33.796875 48.1875 
Q 26.515625 48.1875 22.3125 43.546875 
Q 18.109375 38.921875 18.109375 30.90625 
L 18.109375 0 
L 9.078125 0 
L 9.078125 75.984375 
L 18.109375 75.984375 
L 18.109375 46.1875 
Q 21.34375 51.125 25.703125 53.5625 
Q 30.078125 56 35.796875 56 
Q 45.21875 56 50.046875 50.171875 
Q 54.890625 44.34375 54.890625 33.015625 
z
" id="DejaVuSans-104"/>
       <path d="M 34.28125 27.484375 
Q 23.390625 27.484375 19.1875 25 
Q 14.984375 22.515625 14.984375 16.5 
Q 14.984375 11.71875 18.140625 8.90625 
Q 21.296875 6.109375 26.703125 6.109375 
Q 34.1875 6.109375 38.703125 11.40625 
Q 43.21875 16.703125 43.21875 25.484375 
L 43.21875 27.484375 
z
M 52.203125 31.203125 
L 52.203125 0 
L 43.21875 0 
L 43.21875 8.296875 
Q 40.140625 3.328125 35.546875 0.953125 
Q 30.953125 -1.421875 24.3125 -1.421875 
Q 15.921875 -1.421875 10.953125 3.296875 
Q 6 8.015625 6 15.921875 
Q 6 25.140625 12.171875 29.828125 
Q 18.359375 34.515625 30.609375 34.515625 
L 43.21875 34.515625 
L 43.21875 35.40625 
Q 43.21875 41.609375 39.140625 45 
Q 35.0625 48.390625 27.6875 48.390625 
Q 23 48.390625 18.546875 47.265625 
Q 14.109375 46.140625 10.015625 43.890625 
L 10.015625 52.203125 
Q 14.9375 54.109375 19.578125 55.046875 
Q 24.21875 56 28.609375 56 
Q 40.484375 56 46.34375 49.84375 
Q 52.203125 43.703125 52.203125 31.203125 
z
" id="DejaVuSans-97"/>
       <path d="M 44.28125 53.078125 
L 44.28125 44.578125 
Q 40.484375 46.53125 36.375 47.5 
Q 32.28125 48.484375 27.875 48.484375 
Q 21.1875 48.484375 17.84375 46.4375 
Q 14.5 44.390625 14.5 40.28125 
Q 14.5 37.15625 16.890625 35.375 
Q 19.28125 33.59375 26.515625 31.984375 
L 29.59375 31.296875 
Q 39.15625 29.25 43.1875 25.515625 
Q 47.21875 21.78125 47.21875 15.09375 
Q 47.21875 7.46875 41.1875 3.015625 
Q 35.15625 -1.421875 24.609375 -1.421875 
Q 20.21875 -1.421875 15.453125 -0.5625 
Q 10.6875 0.296875 5.421875 2 
L 5.421875 11.28125 
Q 10.40625 8.6875 15.234375 7.390625 
Q 20.0625 6.109375 24.8125 6.109375 
Q 31.15625 6.109375 34.5625 8.28125 
Q 37.984375 10.453125 37.984375 14.40625 
Q 37.984375 18.0625 35.515625 20.015625 
Q 33.0625 21.96875 24.703125 23.78125 
L 21.578125 24.515625 
Q 13.234375 26.265625 9.515625 29.90625 
Q 5.8125 33.546875 5.8125 39.890625 
Q 5.8125 47.609375 11.28125 51.796875 
Q 16.75 56 26.8125 56 
Q 31.78125 56 36.171875 55.265625 
Q 40.578125 54.546875 44.28125 53.078125 
z
" id="DejaVuSans-115"/>
       <path d="M 19.671875 64.796875 
L 19.671875 8.109375 
L 31.59375 8.109375 
Q 46.6875 8.109375 53.6875 14.9375 
Q 60.6875 21.78125 60.6875 36.53125 
Q 60.6875 51.171875 53.6875 57.984375 
Q 46.6875 64.796875 31.59375 64.796875 
z
M 9.8125 72.90625 
L 30.078125 72.90625 
Q 51.265625 72.90625 61.171875 64.09375 
Q 71.09375 55.28125 71.09375 36.53125 
Q 71.09375 17.671875 61.125 8.828125 
Q 51.171875 0 30.078125 0 
L 9.8125 0 
z
" id="DejaVuSans-68"/>
       <path d="M 9.421875 54.6875 
L 18.40625 54.6875 
L 18.40625 0 
L 9.421875 0 
z
M 9.421875 75.984375 
L 18.40625 75.984375 
L 18.40625 64.59375 
L 9.421875 64.59375 
z
" id="DejaVuSans-105"/>
       <path d="M 37.109375 75.984375 
L 37.109375 68.5 
L 28.515625 68.5 
Q 23.6875 68.5 21.796875 66.546875 
Q 19.921875 64.59375 19.921875 59.515625 
L 19.921875 54.6875 
L 34.71875 54.6875 
L 34.71875 47.703125 
L 19.921875 47.703125 
L 19.921875 0 
L 10.890625 0 
L 10.890625 47.703125 
L 2.296875 47.703125 
L 2.296875 54.6875 
L 10.890625 54.6875 
L 10.890625 58.5 
Q 10.890625 67.625 15.140625 71.796875 
Q 19.390625 75.984375 28.609375 75.984375 
z
" id="DejaVuSans-102"/>
       <path d="M 48.78125 52.59375 
L 48.78125 44.1875 
Q 44.96875 46.296875 41.140625 47.34375 
Q 37.3125 48.390625 33.40625 48.390625 
Q 24.65625 48.390625 19.8125 42.84375 
Q 14.984375 37.3125 14.984375 27.296875 
Q 14.984375 17.28125 19.8125 11.734375 
Q 24.65625 6.203125 33.40625 6.203125 
Q 37.3125 6.203125 41.140625 7.25 
Q 44.96875 8.296875 48.78125 10.40625 
L 48.78125 2.09375 
Q 45.015625 0.34375 40.984375 -0.53125 
Q 36.96875 -1.421875 32.421875 -1.421875 
Q 20.0625 -1.421875 12.78125 6.34375 
Q 5.515625 14.109375 5.515625 27.296875 
Q 5.515625 40.671875 12.859375 48.328125 
Q 20.21875 56 33.015625 56 
Q 37.15625 56 41.109375 55.140625 
Q 45.0625 54.296875 48.78125 52.59375 
z
" id="DejaVuSans-99"/>
       <path d="M 46.734375 75.984375 
L 42.78125 55.8125 
Q 52.546875 55.8125 57.5625 48.34375 
Q 62.75 40.71875 60.15625 27.296875 
Q 57.515625 13.875 49.359375 6.25 
Q 41.453125 -1.21875 31.6875 -1.21875 
L 27.875 -20.796875 
L 18.953125 -20.796875 
L 22.75 -1.21875 
Q 13.03125 -1.21875 7.953125 6.25 
Q 2.78125 13.875 5.421875 27.296875 
Q 8.015625 40.71875 16.15625 48.34375 
Q 24.125 55.8125 33.84375 55.8125 
L 37.796875 75.984375 
z
M 33.25 6.78125 
Q 38.765625 6.78125 43.5 11.8125 
Q 48.6875 17.4375 50.6875 27.296875 
Q 52.640625 37.0625 49.515625 42.78125 
Q 46.734375 47.796875 41.21875 47.796875 
z
M 24.3125 6.78125 
L 32.28125 47.796875 
Q 26.8125 47.796875 22.078125 42.78125 
Q 16.75 37.0625 14.890625 27.296875 
Q 13.03125 17.4375 16.0625 11.8125 
Q 18.796875 6.78125 24.3125 6.78125 
z
" id="DejaVuSans-Oblique-981"/>
      </defs>
      <use transform="translate(0 0.015625)" xlink:href="#DejaVuSans-80"/>
      <use transform="translate(60.302734 0.015625)" xlink:href="#DejaVuSans-104"/>
      <use transform="translate(123.681641 0.015625)" xlink:href="#DejaVuSans-97"/>
      <use transform="translate(184.960938 0.015625)" xlink:href="#DejaVuSans-115"/>
      <use transform="translate(237.060547 0.015625)" xlink:href="#DejaVuSans-101"/>
      <use transform="translate(298.583984 0.015625)" xlink:href="#DejaVuSans-32"/>
      <use transform="translate(330.371094 0.015625)" xlink:href="#DejaVuSans-68"/>
      <use transform="translate(407.373047 0.015625)" xlink:href="#DejaVuSans-105"/>
      <use transform="translate(435.15625 0.015625)" xlink:href="#DejaVuSans-102"/>
      <use transform="translate(470.361328 0.015625)" xlink:href="#DejaVuSans-102"/>
      <use transform="translate(505.566406 0.015625)" xlink:href="#DejaVuSans-101"/>
      <use transform="translate(567.089844 0.015625)" xlink:href="#DejaVuSans-114"/>
      <use transform="translate(608.203125 0.015625)" xlink:href="#DejaVuSans-101"/>
      <use transform="translate(669.726562 0.015625)" xlink:href="#DejaVuSans-110"/>
      <use transform="translate(733.105469 0.015625)" xlink:href="#DejaVuSans-99"/>
      <use transform="translate(788.085938 0.015625)" xlink:href="#DejaVuSans-101"/>
      <use transform="translate(849.609375 0.015625)" xlink:href="#DejaVuSans-32"/>
      <use transform="translate(881.396484 0.015625)" xlink:href="#DejaVuSans-Oblique-981"/>
     </g>
    </g>
   </g>
   <g id="line2d_13">
    <path clip-path="url(#pa21481232b)" d="M 353.514125 218.16 
L 353.514125 216.801559 
L 353.13854 211.02336 
L 352.387411 206.05638 
L 351.636282 202.718186 
L 350.509569 198.932501 
L 349.382855 195.955887 
L 348.256142 193.494714 
L 346.753843 190.777982 
L 344.500416 187.003849 
L 342.998118 184.231899 
L 341.495819 181.863412 
L 339.617977 179.361233 
L 337.740134 177.279935 
L 336.988965 176.427772 
L 335.111122 173.828069 
L 333.23328 171.608 
L 331.355397 169.717455 
L 328.726426 167.190722 
L 326.848543 165.155026 
L 324.9707 163.395572 
L 322.717273 161.613408 
L 321.966144 161.004344 
L 319.712717 158.827245 
L 317.45929 156.985811 
L 313.703564 154.11047 
L 311.450137 152.333447 
L 309.19671 150.83814 
L 308.069996 150.087069 
L 305.816569 148.338259 
L 303.563142 146.853929 
L 300.93413 145.169712 
L 298.680703 143.632189 
L 296.427275 142.333865 
L 295.300562 141.667043 
L 292.67155 139.951407 
L 290.042578 138.541709 
L 288.915865 137.84262 
L 286.286853 136.280271 
L 273.517419 129.615677 
L 272.390705 129.023487 
L 269.761693 127.688875 
L 265.630423 125.704496 
L 258.870142 122.656516 
L 257.367843 121.963203 
L 254.738872 120.808882 
L 252.485445 119.826052 
L 249.856433 118.740406 
L 248.354135 118.090911 
L 245.725163 117.019175 
L 243.84728 116.23608 
L 238.964841 114.287475 
L 227.322161 109.90074 
L 208.543574 103.442534 
L 201.783292 101.278257 
L 176.995593 93.988845 
L 171.362025 92.451594 
L 160.470433 89.591344 
L 149.954467 86.957772 
L 127.420154 81.63015 
L 122.9133 80.592222 
L 122.9133 80.592222 
" style="fill:none;stroke:#aa3863;stroke-dasharray:5.55,2.4;stroke-dashoffset:0;stroke-width:1.5;"/>
   </g>
   <g id="line2d_14">
    <path clip-path="url(#pa21481232b)" d="M 353.514125 218.16 
L 353.514125 219.518441 
L 353.13854 225.29664 
L 352.387411 230.26362 
L 351.636282 233.601814 
L 350.509569 237.387499 
L 349.382855 240.364113 
L 348.256142 242.825286 
L 346.753843 245.542018 
L 344.500416 249.316151 
L 342.998118 252.088101 
L 341.495819 254.456588 
L 339.617977 256.958767 
L 337.740134 259.040065 
L 336.988965 259.892228 
L 335.111122 262.491931 
L 333.23328 264.712 
L 331.355397 266.602545 
L 328.726426 269.129278 
L 326.848543 271.164974 
L 324.9707 272.924428 
L 322.717273 274.706592 
L 321.966144 275.315656 
L 319.712717 277.492755 
L 317.45929 279.334189 
L 313.703564 282.20953 
L 311.450137 283.986553 
L 309.19671 285.48186 
L 308.069996 286.232931 
L 305.816569 287.981741 
L 303.563142 289.466071 
L 300.93413 291.150288 
L 298.680703 292.687811 
L 296.427275 293.986135 
L 295.300562 294.652957 
L 292.67155 296.368593 
L 290.042578 297.778291 
L 288.915865 298.47738 
L 286.286853 300.039729 
L 273.517419 306.704323 
L 272.390705 307.296513 
L 269.761693 308.631125 
L 265.630423 310.615504 
L 258.870142 313.663484 
L 257.367843 314.356797 
L 254.738872 315.511118 
L 252.485445 316.493948 
L 249.856433 317.579594 
L 248.354135 318.229089 
L 245.725163 319.300825 
L 243.84728 320.08392 
L 238.964841 322.032525 
L 227.322161 326.41926 
L 208.543574 332.877466 
L 201.783292 335.041743 
L 176.995593 342.331155 
L 171.362025 343.868406 
L 160.470433 346.728656 
L 149.954467 349.362228 
L 127.420154 354.68985 
L 122.9133 355.727778 
L 122.9133 355.727778 
" style="fill:none;stroke:#aa3863;stroke-dasharray:5.55,2.4;stroke-dashoffset:0;stroke-width:1.5;"/>
   </g>
   <g id="line2d_15">
    <path clip-path="url(#pa21481232b)" d="M 340.70768 218.16 
L 340.70768 215.173044 
L 340.320002 211.269514 
L 339.544646 207.18415 
L 338.769249 204.45121 
L 337.606174 200.870401 
L 336.443139 196.737924 
L 335.280065 193.533088 
L 334.11699 190.924646 
L 332.953955 188.75668 
L 331.403202 186.395088 
L 330.240127 184.952579 
L 328.689374 181.954253 
L 327.138621 179.445784 
L 325.587868 177.360343 
L 324.037115 175.636149 
L 322.87404 174.553648 
L 320.935609 171.757536 
L 319.384856 169.884441 
L 317.834103 168.302163 
L 316.28335 166.985302 
L 315.895672 166.694998 
L 312.794166 163.170374 
L 310.855694 161.44361 
L 308.529585 159.564436 
L 306.591154 157.618401 
L 304.652682 156.01045 
L 301.551176 153.631953 
L 299.612745 151.965215 
L 297.674314 150.595705 
L 295.735883 149.266839 
L 293.797411 147.686617 
L 291.85898 146.382366 
L 289.920549 145.184318 
L 287.982118 143.702528 
L 286.043687 142.478322 
L 284.105215 141.338032 
L 282.166784 139.96562 
L 280.228353 138.834825 
L 278.6776 137.981694 
L 276.739169 136.680588 
L 274.800697 135.609366 
L 273.249944 134.777585 
L 271.311513 133.560667 
L 269.373082 132.563714 
L 268.210007 131.965597 
L 265.883897 130.594546 
L 255.028626 125.111429 
L 253.865551 124.570617 
L 251.539402 123.38034 
L 244.948711 120.368164 
L 242.622602 119.290471 
L 240.296452 118.26473 
L 237.970343 117.284138 
L 236.807268 116.77659 
L 234.481159 115.774497 
L 232.542687 114.957351 
L 230.216578 114.031644 
L 229.053503 113.532291 
L 226.727394 112.609971 
L 225.564319 112.135566 
L 223.238169 111.228094 
L 221.687416 110.600614 
L 217.035157 108.828369 
L 212.770617 107.275756 
L 210.444467 106.409501 
L 208.506036 105.695414 
L 196.48769 101.563239 
L 192.998506 100.419713 
L 189.121643 99.156588 
L 183.693987 97.459429 
L 179.817125 96.261955 
L 171.287963 93.723519 
L 166.248026 92.275083 
L 156.55583 89.58327 
L 148.802065 87.505842 
L 110.808636 77.980121 
L 110.808636 77.980121 
" style="fill:none;stroke:#d97020;stroke-dasharray:5.55,2.4;stroke-dashoffset:0;stroke-width:1.5;"/>
   </g>
   <g id="line2d_16">
    <path clip-path="url(#pa21481232b)" d="M 340.70768 218.16 
L 340.70768 221.146956 
L 340.320002 225.050486 
L 339.544646 229.13585 
L 338.769249 231.86879 
L 337.606174 235.449599 
L 336.443139 239.582076 
L 335.280065 242.786912 
L 334.11699 245.395354 
L 332.953955 247.56332 
L 331.403202 249.924912 
L 330.240127 251.367421 
L 328.689374 254.365747 
L 327.138621 256.874216 
L 325.587868 258.959657 
L 324.037115 260.683851 
L 322.87404 261.766352 
L 320.935609 264.562464 
L 319.384856 266.435559 
L 317.834103 268.017837 
L 316.28335 269.334698 
L 315.895672 269.625002 
L 312.794166 273.149626 
L 310.855694 274.87639 
L 308.529585 276.755564 
L 306.591154 278.701599 
L 304.652682 280.30955 
L 301.551176 282.688047 
L 299.612745 284.354785 
L 297.674314 285.724295 
L 295.735883 287.053161 
L 293.797411 288.633383 
L 291.85898 289.937634 
L 289.920549 291.135682 
L 287.982118 292.617472 
L 286.043687 293.841678 
L 284.105215 294.981968 
L 282.166784 296.35438 
L 280.228353 297.485175 
L 278.6776 298.338306 
L 276.739169 299.639412 
L 274.800697 300.710634 
L 273.249944 301.542415 
L 271.311513 302.759333 
L 269.373082 303.756286 
L 268.210007 304.354403 
L 265.883897 305.725454 
L 255.028626 311.208571 
L 253.865551 311.749383 
L 251.539402 312.93966 
L 244.948711 315.951836 
L 242.622602 317.029529 
L 240.296452 318.05527 
L 237.970343 319.035862 
L 236.807268 319.54341 
L 234.481159 320.545503 
L 232.542687 321.362649 
L 230.216578 322.288356 
L 229.053503 322.787709 
L 226.727394 323.710029 
L 225.564319 324.184434 
L 223.238169 325.091906 
L 221.687416 325.719386 
L 217.035157 327.491631 
L 212.770617 329.044244 
L 210.444467 329.910499 
L 208.506036 330.624586 
L 196.48769 334.756761 
L 192.998506 335.900287 
L 189.121643 337.163412 
L 183.693987 338.860571 
L 179.817125 340.058045 
L 171.287963 342.596481 
L 166.248026 344.044917 
L 156.55583 346.73673 
L 148.802065 348.814158 
L 110.808636 358.339879 
L 110.808636 358.339879 
" style="fill:none;stroke:#d97020;stroke-dasharray:5.55,2.4;stroke-dashoffset:0;stroke-width:1.5;"/>
   </g>
   <g id="line2d_17">
    <path clip-path="url(#pa21481232b)" d="M 325.687903 218.16 
L 325.687903 208.155338 
L 321.678135 195.084672 
L 317.668327 186.400259 
L 313.658518 179.717975 
L 309.648751 174.820062 
L 305.638942 169.296575 
L 301.629134 165.25518 
L 297.619366 161.199603 
L 293.609558 157.269492 
L 289.59975 154.066501 
L 285.589982 150.795259 
L 281.580174 147.51933 
L 277.570365 144.666186 
L 273.560598 142.100987 
L 269.550789 139.324562 
L 265.540981 136.667857 
L 261.531213 134.21125 
L 257.521405 131.897255 
L 253.511597 129.685471 
L 249.501829 127.547927 
L 245.492021 125.467021 
L 241.482213 123.432474 
L 237.472445 121.440384 
L 233.462637 119.491628 
L 229.452828 117.590439 
L 225.443061 115.744075 
L 221.433252 113.962516 
L 217.423444 112.257131 
L 213.413676 110.64165 
L 209.403868 108.998166 
L 205.39406 107.388552 
L 201.384292 105.912114 
L 197.374484 104.345924 
L 193.364675 102.929149 
L 189.354908 101.452802 
L 185.345099 100.051602 
L 181.335291 98.697545 
L 177.325523 97.369011 
L 173.315715 96.056928 
L 169.305907 94.764501 
L 165.296139 93.503523 
L 161.286331 92.292078 
L 157.276522 91.071289 
L 153.266755 89.89329 
L 149.256946 88.733314 
L 145.247138 87.590424 
L 141.23737 86.479285 
L 137.227562 85.369114 
L 133.217754 84.279234 
L 129.207986 83.199606 
L 125.198178 82.130682 
L 121.18837 81.066234 
L 117.178602 80.00224 
L 113.168794 78.930232 
L 109.158985 77.839505 
L 105.149218 76.707773 
L 101.139409 75.493335 
" style="fill:none;stroke:#ef9f07;stroke-dasharray:5.55,2.4;stroke-dashoffset:0;stroke-width:1.5;"/>
   </g>
   <g id="line2d_18">
    <path clip-path="url(#pa21481232b)" d="M 325.687903 218.16 
L 325.687903 228.164662 
L 321.678135 241.235328 
L 317.668327 249.919741 
L 313.658518 256.602025 
L 309.648751 261.499938 
L 305.638942 267.023425 
L 301.629134 271.06482 
L 297.619366 275.120397 
L 293.609558 279.050508 
L 289.59975 282.253499 
L 285.589982 285.524741 
L 281.580174 288.80067 
L 277.570365 291.653814 
L 273.560598 294.219013 
L 269.550789 296.995438 
L 265.540981 299.652143 
L 261.531213 302.10875 
L 257.521405 304.422745 
L 253.511597 306.634529 
L 249.501829 308.772073 
L 245.492021 310.852979 
L 241.482213 312.887526 
L 237.472445 314.879616 
L 233.462637 316.828372 
L 229.452828 318.729561 
L 225.443061 320.575925 
L 221.433252 322.357484 
L 217.423444 324.062869 
L 213.413676 325.67835 
L 209.403868 327.321834 
L 205.39406 328.931448 
L 201.384292 330.407886 
L 197.374484 331.974076 
L 193.364675 333.390851 
L 189.354908 334.867198 
L 185.345099 336.268398 
L 181.335291 337.622455 
L 177.325523 338.950989 
L 173.315715 340.263072 
L 169.305907 341.555499 
L 165.296139 342.816477 
L 161.286331 344.027922 
L 157.276522 345.248711 
L 153.266755 346.42671 
L 149.256946 347.586686 
L 145.247138 348.729576 
L 141.23737 349.840715 
L 137.227562 350.950886 
L 133.217754 352.040766 
L 129.207986 353.120394 
L 125.198178 354.189318 
L 121.18837 355.253766 
L 117.178602 356.31776 
L 113.168794 357.389768 
L 109.158985 358.480495 
L 105.149218 359.612227 
L 101.139409 360.826665 
" style="fill:none;stroke:#ef9f07;stroke-dasharray:5.55,2.4;stroke-dashoffset:0;stroke-width:1.5;"/>
   </g>
   <g id="line2d_19">
    <path clip-path="url(#pa21481232b)" d="M 310.647429 218.16 
L 310.647429 209.381298 
L 306.572202 194.030083 
L 302.496936 187.311995 
L 298.421669 178.456543 
L 294.346443 173.06333 
L 290.271176 168.980718 
L 286.195909 163.360675 
L 282.120683 159.174672 
L 278.045416 155.848756 
L 273.970149 152.318448 
L 269.894923 148.512079 
L 265.819656 145.240353 
L 261.74439 142.311034 
L 257.669163 139.59524 
L 253.593897 137.008299 
L 249.51863 134.496504 
L 245.443404 131.940831 
L 241.368137 129.469225 
L 237.29287 127.143225 
L 233.217644 124.837636 
L 229.142377 122.543479 
L 225.067111 120.337199 
L 220.991884 118.247977 
L 216.916618 116.309624 
L 212.841351 114.560088 
L 208.766084 112.537849 
L 204.690858 110.73237 
L 200.615591 109.024717 
L 196.540324 107.260515 
L 192.465098 105.60288 
L 188.389831 104.06073 
L 184.314565 102.398679 
L 180.239338 100.837479 
L 176.164072 99.33071 
L 172.088805 97.865734 
L 168.013579 96.456701 
L 163.938312 95.042648 
L 159.863045 93.654541 
L 155.787819 92.302783 
L 151.712552 90.990216 
L 147.637286 89.690924 
L 143.562059 88.431549 
L 139.486793 87.173444 
L 135.411526 85.946426 
L 131.3363 84.745535 
L 127.261033 83.544009 
L 123.185766 82.360718 
L 119.11054 81.17032 
L 115.035273 79.98718 
L 110.960006 78.792519 
L 106.88478 77.56544 
L 102.809513 76.27773 
L 98.734247 74.855241 
L 94.659021 73.027777 
" style="fill:none;stroke:#449775;stroke-dasharray:5.55,2.4;stroke-dashoffset:0;stroke-width:1.5;"/>
   </g>
   <g id="line2d_20">
    <path clip-path="url(#pa21481232b)" d="M 310.647429 218.16 
L 310.647429 226.938702 
L 306.572202 242.289917 
L 302.496936 249.008005 
L 298.421669 257.863457 
L 294.346443 263.25667 
L 290.271176 267.339282 
L 286.195909 272.959325 
L 282.120683 277.145328 
L 278.045416 280.471244 
L 273.970149 284.001552 
L 269.894923 287.807921 
L 265.819656 291.079647 
L 261.74439 294.008966 
L 257.669163 296.72476 
L 253.593897 299.311701 
L 249.51863 301.823496 
L 245.443404 304.379169 
L 241.368137 306.850775 
L 237.29287 309.176775 
L 233.217644 311.482364 
L 229.142377 313.776521 
L 225.067111 315.982801 
L 220.991884 318.072023 
L 216.916618 320.010376 
L 212.841351 321.759912 
L 208.766084 323.782151 
L 204.690858 325.58763 
L 200.615591 327.295283 
L 196.540324 329.059485 
L 192.465098 330.71712 
L 188.389831 332.25927 
L 184.314565 333.921321 
L 180.239338 335.482521 
L 176.164072 336.98929 
L 172.088805 338.454266 
L 168.013579 339.863299 
L 163.938312 341.277352 
L 159.863045 342.665459 
L 155.787819 344.017217 
L 151.712552 345.329784 
L 147.637286 346.629076 
L 143.562059 347.888451 
L 139.486793 349.146556 
L 135.411526 350.373574 
L 131.3363 351.574465 
L 127.261033 352.775991 
L 123.185766 353.959282 
L 119.11054 355.14968 
L 115.035273 356.33282 
L 110.960006 357.527481 
L 106.88478 358.75456 
L 102.809513 360.04227 
L 98.734247 361.464759 
L 94.659021 363.292223 
" style="fill:none;stroke:#449775;stroke-dasharray:5.55,2.4;stroke-dashoffset:0;stroke-width:1.5;"/>
   </g>
   <g id="line2d_21">
    <path clip-path="url(#pa21481232b)" d="M 292.846255 218.16 
L 292.846255 221.184 
L 292.550007 224.204069 
L 292.20912 227.217182 
L 291.730255 230.220014 
L 291.113411 233.209238 
L 290.370764 236.18183 
L 289.494196 239.134766 
L 288.491825 242.065022 
L 287.367709 244.970482 
L 286.121847 247.848725 
L 284.758298 250.697333 
L 283.285178 253.514491 
L 281.702487 256.29899 
L 280.014284 259.048714 
L 278.224625 261.762754 
L 276.337571 264.44111 
L 274.357178 267.08197 
L 272.287505 269.684122 
L 270.132611 272.247869 
L 267.896553 274.772002 
L 265.579331 277.256822 
L 263.19312 279.701726 
L 260.733862 282.107621 
L 258.205615 284.473296 
L 255.612436 286.799962 
L 252.958385 289.087315 
L 250.243462 291.336264 
L 247.475782 293.546808 
L 244.651287 295.719552 
L 241.778095 297.854496 
L 238.856204 299.95285 
L 235.885615 302.01431 
L 232.870385 304.039786 
L 229.814575 306.02988 
L 226.718182 307.984896 
L 223.581207 309.905136 
L 220.411767 311.79181 
L 217.201745 313.644917 
L 213.963316 315.465365 
L 210.688364 317.253758 
L 207.385004 319.0104 
L 204.053236 320.735894 
L 200.693062 322.431149 
L 197.30448 324.096163 
L 193.891549 325.732147 
L 190.454269 327.339403 
L 186.99264 328.918234 
L 183.506662 330.469848 
L 180.000393 331.994246 
L 176.477891 333.492336 
L 172.93104 334.964722 
L 169.367956 336.412008 
L 165.78864 337.8348 
L 162.189033 339.234065 
L 158.577251 340.610167 
L 154.945178 341.964012 
L 151.304989 343.296446 
L 147.648567 344.608379 
L 143.979971 345.900866 
L 140.2992 347.175059 
L 136.606255 348.432227 
L 132.905193 349.674002 
L 129.200073 350.90229 
L 125.482778 352.11939 
L 121.765484 353.328324 
L 118.040073 354.533056 
L 114.31872 355.739057 
L 110.605484 356.954221 
L 106.900364 358.190796 
L 103.223651 359.469312 
L 99.599695 360.829356 
" style="fill:none;stroke:#3b7d86;stroke-dasharray:5.55,2.4;stroke-dashoffset:0;stroke-width:1.5;"/>
   </g>
   <g id="line2d_22">
    <path clip-path="url(#pa21481232b)" d="M 292.846255 218.16 
L 292.846255 215.136 
L 292.550007 212.115931 
L 292.20912 209.102818 
L 291.730255 206.099986 
L 291.113411 203.110762 
L 290.370764 200.13817 
L 289.494196 197.185234 
L 288.491825 194.254978 
L 287.367709 191.349518 
L 286.121847 188.471275 
L 284.758298 185.622667 
L 283.285178 182.805509 
L 281.702487 180.02101 
L 280.014284 177.271286 
L 278.224625 174.557246 
L 276.337571 171.87889 
L 274.357178 169.23803 
L 272.287505 166.635878 
L 270.132611 164.072131 
L 267.896553 161.547998 
L 265.579331 159.063178 
L 263.19312 156.617669 
L 260.729804 154.211774 
L 258.201556 151.845494 
L 255.608378 149.518526 
L 252.954327 147.230568 
L 250.243462 144.981317 
L 247.471724 142.77047 
L 244.647229 140.597726 
L 241.774036 138.46248 
L 238.852145 136.364429 
L 235.881556 134.302666 
L 232.866327 132.27719 
L 229.810516 130.287398 
L 226.714124 128.332382 
L 223.577149 126.412142 
L 220.407709 124.525469 
L 217.197687 122.672362 
L 213.959258 120.851914 
L 210.684305 119.063822 
L 207.380945 117.307181 
L 204.049178 115.581686 
L 200.684945 113.886734 
L 197.300422 112.221418 
L 193.883433 110.585736 
L 190.446153 108.97848 
L 186.984524 107.399347 
L 183.502604 105.848035 
L 179.996335 104.323637 
L 176.473833 102.825547 
L 172.926982 101.353162 
L 169.363898 99.905875 
L 165.784582 98.483083 
L 162.184975 97.083878 
L 158.569135 95.707958 
L 154.94112 94.354114 
L 151.296873 93.021739 
L 147.640451 91.709626 
L 143.971855 90.417168 
L 140.291084 89.143157 
L 136.602196 87.88608 
L 132.901135 86.644123 
L 129.191956 85.416077 
L 125.47872 84.198917 
L 121.757367 82.989922 
L 118.036015 81.78516 
L 114.314662 80.579189 
L 110.597367 79.364146 
L 106.896305 78.12733 
L 103.215535 76.848782 
L 99.591578 75.488587 
" style="fill:none;stroke:#3b7d86;stroke-dasharray:5.55,2.4;stroke-dashoffset:0;stroke-width:1.5;"/>
   </g>
   <g id="line2d_23">
    <path clip-path="url(#pa21481232b)" d="M 498.109091 218.16 
L 354.146227 218.16 
L 354.146227 218.16 
" style="fill:none;stroke:#000000;stroke-dasharray:5.55,2.4;stroke-dashoffset:0;stroke-width:1.5;"/>
   </g>
   <g id="line2d_24">
    <path clip-path="url(#pa21481232b)" d="M 353.419123 218.16 
L 124.071627 218.16 
L 124.071627 218.16 
" style="fill:none;stroke:#000000;stroke-linecap:square;stroke-width:1.5;"/>
   </g>
   <g id="line2d_25">
    <path clip-path="url(#pa21481232b)" d="M 122.9133 218.16 
L 92.290909 218.16 
L 92.290909 218.16 
" style="fill:none;stroke:#000000;stroke-linecap:square;stroke-width:1.5;"/>
   </g>
   <g id="line2d_26">
    <path clip-path="url(#pa21481232b)" d="M 498.109091 369.36 
L 489.992727 369.36 
L 485.934545 369.36 
L 481.876364 369.36 
L 477.818182 369.36 
L 473.76 369.36 
L 469.701818 369.36 
L 465.643636 369.36 
L 461.585455 369.36 
L 457.527273 369.36 
L 453.469091 369.36 
L 449.410909 369.36 
L 445.352727 369.36 
L 441.294545 369.36 
L 437.236364 369.36 
L 433.178182 369.36 
L 429.12 369.36 
L 425.061818 369.36 
L 421.003636 369.36 
L 416.945455 369.36 
L 412.887273 369.36 
L 408.829091 369.36 
L 404.770909 369.36 
L 400.712727 369.36 
L 396.654545 369.36 
L 392.596364 369.36 
L 388.538182 369.36 
L 384.48 369.36 
L 380.421818 369.36 
L 376.363636 369.36 
L 372.305455 369.36 
L 368.247273 369.36 
L 364.189091 369.36 
L 360.130909 369.36 
L 356.072727 369.36 
L 352.014545 369.36 
L 347.956364 369.36 
L 343.898182 369.36 
L 339.84 369.36 
L 335.781818 369.36 
L 331.723636 369.36 
L 327.665455 369.36 
L 323.607273 369.36 
L 319.549091 369.36 
L 315.490909 369.36 
L 311.432727 369.36 
L 307.374545 369.36 
L 303.316364 369.36 
L 299.258182 369.36 
L 295.2 369.36 
L 291.141818 369.36 
L 287.083636 369.36 
L 283.025455 369.36 
L 278.967273 369.36 
L 274.909091 369.36 
L 270.850909 369.36 
L 266.792727 369.36 
L 262.734545 369.36 
L 258.676364 369.36 
L 254.618182 369.36 
L 250.56 369.36 
L 246.501818 369.36 
L 242.443636 369.36 
L 238.385455 369.36 
L 234.327273 369.36 
L 230.269091 369.36 
L 226.210909 369.36 
L 222.152727 369.36 
L 218.094545 369.36 
L 214.036364 369.36 
L 209.978182 369.36 
L 205.92 369.36 
L 201.861818 369.36 
L 197.803636 369.36 
L 193.745455 369.36 
L 189.687273 369.36 
L 185.629091 369.36 
L 181.570909 369.36 
L 177.512727 369.36 
L 173.454545 369.36 
L 169.396364 369.36 
L 165.338182 369.36 
L 161.28 369.36 
L 157.221818 369.36 
L 153.163636 369.36 
L 149.105455 369.36 
L 145.047273 369.36 
L 140.989091 369.36 
L 136.930909 369.36 
L 132.872727 369.36 
L 128.814545 369.36 
L 124.756364 369.36 
L 120.698182 369.36 
L 116.64 369.36 
L 112.581818 369.36 
L 108.523636 369.36 
L 104.465455 369.36 
L 100.407273 369.36 
L 96.349091 369.36 
L 92.290909 369.36 
" style="fill:none;stroke:#000000;stroke-linecap:square;stroke-width:1.5;"/>
   </g>
   <g id="line2d_27">
    <path clip-path="url(#pa21481232b)" d="M 498.109091 66.96 
L 489.992727 66.96 
L 485.934545 66.96 
L 481.876364 66.96 
L 477.818182 66.96 
L 473.76 66.96 
L 469.701818 66.96 
L 465.643636 66.96 
L 461.585455 66.96 
L 457.527273 66.96 
L 453.469091 66.96 
L 449.410909 66.96 
L 445.352727 66.96 
L 441.294545 66.96 
L 437.236364 66.96 
L 433.178182 66.96 
L 429.12 66.96 
L 425.061818 66.96 
L 421.003636 66.96 
L 416.945455 66.96 
L 412.887273 66.96 
L 408.829091 66.96 
L 404.770909 66.96 
L 400.712727 66.96 
L 396.654545 66.96 
L 392.596364 66.96 
L 388.538182 66.96 
L 384.48 66.96 
L 380.421818 66.96 
L 376.363636 66.96 
L 372.305455 66.96 
L 368.247273 66.96 
L 364.189091 66.96 
L 360.130909 66.96 
L 356.072727 66.96 
L 352.014545 66.96 
L 347.956364 66.96 
L 343.898182 66.96 
L 339.84 66.96 
L 335.781818 66.96 
L 331.723636 66.96 
L 327.665455 66.96 
L 323.607273 66.96 
L 319.549091 66.96 
L 315.490909 66.96 
L 311.432727 66.96 
L 307.374545 66.96 
L 303.316364 66.96 
L 299.258182 66.96 
L 295.2 66.96 
L 291.141818 66.96 
L 287.083636 66.96 
L 283.025455 66.96 
L 278.967273 66.96 
L 274.909091 66.96 
L 270.850909 66.96 
L 266.792727 66.96 
L 262.734545 66.96 
L 258.676364 66.96 
L 254.618182 66.96 
L 250.56 66.96 
L 246.501818 66.96 
L 242.443636 66.96 
L 238.385455 66.96 
L 234.327273 66.96 
L 230.269091 66.96 
L 226.210909 66.96 
L 222.152727 66.96 
L 218.094545 66.96 
L 214.036364 66.96 
L 209.978182 66.96 
L 205.92 66.96 
L 201.861818 66.96 
L 197.803636 66.96 
L 193.745455 66.96 
L 189.687273 66.96 
L 185.629091 66.96 
L 181.570909 66.96 
L 177.512727 66.96 
L 173.454545 66.96 
L 169.396364 66.96 
L 165.338182 66.96 
L 161.28 66.96 
L 157.221818 66.96 
L 153.163636 66.96 
L 149.105455 66.96 
L 145.047273 66.96 
L 140.989091 66.96 
L 136.930909 66.96 
L 132.872727 66.96 
L 128.814545 66.96 
L 124.756364 66.96 
L 120.698182 66.96 
L 116.64 66.96 
L 112.581818 66.96 
L 108.523636 66.96 
L 104.465455 66.96 
L 100.407273 66.96 
L 96.349091 66.96 
L 92.290909 66.96 
" style="fill:none;stroke:#000000;stroke-linecap:square;stroke-width:1.5;"/>
   </g>
   <g id="patch_3">
    <path d="M 72 384.48 
L 72 51.84 
" style="fill:none;stroke:#000000;stroke-linecap:square;stroke-linejoin:miter;stroke-width:0.8;"/>
   </g>
   <g id="patch_4">
    <path d="M 518.4 384.48 
L 518.4 51.84 
" style="fill:none;stroke:#000000;stroke-linecap:square;stroke-linejoin:miter;stroke-width:0.8;"/>
   </g>
   <g id="patch_5">
    <path d="M 72 384.48 
L 518.4 384.48 
" style="fill:none;stroke:#000000;stroke-linecap:square;stroke-linejoin:miter;stroke-width:0.8;"/>
   </g>
   <g id="patch_6">
    <path d="M 72 51.84 
L 518.4 51.84 
" style="fill:none;stroke:#000000;stroke-linecap:square;stroke-linejoin:miter;stroke-width:0.8;"/>
   </g>
   <g id="text_15">
    <!-- Bifurcation diagram for two coupled neurons, $\beta=0.1$ -->
    <g transform="translate(122.95 45.84)scale(0.13 -0.13)">
     <defs>
      <path d="M 19.671875 34.8125 
L 19.671875 8.109375 
L 35.5 8.109375 
Q 43.453125 8.109375 47.28125 11.40625 
Q 51.125 14.703125 51.125 21.484375 
Q 51.125 28.328125 47.28125 31.5625 
Q 43.453125 34.8125 35.5 34.8125 
z
M 19.671875 64.796875 
L 19.671875 42.828125 
L 34.28125 42.828125 
Q 41.5 42.828125 45.03125 45.53125 
Q 48.578125 48.25 48.578125 53.8125 
Q 48.578125 59.328125 45.03125 62.0625 
Q 41.5 64.796875 34.28125 64.796875 
z
M 9.8125 72.90625 
L 35.015625 72.90625 
Q 46.296875 72.90625 52.390625 68.21875 
Q 58.5 63.53125 58.5 54.890625 
Q 58.5 48.1875 55.375 44.234375 
Q 52.25 40.28125 46.1875 39.3125 
Q 53.46875 37.75 57.5 32.78125 
Q 61.53125 27.828125 61.53125 20.40625 
Q 61.53125 10.640625 54.890625 5.3125 
Q 48.25 0 35.984375 0 
L 9.8125 0 
z
" id="DejaVuSans-66"/>
      <path d="M 30.609375 48.390625 
Q 23.390625 48.390625 19.1875 42.75 
Q 14.984375 37.109375 14.984375 27.296875 
Q 14.984375 17.484375 19.15625 11.84375 
Q 23.34375 6.203125 30.609375 6.203125 
Q 37.796875 6.203125 41.984375 11.859375 
Q 46.1875 17.53125 46.1875 27.296875 
Q 46.1875 37.015625 41.984375 42.703125 
Q 37.796875 48.390625 30.609375 48.390625 
z
M 30.609375 56 
Q 42.328125 56 49.015625 48.375 
Q 55.71875 40.765625 55.71875 27.296875 
Q 55.71875 13.875 49.015625 6.21875 
Q 42.328125 -1.421875 30.609375 -1.421875 
Q 18.84375 -1.421875 12.171875 6.21875 
Q 5.515625 13.875 5.515625 27.296875 
Q 5.515625 40.765625 12.171875 48.375 
Q 18.84375 56 30.609375 56 
z
" id="DejaVuSans-111"/>
      <path d="M 45.40625 46.390625 
L 45.40625 75.984375 
L 54.390625 75.984375 
L 54.390625 0 
L 45.40625 0 
L 45.40625 8.203125 
Q 42.578125 3.328125 38.25 0.953125 
Q 33.9375 -1.421875 27.875 -1.421875 
Q 17.96875 -1.421875 11.734375 6.484375 
Q 5.515625 14.40625 5.515625 27.296875 
Q 5.515625 40.1875 11.734375 48.09375 
Q 17.96875 56 27.875 56 
Q 33.9375 56 38.25 53.625 
Q 42.578125 51.265625 45.40625 46.390625 
z
M 14.796875 27.296875 
Q 14.796875 17.390625 18.875 11.75 
Q 22.953125 6.109375 30.078125 6.109375 
Q 37.203125 6.109375 41.296875 11.75 
Q 45.40625 17.390625 45.40625 27.296875 
Q 45.40625 37.203125 41.296875 42.84375 
Q 37.203125 48.484375 30.078125 48.484375 
Q 22.953125 48.484375 18.875 42.84375 
Q 14.796875 37.203125 14.796875 27.296875 
z
" id="DejaVuSans-100"/>
      <path d="M 45.40625 27.984375 
Q 45.40625 37.75 41.375 43.109375 
Q 37.359375 48.484375 30.078125 48.484375 
Q 22.859375 48.484375 18.828125 43.109375 
Q 14.796875 37.75 14.796875 27.984375 
Q 14.796875 18.265625 18.828125 12.890625 
Q 22.859375 7.515625 30.078125 7.515625 
Q 37.359375 7.515625 41.375 12.890625 
Q 45.40625 18.265625 45.40625 27.984375 
z
M 54.390625 6.78125 
Q 54.390625 -7.171875 48.1875 -13.984375 
Q 42 -20.796875 29.203125 -20.796875 
Q 24.46875 -20.796875 20.265625 -20.09375 
Q 16.0625 -19.390625 12.109375 -17.921875 
L 12.109375 -9.1875 
Q 16.0625 -11.328125 19.921875 -12.34375 
Q 23.78125 -13.375 27.78125 -13.375 
Q 36.625 -13.375 41.015625 -8.765625 
Q 45.40625 -4.15625 45.40625 5.171875 
L 45.40625 9.625 
Q 42.625 4.78125 38.28125 2.390625 
Q 33.9375 0 27.875 0 
Q 17.828125 0 11.671875 7.65625 
Q 5.515625 15.328125 5.515625 27.984375 
Q 5.515625 40.671875 11.671875 48.328125 
Q 17.828125 56 27.875 56 
Q 33.9375 56 38.28125 53.609375 
Q 42.625 51.21875 45.40625 46.390625 
L 45.40625 54.6875 
L 54.390625 54.6875 
z
" id="DejaVuSans-103"/>
      <path d="M 52 44.1875 
Q 55.375 50.25 60.0625 53.125 
Q 64.75 56 71.09375 56 
Q 79.640625 56 84.28125 50.015625 
Q 88.921875 44.046875 88.921875 33.015625 
L 88.921875 0 
L 79.890625 0 
L 79.890625 32.71875 
Q 79.890625 40.578125 77.09375 44.375 
Q 74.3125 48.1875 68.609375 48.1875 
Q 61.625 48.1875 57.5625 43.546875 
Q 53.515625 38.921875 53.515625 30.90625 
L 53.515625 0 
L 44.484375 0 
L 44.484375 32.71875 
Q 44.484375 40.625 41.703125 44.40625 
Q 38.921875 48.1875 33.109375 48.1875 
Q 26.21875 48.1875 22.15625 43.53125 
Q 18.109375 38.875 18.109375 30.90625 
L 18.109375 0 
L 9.078125 0 
L 9.078125 54.6875 
L 18.109375 54.6875 
L 18.109375 46.1875 
Q 21.1875 51.21875 25.484375 53.609375 
Q 29.78125 56 35.6875 56 
Q 41.65625 56 45.828125 52.96875 
Q 50 49.953125 52 44.1875 
z
" id="DejaVuSans-109"/>
      <path d="M 4.203125 54.6875 
L 13.1875 54.6875 
L 24.421875 12.015625 
L 35.59375 54.6875 
L 46.1875 54.6875 
L 57.421875 12.015625 
L 68.609375 54.6875 
L 77.59375 54.6875 
L 63.28125 0 
L 52.6875 0 
L 40.921875 44.828125 
L 29.109375 0 
L 18.5 0 
z
" id="DejaVuSans-119"/>
      <path d="M 18.109375 8.203125 
L 18.109375 -20.796875 
L 9.078125 -20.796875 
L 9.078125 54.6875 
L 18.109375 54.6875 
L 18.109375 46.390625 
Q 20.953125 51.265625 25.265625 53.625 
Q 29.59375 56 35.59375 56 
Q 45.5625 56 51.78125 48.09375 
Q 58.015625 40.1875 58.015625 27.296875 
Q 58.015625 14.40625 51.78125 6.484375 
Q 45.5625 -1.421875 35.59375 -1.421875 
Q 29.59375 -1.421875 25.265625 0.953125 
Q 20.953125 3.328125 18.109375 8.203125 
z
M 48.6875 27.296875 
Q 48.6875 37.203125 44.609375 42.84375 
Q 40.53125 48.484375 33.40625 48.484375 
Q 26.265625 48.484375 22.1875 42.84375 
Q 18.109375 37.203125 18.109375 27.296875 
Q 18.109375 17.390625 22.1875 11.75 
Q 26.265625 6.109375 33.40625 6.109375 
Q 40.53125 6.109375 44.609375 11.75 
Q 48.6875 17.390625 48.6875 27.296875 
z
" id="DejaVuSans-112"/>
      <path d="M 9.421875 75.984375 
L 18.40625 75.984375 
L 18.40625 0 
L 9.421875 0 
z
" id="DejaVuSans-108"/>
      <path d="M 11.71875 12.40625 
L 22.015625 12.40625 
L 22.015625 4 
L 14.015625 -11.625 
L 7.71875 -11.625 
L 11.71875 4 
z
" id="DejaVuSans-44"/>
      <path d="M 13.625 3.375 
L 8.9375 -20.796875 
L -0.09375 -20.796875 
L 14.5 54.34375 
Q 18.84375 76.609375 39.65625 76.609375 
Q 60.75 76.609375 57.171875 57.8125 
Q 54.734375 44.4375 45.21875 39.546875 
Q 58.015625 35.15625 55.515625 22.125 
Q 51.125 -1.078125 27.484375 -1.03125 
Q 17.140625 -0.984375 13.625 3.375 
z
M 15.921875 15.09375 
Q 19.671875 6.59375 29.296875 6.640625 
Q 43.359375 6.640625 46.34375 21.96875 
Q 49.03125 35.75 26.171875 34.671875 
L 27.78125 42.96875 
Q 45.453125 42.671875 48.53125 58.59375 
Q 50.640625 69.34375 39.203125 69.28125 
Q 26.421875 69.28125 23.484375 54.046875 
z
" id="DejaVuSans-Oblique-946"/>
      <path d="M 10.59375 45.40625 
L 73.1875 45.40625 
L 73.1875 37.203125 
L 10.59375 37.203125 
z
M 10.59375 25.484375 
L 73.1875 25.484375 
L 73.1875 17.1875 
L 10.59375 17.1875 
z
" id="DejaVuSans-61"/>
     </defs>
     <use transform="translate(0 0.390625)" xlink:href="#DejaVuSans-66"/>
     <use transform="translate(68.603516 0.390625)" xlink:href="#DejaVuSans-105"/>
     <use transform="translate(96.386719 0.390625)" xlink:href="#DejaVuSans-102"/>
     <use transform="translate(131.591797 0.390625)" xlink:href="#DejaVuSans-117"/>
     <use transform="translate(194.970703 0.390625)" xlink:href="#DejaVuSans-114"/>
     <use transform="translate(236.083984 0.390625)" xlink:href="#DejaVuSans-99"/>
     <use transform="translate(291.064453 0.390625)" xlink:href="#DejaVuSans-97"/>
     <use transform="translate(352.34375 0.390625)" xlink:href="#DejaVuSans-116"/>
     <use transform="translate(391.552734 0.390625)" xlink:href="#DejaVuSans-105"/>
     <use transform="translate(419.335938 0.390625)" xlink:href="#DejaVuSans-111"/>
     <use transform="translate(480.517578 0.390625)" xlink:href="#DejaVuSans-110"/>
     <use transform="translate(543.896484 0.390625)" xlink:href="#DejaVuSans-32"/>
     <use transform="translate(575.683594 0.390625)" xlink:href="#DejaVuSans-100"/>
     <use transform="translate(639.160156 0.390625)" xlink:href="#DejaVuSans-105"/>
     <use transform="translate(666.943359 0.390625)" xlink:href="#DejaVuSans-97"/>
     <use transform="translate(728.222656 0.390625)" xlink:href="#DejaVuSans-103"/>
     <use transform="translate(791.699219 0.390625)" xlink:href="#DejaVuSans-114"/>
     <use transform="translate(832.8125 0.390625)" xlink:href="#DejaVuSans-97"/>
     <use transform="translate(894.091797 0.390625)" xlink:href="#DejaVuSans-109"/>
     <use transform="translate(991.503906 0.390625)" xlink:href="#DejaVuSans-32"/>
     <use transform="translate(1023.291016 0.390625)" xlink:href="#DejaVuSans-102"/>
     <use transform="translate(1058.496094 0.390625)" xlink:href="#DejaVuSans-111"/>
     <use transform="translate(1119.677734 0.390625)" xlink:href="#DejaVuSans-114"/>
     <use transform="translate(1160.791016 0.390625)" xlink:href="#DejaVuSans-32"/>
     <use transform="translate(1192.578125 0.390625)" xlink:href="#DejaVuSans-116"/>
     <use transform="translate(1231.787109 0.390625)" xlink:href="#DejaVuSans-119"/>
     <use transform="translate(1313.574219 0.390625)" xlink:href="#DejaVuSans-111"/>
     <use transform="translate(1374.755859 0.390625)" xlink:href="#DejaVuSans-32"/>
     <use transform="translate(1406.542969 0.390625)" xlink:href="#DejaVuSans-99"/>
     <use transform="translate(1461.523438 0.390625)" xlink:href="#DejaVuSans-111"/>
     <use transform="translate(1522.705078 0.390625)" xlink:href="#DejaVuSans-117"/>
     <use transform="translate(1586.083984 0.390625)" xlink:href="#DejaVuSans-112"/>
     <use transform="translate(1649.560547 0.390625)" xlink:href="#DejaVuSans-108"/>
     <use transform="translate(1677.34375 0.390625)" xlink:href="#DejaVuSans-101"/>
     <use transform="translate(1738.867188 0.390625)" xlink:href="#DejaVuSans-100"/>
     <use transform="translate(1802.34375 0.390625)" xlink:href="#DejaVuSans-32"/>
     <use transform="translate(1834.130859 0.390625)" xlink:href="#DejaVuSans-110"/>
     <use transform="translate(1897.509766 0.390625)" xlink:href="#DejaVuSans-101"/>
     <use transform="translate(1959.033203 0.390625)" xlink:href="#DejaVuSans-117"/>
     <use transform="translate(2022.412109 0.390625)" xlink:href="#DejaVuSans-114"/>
     <use transform="translate(2063.525391 0.390625)" xlink:href="#DejaVuSans-111"/>
     <use transform="translate(2124.707031 0.390625)" xlink:href="#DejaVuSans-110"/>
     <use transform="translate(2188.085938 0.390625)" xlink:href="#DejaVuSans-115"/>
     <use transform="translate(2240.185547 0.390625)" xlink:href="#DejaVuSans-44"/>
     <use transform="translate(2271.972656 0.390625)" xlink:href="#DejaVuSans-32"/>
     <use transform="translate(2303.759766 0.390625)" xlink:href="#DejaVuSans-Oblique-946"/>
     <use transform="translate(2387.060547 0.390625)" xlink:href="#DejaVuSans-61"/>
     <use transform="translate(2490.332031 0.390625)" xlink:href="#DejaVuSans-48"/>
     <use transform="translate(2553.955078 0.390625)" xlink:href="#DejaVuSans-46"/>
     <use transform="translate(2585.742188 0.390625)" xlink:href="#DejaVuSans-49"/>
    </g>
   </g>
   <g id="legend_1">
    <g id="patch_7">
     <path d="M 444 149.96575 
L 511.4 149.96575 
Q 513.4 149.96575 513.4 147.96575 
L 513.4 75.472 
Q 513.4 73.472 511.4 73.472 
L 444 73.472 
Q 442 73.472 442 75.472 
L 442 147.96575 
Q 442 149.96575 444 149.96575 
z
" style="fill:#ffffff;opacity:0.8;stroke:#cccccc;stroke-linejoin:miter;"/>
    </g>
    <g id="line2d_28">
     <path d="M 446 81.570437 
L 466 81.570437 
" style="fill:none;stroke:#aa3863;stroke-dasharray:5.55,2.4;stroke-dashoffset:0;stroke-width:1.5;"/>
    </g>
    <g id="line2d_29"/>
    <g id="text_16">
     <!-- $\gamma = 0.4$ -->
     <g transform="translate(474 85.070437)scale(0.1 -0.1)">
      <defs>
       <path d="M 23.296875 46.09375 
L 28.71875 12.3125 
L 54 54.6875 
L 63.53125 54.6875 
L 30.8125 0 
L 26.765625 -20.796875 
L 17.78125 -20.796875 
L 21.828125 0 
L 15.4375 40.828125 
Q 14.453125 46.96875 9.8125 46.96875 
L 7.421875 46.96875 
L 8.890625 54.6875 
L 12.3125 54.6875 
Q 21.921875 54.6875 23.296875 46.09375 
z
" id="DejaVuSans-Oblique-947"/>
      </defs>
      <use transform="translate(0 0.78125)" xlink:href="#DejaVuSans-Oblique-947"/>
      <use transform="translate(78.662109 0.78125)" xlink:href="#DejaVuSans-61"/>
      <use transform="translate(181.933594 0.78125)" xlink:href="#DejaVuSans-48"/>
      <use transform="translate(245.556641 0.78125)" xlink:href="#DejaVuSans-46"/>
      <use transform="translate(277.34375 0.78125)" xlink:href="#DejaVuSans-52"/>
     </g>
    </g>
    <g id="line2d_30">
     <path d="M 446 96.268875 
L 466 96.268875 
" style="fill:none;stroke:#d97020;stroke-dasharray:5.55,2.4;stroke-dashoffset:0;stroke-width:1.5;"/>
    </g>
    <g id="line2d_31"/>
    <g id="text_17">
     <!-- $\gamma = 0.3$ -->
     <g transform="translate(474 99.768875)scale(0.1 -0.1)">
      <defs>
       <path d="M 40.578125 39.3125 
Q 47.65625 37.796875 51.625 33 
Q 55.609375 28.21875 55.609375 21.1875 
Q 55.609375 10.40625 48.1875 4.484375 
Q 40.765625 -1.421875 27.09375 -1.421875 
Q 22.515625 -1.421875 17.65625 -0.515625 
Q 12.796875 0.390625 7.625 2.203125 
L 7.625 11.71875 
Q 11.71875 9.328125 16.59375 8.109375 
Q 21.484375 6.890625 26.8125 6.890625 
Q 36.078125 6.890625 40.9375 10.546875 
Q 45.796875 14.203125 45.796875 21.1875 
Q 45.796875 27.640625 41.28125 31.265625 
Q 36.765625 34.90625 28.71875 34.90625 
L 20.21875 34.90625 
L 20.21875 43.015625 
L 29.109375 43.015625 
Q 36.375 43.015625 40.234375 45.921875 
Q 44.09375 48.828125 44.09375 54.296875 
Q 44.09375 59.90625 40.109375 62.90625 
Q 36.140625 65.921875 28.71875 65.921875 
Q 24.65625 65.921875 20.015625 65.03125 
Q 15.375 64.15625 9.8125 62.3125 
L 9.8125 71.09375 
Q 15.4375 72.65625 20.34375 73.4375 
Q 25.25 74.21875 29.59375 74.21875 
Q 40.828125 74.21875 47.359375 69.109375 
Q 53.90625 64.015625 53.90625 55.328125 
Q 53.90625 49.265625 50.4375 45.09375 
Q 46.96875 40.921875 40.578125 39.3125 
z
" id="DejaVuSans-51"/>
      </defs>
      <use transform="translate(0 0.78125)" xlink:href="#DejaVuSans-Oblique-947"/>
      <use transform="translate(78.662109 0.78125)" xlink:href="#DejaVuSans-61"/>
      <use transform="translate(181.933594 0.78125)" xlink:href="#DejaVuSans-48"/>
      <use transform="translate(245.556641 0.78125)" xlink:href="#DejaVuSans-46"/>
      <use transform="translate(277.34375 0.78125)" xlink:href="#DejaVuSans-51"/>
     </g>
    </g>
    <g id="line2d_32">
     <path d="M 446 110.967312 
L 466 110.967312 
" style="fill:none;stroke:#ef9f07;stroke-dasharray:5.55,2.4;stroke-dashoffset:0;stroke-width:1.5;"/>
    </g>
    <g id="line2d_33"/>
    <g id="text_18">
     <!-- $\gamma = 0.2$ -->
     <g transform="translate(474 114.467312)scale(0.1 -0.1)">
      <use transform="translate(0 0.78125)" xlink:href="#DejaVuSans-Oblique-947"/>
      <use transform="translate(78.662109 0.78125)" xlink:href="#DejaVuSans-61"/>
      <use transform="translate(181.933594 0.78125)" xlink:href="#DejaVuSans-48"/>
      <use transform="translate(245.556641 0.78125)" xlink:href="#DejaVuSans-46"/>
      <use transform="translate(271.84375 0.78125)" xlink:href="#DejaVuSans-50"/>
     </g>
    </g>
    <g id="line2d_34">
     <path d="M 446 125.66575 
L 466 125.66575 
" style="fill:none;stroke:#449775;stroke-dasharray:5.55,2.4;stroke-dashoffset:0;stroke-width:1.5;"/>
    </g>
    <g id="line2d_35"/>
    <g id="text_19">
     <!-- $\gamma = 0.1$ -->
     <g transform="translate(474 129.16575)scale(0.1 -0.1)">
      <use transform="translate(0 0.78125)" xlink:href="#DejaVuSans-Oblique-947"/>
      <use transform="translate(78.662109 0.78125)" xlink:href="#DejaVuSans-61"/>
      <use transform="translate(181.933594 0.78125)" xlink:href="#DejaVuSans-48"/>
      <use transform="translate(245.556641 0.78125)" xlink:href="#DejaVuSans-46"/>
      <use transform="translate(277.34375 0.78125)" xlink:href="#DejaVuSans-49"/>
     </g>
    </g>
    <g id="line2d_36">
     <path d="M 446 140.36575 
L 466 140.36575 
" style="fill:none;stroke:#3b7d86;stroke-dasharray:5.55,2.4;stroke-dashoffset:0;stroke-width:1.5;"/>
    </g>
    <g id="line2d_37"/>
    <g id="text_20">
     <!-- $\gamma$ weak -->
     <g transform="translate(474 143.86575)scale(0.1 -0.1)">
      <defs>
       <path d="M 9.078125 75.984375 
L 18.109375 75.984375 
L 18.109375 31.109375 
L 44.921875 54.6875 
L 56.390625 54.6875 
L 27.390625 29.109375 
L 57.625 0 
L 45.90625 0 
L 18.109375 26.703125 
L 18.109375 0 
L 9.078125 0 
z
" id="DejaVuSans-107"/>
      </defs>
      <use transform="translate(0 0.015625)" xlink:href="#DejaVuSans-Oblique-947"/>
      <use transform="translate(59.179688 0.015625)" xlink:href="#DejaVuSans-32"/>
      <use transform="translate(90.966797 0.015625)" xlink:href="#DejaVuSans-119"/>
      <use transform="translate(172.753906 0.015625)" xlink:href="#DejaVuSans-101"/>
      <use transform="translate(234.277344 0.015625)" xlink:href="#DejaVuSans-97"/>
      <use transform="translate(295.556641 0.015625)" xlink:href="#DejaVuSans-107"/>
     </g>
    </g>
   </g>
  </g>
 </g>
 <defs>
  <clipPath id="pa21481232b">
   <rect height="332.64" width="446.4" x="72" y="51.84"/>
  </clipPath>
 </defs>
</svg>
