<?xml version="1.0" encoding="utf-8" standalone="no"?>
<!DOCTYPE svg PUBLIC "-//W3C//DTD SVG 1.1//EN"
  "http://www.w3.org/Graphics/SVG/1.1/DTD/svg11.dtd">
<!-- Created with matplotlib (https://matplotlib.org/) -->
<svg height="432pt" version="1.1" viewBox="0 0 1152 432" width="1152pt" xmlns="http://www.w3.org/2000/svg" xmlns:xlink="http://www.w3.org/1999/xlink">
 <metadata>
  <rdf:RDF xmlns:cc="http://creativecommons.org/ns#" xmlns:dc="http://purl.org/dc/elements/1.1/" xmlns:rdf="http://www.w3.org/1999/02/22-rdf-syntax-ns#">
   <cc:Work>
    <dc:type rdf:resource="http://purl.org/dc/dcmitype/StillImage"/>
    <dc:date>2021-04-23T15:06:47.992694</dc:date>
    <dc:format>image/svg+xml</dc:format>
    <dc:creator>
     <cc:Agent>
      <dc:title>Matplotlib v3.3.3, https://matplotlib.org/</dc:title>
     </cc:Agent>
    </dc:creator>
   </cc:Work>
  </rdf:RDF>
 </metadata>
 <defs>
  <style type="text/css">*{stroke-linecap:butt;stroke-linejoin:round;}</style>
 </defs>
 <g id="figure_1">
  <g id="patch_1">
   <path d="M 0 432 
L 1152 432 
L 1152 0 
L 0 0 
z
" style="fill:#ffffff;"/>
  </g>
  <g id="axes_1">
   <g id="patch_2">
    <path d="M 53.765625 197.951875 
L 1088.6 197.951875 
L 1088.6 33.36 
L 53.765625 33.36 
z
" style="fill:#ffffff;"/>
   </g>
   <g id="matplotlib.axis_1">
    <g id="xtick_1">
     <g id="line2d_1">
      <defs>
       <path d="M 0 0 
L 0 3.5 
" id="m4a6dbffaa0" style="stroke:#000000;stroke-width:0.8;"/>
      </defs>
      <g>
       <use style="stroke:#000000;stroke-width:0.8;" x="100.803551" xlink:href="#m4a6dbffaa0" y="197.951875"/>
      </g>
     </g>
     <g id="text_1">
      <!-- 0 -->
      <g transform="translate(97.622301 212.550313)scale(0.1 -0.1)">
       <defs>
        <path d="M 31.78125 66.40625 
Q 24.171875 66.40625 20.328125 58.90625 
Q 16.5 51.421875 16.5 36.375 
Q 16.5 21.390625 20.328125 13.890625 
Q 24.171875 6.390625 31.78125 6.390625 
Q 39.453125 6.390625 43.28125 13.890625 
Q 47.125 21.390625 47.125 36.375 
Q 47.125 51.421875 43.28125 58.90625 
Q 39.453125 66.40625 31.78125 66.40625 
z
M 31.78125 74.21875 
Q 44.046875 74.21875 50.515625 64.515625 
Q 56.984375 54.828125 56.984375 36.375 
Q 56.984375 17.96875 50.515625 8.265625 
Q 44.046875 -1.421875 31.78125 -1.421875 
Q 19.53125 -1.421875 13.0625 8.265625 
Q 6.59375 17.96875 6.59375 36.375 
Q 6.59375 54.828125 13.0625 64.515625 
Q 19.53125 74.21875 31.78125 74.21875 
z
" id="DejaVuSans-48"/>
       </defs>
       <use xlink:href="#DejaVuSans-48"/>
      </g>
     </g>
    </g>
    <g id="xtick_2">
     <g id="line2d_2">
      <g>
       <use style="stroke:#000000;stroke-width:0.8;" x="309.861001" xlink:href="#m4a6dbffaa0" y="197.951875"/>
      </g>
     </g>
     <g id="text_2">
      <!-- 10 -->
      <g transform="translate(303.498501 212.550313)scale(0.1 -0.1)">
       <defs>
        <path d="M 12.40625 8.296875 
L 28.515625 8.296875 
L 28.515625 63.921875 
L 10.984375 60.40625 
L 10.984375 69.390625 
L 28.421875 72.90625 
L 38.28125 72.90625 
L 38.28125 8.296875 
L 54.390625 8.296875 
L 54.390625 0 
L 12.40625 0 
z
" id="DejaVuSans-49"/>
       </defs>
       <use xlink:href="#DejaVuSans-49"/>
       <use x="63.623047" xlink:href="#DejaVuSans-48"/>
      </g>
     </g>
    </g>
    <g id="xtick_3">
     <g id="line2d_3">
      <g>
       <use style="stroke:#000000;stroke-width:0.8;" x="518.91845" xlink:href="#m4a6dbffaa0" y="197.951875"/>
      </g>
     </g>
     <g id="text_3">
      <!-- 20 -->
      <g transform="translate(512.55595 212.550313)scale(0.1 -0.1)">
       <defs>
        <path d="M 19.1875 8.296875 
L 53.609375 8.296875 
L 53.609375 0 
L 7.328125 0 
L 7.328125 8.296875 
Q 12.9375 14.109375 22.625 23.890625 
Q 32.328125 33.6875 34.8125 36.53125 
Q 39.546875 41.84375 41.421875 45.53125 
Q 43.3125 49.21875 43.3125 52.78125 
Q 43.3125 58.59375 39.234375 62.25 
Q 35.15625 65.921875 28.609375 65.921875 
Q 23.96875 65.921875 18.8125 64.3125 
Q 13.671875 62.703125 7.8125 59.421875 
L 7.8125 69.390625 
Q 13.765625 71.78125 18.9375 73 
Q 24.125 74.21875 28.421875 74.21875 
Q 39.75 74.21875 46.484375 68.546875 
Q 53.21875 62.890625 53.21875 53.421875 
Q 53.21875 48.921875 51.53125 44.890625 
Q 49.859375 40.875 45.40625 35.40625 
Q 44.1875 33.984375 37.640625 27.21875 
Q 31.109375 20.453125 19.1875 8.296875 
z
" id="DejaVuSans-50"/>
       </defs>
       <use xlink:href="#DejaVuSans-50"/>
       <use x="63.623047" xlink:href="#DejaVuSans-48"/>
      </g>
     </g>
    </g>
    <g id="xtick_4">
     <g id="line2d_4">
      <g>
       <use style="stroke:#000000;stroke-width:0.8;" x="727.9759" xlink:href="#m4a6dbffaa0" y="197.951875"/>
      </g>
     </g>
     <g id="text_4">
      <!-- 30 -->
      <g transform="translate(721.6134 212.550313)scale(0.1 -0.1)">
       <defs>
        <path d="M 40.578125 39.3125 
Q 47.65625 37.796875 51.625 33 
Q 55.609375 28.21875 55.609375 21.1875 
Q 55.609375 10.40625 48.1875 4.484375 
Q 40.765625 -1.421875 27.09375 -1.421875 
Q 22.515625 -1.421875 17.65625 -0.515625 
Q 12.796875 0.390625 7.625 2.203125 
L 7.625 11.71875 
Q 11.71875 9.328125 16.59375 8.109375 
Q 21.484375 6.890625 26.8125 6.890625 
Q 36.078125 6.890625 40.9375 10.546875 
Q 45.796875 14.203125 45.796875 21.1875 
Q 45.796875 27.640625 41.28125 31.265625 
Q 36.765625 34.90625 28.71875 34.90625 
L 20.21875 34.90625 
L 20.21875 43.015625 
L 29.109375 43.015625 
Q 36.375 43.015625 40.234375 45.921875 
Q 44.09375 48.828125 44.09375 54.296875 
Q 44.09375 59.90625 40.109375 62.90625 
Q 36.140625 65.921875 28.71875 65.921875 
Q 24.65625 65.921875 20.015625 65.03125 
Q 15.375 64.15625 9.8125 62.3125 
L 9.8125 71.09375 
Q 15.4375 72.65625 20.34375 73.4375 
Q 25.25 74.21875 29.59375 74.21875 
Q 40.828125 74.21875 47.359375 69.109375 
Q 53.90625 64.015625 53.90625 55.328125 
Q 53.90625 49.265625 50.4375 45.09375 
Q 46.96875 40.921875 40.578125 39.3125 
z
" id="DejaVuSans-51"/>
       </defs>
       <use xlink:href="#DejaVuSans-51"/>
       <use x="63.623047" xlink:href="#DejaVuSans-48"/>
      </g>
     </g>
    </g>
    <g id="xtick_5">
     <g id="line2d_5">
      <g>
       <use style="stroke:#000000;stroke-width:0.8;" x="937.033349" xlink:href="#m4a6dbffaa0" y="197.951875"/>
      </g>
     </g>
     <g id="text_5">
      <!-- 40 -->
      <g transform="translate(930.670849 212.550313)scale(0.1 -0.1)">
       <defs>
        <path d="M 37.796875 64.3125 
L 12.890625 25.390625 
L 37.796875 25.390625 
z
M 35.203125 72.90625 
L 47.609375 72.90625 
L 47.609375 25.390625 
L 58.015625 25.390625 
L 58.015625 17.1875 
L 47.609375 17.1875 
L 47.609375 0 
L 37.796875 0 
L 37.796875 17.1875 
L 4.890625 17.1875 
L 4.890625 26.703125 
z
" id="DejaVuSans-52"/>
       </defs>
       <use xlink:href="#DejaVuSans-52"/>
       <use x="63.623047" xlink:href="#DejaVuSans-48"/>
      </g>
     </g>
    </g>
   </g>
   <g id="matplotlib.axis_2">
    <g id="ytick_1">
     <g id="line2d_6">
      <defs>
       <path d="M 0 0 
L -3.5 0 
" id="m7f965710a6" style="stroke:#000000;stroke-width:0.8;"/>
      </defs>
      <g>
       <use style="stroke:#000000;stroke-width:0.8;" x="53.765625" xlink:href="#m7f965710a6" y="183.639538"/>
      </g>
     </g>
     <g id="text_6">
      <!-- 0.90 -->
      <g transform="translate(24.5 187.438757)scale(0.1 -0.1)">
       <defs>
        <path d="M 10.6875 12.40625 
L 21 12.40625 
L 21 0 
L 10.6875 0 
z
" id="DejaVuSans-46"/>
        <path d="M 10.984375 1.515625 
L 10.984375 10.5 
Q 14.703125 8.734375 18.5 7.8125 
Q 22.3125 6.890625 25.984375 6.890625 
Q 35.75 6.890625 40.890625 13.453125 
Q 46.046875 20.015625 46.78125 33.40625 
Q 43.953125 29.203125 39.59375 26.953125 
Q 35.25 24.703125 29.984375 24.703125 
Q 19.046875 24.703125 12.671875 31.3125 
Q 6.296875 37.9375 6.296875 49.421875 
Q 6.296875 60.640625 12.9375 67.421875 
Q 19.578125 74.21875 30.609375 74.21875 
Q 43.265625 74.21875 49.921875 64.515625 
Q 56.59375 54.828125 56.59375 36.375 
Q 56.59375 19.140625 48.40625 8.859375 
Q 40.234375 -1.421875 26.421875 -1.421875 
Q 22.703125 -1.421875 18.890625 -0.6875 
Q 15.09375 0.046875 10.984375 1.515625 
z
M 30.609375 32.421875 
Q 37.25 32.421875 41.125 36.953125 
Q 45.015625 41.5 45.015625 49.421875 
Q 45.015625 57.28125 41.125 61.84375 
Q 37.25 66.40625 30.609375 66.40625 
Q 23.96875 66.40625 20.09375 61.84375 
Q 16.21875 57.28125 16.21875 49.421875 
Q 16.21875 41.5 20.09375 36.953125 
Q 23.96875 32.421875 30.609375 32.421875 
z
" id="DejaVuSans-57"/>
       </defs>
       <use xlink:href="#DejaVuSans-48"/>
       <use x="63.623047" xlink:href="#DejaVuSans-46"/>
       <use x="95.410156" xlink:href="#DejaVuSans-57"/>
       <use x="159.033203" xlink:href="#DejaVuSans-48"/>
      </g>
     </g>
    </g>
    <g id="ytick_2">
     <g id="line2d_7">
      <g>
       <use style="stroke:#000000;stroke-width:0.8;" x="53.765625" xlink:href="#m7f965710a6" y="147.858696"/>
      </g>
     </g>
     <g id="text_7">
      <!-- 0.95 -->
      <g transform="translate(24.5 151.657914)scale(0.1 -0.1)">
       <defs>
        <path d="M 10.796875 72.90625 
L 49.515625 72.90625 
L 49.515625 64.59375 
L 19.828125 64.59375 
L 19.828125 46.734375 
Q 21.96875 47.46875 24.109375 47.828125 
Q 26.265625 48.1875 28.421875 48.1875 
Q 40.625 48.1875 47.75 41.5 
Q 54.890625 34.8125 54.890625 23.390625 
Q 54.890625 11.625 47.5625 5.09375 
Q 40.234375 -1.421875 26.90625 -1.421875 
Q 22.3125 -1.421875 17.546875 -0.640625 
Q 12.796875 0.140625 7.71875 1.703125 
L 7.71875 11.625 
Q 12.109375 9.234375 16.796875 8.0625 
Q 21.484375 6.890625 26.703125 6.890625 
Q 35.15625 6.890625 40.078125 11.328125 
Q 45.015625 15.765625 45.015625 23.390625 
Q 45.015625 31 40.078125 35.4375 
Q 35.15625 39.890625 26.703125 39.890625 
Q 22.75 39.890625 18.8125 39.015625 
Q 14.890625 38.140625 10.796875 36.28125 
z
" id="DejaVuSans-53"/>
       </defs>
       <use xlink:href="#DejaVuSans-48"/>
       <use x="63.623047" xlink:href="#DejaVuSans-46"/>
       <use x="95.410156" xlink:href="#DejaVuSans-57"/>
       <use x="159.033203" xlink:href="#DejaVuSans-53"/>
      </g>
     </g>
    </g>
    <g id="ytick_3">
     <g id="line2d_8">
      <g>
       <use style="stroke:#000000;stroke-width:0.8;" x="53.765625" xlink:href="#m7f965710a6" y="112.077853"/>
      </g>
     </g>
     <g id="text_8">
      <!-- 1.00 -->
      <g transform="translate(24.5 115.877072)scale(0.1 -0.1)">
       <use xlink:href="#DejaVuSans-49"/>
       <use x="63.623047" xlink:href="#DejaVuSans-46"/>
       <use x="95.410156" xlink:href="#DejaVuSans-48"/>
       <use x="159.033203" xlink:href="#DejaVuSans-48"/>
      </g>
     </g>
    </g>
    <g id="ytick_4">
     <g id="line2d_9">
      <g>
       <use style="stroke:#000000;stroke-width:0.8;" x="53.765625" xlink:href="#m7f965710a6" y="76.297011"/>
      </g>
     </g>
     <g id="text_9">
      <!-- 1.05 -->
      <g transform="translate(24.5 80.09623)scale(0.1 -0.1)">
       <use xlink:href="#DejaVuSans-49"/>
       <use x="63.623047" xlink:href="#DejaVuSans-46"/>
       <use x="95.410156" xlink:href="#DejaVuSans-48"/>
       <use x="159.033203" xlink:href="#DejaVuSans-53"/>
      </g>
     </g>
    </g>
    <g id="ytick_5">
     <g id="line2d_10">
      <g>
       <use style="stroke:#000000;stroke-width:0.8;" x="53.765625" xlink:href="#m7f965710a6" y="40.516168"/>
      </g>
     </g>
     <g id="text_10">
      <!-- 1.10 -->
      <g transform="translate(24.5 44.315387)scale(0.1 -0.1)">
       <use xlink:href="#DejaVuSans-49"/>
       <use x="63.623047" xlink:href="#DejaVuSans-46"/>
       <use x="95.410156" xlink:href="#DejaVuSans-49"/>
       <use x="159.033203" xlink:href="#DejaVuSans-48"/>
      </g>
     </g>
    </g>
    <g id="text_11">
     <!-- Current $I_k, k \in \{1,..,5\}$ -->
     <g transform="translate(18.420313 174.555938)rotate(-90)scale(0.1 -0.1)">
      <defs>
       <path d="M 64.40625 67.28125 
L 64.40625 56.890625 
Q 59.421875 61.53125 53.78125 63.8125 
Q 48.140625 66.109375 41.796875 66.109375 
Q 29.296875 66.109375 22.65625 58.46875 
Q 16.015625 50.828125 16.015625 36.375 
Q 16.015625 21.96875 22.65625 14.328125 
Q 29.296875 6.6875 41.796875 6.6875 
Q 48.140625 6.6875 53.78125 8.984375 
Q 59.421875 11.28125 64.40625 15.921875 
L 64.40625 5.609375 
Q 59.234375 2.09375 53.4375 0.328125 
Q 47.65625 -1.421875 41.21875 -1.421875 
Q 24.65625 -1.421875 15.125 8.703125 
Q 5.609375 18.84375 5.609375 36.375 
Q 5.609375 53.953125 15.125 64.078125 
Q 24.65625 74.21875 41.21875 74.21875 
Q 47.75 74.21875 53.53125 72.484375 
Q 59.328125 70.75 64.40625 67.28125 
z
" id="DejaVuSans-67"/>
       <path d="M 8.5 21.578125 
L 8.5 54.6875 
L 17.484375 54.6875 
L 17.484375 21.921875 
Q 17.484375 14.15625 20.5 10.265625 
Q 23.53125 6.390625 29.59375 6.390625 
Q 36.859375 6.390625 41.078125 11.03125 
Q 45.3125 15.671875 45.3125 23.6875 
L 45.3125 54.6875 
L 54.296875 54.6875 
L 54.296875 0 
L 45.3125 0 
L 45.3125 8.40625 
Q 42.046875 3.421875 37.71875 1 
Q 33.40625 -1.421875 27.6875 -1.421875 
Q 18.265625 -1.421875 13.375 4.4375 
Q 8.5 10.296875 8.5 21.578125 
z
M 31.109375 56 
z
" id="DejaVuSans-117"/>
       <path d="M 41.109375 46.296875 
Q 39.59375 47.171875 37.8125 47.578125 
Q 36.03125 48 33.890625 48 
Q 26.265625 48 22.1875 43.046875 
Q 18.109375 38.09375 18.109375 28.8125 
L 18.109375 0 
L 9.078125 0 
L 9.078125 54.6875 
L 18.109375 54.6875 
L 18.109375 46.1875 
Q 20.953125 51.171875 25.484375 53.578125 
Q 30.03125 56 36.53125 56 
Q 37.453125 56 38.578125 55.875 
Q 39.703125 55.765625 41.0625 55.515625 
z
" id="DejaVuSans-114"/>
       <path d="M 56.203125 29.59375 
L 56.203125 25.203125 
L 14.890625 25.203125 
Q 15.484375 15.921875 20.484375 11.0625 
Q 25.484375 6.203125 34.421875 6.203125 
Q 39.59375 6.203125 44.453125 7.46875 
Q 49.3125 8.734375 54.109375 11.28125 
L 54.109375 2.78125 
Q 49.265625 0.734375 44.1875 -0.34375 
Q 39.109375 -1.421875 33.890625 -1.421875 
Q 20.796875 -1.421875 13.15625 6.1875 
Q 5.515625 13.8125 5.515625 26.8125 
Q 5.515625 40.234375 12.765625 48.109375 
Q 20.015625 56 32.328125 56 
Q 43.359375 56 49.78125 48.890625 
Q 56.203125 41.796875 56.203125 29.59375 
z
M 47.21875 32.234375 
Q 47.125 39.59375 43.09375 43.984375 
Q 39.0625 48.390625 32.421875 48.390625 
Q 24.90625 48.390625 20.390625 44.140625 
Q 15.875 39.890625 15.1875 32.171875 
z
" id="DejaVuSans-101"/>
       <path d="M 54.890625 33.015625 
L 54.890625 0 
L 45.90625 0 
L 45.90625 32.71875 
Q 45.90625 40.484375 42.875 44.328125 
Q 39.84375 48.1875 33.796875 48.1875 
Q 26.515625 48.1875 22.3125 43.546875 
Q 18.109375 38.921875 18.109375 30.90625 
L 18.109375 0 
L 9.078125 0 
L 9.078125 54.6875 
L 18.109375 54.6875 
L 18.109375 46.1875 
Q 21.34375 51.125 25.703125 53.5625 
Q 30.078125 56 35.796875 56 
Q 45.21875 56 50.046875 50.171875 
Q 54.890625 44.34375 54.890625 33.015625 
z
" id="DejaVuSans-110"/>
       <path d="M 18.3125 70.21875 
L 18.3125 54.6875 
L 36.8125 54.6875 
L 36.8125 47.703125 
L 18.3125 47.703125 
L 18.3125 18.015625 
Q 18.3125 11.328125 20.140625 9.421875 
Q 21.96875 7.515625 27.59375 7.515625 
L 36.8125 7.515625 
L 36.8125 0 
L 27.59375 0 
Q 17.1875 0 13.234375 3.875 
Q 9.28125 7.765625 9.28125 18.015625 
L 9.28125 47.703125 
L 2.6875 47.703125 
L 2.6875 54.6875 
L 9.28125 54.6875 
L 9.28125 70.21875 
z
" id="DejaVuSans-116"/>
       <path id="DejaVuSans-32"/>
       <path d="M 16.890625 72.90625 
L 26.8125 72.90625 
L 12.59375 0 
L 2.6875 0 
z
" id="DejaVuSans-Oblique-73"/>
       <path d="M 18.3125 75.984375 
L 27.296875 75.984375 
L 18.703125 31.6875 
L 49.515625 54.6875 
L 61.1875 54.6875 
L 26.8125 28.515625 
L 51.90625 0 
L 41.015625 0 
L 17.671875 26.703125 
L 12.5 0 
L 3.515625 0 
z
" id="DejaVuSans-Oblique-107"/>
       <path d="M 11.71875 12.40625 
L 22.015625 12.40625 
L 22.015625 4 
L 14.015625 -11.625 
L 7.71875 -11.625 
L 11.71875 4 
z
" id="DejaVuSans-44"/>
       <path d="M 16.75 30.609375 
Q 17.09375 27 20.171875 21.140625 
Q 23.78125 14.359375 30.609375 10.546875 
Q 37.3125 6.84375 44.53125 6.78125 
L 78.5625 6.78125 
L 78.5625 -0.984375 
L 44.53125 -0.984375 
Q 35.15625 -0.984375 26.484375 3.84375 
Q 17.828125 8.6875 13.1875 17.28125 
Q 8.546875 25.875 8.546875 35.015625 
Q 8.546875 44.046875 13.1875 52.640625 
Q 17.828125 61.234375 26.484375 66.109375 
Q 35.15625 71 44.53125 71 
L 78.5625 71 
L 78.5625 63.234375 
L 44.53125 63.234375 
Q 37.3125 63.1875 30.609375 59.421875 
Q 23.828125 55.5625 20.171875 48.828125 
Q 17.046875 42.96875 16.609375 38.421875 
L 78.5625 38.421875 
L 78.5625 30.609375 
z
" id="DejaVuSans-8712"/>
       <path d="M 51.125 -9.28125 
L 51.125 -16.3125 
L 48.09375 -16.3125 
Q 35.9375 -16.3125 31.8125 -12.6875 
Q 27.6875 -9.078125 27.6875 1.703125 
L 27.6875 13.375 
Q 27.6875 20.75 25.046875 23.578125 
Q 22.40625 26.421875 15.484375 26.421875 
L 12.5 26.421875 
L 12.5 33.40625 
L 15.484375 33.40625 
Q 22.46875 33.40625 25.078125 36.203125 
Q 27.6875 39.015625 27.6875 46.296875 
L 27.6875 58.015625 
Q 27.6875 68.796875 31.8125 72.390625 
Q 35.9375 75.984375 48.09375 75.984375 
L 51.125 75.984375 
L 51.125 69 
L 47.796875 69 
Q 40.921875 69 38.8125 66.84375 
Q 36.71875 64.703125 36.71875 57.8125 
L 36.71875 45.703125 
Q 36.71875 38.03125 34.5 34.5625 
Q 32.28125 31.109375 26.90625 29.890625 
Q 32.328125 28.5625 34.515625 25.09375 
Q 36.71875 21.625 36.71875 14.015625 
L 36.71875 1.90625 
Q 36.71875 -4.984375 38.8125 -7.125 
Q 40.921875 -9.28125 47.796875 -9.28125 
z
" id="DejaVuSans-123"/>
       <path d="M 12.5 -9.28125 
L 15.921875 -9.28125 
Q 22.75 -9.28125 24.828125 -7.171875 
Q 26.90625 -5.078125 26.90625 1.90625 
L 26.90625 14.015625 
Q 26.90625 21.625 29.09375 25.09375 
Q 31.296875 28.5625 36.71875 29.890625 
Q 31.296875 31.109375 29.09375 34.5625 
Q 26.90625 38.03125 26.90625 45.703125 
L 26.90625 57.8125 
Q 26.90625 64.75 24.828125 66.875 
Q 22.75 69 15.921875 69 
L 12.5 69 
L 12.5 75.984375 
L 15.578125 75.984375 
Q 27.734375 75.984375 31.8125 72.390625 
Q 35.890625 68.796875 35.890625 58.015625 
L 35.890625 46.296875 
Q 35.890625 39.015625 38.515625 36.203125 
Q 41.15625 33.40625 48.09375 33.40625 
L 51.125 33.40625 
L 51.125 26.421875 
L 48.09375 26.421875 
Q 41.15625 26.421875 38.515625 23.578125 
Q 35.890625 20.75 35.890625 13.375 
L 35.890625 1.703125 
Q 35.890625 -9.078125 31.8125 -12.6875 
Q 27.734375 -16.3125 15.578125 -16.3125 
L 12.5 -16.3125 
z
" id="DejaVuSans-125"/>
      </defs>
      <use transform="translate(0 0.015625)" xlink:href="#DejaVuSans-67"/>
      <use transform="translate(69.824219 0.015625)" xlink:href="#DejaVuSans-117"/>
      <use transform="translate(133.203125 0.015625)" xlink:href="#DejaVuSans-114"/>
      <use transform="translate(174.316406 0.015625)" xlink:href="#DejaVuSans-114"/>
      <use transform="translate(215.429688 0.015625)" xlink:href="#DejaVuSans-101"/>
      <use transform="translate(276.953125 0.015625)" xlink:href="#DejaVuSans-110"/>
      <use transform="translate(340.332031 0.015625)" xlink:href="#DejaVuSans-116"/>
      <use transform="translate(379.541016 0.015625)" xlink:href="#DejaVuSans-32"/>
      <use transform="translate(411.328125 0.015625)" xlink:href="#DejaVuSans-Oblique-73"/>
      <use transform="translate(440.820312 -16.390625)scale(0.7)" xlink:href="#DejaVuSans-Oblique-107"/>
      <use transform="translate(484.091797 0.015625)" xlink:href="#DejaVuSans-44"/>
      <use transform="translate(535.361328 0.015625)" xlink:href="#DejaVuSans-Oblique-107"/>
      <use transform="translate(612.753906 0.015625)" xlink:href="#DejaVuSans-8712"/>
      <use transform="translate(719.345703 0.015625)" xlink:href="#DejaVuSans-123"/>
      <use transform="translate(782.96875 0.015625)" xlink:href="#DejaVuSans-49"/>
      <use transform="translate(846.591797 0.015625)" xlink:href="#DejaVuSans-44"/>
      <use transform="translate(897.861328 0.015625)" xlink:href="#DejaVuSans-46"/>
      <use transform="translate(949.130859 0.015625)" xlink:href="#DejaVuSans-46"/>
      <use transform="translate(1000.400391 0.015625)" xlink:href="#DejaVuSans-44"/>
      <use transform="translate(1051.669922 0.015625)" xlink:href="#DejaVuSans-53"/>
      <use transform="translate(1113.542969 0.015625)" xlink:href="#DejaVuSans-125"/>
     </g>
    </g>
   </g>
   <g id="line2d_11">
    <path clip-path="url(#pcb0128834d)" d="M 100.803551 183.639538 
L 414.389725 183.639538 
L 414.502616 40.516168 
L 623.447175 40.516168 
L 623.560066 183.639538 
L 1041.562074 183.639538 
L 1041.562074 183.639538 
" style="fill:none;stroke:#aa3863;stroke-linecap:square;stroke-opacity:0.75;stroke-width:1.5;"/>
   </g>
   <g id="line2d_12">
    <path clip-path="url(#pcb0128834d)" d="M 100.803551 169.327201 
L 414.389725 169.327201 
L 414.502616 40.516168 
L 623.447175 40.516168 
L 623.560066 169.327201 
L 1041.562074 169.327201 
L 1041.562074 169.327201 
" style="fill:none;stroke:#d97020;stroke-linecap:square;stroke-opacity:0.75;stroke-width:1.5;"/>
   </g>
   <g id="line2d_13">
    <path clip-path="url(#pcb0128834d)" d="M 100.803551 155.014864 
L 414.389725 155.014864 
L 414.502616 40.516168 
L 623.447175 40.516168 
L 623.560066 155.014864 
L 1041.562074 155.014864 
L 1041.562074 155.014864 
" style="fill:none;stroke:#ef9f07;stroke-linecap:square;stroke-opacity:0.75;stroke-width:1.5;"/>
   </g>
   <g id="line2d_14">
    <path clip-path="url(#pcb0128834d)" d="M 100.803551 140.702527 
L 414.389725 140.702527 
L 414.502616 40.516168 
L 623.447175 40.516168 
L 623.560066 140.702527 
L 1041.562074 140.702527 
L 1041.562074 140.702527 
" style="fill:none;stroke:#449775;stroke-linecap:square;stroke-opacity:0.75;stroke-width:1.5;"/>
   </g>
   <g id="line2d_15">
    <path clip-path="url(#pcb0128834d)" d="M 100.803551 126.39019 
L 414.389725 126.39019 
L 414.502616 40.516168 
L 623.447175 40.516168 
L 623.560066 126.39019 
L 1041.562074 126.39019 
L 1041.562074 126.39019 
" style="fill:none;stroke:#3b7d86;stroke-linecap:square;stroke-opacity:0.75;stroke-width:1.5;"/>
   </g>
   <g id="patch_3">
    <path d="M 53.765625 197.951875 
L 53.765625 33.36 
" style="fill:none;stroke:#000000;stroke-linecap:square;stroke-linejoin:miter;stroke-width:0.8;"/>
   </g>
   <g id="patch_4">
    <path d="M 1088.6 197.951875 
L 1088.6 33.36 
" style="fill:none;stroke:#000000;stroke-linecap:square;stroke-linejoin:miter;stroke-width:0.8;"/>
   </g>
   <g id="patch_5">
    <path d="M 53.765625 197.951875 
L 1088.6 197.951875 
" style="fill:none;stroke:#000000;stroke-linecap:square;stroke-linejoin:miter;stroke-width:0.8;"/>
   </g>
   <g id="patch_6">
    <path d="M 53.765625 33.36 
L 1088.6 33.36 
" style="fill:none;stroke:#000000;stroke-linecap:square;stroke-linejoin:miter;stroke-width:0.8;"/>
   </g>
   <g id="legend_1">
    <g id="patch_7">
     <path d="M 1096.228805 114.750625 
L 1135.928805 114.750625 
Q 1137.928805 114.750625 1137.928805 112.750625 
L 1137.928805 40.36 
Q 1137.928805 38.36 1135.928805 38.36 
L 1096.228805 38.36 
Q 1094.228805 38.36 1094.228805 40.36 
L 1094.228805 112.750625 
Q 1094.228805 114.750625 1096.228805 114.750625 
z
" style="fill:#ffffff;opacity:0.8;stroke:#cccccc;stroke-linejoin:miter;"/>
    </g>
    <g id="line2d_16">
     <path d="M 1098.228805 46.458438 
L 1118.228805 46.458438 
" style="fill:none;stroke:#aa3863;stroke-linecap:square;stroke-opacity:0.75;stroke-width:1.5;"/>
    </g>
    <g id="line2d_17"/>
    <g id="text_12">
     <!-- $I_1$ -->
     <g transform="translate(1126.228805 49.958438)scale(0.1 -0.1)">
      <use transform="translate(0 0.09375)" xlink:href="#DejaVuSans-Oblique-73"/>
      <use transform="translate(29.492188 -16.3125)scale(0.7)" xlink:href="#DejaVuSans-49"/>
     </g>
    </g>
    <g id="line2d_18">
     <path d="M 1098.228805 61.136563 
L 1118.228805 61.136563 
" style="fill:none;stroke:#d97020;stroke-linecap:square;stroke-opacity:0.75;stroke-width:1.5;"/>
    </g>
    <g id="line2d_19"/>
    <g id="text_13">
     <!-- $I_2$ -->
     <g transform="translate(1126.228805 64.636563)scale(0.1 -0.1)">
      <use transform="translate(0 0.09375)" xlink:href="#DejaVuSans-Oblique-73"/>
      <use transform="translate(29.492188 -16.3125)scale(0.7)" xlink:href="#DejaVuSans-50"/>
     </g>
    </g>
    <g id="line2d_20">
     <path d="M 1098.228805 75.814688 
L 1118.228805 75.814688 
" style="fill:none;stroke:#ef9f07;stroke-linecap:square;stroke-opacity:0.75;stroke-width:1.5;"/>
    </g>
    <g id="line2d_21"/>
    <g id="text_14">
     <!-- $I_3$ -->
     <g transform="translate(1126.228805 79.314688)scale(0.1 -0.1)">
      <use transform="translate(0 0.09375)" xlink:href="#DejaVuSans-Oblique-73"/>
      <use transform="translate(29.492188 -16.3125)scale(0.7)" xlink:href="#DejaVuSans-51"/>
     </g>
    </g>
    <g id="line2d_22">
     <path d="M 1098.228805 90.492813 
L 1118.228805 90.492813 
" style="fill:none;stroke:#449775;stroke-linecap:square;stroke-opacity:0.75;stroke-width:1.5;"/>
    </g>
    <g id="line2d_23"/>
    <g id="text_15">
     <!-- $I_4$ -->
     <g transform="translate(1126.228805 93.992813)scale(0.1 -0.1)">
      <use transform="translate(0 0.09375)" xlink:href="#DejaVuSans-Oblique-73"/>
      <use transform="translate(29.492188 -16.3125)scale(0.7)" xlink:href="#DejaVuSans-52"/>
     </g>
    </g>
    <g id="line2d_24">
     <path d="M 1098.228805 105.170938 
L 1118.228805 105.170938 
" style="fill:none;stroke:#3b7d86;stroke-linecap:square;stroke-opacity:0.75;stroke-width:1.5;"/>
    </g>
    <g id="line2d_25"/>
    <g id="text_16">
     <!-- $I_5$ -->
     <g transform="translate(1126.228805 108.670938)scale(0.1 -0.1)">
      <use transform="translate(0 0.09375)" xlink:href="#DejaVuSans-Oblique-73"/>
      <use transform="translate(29.492188 -16.3125)scale(0.7)" xlink:href="#DejaVuSans-53"/>
     </g>
    </g>
   </g>
  </g>
  <g id="axes_2">
   <g id="patch_8">
    <path d="M 53.765625 390.021875 
L 1088.6 390.021875 
L 1088.6 225.43 
L 53.765625 225.43 
z
" style="fill:#ffffff;"/>
   </g>
   <g id="matplotlib.axis_3">
    <g id="xtick_6">
     <g id="line2d_26">
      <g>
       <use style="stroke:#000000;stroke-width:0.8;" x="100.803551" xlink:href="#m4a6dbffaa0" y="390.021875"/>
      </g>
     </g>
     <g id="text_17">
      <!-- 0 -->
      <g transform="translate(97.622301 404.620312)scale(0.1 -0.1)">
       <use xlink:href="#DejaVuSans-48"/>
      </g>
     </g>
    </g>
    <g id="xtick_7">
     <g id="line2d_27">
      <g>
       <use style="stroke:#000000;stroke-width:0.8;" x="309.861001" xlink:href="#m4a6dbffaa0" y="390.021875"/>
      </g>
     </g>
     <g id="text_18">
      <!-- 10 -->
      <g transform="translate(303.498501 404.620312)scale(0.1 -0.1)">
       <use xlink:href="#DejaVuSans-49"/>
       <use x="63.623047" xlink:href="#DejaVuSans-48"/>
      </g>
     </g>
    </g>
    <g id="xtick_8">
     <g id="line2d_28">
      <g>
       <use style="stroke:#000000;stroke-width:0.8;" x="518.91845" xlink:href="#m4a6dbffaa0" y="390.021875"/>
      </g>
     </g>
     <g id="text_19">
      <!-- 20 -->
      <g transform="translate(512.55595 404.620312)scale(0.1 -0.1)">
       <use xlink:href="#DejaVuSans-50"/>
       <use x="63.623047" xlink:href="#DejaVuSans-48"/>
      </g>
     </g>
    </g>
    <g id="xtick_9">
     <g id="line2d_29">
      <g>
       <use style="stroke:#000000;stroke-width:0.8;" x="727.9759" xlink:href="#m4a6dbffaa0" y="390.021875"/>
      </g>
     </g>
     <g id="text_20">
      <!-- 30 -->
      <g transform="translate(721.6134 404.620312)scale(0.1 -0.1)">
       <use xlink:href="#DejaVuSans-51"/>
       <use x="63.623047" xlink:href="#DejaVuSans-48"/>
      </g>
     </g>
    </g>
    <g id="xtick_10">
     <g id="line2d_30">
      <g>
       <use style="stroke:#000000;stroke-width:0.8;" x="937.033349" xlink:href="#m4a6dbffaa0" y="390.021875"/>
      </g>
     </g>
     <g id="text_21">
      <!-- 40 -->
      <g transform="translate(930.670849 404.620312)scale(0.1 -0.1)">
       <use xlink:href="#DejaVuSans-52"/>
       <use x="63.623047" xlink:href="#DejaVuSans-48"/>
      </g>
     </g>
    </g>
    <g id="text_22">
     <!-- Time ($10^{-2}$ seconds) -->
     <g transform="translate(519.532813 419.120312)scale(0.1 -0.1)">
      <defs>
       <path d="M -0.296875 72.90625 
L 61.375 72.90625 
L 61.375 64.59375 
L 35.5 64.59375 
L 35.5 0 
L 25.59375 0 
L 25.59375 64.59375 
L -0.296875 64.59375 
z
" id="DejaVuSans-84"/>
       <path d="M 9.421875 54.6875 
L 18.40625 54.6875 
L 18.40625 0 
L 9.421875 0 
z
M 9.421875 75.984375 
L 18.40625 75.984375 
L 18.40625 64.59375 
L 9.421875 64.59375 
z
" id="DejaVuSans-105"/>
       <path d="M 52 44.1875 
Q 55.375 50.25 60.0625 53.125 
Q 64.75 56 71.09375 56 
Q 79.640625 56 84.28125 50.015625 
Q 88.921875 44.046875 88.921875 33.015625 
L 88.921875 0 
L 79.890625 0 
L 79.890625 32.71875 
Q 79.890625 40.578125 77.09375 44.375 
Q 74.3125 48.1875 68.609375 48.1875 
Q 61.625 48.1875 57.5625 43.546875 
Q 53.515625 38.921875 53.515625 30.90625 
L 53.515625 0 
L 44.484375 0 
L 44.484375 32.71875 
Q 44.484375 40.625 41.703125 44.40625 
Q 38.921875 48.1875 33.109375 48.1875 
Q 26.21875 48.1875 22.15625 43.53125 
Q 18.109375 38.875 18.109375 30.90625 
L 18.109375 0 
L 9.078125 0 
L 9.078125 54.6875 
L 18.109375 54.6875 
L 18.109375 46.1875 
Q 21.1875 51.21875 25.484375 53.609375 
Q 29.78125 56 35.6875 56 
Q 41.65625 56 45.828125 52.96875 
Q 50 49.953125 52 44.1875 
z
" id="DejaVuSans-109"/>
       <path d="M 31 75.875 
Q 24.46875 64.65625 21.28125 53.65625 
Q 18.109375 42.671875 18.109375 31.390625 
Q 18.109375 20.125 21.3125 9.0625 
Q 24.515625 -2 31 -13.1875 
L 23.1875 -13.1875 
Q 15.875 -1.703125 12.234375 9.375 
Q 8.59375 20.453125 8.59375 31.390625 
Q 8.59375 42.28125 12.203125 53.3125 
Q 15.828125 64.359375 23.1875 75.875 
z
" id="DejaVuSans-40"/>
       <path d="M 10.59375 35.5 
L 73.1875 35.5 
L 73.1875 27.203125 
L 10.59375 27.203125 
z
" id="DejaVuSans-8722"/>
       <path d="M 44.28125 53.078125 
L 44.28125 44.578125 
Q 40.484375 46.53125 36.375 47.5 
Q 32.28125 48.484375 27.875 48.484375 
Q 21.1875 48.484375 17.84375 46.4375 
Q 14.5 44.390625 14.5 40.28125 
Q 14.5 37.15625 16.890625 35.375 
Q 19.28125 33.59375 26.515625 31.984375 
L 29.59375 31.296875 
Q 39.15625 29.25 43.1875 25.515625 
Q 47.21875 21.78125 47.21875 15.09375 
Q 47.21875 7.46875 41.1875 3.015625 
Q 35.15625 -1.421875 24.609375 -1.421875 
Q 20.21875 -1.421875 15.453125 -0.5625 
Q 10.6875 0.296875 5.421875 2 
L 5.421875 11.28125 
Q 10.40625 8.6875 15.234375 7.390625 
Q 20.0625 6.109375 24.8125 6.109375 
Q 31.15625 6.109375 34.5625 8.28125 
Q 37.984375 10.453125 37.984375 14.40625 
Q 37.984375 18.0625 35.515625 20.015625 
Q 33.0625 21.96875 24.703125 23.78125 
L 21.578125 24.515625 
Q 13.234375 26.265625 9.515625 29.90625 
Q 5.8125 33.546875 5.8125 39.890625 
Q 5.8125 47.609375 11.28125 51.796875 
Q 16.75 56 26.8125 56 
Q 31.78125 56 36.171875 55.265625 
Q 40.578125 54.546875 44.28125 53.078125 
z
" id="DejaVuSans-115"/>
       <path d="M 48.78125 52.59375 
L 48.78125 44.1875 
Q 44.96875 46.296875 41.140625 47.34375 
Q 37.3125 48.390625 33.40625 48.390625 
Q 24.65625 48.390625 19.8125 42.84375 
Q 14.984375 37.3125 14.984375 27.296875 
Q 14.984375 17.28125 19.8125 11.734375 
Q 24.65625 6.203125 33.40625 6.203125 
Q 37.3125 6.203125 41.140625 7.25 
Q 44.96875 8.296875 48.78125 10.40625 
L 48.78125 2.09375 
Q 45.015625 0.34375 40.984375 -0.53125 
Q 36.96875 -1.421875 32.421875 -1.421875 
Q 20.0625 -1.421875 12.78125 6.34375 
Q 5.515625 14.109375 5.515625 27.296875 
Q 5.515625 40.671875 12.859375 48.328125 
Q 20.21875 56 33.015625 56 
Q 37.15625 56 41.109375 55.140625 
Q 45.0625 54.296875 48.78125 52.59375 
z
" id="DejaVuSans-99"/>
       <path d="M 30.609375 48.390625 
Q 23.390625 48.390625 19.1875 42.75 
Q 14.984375 37.109375 14.984375 27.296875 
Q 14.984375 17.484375 19.15625 11.84375 
Q 23.34375 6.203125 30.609375 6.203125 
Q 37.796875 6.203125 41.984375 11.859375 
Q 46.1875 17.53125 46.1875 27.296875 
Q 46.1875 37.015625 41.984375 42.703125 
Q 37.796875 48.390625 30.609375 48.390625 
z
M 30.609375 56 
Q 42.328125 56 49.015625 48.375 
Q 55.71875 40.765625 55.71875 27.296875 
Q 55.71875 13.875 49.015625 6.21875 
Q 42.328125 -1.421875 30.609375 -1.421875 
Q 18.84375 -1.421875 12.171875 6.21875 
Q 5.515625 13.875 5.515625 27.296875 
Q 5.515625 40.765625 12.171875 48.375 
Q 18.84375 56 30.609375 56 
z
" id="DejaVuSans-111"/>
       <path d="M 45.40625 46.390625 
L 45.40625 75.984375 
L 54.390625 75.984375 
L 54.390625 0 
L 45.40625 0 
L 45.40625 8.203125 
Q 42.578125 3.328125 38.25 0.953125 
Q 33.9375 -1.421875 27.875 -1.421875 
Q 17.96875 -1.421875 11.734375 6.484375 
Q 5.515625 14.40625 5.515625 27.296875 
Q 5.515625 40.1875 11.734375 48.09375 
Q 17.96875 56 27.875 56 
Q 33.9375 56 38.25 53.625 
Q 42.578125 51.265625 45.40625 46.390625 
z
M 14.796875 27.296875 
Q 14.796875 17.390625 18.875 11.75 
Q 22.953125 6.109375 30.078125 6.109375 
Q 37.203125 6.109375 41.296875 11.75 
Q 45.40625 17.390625 45.40625 27.296875 
Q 45.40625 37.203125 41.296875 42.84375 
Q 37.203125 48.484375 30.078125 48.484375 
Q 22.953125 48.484375 18.875 42.84375 
Q 14.796875 37.203125 14.796875 27.296875 
z
" id="DejaVuSans-100"/>
       <path d="M 8.015625 75.875 
L 15.828125 75.875 
Q 23.140625 64.359375 26.78125 53.3125 
Q 30.421875 42.28125 30.421875 31.390625 
Q 30.421875 20.453125 26.78125 9.375 
Q 23.140625 -1.703125 15.828125 -13.1875 
L 8.015625 -13.1875 
Q 14.5 -2 17.703125 9.0625 
Q 20.90625 20.125 20.90625 31.390625 
Q 20.90625 42.671875 17.703125 53.65625 
Q 14.5 64.65625 8.015625 75.875 
z
" id="DejaVuSans-41"/>
      </defs>
      <use transform="translate(0 0.765625)" xlink:href="#DejaVuSans-84"/>
      <use transform="translate(61.083984 0.765625)" xlink:href="#DejaVuSans-105"/>
      <use transform="translate(88.867188 0.765625)" xlink:href="#DejaVuSans-109"/>
      <use transform="translate(186.279297 0.765625)" xlink:href="#DejaVuSans-101"/>
      <use transform="translate(247.802734 0.765625)" xlink:href="#DejaVuSans-32"/>
      <use transform="translate(279.589844 0.765625)" xlink:href="#DejaVuSans-40"/>
      <use transform="translate(318.603516 0.765625)" xlink:href="#DejaVuSans-49"/>
      <use transform="translate(382.226562 0.765625)" xlink:href="#DejaVuSans-48"/>
      <use transform="translate(446.806641 39.046875)scale(0.7)" xlink:href="#DejaVuSans-8722"/>
      <use transform="translate(505.458984 39.046875)scale(0.7)" xlink:href="#DejaVuSans-50"/>
      <use transform="translate(552.729492 0.765625)" xlink:href="#DejaVuSans-32"/>
      <use transform="translate(584.516602 0.765625)" xlink:href="#DejaVuSans-115"/>
      <use transform="translate(636.616211 0.765625)" xlink:href="#DejaVuSans-101"/>
      <use transform="translate(698.139648 0.765625)" xlink:href="#DejaVuSans-99"/>
      <use transform="translate(753.120117 0.765625)" xlink:href="#DejaVuSans-111"/>
      <use transform="translate(814.301758 0.765625)" xlink:href="#DejaVuSans-110"/>
      <use transform="translate(877.680664 0.765625)" xlink:href="#DejaVuSans-100"/>
      <use transform="translate(941.157227 0.765625)" xlink:href="#DejaVuSans-115"/>
      <use transform="translate(993.256836 0.765625)" xlink:href="#DejaVuSans-41"/>
     </g>
    </g>
   </g>
   <g id="matplotlib.axis_4">
    <g id="ytick_6">
     <g id="line2d_31">
      <g>
       <use style="stroke:#000000;stroke-width:0.8;" x="53.765625" xlink:href="#m7f965710a6" y="382.540426"/>
      </g>
     </g>
     <g id="text_23">
      <!-- 0.00 -->
      <g transform="translate(24.5 386.339645)scale(0.1 -0.1)">
       <use xlink:href="#DejaVuSans-48"/>
       <use x="63.623047" xlink:href="#DejaVuSans-46"/>
       <use x="95.410156" xlink:href="#DejaVuSans-48"/>
       <use x="159.033203" xlink:href="#DejaVuSans-48"/>
      </g>
     </g>
    </g>
    <g id="ytick_7">
     <g id="line2d_32">
      <g>
       <use style="stroke:#000000;stroke-width:0.8;" x="53.765625" xlink:href="#m7f965710a6" y="357.602263"/>
      </g>
     </g>
     <g id="text_24">
      <!-- 0.25 -->
      <g transform="translate(24.5 361.401482)scale(0.1 -0.1)">
       <use xlink:href="#DejaVuSans-48"/>
       <use x="63.623047" xlink:href="#DejaVuSans-46"/>
       <use x="95.410156" xlink:href="#DejaVuSans-50"/>
       <use x="159.033203" xlink:href="#DejaVuSans-53"/>
      </g>
     </g>
    </g>
    <g id="ytick_8">
     <g id="line2d_33">
      <g>
       <use style="stroke:#000000;stroke-width:0.8;" x="53.765625" xlink:href="#m7f965710a6" y="332.6641"/>
      </g>
     </g>
     <g id="text_25">
      <!-- 0.50 -->
      <g transform="translate(24.5 336.463319)scale(0.1 -0.1)">
       <use xlink:href="#DejaVuSans-48"/>
       <use x="63.623047" xlink:href="#DejaVuSans-46"/>
       <use x="95.410156" xlink:href="#DejaVuSans-53"/>
       <use x="159.033203" xlink:href="#DejaVuSans-48"/>
      </g>
     </g>
    </g>
    <g id="ytick_9">
     <g id="line2d_34">
      <g>
       <use style="stroke:#000000;stroke-width:0.8;" x="53.765625" xlink:href="#m7f965710a6" y="307.725938"/>
      </g>
     </g>
     <g id="text_26">
      <!-- 0.75 -->
      <g transform="translate(24.5 311.525156)scale(0.1 -0.1)">
       <defs>
        <path d="M 8.203125 72.90625 
L 55.078125 72.90625 
L 55.078125 68.703125 
L 28.609375 0 
L 18.3125 0 
L 43.21875 64.59375 
L 8.203125 64.59375 
z
" id="DejaVuSans-55"/>
       </defs>
       <use xlink:href="#DejaVuSans-48"/>
       <use x="63.623047" xlink:href="#DejaVuSans-46"/>
       <use x="95.410156" xlink:href="#DejaVuSans-55"/>
       <use x="159.033203" xlink:href="#DejaVuSans-53"/>
      </g>
     </g>
    </g>
    <g id="ytick_10">
     <g id="line2d_35">
      <g>
       <use style="stroke:#000000;stroke-width:0.8;" x="53.765625" xlink:href="#m7f965710a6" y="282.787775"/>
      </g>
     </g>
     <g id="text_27">
      <!-- 1.00 -->
      <g transform="translate(24.5 286.586993)scale(0.1 -0.1)">
       <use xlink:href="#DejaVuSans-49"/>
       <use x="63.623047" xlink:href="#DejaVuSans-46"/>
       <use x="95.410156" xlink:href="#DejaVuSans-48"/>
       <use x="159.033203" xlink:href="#DejaVuSans-48"/>
      </g>
     </g>
    </g>
    <g id="ytick_11">
     <g id="line2d_36">
      <g>
       <use style="stroke:#000000;stroke-width:0.8;" x="53.765625" xlink:href="#m7f965710a6" y="257.849612"/>
      </g>
     </g>
     <g id="text_28">
      <!-- 1.25 -->
      <g transform="translate(24.5 261.64883)scale(0.1 -0.1)">
       <use xlink:href="#DejaVuSans-49"/>
       <use x="63.623047" xlink:href="#DejaVuSans-46"/>
       <use x="95.410156" xlink:href="#DejaVuSans-50"/>
       <use x="159.033203" xlink:href="#DejaVuSans-53"/>
      </g>
     </g>
    </g>
    <g id="ytick_12">
     <g id="line2d_37">
      <g>
       <use style="stroke:#000000;stroke-width:0.8;" x="53.765625" xlink:href="#m7f965710a6" y="232.911449"/>
      </g>
     </g>
     <g id="text_29">
      <!-- 1.50 -->
      <g transform="translate(24.5 236.710668)scale(0.1 -0.1)">
       <use xlink:href="#DejaVuSans-49"/>
       <use x="63.623047" xlink:href="#DejaVuSans-46"/>
       <use x="95.410156" xlink:href="#DejaVuSans-53"/>
       <use x="159.033203" xlink:href="#DejaVuSans-48"/>
      </g>
     </g>
    </g>
    <g id="text_30">
     <!-- Voltage $V_k, k \in \{1,..,5\}$ -->
     <g transform="translate(18.4 368.725937)rotate(-90)scale(0.1 -0.1)">
      <defs>
       <path d="M 28.609375 0 
L 0.78125 72.90625 
L 11.078125 72.90625 
L 34.1875 11.53125 
L 57.328125 72.90625 
L 67.578125 72.90625 
L 39.796875 0 
z
" id="DejaVuSans-86"/>
       <path d="M 9.421875 75.984375 
L 18.40625 75.984375 
L 18.40625 0 
L 9.421875 0 
z
" id="DejaVuSans-108"/>
       <path d="M 34.28125 27.484375 
Q 23.390625 27.484375 19.1875 25 
Q 14.984375 22.515625 14.984375 16.5 
Q 14.984375 11.71875 18.140625 8.90625 
Q 21.296875 6.109375 26.703125 6.109375 
Q 34.1875 6.109375 38.703125 11.40625 
Q 43.21875 16.703125 43.21875 25.484375 
L 43.21875 27.484375 
z
M 52.203125 31.203125 
L 52.203125 0 
L 43.21875 0 
L 43.21875 8.296875 
Q 40.140625 3.328125 35.546875 0.953125 
Q 30.953125 -1.421875 24.3125 -1.421875 
Q 15.921875 -1.421875 10.953125 3.296875 
Q 6 8.015625 6 15.921875 
Q 6 25.140625 12.171875 29.828125 
Q 18.359375 34.515625 30.609375 34.515625 
L 43.21875 34.515625 
L 43.21875 35.40625 
Q 43.21875 41.609375 39.140625 45 
Q 35.0625 48.390625 27.6875 48.390625 
Q 23 48.390625 18.546875 47.265625 
Q 14.109375 46.140625 10.015625 43.890625 
L 10.015625 52.203125 
Q 14.9375 54.109375 19.578125 55.046875 
Q 24.21875 56 28.609375 56 
Q 40.484375 56 46.34375 49.84375 
Q 52.203125 43.703125 52.203125 31.203125 
z
" id="DejaVuSans-97"/>
       <path d="M 45.40625 27.984375 
Q 45.40625 37.75 41.375 43.109375 
Q 37.359375 48.484375 30.078125 48.484375 
Q 22.859375 48.484375 18.828125 43.109375 
Q 14.796875 37.75 14.796875 27.984375 
Q 14.796875 18.265625 18.828125 12.890625 
Q 22.859375 7.515625 30.078125 7.515625 
Q 37.359375 7.515625 41.375 12.890625 
Q 45.40625 18.265625 45.40625 27.984375 
z
M 54.390625 6.78125 
Q 54.390625 -7.171875 48.1875 -13.984375 
Q 42 -20.796875 29.203125 -20.796875 
Q 24.46875 -20.796875 20.265625 -20.09375 
Q 16.0625 -19.390625 12.109375 -17.921875 
L 12.109375 -9.1875 
Q 16.0625 -11.328125 19.921875 -12.34375 
Q 23.78125 -13.375 27.78125 -13.375 
Q 36.625 -13.375 41.015625 -8.765625 
Q 45.40625 -4.15625 45.40625 5.171875 
L 45.40625 9.625 
Q 42.625 4.78125 38.28125 2.390625 
Q 33.9375 0 27.875 0 
Q 17.828125 0 11.671875 7.65625 
Q 5.515625 15.328125 5.515625 27.984375 
Q 5.515625 40.671875 11.671875 48.328125 
Q 17.828125 56 27.875 56 
Q 33.9375 56 38.28125 53.609375 
Q 42.625 51.21875 45.40625 46.390625 
L 45.40625 54.6875 
L 54.390625 54.6875 
z
" id="DejaVuSans-103"/>
       <path d="M 20.609375 0 
L 7.8125 72.90625 
L 17.484375 72.90625 
L 28.078125 10.203125 
L 63.484375 72.90625 
L 74.21875 72.90625 
L 32.078125 0 
z
" id="DejaVuSans-Oblique-86"/>
      </defs>
      <use transform="translate(0 0.015625)" xlink:href="#DejaVuSans-86"/>
      <use transform="translate(68.408203 0.015625)" xlink:href="#DejaVuSans-111"/>
      <use transform="translate(129.589844 0.015625)" xlink:href="#DejaVuSans-108"/>
      <use transform="translate(157.373047 0.015625)" xlink:href="#DejaVuSans-116"/>
      <use transform="translate(196.582031 0.015625)" xlink:href="#DejaVuSans-97"/>
      <use transform="translate(257.861328 0.015625)" xlink:href="#DejaVuSans-103"/>
      <use transform="translate(321.337891 0.015625)" xlink:href="#DejaVuSans-101"/>
      <use transform="translate(382.861328 0.015625)" xlink:href="#DejaVuSans-32"/>
      <use transform="translate(414.648438 0.015625)" xlink:href="#DejaVuSans-Oblique-86"/>
      <use transform="translate(483.056641 -16.390625)scale(0.7)" xlink:href="#DejaVuSans-Oblique-107"/>
      <use transform="translate(526.328125 0.015625)" xlink:href="#DejaVuSans-44"/>
      <use transform="translate(577.597656 0.015625)" xlink:href="#DejaVuSans-Oblique-107"/>
      <use transform="translate(654.990234 0.015625)" xlink:href="#DejaVuSans-8712"/>
      <use transform="translate(761.582031 0.015625)" xlink:href="#DejaVuSans-123"/>
      <use transform="translate(825.205078 0.015625)" xlink:href="#DejaVuSans-49"/>
      <use transform="translate(888.828125 0.015625)" xlink:href="#DejaVuSans-44"/>
      <use transform="translate(940.097656 0.015625)" xlink:href="#DejaVuSans-46"/>
      <use transform="translate(991.367188 0.015625)" xlink:href="#DejaVuSans-46"/>
      <use transform="translate(1042.636719 0.015625)" xlink:href="#DejaVuSans-44"/>
      <use transform="translate(1093.90625 0.015625)" xlink:href="#DejaVuSans-53"/>
      <use transform="translate(1155.779297 0.015625)" xlink:href="#DejaVuSans-125"/>
     </g>
    </g>
   </g>
   <g id="line2d_38">
    <path clip-path="url(#p3f00c2d0f7)" d="M 100.803551 382.540426 
L 102.743604 372.515085 
L 104.671114 363.685778 
L 106.517091 356.164927 
L 108.40488 349.31182 
L 110.326118 343.108702 
L 112.257809 337.566345 
L 114.170684 332.685447 
L 116.022933 328.4701 
L 118.105146 324.262234 
L 120.089101 320.71493 
L 122.355284 317.146578 
L 124.427043 314.280185 
L 126.814479 311.385264 
L 129.661841 308.425104 
L 132.078546 306.272242 
L 134.037414 304.736251 
L 137.327978 302.517552 
L 139.895204 301.055677 
L 142.999707 299.551507 
L 146.854726 298.016912 
L 149.298608 297.202931 
L 151.913916 296.446506 
L 158.980058 294.874903 
L 163.06295 294.208655 
L 169.069171 293.461109 
L 178.282332 292.693412 
L 196.587403 291.931202 
L 201.627778 291.820178 
L 205.326004 291.754939 
L 213.857639 291.643915 
L 216.784443 291.615485 
L 235.909018 291.504461 
L 238.413527 291.496181 
L 414.439899 291.385555 
L 416.919321 289.172842 
L 419.060069 287.480538 
L 421.006394 286.097667 
L 421.008484 382.535492 
L 421.119285 381.950772 
L 423.318569 370.970515 
L 425.557574 360.929912 
L 427.765221 352.039257 
L 429.977049 344.034007 
L 432.167971 336.904386 
L 434.628577 329.746834 
L 437.039009 323.512892 
L 439.355366 318.167945 
L 441.519111 313.686557 
L 443.459164 310.047082 
L 445.541376 306.501474 
L 447.868185 302.93801 
L 450.525306 299.328261 
L 452.76222 296.627457 
L 455.258366 293.937727 
L 458.128725 291.218669 
L 460.325919 289.376537 
L 464.120311 286.619473 
L 466.902866 284.894251 
L 470.291687 283.081845 
L 470.720255 282.872963 
L 470.722346 382.536982 
L 470.833146 381.956981 
L 473.047065 370.989568 
L 475.143911 361.620101 
L 477.372463 352.640367 
L 479.609378 344.539853 
L 481.819115 337.345193 
L 484.304808 330.110931 
L 486.372386 324.71531 
L 488.663656 319.32737 
L 491.266421 313.882272 
L 493.681035 309.402381 
L 496.467771 304.836103 
L 498.936739 301.268849 
L 501.81337 297.610719 
L 504.209168 294.925677 
L 506.958273 292.200834 
L 510.163124 289.445267 
L 512.565194 287.639843 
L 515.270398 285.840106 
L 518.406259 284.025506 
L 520.850141 282.788373 
L 520.852232 382.536464 
L 520.963032 381.956465 
L 523.17695 370.989069 
L 525.484945 360.727314 
L 527.512802 352.600067 
L 529.739264 344.539554 
L 531.949001 337.344894 
L 534.434694 330.110632 
L 536.502272 324.715011 
L 538.791451 319.331859 
L 540.930109 314.808276 
L 542.847166 311.1285 
L 545.429025 306.677038 
L 547.77674 303.079758 
L 550.450585 299.445969 
L 552.700043 296.729006 
L 555.210823 294.022417 
L 558.097907 291.286601 
L 560.303463 289.436887 
L 562.697171 287.638247 
L 567.181453 284.776144 
L 570.302681 283.116859 
L 570.980027 282.788373 
L 570.982117 382.535945 
L 571.092918 381.955949 
L 573.306836 370.98867 
L 575.403682 361.619303 
L 577.632235 352.639569 
L 579.86915 344.539155 
L 582.388292 336.396545 
L 584.899072 329.200888 
L 586.995918 323.819532 
L 589.33318 318.42411 
L 591.996572 312.968139 
L 594.465541 308.49513 
L 596.696184 304.883885 
L 599.198601 301.265756 
L 602.073141 297.61052 
L 604.46894 294.925478 
L 607.218045 292.200634 
L 610.422896 289.445067 
L 612.822875 287.64114 
L 617.313429 284.774847 
L 620.432566 283.116859 
L 621.109913 282.788273 
L 621.112003 382.535427 
L 621.222804 381.955434 
L 623.436722 370.988171 
L 623.986543 368.946933 
L 626.369798 360.721928 
L 628.761415 353.338835 
L 631.094496 346.889926 
L 633.318868 341.363928 
L 635.808742 335.824863 
L 638.116736 331.237538 
L 640.725773 326.616995 
L 643.046311 322.957768 
L 645.030266 320.131077 
L 647.896444 316.487013 
L 650.327782 313.759477 
L 653.114518 310.995031 
L 655.257356 309.103522 
L 657.546535 307.283734 
L 660.107489 305.468335 
L 663.042656 303.641166 
L 666.483741 301.798735 
L 670.631441 299.942737 
L 675.826519 298.078559 
L 678.822312 297.19505 
L 682.290575 296.317626 
L 686.452909 295.438805 
L 691.654258 294.559086 
L 698.584513 293.679268 
L 708.911951 292.805235 
L 728.962651 291.959732 
L 733.919403 291.848707 
L 737.686618 291.780177 
L 745.756236 291.669152 
L 748.747848 291.63763 
L 765.121227 291.526606 
L 767.678 291.515832 
L 1041.562074 291.433038 
L 1041.562074 291.433038 
" style="fill:none;stroke:#aa3863;stroke-linecap:square;stroke-opacity:0.75;stroke-width:1.5;"/>
   </g>
   <g id="line2d_39">
    <path clip-path="url(#p3f00c2d0f7)" d="M 100.803551 352.614631 
L 102.856495 345.959034 
L 104.938707 339.957116 
L 107.334506 333.871806 
L 109.347729 329.355903 
L 111.657814 324.764089 
L 113.844555 320.929498 
L 115.836872 317.818312 
L 118.063334 314.723187 
L 120.649375 311.572499 
L 122.854931 309.215544 
L 125.382435 306.840134 
L 127.374753 305.183641 
L 130.692495 302.790476 
L 134.946814 300.282195 
L 138.047136 298.780219 
L 142.207379 297.11455 
L 144.766242 296.256577 
L 150.983611 294.592005 
L 160.575167 292.874364 
L 165.816237 292.236346 
L 175.537408 291.42017 
L 194.710067 290.616562 
L 199.702359 290.505538 
L 203.438215 290.438504 
L 211.712709 290.327479 
L 214.675053 290.297354 
L 232.196158 290.186329 
L 234.729934 290.176653 
L 414.433627 290.065628 
L 417.048936 287.965835 
L 421.002213 285.272912 
L 421.006394 285.270319 
L 421.008484 381.538032 
L 421.119285 380.961212 
L 423.329022 370.076632 
L 425.507401 360.420974 
L 427.752678 351.472363 
L 430.004226 343.417735 
L 432.234869 336.252702 
L 434.409067 329.970081 
L 436.840405 323.679279 
L 439.167214 318.309095 
L 441.339321 313.809453 
L 443.287737 310.153418 
L 445.942766 305.691183 
L 448.344836 302.115749 
L 451.110666 298.478168 
L 453.422842 295.786443 
L 456.040241 293.078657 
L 459.071574 290.33935 
L 461.367025 288.514275 
L 463.898711 286.721121 
L 466.798337 284.917693 
L 468.753025 283.835876 
L 470.720255 282.844833 
L 470.722346 382.536982 
L 470.833146 381.956981 
L 473.047065 370.989568 
L 475.143911 361.620101 
L 477.372463 352.640367 
L 479.609378 344.539853 
L 481.819115 337.345193 
L 484.304808 330.110931 
L 486.372386 324.71531 
L 488.663656 319.32737 
L 491.266421 313.882272 
L 493.681035 309.402381 
L 496.467771 304.836103 
L 498.936739 301.268849 
L 501.81337 297.610719 
L 504.209168 294.925677 
L 506.958273 292.200834 
L 510.163124 289.445267 
L 512.565194 287.639843 
L 515.270398 285.840106 
L 518.406259 284.025506 
L 520.850141 282.788373 
L 520.852232 382.536464 
L 520.963032 381.956465 
L 523.17695 370.989069 
L 525.484945 360.727314 
L 527.512802 352.600067 
L 529.739264 344.539554 
L 531.949001 337.344894 
L 534.434694 330.110632 
L 536.502272 324.715011 
L 538.791451 319.331859 
L 540.930109 314.808276 
L 542.847166 311.1285 
L 545.429025 306.677038 
L 547.77674 303.079758 
L 550.450585 299.445969 
L 552.700043 296.729006 
L 555.210823 294.022417 
L 558.097907 291.286601 
L 560.303463 289.436887 
L 562.697171 287.638247 
L 567.181453 284.776144 
L 570.302681 283.116859 
L 570.980027 282.788373 
L 570.982117 382.535945 
L 571.092918 381.955949 
L 573.306836 370.98867 
L 575.403682 361.619303 
L 577.632235 352.639569 
L 579.86915 344.539155 
L 582.388292 336.396545 
L 584.899072 329.200888 
L 586.995918 323.819532 
L 589.33318 318.42411 
L 591.996572 312.968139 
L 594.465541 308.49513 
L 596.696184 304.883885 
L 599.198601 301.265756 
L 602.073141 297.61052 
L 604.46894 294.925478 
L 607.218045 292.200634 
L 610.422896 289.445067 
L 612.822875 287.64114 
L 617.313429 284.774847 
L 620.432566 283.116859 
L 621.109913 282.788273 
L 621.112003 382.535427 
L 621.222804 381.955434 
L 623.436722 370.988171 
L 624.040898 368.693561 
L 626.325896 360.617187 
L 628.623437 353.330156 
L 630.862443 346.951473 
L 633.375313 340.553438 
L 635.777383 335.109736 
L 638.53276 329.582841 
L 641.07908 325.079108 
L 643.384984 321.444421 
L 645.98984 317.789683 
L 649.000267 314.092451 
L 651.490141 311.409803 
L 654.39604 308.655133 
L 657.807857 305.871236 
L 660.333271 304.082871 
L 663.251713 302.266874 
L 666.676074 300.434118 
L 670.802868 298.588096 
L 673.322011 297.627079 
L 679.10663 295.812079 
L 682.459912 294.967573 
L 686.578343 294.099227 
L 691.760878 293.223099 
L 698.676498 292.345375 
L 708.98094 291.473537 
L 729.004462 290.629331 
L 733.961214 290.518306 
L 737.726339 290.449876 
L 745.798047 290.338851 
L 748.789659 290.307329 
L 765.192307 290.196304 
L 767.749079 290.185531 
L 1041.562074 290.102936 
L 1041.562074 290.102936 
" style="fill:none;stroke:#d97020;stroke-linecap:square;stroke-opacity:0.75;stroke-width:1.5;"/>
   </g>
   <g id="line2d_40">
    <path clip-path="url(#p3f00c2d0f7)" d="M 100.803551 332.6641 
L 103.113636 328.072486 
L 105.67459 323.541521 
L 107.959588 319.941547 
L 110.543538 316.317733 
L 112.726097 313.587104 
L 115.134439 310.886999 
L 117.883545 308.162056 
L 121.088395 305.406289 
L 124.918328 302.621894 
L 129.65766 299.812759 
L 133.029757 298.168237 
L 137.645745 296.306852 
L 140.361402 295.389128 
L 143.355104 294.506317 
L 151.884648 292.58558 
L 156.212138 291.872648 
L 162.998142 291.013478 
L 173.304675 290.14144 
L 193.292657 289.298929 
L 198.2515 289.187905 
L 202.016625 289.119474 
L 210.096695 289.00845 
L 213.086217 288.977028 
L 229.51186 288.866003 
L 232.068633 288.85523 
L 414.427356 288.744504 
L 417.218273 286.753441 
L 420.140896 284.934651 
L 421.006394 284.44297 
L 421.008484 380.540575 
L 421.119285 379.971646 
L 423.339475 369.184045 
L 425.459317 359.898569 
L 427.740134 350.904371 
L 429.774263 343.669312 
L 432.009087 336.490512 
L 434.191647 330.181855 
L 436.635529 323.85644 
L 438.974881 318.455831 
L 441.155351 313.937535 
L 443.586689 309.424725 
L 446.375515 304.854657 
L 448.846574 301.284211 
L 450.970598 298.534728 
L 454.204717 294.849566 
L 456.868109 292.2145 
L 460.081322 289.451252 
L 462.483392 287.645829 
L 465.190686 285.844595 
L 468.328638 284.028797 
L 470.396216 282.972816 
L 470.720255 282.816603 
L 470.722346 382.536982 
L 470.833146 381.956981 
L 473.047065 370.989568 
L 475.143911 361.620101 
L 477.372463 352.640367 
L 479.609378 344.539853 
L 481.819115 337.345193 
L 484.304808 330.110931 
L 486.372386 324.71531 
L 488.663656 319.32737 
L 491.266421 313.882272 
L 493.681035 309.402381 
L 496.467771 304.836103 
L 498.936739 301.268849 
L 501.81337 297.610719 
L 504.209168 294.925677 
L 506.958273 292.200834 
L 510.163124 289.445267 
L 512.565194 287.639843 
L 515.270398 285.840106 
L 518.406259 284.025506 
L 520.850141 282.788373 
L 520.852232 382.536464 
L 520.963032 381.956465 
L 523.17695 370.989069 
L 525.484945 360.727314 
L 527.512802 352.600067 
L 529.739264 344.539554 
L 531.949001 337.344894 
L 534.434694 330.110632 
L 536.502272 324.715011 
L 538.791451 319.331859 
L 540.930109 314.808276 
L 542.847166 311.1285 
L 545.429025 306.677038 
L 547.77674 303.079758 
L 550.450585 299.445969 
L 552.700043 296.729006 
L 555.210823 294.022417 
L 558.097907 291.286601 
L 560.303463 289.436887 
L 562.697171 287.638247 
L 567.181453 284.776144 
L 570.302681 283.116859 
L 570.980027 282.788373 
L 570.982117 382.535945 
L 571.092918 381.955949 
L 573.306836 370.98867 
L 575.403682 361.619303 
L 577.632235 352.639569 
L 579.86915 344.539155 
L 582.388292 336.396545 
L 584.899072 329.200888 
L 586.995918 323.819532 
L 589.33318 318.42411 
L 591.996572 312.968139 
L 594.465541 308.49513 
L 596.696184 304.883885 
L 599.198601 301.265756 
L 602.073141 297.61052 
L 604.46894 294.925478 
L 607.218045 292.200634 
L 610.422896 289.445067 
L 612.822875 287.64114 
L 617.313429 284.774847 
L 620.432566 283.116859 
L 621.109913 282.788273 
L 621.112003 382.535427 
L 621.222804 381.955434 
L 623.436722 370.988171 
L 624.105706 368.390912 
L 626.288266 360.497983 
L 628.498003 353.303622 
L 630.649204 346.993569 
L 633.045002 340.6896 
L 635.340453 335.290987 
L 637.479111 330.767503 
L 639.847732 326.269157 
L 641.978027 322.636565 
L 644.325742 319.039384 
L 646.999587 315.405695 
L 649.249045 312.688732 
L 651.759825 309.982243 
L 654.646909 307.246526 
L 656.852465 305.396813 
L 659.244082 303.599769 
L 661.949285 301.800131 
L 665.085147 299.985531 
L 668.812641 298.154471 
L 671.151994 297.161234 
L 676.069025 295.403193 
L 679.094087 294.509908 
L 687.644536 292.584084 
L 700.992855 290.785543 
L 708.58164 290.172862 
L 729.428849 289.289353 
L 734.49222 289.178328 
L 738.207171 289.112292 
L 746.496299 289.001268 
L 749.460734 288.971042 
L 766.653618 288.860018 
L 769.193666 288.850043 
L 1041.562074 288.772934 
L 1041.562074 288.772934 
" style="fill:none;stroke:#ef9f07;stroke-linecap:square;stroke-opacity:0.75;stroke-width:1.5;"/>
   </g>
   <g id="line2d_41">
    <path clip-path="url(#p3f00c2d0f7)" d="M 100.803551 302.738305 
L 103.088549 302.518051 
L 105.866923 302.008215 
L 110.420194 300.807692 
L 114.804129 299.437091 
L 123.388027 296.68711 
L 133.870168 293.801664 
L 139.914019 292.473957 
L 147.41291 291.155725 
L 156.285308 289.997896 
L 168.536074 288.940319 
L 190.735885 287.992269 
L 195.646644 287.881245 
L 199.461943 287.81042 
L 207.213793 287.699396 
L 210.255579 287.66548 
L 225.012944 287.554455 
L 227.613619 287.541587 
L 414.408541 287.430562 
L 417.454508 285.529277 
L 421.006394 283.615622 
L 421.008484 379.543108 
L 421.119285 378.982089 
L 423.349928 368.292655 
L 425.624473 358.497643 
L 427.976369 349.422546 
L 430.066944 342.164144 
L 432.381209 334.92669 
L 434.643211 328.581823 
L 436.800684 323.133832 
L 439.200663 317.695417 
L 441.433397 313.164153 
L 443.939996 308.619023 
L 446.824989 304.016934 
L 449.373399 300.44569 
L 451.566412 297.700996 
L 453.985206 294.988422 
L 456.744765 292.252506 
L 458.872969 290.375061 
L 461.143333 288.571433 
L 463.683381 286.771896 
L 468.615047 283.843457 
L 470.720255 282.788473 
L 470.722346 382.536982 
L 470.833146 381.956981 
L 473.047065 370.989568 
L 475.143911 361.620101 
L 477.372463 352.640367 
L 479.609378 344.539853 
L 481.819115 337.345193 
L 484.304808 330.110931 
L 486.372386 324.71531 
L 488.663656 319.32737 
L 491.266421 313.882272 
L 493.681035 309.402381 
L 496.467771 304.836103 
L 498.936739 301.268849 
L 501.81337 297.610719 
L 504.209168 294.925677 
L 506.958273 292.200834 
L 510.163124 289.445267 
L 512.565194 287.639843 
L 515.270398 285.840106 
L 518.406259 284.025506 
L 520.850141 282.788373 
L 520.852232 382.536464 
L 520.963032 381.956465 
L 523.17695 370.989069 
L 525.484945 360.727314 
L 527.512802 352.600067 
L 529.739264 344.539554 
L 531.949001 337.344894 
L 534.434694 330.110632 
L 536.502272 324.715011 
L 538.791451 319.331859 
L 540.930109 314.808276 
L 542.847166 311.1285 
L 545.429025 306.677038 
L 547.77674 303.079758 
L 550.450585 299.445969 
L 552.700043 296.729006 
L 555.210823 294.022417 
L 558.097907 291.286601 
L 560.303463 289.436887 
L 562.697171 287.638247 
L 567.181453 284.776144 
L 570.302681 283.116859 
L 570.980027 282.788373 
L 570.982117 382.535945 
L 571.092918 381.955949 
L 573.306836 370.98867 
L 575.403682 361.619303 
L 577.632235 352.639569 
L 579.86915 344.539155 
L 582.388292 336.396545 
L 584.899072 329.200888 
L 586.995918 323.819532 
L 589.33318 318.42411 
L 591.996572 312.968139 
L 594.465541 308.49513 
L 596.696184 304.883885 
L 599.198601 301.265756 
L 602.073141 297.61052 
L 604.46894 294.925478 
L 607.218045 292.200634 
L 610.422896 289.445067 
L 612.822875 287.64114 
L 617.313429 284.774847 
L 620.432566 283.116859 
L 621.109913 282.788273 
L 621.112003 382.535427 
L 621.222804 381.955434 
L 623.436722 370.988171 
L 624.183057 368.02851 
L 626.507776 359.486591 
L 628.96211 351.452113 
L 631.408083 344.33935 
L 633.458936 338.990214 
L 635.727209 333.659333 
L 638.306978 328.264909 
L 640.700686 323.825716 
L 643.466516 319.29545 
L 645.91876 315.753931 
L 648.774485 312.123932 
L 651.155649 309.456247 
L 653.88594 306.751055 
L 655.99742 304.889471 
L 659.517947 302.176797 
L 662.162524 300.420552 
L 665.27748 298.619019 
L 667.338786 297.566728 
L 671.093458 295.898266 
L 676.290626 294.03319 
L 683.122624 292.192754 
L 686.889839 291.408199 
L 691.972026 290.551224 
L 698.856287 289.67799 
L 709.118918 288.810141 
L 729.090176 287.968429 
L 734.051109 287.857404 
L 737.814143 287.789073 
L 745.898395 287.678049 
L 748.887916 287.646627 
L 765.359553 287.535602 
L 767.914235 287.524928 
L 1041.562074 287.442932 
L 1041.562074 287.442932 
" style="fill:none;stroke:#449775;stroke-linecap:square;stroke-opacity:0.75;stroke-width:1.5;"/>
   </g>
   <g id="line2d_42">
    <path clip-path="url(#p3f00c2d0f7)" d="M 100.803551 292.76304 
L 102.524094 293.620414 
L 104.332441 294.276088 
L 105.825111 294.657642 
L 108.427876 295.04149 
L 112.305892 295.115407 
L 115.784608 294.838194 
L 118.677963 294.450555 
L 133.677835 291.700674 
L 136.872233 291.131186 
L 141.247805 290.409077 
L 152.750146 288.874781 
L 166.514489 287.672762 
L 189.851572 286.670447 
L 194.753969 286.559422 
L 198.585992 286.4878 
L 206.239585 286.376775 
L 209.300186 286.341962 
L 223.572538 286.230937 
L 226.189938 286.217271 
L 414.400178 286.107044 
L 420.732528 282.908775 
L 421.006394 282.788273 
L 421.008484 379.543108 
L 421.119285 378.982089 
L 423.349928 368.292655 
L 425.624473 358.497643 
L 427.976369 349.422546 
L 430.066944 342.164144 
L 432.381209 334.92669 
L 434.643211 328.581823 
L 436.800684 323.133832 
L 439.200663 317.695417 
L 441.433397 313.164153 
L 443.939996 308.619023 
L 446.824989 304.016934 
L 449.373399 300.44569 
L 451.566412 297.700996 
L 453.985206 294.988422 
L 456.744765 292.252506 
L 458.872969 290.375061 
L 461.143333 288.571433 
L 463.683381 286.771896 
L 468.615047 283.843457 
L 470.720255 282.788473 
L 470.722346 382.536982 
L 470.833146 381.956981 
L 473.047065 370.989568 
L 475.143911 361.620101 
L 477.372463 352.640367 
L 479.609378 344.539853 
L 481.819115 337.345193 
L 484.304808 330.110931 
L 486.372386 324.71531 
L 488.663656 319.32737 
L 491.266421 313.882272 
L 493.681035 309.402381 
L 496.467771 304.836103 
L 498.936739 301.268849 
L 501.81337 297.610719 
L 504.209168 294.925677 
L 506.958273 292.200834 
L 510.163124 289.445267 
L 512.565194 287.639843 
L 515.270398 285.840106 
L 518.406259 284.025506 
L 520.850141 282.788373 
L 520.852232 382.536464 
L 520.963032 381.956465 
L 523.17695 370.989069 
L 525.484945 360.727314 
L 527.512802 352.600067 
L 529.739264 344.539554 
L 531.949001 337.344894 
L 534.434694 330.110632 
L 536.502272 324.715011 
L 538.791451 319.331859 
L 540.930109 314.808276 
L 542.847166 311.1285 
L 545.429025 306.677038 
L 547.77674 303.079758 
L 550.450585 299.445969 
L 552.700043 296.729006 
L 555.210823 294.022417 
L 558.097907 291.286601 
L 560.303463 289.436887 
L 562.697171 287.638247 
L 567.181453 284.776144 
L 570.302681 283.116859 
L 570.980027 282.788373 
L 570.982117 382.535945 
L 571.092918 381.955949 
L 573.306836 370.98867 
L 575.403682 361.619303 
L 577.632235 352.639569 
L 579.86915 344.539155 
L 582.388292 336.396545 
L 584.899072 329.200888 
L 586.995918 323.819532 
L 589.33318 318.42411 
L 591.996572 312.968139 
L 594.465541 308.49513 
L 596.696184 304.883885 
L 599.198601 301.265756 
L 602.073141 297.61052 
L 604.46894 294.925478 
L 607.218045 292.200634 
L 610.422896 289.445067 
L 612.822875 287.64114 
L 617.313429 284.774847 
L 620.432566 283.116859 
L 621.109913 282.788273 
L 621.112003 382.535427 
L 621.222804 381.955434 
L 623.436722 370.988171 
L 624.279224 367.578725 
L 626.463874 359.380354 
L 628.826223 351.446627 
L 631.178119 344.406584 
L 633.488204 338.234787 
L 635.704213 332.932435 
L 638.20454 327.597863 
L 640.53135 323.183608 
L 642.630286 319.607875 
L 644.942462 316.068451 
L 647.576586 312.491521 
L 650.643458 308.863517 
L 653.181416 306.242915 
L 656.185571 303.529543 
L 658.464298 301.718833 
L 660.975078 299.94164 
L 663.851708 298.153474 
L 667.230077 296.347053 
L 671.304606 294.525968 
L 676.420242 292.692116 
L 679.388858 291.817584 
L 687.853594 289.912308 
L 692.17063 289.201371 
L 698.929458 288.346092 
L 709.194178 287.478045 
L 729.127806 286.638127 
L 734.088739 286.527103 
L 737.851774 286.458772 
L 745.940206 286.347747 
L 748.927637 286.316425 
L 765.407636 286.2054 
L 767.962318 286.194727 
L 1041.562074 286.11283 
L 1041.562074 286.11283 
" style="fill:none;stroke:#3b7d86;stroke-linecap:square;stroke-opacity:0.75;stroke-width:1.5;"/>
   </g>
   <g id="line2d_43">
    <path clip-path="url(#p3f00c2d0f7)" d="M 421.008484 282.787775 
L 421.008484 232.911449 
" style="fill:none;stroke:#aa3863;stroke-linecap:square;stroke-opacity:0.75;stroke-width:1.5;"/>
   </g>
   <g id="line2d_44">
    <path clip-path="url(#p3f00c2d0f7)" d="M 470.722346 282.787775 
L 470.722346 232.911449 
" style="fill:none;stroke:#aa3863;stroke-linecap:square;stroke-opacity:0.75;stroke-width:1.5;"/>
   </g>
   <g id="line2d_45">
    <path clip-path="url(#p3f00c2d0f7)" d="M 520.852232 282.787775 
L 520.852232 232.911449 
" style="fill:none;stroke:#aa3863;stroke-linecap:square;stroke-opacity:0.75;stroke-width:1.5;"/>
   </g>
   <g id="line2d_46">
    <path clip-path="url(#p3f00c2d0f7)" d="M 570.982117 282.787775 
L 570.982117 232.911449 
" style="fill:none;stroke:#aa3863;stroke-linecap:square;stroke-opacity:0.75;stroke-width:1.5;"/>
   </g>
   <g id="line2d_47">
    <path clip-path="url(#p3f00c2d0f7)" d="M 621.112003 282.787775 
L 621.112003 232.911449 
" style="fill:none;stroke:#aa3863;stroke-linecap:square;stroke-opacity:0.75;stroke-width:1.5;"/>
   </g>
   <g id="line2d_48">
    <path clip-path="url(#p3f00c2d0f7)" d="M 421.008484 282.787775 
L 421.008484 232.911449 
" style="fill:none;stroke:#d97020;stroke-linecap:square;stroke-opacity:0.75;stroke-width:1.5;"/>
   </g>
   <g id="line2d_49">
    <path clip-path="url(#p3f00c2d0f7)" d="M 470.722346 282.787775 
L 470.722346 232.911449 
" style="fill:none;stroke:#d97020;stroke-linecap:square;stroke-opacity:0.75;stroke-width:1.5;"/>
   </g>
   <g id="line2d_50">
    <path clip-path="url(#p3f00c2d0f7)" d="M 520.852232 282.787775 
L 520.852232 232.911449 
" style="fill:none;stroke:#d97020;stroke-linecap:square;stroke-opacity:0.75;stroke-width:1.5;"/>
   </g>
   <g id="line2d_51">
    <path clip-path="url(#p3f00c2d0f7)" d="M 570.982117 282.787775 
L 570.982117 232.911449 
" style="fill:none;stroke:#d97020;stroke-linecap:square;stroke-opacity:0.75;stroke-width:1.5;"/>
   </g>
   <g id="line2d_52">
    <path clip-path="url(#p3f00c2d0f7)" d="M 621.112003 282.787775 
L 621.112003 232.911449 
" style="fill:none;stroke:#d97020;stroke-linecap:square;stroke-opacity:0.75;stroke-width:1.5;"/>
   </g>
   <g id="line2d_53">
    <path clip-path="url(#p3f00c2d0f7)" d="M 421.008484 282.787775 
L 421.008484 232.911449 
" style="fill:none;stroke:#ef9f07;stroke-linecap:square;stroke-opacity:0.75;stroke-width:1.5;"/>
   </g>
   <g id="line2d_54">
    <path clip-path="url(#p3f00c2d0f7)" d="M 470.722346 282.787775 
L 470.722346 232.911449 
" style="fill:none;stroke:#ef9f07;stroke-linecap:square;stroke-opacity:0.75;stroke-width:1.5;"/>
   </g>
   <g id="line2d_55">
    <path clip-path="url(#p3f00c2d0f7)" d="M 520.852232 282.787775 
L 520.852232 232.911449 
" style="fill:none;stroke:#ef9f07;stroke-linecap:square;stroke-opacity:0.75;stroke-width:1.5;"/>
   </g>
   <g id="line2d_56">
    <path clip-path="url(#p3f00c2d0f7)" d="M 570.982117 282.787775 
L 570.982117 232.911449 
" style="fill:none;stroke:#ef9f07;stroke-linecap:square;stroke-opacity:0.75;stroke-width:1.5;"/>
   </g>
   <g id="line2d_57">
    <path clip-path="url(#p3f00c2d0f7)" d="M 621.112003 282.787775 
L 621.112003 232.911449 
" style="fill:none;stroke:#ef9f07;stroke-linecap:square;stroke-opacity:0.75;stroke-width:1.5;"/>
   </g>
   <g id="line2d_58">
    <path clip-path="url(#p3f00c2d0f7)" d="M 421.008484 282.787775 
L 421.008484 232.911449 
" style="fill:none;stroke:#449775;stroke-linecap:square;stroke-opacity:0.75;stroke-width:1.5;"/>
   </g>
   <g id="line2d_59">
    <path clip-path="url(#p3f00c2d0f7)" d="M 470.722346 282.787775 
L 470.722346 232.911449 
" style="fill:none;stroke:#449775;stroke-linecap:square;stroke-opacity:0.75;stroke-width:1.5;"/>
   </g>
   <g id="line2d_60">
    <path clip-path="url(#p3f00c2d0f7)" d="M 520.852232 282.787775 
L 520.852232 232.911449 
" style="fill:none;stroke:#449775;stroke-linecap:square;stroke-opacity:0.75;stroke-width:1.5;"/>
   </g>
   <g id="line2d_61">
    <path clip-path="url(#p3f00c2d0f7)" d="M 570.982117 282.787775 
L 570.982117 232.911449 
" style="fill:none;stroke:#449775;stroke-linecap:square;stroke-opacity:0.75;stroke-width:1.5;"/>
   </g>
   <g id="line2d_62">
    <path clip-path="url(#p3f00c2d0f7)" d="M 621.112003 282.787775 
L 621.112003 232.911449 
" style="fill:none;stroke:#449775;stroke-linecap:square;stroke-opacity:0.75;stroke-width:1.5;"/>
   </g>
   <g id="line2d_63">
    <path clip-path="url(#p3f00c2d0f7)" d="M 421.008484 282.787775 
L 421.008484 232.911449 
" style="fill:none;stroke:#3b7d86;stroke-linecap:square;stroke-opacity:0.75;stroke-width:1.5;"/>
   </g>
   <g id="line2d_64">
    <path clip-path="url(#p3f00c2d0f7)" d="M 470.722346 282.787775 
L 470.722346 232.911449 
" style="fill:none;stroke:#3b7d86;stroke-linecap:square;stroke-opacity:0.75;stroke-width:1.5;"/>
   </g>
   <g id="line2d_65">
    <path clip-path="url(#p3f00c2d0f7)" d="M 520.852232 282.787775 
L 520.852232 232.911449 
" style="fill:none;stroke:#3b7d86;stroke-linecap:square;stroke-opacity:0.75;stroke-width:1.5;"/>
   </g>
   <g id="line2d_66">
    <path clip-path="url(#p3f00c2d0f7)" d="M 570.982117 282.787775 
L 570.982117 232.911449 
" style="fill:none;stroke:#3b7d86;stroke-linecap:square;stroke-opacity:0.75;stroke-width:1.5;"/>
   </g>
   <g id="line2d_67">
    <path clip-path="url(#p3f00c2d0f7)" d="M 621.112003 282.787775 
L 621.112003 232.911449 
" style="fill:none;stroke:#3b7d86;stroke-linecap:square;stroke-opacity:0.75;stroke-width:1.5;"/>
   </g>
   <g id="patch_9">
    <path d="M 53.765625 390.021875 
L 53.765625 225.43 
" style="fill:none;stroke:#000000;stroke-linecap:square;stroke-linejoin:miter;stroke-width:0.8;"/>
   </g>
   <g id="patch_10">
    <path d="M 1088.6 390.021875 
L 1088.6 225.43 
" style="fill:none;stroke:#000000;stroke-linecap:square;stroke-linejoin:miter;stroke-width:0.8;"/>
   </g>
   <g id="patch_11">
    <path d="M 53.765625 390.021875 
L 1088.6 390.021875 
" style="fill:none;stroke:#000000;stroke-linecap:square;stroke-linejoin:miter;stroke-width:0.8;"/>
   </g>
   <g id="patch_12">
    <path d="M 53.765625 225.43 
L 1088.6 225.43 
" style="fill:none;stroke:#000000;stroke-linecap:square;stroke-linejoin:miter;stroke-width:0.8;"/>
   </g>
   <g id="legend_2">
    <g id="patch_13">
     <path d="M 1095.6 306.820625 
L 1139.2 306.820625 
Q 1141.2 306.820625 1141.2 304.820625 
L 1141.2 232.43 
Q 1141.2 230.43 1139.2 230.43 
L 1095.6 230.43 
Q 1093.6 230.43 1093.6 232.43 
L 1093.6 304.820625 
Q 1093.6 306.820625 1095.6 306.820625 
z
" style="fill:#ffffff;opacity:0.8;stroke:#cccccc;stroke-linejoin:miter;"/>
    </g>
    <g id="line2d_68">
     <path d="M 1097.6 238.528438 
L 1117.6 238.528438 
" style="fill:none;stroke:#aa3863;stroke-linecap:square;stroke-opacity:0.75;stroke-width:1.5;"/>
    </g>
    <g id="line2d_69"/>
    <g id="text_31">
     <!-- $V_1$ -->
     <g transform="translate(1125.6 242.028438)scale(0.1 -0.1)">
      <use transform="translate(0 0.09375)" xlink:href="#DejaVuSans-Oblique-86"/>
      <use transform="translate(68.408203 -16.3125)scale(0.7)" xlink:href="#DejaVuSans-49"/>
     </g>
    </g>
    <g id="line2d_70">
     <path d="M 1097.6 253.206563 
L 1117.6 253.206563 
" style="fill:none;stroke:#d97020;stroke-linecap:square;stroke-opacity:0.75;stroke-width:1.5;"/>
    </g>
    <g id="line2d_71"/>
    <g id="text_32">
     <!-- $V_2$ -->
     <g transform="translate(1125.6 256.706563)scale(0.1 -0.1)">
      <use transform="translate(0 0.09375)" xlink:href="#DejaVuSans-Oblique-86"/>
      <use transform="translate(68.408203 -16.3125)scale(0.7)" xlink:href="#DejaVuSans-50"/>
     </g>
    </g>
    <g id="line2d_72">
     <path d="M 1097.6 267.884688 
L 1117.6 267.884688 
" style="fill:none;stroke:#ef9f07;stroke-linecap:square;stroke-opacity:0.75;stroke-width:1.5;"/>
    </g>
    <g id="line2d_73"/>
    <g id="text_33">
     <!-- $V_3$ -->
     <g transform="translate(1125.6 271.384688)scale(0.1 -0.1)">
      <use transform="translate(0 0.09375)" xlink:href="#DejaVuSans-Oblique-86"/>
      <use transform="translate(68.408203 -16.3125)scale(0.7)" xlink:href="#DejaVuSans-51"/>
     </g>
    </g>
    <g id="line2d_74">
     <path d="M 1097.6 282.562813 
L 1117.6 282.562813 
" style="fill:none;stroke:#449775;stroke-linecap:square;stroke-opacity:0.75;stroke-width:1.5;"/>
    </g>
    <g id="line2d_75"/>
    <g id="text_34">
     <!-- $V_4$ -->
     <g transform="translate(1125.6 286.062813)scale(0.1 -0.1)">
      <use transform="translate(0 0.09375)" xlink:href="#DejaVuSans-Oblique-86"/>
      <use transform="translate(68.408203 -16.3125)scale(0.7)" xlink:href="#DejaVuSans-52"/>
     </g>
    </g>
    <g id="line2d_76">
     <path d="M 1097.6 297.240938 
L 1117.6 297.240938 
" style="fill:none;stroke:#3b7d86;stroke-linecap:square;stroke-opacity:0.75;stroke-width:1.5;"/>
    </g>
    <g id="line2d_77"/>
    <g id="text_35">
     <!-- $V_5$ -->
     <g transform="translate(1125.6 300.740938)scale(0.1 -0.1)">
      <use transform="translate(0 0.09375)" xlink:href="#DejaVuSans-Oblique-86"/>
      <use transform="translate(68.408203 -16.3125)scale(0.7)" xlink:href="#DejaVuSans-53"/>
     </g>
    </g>
   </g>
  </g>
  <g id="text_36">
   <!-- Network of 5 electrically coupled neurons, $\beta=0.1$ and $\gamma=0.1$ -->
   <g transform="translate(390.84 17.88)scale(0.12 -0.12)">
    <defs>
     <path d="M 9.8125 72.90625 
L 23.09375 72.90625 
L 55.421875 11.921875 
L 55.421875 72.90625 
L 64.984375 72.90625 
L 64.984375 0 
L 51.703125 0 
L 19.390625 60.984375 
L 19.390625 0 
L 9.8125 0 
z
" id="DejaVuSans-78"/>
     <path d="M 4.203125 54.6875 
L 13.1875 54.6875 
L 24.421875 12.015625 
L 35.59375 54.6875 
L 46.1875 54.6875 
L 57.421875 12.015625 
L 68.609375 54.6875 
L 77.59375 54.6875 
L 63.28125 0 
L 52.6875 0 
L 40.921875 44.828125 
L 29.109375 0 
L 18.5 0 
z
" id="DejaVuSans-119"/>
     <path d="M 9.078125 75.984375 
L 18.109375 75.984375 
L 18.109375 31.109375 
L 44.921875 54.6875 
L 56.390625 54.6875 
L 27.390625 29.109375 
L 57.625 0 
L 45.90625 0 
L 18.109375 26.703125 
L 18.109375 0 
L 9.078125 0 
z
" id="DejaVuSans-107"/>
     <path d="M 37.109375 75.984375 
L 37.109375 68.5 
L 28.515625 68.5 
Q 23.6875 68.5 21.796875 66.546875 
Q 19.921875 64.59375 19.921875 59.515625 
L 19.921875 54.6875 
L 34.71875 54.6875 
L 34.71875 47.703125 
L 19.921875 47.703125 
L 19.921875 0 
L 10.890625 0 
L 10.890625 47.703125 
L 2.296875 47.703125 
L 2.296875 54.6875 
L 10.890625 54.6875 
L 10.890625 58.5 
Q 10.890625 67.625 15.140625 71.796875 
Q 19.390625 75.984375 28.609375 75.984375 
z
" id="DejaVuSans-102"/>
     <path d="M 32.171875 -5.078125 
Q 28.375 -14.84375 24.75 -17.8125 
Q 21.140625 -20.796875 15.09375 -20.796875 
L 7.90625 -20.796875 
L 7.90625 -13.28125 
L 13.1875 -13.28125 
Q 16.890625 -13.28125 18.9375 -11.515625 
Q 21 -9.765625 23.484375 -3.21875 
L 25.09375 0.875 
L 2.984375 54.6875 
L 12.5 54.6875 
L 29.59375 11.921875 
L 46.6875 54.6875 
L 56.203125 54.6875 
z
" id="DejaVuSans-121"/>
     <path d="M 18.109375 8.203125 
L 18.109375 -20.796875 
L 9.078125 -20.796875 
L 9.078125 54.6875 
L 18.109375 54.6875 
L 18.109375 46.390625 
Q 20.953125 51.265625 25.265625 53.625 
Q 29.59375 56 35.59375 56 
Q 45.5625 56 51.78125 48.09375 
Q 58.015625 40.1875 58.015625 27.296875 
Q 58.015625 14.40625 51.78125 6.484375 
Q 45.5625 -1.421875 35.59375 -1.421875 
Q 29.59375 -1.421875 25.265625 0.953125 
Q 20.953125 3.328125 18.109375 8.203125 
z
M 48.6875 27.296875 
Q 48.6875 37.203125 44.609375 42.84375 
Q 40.53125 48.484375 33.40625 48.484375 
Q 26.265625 48.484375 22.1875 42.84375 
Q 18.109375 37.203125 18.109375 27.296875 
Q 18.109375 17.390625 22.1875 11.75 
Q 26.265625 6.109375 33.40625 6.109375 
Q 40.53125 6.109375 44.609375 11.75 
Q 48.6875 17.390625 48.6875 27.296875 
z
" id="DejaVuSans-112"/>
     <path d="M 13.625 3.375 
L 8.9375 -20.796875 
L -0.09375 -20.796875 
L 14.5 54.34375 
Q 18.84375 76.609375 39.65625 76.609375 
Q 60.75 76.609375 57.171875 57.8125 
Q 54.734375 44.4375 45.21875 39.546875 
Q 58.015625 35.15625 55.515625 22.125 
Q 51.125 -1.078125 27.484375 -1.03125 
Q 17.140625 -0.984375 13.625 3.375 
z
M 15.921875 15.09375 
Q 19.671875 6.59375 29.296875 6.640625 
Q 43.359375 6.640625 46.34375 21.96875 
Q 49.03125 35.75 26.171875 34.671875 
L 27.78125 42.96875 
Q 45.453125 42.671875 48.53125 58.59375 
Q 50.640625 69.34375 39.203125 69.28125 
Q 26.421875 69.28125 23.484375 54.046875 
z
" id="DejaVuSans-Oblique-946"/>
     <path d="M 10.59375 45.40625 
L 73.1875 45.40625 
L 73.1875 37.203125 
L 10.59375 37.203125 
z
M 10.59375 25.484375 
L 73.1875 25.484375 
L 73.1875 17.1875 
L 10.59375 17.1875 
z
" id="DejaVuSans-61"/>
     <path d="M 23.296875 46.09375 
L 28.71875 12.3125 
L 54 54.6875 
L 63.53125 54.6875 
L 30.8125 0 
L 26.765625 -20.796875 
L 17.78125 -20.796875 
L 21.828125 0 
L 15.4375 40.828125 
Q 14.453125 46.96875 9.8125 46.96875 
L 7.421875 46.96875 
L 8.890625 54.6875 
L 12.3125 54.6875 
Q 21.921875 54.6875 23.296875 46.09375 
z
" id="DejaVuSans-Oblique-947"/>
    </defs>
    <use transform="translate(0 0.390625)" xlink:href="#DejaVuSans-78"/>
    <use transform="translate(74.804688 0.390625)" xlink:href="#DejaVuSans-101"/>
    <use transform="translate(136.328125 0.390625)" xlink:href="#DejaVuSans-116"/>
    <use transform="translate(175.537109 0.390625)" xlink:href="#DejaVuSans-119"/>
    <use transform="translate(257.324219 0.390625)" xlink:href="#DejaVuSans-111"/>
    <use transform="translate(318.505859 0.390625)" xlink:href="#DejaVuSans-114"/>
    <use transform="translate(359.619141 0.390625)" xlink:href="#DejaVuSans-107"/>
    <use transform="translate(417.529297 0.390625)" xlink:href="#DejaVuSans-32"/>
    <use transform="translate(449.316406 0.390625)" xlink:href="#DejaVuSans-111"/>
    <use transform="translate(510.498047 0.390625)" xlink:href="#DejaVuSans-102"/>
    <use transform="translate(545.703125 0.390625)" xlink:href="#DejaVuSans-32"/>
    <use transform="translate(577.490234 0.390625)" xlink:href="#DejaVuSans-53"/>
    <use transform="translate(641.113281 0.390625)" xlink:href="#DejaVuSans-32"/>
    <use transform="translate(672.900391 0.390625)" xlink:href="#DejaVuSans-101"/>
    <use transform="translate(734.423828 0.390625)" xlink:href="#DejaVuSans-108"/>
    <use transform="translate(762.207031 0.390625)" xlink:href="#DejaVuSans-101"/>
    <use transform="translate(823.730469 0.390625)" xlink:href="#DejaVuSans-99"/>
    <use transform="translate(878.710938 0.390625)" xlink:href="#DejaVuSans-116"/>
    <use transform="translate(917.919922 0.390625)" xlink:href="#DejaVuSans-114"/>
    <use transform="translate(959.033203 0.390625)" xlink:href="#DejaVuSans-105"/>
    <use transform="translate(986.816406 0.390625)" xlink:href="#DejaVuSans-99"/>
    <use transform="translate(1041.796875 0.390625)" xlink:href="#DejaVuSans-97"/>
    <use transform="translate(1103.076172 0.390625)" xlink:href="#DejaVuSans-108"/>
    <use transform="translate(1130.859375 0.390625)" xlink:href="#DejaVuSans-108"/>
    <use transform="translate(1158.642578 0.390625)" xlink:href="#DejaVuSans-121"/>
    <use transform="translate(1217.822266 0.390625)" xlink:href="#DejaVuSans-32"/>
    <use transform="translate(1249.609375 0.390625)" xlink:href="#DejaVuSans-99"/>
    <use transform="translate(1304.589844 0.390625)" xlink:href="#DejaVuSans-111"/>
    <use transform="translate(1365.771484 0.390625)" xlink:href="#DejaVuSans-117"/>
    <use transform="translate(1429.150391 0.390625)" xlink:href="#DejaVuSans-112"/>
    <use transform="translate(1492.626953 0.390625)" xlink:href="#DejaVuSans-108"/>
    <use transform="translate(1520.410156 0.390625)" xlink:href="#DejaVuSans-101"/>
    <use transform="translate(1581.933594 0.390625)" xlink:href="#DejaVuSans-100"/>
    <use transform="translate(1645.410156 0.390625)" xlink:href="#DejaVuSans-32"/>
    <use transform="translate(1677.197266 0.390625)" xlink:href="#DejaVuSans-110"/>
    <use transform="translate(1740.576172 0.390625)" xlink:href="#DejaVuSans-101"/>
    <use transform="translate(1802.099609 0.390625)" xlink:href="#DejaVuSans-117"/>
    <use transform="translate(1865.478516 0.390625)" xlink:href="#DejaVuSans-114"/>
    <use transform="translate(1906.591797 0.390625)" xlink:href="#DejaVuSans-111"/>
    <use transform="translate(1967.773438 0.390625)" xlink:href="#DejaVuSans-110"/>
    <use transform="translate(2031.152344 0.390625)" xlink:href="#DejaVuSans-115"/>
    <use transform="translate(2083.251953 0.390625)" xlink:href="#DejaVuSans-44"/>
    <use transform="translate(2115.039062 0.390625)" xlink:href="#DejaVuSans-32"/>
    <use transform="translate(2146.826172 0.390625)" xlink:href="#DejaVuSans-Oblique-946"/>
    <use transform="translate(2230.126953 0.390625)" xlink:href="#DejaVuSans-61"/>
    <use transform="translate(2333.398438 0.390625)" xlink:href="#DejaVuSans-48"/>
    <use transform="translate(2397.021484 0.390625)" xlink:href="#DejaVuSans-46"/>
    <use transform="translate(2428.808594 0.390625)" xlink:href="#DejaVuSans-49"/>
    <use transform="translate(2492.431641 0.390625)" xlink:href="#DejaVuSans-32"/>
    <use transform="translate(2524.21875 0.390625)" xlink:href="#DejaVuSans-97"/>
    <use transform="translate(2585.498047 0.390625)" xlink:href="#DejaVuSans-110"/>
    <use transform="translate(2648.876953 0.390625)" xlink:href="#DejaVuSans-100"/>
    <use transform="translate(2712.353516 0.390625)" xlink:href="#DejaVuSans-32"/>
    <use transform="translate(2744.140625 0.390625)" xlink:href="#DejaVuSans-Oblique-947"/>
    <use transform="translate(2822.802734 0.390625)" xlink:href="#DejaVuSans-61"/>
    <use transform="translate(2926.074219 0.390625)" xlink:href="#DejaVuSans-48"/>
    <use transform="translate(2989.697266 0.390625)" xlink:href="#DejaVuSans-46"/>
    <use transform="translate(3021.484375 0.390625)" xlink:href="#DejaVuSans-49"/>
   </g>
  </g>
 </g>
 <defs>
  <clipPath id="pcb0128834d">
   <rect height="164.591875" width="1034.834375" x="53.765625" y="33.36"/>
  </clipPath>
  <clipPath id="p3f00c2d0f7">
   <rect height="164.591875" width="1034.834375" x="53.765625" y="225.43"/>
  </clipPath>
 </defs>
</svg>
