<?xml version="1.0" encoding="utf-8" standalone="no"?>
<!DOCTYPE svg PUBLIC "-//W3C//DTD SVG 1.1//EN"
  "http://www.w3.org/Graphics/SVG/1.1/DTD/svg11.dtd">
<!-- Created with matplotlib (https://matplotlib.org/) -->
<svg height="345.6pt" version="1.1" viewBox="0 0 460.8 345.6" width="460.8pt" xmlns="http://www.w3.org/2000/svg" xmlns:xlink="http://www.w3.org/1999/xlink">
 <metadata>
  <rdf:RDF xmlns:cc="http://creativecommons.org/ns#" xmlns:dc="http://purl.org/dc/elements/1.1/" xmlns:rdf="http://www.w3.org/1999/02/22-rdf-syntax-ns#">
   <cc:Work>
    <dc:type rdf:resource="http://purl.org/dc/dcmitype/StillImage"/>
    <dc:date>2021-05-06T22:48:38.698045</dc:date>
    <dc:format>image/svg+xml</dc:format>
    <dc:creator>
     <cc:Agent>
      <dc:title>Matplotlib v3.3.3, https://matplotlib.org/</dc:title>
     </cc:Agent>
    </dc:creator>
   </cc:Work>
  </rdf:RDF>
 </metadata>
 <defs>
  <style type="text/css">*{stroke-linecap:butt;stroke-linejoin:round;}</style>
 </defs>
 <g id="figure_1">
  <g id="patch_1">
   <path d="M 0 345.6 
L 460.8 345.6 
L 460.8 0 
L 0 0 
z
" style="fill:#ffffff;"/>
  </g>
  <g id="axes_1">
   <g id="patch_2">
    <path d="M 49.316875 302.508125 
L 450 302.508125 
L 450 25.16 
L 49.316875 25.16 
z
" style="fill:#ffffff;"/>
   </g>
   <g id="matplotlib.axis_1">
    <g id="xtick_1">
     <g id="line2d_1">
      <defs>
       <path d="M 0 0 
L 0 3.5 
" id="m9f0ca01c9d" style="stroke:#000000;stroke-width:0.8;"/>
      </defs>
      <g>
       <use style="stroke:#000000;stroke-width:0.8;" x="67.529744" xlink:href="#m9f0ca01c9d" y="302.508125"/>
      </g>
     </g>
     <g id="text_1">
      <!-- −0.50 -->
      <g transform="translate(52.207088 317.106562)scale(0.1 -0.1)">
       <defs>
        <path d="M 10.59375 35.5 
L 73.1875 35.5 
L 73.1875 27.203125 
L 10.59375 27.203125 
z
" id="DejaVuSans-8722"/>
        <path d="M 31.78125 66.40625 
Q 24.171875 66.40625 20.328125 58.90625 
Q 16.5 51.421875 16.5 36.375 
Q 16.5 21.390625 20.328125 13.890625 
Q 24.171875 6.390625 31.78125 6.390625 
Q 39.453125 6.390625 43.28125 13.890625 
Q 47.125 21.390625 47.125 36.375 
Q 47.125 51.421875 43.28125 58.90625 
Q 39.453125 66.40625 31.78125 66.40625 
z
M 31.78125 74.21875 
Q 44.046875 74.21875 50.515625 64.515625 
Q 56.984375 54.828125 56.984375 36.375 
Q 56.984375 17.96875 50.515625 8.265625 
Q 44.046875 -1.421875 31.78125 -1.421875 
Q 19.53125 -1.421875 13.0625 8.265625 
Q 6.59375 17.96875 6.59375 36.375 
Q 6.59375 54.828125 13.0625 64.515625 
Q 19.53125 74.21875 31.78125 74.21875 
z
" id="DejaVuSans-48"/>
        <path d="M 10.6875 12.40625 
L 21 12.40625 
L 21 0 
L 10.6875 0 
z
" id="DejaVuSans-46"/>
        <path d="M 10.796875 72.90625 
L 49.515625 72.90625 
L 49.515625 64.59375 
L 19.828125 64.59375 
L 19.828125 46.734375 
Q 21.96875 47.46875 24.109375 47.828125 
Q 26.265625 48.1875 28.421875 48.1875 
Q 40.625 48.1875 47.75 41.5 
Q 54.890625 34.8125 54.890625 23.390625 
Q 54.890625 11.625 47.5625 5.09375 
Q 40.234375 -1.421875 26.90625 -1.421875 
Q 22.3125 -1.421875 17.546875 -0.640625 
Q 12.796875 0.140625 7.71875 1.703125 
L 7.71875 11.625 
Q 12.109375 9.234375 16.796875 8.0625 
Q 21.484375 6.890625 26.703125 6.890625 
Q 35.15625 6.890625 40.078125 11.328125 
Q 45.015625 15.765625 45.015625 23.390625 
Q 45.015625 31 40.078125 35.4375 
Q 35.15625 39.890625 26.703125 39.890625 
Q 22.75 39.890625 18.8125 39.015625 
Q 14.890625 38.140625 10.796875 36.28125 
z
" id="DejaVuSans-53"/>
       </defs>
       <use xlink:href="#DejaVuSans-8722"/>
       <use x="83.789062" xlink:href="#DejaVuSans-48"/>
       <use x="147.412109" xlink:href="#DejaVuSans-46"/>
       <use x="179.199219" xlink:href="#DejaVuSans-53"/>
       <use x="242.822266" xlink:href="#DejaVuSans-48"/>
      </g>
     </g>
    </g>
    <g id="xtick_2">
     <g id="line2d_2">
      <g>
       <use style="stroke:#000000;stroke-width:0.8;" x="158.594091" xlink:href="#m9f0ca01c9d" y="302.508125"/>
      </g>
     </g>
     <g id="text_2">
      <!-- −0.25 -->
      <g transform="translate(143.271435 317.106562)scale(0.1 -0.1)">
       <defs>
        <path d="M 19.1875 8.296875 
L 53.609375 8.296875 
L 53.609375 0 
L 7.328125 0 
L 7.328125 8.296875 
Q 12.9375 14.109375 22.625 23.890625 
Q 32.328125 33.6875 34.8125 36.53125 
Q 39.546875 41.84375 41.421875 45.53125 
Q 43.3125 49.21875 43.3125 52.78125 
Q 43.3125 58.59375 39.234375 62.25 
Q 35.15625 65.921875 28.609375 65.921875 
Q 23.96875 65.921875 18.8125 64.3125 
Q 13.671875 62.703125 7.8125 59.421875 
L 7.8125 69.390625 
Q 13.765625 71.78125 18.9375 73 
Q 24.125 74.21875 28.421875 74.21875 
Q 39.75 74.21875 46.484375 68.546875 
Q 53.21875 62.890625 53.21875 53.421875 
Q 53.21875 48.921875 51.53125 44.890625 
Q 49.859375 40.875 45.40625 35.40625 
Q 44.1875 33.984375 37.640625 27.21875 
Q 31.109375 20.453125 19.1875 8.296875 
z
" id="DejaVuSans-50"/>
       </defs>
       <use xlink:href="#DejaVuSans-8722"/>
       <use x="83.789062" xlink:href="#DejaVuSans-48"/>
       <use x="147.412109" xlink:href="#DejaVuSans-46"/>
       <use x="179.199219" xlink:href="#DejaVuSans-50"/>
       <use x="242.822266" xlink:href="#DejaVuSans-53"/>
      </g>
     </g>
    </g>
    <g id="xtick_3">
     <g id="line2d_3">
      <g>
       <use style="stroke:#000000;stroke-width:0.8;" x="249.658437" xlink:href="#m9f0ca01c9d" y="302.508125"/>
      </g>
     </g>
     <g id="text_3">
      <!-- 0.00 -->
      <g transform="translate(238.525625 317.106562)scale(0.1 -0.1)">
       <use xlink:href="#DejaVuSans-48"/>
       <use x="63.623047" xlink:href="#DejaVuSans-46"/>
       <use x="95.410156" xlink:href="#DejaVuSans-48"/>
       <use x="159.033203" xlink:href="#DejaVuSans-48"/>
      </g>
     </g>
    </g>
    <g id="xtick_4">
     <g id="line2d_4">
      <g>
       <use style="stroke:#000000;stroke-width:0.8;" x="340.722784" xlink:href="#m9f0ca01c9d" y="302.508125"/>
      </g>
     </g>
     <g id="text_4">
      <!-- 0.25 -->
      <g transform="translate(329.589972 317.106562)scale(0.1 -0.1)">
       <use xlink:href="#DejaVuSans-48"/>
       <use x="63.623047" xlink:href="#DejaVuSans-46"/>
       <use x="95.410156" xlink:href="#DejaVuSans-50"/>
       <use x="159.033203" xlink:href="#DejaVuSans-53"/>
      </g>
     </g>
    </g>
    <g id="xtick_5">
     <g id="line2d_5">
      <g>
       <use style="stroke:#000000;stroke-width:0.8;" x="431.787131" xlink:href="#m9f0ca01c9d" y="302.508125"/>
      </g>
     </g>
     <g id="text_5">
      <!-- 0.50 -->
      <g transform="translate(420.654318 317.106562)scale(0.1 -0.1)">
       <use xlink:href="#DejaVuSans-48"/>
       <use x="63.623047" xlink:href="#DejaVuSans-46"/>
       <use x="95.410156" xlink:href="#DejaVuSans-53"/>
       <use x="159.033203" xlink:href="#DejaVuSans-48"/>
      </g>
     </g>
    </g>
    <g id="text_6">
     <!-- $\tau/T$ -->
     <g transform="translate(240.358437 332.304375)scale(0.12 -0.12)">
      <defs>
       <path d="M 32.859375 9.96875 
Q 34.1875 7.625 39.453125 7.625 
L 43.75 7.625 
L 42.28125 0 
L 36.921875 0 
Q 28.125 0 25 4.6875 
Q 21.921875 9.46875 23.96875 19.828125 
L 29 45.703125 
L 8.453125 45.703125 
L 10.203125 54.6875 
L 60.640625 54.6875 
L 58.890625 45.703125 
L 38.1875 45.703125 
L 33.015625 19.28125 
Q 31.640625 12.203125 32.859375 9.96875 
z
" id="DejaVuSans-Oblique-964"/>
       <path d="M 25.390625 72.90625 
L 33.6875 72.90625 
L 8.296875 -9.28125 
L 0 -9.28125 
z
" id="DejaVuSans-47"/>
       <path d="M 5.90625 72.90625 
L 67.578125 72.90625 
L 66.015625 64.59375 
L 39.984375 64.59375 
L 27.484375 0 
L 17.578125 0 
L 30.078125 64.59375 
L 4.296875 64.59375 
z
" id="DejaVuSans-Oblique-84"/>
      </defs>
      <use transform="translate(0 0.09375)" xlink:href="#DejaVuSans-Oblique-964"/>
      <use transform="translate(60.205078 0.09375)" xlink:href="#DejaVuSans-47"/>
      <use transform="translate(93.896484 0.09375)" xlink:href="#DejaVuSans-Oblique-84"/>
     </g>
    </g>
   </g>
   <g id="matplotlib.axis_2">
    <g id="ytick_1">
     <g id="line2d_6">
      <defs>
       <path d="M 0 0 
L -3.5 0 
" id="me9e4882a88" style="stroke:#000000;stroke-width:0.8;"/>
      </defs>
      <g>
       <use style="stroke:#000000;stroke-width:0.8;" x="49.316875" xlink:href="#me9e4882a88" y="268.547312"/>
      </g>
     </g>
     <g id="text_7">
      <!-- 0.6 -->
      <g transform="translate(26.41375 272.346531)scale(0.1 -0.1)">
       <defs>
        <path d="M 33.015625 40.375 
Q 26.375 40.375 22.484375 35.828125 
Q 18.609375 31.296875 18.609375 23.390625 
Q 18.609375 15.53125 22.484375 10.953125 
Q 26.375 6.390625 33.015625 6.390625 
Q 39.65625 6.390625 43.53125 10.953125 
Q 47.40625 15.53125 47.40625 23.390625 
Q 47.40625 31.296875 43.53125 35.828125 
Q 39.65625 40.375 33.015625 40.375 
z
M 52.59375 71.296875 
L 52.59375 62.3125 
Q 48.875 64.0625 45.09375 64.984375 
Q 41.3125 65.921875 37.59375 65.921875 
Q 27.828125 65.921875 22.671875 59.328125 
Q 17.53125 52.734375 16.796875 39.40625 
Q 19.671875 43.65625 24.015625 45.921875 
Q 28.375 48.1875 33.59375 48.1875 
Q 44.578125 48.1875 50.953125 41.515625 
Q 57.328125 34.859375 57.328125 23.390625 
Q 57.328125 12.15625 50.6875 5.359375 
Q 44.046875 -1.421875 33.015625 -1.421875 
Q 20.359375 -1.421875 13.671875 8.265625 
Q 6.984375 17.96875 6.984375 36.375 
Q 6.984375 53.65625 15.1875 63.9375 
Q 23.390625 74.21875 37.203125 74.21875 
Q 40.921875 74.21875 44.703125 73.484375 
Q 48.484375 72.75 52.59375 71.296875 
z
" id="DejaVuSans-54"/>
       </defs>
       <use xlink:href="#DejaVuSans-48"/>
       <use x="63.623047" xlink:href="#DejaVuSans-46"/>
       <use x="95.410156" xlink:href="#DejaVuSans-54"/>
      </g>
     </g>
    </g>
    <g id="ytick_2">
     <g id="line2d_7">
      <g>
       <use style="stroke:#000000;stroke-width:0.8;" x="49.316875" xlink:href="#me9e4882a88" y="227.348706"/>
      </g>
     </g>
     <g id="text_8">
      <!-- 0.8 -->
      <g transform="translate(26.41375 231.147924)scale(0.1 -0.1)">
       <defs>
        <path d="M 31.78125 34.625 
Q 24.75 34.625 20.71875 30.859375 
Q 16.703125 27.09375 16.703125 20.515625 
Q 16.703125 13.921875 20.71875 10.15625 
Q 24.75 6.390625 31.78125 6.390625 
Q 38.8125 6.390625 42.859375 10.171875 
Q 46.921875 13.96875 46.921875 20.515625 
Q 46.921875 27.09375 42.890625 30.859375 
Q 38.875 34.625 31.78125 34.625 
z
M 21.921875 38.8125 
Q 15.578125 40.375 12.03125 44.71875 
Q 8.5 49.078125 8.5 55.328125 
Q 8.5 64.0625 14.71875 69.140625 
Q 20.953125 74.21875 31.78125 74.21875 
Q 42.671875 74.21875 48.875 69.140625 
Q 55.078125 64.0625 55.078125 55.328125 
Q 55.078125 49.078125 51.53125 44.71875 
Q 48 40.375 41.703125 38.8125 
Q 48.828125 37.15625 52.796875 32.3125 
Q 56.78125 27.484375 56.78125 20.515625 
Q 56.78125 9.90625 50.3125 4.234375 
Q 43.84375 -1.421875 31.78125 -1.421875 
Q 19.734375 -1.421875 13.25 4.234375 
Q 6.78125 9.90625 6.78125 20.515625 
Q 6.78125 27.484375 10.78125 32.3125 
Q 14.796875 37.15625 21.921875 38.8125 
z
M 18.3125 54.390625 
Q 18.3125 48.734375 21.84375 45.5625 
Q 25.390625 42.390625 31.78125 42.390625 
Q 38.140625 42.390625 41.71875 45.5625 
Q 45.3125 48.734375 45.3125 54.390625 
Q 45.3125 60.0625 41.71875 63.234375 
Q 38.140625 66.40625 31.78125 66.40625 
Q 25.390625 66.40625 21.84375 63.234375 
Q 18.3125 60.0625 18.3125 54.390625 
z
" id="DejaVuSans-56"/>
       </defs>
       <use xlink:href="#DejaVuSans-48"/>
       <use x="63.623047" xlink:href="#DejaVuSans-46"/>
       <use x="95.410156" xlink:href="#DejaVuSans-56"/>
      </g>
     </g>
    </g>
    <g id="ytick_3">
     <g id="line2d_8">
      <g>
       <use style="stroke:#000000;stroke-width:0.8;" x="49.316875" xlink:href="#me9e4882a88" y="186.150099"/>
      </g>
     </g>
     <g id="text_9">
      <!-- 1.0 -->
      <g transform="translate(26.41375 189.949317)scale(0.1 -0.1)">
       <defs>
        <path d="M 12.40625 8.296875 
L 28.515625 8.296875 
L 28.515625 63.921875 
L 10.984375 60.40625 
L 10.984375 69.390625 
L 28.421875 72.90625 
L 38.28125 72.90625 
L 38.28125 8.296875 
L 54.390625 8.296875 
L 54.390625 0 
L 12.40625 0 
z
" id="DejaVuSans-49"/>
       </defs>
       <use xlink:href="#DejaVuSans-49"/>
       <use x="63.623047" xlink:href="#DejaVuSans-46"/>
       <use x="95.410156" xlink:href="#DejaVuSans-48"/>
      </g>
     </g>
    </g>
    <g id="ytick_4">
     <g id="line2d_9">
      <g>
       <use style="stroke:#000000;stroke-width:0.8;" x="49.316875" xlink:href="#me9e4882a88" y="144.951492"/>
      </g>
     </g>
     <g id="text_10">
      <!-- 1.2 -->
      <g transform="translate(26.41375 148.75071)scale(0.1 -0.1)">
       <use xlink:href="#DejaVuSans-49"/>
       <use x="63.623047" xlink:href="#DejaVuSans-46"/>
       <use x="95.410156" xlink:href="#DejaVuSans-50"/>
      </g>
     </g>
    </g>
    <g id="ytick_5">
     <g id="line2d_10">
      <g>
       <use style="stroke:#000000;stroke-width:0.8;" x="49.316875" xlink:href="#me9e4882a88" y="103.752885"/>
      </g>
     </g>
     <g id="text_11">
      <!-- 1.4 -->
      <g transform="translate(26.41375 107.552104)scale(0.1 -0.1)">
       <defs>
        <path d="M 37.796875 64.3125 
L 12.890625 25.390625 
L 37.796875 25.390625 
z
M 35.203125 72.90625 
L 47.609375 72.90625 
L 47.609375 25.390625 
L 58.015625 25.390625 
L 58.015625 17.1875 
L 47.609375 17.1875 
L 47.609375 0 
L 37.796875 0 
L 37.796875 17.1875 
L 4.890625 17.1875 
L 4.890625 26.703125 
z
" id="DejaVuSans-52"/>
       </defs>
       <use xlink:href="#DejaVuSans-49"/>
       <use x="63.623047" xlink:href="#DejaVuSans-46"/>
       <use x="95.410156" xlink:href="#DejaVuSans-52"/>
      </g>
     </g>
    </g>
    <g id="ytick_6">
     <g id="line2d_11">
      <g>
       <use style="stroke:#000000;stroke-width:0.8;" x="49.316875" xlink:href="#me9e4882a88" y="62.554278"/>
      </g>
     </g>
     <g id="text_12">
      <!-- 1.6 -->
      <g transform="translate(26.41375 66.353497)scale(0.1 -0.1)">
       <use xlink:href="#DejaVuSans-49"/>
       <use x="63.623047" xlink:href="#DejaVuSans-46"/>
       <use x="95.410156" xlink:href="#DejaVuSans-54"/>
      </g>
     </g>
    </g>
    <g id="text_13">
     <!-- cross-correlation -->
     <g transform="translate(19.918125 213.74375)rotate(-90)scale(0.12 -0.12)">
      <defs>
       <path d="M 48.78125 52.59375 
L 48.78125 44.1875 
Q 44.96875 46.296875 41.140625 47.34375 
Q 37.3125 48.390625 33.40625 48.390625 
Q 24.65625 48.390625 19.8125 42.84375 
Q 14.984375 37.3125 14.984375 27.296875 
Q 14.984375 17.28125 19.8125 11.734375 
Q 24.65625 6.203125 33.40625 6.203125 
Q 37.3125 6.203125 41.140625 7.25 
Q 44.96875 8.296875 48.78125 10.40625 
L 48.78125 2.09375 
Q 45.015625 0.34375 40.984375 -0.53125 
Q 36.96875 -1.421875 32.421875 -1.421875 
Q 20.0625 -1.421875 12.78125 6.34375 
Q 5.515625 14.109375 5.515625 27.296875 
Q 5.515625 40.671875 12.859375 48.328125 
Q 20.21875 56 33.015625 56 
Q 37.15625 56 41.109375 55.140625 
Q 45.0625 54.296875 48.78125 52.59375 
z
" id="DejaVuSans-99"/>
       <path d="M 41.109375 46.296875 
Q 39.59375 47.171875 37.8125 47.578125 
Q 36.03125 48 33.890625 48 
Q 26.265625 48 22.1875 43.046875 
Q 18.109375 38.09375 18.109375 28.8125 
L 18.109375 0 
L 9.078125 0 
L 9.078125 54.6875 
L 18.109375 54.6875 
L 18.109375 46.1875 
Q 20.953125 51.171875 25.484375 53.578125 
Q 30.03125 56 36.53125 56 
Q 37.453125 56 38.578125 55.875 
Q 39.703125 55.765625 41.0625 55.515625 
z
" id="DejaVuSans-114"/>
       <path d="M 30.609375 48.390625 
Q 23.390625 48.390625 19.1875 42.75 
Q 14.984375 37.109375 14.984375 27.296875 
Q 14.984375 17.484375 19.15625 11.84375 
Q 23.34375 6.203125 30.609375 6.203125 
Q 37.796875 6.203125 41.984375 11.859375 
Q 46.1875 17.53125 46.1875 27.296875 
Q 46.1875 37.015625 41.984375 42.703125 
Q 37.796875 48.390625 30.609375 48.390625 
z
M 30.609375 56 
Q 42.328125 56 49.015625 48.375 
Q 55.71875 40.765625 55.71875 27.296875 
Q 55.71875 13.875 49.015625 6.21875 
Q 42.328125 -1.421875 30.609375 -1.421875 
Q 18.84375 -1.421875 12.171875 6.21875 
Q 5.515625 13.875 5.515625 27.296875 
Q 5.515625 40.765625 12.171875 48.375 
Q 18.84375 56 30.609375 56 
z
" id="DejaVuSans-111"/>
       <path d="M 44.28125 53.078125 
L 44.28125 44.578125 
Q 40.484375 46.53125 36.375 47.5 
Q 32.28125 48.484375 27.875 48.484375 
Q 21.1875 48.484375 17.84375 46.4375 
Q 14.5 44.390625 14.5 40.28125 
Q 14.5 37.15625 16.890625 35.375 
Q 19.28125 33.59375 26.515625 31.984375 
L 29.59375 31.296875 
Q 39.15625 29.25 43.1875 25.515625 
Q 47.21875 21.78125 47.21875 15.09375 
Q 47.21875 7.46875 41.1875 3.015625 
Q 35.15625 -1.421875 24.609375 -1.421875 
Q 20.21875 -1.421875 15.453125 -0.5625 
Q 10.6875 0.296875 5.421875 2 
L 5.421875 11.28125 
Q 10.40625 8.6875 15.234375 7.390625 
Q 20.0625 6.109375 24.8125 6.109375 
Q 31.15625 6.109375 34.5625 8.28125 
Q 37.984375 10.453125 37.984375 14.40625 
Q 37.984375 18.0625 35.515625 20.015625 
Q 33.0625 21.96875 24.703125 23.78125 
L 21.578125 24.515625 
Q 13.234375 26.265625 9.515625 29.90625 
Q 5.8125 33.546875 5.8125 39.890625 
Q 5.8125 47.609375 11.28125 51.796875 
Q 16.75 56 26.8125 56 
Q 31.78125 56 36.171875 55.265625 
Q 40.578125 54.546875 44.28125 53.078125 
z
" id="DejaVuSans-115"/>
       <path d="M 4.890625 31.390625 
L 31.203125 31.390625 
L 31.203125 23.390625 
L 4.890625 23.390625 
z
" id="DejaVuSans-45"/>
       <path d="M 56.203125 29.59375 
L 56.203125 25.203125 
L 14.890625 25.203125 
Q 15.484375 15.921875 20.484375 11.0625 
Q 25.484375 6.203125 34.421875 6.203125 
Q 39.59375 6.203125 44.453125 7.46875 
Q 49.3125 8.734375 54.109375 11.28125 
L 54.109375 2.78125 
Q 49.265625 0.734375 44.1875 -0.34375 
Q 39.109375 -1.421875 33.890625 -1.421875 
Q 20.796875 -1.421875 13.15625 6.1875 
Q 5.515625 13.8125 5.515625 26.8125 
Q 5.515625 40.234375 12.765625 48.109375 
Q 20.015625 56 32.328125 56 
Q 43.359375 56 49.78125 48.890625 
Q 56.203125 41.796875 56.203125 29.59375 
z
M 47.21875 32.234375 
Q 47.125 39.59375 43.09375 43.984375 
Q 39.0625 48.390625 32.421875 48.390625 
Q 24.90625 48.390625 20.390625 44.140625 
Q 15.875 39.890625 15.1875 32.171875 
z
" id="DejaVuSans-101"/>
       <path d="M 9.421875 75.984375 
L 18.40625 75.984375 
L 18.40625 0 
L 9.421875 0 
z
" id="DejaVuSans-108"/>
       <path d="M 34.28125 27.484375 
Q 23.390625 27.484375 19.1875 25 
Q 14.984375 22.515625 14.984375 16.5 
Q 14.984375 11.71875 18.140625 8.90625 
Q 21.296875 6.109375 26.703125 6.109375 
Q 34.1875 6.109375 38.703125 11.40625 
Q 43.21875 16.703125 43.21875 25.484375 
L 43.21875 27.484375 
z
M 52.203125 31.203125 
L 52.203125 0 
L 43.21875 0 
L 43.21875 8.296875 
Q 40.140625 3.328125 35.546875 0.953125 
Q 30.953125 -1.421875 24.3125 -1.421875 
Q 15.921875 -1.421875 10.953125 3.296875 
Q 6 8.015625 6 15.921875 
Q 6 25.140625 12.171875 29.828125 
Q 18.359375 34.515625 30.609375 34.515625 
L 43.21875 34.515625 
L 43.21875 35.40625 
Q 43.21875 41.609375 39.140625 45 
Q 35.0625 48.390625 27.6875 48.390625 
Q 23 48.390625 18.546875 47.265625 
Q 14.109375 46.140625 10.015625 43.890625 
L 10.015625 52.203125 
Q 14.9375 54.109375 19.578125 55.046875 
Q 24.21875 56 28.609375 56 
Q 40.484375 56 46.34375 49.84375 
Q 52.203125 43.703125 52.203125 31.203125 
z
" id="DejaVuSans-97"/>
       <path d="M 18.3125 70.21875 
L 18.3125 54.6875 
L 36.8125 54.6875 
L 36.8125 47.703125 
L 18.3125 47.703125 
L 18.3125 18.015625 
Q 18.3125 11.328125 20.140625 9.421875 
Q 21.96875 7.515625 27.59375 7.515625 
L 36.8125 7.515625 
L 36.8125 0 
L 27.59375 0 
Q 17.1875 0 13.234375 3.875 
Q 9.28125 7.765625 9.28125 18.015625 
L 9.28125 47.703125 
L 2.6875 47.703125 
L 2.6875 54.6875 
L 9.28125 54.6875 
L 9.28125 70.21875 
z
" id="DejaVuSans-116"/>
       <path d="M 9.421875 54.6875 
L 18.40625 54.6875 
L 18.40625 0 
L 9.421875 0 
z
M 9.421875 75.984375 
L 18.40625 75.984375 
L 18.40625 64.59375 
L 9.421875 64.59375 
z
" id="DejaVuSans-105"/>
       <path d="M 54.890625 33.015625 
L 54.890625 0 
L 45.90625 0 
L 45.90625 32.71875 
Q 45.90625 40.484375 42.875 44.328125 
Q 39.84375 48.1875 33.796875 48.1875 
Q 26.515625 48.1875 22.3125 43.546875 
Q 18.109375 38.921875 18.109375 30.90625 
L 18.109375 0 
L 9.078125 0 
L 9.078125 54.6875 
L 18.109375 54.6875 
L 18.109375 46.1875 
Q 21.34375 51.125 25.703125 53.5625 
Q 30.078125 56 35.796875 56 
Q 45.21875 56 50.046875 50.171875 
Q 54.890625 44.34375 54.890625 33.015625 
z
" id="DejaVuSans-110"/>
      </defs>
      <use xlink:href="#DejaVuSans-99"/>
      <use x="54.980469" xlink:href="#DejaVuSans-114"/>
      <use x="93.84375" xlink:href="#DejaVuSans-111"/>
      <use x="155.025391" xlink:href="#DejaVuSans-115"/>
      <use x="207.125" xlink:href="#DejaVuSans-115"/>
      <use x="259.224609" xlink:href="#DejaVuSans-45"/>
      <use x="295.308594" xlink:href="#DejaVuSans-99"/>
      <use x="350.289062" xlink:href="#DejaVuSans-111"/>
      <use x="411.470703" xlink:href="#DejaVuSans-114"/>
      <use x="450.833984" xlink:href="#DejaVuSans-114"/>
      <use x="489.697266" xlink:href="#DejaVuSans-101"/>
      <use x="551.220703" xlink:href="#DejaVuSans-108"/>
      <use x="579.003906" xlink:href="#DejaVuSans-97"/>
      <use x="640.283203" xlink:href="#DejaVuSans-116"/>
      <use x="679.492188" xlink:href="#DejaVuSans-105"/>
      <use x="707.275391" xlink:href="#DejaVuSans-111"/>
      <use x="768.457031" xlink:href="#DejaVuSans-110"/>
     </g>
    </g>
   </g>
   <g id="line2d_12">
    <path clip-path="url(#pd873d42d1b)" d="M 67.529744 275.82443 
L 85.742614 281.798428 
L 103.955483 285.300472 
L 122.168352 281.180709 
L 140.381222 285.094734 
L 158.594091 289.901392 
L 176.80696 289.695521 
L 195.01983 285.163784 
L 213.232699 265.045228 
L 231.445568 247.467301 
L 249.658437 37.766733 
L 267.871307 239.845555 
L 286.084176 250.831685 
L 304.297045 265.594391 
L 322.509915 273.078683 
L 340.722784 275.001152 
L 358.935653 282.828797 
L 377.148523 279.464087 
L 395.361392 278.365313 
L 413.574261 266.623456 
L 431.787131 274.039137 
" style="fill:none;stroke:#aa3863;stroke-linecap:square;stroke-opacity:0.8;stroke-width:1.2;"/>
    <defs>
     <path d="M 0 4 
C 1.060812 4 2.078319 3.578535 2.828427 2.828427 
C 3.578535 2.078319 4 1.060812 4 0 
C 4 -1.060812 3.578535 -2.078319 2.828427 -2.828427 
C 2.078319 -3.578535 1.060812 -4 0 -4 
C -1.060812 -4 -2.078319 -3.578535 -2.828427 -2.828427 
C -3.578535 -2.078319 -4 -1.060812 -4 0 
C -4 1.060812 -3.578535 2.078319 -2.828427 2.828427 
C -2.078319 3.578535 -1.060812 4 0 4 
z
" id="mf80c52786d" style="stroke:#aa3863;stroke-opacity:0.8;"/>
    </defs>
    <g clip-path="url(#pd873d42d1b)">
     <use style="fill:#aa3863;fill-opacity:0.8;stroke:#aa3863;stroke-opacity:0.8;" x="67.529744" xlink:href="#mf80c52786d" y="275.82443"/>
     <use style="fill:#aa3863;fill-opacity:0.8;stroke:#aa3863;stroke-opacity:0.8;" x="85.742614" xlink:href="#mf80c52786d" y="281.798428"/>
     <use style="fill:#aa3863;fill-opacity:0.8;stroke:#aa3863;stroke-opacity:0.8;" x="103.955483" xlink:href="#mf80c52786d" y="285.300472"/>
     <use style="fill:#aa3863;fill-opacity:0.8;stroke:#aa3863;stroke-opacity:0.8;" x="122.168352" xlink:href="#mf80c52786d" y="281.180709"/>
     <use style="fill:#aa3863;fill-opacity:0.8;stroke:#aa3863;stroke-opacity:0.8;" x="140.381222" xlink:href="#mf80c52786d" y="285.094734"/>
     <use style="fill:#aa3863;fill-opacity:0.8;stroke:#aa3863;stroke-opacity:0.8;" x="158.594091" xlink:href="#mf80c52786d" y="289.901392"/>
     <use style="fill:#aa3863;fill-opacity:0.8;stroke:#aa3863;stroke-opacity:0.8;" x="176.80696" xlink:href="#mf80c52786d" y="289.695521"/>
     <use style="fill:#aa3863;fill-opacity:0.8;stroke:#aa3863;stroke-opacity:0.8;" x="195.01983" xlink:href="#mf80c52786d" y="285.163784"/>
     <use style="fill:#aa3863;fill-opacity:0.8;stroke:#aa3863;stroke-opacity:0.8;" x="213.232699" xlink:href="#mf80c52786d" y="265.045228"/>
     <use style="fill:#aa3863;fill-opacity:0.8;stroke:#aa3863;stroke-opacity:0.8;" x="231.445568" xlink:href="#mf80c52786d" y="247.467301"/>
     <use style="fill:#aa3863;fill-opacity:0.8;stroke:#aa3863;stroke-opacity:0.8;" x="249.658437" xlink:href="#mf80c52786d" y="37.766733"/>
     <use style="fill:#aa3863;fill-opacity:0.8;stroke:#aa3863;stroke-opacity:0.8;" x="267.871307" xlink:href="#mf80c52786d" y="239.845555"/>
     <use style="fill:#aa3863;fill-opacity:0.8;stroke:#aa3863;stroke-opacity:0.8;" x="286.084176" xlink:href="#mf80c52786d" y="250.831685"/>
     <use style="fill:#aa3863;fill-opacity:0.8;stroke:#aa3863;stroke-opacity:0.8;" x="304.297045" xlink:href="#mf80c52786d" y="265.594391"/>
     <use style="fill:#aa3863;fill-opacity:0.8;stroke:#aa3863;stroke-opacity:0.8;" x="322.509915" xlink:href="#mf80c52786d" y="273.078683"/>
     <use style="fill:#aa3863;fill-opacity:0.8;stroke:#aa3863;stroke-opacity:0.8;" x="340.722784" xlink:href="#mf80c52786d" y="275.001152"/>
     <use style="fill:#aa3863;fill-opacity:0.8;stroke:#aa3863;stroke-opacity:0.8;" x="358.935653" xlink:href="#mf80c52786d" y="282.828797"/>
     <use style="fill:#aa3863;fill-opacity:0.8;stroke:#aa3863;stroke-opacity:0.8;" x="377.148523" xlink:href="#mf80c52786d" y="279.464087"/>
     <use style="fill:#aa3863;fill-opacity:0.8;stroke:#aa3863;stroke-opacity:0.8;" x="395.361392" xlink:href="#mf80c52786d" y="278.365313"/>
     <use style="fill:#aa3863;fill-opacity:0.8;stroke:#aa3863;stroke-opacity:0.8;" x="413.574261" xlink:href="#mf80c52786d" y="266.623456"/>
     <use style="fill:#aa3863;fill-opacity:0.8;stroke:#aa3863;stroke-opacity:0.8;" x="431.787131" xlink:href="#mf80c52786d" y="274.039137"/>
    </g>
   </g>
   <g id="patch_3">
    <path d="M 49.316875 302.508125 
L 49.316875 25.16 
" style="fill:none;stroke:#000000;stroke-linecap:square;stroke-linejoin:miter;stroke-width:0.8;"/>
   </g>
   <g id="patch_4">
    <path d="M 450 302.508125 
L 450 25.16 
" style="fill:none;stroke:#000000;stroke-linecap:square;stroke-linejoin:miter;stroke-width:0.8;"/>
   </g>
   <g id="patch_5">
    <path d="M 49.316875 302.508125 
L 450 302.508125 
" style="fill:none;stroke:#000000;stroke-linecap:square;stroke-linejoin:miter;stroke-width:0.8;"/>
   </g>
   <g id="patch_6">
    <path d="M 49.316875 25.16 
L 450 25.16 
" style="fill:none;stroke:#000000;stroke-linecap:square;stroke-linejoin:miter;stroke-width:0.8;"/>
   </g>
   <g id="text_14">
    <!-- Two electrically coupled neurons with stochastic input $I_1 = 1.4 + 0.04W, I_2 = 1.4 + 0.02W$ -->
    <g transform="translate(7.328437 19.16)scale(0.11 -0.11)">
     <defs>
      <path d="M -0.296875 72.90625 
L 61.375 72.90625 
L 61.375 64.59375 
L 35.5 64.59375 
L 35.5 0 
L 25.59375 0 
L 25.59375 64.59375 
L -0.296875 64.59375 
z
" id="DejaVuSans-84"/>
      <path d="M 4.203125 54.6875 
L 13.1875 54.6875 
L 24.421875 12.015625 
L 35.59375 54.6875 
L 46.1875 54.6875 
L 57.421875 12.015625 
L 68.609375 54.6875 
L 77.59375 54.6875 
L 63.28125 0 
L 52.6875 0 
L 40.921875 44.828125 
L 29.109375 0 
L 18.5 0 
z
" id="DejaVuSans-119"/>
      <path id="DejaVuSans-32"/>
      <path d="M 32.171875 -5.078125 
Q 28.375 -14.84375 24.75 -17.8125 
Q 21.140625 -20.796875 15.09375 -20.796875 
L 7.90625 -20.796875 
L 7.90625 -13.28125 
L 13.1875 -13.28125 
Q 16.890625 -13.28125 18.9375 -11.515625 
Q 21 -9.765625 23.484375 -3.21875 
L 25.09375 0.875 
L 2.984375 54.6875 
L 12.5 54.6875 
L 29.59375 11.921875 
L 46.6875 54.6875 
L 56.203125 54.6875 
z
" id="DejaVuSans-121"/>
      <path d="M 8.5 21.578125 
L 8.5 54.6875 
L 17.484375 54.6875 
L 17.484375 21.921875 
Q 17.484375 14.15625 20.5 10.265625 
Q 23.53125 6.390625 29.59375 6.390625 
Q 36.859375 6.390625 41.078125 11.03125 
Q 45.3125 15.671875 45.3125 23.6875 
L 45.3125 54.6875 
L 54.296875 54.6875 
L 54.296875 0 
L 45.3125 0 
L 45.3125 8.40625 
Q 42.046875 3.421875 37.71875 1 
Q 33.40625 -1.421875 27.6875 -1.421875 
Q 18.265625 -1.421875 13.375 4.4375 
Q 8.5 10.296875 8.5 21.578125 
z
M 31.109375 56 
z
" id="DejaVuSans-117"/>
      <path d="M 18.109375 8.203125 
L 18.109375 -20.796875 
L 9.078125 -20.796875 
L 9.078125 54.6875 
L 18.109375 54.6875 
L 18.109375 46.390625 
Q 20.953125 51.265625 25.265625 53.625 
Q 29.59375 56 35.59375 56 
Q 45.5625 56 51.78125 48.09375 
Q 58.015625 40.1875 58.015625 27.296875 
Q 58.015625 14.40625 51.78125 6.484375 
Q 45.5625 -1.421875 35.59375 -1.421875 
Q 29.59375 -1.421875 25.265625 0.953125 
Q 20.953125 3.328125 18.109375 8.203125 
z
M 48.6875 27.296875 
Q 48.6875 37.203125 44.609375 42.84375 
Q 40.53125 48.484375 33.40625 48.484375 
Q 26.265625 48.484375 22.1875 42.84375 
Q 18.109375 37.203125 18.109375 27.296875 
Q 18.109375 17.390625 22.1875 11.75 
Q 26.265625 6.109375 33.40625 6.109375 
Q 40.53125 6.109375 44.609375 11.75 
Q 48.6875 17.390625 48.6875 27.296875 
z
" id="DejaVuSans-112"/>
      <path d="M 45.40625 46.390625 
L 45.40625 75.984375 
L 54.390625 75.984375 
L 54.390625 0 
L 45.40625 0 
L 45.40625 8.203125 
Q 42.578125 3.328125 38.25 0.953125 
Q 33.9375 -1.421875 27.875 -1.421875 
Q 17.96875 -1.421875 11.734375 6.484375 
Q 5.515625 14.40625 5.515625 27.296875 
Q 5.515625 40.1875 11.734375 48.09375 
Q 17.96875 56 27.875 56 
Q 33.9375 56 38.25 53.625 
Q 42.578125 51.265625 45.40625 46.390625 
z
M 14.796875 27.296875 
Q 14.796875 17.390625 18.875 11.75 
Q 22.953125 6.109375 30.078125 6.109375 
Q 37.203125 6.109375 41.296875 11.75 
Q 45.40625 17.390625 45.40625 27.296875 
Q 45.40625 37.203125 41.296875 42.84375 
Q 37.203125 48.484375 30.078125 48.484375 
Q 22.953125 48.484375 18.875 42.84375 
Q 14.796875 37.203125 14.796875 27.296875 
z
" id="DejaVuSans-100"/>
      <path d="M 54.890625 33.015625 
L 54.890625 0 
L 45.90625 0 
L 45.90625 32.71875 
Q 45.90625 40.484375 42.875 44.328125 
Q 39.84375 48.1875 33.796875 48.1875 
Q 26.515625 48.1875 22.3125 43.546875 
Q 18.109375 38.921875 18.109375 30.90625 
L 18.109375 0 
L 9.078125 0 
L 9.078125 75.984375 
L 18.109375 75.984375 
L 18.109375 46.1875 
Q 21.34375 51.125 25.703125 53.5625 
Q 30.078125 56 35.796875 56 
Q 45.21875 56 50.046875 50.171875 
Q 54.890625 44.34375 54.890625 33.015625 
z
" id="DejaVuSans-104"/>
      <path d="M 16.890625 72.90625 
L 26.8125 72.90625 
L 12.59375 0 
L 2.6875 0 
z
" id="DejaVuSans-Oblique-73"/>
      <path d="M 10.59375 45.40625 
L 73.1875 45.40625 
L 73.1875 37.203125 
L 10.59375 37.203125 
z
M 10.59375 25.484375 
L 73.1875 25.484375 
L 73.1875 17.1875 
L 10.59375 17.1875 
z
" id="DejaVuSans-61"/>
      <path d="M 46 62.703125 
L 46 35.5 
L 73.1875 35.5 
L 73.1875 27.203125 
L 46 27.203125 
L 46 0 
L 37.796875 0 
L 37.796875 27.203125 
L 10.59375 27.203125 
L 10.59375 35.5 
L 37.796875 35.5 
L 37.796875 62.703125 
z
" id="DejaVuSans-43"/>
      <path d="M 9.625 72.90625 
L 19.1875 72.90625 
L 22.703125 10.890625 
L 50.203125 72.90625 
L 61.1875 72.90625 
L 64.796875 10.890625 
L 92 72.90625 
L 102 72.90625 
L 69.578125 0 
L 57.171875 0 
L 53.8125 60.796875 
L 26.515625 0 
L 14.109375 0 
z
" id="DejaVuSans-Oblique-87"/>
      <path d="M 11.71875 12.40625 
L 22.015625 12.40625 
L 22.015625 4 
L 14.015625 -11.625 
L 7.71875 -11.625 
L 11.71875 4 
z
" id="DejaVuSans-44"/>
     </defs>
     <use transform="translate(0 0.015625)" xlink:href="#DejaVuSans-84"/>
     <use transform="translate(61.083984 0.015625)" xlink:href="#DejaVuSans-119"/>
     <use transform="translate(142.871094 0.015625)" xlink:href="#DejaVuSans-111"/>
     <use transform="translate(204.052734 0.015625)" xlink:href="#DejaVuSans-32"/>
     <use transform="translate(235.839844 0.015625)" xlink:href="#DejaVuSans-101"/>
     <use transform="translate(297.363281 0.015625)" xlink:href="#DejaVuSans-108"/>
     <use transform="translate(325.146484 0.015625)" xlink:href="#DejaVuSans-101"/>
     <use transform="translate(386.669922 0.015625)" xlink:href="#DejaVuSans-99"/>
     <use transform="translate(441.650391 0.015625)" xlink:href="#DejaVuSans-116"/>
     <use transform="translate(480.859375 0.015625)" xlink:href="#DejaVuSans-114"/>
     <use transform="translate(521.972656 0.015625)" xlink:href="#DejaVuSans-105"/>
     <use transform="translate(549.755859 0.015625)" xlink:href="#DejaVuSans-99"/>
     <use transform="translate(604.736328 0.015625)" xlink:href="#DejaVuSans-97"/>
     <use transform="translate(666.015625 0.015625)" xlink:href="#DejaVuSans-108"/>
     <use transform="translate(693.798828 0.015625)" xlink:href="#DejaVuSans-108"/>
     <use transform="translate(721.582031 0.015625)" xlink:href="#DejaVuSans-121"/>
     <use transform="translate(780.761719 0.015625)" xlink:href="#DejaVuSans-32"/>
     <use transform="translate(812.548828 0.015625)" xlink:href="#DejaVuSans-99"/>
     <use transform="translate(867.529297 0.015625)" xlink:href="#DejaVuSans-111"/>
     <use transform="translate(928.710938 0.015625)" xlink:href="#DejaVuSans-117"/>
     <use transform="translate(992.089844 0.015625)" xlink:href="#DejaVuSans-112"/>
     <use transform="translate(1055.566406 0.015625)" xlink:href="#DejaVuSans-108"/>
     <use transform="translate(1083.349609 0.015625)" xlink:href="#DejaVuSans-101"/>
     <use transform="translate(1144.873047 0.015625)" xlink:href="#DejaVuSans-100"/>
     <use transform="translate(1208.349609 0.015625)" xlink:href="#DejaVuSans-32"/>
     <use transform="translate(1240.136719 0.015625)" xlink:href="#DejaVuSans-110"/>
     <use transform="translate(1303.515625 0.015625)" xlink:href="#DejaVuSans-101"/>
     <use transform="translate(1365.039062 0.015625)" xlink:href="#DejaVuSans-117"/>
     <use transform="translate(1428.417969 0.015625)" xlink:href="#DejaVuSans-114"/>
     <use transform="translate(1469.53125 0.015625)" xlink:href="#DejaVuSans-111"/>
     <use transform="translate(1530.712891 0.015625)" xlink:href="#DejaVuSans-110"/>
     <use transform="translate(1594.091797 0.015625)" xlink:href="#DejaVuSans-115"/>
     <use transform="translate(1646.191406 0.015625)" xlink:href="#DejaVuSans-32"/>
     <use transform="translate(1677.978516 0.015625)" xlink:href="#DejaVuSans-119"/>
     <use transform="translate(1759.765625 0.015625)" xlink:href="#DejaVuSans-105"/>
     <use transform="translate(1787.548828 0.015625)" xlink:href="#DejaVuSans-116"/>
     <use transform="translate(1826.757812 0.015625)" xlink:href="#DejaVuSans-104"/>
     <use transform="translate(1890.136719 0.015625)" xlink:href="#DejaVuSans-32"/>
     <use transform="translate(1921.923828 0.015625)" xlink:href="#DejaVuSans-115"/>
     <use transform="translate(1974.023438 0.015625)" xlink:href="#DejaVuSans-116"/>
     <use transform="translate(2013.232422 0.015625)" xlink:href="#DejaVuSans-111"/>
     <use transform="translate(2074.414062 0.015625)" xlink:href="#DejaVuSans-99"/>
     <use transform="translate(2129.394531 0.015625)" xlink:href="#DejaVuSans-104"/>
     <use transform="translate(2192.773438 0.015625)" xlink:href="#DejaVuSans-97"/>
     <use transform="translate(2254.052734 0.015625)" xlink:href="#DejaVuSans-115"/>
     <use transform="translate(2306.152344 0.015625)" xlink:href="#DejaVuSans-116"/>
     <use transform="translate(2345.361328 0.015625)" xlink:href="#DejaVuSans-105"/>
     <use transform="translate(2373.144531 0.015625)" xlink:href="#DejaVuSans-99"/>
     <use transform="translate(2428.125 0.015625)" xlink:href="#DejaVuSans-32"/>
     <use transform="translate(2459.912109 0.015625)" xlink:href="#DejaVuSans-105"/>
     <use transform="translate(2487.695312 0.015625)" xlink:href="#DejaVuSans-110"/>
     <use transform="translate(2551.074219 0.015625)" xlink:href="#DejaVuSans-112"/>
     <use transform="translate(2614.550781 0.015625)" xlink:href="#DejaVuSans-117"/>
     <use transform="translate(2677.929688 0.015625)" xlink:href="#DejaVuSans-116"/>
     <use transform="translate(2717.138672 0.015625)" xlink:href="#DejaVuSans-32"/>
     <use transform="translate(2748.925781 0.015625)" xlink:href="#DejaVuSans-Oblique-73"/>
     <use transform="translate(2778.417969 -16.390625)scale(0.7)" xlink:href="#DejaVuSans-49"/>
     <use transform="translate(2845.170898 0.015625)" xlink:href="#DejaVuSans-61"/>
     <use transform="translate(2948.442383 0.015625)" xlink:href="#DejaVuSans-49"/>
     <use transform="translate(3012.06543 0.015625)" xlink:href="#DejaVuSans-46"/>
     <use transform="translate(3043.852539 0.015625)" xlink:href="#DejaVuSans-52"/>
     <use transform="translate(3126.958008 0.015625)" xlink:href="#DejaVuSans-43"/>
     <use transform="translate(3230.229492 0.015625)" xlink:href="#DejaVuSans-48"/>
     <use transform="translate(3293.852539 0.015625)" xlink:href="#DejaVuSans-46"/>
     <use transform="translate(3325.639648 0.015625)" xlink:href="#DejaVuSans-48"/>
     <use transform="translate(3389.262695 0.015625)" xlink:href="#DejaVuSans-52"/>
     <use transform="translate(3452.885742 0.015625)" xlink:href="#DejaVuSans-Oblique-87"/>
     <use transform="translate(3551.762695 0.015625)" xlink:href="#DejaVuSans-44"/>
     <use transform="translate(3603.032227 0.015625)" xlink:href="#DejaVuSans-Oblique-73"/>
     <use transform="translate(3632.524414 -16.390625)scale(0.7)" xlink:href="#DejaVuSans-50"/>
     <use transform="translate(3699.277344 0.015625)" xlink:href="#DejaVuSans-61"/>
     <use transform="translate(3802.548828 0.015625)" xlink:href="#DejaVuSans-49"/>
     <use transform="translate(3866.171875 0.015625)" xlink:href="#DejaVuSans-46"/>
     <use transform="translate(3897.958984 0.015625)" xlink:href="#DejaVuSans-52"/>
     <use transform="translate(3981.064453 0.015625)" xlink:href="#DejaVuSans-43"/>
     <use transform="translate(4084.335938 0.015625)" xlink:href="#DejaVuSans-48"/>
     <use transform="translate(4147.958984 0.015625)" xlink:href="#DejaVuSans-46"/>
     <use transform="translate(4179.746094 0.015625)" xlink:href="#DejaVuSans-48"/>
     <use transform="translate(4243.369141 0.015625)" xlink:href="#DejaVuSans-50"/>
     <use transform="translate(4306.992188 0.015625)" xlink:href="#DejaVuSans-Oblique-87"/>
    </g>
   </g>
  </g>
 </g>
 <defs>
  <clipPath id="pd873d42d1b">
   <rect height="277.348125" width="400.683125" x="49.316875" y="25.16"/>
  </clipPath>
 </defs>
</svg>
